<svg width="34" height="34" viewBox="0 0 34 34" fill="none" xmlns="http://www.w3.org/2000/svg">
<g id="twenty-four-hours-clock-svgrepo-com 1" opacity="0.1" clip-path="url(#clip0_6862_14898)">
<g id="Group">
<path id="Vector" d="M23.3843 7.45541L21.9732 9.89055C21.6235 10.4938 21.9053 10.9824 22.6023 10.9824H22.7545C23.4515 10.9824 24.0166 10.4173 24.0166 9.72036V7.62559C24.0173 6.92863 23.734 6.85287 23.3843 7.45541Z" fill="#1A473F"/>
<path id="Vector_2" d="M24 -14C10.745 -14 0 -3.25495 0 10C0 23.255 10.745 34 24 34C37.255 34 48 23.255 48 10C48 -3.25495 37.2551 -14 24 -14ZM34.2026 -9.06729L35.5521 -8.28208L33.0872 -4.05021L31.7378 -4.83543L34.2026 -9.06729ZM22.0489 -11.5898H25.9513V-5.1329H22.0489V-11.5898ZM13.7991 -9.06729L16.2631 -4.83543L14.9136 -4.05021L12.4496 -8.28208L13.7991 -9.06729ZM2.3235 8.04887H8.80698V11.9513H2.3235V8.04887ZM5.63986 21.5092L4.85938 20.1574L9.1076 17.7028L9.88808 19.0545L5.63986 21.5092ZM9.10832 2.29737L4.8601 -0.157284L5.64058 -1.50903L9.8888 0.945633L9.10832 2.29737ZM13.7991 29.0674L12.4496 28.2822L14.9136 24.0504L16.2631 24.8356L13.7991 29.0674ZM17.504 14.9397H12.6837C11.9867 14.9397 11.4193 14.4457 11.5551 13.8588C11.6379 13.499 11.7589 13.1571 11.9173 12.8325C12.2178 12.1176 12.9281 11.3605 14.0472 10.5621C15.019 9.86669 15.6472 9.36876 15.9329 9.06827C16.3716 8.60004 16.5908 8.08718 16.5908 7.52999C16.5908 7.07654 16.4651 6.69871 16.2139 6.39823C15.9626 6.09775 15.6027 5.94707 15.1336 5.94707C14.4929 5.94707 14.0565 6.18585 13.8248 6.66441C13.7476 6.82513 13.6882 7.04066 13.6476 7.31216C13.5922 7.6798 13.1292 7.981 12.5643 7.981C11.9994 7.981 11.5419 7.46513 11.6676 6.84694C11.7511 6.43568 11.8737 6.07665 12.0359 5.76986C12.5987 4.6998 13.5978 4.16513 15.0346 4.16513C16.1702 4.16513 17.0733 4.47967 17.7437 5.1079C18.415 5.73613 18.7505 6.56899 18.7505 7.60389C18.7505 8.39771 18.5133 9.10243 18.0394 9.71903C17.728 10.128 17.2168 10.5846 16.505 11.0873L15.6597 11.6867C15.1313 12.0613 14.7698 12.333 14.5748 12.5C14.4773 12.5835 14.3876 12.6741 14.3056 12.7716C14.169 12.9339 14.6483 13.0839 15.3453 13.0839H17.5026C18.1996 13.0839 18.7647 13.4992 18.7647 14.0119C18.7661 14.5237 18.201 14.9397 17.504 14.9397ZM25.9513 31.59H22.0489V25.133H25.9513V31.59ZM26.6873 12.6319C26.3525 12.6319 26.0808 13.1486 26.0808 13.7854C26.0808 14.4223 25.6188 14.939 25.0491 14.939C24.4794 14.939 24.0174 14.4223 24.0174 13.7854C24.0174 13.1486 23.4523 12.6319 22.7553 12.6319H21.0343C20.3374 12.6319 19.7723 12.2198 19.7723 11.7109C19.7723 11.2021 20.065 10.3068 20.4264 9.71057L23.0605 5.36175C23.4219 4.76552 24.2445 4.28237 24.8979 4.28237C25.5512 4.28237 26.0811 4.84746 26.0811 5.54442V9.72075C26.0811 10.4177 26.3528 10.9828 26.6876 10.9828C27.0223 10.9828 27.294 11.352 27.294 11.8078C27.2937 12.2635 27.022 12.6319 26.6873 12.6319ZM34.2026 29.0674L31.7378 24.8356L33.0872 24.0504L35.5521 28.2822L34.2026 29.0674ZM36.0507 13.677C36.0507 14.3739 35.5691 14.939 34.9745 14.939C34.3797 14.939 33.8983 14.3739 33.8983 13.677V10.0297C33.8983 9.59491 33.8249 9.24535 33.6782 8.97845C33.4869 8.60306 33.1248 8.41565 32.5917 8.41565C32.0384 8.41565 31.6184 8.60148 31.3328 8.97443C31.0464 9.34752 30.9036 9.87903 30.9036 10.5697V13.676C30.9036 14.3729 30.4314 14.938 29.8499 14.938C29.2685 14.938 28.7962 14.3729 28.7962 13.676V5.33649C28.7962 4.63953 29.2685 4.07444 29.8499 4.07444C30.4314 4.07444 30.9036 4.63953 30.9036 5.33649V6.65781C30.9036 7.35478 31.0722 7.63417 31.3634 7.35478C31.5491 7.17684 31.7474 7.03865 31.9605 6.94036C32.3608 6.75539 32.7823 6.66327 33.2241 6.66327C33.7198 6.66327 34.1701 6.74994 34.5751 6.92242C34.9802 7.09562 35.3127 7.35951 35.5735 7.71539C35.7952 8.01587 35.9293 8.32654 35.9785 8.6441C36.0278 8.9618 36.0527 9.48155 36.0527 10.2019V13.6767H36.0507V13.677ZM42.3603 21.5092L38.1121 19.0545L38.8925 17.7028L43.1408 20.1574L42.3603 21.5092ZM45.6765 11.9513H39.193V8.04887H45.6765V11.9513ZM43.1408 -0.156424L38.8925 2.29823L38.1121 0.946493L42.3603 -1.50831L43.1408 -0.156424Z" fill="#1A473F"/>
</g>
</g>
<defs>
<clipPath id="clip0_6862_14898">
<rect width="48" height="48" fill="white" transform="translate(0 -14)"/>
</clipPath>
</defs>
</svg>
