<svg width="32" height="32" viewBox="0 0 32 32" fill="none" xmlns="http://www.w3.org/2000/svg">
<g id="power-svgrepo-com 1">
<g id="Group">
<g id="Group_2">
<path id="Vector" d="M15.9999 22.6663C19.6818 22.6663 22.6666 19.6816 22.6666 15.9997C22.6666 12.3178 19.6818 9.33301 15.9999 9.33301C12.318 9.33301 9.33325 12.3178 9.33325 15.9997C9.33325 19.6816 12.318 22.6663 15.9999 22.6663Z" fill="white"/>
<g id="Mask group">
<mask id="mask0_4011_248326" style="mask-type:luminance" maskUnits="userSpaceOnUse" x="9" y="9" width="14" height="14">
<g id="Group_3">
<path id="Vector_2" d="M15.9999 22.6663C19.6818 22.6663 22.6666 19.6816 22.6666 15.9997C22.6666 12.3178 19.6818 9.33301 15.9999 9.33301C12.318 9.33301 9.33325 12.3178 9.33325 15.9997C9.33325 19.6816 12.318 22.6663 15.9999 22.6663Z" fill="white"/>
</g>
</mask>
<g mask="url(#mask0_4011_248326)">
<g id="Group_4">
<path id="Vector_3" d="M32 0H0V32H32V0Z" fill="#FFBF99"/>
</g>
</g>
</g>
</g>
<path id="Vector_4" d="M9.59501 4.49136C10.2408 4.13745 11.0512 4.37404 11.4051 5.0198C11.759 5.66556 11.5224 6.47595 10.8766 6.82986C9.99586 7.31255 9.18286 7.92122 8.45736 8.64672C4.29177 12.8123 4.29177 19.5661 8.45736 23.7317C12.623 27.8973 19.3767 27.8973 23.5423 23.7317C27.7079 19.5661 27.7079 12.8123 23.5423 8.64672C22.8574 7.96185 22.0945 7.38103 21.27 6.91195C20.63 6.5478 20.4063 5.73375 20.7705 5.09371C21.1346 4.45366 21.9487 4.23001 22.5887 4.59415C23.6202 5.181 24.5739 5.90705 25.4279 6.7611C30.6349 11.9681 30.6349 20.4103 25.4279 25.6173C20.2209 30.8243 11.7787 30.8243 6.57175 25.6173C1.36476 20.4103 1.36476 11.9681 6.57175 6.7611C7.47655 5.8563 8.49303 5.0953 9.59501 4.49136ZM15.8103 1.33301C16.5467 1.33301 17.1437 1.92996 17.1437 2.66634V11.9997C17.1437 12.7361 16.5467 13.333 15.8103 13.333C15.0739 13.333 14.477 12.7361 14.477 11.9997V2.66634C14.477 1.92996 15.0739 1.33301 15.8103 1.33301Z" fill="white"/>
<g id="Mask group_2">
<mask id="mask1_4011_248326" style="mask-type:luminance" maskUnits="userSpaceOnUse" x="2" y="1" width="28" height="29">
<g id="Group_5">
<path id="Vector_5" d="M9.59501 4.49136C10.2408 4.13745 11.0512 4.37404 11.4051 5.0198C11.759 5.66556 11.5224 6.47595 10.8766 6.82986C9.99586 7.31255 9.18286 7.92122 8.45736 8.64672C4.29177 12.8123 4.29177 19.5661 8.45736 23.7317C12.623 27.8973 19.3767 27.8973 23.5423 23.7317C27.7079 19.5661 27.7079 12.8123 23.5423 8.64672C22.8574 7.96185 22.0945 7.38103 21.27 6.91195C20.63 6.5478 20.4063 5.73375 20.7705 5.09371C21.1346 4.45366 21.9487 4.23001 22.5887 4.59415C23.6202 5.181 24.5739 5.90705 25.4279 6.7611C30.6349 11.9681 30.6349 20.4103 25.4279 25.6173C20.2209 30.8243 11.7787 30.8243 6.57175 25.6173C1.36476 20.4103 1.36476 11.9681 6.57175 6.7611C7.47655 5.8563 8.49303 5.0953 9.59501 4.49136ZM15.8103 1.33301C16.5467 1.33301 17.1437 1.92996 17.1437 2.66634V11.9997C17.1437 12.7361 16.5467 13.333 15.8103 13.333C15.0739 13.333 14.477 12.7361 14.477 11.9997V2.66634C14.477 1.92996 15.0739 1.33301 15.8103 1.33301Z" fill="white"/>
</g>
</mask>
<g mask="url(#mask1_4011_248326)">
<g id="Group_6">
<path id="Vector_6" d="M32 0H0V32H32V0Z" fill="#680031"/>
</g>
</g>
</g>
</g>
</g>
</svg>
