<svg width="20" height="20" viewBox="0 0 20 20" fill="none" xmlns="http://www.w3.org/2000/svg">
<g id="user-add-svgrepo-com 1" clip-path="url(#clip0_3747_243223)">
<path id="Vector" d="M16.3527 7.74562C16.0602 7.60628 15.7555 7.48879 15.4409 7.3948C15.1453 7.30648 14.8407 7.2391 14.529 7.19437C14.231 7.15164 13.9268 7.12891 13.6172 7.12891C13.2889 7.12891 12.9663 7.15383 12.6512 7.20191C12.5252 7.22113 12.4003 7.2441 12.2768 7.27062C12.215 7.28387 12.1536 7.29805 12.0925 7.31305C11.8482 7.37324 11.6094 7.4475 11.3769 7.535C11.2607 7.57871 11.1461 7.62574 11.0332 7.67601C10.8074 7.77644 10.5885 7.88964 10.3774 8.01468C10.219 8.10843 10.065 8.20886 9.91583 8.31554C9.81638 8.38667 9.719 8.46053 9.62384 8.5371C9.5763 8.57538 9.52924 8.61428 9.48287 8.65393C9.34353 8.77272 9.20943 8.8974 9.0808 9.02756C8.86647 9.24447 8.66745 9.47662 8.48561 9.7222C8.34026 9.91849 8.20573 10.1231 8.08319 10.3356C8.04234 10.4064 8.00284 10.4781 7.96472 10.5506C7.92546 10.6251 7.88734 10.7002 7.85105 10.7764C7.75195 10.9845 7.66453 11.1989 7.58812 11.4184C7.55707 11.5076 7.52738 11.5974 7.50023 11.6883C7.47816 11.7622 7.45738 11.8366 7.43797 11.9116C7.37969 12.1366 7.3334 12.3664 7.29973 12.6001C7.25707 12.8981 7.23438 13.2025 7.23438 13.512C7.23438 13.8849 7.26664 14.2503 7.3284 14.6057C7.39015 14.9612 7.4814 15.3067 7.59945 15.6396C7.65543 15.7976 7.71746 15.9528 7.78515 16.1049C7.85288 16.257 7.92644 16.4059 8.0055 16.5514C8.09296 16.7122 8.18722 16.8689 8.28776 17.021C8.38831 17.1731 8.49518 17.3206 8.60795 17.4633C9.7779 18.9434 11.5885 19.8948 13.6173 19.8948C17.1368 19.8948 20.0002 17.0315 20.0002 13.5119C20.0001 10.9706 18.5072 8.77182 16.3527 7.74562Z" fill="#FE5E02"/>
<path id="Vector_2" d="M6.99039 0.105469C4.88701 0.105469 3.17578 1.8167 3.17578 3.92008C3.17578 6.02342 4.88701 7.73457 6.99039 7.73457C9.09377 7.73457 10.805 6.02342 10.805 3.92008C10.805 1.8167 9.09377 0.105469 6.99039 0.105469Z" fill="#FE5E02"/>
<path id="Vector_3" d="M0.911905 17.4611H8.60765C8.38211 17.1758 8.18023 16.8709 8.00527 16.5493C7.84711 16.2583 7.71117 15.9535 7.59914 15.6375C7.36305 14.9717 7.23403 14.2556 7.23403 13.5098C7.23403 13.2004 7.25669 12.8959 7.29938 12.598C7.34423 12.2864 7.41161 11.9817 7.49985 11.6862C7.52704 11.5953 7.55676 11.5054 7.58774 11.4163C7.66414 11.1968 7.75157 10.9824 7.85067 10.7744C7.88695 10.6982 7.92512 10.623 7.96434 10.5485C8.11691 10.2584 8.29152 9.98179 8.48523 9.72015C7.99629 9.61359 7.49614 9.55859 6.99079 9.55859C3.13606 9.55848 0 12.6945 0 16.5493C7.81242e-05 17.0529 0.408316 17.4611 0.911905 17.4611Z" fill="#FE5E02"/>
<path id="Vector_4" d="M15.4401 12.599H14.5282V11.6872C14.5282 11.1836 14.1199 10.7754 13.6164 10.7754C13.1128 10.7754 12.7046 11.1837 12.7046 11.6872V12.599H11.7927C11.2891 12.599 10.8809 13.0073 10.8809 13.5109C10.8809 14.0145 11.2891 14.4227 11.7927 14.4227H12.7045V15.3345C12.7045 15.8382 13.1128 16.2464 13.6163 16.2464C14.1199 16.2464 14.5282 15.8382 14.5282 15.3345V14.4227H15.44C15.9435 14.4227 16.3518 14.0145 16.3518 13.5109C16.3519 13.0073 15.9436 12.599 15.4401 12.599Z" fill="white"/>
<path id="Vector_5" d="M7.85101 10.7763C7.75191 10.9843 7.66449 11.1987 7.58808 11.4183C7.55703 11.5075 7.52734 11.5973 7.50019 11.6881C7.41191 11.9837 7.34457 12.2883 7.29973 12.5999C7.25707 12.8979 7.23438 13.2023 7.23438 13.5118C7.23438 14.2575 7.36336 14.9736 7.59949 15.6394C7.71152 15.9554 7.84738 16.2603 8.00562 16.5512C8.18058 16.8728 8.38245 17.1778 8.60799 17.4631C9.77794 18.9432 11.5885 19.8946 13.6173 19.8946V16.2473C13.1137 16.2473 12.7055 15.8391 12.7055 15.3354V14.4236H11.7937C11.2901 14.4236 10.8818 14.0154 10.8818 13.5118C10.8818 13.0082 11.2901 12.5999 11.7937 12.5999H12.7055V11.6881C12.7055 11.1845 13.1138 10.7763 13.6173 10.7763V7.12891C11.516 7.12891 9.64939 8.15042 8.48569 9.72208C8.2919 9.9838 8.1173 10.2604 7.9648 10.5504C7.92542 10.6249 7.88726 10.7001 7.85101 10.7763Z" fill="#FE5E02"/>
<path id="Vector_6" d="M3.17578 3.92008C3.17578 6.02334 4.88701 7.73457 6.99031 7.73457V0.105469C4.88701 0.105469 3.17578 1.8167 3.17578 3.92008Z" fill="#FE5E02"/>
<path id="Vector_7" d="M0 16.5494C0 17.053 0.408277 17.4613 0.911827 17.4613H6.99079V9.55859C3.13606 9.55863 0 12.6947 0 16.5494Z" fill="#FE5E02"/>
</g>
<defs>
<clipPath id="clip0_3747_243223">
<rect width="20" height="20" fill="white"/>
</clipPath>
</defs>
</svg>
