<svg width="28" height="28" viewBox="0 0 28 28" fill="none" xmlns="http://www.w3.org/2000/svg">
<g id="vuesax/bold/category-2">
<g id="category-2">
<path id="Vector" d="M21.7814 2.33398H19.5647C17.0214 2.33398 15.6797 3.67565 15.6797 6.21898V8.43565C15.6797 10.979 17.0214 12.3207 19.5647 12.3207H21.7814C24.3247 12.3207 25.6664 10.979 25.6664 8.43565V6.21898C25.6664 3.67565 24.3247 2.33398 21.7814 2.33398Z" fill="#1F92D0"/>
<path id="Vector_2" d="M8.44634 15.668H6.22967C3.67467 15.668 2.33301 17.0096 2.33301 19.553V21.7696C2.33301 24.3246 3.67467 25.6663 6.21801 25.6663H8.43467C10.978 25.6663 12.3197 24.3246 12.3197 21.7813V19.5646C12.3313 17.0096 10.9897 15.668 8.44634 15.668Z" fill="#1F92D0"/>
<path id="Vector_3" d="M7.33801 12.344C10.1022 12.344 12.343 10.1032 12.343 7.33898C12.343 4.5748 10.1022 2.33398 7.33801 2.33398C4.57382 2.33398 2.33301 4.5748 2.33301 7.33898C2.33301 10.1032 4.57382 12.344 7.33801 12.344Z" fill="#FE5E02"/>
<path id="Vector_4" d="M20.6612 25.6662C23.4254 25.6662 25.6662 23.4254 25.6662 20.6612C25.6662 17.8971 23.4254 15.6562 20.6612 15.6562C17.8971 15.6562 15.6562 17.8971 15.6562 20.6612C15.6562 23.4254 17.8971 25.6662 20.6612 25.6662Z" fill="#FE5E02"/>
</g>
</g>
</svg>
