<svg width="75" height="54" viewBox="0 0 75 54" fill="none" xmlns="http://www.w3.org/2000/svg">
<g clip-path="url(#clip0_7655_16494)">
<mask id="mask0_7655_16494" style="mask-type:luminance" maskUnits="userSpaceOnUse" x="8" y="20" width="39" height="19">
<path d="M19.5404 37.3398C19.5872 36.9999 19.6116 36.6478 19.6116 36.2896C19.6116 33.4077 18.0445 31.0712 16.1089 31.0712H15.0017C14.2772 31.0712 13.6015 31.3988 13.0438 31.9626C13.0316 31.9748 13.0214 31.987 13.0092 31.9972C12.9868 32.0216 12.9624 32.0461 12.94 32.0705C12.0669 33.0189 11.499 34.5556 11.499 36.2896C11.499 36.5583 11.5133 36.8249 11.5397 37.0834C11.5479 37.1709 11.5581 37.2564 11.5703 37.3398L8.81042 38.1621L9.05059 37.3398L11.6252 28.4925C11.9102 27.5054 12.8138 26.8256 13.8416 26.8256H15.7059C16.0865 26.8256 16.4549 26.6912 16.746 26.445L16.8722 26.3371L17.2772 25.9952L17.5438 25.7713L18.7019 24.7944L18.7365 24.7638L19.0031 24.54L23.208 20.9925C23.5947 20.6648 24.0852 20.4857 24.594 20.4857L32.0106 20.4775H32.2283H32.3627C32.3688 20.4775 32.3728 20.4775 32.3789 20.4775C32.3789 20.4775 32.383 20.4775 32.3851 20.4775C32.7921 20.4836 33.1727 20.6851 33.4068 21.0189L37.4142 26.7258L46.1924 28.983L46.5852 37.3398H19.5404Z" fill="white"/>
</mask>
<g mask="url(#mask0_7655_16494)">
<path d="M38.4434 40.1883C32.6734 42.0282 25.8409 42.9034 19.8328 41.9264C18.0865 41.6089 16.3586 41.0635 14.8382 40.172C11.9013 38.5153 9.72966 35.1856 11.5512 31.9169C12.5017 30.1788 14.1605 28.862 15.8457 27.8443C22.3158 23.9916 30.4651 23.9305 37.5234 26.1429C41.9074 27.4475 43.613 30.3213 38.2622 31.9902C34.1652 33.2216 26.999 34.0133 22.8735 32.8898C21.6401 32.5316 19.9061 31.6116 20.3375 30.2053C21.29 27.883 27.5546 27.999 29.6734 28.5709C31.1734 28.9292 32.4189 29.9203 30.7765 30.6754C27.0112 32.0411 20.191 30.6917 17.4373 27.6591C14.9461 24.883 16.6537 21.8891 19.444 20.1897C21.1516 19.1049 23.0953 18.4088 25.0675 17.9733C31.2975 16.5893 37.8674 17.7677 43.5092 20.6537" stroke="white" stroke-width="0.225186" stroke-miterlimit="10"/>
</g>
<path d="M74.7774 42.3718C74.7774 42.5183 74.7509 42.6628 74.7021 42.8073C73.4667 46.3406 57.2821 49.1371 37.4992 49.1371C17.7163 49.1371 1.53179 46.3406 0.296375 42.8053C0.245493 42.6608 0.221069 42.5163 0.221069 42.3698C0.221069 38.633 16.9104 35.6045 37.4992 35.6045C58.0881 35.6045 74.641 38.6086 74.7753 42.3229C74.7753 42.3372 74.7753 42.3535 74.7753 42.3677L74.7774 42.3718Z" fill="#6D69B5"/>
<path d="M74.7774 42.3711V47.2334C74.7774 47.2497 74.7774 47.2659 74.7774 47.2822C74.6329 50.9966 57.9985 53.9986 37.5013 53.9986C17.004 53.9986 0.221069 50.9701 0.221069 47.2334V42.3711C0.221069 42.5176 0.247528 42.6621 0.296375 42.8066C1.53179 46.3399 17.7163 49.1364 37.4992 49.1364C57.2821 49.1364 73.4667 46.3399 74.7021 42.8066C74.753 42.6621 74.7774 42.5176 74.7774 42.3711Z" fill="#918DE0"/>
<path d="M72.6242 36.2509V41.7136C72.6242 41.8296 72.6018 41.9456 72.555 42.0616C72.1113 43.1586 69.5916 44.1661 65.5964 44.9924C65.0224 45.1105 64.42 45.2265 63.787 45.3364C62.9404 45.4849 62.0428 45.6254 61.0984 45.7597C57.034 46.3337 52.1025 46.7611 46.6439 46.989C43.7294 47.1111 40.6642 47.1763 37.5014 47.1763C34.0353 47.1763 30.6873 47.0989 27.5245 46.9524C26.053 46.8852 24.6222 46.8038 23.2382 46.7061C22.3712 46.6471 21.5224 46.582 20.6941 46.5107C13.247 45.8798 7.43425 44.8398 4.49328 43.586C3.36573 43.1057 2.65949 42.5948 2.44579 42.0616C2.39898 41.9456 2.37659 41.8316 2.37659 41.7136V36.2509C2.37659 26.5894 6.27821 17.8377 12.5916 11.4877C17.918 6.12267 24.9722 2.46934 32.8508 1.42932C34.3712 1.22782 35.9241 1.12402 37.4994 1.12402C37.9085 1.12402 38.3155 1.13013 38.7206 1.14438C40.249 1.19729 41.7531 1.34587 43.2267 1.58807C44.7694 1.84044 46.2775 2.19458 47.745 2.64234C52.2959 4.02837 56.4539 6.31195 60.0136 9.28956C60.5001 9.69458 60.9743 10.1138 61.4363 10.5453C61.7416 10.8282 62.0408 11.1172 62.3338 11.4124C62.7755 11.854 63.207 12.3099 63.6262 12.774C69.2192 18.9958 72.6222 27.2265 72.6222 36.2509H72.6242Z" fill="#FDC2FF"/>
<path d="M72.6263 41.7087C72.6263 41.8959 72.5653 42.0832 72.4452 42.2664C70.6501 45.0221 55.6887 47.1714 37.4995 47.1714C36.4472 47.1714 35.4052 47.1632 34.3773 47.149C16.4404 46.9027 2.37463 44.5622 2.37463 41.7087C2.37463 41.1185 2.97708 40.5506 4.09037 40.0174C8.66975 37.8295 21.897 36.248 37.5015 36.248C41.1304 36.248 44.6311 36.3335 47.9242 36.4923C62.2342 37.1822 72.6284 39.2562 72.6284 41.7087H72.6263Z" fill="#918DE0"/>
<path d="M66.6973 31.2296C66.6017 31.6753 65.8568 32.1312 64.4341 32.3917L64.1675 30.7676C65.1444 30.8429 66.7116 30.9996 66.6973 31.2296Z" fill="#FE5D02"/>
<path d="M37.0198 43.7501C51.8977 43.7501 63.9587 43.0457 63.9587 42.1768C63.9587 41.3079 51.8977 40.6035 37.0198 40.6035C22.1418 40.6035 10.0808 41.3079 10.0808 42.1768C10.0808 43.0457 22.1418 43.7501 37.0198 43.7501Z" fill="#112130"/>
<path d="M34.3822 31.0801C34.3822 31.0801 34.3924 31.0801 34.3985 31.0801H38.6624C40.4982 31.0801 41.986 33.4878 41.986 36.4573C41.986 39.4268 40.4982 41.8345 38.6624 41.8345H34.3985C34.3985 41.8345 34.3883 41.8345 34.3822 41.8345C32.5464 41.8345 31.0586 39.4268 31.0586 36.4573C31.0586 33.4878 32.5464 31.0801 34.3822 31.0801Z" fill="#112130"/>
<path d="M53.7013 31.0801C53.7013 31.0801 53.7115 31.0801 53.7176 31.0801H57.9815C59.8173 31.0801 61.3051 33.4878 61.3051 36.4573C61.3051 39.4268 59.8173 41.8345 57.9815 41.8345H53.7176C53.7176 41.8345 53.7074 41.8345 53.7013 41.8345C51.8655 41.8345 50.3777 39.4268 50.3777 36.4573C50.3777 33.4878 51.8655 31.0801 53.7013 31.0801Z" fill="#112130"/>
<path d="M12.8548 26.9971L11.8799 27.8356C11.4179 28.2325 11.2164 28.8532 11.3569 29.4455L11.5787 30.3817L12.8528 26.9971H12.8548Z" fill="white"/>
<path d="M11.0866 32.455C11.2555 30.6212 11.7358 28.8281 12.5072 27.1531L12.839 26.4326H20.9414L16.7426 38.5201C15.265 38.1517 13.8953 37.4394 12.7474 36.4401L12.6497 36.3566C11.5323 35.3838 10.9502 33.9306 11.0866 32.455Z" fill="#1A473F"/>
<path opacity="0.5" d="M11.0866 32.455C11.2555 30.6212 11.7358 28.8281 12.5072 27.1531L12.839 26.4326H20.9414L16.7426 38.5201C15.265 38.1517 13.8953 37.4394 12.7474 36.4401L12.6497 36.3566C11.5323 35.3838 10.9502 33.9306 11.0866 32.455Z" fill="#1A473F"/>
<path d="M21.8393 41.8384C23.6752 41.8384 25.163 39.4307 25.163 36.4612C25.163 33.4917 23.6752 31.084 21.8393 31.084H17.5754V41.8404H21.8393V41.8384Z" fill="#223544"/>
<path d="M17.5612 41.8384C19.3967 41.8384 20.8848 39.4309 20.8848 36.4612C20.8848 33.4914 19.3967 31.084 17.5612 31.084C15.7256 31.084 14.2375 33.4914 14.2375 36.4612C14.2375 39.4309 15.7256 41.8384 17.5612 41.8384Z" fill="#223544"/>
<path d="M17.5609 39.8605C18.8479 39.8605 19.8913 38.3378 19.8913 36.4595C19.8913 34.5813 18.8479 33.0586 17.5609 33.0586C16.2738 33.0586 15.2305 34.5813 15.2305 36.4595C15.2305 38.3378 16.2738 39.8605 17.5609 39.8605Z" fill="#112130"/>
<path d="M54.0919 25.6971L50.7581 31.0499L50.7031 31.1395L49.9501 32.3464L47.4284 36.3945L46.1014 38.5234H23.4915C23.1536 38.5234 22.8646 38.3118 22.7669 37.9922C22.138 35.9468 22.1665 31.0804 17.577 31.0804L12.8368 26.4339C14.6238 23.5947 20.524 20.1428 30.273 19.4346L30.7879 20.2161C32.5953 21.1686 35.3856 23.1693 37.7689 25.6951H54.0878L54.0919 25.6971Z" fill="#1A473F"/>
<path d="M41.1589 41.8384C42.9947 41.8384 44.4825 39.4307 44.4825 36.4612C44.4825 33.4917 42.9947 31.084 41.1589 31.084H36.895V41.8404H41.1589V41.8384Z" fill="#223544"/>
<path d="M36.8787 41.8384C38.7142 41.8384 40.2023 39.4309 40.2023 36.4612C40.2023 33.4914 38.7142 31.084 36.8787 31.084C35.0431 31.084 33.5551 33.4914 33.5551 36.4612C33.5551 39.4309 35.0431 41.8384 36.8787 41.8384Z" fill="#223544"/>
<path d="M36.8784 39.8605C38.1654 39.8605 39.2088 38.3378 39.2088 36.4595C39.2088 34.5813 38.1654 33.0586 36.8784 33.0586C35.5913 33.0586 34.548 34.5813 34.548 36.4595C34.548 38.3378 35.5913 39.8605 36.8784 39.8605Z" fill="#112130"/>
<path d="M64.0357 30.5808L62.5805 30.9166L61.9313 31.0652L59.4482 31.6371L58.05 31.9587L52.6524 31.3583L51.647 31.2463L51.1199 31.1873L50.7047 31.1405L44.5154 30.4505L44.4177 30.4098L41.78 29.3026L41.607 29.148L37.7745 25.7002H54.0934C55.3777 25.7002 61.3817 27.8698 63.5656 30.0537C63.6897 30.1778 63.8057 30.304 63.9116 30.4281C63.9482 30.475 63.9869 30.5177 64.0235 30.5645C64.0296 30.5706 64.0337 30.5747 64.0378 30.5808H64.0357Z" fill="#5FCEB1"/>
<path d="M65.4325 37.0415C65.4691 37.8413 64.7344 38.5272 63.8491 38.5293C58.2663 38.5313 51.8002 38.5476 47.5424 38.5578L47.2636 33.3719C47.2636 33.3719 47.2636 33.3617 47.2636 33.3556C47.1985 32.2565 46.5126 31.2878 45.497 30.8624L44.5139 30.4492L58.0485 31.9553L64.0363 30.5795C65.1313 31.9655 65.2738 33.5673 65.4325 37.0394V37.0415Z" fill="#A6FFE6"/>
<path d="M54.0914 25.6974H40.2026C40.2026 25.6974 34.2332 20.5359 30.2745 19.4369C30.8546 19.3942 31.4469 19.3616 32.0534 19.3392C32.0676 19.3392 32.0819 19.3392 32.0941 19.3392C32.2406 19.3331 32.3872 19.329 32.5357 19.325C32.6741 19.3209 32.8146 19.3189 32.955 19.3148C33.012 19.3148 33.069 19.3127 33.128 19.3127C33.244 19.3107 33.36 19.3087 33.4781 19.3087C33.6368 19.3087 33.7956 19.3066 33.9564 19.3066C35.0412 19.3066 36.0812 19.3453 37.0724 19.4186C37.2637 19.4328 37.455 19.4471 37.6443 19.4654C37.8559 19.4837 38.0676 19.502 38.2752 19.5244C38.4482 19.5427 38.6192 19.5611 38.7881 19.5814C39.3498 19.6445 39.8933 19.7218 40.4204 19.8073C40.5975 19.8358 40.7705 19.8663 40.9435 19.8969C41.1612 19.9335 41.379 19.9742 41.5907 20.017C41.7148 20.0414 41.8369 20.0658 41.957 20.0902C42.1219 20.1248 42.2867 20.1594 42.4496 20.1961C42.6104 20.2327 42.7711 20.2673 42.9299 20.306C43.0683 20.3385 43.2047 20.3711 43.341 20.4057C43.4346 20.4301 43.5303 20.4525 43.6239 20.4769C44.2895 20.6479 44.9224 20.8331 45.5228 21.0305C45.6144 21.0611 45.706 21.0895 45.7956 21.1221C46.2433 21.2707 46.6707 21.4274 47.0798 21.5841C47.204 21.633 47.3261 21.6798 47.4462 21.7286C51.6918 23.4383 53.8227 25.4613 54.069 25.6791C54.071 25.6811 54.0751 25.6852 54.0791 25.6872C54.0853 25.6933 54.0873 25.6954 54.0893 25.6974H54.0914Z" fill="#FAA6FF"/>
<path d="M58.0339 32.0321C58.0339 32.0321 58.0441 32.0321 58.0502 32.0321L61.8745 31.1528C61.9131 31.1447 61.9376 31.104 61.9294 31.0653C61.9213 31.0266 61.8806 31.0022 61.8419 31.0104L58.0298 31.8855L51.7266 31.1671C51.6859 31.163 51.6492 31.1915 51.6452 31.2322C51.6411 31.2729 51.6696 31.3095 51.7103 31.3136L58.0258 32.0321C58.0258 32.0321 58.0319 32.0321 58.0339 32.0321Z" fill="#1A473F"/>
<path d="M28.341 27.1584H26.436C26.2874 27.1584 26.1674 27.0383 26.1674 26.8897C26.1674 26.7412 26.2874 26.6211 26.436 26.6211H28.341C28.4896 26.6211 28.6097 26.7412 28.6097 26.8897C28.6097 27.0383 28.4896 27.1584 28.341 27.1584Z" fill="#192A38"/>
<path d="M47.5447 38.5571C47.4572 38.5571 47.3697 38.5571 47.2842 38.5571C45.9938 38.5592 44.9233 38.5632 44.1621 38.5653C43.4416 38.5653 42.8412 38.1073 42.7333 37.4642C42.3283 35.0605 39.9307 31.0816 36.8982 31.0816L33.9592 25.6982H37.7733L41.7788 29.3027L45.4972 30.8638C46.5149 31.2892 47.1987 32.2579 47.2638 33.357C47.2638 33.3631 47.2638 33.3672 47.2638 33.3733L47.5427 38.5592L47.5447 38.5571Z" fill="#1A473F"/>
<mask id="mask1_7655_16494" style="mask-type:luminance" maskUnits="userSpaceOnUse" x="11" y="19" width="37" height="20">
<path d="M47.4277 36.3962L46.1007 38.523H43.7845C43.2391 38.3948 42.8198 37.9918 42.7303 37.4647C42.3273 35.0814 39.9664 31.1451 36.9664 31.0841C36.9419 31.0841 36.9196 31.0841 36.8951 31.0841H36.8809C35.0451 31.0841 33.5573 33.4918 33.5573 36.4633C33.5573 37.194 33.6468 37.8921 33.8117 38.5271H23.4908C23.1529 38.5271 22.8639 38.3154 22.7662 37.9959C22.2249 36.2333 22.1699 32.3826 19.235 31.3466C18.7791 31.1859 18.254 31.0922 17.6475 31.0861C17.6231 31.0861 17.6007 31.0861 17.5763 31.0861H17.56C15.7242 31.0861 14.2364 33.4939 14.2364 36.4654C14.2364 36.8378 14.2608 37.2021 14.3035 37.5542C13.75 37.2388 13.2289 36.8684 12.7445 36.4491L12.6468 36.3656C11.5274 35.3907 10.9453 33.9396 11.0817 32.464C11.2506 30.6282 11.731 28.8371 12.5023 27.1641L12.8341 26.4437C14.6211 23.6044 20.5213 20.1526 30.2703 19.4443L30.7852 20.2259C32.5926 21.1784 35.3829 23.1791 37.7662 25.7049L41.7696 29.3093L45.4881 30.8704C46.5057 31.2958 47.1896 32.2646 47.2547 33.3636C47.2547 33.3697 47.2547 33.3738 47.2547 33.3799L47.4175 36.4043L47.4277 36.3962Z" fill="white"/>
</mask>
<g mask="url(#mask1_7655_16494)">
<path d="M8.85815 28.0371C13.8792 29.4414 21.0719 27.7847 22.698 23.6307C23.2109 22.2284 22.348 21.0907 20.4328 21.4794C18.6784 21.7725 16.352 23.5859 15.2103 25.1144C13.0468 27.8743 11.7503 32.0669 13.5942 35.1891C17.2191 40.0717 27.2632 36.7522 31.7998 32.4557C33.4484 30.9272 34.7774 29.0323 35.4389 27.0439C35.8663 25.7474 36.1065 24.0541 35.2577 22.9896C33.8799 21.512 31.6126 22.7189 30.3934 23.9116C27.1634 27.2637 26.4287 32.9075 28.5942 37.1205C33.369 46.4604 44.0685 39.3166 46.5983 33.51C47.1702 32.2216 47.3961 30.9557 47.1255 29.8281C46.7326 28.0147 44.8663 26.5188 42.6784 26.1341C37.6634 25.1979 35.3961 30.0927 37.755 34.3607C38.9945 36.8682 41.274 39.0256 43.6472 40.8634" stroke="#256B59" stroke-width="1.16578" stroke-miterlimit="10"/>
</g>
<path d="M19.9841 27.1584H18.0791C17.9305 27.1584 17.8104 27.0383 17.8104 26.8897C17.8104 26.7412 17.9305 26.6211 18.0791 26.6211H19.9841C20.1327 26.6211 20.2528 26.7412 20.2528 26.8897C20.2528 27.0383 20.1327 27.1584 19.9841 27.1584Z" fill="#192A38"/>
<path d="M37.7727 25.6961H18.3399C17.3487 25.6961 16.3717 25.4397 15.5088 24.9533C15.5088 24.9533 16.2944 24.2409 17.8697 23.3718C19.445 22.5048 21.812 21.4831 24.9728 20.8705C27.5719 20.3657 30.0366 20.1683 30.7917 20.2172C32.599 21.1697 35.3894 23.1704 37.7727 25.6961Z" fill="#192A38"/>
<path d="M51.8893 37.2172H62.721C63.1158 37.2172 63.4049 36.8 63.3072 36.3685L62.7861 34.0666C62.7169 33.7654 62.4768 33.5537 62.2 33.5537H52.4123C52.1355 33.5537 51.8933 33.7654 51.8262 34.0666L51.3051 36.3685C51.2074 36.7979 51.4964 37.2172 51.8913 37.2172H51.8893Z" fill="#1A473F"/>
<path d="M13.1908 31.2134L14.0599 31.3803V29.0234L13.1908 29.1903C13.0727 29.2127 12.9852 29.3715 12.9852 29.5608V30.8409C12.9852 31.0302 13.0727 31.189 13.1908 31.2114V31.2134Z" fill="#192A38"/>
<path d="M51.1318 31.1903C49.2268 30.4678 43.4731 28.4407 41.9039 28.9698C40.3347 29.497 44.1346 31.3776 45.0911 31.6279C46.0477 31.8783 46.6766 31.3776 48.1095 32.0696C49.5423 32.7616 53.4399 32.0655 51.1318 31.1903Z" fill="white"/>
<path d="M61.9945 31.2613C62.3873 31.0232 63.0305 30.6446 63.7571 30.2559C64.1743 30.7077 64.4755 31.1697 64.6994 31.7009C64.4796 31.7457 64.2272 31.8495 63.9158 32.0896C62.9878 32.804 60.5006 32.1711 61.9945 31.2613Z" fill="white"/>
<mask id="mask2_7655_16494" style="mask-type:luminance" maskUnits="userSpaceOnUse" x="30" y="19" width="25" height="7">
<path d="M33.9594 19.3067C47.6854 19.3067 53.95 25.5998 54.0904 25.6975H40.2016C40.2016 25.6975 34.2301 20.536 30.2736 19.437C31.4459 19.3515 32.6752 19.3047 33.9574 19.3047L33.9594 19.3067Z" fill="white"/>
</mask>
<g mask="url(#mask2_7655_16494)">
<path d="M34.4068 23.4896C34.3192 23.8254 34.2684 24.1673 34.2521 24.5052L37.6815 25.7101C37.5798 25.4943 37.5065 25.2644 37.4637 25.0242C37.1727 23.341 38.5709 22.993 39.9529 23.2047C40.596 23.2881 41.2494 23.4977 41.8742 23.7196C43.8708 24.495 46.5431 24.955 47.9373 22.8587C48.265 22.3376 48.4563 21.7678 48.5519 21.1816L46.7629 20.5527C46.5981 21.2671 46.2663 21.8736 45.6374 22.014C45.2446 22.1076 44.6218 21.9998 44.1842 21.8492C43.8036 21.7332 43.4169 21.5683 43.0567 21.3953C41.8538 20.8193 40.5533 20.3268 39.1958 20.2657C37.0587 20.0968 34.9542 21.2976 34.4088 23.4876L34.4068 23.4896Z" fill="white"/>
</g>
<path d="M24.7462 27.4521C24.7462 27.4521 24.8073 31.826 26.0915 35.1313" stroke="#192A38" stroke-width="0.302905" stroke-miterlimit="10"/>
<path d="M40.2024 25.697H37.7723C35.389 23.1713 32.5986 21.1706 30.7913 20.2181L30.2764 19.4365C34.235 20.5356 40.2045 25.697 40.2045 25.697H40.2024Z" fill="#5FCEB1"/>
<path d="M46.0111 35.5092C44.68 35.6945 43.3571 35.7881 42.0301 35.7881C39.8828 35.7881 37.7255 35.5438 35.5111 35.0554C32.4154 34.3715 29.7126 33.3071 27.543 32.4543C26.7187 32.1307 25.9412 31.8234 25.2411 31.5771C15.9805 28.3084 5.74513 34.0296 5.64336 34.0866L6.69967 32.1185L4.10876 31.3858C4.22681 31.3186 7.03549 29.7352 11.1386 28.5974C13.5606 27.9278 15.9398 27.5493 18.2112 27.474C21.0911 27.3783 23.8042 27.7731 26.277 28.6463C27.0301 28.9129 27.834 29.2284 28.6827 29.5622C32.8652 31.2087 38.5904 33.4618 45.777 32.4034L45.948 32.379L46.0111 35.5092Z" fill="#CC58B1"/>
<path d="M57.1793 35.2631L57.6352 35.5135L57.279 35.9531C57.049 35.9531 54.2057 35.949 53.9717 35.947C50.0029 35.8941 46.8462 35.5908 46.03 35.5053C46.0239 35.5053 46.0178 35.5053 46.0117 35.5074L45.9486 32.3771L45.9771 32.373L46.1786 32.3954C46.2519 32.4036 52.895 32.8452 57.798 32.8432L57.3462 33.4904L57.627 33.8405L57.2098 34.4022L57.6128 34.622L57.1813 35.2611L57.1793 35.2631Z" fill="#F180D2"/>
<path d="M66.6977 31.2285C66.6428 31.9714 66.5675 32.9626 66.5125 33.7075C65.9793 35.8282 60.0098 35.8405 58.2819 35.9544L58.638 35.5148L58.1821 35.2645L58.6136 34.6254L58.2106 34.4056L58.6279 33.8438L58.347 33.4938L58.7988 32.8466C59.7839 32.8466 65.3768 32.9687 66.6977 31.2285Z" fill="#F180D2"/>
<path d="M18.7376 24.7677L16.8733 26.341C16.2342 26.1761 15.646 25.9868 15.1087 25.7752C12.4771 24.7331 11.897 23.4387 11.8075 23.1904L13.1569 23.4265L13.6067 22.4902C13.6108 22.4984 14.0605 23.3756 16.2566 24.1408C16.8875 24.3607 17.6996 24.5825 18.7376 24.7697V24.7677Z" fill="#FE5D02"/>
<path d="M66.2596 28.6602C65.5758 28.7233 65.0222 29.6229 64.9428 30.7667C64.8655 29.6209 64.3119 28.7233 63.626 28.6602C64.3098 28.5971 64.8634 27.6975 64.9428 26.5537C65.0201 27.6975 65.5737 28.5971 66.2596 28.6602Z" fill="white"/>
<path d="M33.701 14.2553C33.123 14.7336 32.9968 15.5844 33.3876 16.2621C32.8584 15.6861 32.0077 15.5518 31.3788 15.9609C31.9568 15.4826 32.085 14.6318 31.6922 13.9541C32.2214 14.5301 33.0721 14.6644 33.701 14.2553Z" fill="#F180D2"/>
<path d="M17.574 14.8739C17.3624 15.3054 17.1507 15.7348 16.939 16.1663C16.0801 16.1073 15.956 15.0449 15.4166 15.1344C15.553 14.8576 15.6894 14.5788 15.8257 14.302C16.418 14.1025 16.6174 15.0184 17.574 14.8759V14.8739Z" fill="#F180D2"/>
<path d="M27.6833 16.9483C27.5409 17.0562 27.3964 17.1661 27.2539 17.2739C26.8285 17.1091 26.8753 16.4822 26.3014 16.181C26.4968 16.0324 26.6922 15.8838 26.8876 15.7373C27.3984 16.0874 27.3007 16.7529 27.6833 16.9483Z" fill="#5FCEB1"/>
<path d="M53.2459 19.4962C53.1116 19.3761 52.9793 19.256 52.845 19.1359C52.9264 18.6882 53.5512 18.6169 53.7385 17.9941C53.9216 18.159 54.1028 18.3239 54.286 18.4867C54.0397 19.0545 53.366 19.083 53.2459 19.4962Z" fill="#5FCEB1"/>
<path d="M23.7808 21.0694C23.5142 21.336 23.2476 21.6026 22.981 21.8692C22.1689 21.6331 22.2198 20.5321 21.4077 20.296C21.6743 20.0293 21.941 19.7627 22.2076 19.4961C23.0197 19.7322 22.9688 20.8333 23.7808 21.0694Z" fill="#918DE0"/>
<path d="M45.6804 19.1029C45.4566 18.9991 45.2306 18.8932 45.0068 18.7894C44.9131 18.128 45.772 17.6884 45.8026 16.5059C46.173 16.6768 46.5434 16.8498 46.9118 17.0208C46.6838 18.1137 45.6886 18.4882 45.6804 19.1029Z" fill="#E5FC54"/>
<path d="M35.3759 21.0358L36.1309 20.6816L36.4647 21.799L35.9783 22.0188L35.3759 21.0358Z" fill="#FE5D02"/>
<path d="M58.3388 21.1035L59.8693 21.187C59.8693 21.187 59.8185 22.4733 58.7683 22.9332H57.6143C57.6143 22.9332 58.6543 22.3471 58.3388 21.1035Z" fill="#02B6FF"/>
<path d="M40.1309 14.1255L39.4165 13.3297C39.4165 13.3297 40.0759 12.7191 40.8208 13.0122L41.3887 13.5801C41.3887 13.5801 40.5868 13.3562 40.1289 14.1255H40.1309Z" fill="white"/>
<path d="M18.5631 15.8808C19.654 15.7444 20.8141 15.6182 21.8114 16.0863C23.2626 16.7681 24.0034 18.5449 25.5054 19.1026C26.4132 19.4384 27.4471 19.2512 28.3121 18.8177C29.1771 18.3841 29.9037 17.7247 30.6201 17.0755" stroke="white" stroke-width="0.187323" stroke-miterlimit="10"/>
<path d="M11.3412 26.8252C13.0101 20.8699 16.8344 15.8143 21.9185 12.5518" stroke="white" stroke-width="3.00712" stroke-miterlimit="10" stroke-linecap="round"/>
<g opacity="0.2">
<path d="M59.9407 9.28687L20.6192 46.506C13.1721 45.8751 7.35931 44.835 4.41833 43.5813L47.6721 2.63965C52.2229 4.02567 56.381 6.30926 59.9407 9.28687Z" fill="white"/>
<path d="M63.5556 12.7726L27.4497 46.9469C25.9782 46.8798 24.5474 46.7984 23.1635 46.7007L61.3636 10.5439C61.6689 10.8268 61.9681 11.1159 62.2611 11.411C62.7028 11.8526 63.1343 12.3085 63.5535 12.7726H63.5556Z" fill="white"/>
</g>
<path d="M60.7363 6.03362V6.09061C60.7363 6.32467 60.5593 6.52006 60.3252 6.54244C58.0111 6.7765 56.1692 8.96646 55.9962 11.7039C55.9819 11.94 55.7784 12.1232 55.5403 12.1232C55.3021 12.1232 55.1006 11.942 55.0844 11.7039C54.9134 8.96646 53.0694 6.7765 50.7533 6.54244C50.5192 6.51802 50.3422 6.32467 50.3422 6.09061V6.03362C50.3422 5.79957 50.5192 5.60418 50.7533 5.58179C53.0715 5.34773 54.9134 3.15778 55.0844 0.418291C55.0986 0.182198 55.3021 -0.000976562 55.5403 -0.000976562C55.7784 -0.000976562 55.9799 0.180163 55.9962 0.418291C56.1671 3.15778 58.0091 5.34773 60.3252 5.58179C60.5593 5.60622 60.7363 5.79957 60.7363 6.03362Z" fill="#FAA6FF"/>
</g>
<defs>
<clipPath id="clip0_7655_16494">
<rect width="74.5563" height="54" fill="white" transform="translate(0.221802 0.000976562)"/>
</clipPath>
</defs>
</svg>
