<svg width="16" height="16" viewBox="0 0 16 16" fill="none" xmlns="http://www.w3.org/2000/svg">
<g id="car-accident-svgrepo-com 1">
<g id="Group 11">
<path id="Vector" d="M11.8738 7.03875H1.82285L1.82251 7.0384C1.85092 7.01278 1.8776 6.98543 1.90285 6.957C2.01163 6.83384 2.09232 6.68646 2.13688 6.52437L2.33023 5.82296C2.62498 4.75137 3.59935 4.00928 4.71026 4.00928H8.8787C9.71132 4.00928 10.478 4.38331 10.9906 4.99559C11.2082 5.2549 11.3798 5.55734 11.4914 5.89243L11.7584 6.69243L11.7587 6.69312L11.8738 7.03875Z" fill="#F1F2F4"/>
<g id="Group">
<path id="Vector_2" d="M7.97622 6.93359H5.74463L7.90466 3.90409L7.91203 3.89355L7.91238 3.90409L7.97622 6.93359Z" fill="white"/>
<path id="Vector_3" d="M11.7658 6.93378H9.53418L10.9907 4.89062C11.2082 5.14994 11.3798 5.45238 11.4914 5.78747L11.7584 6.58747L11.7588 6.58816L11.7658 6.93378Z" fill="white"/>
<path id="Vector_4" d="M4.71029 4.37305V6.93308H2.88501L4.71029 4.37305Z" fill="white"/>
</g>
<path id="Vector_5" d="M12.3289 7.98728L12.1327 6.88694C12.1307 6.87466 12.1275 6.86203 12.1233 6.85009L11.7408 5.70378C11.3299 4.46975 10.1794 3.64062 8.87868 3.64062H4.71025C4.46043 3.64062 4.21656 3.675 3.98393 3.73956C3.07481 3.99184 2.33515 4.70659 2.07656 5.64766L1.88322 6.34906C1.84987 6.46975 1.55934 6.94206 1.56006 6.95116L1.5934 7.92556L1.59622 8.00766C1.60112 8.14906 1.7169 8.26134 1.85831 8.26169L2.83937 8.26519H2.83972L12.0689 8.29678H12.07C12.1475 8.29678 12.2216 8.26241 12.2714 8.20309C12.3216 8.14306 12.3426 8.06413 12.3289 7.98728ZM2.97272 7.73888L2.11378 7.73606L2.0899 7.03713C2.09306 7.03363 2.09622 7.03009 2.09972 7.02625C2.09972 7.02625 2.10006 7.02591 2.10006 7.02556C2.23584 6.87188 2.33622 6.68625 2.39059 6.48872L2.58393 5.78731C2.76428 5.13222 3.23272 4.61291 3.82922 4.3515C4.10115 4.23256 4.40009 4.16694 4.71028 4.16694H8.87872C9.95275 4.16694 10.9022 4.8515 11.2419 5.87009L11.6181 6.99853L11.7556 7.76941L2.97272 7.73888Z" fill="#FE5E02"/>
<path id="Vector_6" d="M15.4742 8.44156L15.1714 10.1391L15.0226 10.9725H1.23517C1.01061 10.9725 0.828857 10.7907 0.828857 10.5661V8.14543C0.828857 7.70402 1.09483 7.30612 1.50254 7.13737C1.62186 7.08824 1.72958 7.01843 1.82254 6.93315L1.82289 6.93349H4.44992V3.91699H4.97623V6.93349H7.65133V3.97312H8.17764V6.93349H11.8738L14.4517 7.12437C15.1156 7.17349 15.5914 7.78612 15.4742 8.44156Z" fill="#FE5E02"/>
<path id="Vector_7" d="M1.84642 10.5656V8.1449C1.84642 7.70349 2.11239 7.30559 2.52011 7.13684C2.63923 7.08777 2.74676 7.01806 2.8397 6.93296H1.82289L1.82254 6.93262C1.72958 7.01787 1.62183 7.08771 1.50254 7.13684C1.09483 7.30562 0.828857 7.70349 0.828857 8.1449V10.5656C0.828857 10.79 1.01076 10.9719 1.23517 10.9719H2.25273C2.02829 10.9719 1.84642 10.79 1.84642 10.5656Z" fill="#983801"/>
<path id="Vector_8" d="M14.5826 9.3317C14.5672 9.3317 14.5517 9.33033 14.536 9.32755C14.3929 9.30202 14.2977 9.1653 14.3232 9.02221L14.4598 8.25749C14.4853 8.11439 14.6219 8.01911 14.7651 8.04467C14.9082 8.0702 15.0034 8.20692 14.9779 8.35002L14.8414 9.11474C14.8186 9.24214 14.7077 9.3317 14.5826 9.3317Z" fill="white"/>
<path id="Vector_9" d="M15.1714 10.1392L15.0226 10.9725H1.23517C1.01061 10.9725 0.828857 10.7908 0.828857 10.5662V10.1392H15.1714Z" fill="#983801"/>
<g id="Group_2">
<path id="Vector_10" d="M15.3783 10.3935H13.9892C13.8439 10.3935 13.7261 10.2757 13.7261 10.1303C13.7261 9.985 13.8439 9.86719 13.9892 9.86719H15.3783C15.5237 9.86719 15.6415 9.985 15.6415 10.1303C15.6415 10.2757 15.5237 10.3935 15.3783 10.3935Z" fill="#FCFCFD"/>
<path id="Vector_11" d="M2.00987 10.3935H0.603244C0.4579 10.3935 0.340088 10.2757 0.340088 10.1303C0.340088 9.985 0.4579 9.86719 0.603244 9.86719H2.00987C2.15521 9.86719 2.27303 9.985 2.27303 10.1303C2.27303 10.2757 2.15521 10.3935 2.00987 10.3935Z" fill="#FCFCFD"/>
</g>
<path id="Vector_12" d="M13.5083 8.87553C13.644 8.87553 13.7539 8.76556 13.7539 8.6299C13.7539 8.49425 13.644 8.38428 13.5083 8.38428C13.3727 8.38428 13.2627 8.49425 13.2627 8.6299C13.2627 8.76556 13.3727 8.87553 13.5083 8.87553Z" fill="white"/>
<path id="Vector_13" d="M14.2187 10.8253C14.221 10.7896 14.2222 10.7535 14.2222 10.7174C14.2222 9.80182 13.4799 9.05957 12.5643 9.05957C11.6483 9.05957 10.906 9.80185 10.906 10.7174C10.906 10.7535 10.9072 10.7896 10.9095 10.8253C10.965 11.6909 11.6843 12.3757 12.5643 12.3757C13.4438 12.3757 14.1633 11.6909 14.2187 10.8253Z" fill="#CB4B01"/>
<path id="Vector_14" d="M12.5642 11.3965C12.1891 11.3965 11.884 11.0914 11.884 10.7163C11.884 10.3413 12.1892 10.0361 12.5642 10.0361C12.9393 10.0361 13.2444 10.3413 13.2444 10.7163C13.2444 11.0914 12.9393 11.3965 12.5642 11.3965Z" fill="#FCFCFD"/>
<path id="Vector_15" d="M12.5642 11.5332C12.1143 11.5332 11.7483 11.1672 11.7483 10.7173C11.7483 10.2674 12.1143 9.90137 12.5642 9.90137C13.0141 9.90137 13.3801 10.2674 13.3801 10.7173C13.3801 11.1672 13.0141 11.5332 12.5642 11.5332ZM12.5642 10.1728C12.264 10.1728 12.0198 10.4171 12.0198 10.7173C12.0198 11.0175 12.264 11.2618 12.5642 11.2618C12.8644 11.2618 13.1087 11.0175 13.1087 10.7173C13.1087 10.4171 12.8644 10.1728 12.5642 10.1728Z" fill="#983801"/>
<path id="Vector_16" d="M5.09589 10.8253C5.0982 10.7896 5.09936 10.7535 5.09936 10.7174C5.09936 9.80182 4.35708 9.05957 3.44148 9.05957C2.52548 9.05957 1.7832 9.80185 1.7832 10.7174C1.7832 10.7535 1.78436 10.7896 1.78667 10.8253C1.84214 11.6909 2.56152 12.3757 3.44145 12.3757C4.32102 12.3757 5.04042 11.6909 5.09589 10.8253Z" fill="#CB4B01"/>
<path id="Vector_17" d="M3.44142 11.3965C3.06632 11.3965 2.76123 11.0914 2.76123 10.7163C2.76123 10.3413 3.06636 10.0361 3.44142 10.0361C3.81645 10.0361 4.12157 10.3413 4.12157 10.7163C4.12157 11.0914 3.81645 11.3965 3.44142 11.3965Z" fill="#FCFCFD"/>
<path id="Vector_18" d="M3.44143 11.5332C2.99152 11.5332 2.62549 11.1672 2.62549 10.7173C2.62549 10.2674 2.99152 9.90137 3.44143 9.90137C3.89133 9.90137 4.2573 10.2674 4.2573 10.7173C4.2573 11.1672 3.8913 11.5332 3.44143 11.5332ZM3.44143 10.1728C3.14121 10.1728 2.89696 10.4171 2.89696 10.7173C2.89696 11.0175 3.14121 11.2618 3.44143 11.2618C3.74161 11.2618 3.98586 11.0175 3.98586 10.7173C3.98586 10.4171 3.74161 10.1728 3.44143 10.1728Z" fill="#983801"/>
<path id="Vector_19" d="M3.9839 3.73926L3.82915 4.3512C3.23265 4.6126 2.76424 5.13191 2.58387 5.78701L2.39053 6.48841C2.33615 6.68595 2.23578 6.87157 2.09999 7.02526C2.09999 7.0256 2.09965 7.02595 2.09965 7.02595C2.09615 7.02982 2.09299 7.03332 2.08984 7.03682L1.59334 7.92526L1.02759 7.51694C1.0269 7.50782 1.84981 6.61226 1.88315 6.34876L2.07649 5.64735C2.33509 4.70629 3.07474 3.99154 3.9839 3.73926Z" fill="#983801"/>
</g>
</g>
</svg>
