<svg width="47" height="48" viewBox="0 0 47 48" fill="none" xmlns="http://www.w3.org/2000/svg">
<g clip-path="url(#clip0_7057_10058)">
<path d="M55.8125 4.10458L59.6193 14.8099C59.9081 15.6239 60.3646 16.3681 60.9592 16.9945C61.5538 17.6209 62.2733 18.1155 63.0712 18.4462C63.869 18.7769 64.7274 18.9365 65.5908 18.9145C66.4542 18.8925 67.3033 18.6894 68.0833 18.3185L78.3449 13.4404C83.5886 10.9478 89.0588 16.4179 86.5661 21.6616L81.6859 31.9197C81.3155 32.6995 81.1127 33.5484 81.0909 34.4114C81.069 35.2745 81.2285 36.1325 81.5591 36.93C81.8896 37.7276 82.3839 38.4469 83.0098 39.0414C83.6358 39.636 84.3796 40.0925 85.1931 40.3816L95.8984 44.1883C101.365 46.1336 101.365 53.8699 95.8984 55.8152L85.1931 59.6219C84.3793 59.9109 83.6352 60.3675 83.0089 60.9622C82.3827 61.5568 81.8883 62.2764 81.5577 63.0742C81.2271 63.872 81.0677 64.7304 81.0898 65.5937C81.1119 66.457 81.315 67.3061 81.6859 68.086L86.564 78.3476C89.0566 83.5913 83.5865 89.0614 78.3428 86.5688L68.0833 81.6886C67.3034 81.3176 66.4544 81.1145 65.591 81.0925C64.7277 81.0704 63.8694 81.2298 63.0715 81.5603C62.2737 81.8909 61.5542 82.3854 60.9595 83.0116C60.3648 83.6378 59.9082 84.3819 59.6193 85.1958L55.8125 95.9011C53.8673 101.368 46.131 101.368 44.1857 95.9011L40.3789 85.1958C40.0896 84.3825 39.6329 83.6389 39.0383 83.0132C38.4436 82.3874 37.7243 81.8934 36.9268 81.5631C36.1293 81.2327 35.2713 81.0734 34.4084 81.0954C33.5454 81.1174 32.6967 81.3202 31.917 81.6907L21.6526 86.5667C16.4089 89.0593 10.9387 83.5891 13.4314 78.3455L18.3158 68.086C18.6865 67.3063 18.8894 66.4576 18.9114 65.5946C18.9335 64.7316 18.7742 63.8736 18.4438 63.0761C18.1135 62.2785 17.6194 61.5592 16.9936 60.9646C16.3678 60.37 15.6242 59.9133 14.8108 59.6241L4.10191 55.8152C-1.3647 53.8699 -1.3647 46.1336 4.10191 44.1883L14.8072 40.3816C15.6209 40.0927 16.3648 39.6362 16.9909 39.0417C17.6171 38.4472 18.1114 37.728 18.4421 36.9304C18.7728 36.1329 18.9325 35.2748 18.9107 34.4116C18.8889 33.5485 18.6863 32.6996 18.3158 31.9197L13.4342 21.6552C10.9416 16.4116 16.4117 10.9414 21.6554 13.434L31.917 18.3185C32.6967 18.689 33.5454 18.8918 34.4084 18.9138C35.2713 18.9358 36.1293 18.7765 36.9268 18.4462C37.7243 18.1158 38.4436 17.6218 39.0383 16.9961C39.6329 16.3703 40.0896 15.6268 40.3789 14.8135L44.1857 4.10458C46.131 -1.36559 53.8673 -1.36559 55.8125 4.10458Z" fill="#FFC6FF"/>
<path d="M54.8318 11.8426L57.9968 20.7432C58.2373 21.4192 58.617 22.0372 59.1113 22.5573C59.6055 23.0774 60.2034 23.488 60.8662 23.7627C61.529 24.0373 62.2421 24.1699 62.9594 24.1518C63.6766 24.1337 64.3821 23.9653 65.0303 23.6576L73.5624 19.6023C77.9215 17.53 82.4695 22.0779 80.3971 26.437L76.3419 34.9692C76.0337 35.6174 75.865 36.323 75.8466 37.0405C75.8283 37.758 75.9608 38.4713 76.2355 39.1344C76.5101 39.7975 76.9209 40.3955 77.4413 40.8898C77.9616 41.3842 78.58 41.7638 79.2562 42.0041L88.1562 45.1698C92.7041 46.787 92.7041 53.2185 88.1562 54.8357L79.2562 58.0007C78.5799 58.2411 77.9616 58.6208 77.4413 59.1152C76.9209 59.6096 76.5101 60.2077 76.2354 60.8708C75.9607 61.5339 75.8283 62.2473 75.8466 62.9649C75.865 63.6824 76.0337 64.3881 76.3419 65.0363L80.3971 73.5685C82.4695 77.9276 77.9215 82.4755 73.5624 80.4032L65.0303 76.3479C64.382 76.0397 63.6763 75.871 62.9588 75.8527C62.2413 75.8343 61.5279 75.9668 60.8648 76.2415C60.2016 76.5162 59.6035 76.927 59.1091 77.4473C58.6147 77.9677 58.2351 78.586 57.9947 79.2623L54.8297 88.1622C53.2124 92.7102 46.781 92.7102 45.1637 88.1622L41.9981 79.2623C41.7577 78.586 41.3781 77.9677 40.8838 77.4473C40.3895 76.927 39.7914 76.5162 39.1284 76.2415C38.4653 75.9668 37.752 75.8344 37.0345 75.8527C36.317 75.871 35.6113 76.0397 34.9632 76.3479L26.431 80.4032C22.0719 82.4755 17.524 77.9276 19.5963 73.5685L23.6537 65.0342C23.9618 64.3859 24.1304 63.6802 24.1487 62.9627C24.167 62.2452 24.0345 61.5319 23.7598 60.8688C23.4851 60.2057 23.0744 59.6076 22.5541 59.1132C22.0338 58.6188 21.4156 58.2391 20.7393 57.9986L11.8387 54.8357C7.29075 53.2185 7.29075 46.787 11.8387 45.1698L20.7393 42.0041C21.4155 41.7637 22.0338 41.384 22.5541 40.8897C23.0743 40.3953 23.4851 39.7973 23.7598 39.1343C24.0345 38.4712 24.1669 37.7579 24.1487 37.0405C24.1304 36.323 23.9618 35.6174 23.6537 34.9692L19.5984 26.437C17.5261 22.0779 22.074 17.53 26.4331 19.6023L34.9653 23.6576C35.6135 23.9657 36.3191 24.1343 37.0366 24.1526C37.754 24.1708 38.4673 24.0384 39.1304 23.7637C39.7934 23.489 40.3914 23.0783 40.8858 22.558C41.3801 22.0377 41.7598 21.4195 42.0002 20.7432L45.1659 11.8426C46.7845 7.29466 53.2146 7.29466 54.8318 11.8426Z" fill="#FFE2FF"/>
<path d="M54.0521 17.998L56.7066 25.4631C56.9086 26.03 57.2273 26.5483 57.6422 26.9843C58.057 27.4204 58.5587 27.7646 59.1149 27.9946C59.671 28.2246 60.2693 28.3354 60.8709 28.3198C61.4725 28.3042 62.0642 28.1625 62.6077 27.9039L69.7633 24.5026C73.4195 22.7646 77.2341 26.5792 75.4961 30.2354L72.0948 37.391C71.8363 37.9346 71.6947 38.5264 71.6793 39.1281C71.6639 39.7299 71.7749 40.3281 72.0052 40.8843C72.2355 41.4404 72.58 41.942 73.0164 42.3567C73.4527 42.7713 73.9713 43.0897 74.5384 43.2914L82.0035 45.9466C85.8181 47.3026 85.8181 52.6968 82.0035 54.0535L74.5384 56.708C73.9712 56.9097 73.4527 57.2283 73.0163 57.643C72.58 58.0577 72.2355 58.5593 72.0052 59.1155C71.7749 59.6717 71.6638 60.27 71.6793 60.8718C71.6947 61.4736 71.8362 62.0655 72.0948 62.6091L75.4961 69.7647C77.2341 73.4209 73.4195 77.2355 69.7633 75.4975L62.6077 72.0962C62.064 71.8377 61.4722 71.6961 60.8704 71.6807C60.2686 71.6653 59.6703 71.7763 59.1141 72.0066C58.5579 72.2369 58.0563 72.5814 57.6415 73.0177C57.2268 73.4541 56.9083 73.9726 56.7066 74.5398L54.0521 82.005C52.6954 85.8195 47.3012 85.8195 45.9452 82.005L43.29 74.5398C43.0883 73.9727 42.7699 73.4541 42.3552 73.0178C41.9406 72.5814 41.439 72.237 40.8829 72.0066C40.3267 71.7763 39.7285 71.6653 39.1267 71.6807C38.525 71.6961 37.9332 71.8377 37.3896 72.0962L30.234 75.4975C26.5777 77.2355 22.7632 73.4209 24.5011 69.7647L27.8997 62.612C28.1582 62.0683 28.2997 61.4764 28.3152 60.8747C28.3306 60.2729 28.2196 59.6745 27.9892 59.1184C27.7589 58.5622 27.4144 58.0605 26.9781 57.6458C26.5417 57.2311 26.0232 56.9126 25.456 56.7109L17.9937 54.0564C14.1792 52.6996 14.1792 47.3054 17.9937 45.9494L25.4589 43.2942C26.0258 43.0923 26.544 42.7736 26.98 42.3589C27.4161 41.9441 27.7603 41.4425 27.9903 40.8864C28.2203 40.3303 28.3311 39.7321 28.3155 39.1305C28.2999 38.5289 28.1582 37.9372 27.8997 37.3938L24.5011 30.2382C22.7632 26.582 26.5777 22.7674 30.234 24.5054L37.3896 27.9039C37.9332 28.1624 38.525 28.304 39.1267 28.3194C39.7285 28.3348 40.3267 28.2238 40.8829 27.9935C41.439 27.7631 41.9406 27.4187 42.3552 26.9823C42.7699 26.546 43.0883 26.0274 43.29 25.4603L45.9452 17.9952C47.3012 14.1834 52.6954 14.1834 54.0521 17.998Z" fill="#FFC6FF"/>
<path d="M53.2458 24.3745L55.3714 30.3516C55.5329 30.8057 55.7879 31.2209 56.12 31.5703C56.452 31.9197 56.8536 32.1955 57.299 32.3799C57.7443 32.5643 58.2233 32.6532 58.7051 32.6409C59.187 32.6285 59.6608 32.5152 60.0961 32.3082L65.8254 29.5849C68.7533 28.1934 71.8075 31.2476 70.4153 34.1754L67.6919 39.9047C67.485 40.3398 67.3716 40.8135 67.3591 41.2952C67.3467 41.7768 67.4353 42.2557 67.6195 42.701C67.8036 43.1462 68.079 43.5479 68.4281 43.8801C68.7771 44.2122 69.1919 44.4675 69.6457 44.6294L75.6227 46.755C78.6755 47.8405 78.6755 52.1599 75.6227 53.2461L69.6457 55.3717C69.1916 55.5332 68.7764 55.7882 68.427 56.1202C68.0776 56.4522 67.8017 56.8539 67.6173 57.2992C67.4328 57.7444 67.3438 58.2235 67.3561 58.7053C67.3683 59.1871 67.4815 59.661 67.6883 60.0964L70.4117 65.8257C71.8039 68.7535 68.7497 71.8077 65.8219 70.4155L60.0926 67.6921C59.6576 67.4857 59.1841 67.3728 58.7027 67.3606C58.2214 67.3484 57.7428 67.4373 57.2979 67.6214C56.853 67.8056 56.4516 68.081 56.1196 68.4298C55.7877 68.7786 55.5326 69.1931 55.3707 69.6466L53.2458 75.6265C52.1596 78.6793 47.8403 78.6793 46.7547 75.6265L44.6284 69.6466C44.4669 69.1925 44.2119 68.7774 43.8799 68.428C43.5479 68.0786 43.1462 67.8027 42.701 67.6182C42.2557 67.4338 41.7766 67.3448 41.2948 67.357C40.813 67.3693 40.3391 67.4825 39.9037 67.6893L34.1744 70.4127C31.2466 71.8049 28.1924 68.7507 29.5839 65.8228L32.3073 60.0936C32.5142 59.6583 32.6276 59.1844 32.6399 58.7026C32.6522 58.2207 32.5633 57.7417 32.3789 57.2964C32.1945 56.8511 31.9187 56.4494 31.5693 56.1174C31.2199 55.7854 30.8048 55.5303 30.3506 55.3688L24.3736 53.2468C21.3208 52.1606 21.3208 47.8412 24.3736 46.7557L30.3506 44.6301C30.8048 44.4686 31.2199 44.2136 31.5693 43.8816C31.9187 43.5496 32.1945 43.1479 32.3789 42.7026C32.5633 42.2573 32.6522 41.7782 32.6399 41.2964C32.6276 40.8146 32.5142 40.3407 32.3073 39.9054L29.5839 34.1761C28.1924 31.2483 31.2466 28.1941 34.1744 29.5856L39.9037 32.3089C40.339 32.5159 40.8129 32.6292 41.2947 32.6416C41.7765 32.6539 42.2556 32.565 42.7009 32.3806C43.1462 32.1962 43.5479 31.9204 43.8799 31.571C44.2119 31.2216 44.4669 30.8064 44.6284 30.3523L46.754 24.3753C47.8396 21.3203 52.1589 21.3203 53.2458 24.3745Z" fill="#FFE2FF"/>
<path d="M52.7063 28.6293L54.4812 33.6146C54.6158 33.9934 54.8284 34.3397 55.1053 34.6311C55.3821 34.9226 55.7171 35.1527 56.0884 35.3066C56.4598 35.4605 56.8593 35.5347 57.2612 35.5246C57.663 35.5144 58.0583 35.42 58.4214 35.2475L63.2001 32.9756C65.6416 31.8149 68.1889 34.3622 67.0281 36.8044L64.7563 41.5831C64.5836 41.9461 64.4891 42.3414 64.4789 42.7433C64.4687 43.1452 64.5429 43.5448 64.6968 43.9162C64.8507 44.2875 65.0809 44.6225 65.3724 44.8993C65.6639 45.1762 66.0103 45.3887 66.3891 45.5233L71.3744 47.2982C73.9217 48.2041 73.9217 51.8063 71.3744 52.7122L66.3891 54.4871C66.0103 54.6217 65.6639 54.8342 65.3724 55.1111C65.0809 55.3879 64.8507 55.7229 64.6968 56.0942C64.5429 56.4656 64.4687 56.8652 64.4789 57.2671C64.4891 57.669 64.5836 58.0643 64.7563 58.4273L67.0281 63.206C68.1889 65.6475 65.6416 68.1948 63.2001 67.0341L58.4214 64.7622C58.0583 64.5896 57.663 64.4951 57.2611 64.4849C56.8593 64.4746 56.4597 64.5489 56.0883 64.7028C55.7169 64.8567 55.3819 65.0868 55.1051 65.3784C54.8283 65.6699 54.6157 66.0163 54.4812 66.3951L52.7063 71.3804C51.8004 73.9277 48.1981 73.9277 47.2922 71.3804L45.5173 66.3951C45.3828 66.0163 45.1702 65.6699 44.8934 65.3784C44.6165 65.0868 44.2816 64.8567 43.9102 64.7028C43.5388 64.5489 43.1392 64.4746 42.7373 64.4849C42.3355 64.4951 41.9402 64.5896 41.5771 64.7622L36.7984 67.0341C34.3562 68.1948 31.8089 65.6475 32.9697 63.206L35.2415 58.4273C35.414 58.0642 35.5084 57.669 35.5186 57.2671C35.5288 56.8653 35.4545 56.4657 35.3006 56.0944C35.1467 55.723 34.9166 55.3881 34.6252 55.1112C34.3337 54.8344 33.9874 54.6217 33.6086 54.4871L28.6234 52.7122C26.0761 51.8063 26.0761 48.2041 28.6234 47.2982L33.6086 45.5233C33.9874 45.3887 34.3337 45.176 34.6252 44.8992C34.9166 44.6223 35.1467 44.2874 35.3006 43.916C35.4545 43.5447 35.5288 43.1451 35.5186 42.7433C35.5084 42.3414 35.414 41.9462 35.2415 41.5831L32.9697 36.8044C31.811 34.3643 34.3612 31.8141 36.8006 32.9749L41.5792 35.2468C41.9423 35.4193 42.3376 35.5137 42.7394 35.5238C43.1413 35.534 43.5408 35.4598 43.9122 35.3059C44.2836 35.152 44.6185 34.9219 44.8954 34.6304C45.1722 34.339 45.3848 33.9926 45.5195 33.6139L47.2943 28.6286C48.1981 26.082 51.8004 26.082 52.7063 28.6293Z" fill="#FFC6FF"/>
<path d="M52.7063 28.6293L54.4812 33.6146C54.6158 33.9934 54.8284 34.3397 55.1053 34.6311C55.3821 34.9226 55.7171 35.1527 56.0884 35.3066C56.4598 35.4605 56.8593 35.5347 57.2612 35.5246C57.663 35.5144 58.0583 35.42 58.4214 35.2475L63.2001 32.9756C65.6416 31.8149 68.1889 34.3622 67.0281 36.8044L64.7563 41.5831C64.5836 41.9461 64.4891 42.3414 64.4789 42.7433C64.4687 43.1452 64.5429 43.5448 64.6968 43.9162C64.8507 44.2875 65.0809 44.6225 65.3724 44.8993C65.6639 45.1762 66.0103 45.3887 66.3891 45.5233L71.3744 47.2982C73.9217 48.2041 73.9217 51.8063 71.3744 52.7122L66.3891 54.4871C66.0103 54.6217 65.6639 54.8342 65.3724 55.1111C65.0809 55.3879 64.8507 55.7229 64.6968 56.0942C64.5429 56.4656 64.4687 56.8652 64.4789 57.2671C64.4891 57.669 64.5836 58.0643 64.7563 58.4273L67.0281 63.206C68.1889 65.6475 65.6416 68.1948 63.2001 67.0341L58.4214 64.7622C58.0583 64.5896 57.663 64.4951 57.2611 64.4849C56.8593 64.4746 56.4597 64.5489 56.0883 64.7028C55.7169 64.8567 55.3819 65.0868 55.1051 65.3784C54.8283 65.6699 54.6157 66.0163 54.4812 66.3951L52.7063 71.3804C51.8004 73.9277 48.1981 73.9277 47.2922 71.3804L45.5173 66.3951C45.3828 66.0163 45.1702 65.6699 44.8934 65.3784C44.6165 65.0868 44.2816 64.8567 43.9102 64.7028C43.5388 64.5489 43.1392 64.4746 42.7373 64.4849C42.3355 64.4951 41.9402 64.5896 41.5771 64.7622L36.7984 67.0341C34.3562 68.1948 31.8089 65.6475 32.9697 63.206L35.2415 58.4273C35.414 58.0642 35.5084 57.669 35.5186 57.2671C35.5288 56.8653 35.4545 56.4657 35.3006 56.0944C35.1467 55.723 34.9166 55.3881 34.6252 55.1112C34.3337 54.8344 33.9874 54.6217 33.6086 54.4871L28.6234 52.7122C26.0761 51.8063 26.0761 48.2041 28.6234 47.2982L33.6086 45.5233C33.9874 45.3887 34.3337 45.176 34.6252 44.8992C34.9166 44.6223 35.1467 44.2874 35.3006 43.916C35.4545 43.5447 35.5288 43.1451 35.5186 42.7433C35.5084 42.3414 35.414 41.9462 35.2415 41.5831L32.9697 36.8044C31.811 34.3643 34.3612 31.8141 36.8006 32.9749L41.5792 35.2468C41.9423 35.4193 42.3376 35.5137 42.7394 35.5238C43.1413 35.534 43.5408 35.4598 43.9122 35.3059C44.2836 35.152 44.6185 34.9219 44.8954 34.6304C45.1722 34.339 45.3848 33.9926 45.5195 33.6139L47.2943 28.6286C48.1981 26.082 51.8004 26.082 52.7063 28.6293Z" fill="#FFC6FF"/>
<path d="M52.0205 34.0397L53.3445 37.7627C53.4451 38.0456 53.6039 38.3042 53.8107 38.5219C54.0175 38.7395 54.2676 38.9113 54.545 39.0262C54.8223 39.1411 55.1207 39.1965 55.4208 39.1888C55.721 39.1812 56.0161 39.1106 56.2873 38.9817L59.8555 37.2856C61.6786 36.4188 63.5813 38.3207 62.7144 40.1446L61.0184 43.7128C60.8895 43.9839 60.8189 44.2791 60.8112 44.5792C60.8036 44.8793 60.859 45.1777 60.9739 45.4551C61.0888 45.7325 61.2606 45.9826 61.4782 46.1894C61.6959 46.3962 61.9545 46.555 62.2374 46.6556L65.9596 47.9796C67.8623 48.6562 67.8623 51.3462 65.9596 52.0263L62.2374 53.3468C61.9545 53.4474 61.6959 53.6062 61.4782 53.813C61.2606 54.0198 61.0888 54.2699 60.9739 54.5473C60.859 54.8247 60.8036 55.123 60.8112 55.4232C60.8189 55.7233 60.8895 56.0184 61.0184 56.2896L62.7144 59.8578C63.5813 61.6809 61.6786 63.5836 59.8555 62.7168L56.2873 61.0207C56.0161 60.8918 55.721 60.8212 55.4208 60.8135C55.1207 60.8059 54.8223 60.8613 54.545 60.9762C54.2676 61.0911 54.0175 61.2629 53.8107 61.4805C53.6039 61.6982 53.4451 61.9568 53.3445 62.2397L52.0205 65.9619C51.3439 67.8646 48.6539 67.8646 47.9738 65.9619L46.6497 62.2397C46.5491 61.9568 46.3903 61.6982 46.1835 61.4805C45.9768 61.2629 45.7266 61.0911 45.4492 60.9762C45.1719 60.8613 44.8735 60.8059 44.5734 60.8135C44.2733 60.8212 43.9781 60.8918 43.707 61.0207L40.1387 62.7168C38.3149 63.5836 36.4129 61.6809 37.2798 59.8578L38.9759 56.2896C39.1048 56.0184 39.1753 55.7233 39.183 55.4232C39.1907 55.123 39.1353 54.8247 39.0204 54.5473C38.9055 54.2699 38.7336 54.0198 38.516 53.813C38.2984 53.6062 38.0397 53.4474 37.7569 53.3468L34.0339 52.0228C32.1319 51.3462 32.1319 48.6562 34.0339 47.9761L37.7569 46.652C38.0397 46.5514 38.2984 46.3926 38.516 46.1859C38.7336 45.9791 38.9055 45.7289 39.0204 45.4515C39.1353 45.1742 39.1907 44.8758 39.183 44.5757C39.1753 44.2756 39.1048 43.9804 38.9759 43.7093L37.2798 40.1411C36.4193 38.3207 38.3184 36.4216 40.1423 37.2856L43.7105 38.9817C43.9816 39.1106 44.2768 39.1812 44.5769 39.1888C44.877 39.1965 45.1754 39.1411 45.4528 39.0262C45.7301 38.9113 45.9803 38.7395 46.1871 38.5219C46.3939 38.3042 46.5527 38.0456 46.6532 37.7627L47.9773 34.0397C48.6539 32.1378 51.3439 32.1378 52.0205 34.0397Z" fill="#FFE2FF"/>
</g>
<defs>
<clipPath id="clip0_7057_10058">
<rect width="100" height="100" fill="white"/>
</clipPath>
</defs>
</svg>
