<svg width="40" height="40" viewBox="0 0 40 40" fill="none" xmlns="http://www.w3.org/2000/svg">
<g id="auto-backup-cloud-svgrepo-com 1" clip-path="url(#clip0_7008_18979)">
<g id="Group">
<path id="Vector" d="M32.0589 9.87864H31.6337C31.4897 9.8787 31.3491 9.8341 31.2314 9.75098C31.1137 9.66785 31.0247 9.55029 30.9765 9.41448C30.5388 8.17188 29.7398 7.0884 28.682 6.30305C27.6242 5.5177 26.3559 5.0663 25.0398 5.00676C23.7237 4.94722 22.4198 5.28225 21.2955 5.96888C20.1711 6.65551 19.2775 7.66242 18.7294 8.86042C18.6822 8.9627 18.611 9.05204 18.5218 9.12079C18.4326 9.18954 18.3281 9.23565 18.2172 9.25517C18.1063 9.2747 17.9923 9.26705 17.885 9.2329C17.7777 9.19874 17.6802 9.13909 17.601 9.05904C16.6782 8.12585 15.4989 7.48797 14.2128 7.2264C12.9267 6.96483 11.5919 7.09138 10.3779 7.58998C9.1639 8.08858 8.12546 8.93673 7.39447 10.0267C6.66348 11.1167 6.27292 12.3994 6.27239 13.7118V16.151C6.27239 16.3359 6.19896 16.5131 6.06826 16.6438C5.93756 16.7745 5.76029 16.848 5.57546 16.848H3.48466C2.56047 16.848 1.67413 17.2151 1.02063 17.8686C0.367133 18.5221 0 19.4084 0 20.3326C0 21.2568 0.367133 22.1431 1.02063 22.7966C1.67413 23.4501 2.56047 23.8173 3.48466 23.8173H8.39873C8.5696 20.985 9.81515 18.3248 11.881 16.3797C13.9469 14.4347 16.6774 13.3516 19.5148 13.3516C22.3522 13.3516 25.0827 14.4347 27.1486 16.3797C29.2144 18.3248 30.46 20.985 30.6309 23.8173H32.0589C33.9073 23.8173 35.6799 23.083 36.9869 21.776C38.2939 20.469 39.0282 18.6963 39.0282 16.848C39.0282 14.9996 38.2939 13.2269 36.9869 11.9199C35.6799 10.6129 33.9073 9.87864 32.0589 9.87864ZM36.2405 18.9388H34.8466V17.5449H36.2405V18.9388ZM34.8466 16.151C34.8466 15.4117 34.5529 14.7026 34.0301 14.1798C33.5073 13.657 32.7982 13.3633 32.0589 13.3633V11.9694C33.1676 11.9705 34.2305 12.4115 35.0145 13.1954C35.7985 13.9794 36.2394 15.0423 36.2405 16.151H34.8466Z" fill="#28A487"/>
<path id="Vector_2" d="M12.5449 28.6953V33.8624L17.2415 28.6953H12.5449Z" fill="#FE5E02"/>
<path id="Vector_3" d="M19.5125 14.7578C17.0476 14.7616 14.6754 15.6978 12.8722 17.3784C11.0689 19.0589 9.96822 21.3594 9.79102 23.8179H12.5787C12.7136 22.476 13.235 21.202 14.0796 20.1505C14.9242 19.099 16.0557 18.3151 17.337 17.894C18.6183 17.4729 19.9943 17.4326 21.298 17.778C22.6017 18.1234 23.7772 18.8397 24.6819 19.8399C25.5866 20.8402 26.1817 22.0815 26.3948 23.4132C26.608 24.745 26.4302 26.11 25.883 27.3427C25.3357 28.5754 24.4425 29.6228 23.3118 30.358C22.181 31.0931 20.8612 31.4843 19.5125 31.4842C18.6599 31.4816 17.8153 31.3204 17.0217 31.0089L15.0522 33.1777C16.3645 33.8539 17.8133 34.2233 19.2892 34.2581C20.7651 34.2928 22.2297 33.992 23.5724 33.3782C24.9151 32.7645 26.101 31.8539 27.0405 30.7151C27.98 29.5764 28.6487 28.2391 28.9962 26.8043C29.3436 25.3694 29.3608 23.8744 29.0463 22.4319C28.7318 20.9895 28.0938 19.6373 27.1806 18.4773C26.2674 17.3173 25.1027 16.3798 23.7744 15.7355C22.4461 15.0912 20.9888 14.7569 19.5125 14.7578Z" fill="#FE5E02"/>
</g>
</g>
<defs>
<clipPath id="clip0_7008_18979">
<rect width="40" height="40" fill="white"/>
</clipPath>
</defs>
</svg>
