<svg width="75" height="54" viewBox="0 0 75 54" fill="none" xmlns="http://www.w3.org/2000/svg">
<g id="MobileArtboard 20 3" clip-path="url(#clip0_7562_45645)">
<g id="Clip path group">
<mask id="mask0_7562_45645" style="mask-type:luminance" maskUnits="userSpaceOnUse" x="8" y="20" width="39" height="19">
<g id="clippath">
<path id="Vector" d="M19.5405 37.3393C19.5873 36.9994 19.6117 36.6473 19.6117 36.2891C19.6117 33.4072 18.0445 31.0707 16.109 31.0707H15.0018C14.2772 31.0707 13.6015 31.3984 13.0439 31.9621C13.0317 31.9743 13.0215 31.9865 13.0093 31.9967C12.9869 32.0211 12.9625 32.0456 12.9401 32.07C12.0669 33.0184 11.4991 34.5551 11.4991 36.2891C11.4991 36.5578 11.5133 36.8244 11.5398 37.0829C11.5479 37.1704 11.5581 37.2559 11.5703 37.3393L8.81049 38.1616L9.05065 37.3393L11.6253 28.492C11.9102 27.5049 12.8139 26.8251 13.8417 26.8251H15.706C16.0866 26.8251 16.455 26.6908 16.746 26.4445L16.8722 26.3366L17.2772 25.9947L17.5439 25.7708L18.7019 24.7939L18.7365 24.7633L19.0032 24.5395L23.208 20.992C23.5947 20.6643 24.0852 20.4852 24.5941 20.4852L32.0106 20.4771H32.2284H32.3627C32.3688 20.4771 32.3729 20.4771 32.379 20.4771C32.379 20.4771 32.3831 20.4771 32.3851 20.4771C32.7922 20.4832 33.1728 20.6846 33.4068 21.0184L37.4143 26.7254L46.1924 28.9825L46.5853 37.3393H19.5405Z" fill="white"/>
</g>
</mask>
<g mask="url(#mask0_7562_45645)">
<g id="Group">
<path id="Vector_2" d="M38.4435 40.1878C32.6735 42.0277 25.841 42.9029 19.8329 41.9259C18.0866 41.6084 16.3587 41.063 14.8383 40.1715C11.9014 38.5148 9.72978 35.1851 11.5514 31.9165C12.5018 30.1783 14.1606 28.8615 15.8458 27.8439C22.3159 23.9911 30.4652 23.93 37.5235 26.1424C41.9075 27.447 43.6131 30.3208 38.2624 31.9897C34.1653 33.2211 26.9991 34.0128 22.8736 32.8893C21.6402 32.5311 19.9062 31.6112 20.3377 30.2048C21.2902 27.8825 27.5548 27.9985 29.6735 28.5705C31.1735 28.9287 32.4191 29.9198 30.7766 30.6749C27.0113 32.0406 20.1911 30.6912 17.4374 27.6586C14.9462 24.8825 16.6538 21.8886 19.4442 20.1892C21.1518 19.1044 23.0955 18.4083 25.0676 17.9728C31.2976 16.5888 37.8675 17.7672 43.5093 20.6532" stroke="white" stroke-width="0.225186" stroke-miterlimit="10"/>
</g>
</g>
</g>
<path id="Vector_3" d="M74.7774 42.3723C74.7774 42.5188 74.7509 42.6633 74.7021 42.8078C73.4667 46.3411 57.2821 49.1375 37.4992 49.1375C17.7163 49.1375 1.53179 46.3411 0.296375 42.8058C0.245493 42.6613 0.221069 42.5168 0.221069 42.3702C0.221069 38.6335 16.9104 35.605 37.4992 35.605C58.0881 35.605 74.641 38.609 74.7753 42.3234C74.7753 42.3377 74.7753 42.354 74.7753 42.3682L74.7774 42.3723Z" fill="#6D69B5"/>
<path id="Vector_4" d="M74.7774 42.3716V47.2339C74.7774 47.2501 74.7774 47.2664 74.7774 47.2827C74.6329 50.9971 57.9985 53.9991 37.5013 53.9991C17.004 53.9991 0.221069 50.9706 0.221069 47.2339V42.3716C0.221069 42.5181 0.247528 42.6626 0.296375 42.8071C1.53179 46.3404 17.7163 49.1368 37.4992 49.1368C57.2821 49.1368 73.4667 46.3404 74.7021 42.8071C74.753 42.6626 74.7774 42.5181 74.7774 42.3716Z" fill="#918DE0"/>
<path id="Vector_5" d="M72.6243 36.2504V41.7131C72.6243 41.8291 72.6019 41.9451 72.5551 42.0611C72.1114 43.1581 69.5917 44.1656 65.5965 44.9919C65.0225 45.11 64.4201 45.226 63.7871 45.3359C62.9404 45.4845 62.0429 45.6249 61.0985 45.7592C57.034 46.3332 52.1026 46.7606 46.6439 46.9885C43.7294 47.1106 40.6643 47.1758 37.5015 47.1758C34.0354 47.1758 30.6874 47.0984 27.5245 46.9519C26.053 46.8847 24.6222 46.8033 23.2382 46.7056C22.3712 46.6466 21.5225 46.5815 20.6942 46.5102C13.2471 45.8793 7.43431 44.8393 4.49334 43.5855C3.36579 43.1052 2.65955 42.5944 2.44585 42.0611C2.39904 41.9451 2.37665 41.8311 2.37665 41.7131V36.2504C2.37665 26.5889 6.27828 17.8372 12.5917 11.4872C17.918 6.12218 24.9723 2.46885 32.8509 1.42883C34.3712 1.22733 35.9241 1.12354 37.4994 1.12354C37.9085 1.12354 38.3156 1.12964 38.7206 1.14389C40.2491 1.19681 41.7532 1.34538 43.2267 1.58758C44.7695 1.83995 46.2776 2.19409 47.745 2.64185C52.2959 4.02788 56.454 6.31146 60.0137 9.28907C60.5001 9.69409 60.9743 10.1134 61.4363 10.5448C61.7416 10.8277 62.0408 11.1168 62.3339 11.4119C62.7756 11.8535 63.207 12.3094 63.6263 12.7735C69.2193 18.9953 72.6222 27.226 72.6222 36.2504H72.6243Z" fill="#FDC2FF"/>
<path id="Vector_6" d="M72.6264 41.7092C72.6264 41.8964 72.5653 42.0837 72.4453 42.2669C70.6501 45.0226 55.6888 47.1719 37.4995 47.1719C36.4473 47.1719 35.4052 47.1637 34.3774 47.1495C16.4405 46.9032 2.37469 44.5626 2.37469 41.7092C2.37469 41.119 2.97714 40.5511 4.09043 40.0179C8.66981 37.8299 21.8971 36.2485 37.5016 36.2485C41.1305 36.2485 44.6311 36.334 47.9242 36.4928C62.2343 37.1827 72.6284 39.2567 72.6284 41.7092H72.6264Z" fill="#918DE0"/>
<path id="Vector_7" d="M66.6975 31.2301C66.6018 31.6758 65.8569 32.1317 64.4342 32.3922L64.1676 30.7681C65.1445 30.8434 66.7117 31.0001 66.6975 31.2301Z" fill="#FE5D02"/>
<g id="Group_2">
<path id="&#38;lt;Path&#38;gt;" d="M37.0198 43.751C51.8977 43.751 63.9587 43.0467 63.9587 42.1778C63.9587 41.3089 51.8977 40.6045 37.0198 40.6045C22.1418 40.6045 10.0808 41.3089 10.0808 42.1778C10.0808 43.0467 22.1418 43.751 37.0198 43.751Z" fill="#112130"/>
<g id="Group_3">
<path id="Vector_8" d="M34.3822 31.0801C34.3822 31.0801 34.3924 31.0801 34.3985 31.0801H38.6624C40.4982 31.0801 41.986 33.4878 41.986 36.4573C41.986 39.4268 40.4982 41.8345 38.6624 41.8345H34.3985C34.3985 41.8345 34.3883 41.8345 34.3822 41.8345C32.5464 41.8345 31.0586 39.4268 31.0586 36.4573C31.0586 33.4878 32.5464 31.0801 34.3822 31.0801Z" fill="#112130"/>
<path id="Vector_9" d="M53.7013 31.0801C53.7013 31.0801 53.7115 31.0801 53.7176 31.0801H57.9815C59.8173 31.0801 61.3051 33.4878 61.3051 36.4573C61.3051 39.4268 59.8173 41.8345 57.9815 41.8345H53.7176C53.7176 41.8345 53.7074 41.8345 53.7013 41.8345C51.8655 41.8345 50.3777 39.4268 50.3777 36.4573C50.3777 33.4878 51.8655 31.0801 53.7013 31.0801Z" fill="#112130"/>
</g>
<path id="Vector_10" d="M12.8549 26.9976L11.88 27.8361C11.418 28.233 11.2165 28.8537 11.3569 29.446L11.5788 30.3822L12.8528 26.9976H12.8549Z" fill="white"/>
<g id="Group_4">
<path id="Vector_11" d="M11.0865 32.4555C11.2555 30.6217 11.7358 28.8286 12.5072 27.1536L12.8389 26.4331H20.9413L16.7426 38.5206C15.265 38.1522 13.8952 37.4399 12.7473 36.4406L12.6496 36.3571C11.5323 35.3843 10.9502 33.9311 11.0865 32.4555Z" fill="#1A473F"/>
<path id="Vector_12" opacity="0.5" d="M11.0865 32.4555C11.2555 30.6217 11.7358 28.8286 12.5072 27.1536L12.8389 26.4331H20.9413L16.7426 38.5206C15.265 38.1522 13.8952 37.4399 12.7473 36.4406L12.6496 36.3571C11.5323 35.3843 10.9502 33.9311 11.0865 32.4555Z" fill="#1A473F"/>
</g>
<g id="Group_5">
<path id="Vector_13" d="M21.8395 41.8384C23.6753 41.8384 25.1631 39.4307 25.1631 36.4612C25.1631 33.4917 23.6753 31.084 21.8395 31.084H17.5756V41.8404H21.8395V41.8384Z" fill="#223544"/>
<path id="Vector_14" d="M17.5612 41.8384C19.3968 41.8384 20.8848 39.4309 20.8848 36.4612C20.8848 33.4914 19.3968 31.084 17.5612 31.084C15.7256 31.084 14.2376 33.4914 14.2376 36.4612C14.2376 39.4309 15.7256 41.8384 17.5612 41.8384Z" fill="#223544"/>
<path id="Vector_15" d="M17.5609 39.8605C18.8479 39.8605 19.8913 38.3378 19.8913 36.4595C19.8913 34.5813 18.8479 33.0586 17.5609 33.0586C16.2738 33.0586 15.2305 34.5813 15.2305 36.4595C15.2305 38.3378 16.2738 39.8605 17.5609 39.8605Z" fill="#112130"/>
</g>
<path id="Vector_16" d="M54.0918 25.6976L50.758 31.0504L50.7031 31.1399L49.95 32.3469L47.4283 36.395L46.1013 38.5239H23.4914C23.1536 38.5239 22.8645 38.3123 22.7669 37.9927C22.138 35.9473 22.1664 31.0809 17.5769 31.0809L12.8367 26.4344C14.6237 23.5952 20.524 20.1433 30.273 19.4351L30.7879 20.2166C32.5952 21.1691 35.3856 23.1698 37.7689 25.6956H54.0877L54.0918 25.6976Z" fill="#1A473F"/>
<g id="Group_6">
<path id="Vector_17" d="M41.1589 41.8384C42.9947 41.8384 44.4825 39.4307 44.4825 36.4612C44.4825 33.4917 42.9947 31.084 41.1589 31.084H36.895V41.8404H41.1589V41.8384Z" fill="#223544"/>
<path id="Vector_18" d="M36.8787 41.8384C38.7142 41.8384 40.2023 39.4309 40.2023 36.4612C40.2023 33.4914 38.7142 31.084 36.8787 31.084C35.0431 31.084 33.5551 33.4914 33.5551 36.4612C33.5551 39.4309 35.0431 41.8384 36.8787 41.8384Z" fill="#223544"/>
<path id="Vector_19" d="M36.8784 39.8605C38.1654 39.8605 39.2088 38.3378 39.2088 36.4595C39.2088 34.5813 38.1654 33.0586 36.8784 33.0586C35.5913 33.0586 34.548 34.5813 34.548 36.4595C34.548 38.3378 35.5913 39.8605 36.8784 39.8605Z" fill="#112130"/>
</g>
<g id="Group_7">
<path id="Vector_20" d="M64.0357 30.5808L62.5805 30.9166L61.9313 31.0652L59.4482 31.6371L58.05 31.9587L52.6524 31.3583L51.647 31.2463L51.1199 31.1873L50.7047 31.1405L44.5154 30.4505L44.4177 30.4098L41.78 29.3026L41.607 29.148L37.7745 25.7002H54.0934C55.3777 25.7002 61.3817 27.8698 63.5656 30.0537C63.6897 30.1778 63.8057 30.304 63.9116 30.4281C63.9482 30.475 63.9869 30.5177 64.0235 30.5645C64.0296 30.5706 64.0337 30.5747 64.0378 30.5808H64.0357Z" fill="#5FCEB1"/>
<path id="Vector_21" d="M65.4325 37.042C65.4691 37.8418 64.7344 38.5277 63.8491 38.5298C58.2663 38.5318 51.8002 38.5481 47.5424 38.5583L47.2636 33.3724C47.2636 33.3724 47.2636 33.3622 47.2636 33.3561C47.1985 32.257 46.5126 31.2882 45.497 30.8629L44.5139 30.4497L58.0485 31.9558L64.0363 30.58C65.1313 31.966 65.2738 33.5678 65.4325 37.0399V37.042Z" fill="#A6FFE6"/>
</g>
<path id="Vector_22" d="M54.0913 25.6979H40.2026C40.2026 25.6979 34.2331 20.5364 30.2745 19.4374C30.8545 19.3946 31.4468 19.3621 32.0533 19.3397C32.0676 19.3397 32.0818 19.3397 32.094 19.3397C32.2406 19.3336 32.3871 19.3295 32.5357 19.3254C32.6741 19.3214 32.8145 19.3193 32.9549 19.3153C33.0119 19.3153 33.0689 19.3132 33.1279 19.3132C33.2439 19.3112 33.36 19.3092 33.478 19.3092C33.6368 19.3092 33.7955 19.3071 33.9563 19.3071C35.0411 19.3071 36.0811 19.3458 37.0723 19.4191C37.2636 19.4333 37.4549 19.4476 37.6442 19.4659C37.8559 19.4842 38.0676 19.5025 38.2752 19.5249C38.4482 19.5432 38.6191 19.5615 38.788 19.5819C39.3498 19.645 39.8932 19.7223 40.4203 19.8078C40.5974 19.8363 40.7704 19.8668 40.9434 19.8974C41.1612 19.934 41.379 19.9747 41.5906 20.0174C41.7148 20.0419 41.8369 20.0663 41.957 20.0907C42.1218 20.1253 42.2867 20.1599 42.4495 20.1965C42.6103 20.2332 42.7711 20.2678 42.9298 20.3064C43.0682 20.339 43.2046 20.3716 43.341 20.4062C43.4346 20.4306 43.5302 20.453 43.6239 20.4774C44.2894 20.6484 44.9224 20.8336 45.5228 21.031C45.6144 21.0615 45.706 21.09 45.7955 21.1226C46.2433 21.2712 46.6707 21.4279 47.0798 21.5846C47.2039 21.6335 47.326 21.6803 47.4461 21.7291C51.6917 23.4387 53.8226 25.4618 54.0689 25.6796C54.0709 25.6816 54.075 25.6857 54.0791 25.6877C54.0852 25.6938 54.0872 25.6959 54.0893 25.6979H54.0913Z" fill="#FAA6FF"/>
<path id="Vector_23" d="M58.034 32.0326C58.034 32.0326 58.0441 32.0326 58.0502 32.0326L61.8745 31.1533C61.9132 31.1452 61.9376 31.1045 61.9295 31.0658C61.9213 31.0271 61.8806 31.0027 61.842 31.0108L58.0299 31.886L51.7266 31.1676C51.6859 31.1635 51.6493 31.192 51.6452 31.2327C51.6412 31.2734 51.6696 31.31 51.7104 31.3141L58.0258 32.0326C58.0258 32.0326 58.0319 32.0326 58.034 32.0326Z" fill="#1A473F"/>
<path id="Vector_24" d="M28.341 27.1589H26.436C26.2874 27.1589 26.1674 27.0388 26.1674 26.8902C26.1674 26.7417 26.2874 26.6216 26.436 26.6216H28.341C28.4896 26.6216 28.6097 26.7417 28.6097 26.8902C28.6097 27.0388 28.4896 27.1589 28.341 27.1589Z" fill="#192A38"/>
<path id="Vector_25" d="M47.5446 38.5576C47.4571 38.5576 47.3696 38.5576 47.2841 38.5576C45.9938 38.5597 44.9232 38.5637 44.162 38.5658C43.4415 38.5658 42.8411 38.1078 42.7333 37.4647C42.3282 35.061 39.9307 31.082 36.8981 31.082L33.9592 25.6987H37.7733L41.7787 29.3032L45.4972 30.8643C46.5148 31.2896 47.1987 32.2584 47.2638 33.3575C47.2638 33.3636 47.2638 33.3677 47.2638 33.3738L47.5426 38.5597L47.5446 38.5576Z" fill="#1A473F"/>
<g id="Clip path group_2">
<mask id="mask1_7562_45645" style="mask-type:luminance" maskUnits="userSpaceOnUse" x="11" y="19" width="37" height="20">
<g id="clippath-1">
<path id="Vector_26" d="M47.4277 36.3967L46.1007 38.5235H43.7845C43.2391 38.3953 42.8198 37.9923 42.7303 37.4652C42.3273 35.0819 39.9664 31.1456 36.9664 31.0846C36.9419 31.0846 36.9196 31.0846 36.8951 31.0846H36.8809C35.0451 31.0846 33.5573 33.4923 33.5573 36.4638C33.5573 37.1945 33.6468 37.8926 33.8117 38.5276H23.4908C23.1529 38.5276 22.8639 38.3159 22.7662 37.9964C22.2249 36.2338 22.1699 32.3831 19.235 31.3471C18.7791 31.1863 18.254 31.0927 17.6475 31.0866C17.6231 31.0866 17.6007 31.0866 17.5763 31.0866H17.56C15.7242 31.0866 14.2364 33.4943 14.2364 36.4659C14.2364 36.8383 14.2608 37.2026 14.3035 37.5547C13.75 37.2393 13.2289 36.8688 12.7445 36.4496L12.6468 36.3661C11.5274 35.3912 10.9453 33.9401 11.0817 32.4645C11.2506 30.6287 11.731 28.8376 12.5023 27.1646L12.8341 26.4441C14.6211 23.6049 20.5213 20.1531 30.2703 19.4448L30.7852 20.2264C32.5926 21.1789 35.3829 23.1796 37.7662 25.7053L41.7696 29.3098L45.4881 30.8709C46.5057 31.2962 47.1896 32.265 47.2547 33.3641C47.2547 33.3702 47.2547 33.3743 47.2547 33.3804L47.4175 36.4048L47.4277 36.3967Z" fill="white"/>
</g>
</mask>
<g mask="url(#mask1_7562_45645)">
<g id="Group_8">
<path id="Vector_27" d="M8.85809 28.0381C13.8791 29.4424 21.0718 27.7857 22.698 23.6317C23.2109 22.2294 22.3479 21.0917 20.4327 21.4804C18.6783 21.7735 16.352 23.5869 15.2102 25.1154C13.0467 27.8752 11.7502 32.0679 13.5942 35.19C17.219 40.0727 27.2631 36.7531 31.7997 32.4567C33.4483 30.9282 34.7774 29.0333 35.4388 27.0449C35.8662 25.7484 36.1064 24.055 35.2577 22.9906C33.8798 21.513 31.6125 22.7199 30.3934 23.9126C27.1634 27.2647 26.4287 32.9085 28.5942 37.1215C33.3689 46.4614 44.0684 39.3176 46.5983 33.5109C47.1702 32.2226 47.3961 30.9567 47.1254 29.8291C46.7326 28.0157 44.8662 26.5198 42.6783 26.1351C37.6634 25.1989 35.3961 30.0937 37.755 34.3617C38.9945 36.8691 41.274 39.0265 43.6471 40.8644" stroke="#256B59" stroke-width="1.16578" stroke-miterlimit="10"/>
</g>
</g>
</g>
<path id="Vector_28" d="M19.9841 27.1589H18.0791C17.9305 27.1589 17.8104 27.0388 17.8104 26.8902C17.8104 26.7417 17.9305 26.6216 18.0791 26.6216H19.9841C20.1327 26.6216 20.2528 26.7417 20.2528 26.8902C20.2528 27.0388 20.1327 27.1589 19.9841 27.1589Z" fill="#192A38"/>
<path id="Vector_29" d="M37.7726 25.6966H18.3398C17.3486 25.6966 16.3717 25.4402 15.5087 24.9538C15.5087 24.9538 16.2943 24.2414 17.8697 23.3723C19.445 22.5053 21.812 21.4836 24.9728 20.871C27.5718 20.3662 30.0365 20.1688 30.7916 20.2177C32.599 21.1702 35.3893 23.1708 37.7726 25.6966Z" fill="#192A38"/>
<path id="Vector_30" d="M51.8893 37.2177H62.721C63.1158 37.2177 63.4049 36.8005 63.3072 36.369L62.7861 34.0671C62.7169 33.7659 62.4768 33.5542 62.2 33.5542H52.4123C52.1355 33.5542 51.8933 33.7659 51.8262 34.0671L51.3051 36.369C51.2074 36.7984 51.4964 37.2177 51.8913 37.2177H51.8893Z" fill="#1A473F"/>
<path id="Vector_31" d="M13.1909 31.2134L14.0599 31.3803V29.0234L13.1909 29.1903C13.0728 29.2127 12.9853 29.3715 12.9853 29.5608V30.8409C12.9853 31.0302 13.0728 31.189 13.1909 31.2114V31.2134Z" fill="#192A38"/>
<path id="Vector_32" d="M51.1318 31.1913C49.2268 30.4688 43.4731 28.4417 41.9039 28.9708C40.3347 29.498 44.1346 31.3786 45.0911 31.6289C46.0477 31.8792 46.6766 31.3786 48.1095 32.0706C49.5423 32.7626 53.4399 32.0665 51.1318 31.1913Z" fill="white"/>
<path id="Vector_33" d="M61.9945 31.2618C62.3873 31.0236 63.0304 30.6451 63.757 30.2563C64.1743 30.7082 64.4755 31.1702 64.6994 31.7014C64.4795 31.7462 64.2272 31.85 63.9158 32.0901C62.9877 32.8045 60.5006 32.1715 61.9945 31.2618Z" fill="white"/>
<g id="Clip path group_3">
<mask id="mask2_7562_45645" style="mask-type:luminance" maskUnits="userSpaceOnUse" x="30" y="19" width="25" height="7">
<g id="clippath-2">
<path id="Vector_34" d="M33.9594 19.3072C47.6853 19.3072 53.9499 25.6003 54.0903 25.698H40.2016C40.2016 25.698 34.2301 20.5365 30.2735 19.4375C31.4458 19.352 32.6751 19.3052 33.9574 19.3052L33.9594 19.3072Z" fill="white"/>
</g>
</mask>
<g mask="url(#mask2_7562_45645)">
<g id="Group_9">
<path id="Vector_35" d="M34.4068 23.4906C34.3192 23.8264 34.2684 24.1683 34.2521 24.5062L37.6815 25.7111C37.5798 25.4953 37.5065 25.2653 37.4637 25.0252C37.1727 23.342 38.5709 22.994 39.9529 23.2056C40.596 23.2891 41.2494 23.4987 41.8742 23.7206C43.8708 24.496 46.5431 24.956 47.9373 22.8596C48.265 22.3386 48.4563 21.7687 48.5519 21.1826L46.7629 20.5537C46.5981 21.268 46.2663 21.8746 45.6374 22.015C45.2446 22.1086 44.6218 22.0007 44.1842 21.8501C43.8036 21.7341 43.4169 21.5693 43.0567 21.3963C41.8538 20.8203 40.5533 20.3278 39.1958 20.2667C37.0587 20.0978 34.9542 21.2986 34.4088 23.4885L34.4068 23.4906Z" fill="white"/>
</g>
</g>
</g>
<path id="Vector_36" d="M24.7463 27.4526C24.7463 27.4526 24.8073 31.8264 26.0916 35.1317" stroke="#192A38" stroke-width="0.302905" stroke-miterlimit="10"/>
<path id="Vector_37" d="M40.2025 25.6975H37.7724C35.389 23.1717 32.5987 21.1711 30.7914 20.2186L30.2764 19.437C34.235 20.5361 40.2045 25.6975 40.2045 25.6975H40.2025Z" fill="#5FCEB1"/>
</g>
<path id="Vector_38" d="M46.0111 35.5097C44.68 35.6949 43.3571 35.7886 42.0301 35.7886C39.8828 35.7886 37.7255 35.5443 35.5111 35.0559C32.4154 34.372 29.7126 33.3076 27.543 32.4548C26.7187 32.1312 25.9412 31.8238 25.2411 31.5776C15.9805 28.3089 5.74513 34.0301 5.64336 34.0871L6.69967 32.119L4.10876 31.3863C4.22681 31.3191 7.03549 29.7356 11.1386 28.5979C13.5606 27.9283 15.9398 27.5498 18.2112 27.4745C21.0911 27.3788 23.8042 27.7736 26.277 28.6468C27.0301 28.9134 27.834 29.2289 28.6827 29.5626C32.8652 31.2092 38.5904 33.4622 45.777 32.4039L45.948 32.3795L46.0111 35.5097Z" fill="#CC58B1"/>
<path id="Vector_39" d="M57.1793 35.2636L57.6352 35.514L57.279 35.9536C57.049 35.9536 54.2057 35.9495 53.9717 35.9475C50.0029 35.8946 46.8462 35.5913 46.03 35.5058C46.0239 35.5058 46.0178 35.5058 46.0117 35.5079L45.9486 32.3776L45.9771 32.3735L46.1786 32.3959C46.2519 32.4041 52.895 32.8457 57.798 32.8437L57.3462 33.4909L57.627 33.841L57.2098 34.4027L57.6128 34.6225L57.1813 35.2616L57.1793 35.2636Z" fill="#F180D2"/>
<path id="Vector_40" d="M66.6978 31.228C66.6428 31.9709 66.5675 32.9621 66.5126 33.707C65.9793 35.8278 60.0099 35.84 58.2819 35.9539L58.6381 35.5143L58.1822 35.264L58.6137 34.6249L58.2107 34.4051L58.6279 33.8434L58.347 33.4933L58.7989 32.8461C59.784 32.8461 65.3769 32.9682 66.6978 31.228Z" fill="#F180D2"/>
<path id="Vector_41" d="M18.7377 24.7677L16.8734 26.341C16.2343 26.1761 15.6461 25.9868 15.1088 25.7752C12.4772 24.7331 11.8971 23.4387 11.8076 23.1904L13.1569 23.4265L13.6067 22.4902C13.6108 22.4984 14.0606 23.3756 16.2567 24.1408C16.8876 24.3607 17.6997 24.5825 18.7377 24.7697V24.7677Z" fill="#FE5D02"/>
<path id="Vector_42" d="M66.2597 28.6602C65.5758 28.7233 65.0222 29.6229 64.9429 30.7667C64.8655 29.6209 64.3119 28.7233 63.626 28.6602C64.3099 28.5971 64.8635 27.6975 64.9429 26.5537C65.0202 27.6975 65.5738 28.5971 66.2597 28.6602Z" fill="white"/>
<g id="Group_10">
<path id="Vector_43" d="M33.701 14.2558C33.123 14.7341 32.9968 15.5848 33.3875 16.2626C32.8584 15.6866 32.0076 15.5523 31.3787 15.9614C31.9567 15.4831 32.085 14.6323 31.6922 13.9546C32.2213 14.5306 33.0721 14.6649 33.701 14.2558Z" fill="#F180D2"/>
<path id="Vector_44" d="M17.574 14.8749C17.3623 15.3064 17.1506 15.7358 16.939 16.1673C16.0801 16.1083 15.9559 15.0458 15.4166 15.1354C15.5529 14.8586 15.6893 14.5798 15.8257 14.303C16.4179 14.1035 16.6174 15.0194 17.574 14.8769V14.8749Z" fill="#F180D2"/>
<path id="Vector_45" d="M27.6833 16.9488C27.5409 17.0567 27.3964 17.1666 27.2539 17.2744C26.8285 17.1096 26.8753 16.4827 26.3014 16.1815C26.4968 16.0329 26.6922 15.8843 26.8876 15.7378C27.3984 16.0879 27.3007 16.7534 27.6833 16.9488Z" fill="#5FCEB1"/>
<path id="Vector_46" d="M53.246 19.4962C53.1117 19.3761 52.9794 19.256 52.845 19.1359C52.9264 18.6882 53.5513 18.6169 53.7385 17.9941C53.9217 18.159 54.1028 18.3239 54.286 18.4867C54.0397 19.0545 53.3661 19.083 53.246 19.4962Z" fill="#5FCEB1"/>
<path id="Vector_47" d="M23.7809 21.0703C23.5143 21.337 23.2477 21.6036 22.981 21.8702C22.169 21.6341 22.2199 20.533 21.4078 20.2969C21.6744 20.0303 21.941 19.7637 22.2076 19.4971C23.0197 19.7332 22.9688 20.8342 23.7809 21.0703Z" fill="#918DE0"/>
<path id="Vector_48" d="M45.6805 19.1029C45.4566 18.9991 45.2307 18.8932 45.0068 18.7894C44.9132 18.128 45.7721 17.6884 45.8026 16.5059C46.173 16.6768 46.5435 16.8498 46.9118 17.0208C46.6839 18.1137 45.6886 18.4882 45.6805 19.1029Z" fill="#E5FC54"/>
<path id="Vector_49" d="M35.3759 21.0363L36.131 20.6821L36.4648 21.7995L35.9784 22.0193L35.3759 21.0363Z" fill="#FE5D02"/>
<path id="Vector_50" d="M58.3388 21.1035L59.8693 21.187C59.8693 21.187 59.8184 22.4733 58.7682 22.9332H57.6142C57.6142 22.9332 58.6542 22.3471 58.3388 21.1035Z" fill="#02B6FF"/>
<path id="Vector_51" d="M40.1309 14.126L39.4165 13.3302C39.4165 13.3302 40.0759 12.7196 40.8208 13.0127L41.3887 13.5805C41.3887 13.5805 40.5868 13.3567 40.1289 14.126H40.1309Z" fill="white"/>
<path id="Vector_52" d="M18.5631 15.8812C19.654 15.7449 20.8141 15.6187 21.8114 16.0868C23.2626 16.7686 24.0034 18.5454 25.5054 19.1031C26.4132 19.4389 27.4471 19.2517 28.3121 18.8182C29.1771 18.3846 29.9037 17.7252 30.6201 17.076" stroke="white" stroke-width="0.187323" stroke-miterlimit="10"/>
</g>
<path id="Vector_53" d="M11.3412 26.8252C13.0101 20.8699 16.8344 15.8143 21.9185 12.5518" stroke="white" stroke-width="3.00712" stroke-miterlimit="10" stroke-linecap="round"/>
<g id="Group_11" opacity="0.2">
<path id="Vector_54" d="M59.9408 9.28638L20.6192 46.5055C13.1721 45.8746 7.35937 44.8345 4.4184 43.5808L47.6721 2.63916C52.223 4.02518 56.3811 6.30877 59.9408 9.28638Z" fill="white"/>
<path id="Vector_55" d="M63.5556 12.7721L27.4497 46.9464C25.9782 46.8793 24.5474 46.7979 23.1635 46.7002L61.3636 10.5435C61.6689 10.8264 61.9681 11.1154 62.2611 11.4105C62.7028 11.8521 63.1343 12.308 63.5535 12.7721H63.5556Z" fill="white"/>
</g>
<path id="Vector_56" d="M60.7363 6.03362V6.09061C60.7363 6.32467 60.5593 6.52006 60.3252 6.54244C58.0111 6.7765 56.1692 8.96646 55.9962 11.7039C55.9819 11.94 55.7784 12.1232 55.5403 12.1232C55.3021 12.1232 55.1006 11.942 55.0844 11.7039C54.9134 8.96646 53.0694 6.7765 50.7533 6.54244C50.5192 6.51802 50.3422 6.32467 50.3422 6.09061V6.03362C50.3422 5.79957 50.5192 5.60418 50.7533 5.58179C53.0715 5.34773 54.9134 3.15778 55.0844 0.418291C55.0986 0.182198 55.3021 -0.000976562 55.5403 -0.000976562C55.7784 -0.000976562 55.9799 0.180163 55.9962 0.418291C56.1671 3.15778 58.0091 5.34773 60.3252 5.58179C60.5593 5.60622 60.7363 5.79957 60.7363 6.03362Z" fill="#FAA6FF"/>
</g>
<defs>
<clipPath id="clip0_7562_45645">
<rect width="74.5563" height="54" fill="white" transform="translate(0.221863 0.000976562)"/>
</clipPath>
</defs>
</svg>
