<svg width="19" height="20" viewBox="0 0 19 20" fill="none" xmlns="http://www.w3.org/2000/svg">
<g id="Frame 443">
<path id="Vector" d="M16.2995 19.2161H2.03328C1.05248 19.2161 0.25 18.4136 0.25 17.4328V8.1152C0.25 7.53564 0.517492 7.00065 1.00789 6.644L9.1664 0.9375L17.3249 6.644C17.8153 6.95607 18.0828 7.53564 18.0828 8.1152V17.4328C18.0828 18.4136 17.2803 19.2161 16.2995 19.2161Z" fill="#1A473F"/>
<path id="Vector_2" d="M4.70801 1.38281H13.6244V15.2032H4.70801V1.38281Z" fill="#EAFAF6"/>
<path id="Vector_3" d="M4.26245 0.9375V15.6496H14.0705V0.9375H4.26245ZM13.1789 14.7579H5.15409V1.82914H13.1789V14.7579Z" fill="#28A487"/>
<path id="Vector_4" d="M13.6244 2.27445C13.6244 3.03235 13.4907 3.61191 12.7328 3.61191C11.9749 3.61191 11.3953 3.03235 11.3953 2.27445C11.3953 1.51656 11.9749 1.38281 12.7328 1.38281C13.4907 1.38281 13.6244 1.51656 13.6244 2.27445ZM5.59965 1.38281C6.35754 1.38281 6.93711 1.51656 6.93711 2.27445C6.93711 3.03235 6.35754 3.61191 5.59965 3.61191C4.84175 3.61191 4.70801 3.03235 4.70801 2.27445C4.70801 1.51656 4.84175 1.38281 5.59965 1.38281Z" fill="#28A487"/>
<path id="Vector_5" d="M8.2749 4.50883C8.2749 4.74531 8.36884 4.9721 8.53606 5.13931C8.70327 5.30653 8.93006 5.40047 9.16654 5.40047C9.40302 5.40047 9.62981 5.30653 9.79703 5.13931C9.96424 4.9721 10.0582 4.74531 10.0582 4.50883C10.0582 4.27235 9.96424 4.04556 9.79703 3.87834C9.62981 3.71113 9.40302 3.61719 9.16654 3.61719C8.93006 3.61719 8.70327 3.71113 8.53606 3.87834C8.36884 4.04556 8.2749 4.27235 8.2749 4.50883Z" fill="#28A487"/>
<path id="Vector_6" d="M6.4917 9.85461C6.4917 10.564 6.77352 11.2444 7.27517 11.7461C7.77681 12.2477 8.45719 12.5295 9.16662 12.5295C9.87605 12.5295 10.5564 12.2477 11.0581 11.7461C11.5597 11.2444 11.8415 10.564 11.8415 9.85461C11.8415 9.14518 11.5597 8.4648 11.0581 7.96315C10.5564 7.46151 9.87605 7.17969 9.16662 7.17969C8.45719 7.17969 7.77681 7.46151 7.27517 7.96315C6.77352 8.4648 6.4917 9.14518 6.4917 9.85461Z" fill="#FE5E02"/>
<path id="Vector_7" d="M16.2995 19.2153H2.03328C1.05248 19.2153 0.25 18.4128 0.25 17.432V8.51562L9.1664 14.3113L18.0828 8.51562V17.432C18.0828 18.4128 17.2803 19.2153 16.2995 19.2153Z" fill="#ADEBDD"/>
</g>
</svg>
