<svg width="14" height="14" viewBox="0 0 14 14" fill="none" xmlns="http://www.w3.org/2000/svg">
<g id="heart-svgrepo-com 1" clip-path="url(#clip0_6862_14918)">
<path id="Vector" d="M12.9788 2.03684C12.282 1.2498 11.3188 0.816406 10.2667 0.816406C9.44021 0.816406 8.66707 1.15271 8.03086 1.78891C7.60643 2.21337 7.25621 2.75305 7.00003 3.37296C6.74379 2.75305 6.39363 2.2134 5.9692 1.78891C5.33299 1.15271 4.55984 0.816406 3.73338 0.816406C2.68127 0.816406 1.71809 1.24983 1.02121 2.03687C0.372203 2.76971 0 3.77065 0 4.78305C0 5.9987 0.367828 7.19846 1.09323 8.34917C1.6677 9.26038 2.46662 10.1425 3.4679 10.9711C5.16447 12.3752 6.8343 13.1312 6.90454 13.1626C6.96478 13.1896 7.03522 13.1896 7.09543 13.1626C7.1657 13.1312 8.8355 12.3752 10.5321 10.9711C11.5333 10.1425 12.3323 9.26038 12.9067 8.34917C13.6322 7.19846 14 5.9987 14 4.78305C14 3.77065 13.6278 2.76971 12.9788 2.03684Z" fill="#1F92D0"/>
<path id="Vector_2" d="M4.40122 10.9711C3.39995 10.1425 2.60102 9.26035 2.02655 8.34914C1.30115 7.19844 0.933324 5.99865 0.933324 4.78303C0.933324 3.77062 1.30553 2.76968 1.95448 2.03681C2.54073 1.37474 3.31551 0.962996 4.17309 0.848918C4.02856 0.827426 3.8818 0.816406 3.73335 0.816406C2.68125 0.816406 1.71806 1.24983 1.02118 2.03687C0.372203 2.76968 0 3.77062 0 4.78303C0 5.99868 0.367828 7.19844 1.09323 8.34914C1.6677 9.26035 2.46663 10.1425 3.4679 10.9711C5.16447 12.3752 6.8343 13.1311 6.90454 13.1626C6.96478 13.1896 7.03522 13.1896 7.09543 13.1626C7.11427 13.1542 7.24817 13.0936 7.46668 12.9825C6.87023 12.6792 5.64296 11.9987 4.40122 10.9711Z" fill="#1A7DB2"/>
<g id="line">
<path id="Vector_3" d="M2.33447 7.09256H4.12861L5.19533 5.68633L6.21364 8.30472L7.32897 5.25L8.37139 8.59561L9.55944 7.09256H12.0567" stroke="white" stroke-linecap="round" stroke-linejoin="round"/>
</g>
</g>
<defs>
<clipPath id="clip0_6862_14918">
<rect width="14" height="14" fill="white"/>
</clipPath>
</defs>
</svg>
