<svg width="28" height="28" viewBox="0 0 28 28" fill="none" xmlns="http://www.w3.org/2000/svg">
<g id="hospital-svgrepo-com (1) 1">
<path id="Vector" d="M26.4198 11.3809H8.15099C7.71606 11.3809 7.36349 11.7334 7.36349 12.1684V16.5514H1.8627C1.42777 16.5514 1.0752 16.904 1.0752 17.3389V26.3931C1.0752 26.828 1.42777 27.1806 1.8627 27.1806H26.4199C26.8548 27.1806 27.2074 26.828 27.2074 26.3931V12.1684C27.2073 11.7334 26.8547 11.3809 26.4198 11.3809Z" fill="#FFBF99"/>
<path id="Vector_2" d="M27.2746 10.3359H11.7414C11.637 10.3359 11.5368 10.3774 11.463 10.4513C11.3891 10.5251 11.3477 10.6253 11.3477 10.7297V11.6588C11.3477 11.7822 11.3967 11.9005 11.4839 11.9877C11.5711 12.0749 11.6894 12.1239 11.8128 12.1239H27.2033C27.3267 12.1239 27.445 12.0749 27.5322 11.9877C27.6194 11.9005 27.6684 11.7822 27.6684 11.6588V10.7297C27.6684 10.6253 27.6269 10.5251 27.5531 10.4513C27.4792 10.3774 27.3791 10.3359 27.2746 10.3359Z" fill="#680031"/>
<path id="Vector_3" d="M1.00898 15.3086H16.5423C16.6467 15.3086 16.7468 15.3501 16.8207 15.4239C16.8945 15.4978 16.936 15.5979 16.936 15.7023V16.6315C16.936 16.7548 16.887 16.8731 16.7998 16.9604C16.7126 17.0476 16.5942 17.0966 16.4709 17.0966H1.08035C0.956995 17.0966 0.83869 17.0476 0.751464 16.9604C0.664238 16.8731 0.615234 16.7548 0.615234 16.6315V15.7023C0.615234 15.5979 0.656719 15.4978 0.730561 15.4239C0.804404 15.3501 0.904555 15.3086 1.00898 15.3086Z" fill="#680031"/>
<path id="Vector_4" d="M17.3038 1.64062H3.20998C2.98237 1.64062 2.79785 1.85905 2.79785 2.12844V26.6917C2.79785 26.9611 2.98237 27.1795 3.20998 27.1795H17.3038C17.5314 27.1795 17.7159 26.9611 17.7159 26.6917V2.12844C17.7159 1.85905 17.5314 1.64062 17.3038 1.64062Z" fill="#1F92D0"/>
<path id="Vector_5" d="M12.8472 6.21H11.0348V4.39766C11.0348 4.29323 10.9934 4.19308 10.9195 4.11923C10.8457 4.04539 10.7455 4.00391 10.6411 4.00391H9.87328C9.76885 4.00391 9.6687 4.04539 9.59486 4.11923C9.52102 4.19308 9.47953 4.29323 9.47953 4.39766V6.21H7.66719C7.56276 6.21 7.46261 6.25148 7.38876 6.32533C7.31492 6.39917 7.27344 6.49932 7.27344 6.60375V7.37156C7.27344 7.47599 7.31492 7.57614 7.38876 7.64999C7.46261 7.72383 7.56276 7.76531 7.66719 7.76531H9.47953V9.57766C9.47953 9.68209 9.52102 9.78224 9.59486 9.85608C9.6687 9.92992 9.76885 9.97141 9.87328 9.97141H10.6411C10.7455 9.97141 10.8457 9.92992 10.9195 9.85608C10.9934 9.78224 11.0348 9.68209 11.0348 9.57766V7.76531H12.8472C12.9516 7.76531 13.0518 7.72383 13.1256 7.64999C13.1995 7.57614 13.2409 7.47599 13.2409 7.37156V6.60375C13.2409 6.49932 13.1995 6.39917 13.1256 6.32533C13.0518 6.25148 12.9516 6.21 12.8472 6.21Z" fill="#FE5E02"/>
<path id="Vector_6" d="M25.3693 20.1459H19.5846C19.4801 20.1459 19.38 20.1044 19.3061 20.0305C19.2323 19.9567 19.1908 19.8565 19.1908 19.7521V17.4318C19.1908 17.3273 19.2323 17.2272 19.3061 17.1533C19.38 17.0795 19.4801 17.038 19.5846 17.038H25.3693C25.4738 17.038 25.5739 17.0795 25.6478 17.1533C25.7216 17.2272 25.7631 17.3273 25.7631 17.4318V19.7521C25.7631 19.8565 25.7216 19.9567 25.6477 20.0305C25.5739 20.1044 25.4737 20.1459 25.3693 20.1459ZM25.8308 24.6285V22.3081C25.8308 22.2037 25.7893 22.1036 25.7155 22.0297C25.6416 21.9559 25.5415 21.9144 25.437 21.9144H19.5168C19.4124 21.9144 19.3122 21.9559 19.2384 22.0297C19.1645 22.1036 19.123 22.2037 19.123 22.3081V24.6285C19.123 24.7329 19.1645 24.8331 19.2384 24.9069C19.3122 24.9807 19.4124 25.0222 19.5168 25.0222H25.437C25.5415 25.0222 25.6416 24.9807 25.7155 24.9069C25.7893 24.8331 25.8308 24.7329 25.8308 24.6285ZM25.8308 14.7207V13.9543C25.8308 13.8499 25.7893 13.7497 25.7155 13.6759C25.6416 13.602 25.5415 13.5605 25.437 13.5605H19.5168C19.4124 13.5605 19.3122 13.602 19.2384 13.6759C19.1645 13.7497 19.123 13.8499 19.123 13.9543V14.7207C19.123 14.8252 19.1645 14.9253 19.2384 14.9992C19.3122 15.073 19.4124 15.1145 19.5168 15.1145H25.437C25.5415 15.1145 25.6416 15.073 25.7155 14.9992C25.7893 14.9253 25.8308 14.8252 25.8308 14.7207Z" fill="white"/>
<path id="Vector_7" d="M5.51465 23.0293H14.9989V27.1798H5.51465V23.0293Z" fill="#2B3B47"/>
<path id="Vector_8" d="M11.2458 20.1454H9.29293C9.1885 20.1454 9.08835 20.1039 9.01451 20.03C8.94066 19.9562 8.89918 19.856 8.89918 19.7516V17.2982C8.89918 17.1937 8.94066 17.0936 9.01451 17.0197C9.08835 16.9459 9.1885 16.9044 9.29293 16.9044H11.2458C11.3503 16.9044 11.4504 16.9459 11.5242 17.0197C11.5981 17.0936 11.6396 17.1937 11.6396 17.2982V19.7516C11.6396 19.856 11.5981 19.9562 11.5242 20.03C11.4504 20.1039 11.3503 20.1454 11.2458 20.1454ZM15.9031 19.7516V17.2982C15.9031 17.1937 15.8616 17.0936 15.7877 17.0197C15.7139 16.9459 15.6137 16.9044 15.5093 16.9044H13.5564C13.452 16.9044 13.3518 16.9459 13.278 17.0197C13.2042 17.0936 13.1627 17.1937 13.1627 17.2982V19.7516C13.1627 19.856 13.2042 19.9562 13.278 20.03C13.3518 20.1039 13.452 20.1454 13.5564 20.1454H15.5093C15.6137 20.1454 15.7139 20.1039 15.7877 20.03C15.8616 19.9562 15.9031 19.856 15.9031 19.7516ZM7.37613 19.7516V17.2982C7.37613 17.1937 7.33465 17.0936 7.26081 17.0197C7.18696 16.9459 7.08681 16.9044 6.98238 16.9044H5.02949C4.92506 16.9044 4.82491 16.9459 4.75107 17.0197C4.67723 17.0936 4.63574 17.1937 4.63574 17.2982V19.7516C4.63574 19.856 4.67723 19.9562 4.75107 20.03C4.82491 20.1039 4.92506 20.1454 5.02949 20.1454H6.98238C7.08681 20.1454 7.18696 20.1039 7.26081 20.03C7.33465 19.9562 7.37613 19.856 7.37613 19.7516ZM6.29474 14.7202V12.2668C6.29474 12.2151 6.28456 12.1639 6.26477 12.1161C6.24498 12.0683 6.21598 12.0249 6.17942 11.9884C6.14285 11.9518 6.09945 11.9228 6.05167 11.903C6.0039 11.8832 5.9527 11.873 5.90099 11.873H5.02949C4.97778 11.873 4.92658 11.8832 4.87881 11.903C4.83104 11.9228 4.78763 11.9518 4.75107 11.9884C4.71451 12.0249 4.6855 12.0683 4.66571 12.1161C4.64593 12.1639 4.63574 12.2151 4.63574 12.2668V14.7202C4.63574 14.772 4.64593 14.8232 4.66571 14.8709C4.6855 14.9187 4.71451 14.9621 4.75107 14.9987C4.78763 15.0352 4.83104 15.0642 4.87881 15.084C4.92658 15.1038 4.97778 15.114 5.02949 15.114H5.90099C6.00542 15.114 6.10557 15.0725 6.17942 14.9987C6.25326 14.9248 6.29474 14.8247 6.29474 14.7202ZM9.49752 14.7202V12.2668C9.49752 12.1624 9.45603 12.0622 9.38219 11.9884C9.30835 11.9145 9.2082 11.873 9.10377 11.873H8.23227C8.12784 11.873 8.02768 11.9145 7.95384 11.9884C7.88 12.0622 7.83852 12.1624 7.83852 12.2668V14.7202C7.83852 14.8247 7.88 14.9248 7.95384 14.9987C8.02768 15.0725 8.12784 15.114 8.23227 15.114H9.10377C9.2082 15.114 9.30835 15.0725 9.38219 14.9987C9.45603 14.9248 9.49752 14.8247 9.49752 14.7202ZM12.7003 14.7202V12.2668C12.7003 12.1624 12.6588 12.0622 12.585 11.9884C12.5111 11.9145 12.411 11.873 12.3065 11.873H11.435C11.3306 11.873 11.2305 11.9145 11.1566 11.9884C11.0828 12.0622 11.0413 12.1624 11.0413 12.2668V14.7202C11.0413 14.8247 11.0828 14.9248 11.1566 14.9987C11.2305 15.0725 11.3306 15.114 11.435 15.114H12.3065C12.411 15.114 12.5111 15.0725 12.585 14.9987C12.6588 14.9248 12.7003 14.8247 12.7003 14.7202ZM15.9031 14.7202V12.2668C15.9031 12.1624 15.8616 12.0622 15.7877 11.9884C15.7139 11.9145 15.6137 11.873 15.5093 11.873H14.6378C14.5334 11.873 14.4332 11.9145 14.3594 11.9884C14.2855 12.0622 14.2441 12.1624 14.2441 12.2668V14.7202C14.2441 14.8247 14.2855 14.9248 14.3594 14.9987C14.4332 15.0725 14.5334 15.114 14.6378 15.114H15.5093C15.6137 15.114 15.7139 15.0725 15.7877 14.9987C15.8616 14.9248 15.9031 14.8247 15.9031 14.7202Z" fill="white"/>
<path id="Vector_9" d="M14.9989 23.4669H5.51465V23.0174C5.51465 22.7198 5.75593 22.4785 6.05354 22.4785H14.46C14.7576 22.4785 14.9989 22.7198 14.9989 23.0174L14.9989 23.4669Z" fill="#67747C"/>
<path id="Vector_10" d="M18.0364 1.09766H2.50312C2.3987 1.09766 2.29854 1.13914 2.2247 1.21298C2.15086 1.28683 2.10937 1.38698 2.10938 1.49141V2.42055C2.10938 2.5439 2.15838 2.66221 2.2456 2.74943C2.33283 2.83666 2.45114 2.88566 2.57449 2.88566H17.965C18.0884 2.88566 18.2067 2.83666 18.2939 2.74943C18.3811 2.66221 18.4301 2.5439 18.4301 2.42055V1.49141C18.4301 1.38698 18.3887 1.28683 18.3148 1.21298C18.241 1.13914 18.1408 1.09766 18.0364 1.09766Z" fill="#680031"/>
</g>
</svg>
