<svg width="77" height="64" viewBox="0 0 77 64" fill="none" xmlns="http://www.w3.org/2000/svg">
<g clip-path="url(#clip0_6928_25876)">
<path d="M66.9761 4.92315L71.5442 17.7695C71.8908 18.7463 72.4385 19.6394 73.1521 20.3911C73.8656 21.1427 74.729 21.7362 75.6865 22.1331C76.6439 22.53 77.6739 22.7214 78.71 22.695C79.7461 22.6686 80.7651 22.425 81.701 21.9798L94.015 16.1262C100.307 13.135 106.872 19.6992 103.88 25.9916L98.0242 38.3013C97.5796 39.237 97.3363 40.2557 97.3101 41.2913C97.2839 42.327 97.4753 43.3566 97.872 44.3137C98.2686 45.2707 98.8617 46.1339 99.6129 46.8473C100.364 47.5608 101.257 48.1087 102.233 48.4556L115.079 53.0237C121.639 55.358 121.639 64.6416 115.079 66.9759L102.233 71.544C101.256 71.8907 100.363 72.4386 99.6118 73.1522C98.8603 73.8659 98.267 74.7293 97.8703 75.6867C97.4736 76.6441 97.2823 77.6741 97.3088 78.7101C97.3353 79.7461 97.579 80.765 98.0242 81.7008L103.878 94.0148C106.869 100.307 100.305 106.871 94.0124 103.88L81.701 98.024C80.7652 97.5788 79.7463 97.3351 78.7103 97.3086C77.6743 97.2821 76.6443 97.4734 75.6869 97.8701C74.7295 98.2668 73.8661 98.8601 73.1525 99.6115C72.4388 100.363 71.8909 101.256 71.5442 102.233L66.9761 115.079C64.6418 121.639 55.3582 121.639 53.0239 115.079L48.4558 102.233C48.1086 101.257 47.5606 100.364 46.847 99.6134C46.1334 98.8625 45.2702 98.2697 44.3132 97.8733C43.3562 97.4769 42.3266 97.2857 41.2911 97.3121C40.2556 97.3385 39.2371 97.5819 38.3015 98.0265L25.9842 103.878C19.6917 106.869 13.1276 100.305 16.1187 94.0122L21.9801 81.7008C22.4248 80.7652 22.6683 79.7468 22.6948 78.7112C22.7212 77.6756 22.5301 76.646 22.1337 75.689C21.7372 74.7319 21.1444 73.8687 20.3934 73.1551C19.6424 72.4416 18.7501 71.8936 17.774 71.5465L4.92337 66.9759C-1.63657 64.6416 -1.63657 55.358 4.92337 53.0237L17.7698 48.4556C18.7461 48.1089 19.6388 47.5611 20.3902 46.8477C21.1415 46.1343 21.7348 45.2712 22.1316 44.3141C22.5285 43.3571 22.72 42.3274 22.6939 41.2916C22.6678 40.2559 22.4246 39.2371 21.9801 38.3013L16.1221 25.9839C13.131 19.6915 19.6952 13.1273 25.9876 16.1185L38.3015 21.9798C39.2371 22.4245 40.2556 22.6679 41.2911 22.6943C42.3266 22.7206 43.3562 22.5295 44.3132 22.133C45.2702 21.7366 46.1334 21.1438 46.847 20.3929C47.5606 19.642 48.1086 18.7498 48.4558 17.7738L53.0239 4.92315C55.3582 -1.64105 64.6418 -1.64105 66.9761 4.92315Z" fill="#A6D7F2"/>
<path d="M65.7997 14.2064L69.5976 24.8872C69.8863 25.6983 70.3419 26.4399 70.935 27.064C71.5281 27.6882 72.2455 28.1809 73.0409 28.5105C73.8363 28.8401 74.692 28.9991 75.5527 28.9774C76.4134 28.9557 77.26 28.7537 78.0378 28.3844L88.2764 23.5181C93.5073 21.0313 98.9648 26.4888 96.478 31.7198L91.6117 41.9584C91.2419 42.7362 91.0394 43.583 91.0174 44.4439C90.9954 45.3049 91.1544 46.1609 91.484 46.9566C91.8136 47.7523 92.3066 48.4699 92.931 49.0631C93.5554 49.6563 94.2974 50.1118 95.109 50.4002L105.789 54.199C111.246 56.1398 111.246 63.8575 105.789 65.7982L95.109 69.5961C94.2974 69.8847 93.5554 70.3403 92.931 70.9335C92.3066 71.5268 91.8136 72.2445 91.484 73.0403C91.1544 73.836 90.9954 74.6921 91.0174 75.5531C91.0394 76.4142 91.2419 77.261 91.6117 78.0389L96.478 88.2775C98.9648 93.5084 93.5073 98.9659 88.2764 96.4791L78.0378 91.6128C77.2599 91.243 76.4131 91.0405 75.552 91.0185C74.691 90.9965 73.8349 91.1555 73.0392 91.4851C72.2434 91.8147 71.5257 92.3077 70.9324 92.9321C70.3392 93.5565 69.8836 94.2985 69.5951 95.1101L65.7971 105.79C63.8564 111.247 56.1387 111.247 54.1979 105.79L50.3991 95.1101C50.1107 94.2985 49.6552 93.5565 49.062 92.9321C48.4688 92.3077 47.7512 91.8147 46.9555 91.4851C46.1598 91.1555 45.3038 90.9965 44.4428 91.0185C43.5819 91.0405 42.7351 91.243 41.9573 91.6128L31.7187 96.4791C26.4878 98.9659 21.0302 93.5084 23.517 88.2775L28.3859 78.0363C28.7556 77.2584 28.9579 76.4116 28.9799 75.5506C29.0018 74.6896 28.8429 73.8336 28.5132 73.0379C28.1836 72.2422 27.6907 71.5245 27.0664 70.9312C26.442 70.3379 25.7001 69.8822 24.8887 69.5936L14.2079 65.7982C8.75036 63.8575 8.75036 56.1398 14.2079 54.199L24.8887 50.4002C25.7001 50.1117 26.442 49.6561 27.0663 49.0629C27.6907 48.4697 28.1836 47.7521 28.5132 46.9565C28.8428 46.1608 29.0018 45.3048 28.9799 44.4439C28.9579 43.583 28.7556 42.7362 28.3859 41.9584L23.5196 31.7198C21.0328 26.4888 26.4903 21.0313 31.7212 23.5181L41.9598 28.3844C42.7377 28.7541 43.5844 28.9565 44.4454 28.9784C45.3063 29.0003 46.1623 28.8414 46.9579 28.5117C47.7536 28.1821 48.4712 27.6892 49.0644 27.0649C49.6576 26.4405 50.1132 25.6987 50.4017 24.8872L54.2005 14.2064C56.1429 8.7489 63.8589 8.7489 65.7997 14.2064Z" fill="#E9F5FC"/>
<path d="M64.8633 21.5937L68.0487 30.5518C68.2911 31.2322 68.6736 31.854 69.1714 32.3773C69.6692 32.9006 70.2712 33.3136 70.9386 33.5896C71.606 33.8656 72.3239 33.9986 73.0459 33.9798C73.7678 33.9611 74.4779 33.7911 75.13 33.4808L83.7167 29.3992C88.1042 27.3136 92.6817 31.8911 90.5961 36.2786L86.5145 44.8653C86.2043 45.5176 86.0344 46.2278 86.0159 46.9499C85.9974 47.6719 86.1307 48.3899 86.407 49.0572C86.6834 49.7246 87.0968 50.3265 87.6204 50.8241C88.1441 51.3216 88.7663 51.7038 89.4469 51.9457L98.405 55.132C102.982 56.7592 102.982 63.2323 98.405 64.8603L89.4469 68.0457C88.7663 68.2878 88.144 68.67 87.6204 69.1676C87.0967 69.6653 86.6834 70.2673 86.407 70.9347C86.1306 71.6021 85.9974 72.3201 86.0159 73.0423C86.0344 73.7644 86.2043 74.4747 86.5145 75.127L90.5961 83.7137C92.6817 88.1012 88.1042 92.6787 83.7167 90.5931L75.13 86.5115C74.4776 86.2013 73.7674 86.0314 73.0453 86.0129C72.3231 85.9944 71.6051 86.1276 70.9377 86.404C70.2703 86.6804 69.6683 87.0938 69.1706 87.6174C68.673 88.141 68.2908 88.7633 68.0487 89.4439L64.8633 98.402C63.2352 102.98 56.7622 102.98 55.135 98.402L51.9487 89.4439C51.7068 88.7633 51.3246 88.1411 50.8271 87.6174C50.3295 87.0938 49.7276 86.6804 49.0602 86.4041C48.3929 86.1277 47.6749 85.9944 46.9528 86.0129C46.2307 86.0314 45.5206 86.2013 44.8683 86.5115L36.2816 90.5931C31.8941 92.6787 27.3166 88.1012 29.4021 83.7137L33.4804 75.1304C33.7906 74.4781 33.9605 73.7678 33.979 73.0457C33.9975 72.3235 33.8643 71.6055 33.5879 70.9381C33.3115 70.2707 32.8981 69.6687 32.3745 69.1711C31.8509 68.6734 31.2286 68.2912 30.548 68.0491L21.5933 64.8637C17.0158 63.2357 17.0158 56.7626 21.5933 55.1354L30.5514 51.9492C31.2317 51.7068 31.8536 51.3244 32.3768 50.8267C32.9001 50.329 33.3131 49.727 33.5891 49.0597C33.8652 48.3924 33.9981 47.6746 33.9794 46.9527C33.9607 46.2307 33.7907 45.5208 33.4804 44.8687L29.4021 36.282C27.3166 31.8945 31.8941 27.317 36.2816 29.4026L44.8683 33.4808C45.5206 33.791 46.2307 33.9609 46.9528 33.9794C47.6749 33.9979 48.3929 33.8646 49.0602 33.5883C49.7276 33.3119 50.3295 32.8985 50.8271 32.3749C51.3246 31.8512 51.7068 31.229 51.9487 30.5484L55.135 21.5903C56.7622 17.0162 63.2352 17.0162 64.8633 21.5937Z" fill="#A6D7F2"/>
<path d="M63.8952 29.2487L66.4459 36.4212C66.6397 36.9661 66.9457 37.4643 67.3442 37.8836C67.7426 38.3028 68.2246 38.6338 68.7589 38.8551C69.2933 39.0764 69.8682 39.1831 70.4464 39.1683C71.0246 39.1535 71.5932 39.0175 72.1156 38.7691L78.9907 35.5011C82.5041 33.8313 86.1692 37.4963 84.4985 41.0097L81.2305 47.8849C80.9822 48.407 80.8461 48.9754 80.8312 49.5534C80.8162 50.1314 80.9226 50.7061 81.1436 51.2404C81.3645 51.7747 81.6951 52.2567 82.1139 52.6553C82.5327 53.0539 83.0304 53.3603 83.575 53.5545L90.7475 56.1052C94.4108 57.4079 94.4108 62.5911 90.7475 63.8945L83.575 66.4452C83.0301 66.6391 82.5319 66.9451 82.1126 67.3435C81.6933 67.7419 81.3623 68.2239 81.1409 68.7582C80.9196 69.2926 80.8128 69.8674 80.8275 70.4456C80.8421 71.0238 80.978 71.5925 81.2262 72.1149L84.4942 78.99C86.1649 82.5034 82.4999 86.1685 78.9865 84.4978L72.1113 81.2298C71.5893 80.9821 71.0211 80.8466 70.4435 80.8319C69.8658 80.8173 69.2915 80.924 68.7576 81.1449C68.2237 81.3659 67.7421 81.6964 67.3438 82.115C66.9454 82.5336 66.6393 83.031 66.445 83.5752L63.8952 90.7511C62.5917 94.4144 57.4085 94.4144 56.1059 90.7511L53.5543 83.5752C53.3605 83.0303 53.0545 82.532 52.6561 82.1128C52.2577 81.6935 51.7757 81.3625 51.2414 81.1411C50.707 80.9198 50.1322 80.813 49.554 80.8276C48.9758 80.8423 48.4071 80.9782 47.8847 81.2264L41.0095 84.4944C37.4961 86.1651 33.8311 82.5 35.5009 78.9866L38.7689 72.1115C39.0173 71.5891 39.1533 71.0205 39.1681 70.4423C39.1829 69.8641 39.0762 69.2892 38.8549 68.7549C38.6336 68.2205 38.3026 67.7385 37.8834 67.3401C37.4641 66.9417 36.9659 66.6356 36.421 66.4418L29.2485 63.8954C25.5851 62.5919 25.5851 57.4087 29.2485 56.1061L36.421 53.5554C36.9659 53.3616 37.4641 53.0556 37.8834 52.6571C38.3026 52.2587 38.6336 51.7767 38.8549 51.2423C39.0762 50.708 39.1829 50.1331 39.1681 49.5549C39.1533 48.9767 39.0173 48.4081 38.7689 47.8857L35.5009 41.0106C33.8311 37.4972 37.4961 33.8321 41.0095 35.5019L47.8847 38.77C48.407 39.0183 48.9757 39.1543 49.5539 39.1691C50.132 39.1839 50.7069 39.0772 51.2413 38.8559C51.7757 38.6346 52.2576 38.3037 52.6561 37.8844C53.0545 37.4652 53.3605 36.967 53.5543 36.422L56.105 29.2495C57.4077 25.5836 62.5909 25.5836 63.8952 29.2487Z" fill="#E9F5FC"/>
<path d="M63.2482 34.3513L65.3781 40.3336C65.5396 40.7881 65.7948 41.2037 66.127 41.5534C66.4592 41.9032 66.8612 42.1793 67.3068 42.364C67.7524 42.5487 68.2319 42.6378 68.7141 42.6256C69.1963 42.6133 69.6706 42.5001 70.1063 42.2931L75.8407 39.5668C78.7706 38.1739 81.8273 41.2307 80.4344 44.1614L77.7082 49.8958C77.501 50.3315 77.3877 50.8058 77.3754 51.2881C77.3631 51.7703 77.4522 52.2498 77.6369 52.6955C77.8216 53.1411 78.0978 53.5431 78.4476 53.8753C78.7974 54.2075 79.213 54.4626 79.6677 54.624L85.65 56.7539C88.7067 57.841 88.7067 62.1637 85.65 63.2508L79.6677 65.3806C79.213 65.5421 78.7974 65.7971 78.4476 66.1294C78.0978 66.4616 77.8216 66.8635 77.6369 67.3092C77.4522 67.7549 77.3631 68.2343 77.3754 68.7166C77.3877 69.1989 77.501 69.6732 77.7082 70.1089L80.4344 75.8433C81.8273 78.7731 78.7706 81.8299 75.8407 80.437L70.1063 77.7108C69.6707 77.5036 69.1963 77.3902 68.7141 77.3779C68.2318 77.3657 67.7523 77.4547 67.3066 77.6394C66.861 77.8241 66.459 78.1003 66.1268 78.4501C65.7946 78.7999 65.5395 79.2156 65.3781 79.6702L63.2482 85.6525C62.1611 88.7093 57.8384 88.7093 56.7513 85.6525L54.6215 79.6702C54.46 79.2156 54.205 78.7999 53.8727 78.4501C53.5405 78.1003 53.1386 77.8241 52.6929 77.6394C52.2473 77.4547 51.7678 77.3657 51.2855 77.3779C50.8032 77.3902 50.3289 77.5036 49.8932 77.7108L44.1588 80.437C41.2281 81.8299 38.1714 78.7731 39.5643 75.8433L42.2905 70.1089C42.4975 69.6732 42.6108 69.1989 42.623 68.7166C42.6352 68.2344 42.5461 67.755 42.3614 67.3093C42.1768 66.8637 41.9006 66.4618 41.5509 66.1296C41.2011 65.7973 40.7856 65.5422 40.331 65.3806L34.3487 63.2508C31.292 62.1637 31.292 57.841 34.3487 56.7539L40.331 54.624C40.7856 54.4625 41.2011 54.2073 41.5509 53.8751C41.9006 53.5429 42.1768 53.1409 42.3614 52.6953C42.5461 52.2497 42.6352 51.7702 42.623 51.288C42.6108 50.8058 42.4975 50.3315 42.2905 49.8958L39.5643 44.1614C38.1739 41.2332 41.2341 38.1731 44.1614 39.566L49.8958 42.2922C50.3315 42.4992 50.8058 42.6125 51.288 42.6247C51.7703 42.6369 52.2497 42.5478 52.6953 42.3631C53.141 42.1785 53.5429 41.9023 53.8751 41.5526C54.2073 41.2028 54.4625 40.7873 54.624 40.3327L56.7539 34.3504C57.8384 31.2945 62.1611 31.2945 63.2482 34.3513Z" fill="#A6D7F2"/>
<path d="M63.2482 34.3513L65.3781 40.3336C65.5396 40.7881 65.7948 41.2037 66.127 41.5534C66.4592 41.9032 66.8612 42.1793 67.3068 42.364C67.7524 42.5487 68.2319 42.6378 68.7141 42.6256C69.1963 42.6133 69.6706 42.5001 70.1063 42.2931L75.8407 39.5668C78.7706 38.1739 81.8273 41.2307 80.4344 44.1614L77.7082 49.8958C77.501 50.3315 77.3877 50.8058 77.3754 51.2881C77.3631 51.7703 77.4522 52.2498 77.6369 52.6955C77.8216 53.1411 78.0978 53.5431 78.4476 53.8753C78.7974 54.2075 79.213 54.4626 79.6677 54.624L85.65 56.7539C88.7067 57.841 88.7067 62.1637 85.65 63.2508L79.6677 65.3806C79.213 65.5421 78.7974 65.7971 78.4476 66.1294C78.0978 66.4616 77.8216 66.8635 77.6369 67.3092C77.4522 67.7549 77.3631 68.2343 77.3754 68.7166C77.3877 69.1989 77.501 69.6732 77.7082 70.1089L80.4344 75.8433C81.8273 78.7731 78.7706 81.8299 75.8407 80.437L70.1063 77.7108C69.6707 77.5036 69.1963 77.3902 68.7141 77.3779C68.2318 77.3657 67.7523 77.4547 67.3066 77.6394C66.861 77.8241 66.459 78.1003 66.1268 78.4501C65.7946 78.7999 65.5395 79.2156 65.3781 79.6702L63.2482 85.6525C62.1611 88.7093 57.8384 88.7093 56.7513 85.6525L54.6215 79.6702C54.46 79.2156 54.205 78.7999 53.8727 78.4501C53.5405 78.1003 53.1386 77.8241 52.6929 77.6394C52.2473 77.4547 51.7678 77.3657 51.2855 77.3779C50.8032 77.3902 50.3289 77.5036 49.8932 77.7108L44.1588 80.437C41.2281 81.8299 38.1714 78.7731 39.5643 75.8433L42.2905 70.1089C42.4975 69.6732 42.6108 69.1989 42.623 68.7166C42.6352 68.2344 42.5461 67.755 42.3614 67.3093C42.1768 66.8637 41.9006 66.4618 41.5509 66.1296C41.2011 65.7973 40.7856 65.5422 40.331 65.3806L34.3487 63.2508C31.292 62.1637 31.292 57.841 34.3487 56.7539L40.331 54.624C40.7856 54.4625 41.2011 54.2073 41.5509 53.8751C41.9006 53.5429 42.1768 53.1409 42.3614 52.6953C42.5461 52.2497 42.6352 51.7702 42.623 51.288C42.6108 50.8058 42.4975 50.3315 42.2905 49.8958L39.5643 44.1614C38.1739 41.2332 41.2341 38.1731 44.1614 39.566L49.8958 42.2922C50.3315 42.4992 50.8058 42.6125 51.288 42.6247C51.7703 42.6369 52.2497 42.5478 52.6953 42.3631C53.141 42.1785 53.5429 41.9023 53.8751 41.5526C54.2073 41.2028 54.4625 40.7873 54.624 40.3327L56.7539 34.3504C57.8384 31.2945 62.1611 31.2945 63.2482 34.3513Z" fill="#A6D7F2"/>
<path d="M62.4265 40.8446L64.0154 45.3121C64.1361 45.6516 64.3266 45.9619 64.5748 46.2231C64.8229 46.4843 65.1231 46.6905 65.4559 46.8283C65.7888 46.9662 66.1468 47.0327 66.507 47.0235C66.8671 47.0143 67.2213 46.9296 67.5467 46.7749L71.8285 44.7396C74.0163 43.6994 76.2995 45.9818 75.2593 48.1704L73.224 52.4523C73.0693 52.7776 72.9846 53.1318 72.9754 53.492C72.9662 53.8521 73.0327 54.2102 73.1706 54.543C73.3085 54.8758 73.5146 55.176 73.7758 55.4242C74.037 55.6723 74.3473 55.8629 74.6868 55.9835L79.1535 57.5724C81.4367 58.3843 81.4367 61.6123 79.1535 62.4285L74.6868 64.0131C74.3473 64.1337 74.037 64.3243 73.7758 64.5725C73.5146 64.8206 73.3085 65.1208 73.1706 65.4536C73.0327 65.7865 72.9662 66.1445 72.9754 66.5047C72.9846 66.8648 73.0693 67.219 73.224 67.5444L75.2593 71.8262C76.2995 74.014 74.0163 76.2972 71.8285 75.257L67.5467 73.2217C67.2213 73.067 66.8671 72.9823 66.507 72.9731C66.1468 72.9639 65.7888 73.0304 65.4559 73.1683C65.1231 73.3061 64.8229 73.5123 64.5748 73.7735C64.3266 74.0347 64.1361 74.345 64.0154 74.6845L62.4265 79.1512C61.6146 81.4344 58.3866 81.4344 57.5705 79.1512L55.9816 74.6845C55.8609 74.345 55.6703 74.0347 55.4222 73.7735C55.1741 73.5123 54.8739 73.3061 54.541 73.1683C54.2082 73.0304 53.8501 72.9639 53.49 72.9731C53.1299 72.9823 52.7757 73.067 52.4503 73.2217L48.1685 75.257C45.9798 76.2972 43.6975 74.014 44.7377 71.8262L46.773 67.5444C46.9277 67.219 47.0123 66.8648 47.0215 66.5047C47.0307 66.1445 46.9643 65.7865 46.8264 65.4536C46.6885 65.1208 46.4823 64.8206 46.2212 64.5725C45.96 64.3243 45.6496 64.1337 45.3102 64.0131L40.8426 62.4242C38.5603 61.6123 38.5603 58.3843 40.8426 57.5681L45.3102 55.9793C45.6496 55.8586 45.96 55.668 46.2212 55.4199C46.4823 55.1718 46.6885 54.8716 46.8264 54.5387C46.9643 54.2059 47.0307 53.8478 47.0215 53.4877C47.0123 53.1276 46.9277 52.7734 46.773 52.448L44.7377 48.1661C43.7051 45.9818 45.9841 43.7028 48.1727 44.7396L52.4546 46.7749C52.7799 46.9296 53.1341 47.0143 53.4943 47.0235C53.8544 47.0327 54.2125 46.9662 54.5453 46.8283C54.8781 46.6905 55.1783 46.4843 55.4265 46.2231C55.6746 45.9619 55.8652 45.6516 55.9859 45.3121L57.5747 40.8446C58.3866 38.5622 61.6146 38.5622 62.4265 40.8446Z" fill="#E9F5FC"/>
</g>
<defs>
<clipPath id="clip0_6928_25876">
<rect width="120" height="120" fill="white"/>
</clipPath>
</defs>
</svg>
