<svg width="39" height="25" viewBox="0 0 39 25" fill="none"
    xmlns="http://www.w3.org/2000/svg">
    <g clip-path="url(#clip0_4585_238328)">
        <path d="M35.8163 14.2478C35.1781 14.7901 34.5028 15.1705 33.8121 15.3952C33.7193 15.4251 33.6265 15.453 33.5327 15.4777C32.078 15.8582 30.5707 15.5458 29.2211 14.5601C28.9294 14.3467 28.6448 14.1024 28.3695 13.8261C28.2798 13.7354 28.1901 13.6415 28.1025 13.5457L22.5249 7.39071C27.1427 4.5019 30.7037 4.44829 32.1089 4.58026C33.742 5.89888 35.0822 7.35463 36.1534 8.73511C37.3277 10.2486 37.1545 13.1116 35.8153 14.2488L35.8163 14.2478Z" fill="#449787"/>
        <path opacity="0.2" d="M21.9053 24.8294C30.2099 24.8294 36.9421 24.5382 36.9421 24.1789C36.9421 23.8196 30.2099 23.5283 21.9053 23.5283C13.6006 23.5283 6.86841 23.8196 6.86841 24.1789C6.86841 24.5382 13.6006 24.8294 21.9053 24.8294Z" fill="black"/>
        <path opacity="0.3" d="M33.5327 15.4777C32.0779 15.8582 30.5706 15.5458 29.2211 14.5602C28.9293 14.3468 28.6448 14.1024 28.3695 13.8261C29.4428 13.3941 30.6098 13.3601 31.6656 13.8189C31.679 13.8251 31.6934 13.8313 31.7058 13.8374C31.7058 13.8374 31.7089 13.8395 31.7099 13.8395C31.7109 13.8395 31.713 13.8416 31.714 13.8416C32.4883 14.1911 33.1027 14.7653 33.5327 15.4788V15.4777Z" fill="#1A473F"/>
        <path d="M20.6041 21.5605C20.6041 21.5605 20.5979 21.5605 20.5948 21.5605C20.5948 21.5605 20.601 21.5605 20.6041 21.5605Z" stroke="#232323" stroke-width="0.0195886" stroke-miterlimit="10"/>
        <path d="M38.1143 20.7796C36.4616 24.4746 31.1448 24.3715 31.1448 24.3715L30.4128 24.0478L30.6407 23.7498C29.7097 22.5034 27.9271 19.5774 29.1818 16.7721C29.7551 15.4896 30.9541 14.7277 32.0985 14.8102L32.1129 14.6689L32.8686 15.003C33.7367 15.3927 34.2553 16.2773 34.3172 17.2804C34.8378 16.8691 35.4523 16.6422 36.0595 16.6474L36.2441 16.5216C36.2441 16.5216 36.908 16.8144 36.9781 16.8464C37.0616 16.8845 37.142 16.9258 37.2194 16.9722H37.2204C38.3699 17.665 38.7751 19.3032 38.1153 20.7785L38.1143 20.7796Z" fill="#CE2521"/>
        <path d="M37.6927 18.7937L28.1468 19.7298C27.9314 18.6916 27.9509 17.5596 28.4489 16.4472C29.1489 14.8811 30.7841 14.0904 32.112 14.6688C32.1202 14.6719 32.1274 14.676 32.1357 14.6791C32.1357 14.6791 32.1377 14.6791 32.1388 14.6801C32.1388 14.6801 32.1398 14.6801 32.1408 14.6811C33.0058 15.0719 33.5224 15.9544 33.5842 16.9565C33.776 16.805 33.9811 16.6781 34.1935 16.5792C34.8534 16.2709 35.5884 16.2276 36.2452 16.5225C36.2462 16.5225 36.2483 16.5235 36.2493 16.5245C36.2534 16.5266 36.2565 16.5276 36.2606 16.5297C37.1184 16.9225 37.6318 17.7988 37.6937 18.7947L37.6927 18.7937Z" fill="#DB4642"/>
        <path d="M37.3915 20.4342C37.3884 20.4415 37.3854 20.4487 37.3823 20.4549C37.3792 20.4621 37.375 20.4703 37.372 20.4775C36.6451 22.0807 35.2265 22.9643 33.8584 23.4509C32.1016 24.0757 30.4293 24.0468 30.4139 24.0458C30.4139 24.0458 30.4097 24.0416 30.4015 24.0324C30.3932 24.0241 30.3819 24.0107 30.3675 23.9942C30.3675 23.9942 30.3664 23.9932 30.3654 23.9921C30.2273 23.8354 29.8097 23.3416 29.3643 22.6271C29.3272 22.5673 29.2901 22.5065 29.253 22.4446C29.1014 22.1921 28.9499 21.9158 28.8066 21.6199L28.5251 20.926L28.3591 20.5157C28.3334 20.4363 28.3086 20.3559 28.2849 20.2755C28.2333 20.0971 28.1869 19.9146 28.1488 19.7301L37.6946 18.7939C37.7276 19.3249 37.6328 19.8899 37.3936 20.4342H37.3915Z" fill="#F65E53"/>
        <path d="M30.1066 15.3991C30.0407 16.0559 29.454 16.5363 28.7973 16.4693C28.6839 16.458 28.5756 16.4311 28.4746 16.3909C28.819 15.6528 29.3726 15.0929 30.0015 14.7754C30.0891 14.963 30.1283 15.1775 30.1066 15.3981V15.3991Z" fill="#FF908D"/>
        <path d="M33.145 23.6735C33.4017 23.6044 33.6657 23.523 33.9296 23.4261C33.6368 23.4127 33.3615 23.5065 33.145 23.6735Z" fill="#FF908D"/>
        <path d="M32.2934 22.9883C32.3593 22.3305 31.8799 21.7449 31.2232 21.6789C30.5654 21.6129 29.9798 22.0923 29.9138 22.7501C29.853 23.3594 30.2603 23.9079 30.8448 24.0368C31.0335 24.0275 31.2758 24.0089 31.5572 23.9759C31.9531 23.8131 32.248 23.444 32.2944 22.9883H32.2934Z" fill="#FF908D"/>
        <path d="M29.5211 21.2356C29.5871 20.5779 29.1077 19.9923 28.451 19.9263C28.3623 19.917 28.2757 19.918 28.1912 19.9283C28.3809 20.7232 28.7015 21.4573 29.0417 22.079C29.3036 21.8851 29.4861 21.5862 29.5222 21.2356H29.5211Z" fill="#FF908D"/>
        <path d="M37.3534 19.3459C36.6956 19.2799 36.11 19.7593 36.044 20.4171C35.9946 20.9151 36.2575 21.3728 36.674 21.5935C36.9503 21.2615 37.1905 20.8841 37.3823 20.4563C37.5338 20.1161 37.6297 19.7676 37.673 19.4243C37.573 19.3841 37.4658 19.3573 37.3534 19.3469V19.3459Z" fill="#FF908D"/>
        <path d="M29.8139 18.318C29.7479 18.9747 29.1613 19.4541 28.5045 19.3881C28.3468 19.3727 28.1994 19.3263 28.0664 19.2562C27.9736 18.551 28.0014 17.8118 28.219 17.0726C28.3819 17.0138 28.5602 16.9901 28.7437 17.0076C29.4005 17.0736 29.8799 17.6602 29.8139 18.3169V18.318Z" fill="#F65E53"/>
        <path d="M35.6513 18.9035C35.6482 18.9344 35.6441 18.9653 35.6379 18.9963L33.3471 19.221C33.2801 19.0499 33.2512 18.8602 33.2708 18.6643C33.3368 18.0076 33.9234 17.5271 34.5801 17.5941C35.2369 17.6601 35.7163 18.2467 35.6503 18.9035H35.6513Z" fill="#F65E53"/>
        <path d="M35.639 18.9961C35.5297 19.6055 34.9678 20.0364 34.342 19.9735C33.8801 19.9271 33.5069 19.624 33.3481 19.2199L35.639 18.9951V18.9961Z" fill="#FF908D"/>
        <path d="M37.6926 18.794L37.505 18.8126C37.473 18.8126 37.44 18.8105 37.4081 18.8064C36.7513 18.7404 36.2709 18.1538 36.3379 17.4971C36.3668 17.2136 36.4915 16.9641 36.6771 16.7754C37.2843 17.229 37.6431 17.9703 37.6936 18.793L37.6926 18.794Z" fill="#F65E53"/>
        <path d="M37.6926 18.8012C37.6307 18.8104 37.5678 18.8135 37.5039 18.8125L37.6915 18.7939C37.6915 18.7939 37.6915 18.7981 37.6915 18.8012H37.6926Z" fill="#F65E53"/>
        <path d="M34.2883 20.5119C33.6305 20.4459 33.045 20.9254 32.979 21.5831C32.913 22.2409 33.3924 22.8265 34.0502 22.8925C34.7079 22.9584 35.2935 22.479 35.3595 21.8223C35.4255 21.1645 34.9461 20.5789 34.2893 20.513L34.2883 20.5119Z" fill="#FF908D"/>
        <path d="M35.8327 16.3841C35.6203 16.8243 35.1492 17.1068 34.6347 17.0552C34.3553 17.0274 34.1089 16.9058 33.9213 16.7243C34.5161 16.3686 35.1945 16.2356 35.8317 16.3841H35.8327Z" fill="#F65E53"/>
        <path d="M32.4089 19.3127L30.2799 19.5219C30.4686 19.0302 30.9676 18.7054 31.5161 18.7611C31.8975 18.7992 32.2192 19.0126 32.4089 19.3137V19.3127Z" fill="#F65E53"/>
        <path d="M32.5861 20.0693C32.5202 20.726 31.9335 21.2054 31.2768 21.1395C30.6201 21.0735 30.1406 20.4868 30.2066 19.8301C30.218 19.7219 30.2427 19.6177 30.2798 19.5208L32.4088 19.3115C32.5459 19.5291 32.615 19.793 32.5872 20.0683L32.5861 20.0693Z" fill="#FF908D"/>
        <path d="M32.7171 15.0559C32.4831 15.2384 32.181 15.3353 31.8625 15.3023C31.3841 15.2538 30.9995 14.9301 30.8511 14.5033C31.2851 14.4414 31.7253 14.494 32.1357 14.6775C32.3522 14.7744 32.546 14.9023 32.7171 15.0549V15.0559Z" fill="#FF908D"/>
        <path d="M32.879 17.1505C32.8131 17.8073 32.2264 18.2877 31.5697 18.2207C30.9119 18.1547 30.4325 17.5681 30.4985 16.9114C30.5645 16.2546 31.1511 15.7742 31.8078 15.8412C32.4656 15.9072 32.945 16.4938 32.878 17.1505H32.879Z" fill="#F65E53"/>
        <path d="M34.9379 20.6632L33.4182 19.9858C33.3481 19.9549 33.2986 19.8869 33.2894 19.8106L33.2522 19.4941C33.2522 19.4941 33.2512 19.4837 33.2409 19.4796C33.2306 19.4765 33.2254 19.4817 33.2234 19.4837L32.4172 20.2529C32.347 20.3199 32.247 20.3333 32.1625 20.2879C32.0769 20.2425 32.0326 20.1518 32.0491 20.057L32.3759 18.1424C32.3759 18.1424 32.378 18.1301 32.3666 18.1249C32.3553 18.1187 32.3491 18.1249 32.347 18.128L31.4625 18.9672C31.3975 19.0291 31.3027 19.0445 31.2212 19.0085L29.951 18.4425L30.0335 18.2569L31.3037 18.8229C31.3099 18.826 31.3171 18.8249 31.3223 18.8198L32.2068 17.9806C32.2769 17.9146 32.3769 17.9012 32.4615 17.9466C32.546 17.9919 32.5914 18.0826 32.5749 18.1775L32.2481 20.092C32.2481 20.092 32.246 20.1044 32.2574 20.1095C32.2687 20.1157 32.2749 20.1095 32.2769 20.1065L33.0832 19.3373C33.144 19.2796 33.2306 19.2611 33.31 19.2899C33.3894 19.3188 33.444 19.3879 33.4533 19.4714L33.4904 19.7879C33.4904 19.7941 33.4945 19.7992 33.5007 19.8013L35.0204 20.4786L34.9379 20.6642V20.6632Z" fill="white"/>
        <path d="M25.0651 16.3585C25.0651 16.3502 25.0651 16.341 25.0672 16.3317C25.0826 16.244 25.1662 16.1719 25.2538 16.1719H26.4765C26.5559 16.1719 26.6116 16.2296 26.6116 16.3049C26.6116 16.3131 26.6116 16.3224 26.6095 16.3317C26.5941 16.4203 26.5106 16.4915 26.4229 16.4915H25.1991C25.1198 16.4915 25.0641 16.4337 25.0641 16.3585H25.0651Z" fill="#BB41BF"/>
        <path d="M28.0281 19.1375C28.2869 19.0189 28.4848 18.8973 28.6178 18.7715L27.7776 23.7264C27.7229 24.0491 27.4167 24.3109 27.0941 24.3109H22.931C22.7969 24.3109 22.6804 24.2656 22.5949 24.1893L22.5897 24.1852L22.1505 23.8016C22.1505 23.8016 22.1474 23.7996 22.1453 23.7975L22.1299 23.7841L22.4701 23.3367L22.5247 23.2645L23.0361 20.2478C23.6898 20.1643 24.298 20.0736 24.8568 19.9777C24.9661 19.9581 25.0744 19.9396 25.1795 19.92C25.4032 19.8788 25.6167 19.8365 25.8229 19.7932C26.5219 19.6458 27.1136 19.487 27.5817 19.32C27.7456 19.2612 27.8941 19.2014 28.0271 19.1406L28.0281 19.1375Z" fill="#BB41BF"/>
        <path d="M25.0651 16.3585C25.0651 16.3502 25.0651 16.341 25.0672 16.3317C25.0826 16.244 25.1662 16.1719 25.2538 16.1719H26.4765C26.5559 16.1719 26.6116 16.2296 26.6116 16.3049C26.6116 16.3131 26.6116 16.3224 26.6095 16.3317C26.5941 16.4203 26.5106 16.4915 26.4229 16.4915H25.1991C25.1198 16.4915 25.0641 16.4337 25.0641 16.3585H25.0651Z" fill="#FF70FE"/>
        <path d="M28.0281 19.1367L27.3188 23.3235C27.2642 23.6462 26.958 23.9081 26.6353 23.9081H22.4722C22.3454 23.9081 22.2351 23.8679 22.1516 23.7998C22.1495 23.7988 22.1485 23.7978 22.1464 23.7957L22.1309 23.7823C22.0144 23.6761 21.9557 23.5101 21.9876 23.3246L22.498 20.312C22.6413 20.2955 22.7825 20.278 22.9217 20.2605C22.9599 20.2553 22.998 20.2512 23.0361 20.2461C23.6898 20.1625 24.2981 20.0718 24.8569 19.9759C24.9661 19.9563 25.0744 19.9378 25.1796 19.9182C25.4033 19.877 25.6167 19.8347 25.8229 19.7914C26.5219 19.644 27.1137 19.4852 27.5817 19.3182C27.7457 19.2594 27.8941 19.1996 28.0271 19.1388L28.0281 19.1367Z" fill="#FF70FE"/>
        <path d="M25.2001 16.4915C25.1207 16.4915 25.0651 16.4337 25.0651 16.3585C25.0651 16.3502 25.0651 16.341 25.0671 16.3317C25.0826 16.244 25.1661 16.1719 25.2537 16.1719H26.4765C26.5559 16.1719 26.6115 16.2296 26.6115 16.3049C26.6115 16.3131 26.6115 16.3224 26.6095 16.3317C26.594 16.4203 26.5105 16.4915 26.4229 16.4915H25.1991H25.2001Z" fill="#112130"/>
        <path d="M27.5827 19.3164L27.0342 22.5506L25.1815 19.9164C25.4052 19.8752 25.6187 19.8329 25.8249 19.7896C26.5239 19.6422 27.1156 19.4834 27.5837 19.3164H27.5827Z" fill="#112130"/>
        <path d="M27.0342 22.5521L26.9404 23.1037C26.9012 23.3326 26.6837 23.5192 26.4548 23.5192H22.7855C22.6412 23.5192 22.5268 23.446 22.4711 23.3346C22.4381 23.2687 22.4257 23.1893 22.4402 23.1037L22.9216 20.2603C22.9598 20.2551 22.9979 20.251 23.0361 20.2458C23.6897 20.1623 24.298 20.0716 24.8568 19.9757C24.9661 19.9561 25.0743 19.9376 25.1795 19.918L27.0321 22.5521H27.0342Z" fill="#182733"/>
        <path d="M26.6126 16.3049C26.6126 16.3131 26.6126 16.3224 26.6105 16.3317C26.595 16.4203 26.5115 16.4915 26.4239 16.4915H25.2001C25.1207 16.4915 25.0651 16.4337 25.0651 16.3585C25.0651 16.3502 25.0651 16.341 25.0671 16.3317C25.0826 16.244 25.1661 16.1719 25.2537 16.1719H26.4765C26.5559 16.1719 26.6115 16.2296 26.6115 16.3049H26.6126Z" fill="#FF70FE"/>
        <path d="M25.1816 19.9173C25.0754 19.9369 24.9681 19.9565 24.8589 19.975C24.3001 20.0719 23.6908 20.1627 23.0381 20.2451C23 20.2503 22.9619 20.2554 22.9237 20.2596L23.4093 17.3955L23.5 17.5244L25.1826 19.9163L25.1816 19.9173Z" fill="#112130"/>
        <path d="M27.8622 15.8014C27.8313 15.7932 27.7993 15.7891 27.7653 15.7891H24.095C23.8661 15.7891 23.6486 15.9757 23.6094 16.2045L23.5414 16.6066L23.4073 17.3953L23.4981 17.5242L25.1806 19.9161C25.4044 19.8748 25.6178 19.8326 25.824 19.7893C26.523 19.6418 27.1148 19.4831 27.5828 19.316L27.8777 17.5819L28.1107 16.2045C28.1437 16.0097 28.0365 15.8458 27.8622 15.8014ZM26.6106 16.3314C26.5951 16.42 26.5116 16.4912 26.424 16.4912H25.2002C25.1208 16.4912 25.0652 16.4334 25.0652 16.3582C25.0652 16.3499 25.0652 16.3406 25.0672 16.3314C25.0827 16.2437 25.1662 16.1716 25.2538 16.1716H26.4766C26.556 16.1716 26.6116 16.2293 26.6116 16.3046C26.6116 16.3128 26.6116 16.3221 26.6096 16.3314H26.6106Z" fill="#07131C"/>
        <path d="M28.5632 15.984L28.2611 17.7645L28.0281 19.1367C27.8951 19.1975 27.7466 19.2573 27.5827 19.3161L27.8776 17.582L28.1106 16.2046C28.1436 16.0098 28.0363 15.8458 27.8621 15.8015C27.8312 15.7932 27.7992 15.7891 27.7652 15.7891H24.0949C23.866 15.7891 23.6485 15.9757 23.6093 16.2046L23.5413 16.6067L23.4072 17.3954L22.9217 20.2595C22.7825 20.277 22.6412 20.2945 22.4979 20.311L23.1351 16.552L23.231 15.984C23.2856 15.6613 23.5918 15.3994 23.9145 15.3994H28.0776C28.2096 15.3994 28.324 15.4437 28.4096 15.5169C28.4116 15.519 28.4147 15.5211 28.4168 15.5231C28.5353 15.6304 28.5941 15.7963 28.5632 15.984Z" fill="#BB41BF"/>
        <path d="M28.8777 15.9266L28.8591 15.9101L28.4179 15.5234C28.5364 15.6307 28.5952 15.7966 28.5643 15.9843L28.2622 17.7648L28.0292 19.137C28.288 19.0185 28.4859 18.8968 28.6189 18.771L28.7261 18.137L29.023 16.3864C29.055 16.1998 28.9952 16.0338 28.8766 15.9266H28.8777ZM28.6674 17.571L28.5952 17.9937L28.521 18.4308C28.5179 18.4535 28.49 18.4628 28.4735 18.4473L28.3962 18.3803C28.3776 18.3638 28.3684 18.339 28.3725 18.3143L28.4467 17.8782L28.5189 17.4534C28.523 17.4308 28.5498 17.4215 28.5663 17.4369L28.6436 17.504C28.6622 17.5204 28.6715 17.5452 28.6674 17.5699V17.571Z" fill="#9D28A3"/>
        <path d="M28.6674 17.5704L28.5952 17.9931L28.521 18.4302C28.5179 18.4529 28.4901 18.4622 28.4736 18.4467L28.3963 18.3797C28.3777 18.3632 28.3684 18.3385 28.3725 18.3137L28.4468 17.8776L28.5189 17.4528C28.5231 17.4302 28.5499 17.4209 28.5664 17.4363L28.6437 17.5034C28.6623 17.5199 28.6715 17.5446 28.6674 17.5693V17.5704Z" fill="#0B1C2B"/>
        <path d="M24.7166 18.2354C24.7537 18.2879 24.7557 18.2869 24.7928 18.3384C24.83 18.39 24.832 18.39 24.8691 18.4415C24.9063 18.4931 24.9155 18.4869 24.9526 18.5395C24.9898 18.5921 24.966 18.6086 25.0032 18.6611C25.0403 18.7137 25.0609 18.6993 25.098 18.7519C25.1351 18.8045 25.1351 18.8045 25.1722 18.857C25.2094 18.9096 25.2083 18.9106 25.2454 18.9632C25.2826 19.0158 25.2681 19.0261 25.3052 19.0787C25.3424 19.1313 25.3589 19.1199 25.396 19.1725C25.4331 19.2251 25.4187 19.2354 25.4558 19.288C25.4929 19.3406 25.496 19.3385 25.5331 19.3911C25.5702 19.4437 25.5733 19.4416 25.6114 19.4942C25.6496 19.5468 25.6475 19.5478 25.6857 19.6004C25.7238 19.6529 25.7228 19.654 25.7599 19.7066C25.797 19.7591 25.8001 19.7571 25.8383 19.8107" stroke="white" stroke-width="0.221661" stroke-miterlimit="10"/>
        <path d="M24.2485 18.9863C24.2836 19.042 24.2702 19.0513 24.3052 19.107C24.3403 19.1626 24.3259 19.1719 24.3609 19.2276C24.396 19.2833 24.4207 19.2678 24.4568 19.3235C24.4929 19.3791 24.4743 19.3905 24.5094 19.4461C24.5444 19.5018 24.5382 19.5059 24.5733 19.5626C24.6083 19.6194 24.6259 19.607 24.6609 19.6627C24.696 19.7183 24.6846 19.7255 24.7197 19.7812C24.7547 19.8369 24.7795 19.8214 24.8145 19.8771C24.8496 19.9328 24.8197 19.9524 24.8548 20.008C24.8898 20.0637 24.9125 20.0503 24.9475 20.106C24.9826 20.1616 24.9816 20.1627 25.0176 20.2184C25.0537 20.274 25.0527 20.2751 25.0878 20.3307C25.1228 20.3864 25.1115 20.3946 25.1465 20.4503C25.1816 20.506 25.2063 20.4905 25.2414 20.5472C25.2764 20.6039 25.2486 20.6204 25.2836 20.6761C25.3187 20.7318 25.3424 20.7173 25.3775 20.773C25.4125 20.8287 25.397 20.839 25.4321 20.8957C25.4672 20.9524 25.4857 20.94 25.5218 20.9967C25.5579 21.0534 25.5465 21.0607 25.5816 21.1163" stroke="white" stroke-width="0.221661" stroke-miterlimit="10"/>
        <path d="M24.3434 20.5771C24.3743 20.6339 24.3784 20.6318 24.4094 20.6885C24.4403 20.7452 24.4413 20.7452 24.4723 20.8019C24.5032 20.8586 24.5073 20.8565 24.5382 20.9132C24.5692 20.97 24.5589 20.9761 24.5908 21.0328C24.6228 21.0895 24.6238 21.0885 24.6558 21.1452C24.6877 21.2019 24.6939 21.1988 24.7248 21.2555C24.7558 21.3122 24.7547 21.3133 24.7857 21.37C24.8166 21.4267 24.8125 21.4298 24.8434 21.4875C24.8743 21.5452 24.8805 21.5421 24.9115 21.5989" stroke="white" stroke-width="0.221661" stroke-miterlimit="10"/>
        <path d="M21.1918 23.5111C21.1918 23.5111 21.1856 23.506 21.1825 23.5039" stroke="#FF70FE" stroke-width="0.0371153" stroke-miterlimit="10"/>
        <path d="M19.6021 20.1768C19.6021 20.1768 19.599 20.1778 19.5948 20.1809" stroke="#FF70FE" stroke-width="0.0371153" stroke-miterlimit="10"/>
        <path d="M19.8968 20.8458C19.569 22.1459 18.97 23.2336 18.2545 23.8779C17.8143 24.2749 17.3307 24.5048 16.8379 24.513H16.8111C15.2481 24.513 14.2007 22.282 14.4698 19.5293C14.4842 19.3839 14.5017 19.2406 14.5223 19.0983C14.577 18.723 14.6543 18.3601 14.7512 18.0127C15.0811 18.5416 15.2987 19.1488 15.3677 19.8004C15.3842 19.9509 15.3925 20.1046 15.3925 20.2602C15.3925 20.4015 15.3853 20.5407 15.3719 20.6778C15.4018 20.6798 15.4327 20.6809 15.4626 20.6829C15.7121 20.6974 15.9647 20.7108 16.2204 20.7242C16.4101 20.7335 16.6018 20.7427 16.7946 20.751C16.9194 20.7561 17.0441 20.7613 17.1689 20.7675C17.3668 20.7757 17.5658 20.7829 17.7658 20.7902C17.9978 20.7984 18.2308 20.8056 18.4658 20.8128C18.9349 20.8262 19.4112 20.8376 19.8948 20.8448L19.8968 20.8458Z" fill="#223544"/>
        <path d="M23.3332 20.8529C22.7991 22.9633 21.5517 24.5139 20.2485 24.5139H16.838C17.3298 24.5056 17.8143 24.2768 18.2546 23.8788C18.9701 23.2344 19.5691 22.1457 19.8969 20.8467C20.4444 20.856 20.999 20.8611 21.5609 20.8621C21.6269 20.8621 21.6939 20.8621 21.7599 20.8621H21.83C22.3362 20.8621 22.8373 20.8591 23.3322 20.8529H23.3332Z" fill="#112130"/>
        <path d="M20.3206 24.5137H20.2484" stroke="black" stroke-width="0.214444" stroke-miterlimit="10"/>
        <path d="M22.3268 14.9719C22.3083 14.9554 22.2897 14.941 22.2701 14.9255L22.2969 14.9121L22.3258 14.9719H22.3268Z" fill="#223544"/>
        <path d="M21.9464 23.012L22.0248 23.1893L20.002 24.0811L19.9834 24.0398C19.8948 24.113 19.8051 24.1811 19.7123 24.2419L19.6061 24.08C19.9102 23.88 20.1948 23.6037 20.4525 23.2676L19.3215 22.5862L19.4215 22.4202L20.569 23.1109C20.8536 22.7068 21.101 22.2284 21.3 21.6975L19.8638 21.1665L19.9308 20.985L21.3649 21.515C21.4381 21.3036 21.5041 21.0861 21.5608 20.8613C21.6268 20.8613 21.6938 20.8613 21.7598 20.8613C21.6237 21.4057 21.4402 21.9171 21.2175 22.3769L22.8434 21.4438L22.9403 21.6119L21.0525 22.6954C20.8329 23.0934 20.5824 23.4439 20.3082 23.7347L21.9464 23.012Z" fill="#223544"/>
        <path d="M16.2225 20.7248L15.6245 21.6156C15.5441 21.3383 15.4895 21.0238 15.4647 20.6836C15.7142 20.698 15.9668 20.7114 16.2225 20.7248Z" fill="#112130"/>
        <path d="M17.3575 22.6294C17.1544 22.7778 16.94 22.8562 16.7266 22.849C16.5286 22.8428 16.3482 22.7624 16.1874 22.6232L16.7761 20.8076C16.7823 20.788 16.7895 20.7695 16.7967 20.752C16.9214 20.7571 17.0462 20.7623 17.1709 20.7684C17.1709 20.7684 17.172 20.7757 17.173 20.7798C17.173 20.7829 17.174 20.787 17.1751 20.7911C17.1761 20.7994 17.1771 20.8066 17.1781 20.8148L17.3586 22.6294H17.3575Z" fill="#112130"/>
        <path d="M18.469 20.8137C18.3751 21.1127 18.2638 21.389 18.137 21.6354L17.7689 20.791C18.0009 20.7993 18.2339 20.8065 18.469 20.8137Z" fill="#112130"/>
        <path d="M16.2225 20.7256C16.4122 20.7349 16.6039 20.7441 16.7967 20.7524C16.7895 20.7699 16.7823 20.7885 16.7761 20.8081L16.1874 22.6236C16.0812 22.5298 15.9823 22.4071 15.8967 22.2628L15.8884 22.2514L15.8245 22.136C15.7472 21.9834 15.6802 21.8102 15.6245 21.6174L16.2225 20.7266V20.7256Z" fill="#67869B"/>
        <path d="M18.137 21.6356C18.0886 21.7346 18.036 21.8263 17.9824 21.916C17.7937 22.2243 17.5824 22.4697 17.3576 22.6295L17.1772 20.8149C17.1772 20.8067 17.1751 20.7985 17.1741 20.7912C17.1731 20.784 17.1721 20.7758 17.171 20.7686C17.369 20.7768 17.5679 20.784 17.768 20.7912L18.136 21.6356H18.137Z" fill="#67869B"/>
        <path d="M20.1257 19.5286C20.0814 19.9843 20.003 20.4256 19.8968 20.8452C19.4143 20.8369 18.938 20.8266 18.4679 20.8132C18.5865 20.4349 18.6751 20.0194 18.7256 19.5822C18.7339 19.509 18.7411 19.4358 18.7463 19.3637C18.7968 18.7719 18.7659 18.2193 18.6689 17.7471C18.6298 17.5584 18.5803 17.3821 18.5215 17.2203C18.3689 16.7986 18.1483 16.4852 17.8802 16.3264C17.7627 16.2563 17.6338 16.2161 17.4988 16.2099H17.4761C17.3328 16.2078 17.1895 16.2439 17.0493 16.313C16.7565 16.4563 16.4761 16.7491 16.2348 17.144C16.1307 17.3151 16.0327 17.5058 15.9441 17.7131C15.8647 17.8966 15.7946 18.0914 15.7317 18.2987L15.6399 18.6368L15.6379 18.6482C15.5853 18.8667 15.542 19.0946 15.5111 19.3296C15.5028 19.3771 15.4976 19.4266 15.4915 19.476C15.443 19.9008 15.4348 20.308 15.4626 20.6844C15.4317 20.6823 15.4018 20.6813 15.3719 20.6792C15.3853 20.5421 15.3925 20.4029 15.3925 20.2617C15.3925 20.106 15.3842 19.9524 15.3677 19.8018C15.2987 19.1513 15.0811 18.544 14.7512 18.0141C14.9533 17.2873 15.2409 16.6326 15.5853 16.0934C16.1936 15.1397 16.9781 14.5459 17.7844 14.5459H17.8112C18.3009 14.5541 18.7411 14.783 19.103 15.181C19.2947 15.3903 19.4649 15.647 19.6102 15.9439C20.0546 16.8501 20.2618 18.1224 20.1247 19.5307L20.1257 19.5286Z" fill="#1B2D3A"/>
        <path d="M18.7473 19.3646L17.7833 19.5305C17.6947 19.546 17.6132 19.6718 17.5689 19.8398C17.5668 19.8481 17.5637 19.8563 17.5617 19.8646C17.5163 20.0295 17.5163 20.212 17.5679 20.3296L17.7699 20.7925C17.5689 20.7852 17.3699 20.778 17.173 20.7698C17.172 20.7626 17.1699 20.7543 17.1689 20.7481V20.7461C17.1668 20.7337 17.1637 20.7224 17.1596 20.711C17.1575 20.7028 17.1544 20.6945 17.1513 20.6873C17.1503 20.6842 17.1493 20.6811 17.1472 20.678C17.1452 20.6739 17.1441 20.6698 17.1421 20.6657C17.14 20.6595 17.1369 20.6543 17.1338 20.6492C17.1307 20.644 17.1276 20.6388 17.1245 20.6337C17.1245 20.6337 17.1245 20.6337 17.1245 20.6327C17.1214 20.6285 17.1194 20.6234 17.1163 20.6203C17.106 20.6059 17.0946 20.5945 17.0823 20.5852C17.0781 20.5821 17.074 20.5791 17.0699 20.577C17.0658 20.5749 17.0616 20.5729 17.0575 20.5708C17.0575 20.5708 17.0575 20.5708 17.0565 20.5708C17.0524 20.5687 17.0482 20.5677 17.0441 20.5667C17.039 20.5646 17.0338 20.5646 17.0287 20.5636C17.0245 20.5636 17.0204 20.5636 17.0173 20.5636H16.9957H16.9946C16.9905 20.5636 16.9864 20.5636 16.9823 20.5636C16.9812 20.5636 16.9802 20.5636 16.9792 20.5636C16.9761 20.5636 16.973 20.5646 16.9689 20.5656C16.9689 20.5656 16.9668 20.5656 16.9658 20.5656C16.9616 20.5656 16.9575 20.5677 16.9534 20.5698C16.9493 20.5708 16.9441 20.5729 16.94 20.576C16.9348 20.578 16.9297 20.5811 16.9245 20.5842C16.9204 20.5863 16.9173 20.5894 16.9132 20.5925C16.9101 20.5955 16.906 20.5986 16.9018 20.6017C16.8843 20.6172 16.8678 20.6358 16.8524 20.6574C16.8503 20.6605 16.8482 20.6636 16.8462 20.6667C16.841 20.6729 16.8369 20.6801 16.8328 20.6873C16.8307 20.6904 16.8286 20.6945 16.8266 20.6986C16.8204 20.71 16.8142 20.7213 16.8091 20.7337C16.807 20.7368 16.806 20.7399 16.8039 20.744C16.8018 20.7492 16.7998 20.7533 16.7977 20.7584C16.6049 20.7502 16.4132 20.7409 16.2235 20.7316L16.4843 20.3419C16.5627 20.2254 16.6018 20.0398 16.5926 19.8697C16.5926 19.8636 16.5915 19.8563 16.5905 19.8501C16.5833 19.6831 16.5286 19.5594 16.4462 19.5419L15.5121 19.3367C15.543 19.1017 15.5863 18.8748 15.6389 18.6552L15.641 18.6439L15.7327 18.3057C15.7956 18.0985 15.8657 17.9037 15.9451 17.7201L16.6565 18.7315C16.7204 18.8223 16.8152 18.8027 16.8977 18.6965C16.9008 18.6913 16.9039 18.6872 16.908 18.682C16.9884 18.5831 17.0441 18.413 17.0441 18.2418L17.0503 16.3201C17.1905 16.251 17.3338 16.2139 17.4771 16.217H17.4998C17.6338 16.2221 17.7627 16.2623 17.8813 16.3324L17.4606 18.2336C17.4215 18.4068 17.44 18.581 17.4998 18.6831C17.5029 18.6882 17.506 18.6913 17.5081 18.6965C17.5648 18.8006 17.6534 18.8202 17.7369 18.7326L18.67 17.7542C18.7679 18.2274 18.7978 18.78 18.7473 19.3707V19.3646Z" fill="#223544"/>
        <path d="M16.4832 20.3353L16.2224 20.725C15.9667 20.7116 15.7141 20.6982 15.4646 20.6838C15.4368 20.3075 15.444 19.9003 15.4935 19.4755C15.4987 19.426 15.5048 19.3765 15.5131 19.3291L16.4472 19.5343C16.5296 19.5518 16.5843 19.6755 16.5915 19.8425C16.5915 19.8487 16.5925 19.8559 16.5936 19.8621C16.6028 20.0322 16.5637 20.2188 16.4853 20.3343L16.4832 20.3353Z" fill="#0B1B28"/>
        <path d="M17.0504 16.3135L17.0442 18.2352C17.0442 18.4064 16.9885 18.5754 16.9081 18.6755C16.905 18.6806 16.9019 18.6847 16.8978 18.6899C16.8153 18.7961 16.7205 18.8157 16.6566 18.7249L15.9452 17.7135C16.0339 17.5074 16.1318 17.3166 16.2359 17.1444C16.4772 16.7485 16.7576 16.4568 17.0504 16.3135Z" fill="#0B1B28"/>
        <path d="M17.171 20.768C17.0452 20.7628 16.9205 20.7577 16.7968 20.7515C16.7988 20.7463 16.8009 20.7412 16.8029 20.7371C16.805 20.734 16.806 20.7309 16.8081 20.7268C16.8132 20.7144 16.8194 20.703 16.8256 20.6917C16.8277 20.6876 16.8297 20.6845 16.8318 20.6804C16.8359 20.6731 16.8401 20.667 16.8452 20.6597C16.8473 20.6566 16.8493 20.6536 16.8514 20.6505C16.8669 20.6288 16.8834 20.6103 16.9009 20.5948C16.905 20.5917 16.9091 20.5886 16.9122 20.5855C16.9153 20.5824 16.9194 20.5804 16.9236 20.5773C16.9287 20.5742 16.9339 20.5711 16.939 20.569C16.9432 20.5669 16.9483 20.5649 16.9524 20.5628C16.9566 20.5608 16.9607 20.5597 16.9648 20.5587C16.9658 20.5587 16.9669 20.5587 16.9679 20.5587C16.971 20.5587 16.9741 20.5577 16.9782 20.5566C16.9792 20.5566 16.9803 20.5566 16.9813 20.5566C16.9854 20.5566 16.9895 20.5566 16.9937 20.5566H17.0143H17.0174C17.0215 20.5566 17.0256 20.5566 17.0287 20.5566C17.0339 20.5566 17.039 20.5577 17.0442 20.5597C17.0483 20.5608 17.0524 20.5618 17.0566 20.5639C17.0566 20.5639 17.0566 20.5639 17.0576 20.5639C17.0617 20.5659 17.0658 20.568 17.07 20.57C17.0741 20.5721 17.0782 20.5752 17.0823 20.5783C17.0947 20.5876 17.106 20.5989 17.1164 20.6133C17.1195 20.6175 17.1225 20.6216 17.1246 20.6257C17.1246 20.6257 17.1246 20.6257 17.1246 20.6267C17.1277 20.6319 17.1308 20.6371 17.1339 20.6422C17.137 20.6474 17.139 20.6525 17.1421 20.6587C17.1442 20.6628 17.1452 20.667 17.1473 20.6711C17.1483 20.6742 17.1493 20.6773 17.1514 20.6804C17.1545 20.6886 17.1566 20.6958 17.1597 20.7041C17.1628 20.7154 17.1658 20.7268 17.1689 20.7391C17.1689 20.7391 17.1689 20.7402 17.1689 20.7412C17.17 20.7484 17.172 20.7556 17.1731 20.7628L17.171 20.768Z" fill="#0B1B28"/>
        <path d="M18.67 17.7469L17.737 18.7253C17.6535 18.813 17.5648 18.7934 17.5081 18.6892C17.5061 18.6841 17.503 18.681 17.4999 18.6758C17.4401 18.5738 17.4215 18.3995 17.4607 18.2263L17.8813 16.3252C18.1504 16.484 18.37 16.7974 18.5226 17.2191C18.5814 17.3809 18.6319 17.5572 18.67 17.7459V17.7469Z" fill="#0B1B28"/>
        <path d="M18.7474 19.3653C18.7422 19.4375 18.735 19.5096 18.7268 19.5839C18.6762 20.02 18.5876 20.4354 18.469 20.8148C18.234 20.8087 18.0009 20.8004 17.769 20.7922L17.5669 20.3293C17.5154 20.2128 17.5164 20.0292 17.5607 19.8643C17.5628 19.856 17.5659 19.8478 17.5679 19.8395C17.6123 19.6715 17.6937 19.5457 17.7824 19.5302L18.7463 19.3643L18.7474 19.3653Z" fill="#0B1B28"/>
        <path d="M21.83 18.3153C21.8475 18.7029 21.8372 19.106 21.797 19.5195C21.7908 19.5854 21.7836 19.6514 21.7753 19.7174L20.2268 19.2287L20.168 19.4133L21.7485 19.9123C21.7135 20.1607 21.6681 20.404 21.6135 20.6422L21.6001 20.6504L21.6083 20.6649C21.5929 20.7309 21.5774 20.7958 21.5609 20.8608C20.999 20.8597 20.4443 20.8546 19.8969 20.8453C20.0031 20.4257 20.0804 19.9844 20.1258 19.5287C20.2639 18.1204 20.0557 16.8482 19.6113 15.942C19.4659 15.6461 19.2958 15.3893 19.1041 15.179C18.7422 14.7821 18.302 14.5522 17.8123 14.5439H21.2217C21.6063 14.5439 21.9599 14.679 22.2702 14.9244L21.2042 15.4471C21.0021 15.1491 20.767 14.9068 20.5031 14.7357L20.398 14.8986C20.4763 14.9491 20.5516 15.0069 20.6248 15.0708L19.4824 14.912L19.4556 15.1038L20.8495 15.2976C21.0042 15.476 21.1423 15.6863 21.2629 15.9224C21.365 16.1224 21.4547 16.3409 21.531 16.575L20.1567 16.2915L20.1175 16.4812L21.5949 16.7863C21.7083 17.1905 21.7846 17.6369 21.8176 18.1101L20.4299 17.7204L20.3773 17.907L21.829 18.3142L21.83 18.3153Z" fill="#0B1B28"/>
        <path d="M23.564 19.5288C23.5187 19.9865 23.4403 20.4309 23.3341 20.8515C22.8393 20.8577 22.3382 20.8608 21.832 20.8608H21.7619C21.7701 20.8299 21.7774 20.8 21.7846 20.769L23.5022 19.801L23.4073 19.6319L21.8423 20.5144C21.9083 20.1968 21.9588 19.87 21.9918 19.537C22.0083 19.3638 22.0207 19.1916 22.0268 19.0215L23.5146 18.2823L23.4279 18.1091L22.032 18.8019C22.0382 18.3648 22.0104 17.9442 21.9526 17.5452L23.2836 16.8668L23.196 16.6936L21.9207 17.3431C21.8268 16.8142 21.6773 16.3317 21.4784 15.9193C21.4268 15.8111 21.3711 15.708 21.3124 15.61L22.3856 15.0832L22.3289 14.9688C22.6073 15.2038 22.8485 15.5286 23.0444 15.9245C23.4939 16.8317 23.7032 18.1101 23.5651 19.5257L23.564 19.5288Z" fill="#0B1B28"/>
        <path d="M23.4053 19.6334L23.5002 19.8025L21.7826 20.7705C21.7753 20.8015 21.7681 20.8314 21.7599 20.8623C21.6939 20.8623 21.6269 20.8623 21.5609 20.8623C21.5774 20.7974 21.5939 20.7324 21.6083 20.6664L21.6001 20.652L21.6135 20.6437C21.6681 20.4056 21.7124 20.1623 21.7485 19.9138L20.168 19.4148L20.2268 19.2303L21.7753 19.7189C21.7836 19.653 21.7908 19.587 21.797 19.521C21.8372 19.1076 21.8475 18.7045 21.83 18.3168L20.3784 17.9096L20.4309 17.723L21.8186 18.1127C21.7846 17.6395 21.7094 17.1941 21.5959 16.7889L20.1186 16.4837L20.1577 16.294L21.532 16.5775C21.4557 16.3435 21.366 16.125 21.264 15.9249C21.1433 15.6888 21.0052 15.4785 20.8506 15.3002L19.4567 15.1063L19.4835 14.9146L20.6258 15.0733C20.5536 15.0094 20.4773 14.9517 20.399 14.9012L20.5041 14.7383C20.7681 14.9094 21.0031 15.1517 21.2052 15.4497L22.2712 14.927C22.2898 14.9424 22.3094 14.9568 22.3279 14.9733L22.3846 15.0878L21.3114 15.6146C21.3702 15.7126 21.4248 15.8157 21.4774 15.9239C21.6764 16.3363 21.8259 16.8188 21.9197 17.3477L23.195 16.6982L23.2826 16.8714L21.9516 17.5498C22.0104 17.9477 22.0372 18.3694 22.031 18.8065L23.427 18.1137L23.5136 18.2869L22.0259 19.0261C22.0197 19.1962 22.0073 19.3674 21.9908 19.5416C21.9589 19.8746 21.9083 20.2014 21.8413 20.519L23.4063 19.6365L23.4053 19.6334Z" fill="#1B2D3A"/>
        <path d="M8.08903 19.8421C7.56839 20.0916 7.16218 20.4091 6.99104 20.8153C6.96733 20.6338 6.95496 20.4493 6.95496 20.2606C6.95496 20.0348 6.97248 19.8132 7.00651 19.5967C7.33436 19.6812 7.69623 19.7627 8.08903 19.841V19.8421Z" fill="#FEDCFF"/>
        <path d="M8.08911 19.8418C9.34794 20.0923 10.9233 20.3078 12.7326 20.4748C12.7192 20.4965 12.7048 20.5202 12.6914 20.5429C12.677 20.5666 12.6625 20.5903 12.6471 20.615C12.5945 20.6996 12.5378 20.7882 12.479 20.88C12.4708 20.8934 12.4625 20.9068 12.4532 20.9192C12.2656 21.2078 12.0491 21.5223 11.812 21.8347C11.7903 21.8625 11.7687 21.8914 11.747 21.9192C11.7367 21.9337 11.7254 21.9471 11.714 21.9615C11.6924 21.9893 11.6697 22.0182 11.6481 22.046C11.6367 22.0605 11.6254 22.0739 11.614 22.0883C11.6027 22.1027 11.5913 22.1161 11.58 22.1306C11.5687 22.144 11.5573 22.1584 11.546 22.1728C11.5233 22.2007 11.5006 22.2285 11.4769 22.2564C11.4109 22.3357 11.3439 22.4131 11.2769 22.4894C11.2181 22.5564 11.1583 22.6213 11.0975 22.6852C11.081 22.7017 11.0656 22.7193 11.0501 22.7358C11.0377 22.7481 11.0253 22.7605 11.014 22.7739C10.9913 22.7966 10.9686 22.8193 10.946 22.8419C10.9192 22.8688 10.8923 22.8945 10.8655 22.9213C10.8408 22.945 10.8161 22.9688 10.7903 22.9925C10.7779 23.0048 10.7655 23.0162 10.7532 23.0275C10.7408 23.0389 10.7284 23.0502 10.715 23.0615C10.6903 23.0842 10.6645 23.1069 10.6387 23.1286C10.6274 23.1389 10.615 23.1492 10.6037 23.1595C10.6037 23.1595 10.6016 23.1605 10.6006 23.1616C10.5748 23.1832 10.5501 23.2049 10.5243 23.2255C10.4449 23.2904 10.3655 23.3513 10.2851 23.408C10.2634 23.4234 10.2428 23.4379 10.2212 23.4523C10.1933 23.4708 10.1655 23.4894 10.1377 23.5069C10.1253 23.5152 10.1119 23.5234 10.0985 23.5317C10.0593 23.5554 10.0191 23.5791 9.97993 23.6007C9.96962 23.6069 9.95931 23.6121 9.94797 23.6183C9.8294 23.6822 9.71084 23.7337 9.59125 23.7729C9.57991 23.776 9.5696 23.7801 9.55826 23.7832C9.5531 23.7853 9.54692 23.7863 9.54176 23.7884C9.53145 23.7915 9.52114 23.7946 9.51083 23.7977C9.48403 23.8049 9.45825 23.8111 9.43145 23.8173C9.42011 23.8193 9.40876 23.8224 9.39639 23.8245C9.38402 23.8265 9.37165 23.8296 9.35825 23.8317C9.33247 23.8368 9.3067 23.8399 9.27989 23.843C9.26855 23.8441 9.25824 23.8451 9.2469 23.8461C9.23865 23.8461 9.22937 23.8472 9.22113 23.8482C9.21082 23.8482 9.19948 23.8492 9.18917 23.8502C9.18092 23.8502 9.17267 23.8502 9.16339 23.8513C9.15102 23.8513 9.13865 23.8513 9.12525 23.8513C9.0438 23.8513 8.96338 23.843 8.88297 23.8276C7.86539 23.1646 7.14886 22.078 6.98596 20.8171C7.1571 20.4119 7.56331 20.0934 8.08396 19.8439L8.08911 19.8418Z" fill="#FF70FE"/>
        <path d="M14.3976 21.6367C14.3976 22.5708 14.1553 23.2027 13.7914 23.6368C13.7914 23.6368 13.7904 23.6368 13.7893 23.6388C13.0728 24.1873 12.1779 24.5131 11.2067 24.5131C10.351 24.5131 9.55407 24.2605 8.88806 23.8244C8.96848 23.8409 9.04889 23.8481 9.13034 23.8481C9.14271 23.8481 9.15509 23.8481 9.16849 23.8481C9.17674 23.8481 9.18601 23.8481 9.19426 23.8471C9.20457 23.8471 9.21488 23.8461 9.22622 23.845C9.23447 23.845 9.24375 23.844 9.252 23.843C9.26231 23.842 9.27365 23.8409 9.28499 23.8399C9.31076 23.8368 9.33654 23.8337 9.36334 23.8286C9.37572 23.8265 9.38809 23.8244 9.40149 23.8213C9.41283 23.8193 9.4252 23.8162 9.43654 23.8141C9.46335 23.8079 9.48912 23.8017 9.51593 23.7945C9.52624 23.7914 9.53655 23.7894 9.54686 23.7852C9.55201 23.7842 9.5582 23.7822 9.56335 23.7801C9.57469 23.777 9.585 23.7729 9.59635 23.7698C9.71491 23.7306 9.83347 23.6791 9.95306 23.6151C9.96337 23.61 9.97368 23.6038 9.98502 23.5976C10.0242 23.576 10.0644 23.5522 10.1036 23.5285C10.117 23.5203 10.1294 23.512 10.1428 23.5038C10.1706 23.4863 10.1984 23.4677 10.2263 23.4491C10.2479 23.4347 10.2685 23.4203 10.2902 23.4048C10.3706 23.3481 10.45 23.2873 10.5294 23.2223C10.5552 23.2017 10.5799 23.1801 10.6057 23.1584C10.6057 23.1584 10.6077 23.1564 10.6088 23.1564C10.6201 23.146 10.6325 23.1357 10.6438 23.1254C10.6696 23.1038 10.6943 23.0811 10.7201 23.0584C10.7325 23.0471 10.7449 23.0357 10.7583 23.0244C10.7706 23.013 10.783 23.0017 10.7954 22.9893C10.8201 22.9656 10.8459 22.9419 10.8706 22.9182C10.8974 22.8924 10.9242 22.8656 10.9511 22.8388C10.9737 22.8161 10.9964 22.7934 11.0191 22.7708C11.0315 22.7584 11.0438 22.746 11.0552 22.7326C11.0717 22.7161 11.0871 22.6986 11.1026 22.6821C11.1634 22.6182 11.2222 22.5522 11.282 22.4862C11.35 22.4099 11.4171 22.3316 11.482 22.2532C11.5057 22.2254 11.5284 22.1975 11.5511 22.1697C11.5624 22.1563 11.5738 22.1419 11.5851 22.1274C11.5964 22.113 11.6078 22.0996 11.6191 22.0852C11.6305 22.0718 11.6418 22.0573 11.6532 22.0429C11.6748 22.0151 11.6975 21.9862 11.7191 21.9584C11.7305 21.9439 11.7408 21.9305 11.7521 21.9161C11.7738 21.8882 11.7954 21.8594 11.8171 21.8315C12.0532 21.5202 12.2697 21.2057 12.4583 20.916C12.4666 20.9026 12.4759 20.8903 12.4841 20.8769C12.5429 20.7861 12.5996 20.6975 12.6522 20.6119C12.6676 20.5871 12.6821 20.5634 12.6965 20.5397C12.7109 20.517 12.7243 20.4944 12.7377 20.4717C13.2264 20.517 13.7316 20.5583 14.2533 20.5964C14.2749 20.6696 14.2966 20.749 14.3151 20.8315C14.3182 20.848 14.3224 20.8655 14.3265 20.882C14.3347 20.9222 14.343 20.9635 14.3502 21.0057C14.3533 21.0263 14.3574 21.048 14.3605 21.0696C14.3667 21.1099 14.3729 21.1521 14.377 21.1944C14.3935 21.3325 14.4038 21.4789 14.4038 21.6336L14.3976 21.6367Z" fill="#FEDCFF"/>
        <path d="M15.4389 20.678C15.3214 21.8821 14.7007 22.9389 13.7914 23.6369C14.1553 23.2028 14.3976 22.5719 14.3976 21.6368C14.3976 21.4821 14.3883 21.3357 14.3708 21.1976C14.3656 21.1553 14.3605 21.1141 14.3543 21.0728C14.3512 21.0512 14.3471 21.0295 14.344 21.0089C14.3368 20.9666 14.3285 20.9254 14.3203 20.8852C14.3172 20.8677 14.3131 20.8512 14.3089 20.8347C14.2904 20.7512 14.2687 20.6728 14.2471 20.5996C14.6358 20.6274 15.0337 20.6543 15.4389 20.678Z" fill="#FF70FE"/>
        <path d="M13.9904 19.9814C13.9801 19.9875 13.9698 19.9927 13.9584 19.9968C13.678 20.1185 13.3553 20.0566 13.0903 19.8597C12.9213 19.735 12.7759 19.5556 12.68 19.3339C12.6254 19.2071 12.5903 19.0772 12.5769 18.9493C12.5367 18.6029 12.6439 18.2751 12.8666 18.0771C12.9254 18.0235 12.9934 17.9792 13.0687 17.9462C13.3007 17.8452 13.5615 17.8709 13.7955 17.9936C14.0244 18.1143 14.2254 18.3287 14.3481 18.6091C14.411 18.7545 14.4471 18.9019 14.4564 19.0463C14.4853 19.4525 14.3141 19.8216 13.9914 19.9793L13.9904 19.9814Z" fill="#6B6BC6"/>
        <path d="M12.577 18.9503C12.046 18.974 9.59023 19.1225 8.08912 19.8421C7.69632 19.7638 7.33444 19.6823 7.00659 19.5978C7.18392 18.4637 7.81076 17.477 8.69946 16.8275C8.84689 16.7203 9.00051 16.6213 9.16134 16.5337C9.62631 16.4574 10.0583 16.478 10.4521 16.5615C11.6326 16.811 12.4749 17.6255 12.8667 18.0791C12.644 18.2771 12.5368 18.6049 12.577 18.9513V18.9503Z" fill="#EAB0E4"/>
        <path d="M13.0904 19.8607C13.0687 19.8998 13.043 19.9452 13.0151 19.9937C13.0058 20.0102 12.9955 20.0266 12.9863 20.0442C12.9852 20.0462 12.9832 20.0493 12.9821 20.0514C12.9729 20.0679 12.9636 20.0844 12.9533 20.1009C12.943 20.1184 12.9337 20.1359 12.9223 20.1535C12.9161 20.1627 12.911 20.173 12.9048 20.1823C12.8935 20.2019 12.8811 20.2215 12.8698 20.2421C12.8275 20.3143 12.7811 20.3916 12.7306 20.4731C10.9222 20.306 9.34586 20.0906 8.08704 19.84C9.58917 19.1204 12.0439 18.972 12.5749 18.9482C12.5883 19.0761 12.6233 19.206 12.678 19.3328C12.7739 19.5534 12.9192 19.7328 13.0883 19.8586L13.0904 19.8607Z" fill="#DA50DD"/>
        <path d="M14.2471 20.5995C13.7265 20.5613 13.2203 20.5201 12.7316 20.4747C12.7811 20.3933 12.8274 20.3159 12.8707 20.2438C12.8831 20.2231 12.8945 20.2036 12.9058 20.184C12.912 20.1737 12.9171 20.1644 12.9233 20.1551C12.9336 20.1376 12.9439 20.12 12.9543 20.1025C12.9646 20.086 12.9738 20.0685 12.9831 20.053C12.9842 20.051 12.9862 20.0479 12.9873 20.0458C12.9976 20.0283 13.0068 20.0118 13.0161 19.9953C13.044 19.9458 13.0687 19.9015 13.0914 19.8623C13.3563 20.0582 13.679 20.1211 13.9595 19.9994C13.9708 19.9943 13.9811 19.9901 13.9914 19.984C14.0502 20.0902 14.1285 20.2489 14.2007 20.4551C14.2059 20.4716 14.2121 20.4871 14.2172 20.5036C14.2275 20.5355 14.2378 20.5685 14.2481 20.6015L14.2471 20.5995Z" fill="#EAB0E4"/>
        <path d="M15.4595 20.2612C15.4595 20.4025 15.4523 20.5416 15.4389 20.6788C15.0337 20.655 14.6358 20.6282 14.2471 20.6004C14.2368 20.5664 14.2265 20.5344 14.2161 20.5025C14.211 20.486 14.2048 20.4705 14.1996 20.454C14.1275 20.2478 14.0491 20.088 13.9904 19.9828C14.3131 19.8251 14.4842 19.456 14.4553 19.0498C14.6038 19.0993 15.1914 19.3179 15.4337 19.8024C15.4502 19.9529 15.4585 20.1066 15.4585 20.2622L15.4595 20.2612Z" fill="#DA50DD"/>
        <path d="M15.4337 19.8012C15.2389 19.4125 14.8223 19.195 14.5883 19.0991C14.5306 19.0754 14.4842 19.0589 14.4553 19.0486C14.446 18.9043 14.41 18.7568 14.3471 18.6115C14.2254 18.3311 14.0244 18.1166 13.7945 17.996C13.8192 17.8228 13.8934 17.0475 13.447 16.6475C14.0017 16.9918 14.4708 17.4599 14.8172 18.0145C15.1471 18.5434 15.3646 19.1507 15.4337 19.8023V19.8012Z" fill="#EAB0E4"/>
        <path d="M13.7945 17.9945C13.5605 17.8718 13.2997 17.8471 13.0677 17.9471C12.9924 17.9801 12.9244 18.0244 12.8656 18.078C12.4738 17.6244 11.6305 16.8099 10.4511 16.5604C10.0572 16.4769 9.62525 16.4563 9.16028 16.5326C9.76753 16.1985 10.4645 16.0078 11.2068 16.0078C11.7583 16.0078 12.2852 16.113 12.7687 16.3037C13.0058 16.3975 13.2337 16.512 13.4481 16.645C13.8945 17.045 13.8203 17.8203 13.7956 17.9935L13.7945 17.9945Z" fill="#DA50DD"/>
        <path d="M12.1675 18.6252C10.554 18.3499 8.94056 18.8685 7.32605 19.2582V22.7852C8.94056 22.3934 10.554 21.8748 12.1675 22.1522C12.315 22.1769 12.4335 22.1027 12.4335 21.9759V18.9056C12.4335 18.7798 12.315 18.6499 12.1675 18.6241V18.6252Z" fill="white"/>
        <path d="M6.11677 20.2341V20.364C6.51989 20.296 6.923 20.2063 7.32715 20.1083V20.4846C6.923 20.5826 6.51989 20.6723 6.11677 20.7393V20.8888C6.51989 20.8207 6.923 20.731 7.32715 20.6331V21.7414C6.923 21.8393 6.51989 21.929 6.11677 21.9971V22.3229C6.51989 22.2558 6.923 22.1662 7.32715 22.0672V22.7868C6.69825 22.9394 6.07038 23.0724 5.44148 23.1312V19.6042C5.42292 19.6062 5.4054 19.6073 5.38684 19.6093C6.03327 19.5526 6.68072 19.4165 7.32715 19.2588V19.9794C6.923 20.0774 6.51989 20.1671 6.11677 20.2351V20.2341Z" fill="#CECECE"/>
        <path d="M5.44144 19.6042V23.1312L5.42597 23.1332C5.41051 23.1342 5.39504 23.1363 5.37958 23.1373C5.31566 23.1425 5.25277 23.1476 5.18988 23.1518C5.16307 23.1538 5.13627 23.1549 5.11049 23.1559C5.10843 23.1559 5.10637 23.1559 5.10327 23.1559C5.08575 23.1559 5.06822 23.158 5.05069 23.158C5.02389 23.159 4.99708 23.16 4.97028 23.1611C4.93626 23.1621 4.90326 23.1631 4.86924 23.1631C4.83625 23.1631 4.80223 23.1631 4.76924 23.1631C4.45273 23.1631 4.13518 23.1394 3.81867 23.0848C3.67227 23.06 3.55371 22.9301 3.55371 22.8033V19.733C3.55371 19.6073 3.67227 19.532 3.81867 19.5578C4.16921 19.6176 4.52077 19.6403 4.8713 19.6351C4.90429 19.6351 4.93729 19.6341 4.97028 19.633C4.99605 19.633 5.02183 19.632 5.04657 19.6299C5.06513 19.6299 5.08472 19.6279 5.1043 19.6269C5.13214 19.6258 5.15998 19.6238 5.18781 19.6217C5.2538 19.6176 5.31875 19.6124 5.38473 19.6073C5.40329 19.6062 5.42082 19.6042 5.43937 19.6021L5.44144 19.6042Z" fill="#FF7631"/>
        <path d="M7.32609 19.9785V20.1084C6.92298 20.2064 6.51884 20.2961 6.11572 20.3641V20.2342C6.51884 20.1672 6.92298 20.0765 7.32609 19.9785Z" fill="#010102"/>
        <path d="M7.87762 19.8418V19.9717C7.69411 20.0181 7.50956 20.0645 7.32605 20.1088V19.9789C7.50956 19.9346 7.69411 19.8882 7.87762 19.8418Z" fill="#112130"/>
        <path d="M7.32609 20.4854V20.6338C6.92298 20.7318 6.51884 20.8215 6.11572 20.8895V20.741C6.51884 20.674 6.92298 20.5833 7.32609 20.4854Z" fill="#010102"/>
        <path d="M8.96015 20.0811V20.2295C8.4158 20.3553 7.87041 20.5017 7.32605 20.6337V20.4852C7.87041 20.3532 8.4158 20.2068 8.96015 20.0811Z" fill="#112130"/>
        <path d="M7.32707 21.7412V22.067C6.92293 22.166 6.51981 22.2557 6.1167 22.3227V21.9969C6.51981 21.9288 6.92293 21.8392 7.32707 21.7412Z" fill="#010102"/>
        <path d="M8.67761 21.4043V21.7301C8.22707 21.8394 7.77756 21.9579 7.32703 22.0672V21.7414C7.77756 21.6321 8.22707 21.5136 8.67761 21.4043Z" fill="#112130"/>
        <path d="M11.483 19.8759C11.4242 19.8996 11.3654 19.9243 11.3077 19.9501C11.2799 19.9625 11.25 19.9687 11.219 19.9687C11.1283 19.9666 11.0376 19.9666 10.9458 19.9687C10.8376 20.1677 10.7283 20.3687 10.62 20.5718C10.5932 20.6213 10.5097 20.613 10.5087 20.5605C10.5355 20.3687 10.5623 20.1769 10.5891 19.9852C10.3633 20.0006 10.1375 20.0254 9.91176 20.0584C9.86536 20.1491 9.81897 20.2409 9.77154 20.3326C9.75814 20.3584 9.7169 20.3584 9.71587 20.3316C9.7303 20.2316 9.74371 20.1305 9.75711 20.0305C9.71071 20.0326 9.66535 20.0347 9.61896 20.0367C9.59731 20.0388 9.58081 20.0254 9.58081 20.0068C9.58081 19.9883 9.59834 19.9676 9.62102 19.9615C9.66638 19.9491 9.71174 19.9367 9.75608 19.9254C9.74267 19.8316 9.72927 19.7388 9.71587 19.6449C9.71587 19.6181 9.75814 19.6027 9.77154 19.6243C9.81794 19.6996 9.86433 19.7748 9.91072 19.8501C10.1365 19.8089 10.3623 19.7738 10.5881 19.7491C10.5613 19.5614 10.5345 19.3748 10.5077 19.1882C10.5077 19.1346 10.5922 19.1099 10.619 19.1563C10.7273 19.3408 10.8355 19.5284 10.9448 19.7181C11.0355 19.713 11.1262 19.7089 11.218 19.7068C11.2489 19.7068 11.2799 19.713 11.3067 19.7264C11.3654 19.7542 11.4242 19.7821 11.4819 19.8109C11.5118 19.8254 11.5118 19.8625 11.4819 19.8749L11.483 19.8759Z" fill="#112130"/>
        <path d="M32.1099 4.57961C30.7046 4.44868 27.1436 4.50126 22.5259 7.39007C19.2422 9.44584 16.8132 12.18 15.0193 14.9935C13.0677 18.0566 10.4871 19.5958 7.90141 19.5958C5.4652 19.5958 3.02384 18.2288 1.099 15.4781C-0.434065 13.2873 -0.348494 9.51079 1.26911 7.47151C3.97234 4.06 9.27158 0 19.1752 0C24.7023 0 28.953 2.03619 32.1099 4.57961Z" fill="#4EBFA3"/>
        <mask id="mask0_4585_238328" style="mask-type:luminance" maskUnits="userSpaceOnUse" x="0" y="0" width="33" height="20">
            <path d="M32.1099 4.57961C30.7046 4.44868 27.1436 4.50126 22.5259 7.39007C19.2422 9.44584 16.8132 12.18 15.0193 14.9935C13.0677 18.0566 10.4871 19.5958 7.90141 19.5958C5.4652 19.5958 3.02384 18.2288 1.099 15.4781C-0.434065 13.2873 -0.348494 9.51079 1.26911 7.47151C3.97234 4.06 9.27158 0 19.1752 0C24.7023 0 28.953 2.03619 32.1099 4.57961Z" fill="white"/>
        </mask>
        <g mask="url(#mask0_4585_238328)">
            <path d="M14.7245 23.6833C13.6904 24.172 12.4976 24.2019 11.213 23.7617L11.1676 23.7441C8.8912 22.7183 6.82512 20.5842 5.20029 18.1583C4.56315 19.0387 3.79919 19.7542 2.94657 20.2532L2.41665 19.3449C3.2404 18.8635 3.98271 18.115 4.58377 17.1871C3.72599 15.7685 3.02183 14.289 2.51356 12.9023C1.61867 10.5785 1.05369 7.20103 1.65991 5.57208C2.02075 4.47409 2.69914 4.23387 3.07235 4.18851C3.91982 4.08541 4.86935 4.73905 5.61269 5.93602C7.14472 8.48666 7.58495 11.6497 6.82409 14.6189C6.58799 15.5406 6.2488 16.4005 5.82507 17.1716C7.37979 19.5934 9.39535 21.7822 11.579 22.775C12.9698 23.2451 14.1585 23.0389 15.1121 22.1647C16.8163 20.6007 17.5659 17.2737 17.5607 13.8333C13.4863 10.8682 9.81909 5.91437 8.52005 1.36671C8.32107 0.607911 7.76743 -1.91799 8.85821 -3.05001C9.15204 -3.35621 9.69021 -3.67787 10.5799 -3.47992L10.6202 -3.46962C12.1965 -2.98609 13.6914 -1.08702 14.6668 0.421304C16.1256 2.68327 17.2875 5.42465 17.9391 8.14025C18.3381 9.74343 18.569 11.5208 18.6103 13.29C19.201 13.6941 19.799 14.0519 20.3969 14.3581C23.2754 15.8345 25.3498 15.9417 26.5612 14.6746C27.7375 13.4457 28.0437 11.0404 27.7375 8.3248C25.4673 8.00107 23.4744 7.37939 21.6991 6.44429C18.2597 4.79369 15.3936 1.25846 15.0492 -1.77056C14.8719 -3.33353 15.3596 -4.62534 16.4617 -5.50374C18.0484 -6.81308 20.5516 -6.64297 22.5434 -5.08413C23.6889 -4.21501 24.7755 -2.87989 25.7683 -1.11898C27.0705 1.16876 28.187 4.34728 28.652 7.38351C29.2799 7.45053 29.9335 7.49589 30.616 7.52063L30.5789 8.5712C29.9644 8.54955 29.3685 8.50934 28.7902 8.45264C29.083 11.3136 28.7293 13.9323 27.322 15.4025C26.2416 16.5314 24.0806 17.4284 19.9196 15.2942C19.4814 15.0705 19.0433 14.82 18.6082 14.5447C18.5072 18.0088 17.6411 21.2749 15.8245 22.941C15.4843 23.2534 15.1173 23.5019 14.7286 23.6854L14.7245 23.6833ZM9.76754 -2.43451C9.69949 -2.40255 9.65104 -2.36028 9.61392 -2.32213C9.1706 -1.86129 9.13555 -0.428224 9.53247 1.08732C10.7026 5.18031 13.8915 9.6259 17.5205 12.4869C17.4391 11.0641 17.2329 9.65889 16.9174 8.38769C16.2916 5.78034 15.1792 3.15443 13.7832 0.990405C12.5646 -0.893196 11.3078 -2.14893 10.3305 -2.46029C10.0572 -2.51802 9.88404 -2.48915 9.76857 -2.43451H9.76754ZM17.6865 -5.04598C17.4844 -4.95113 17.2958 -4.83154 17.1225 -4.68823C16.3009 -4.03253 15.9565 -3.09228 16.0926 -1.89015C16.3988 0.809983 19.0113 3.9885 22.1692 5.50404C23.7961 6.35975 25.558 6.92885 27.5849 7.24227C27.1375 4.55244 26.1498 1.67704 24.8518 -0.602459C23.9291 -2.23862 22.9362 -3.46652 21.9001 -4.25213C20.5248 -5.32847 18.8876 -5.61302 17.6865 -5.04495V-5.04598ZM3.08782 5.26382C2.861 5.37104 2.72182 5.70198 2.6548 5.90715L2.64656 5.93086C2.1455 7.25876 2.68161 10.4167 3.49608 12.5322C3.91363 13.6715 4.48583 14.9014 5.17761 16.1097C5.43433 15.5612 5.64568 14.9736 5.80342 14.3581C6.49418 11.659 6.09725 8.78874 4.71264 6.48347C4.14457 5.56796 3.52805 5.19165 3.1971 5.23186C3.15792 5.23701 3.12184 5.24732 3.08679 5.26382H3.08782Z" fill="#5FCEB1"/>
        </g>
    </g>
    <defs>
        <clipPath id="clip0_4585_238328">
            <rect width="38.4318" height="24.8291" fill="white"/>
        </clipPath>
    </defs>
</svg>
