<svg width="28" height="28" viewBox="0 0 28 28" fill="none" xmlns="http://www.w3.org/2000/svg">
<g id="shopping-cart-supermarket-svgrepo-com 1">
<g id="Group">
<path id="Vector" d="M23.5993 7.59336H14.688L16.4198 1.76361C16.4942 1.5121 16.7586 1.36876 17.0097 1.44374L24.3387 3.68139C24.5902 3.75588 24.7335 4.02024 24.6586 4.27131L23.5993 7.59336Z" fill="#FF70FF"/>
<path id="Vector_2" d="M7.11879 4.27148H15.6746L14.6879 7.59359H6.64416V4.74606C6.64422 4.48411 6.85684 4.27148 7.11879 4.27148Z" fill="#FE5E02"/>
<path id="Vector_3" d="M15.6745 4.27161H8.58895L8.8713 1.9528C8.91117 1.62533 9.20872 1.39231 9.53619 1.43217L16.2744 2.25271L15.6745 4.27161Z" fill="#28A487"/>
<g id="Group_2">
<path id="Vector_4" d="M23.6815 24.204H26.1023C26.3643 24.204 26.5769 23.9919 26.5769 23.7295C26.5769 23.467 26.3643 23.2549 26.1023 23.2549H23.6815C23.419 23.2549 23.2069 23.467 23.2069 23.7295C23.2069 23.9919 23.419 24.204 23.6815 24.204Z" fill="#28A487"/>
<path id="Vector_5" d="M12.7661 24.204H19.031C19.2935 24.204 19.5056 23.9919 19.5056 23.7295C19.5056 23.467 19.2935 23.2549 19.031 23.2549H12.7661C12.5036 23.2549 12.2915 23.467 12.2915 23.7295C12.2915 23.9919 12.5036 24.204 12.7661 24.204Z" fill="#28A487"/>
<path id="Vector_6" d="M4.66615 8.0682C4.69224 8.0682 4.71789 8.06629 4.74446 8.06153C5.00314 8.01882 5.17775 7.77442 5.13455 7.51575L4.73921 5.14285C4.70126 4.91409 4.50334 4.74609 4.27125 4.74609H2.84751C2.58507 4.74609 2.37293 4.95823 2.37293 5.22067C2.37293 5.48312 2.58507 5.69525 2.84751 5.69525H3.8688L4.19863 7.67144C4.23713 7.90354 4.43832 8.0682 4.66615 8.0682Z" fill="#1A473F"/>
</g>
<path id="Vector_7" d="M6.64429 24.2039H8.11577C8.37811 24.2039 8.59035 23.9916 8.59035 23.7293C8.59035 23.4669 8.37811 23.2547 8.11577 23.2547H6.64429C6.24431 23.2547 5.85964 23.0828 5.58855 22.7829C5.31462 22.4803 5.18671 22.09 5.22799 21.684C5.30029 20.968 5.96163 20.4072 6.73376 20.4072H23.2237C23.4857 20.4072 23.6982 20.1949 23.6982 19.9326C23.6982 19.6703 23.4857 19.458 23.2237 19.458H6.73376C5.48054 19.458 4.4044 20.3937 4.28343 21.5885C4.21622 22.255 4.43497 22.9224 4.88456 23.4196C5.33502 23.9179 5.97645 24.2039 6.64429 24.2039Z" fill="#28A487"/>
<g id="Group_3">
<path id="Vector_8" d="M12.8137 24.204C12.8137 25.5143 11.7511 26.5768 10.4408 26.5768C9.13051 26.5768 8.06793 25.5143 8.06793 24.204C8.06793 22.8936 9.13051 21.8311 10.4408 21.8311C11.7511 21.8311 12.8137 22.8936 12.8137 24.204Z" fill="#797979"/>
<path id="Vector_9" d="M23.7292 24.204C23.7292 25.5143 22.6667 26.5768 21.3564 26.5768C20.046 26.5768 18.9835 25.5143 18.9835 24.204C18.9835 22.8936 20.046 21.8311 21.3564 21.8311C22.6667 21.8311 23.7292 22.8936 23.7292 24.204Z" fill="#797979"/>
</g>
<g id="Group_4">
<path id="Vector_10" d="M12.8137 24.204C12.8137 25.5143 11.7511 26.5768 10.4408 26.5768C9.13051 26.5768 8.06793 25.5143 8.06793 24.204C8.06793 22.8936 9.13051 21.8311 10.4408 21.8311C11.7511 21.8311 12.8137 22.8936 12.8137 24.204Z" fill="#1A473F"/>
<path id="Vector_11" d="M23.7292 24.204C23.7292 25.5143 22.6667 26.5768 21.3564 26.5768C20.046 26.5768 18.9835 25.5143 18.9835 24.204C18.9835 22.8936 20.046 21.8311 21.3564 21.8311C22.6667 21.8311 23.7292 22.8936 23.7292 24.204Z" fill="#1A473F"/>
</g>
<path id="Vector_12" d="M25.6266 7.59375C26.8757 7.59375 27.7845 8.76029 27.4594 9.96665L25.0566 18.5282C24.8336 19.3568 24.0818 19.9329 23.2238 19.9329H7.11877L4.66658 7.59375H25.6266Z" fill="#28A487"/>
<path id="Vector_13" d="M6.729 20.4074H23.2238C24.2944 20.4074 25.2363 19.6853 25.5149 18.6513L27.9163 10.0947C28.11 9.37593 27.9638 8.63114 27.5161 8.04697C27.0642 7.45744 26.3755 7.11914 25.6266 7.11914H4.08819L6.729 20.4074ZM25.6266 8.06824C26.0778 8.06824 26.4918 8.27103 26.7625 8.62414C27.0292 8.97223 27.1161 9.4164 27.0012 9.84302L24.5995 18.3997C24.4313 19.0249 23.8659 19.4583 23.2238 19.4583H7.50852L5.245 8.06824H25.6266Z" fill="#28A487"/>
<path id="Vector_14" d="M2.84741 5.22061C2.84741 6.00702 2.21003 6.64435 1.42367 6.64435C0.637267 6.64435 -6.22272e-05 6.00697 -6.22272e-05 5.22061C-6.22272e-05 4.4342 0.637322 3.79688 1.42367 3.79688C2.21008 3.79687 2.84741 4.4342 2.84741 5.22061Z" fill="#FE5E02"/>
<g id="Group_5">
<path id="Vector_15" d="M10.441 25.1532C10.9649 25.1532 11.3901 24.7279 11.3901 24.204C11.3901 23.6801 10.9649 23.2549 10.441 23.2549C9.91702 23.2549 9.49182 23.6801 9.49182 24.204C9.49177 24.728 9.91702 25.1532 10.441 25.1532Z" fill="white"/>
<path id="Vector_16" d="M21.3563 25.1532C21.8802 25.1532 22.3054 24.7279 22.3054 24.204C22.3054 23.6801 21.8802 23.2549 21.3563 23.2549C20.8324 23.2549 20.4071 23.6801 20.4071 24.204C20.4071 24.728 20.8324 25.1532 21.3563 25.1532Z" fill="white"/>
</g>
</g>
</g>
</svg>
