<svg width="39" height="25" viewBox="0 0 39 25" fill="none" xmlns="http://www.w3.org/2000/svg">
<g id="Group">
<path id="Vector" d="M35.8161 14.2482C35.1779 14.7905 34.5026 15.171 33.8119 15.3957C33.7191 15.4256 33.6263 15.4535 33.5325 15.4782C32.0778 15.8586 30.5705 15.5463 29.2209 14.5606C28.9292 14.3472 28.6446 14.1029 28.3693 13.8266C28.2797 13.7359 28.19 13.642 28.1023 13.5461L22.5247 7.3912C27.1425 4.50239 30.7035 4.44878 32.1087 4.58075C33.7418 5.89937 35.0821 7.35511 36.1532 8.7356C37.3275 10.2491 37.1543 13.1121 35.8151 14.2493L35.8161 14.2482Z" fill="#449787"/>
<path id="Vector_2" opacity="0.2" d="M21.9051 24.8289C30.2097 24.8289 36.9419 24.5377 36.9419 24.1784C36.9419 23.8191 30.2097 23.5278 21.9051 23.5278C13.6005 23.5278 6.86823 23.8191 6.86823 24.1784C6.86823 24.5377 13.6005 24.8289 21.9051 24.8289Z" fill="black"/>
<path id="Vector_3" opacity="0.3" d="M33.5325 15.4782C32.0778 15.8587 30.5705 15.5463 29.2209 14.5607C28.9291 14.3472 28.6446 14.1029 28.3693 13.8266C29.4426 13.3946 30.6096 13.3606 31.6654 13.8194C31.6788 13.8256 31.6932 13.8317 31.7056 13.8379C31.7056 13.8379 31.7087 13.84 31.7097 13.84C31.7107 13.84 31.7128 13.8421 31.7138 13.8421C32.4881 14.1916 33.1026 14.7658 33.5325 15.4793V15.4782Z" fill="#1A473F"/>
<path id="Vector_4" d="M20.604 21.561C20.604 21.561 20.5978 21.561 20.5947 21.561C20.5947 21.561 20.6009 21.561 20.604 21.561Z" stroke="#232323" stroke-width="0.0195886" stroke-miterlimit="10"/>
<g id="Group_2">
<path id="Vector_5" d="M38.1143 20.7796C36.4616 24.4746 31.1448 24.3715 31.1448 24.3715L30.4128 24.0478L30.6407 23.7498C29.7097 22.5034 27.9271 19.5774 29.1818 16.7721C29.7551 15.4896 30.9541 14.7277 32.0985 14.8102L32.1129 14.6689L32.8686 15.003C33.7367 15.3927 34.2553 16.2773 34.3172 17.2804C34.8378 16.8691 35.4523 16.6422 36.0595 16.6474L36.2441 16.5216C36.2441 16.5216 36.908 16.8144 36.9781 16.8464C37.0616 16.8845 37.142 16.9258 37.2194 16.9722H37.2204C38.3699 17.665 38.7751 19.3032 38.1153 20.7785L38.1143 20.7796Z" fill="#CE2521"/>
<path id="Vector_6" d="M37.6926 18.7937L28.1468 19.7298C27.9313 18.6916 27.9509 17.5596 28.4488 16.4472C29.1489 14.8811 30.784 14.0904 32.1119 14.6688C32.1202 14.6719 32.1274 14.676 32.1356 14.6791C32.1356 14.6791 32.1377 14.6791 32.1387 14.6801C32.1387 14.6801 32.1397 14.6801 32.1408 14.6811C33.0058 15.0719 33.5223 15.9544 33.5842 16.9565C33.7759 16.805 33.9811 16.6781 34.1935 16.5792C34.8533 16.2709 35.5884 16.2276 36.2451 16.5225C36.2461 16.5225 36.2482 16.5235 36.2492 16.5245C36.2534 16.5266 36.2565 16.5276 36.2606 16.5297C37.1184 16.9225 37.6318 17.7988 37.6936 18.7947L37.6926 18.7937Z" fill="#DB4642"/>
<path id="Vector_7" d="M37.3916 20.4342C37.3885 20.4415 37.3854 20.4487 37.3823 20.4549C37.3792 20.4621 37.3751 20.4703 37.372 20.4775C36.6452 22.0807 35.2265 22.9643 33.8584 23.4509C32.1016 24.0757 30.4294 24.0468 30.4139 24.0458C30.4139 24.0458 30.4098 24.0416 30.4016 24.0324C30.3933 24.0241 30.382 24.0107 30.3675 23.9942C30.3675 23.9942 30.3665 23.9932 30.3655 23.9921C30.2273 23.8354 29.8098 23.3416 29.3644 22.6271C29.3273 22.5673 29.2902 22.5065 29.253 22.4446C29.1015 22.1921 28.9499 21.9158 28.8066 21.6199L28.5252 20.926L28.3592 20.5157C28.3334 20.4363 28.3087 20.3559 28.285 20.2755C28.2334 20.0971 28.187 19.9146 28.1489 19.7301L37.6947 18.7939C37.7277 19.3249 37.6329 19.8899 37.3937 20.4342H37.3916Z" fill="#F65E53"/>
<g id="Group_3">
<path id="Vector_8" d="M30.1066 15.3986C30.0407 16.0554 29.454 16.5358 28.7973 16.4688C28.6839 16.4575 28.5756 16.4307 28.4746 16.3904C28.819 15.6523 29.3726 15.0924 30.0015 14.7749C30.0891 14.9625 30.1283 15.177 30.1066 15.3976V15.3986Z" fill="#FF908D"/>
<path id="Vector_9" d="M33.145 23.6735C33.4017 23.6044 33.6656 23.523 33.9295 23.4261C33.6367 23.4127 33.3615 23.5065 33.145 23.6735Z" fill="#FF908D"/>
<path id="Vector_10" d="M32.2934 22.9878C32.3593 22.33 31.8799 21.7444 31.2232 21.6784C30.5654 21.6125 29.9798 22.0919 29.9138 22.7496C29.853 23.3589 30.2603 23.9074 30.8448 24.0363C31.0335 24.027 31.2758 24.0084 31.5572 23.9755C31.9531 23.8126 32.248 23.4435 32.2944 22.9878H32.2934Z" fill="#FF908D"/>
<path id="Vector_11" d="M29.5211 21.2351C29.587 20.5774 29.1076 19.9918 28.4509 19.9258C28.3622 19.9165 28.2756 19.9175 28.1911 19.9279C28.3808 20.7227 28.7014 21.4568 29.0417 22.0785C29.3035 21.8847 29.486 21.5857 29.5221 21.2351H29.5211Z" fill="#FF908D"/>
<path id="Vector_12" d="M37.3534 19.3454C36.6956 19.2794 36.11 19.7588 36.044 20.4166C35.9946 20.9146 36.2575 21.3723 36.674 21.593C36.9503 21.261 37.1905 20.8836 37.3823 20.4558C37.5338 20.1156 37.6297 19.7671 37.673 19.4238C37.573 19.3836 37.4658 19.3568 37.3534 19.3465V19.3454Z" fill="#FF908D"/>
<path id="Vector_13" d="M29.8139 18.3175C29.7479 18.9742 29.1613 19.4536 28.5045 19.3876C28.3468 19.3722 28.1994 19.3258 28.0664 19.2557C27.9736 18.5505 28.0014 17.8113 28.219 17.0721C28.3819 17.0133 28.5602 16.9896 28.7437 17.0071C29.4005 17.0731 29.8799 17.6597 29.8139 18.3165V18.3175Z" fill="#F65E53"/>
<path id="Vector_14" d="M35.6513 18.903C35.6482 18.9339 35.6441 18.9648 35.6379 18.9958L33.347 19.2205C33.28 19.0494 33.2511 18.8597 33.2707 18.6638C33.3367 18.0071 33.9233 17.5266 34.5801 17.5936C35.2368 17.6596 35.7162 18.2463 35.6502 18.903H35.6513Z" fill="#F65E53"/>
<path id="Vector_15" d="M35.6389 18.9957C35.5296 19.605 34.9678 20.0359 34.3419 19.973C33.8801 19.9266 33.5069 19.6235 33.3481 19.2194L35.6389 18.9946V18.9957Z" fill="#FF908D"/>
<path id="Vector_16" d="M37.6926 18.7936L37.505 18.8121C37.473 18.8121 37.44 18.8101 37.4081 18.8059C36.7513 18.74 36.2709 18.1533 36.3379 17.4966C36.3668 17.2131 36.4915 16.9636 36.6771 16.7749C37.2843 17.2285 37.6431 17.9698 37.6936 18.7925L37.6926 18.7936Z" fill="#F65E53"/>
<path id="Vector_17" d="M37.6926 18.8012C37.6308 18.8104 37.5679 18.8135 37.504 18.8125L37.6916 18.7939C37.6916 18.7939 37.6916 18.7981 37.6916 18.8012H37.6926Z" fill="#F65E53"/>
<path id="Vector_18" d="M34.2883 20.5114C33.6305 20.4455 33.045 20.9249 32.979 21.5826C32.913 22.2404 33.3924 22.826 34.0502 22.892C34.7079 22.958 35.2935 22.4786 35.3595 21.8218C35.4255 21.1641 34.9461 20.5785 34.2893 20.5125L34.2883 20.5114Z" fill="#FF908D"/>
<path id="Vector_19" d="M35.8328 16.3831C35.6204 16.8233 35.1492 17.1058 34.6348 17.0543C34.3554 17.0264 34.109 16.9048 33.9213 16.7233C34.5162 16.3676 35.1946 16.2346 35.8317 16.3831H35.8328Z" fill="#F65E53"/>
<path id="Vector_20" d="M32.4089 19.3122L30.2799 19.5215C30.4686 19.0297 30.9676 18.7049 31.5161 18.7606C31.8975 18.7987 32.2192 19.0122 32.4089 19.3132V19.3122Z" fill="#F65E53"/>
<path id="Vector_21" d="M32.5862 20.0693C32.5202 20.726 31.9336 21.2054 31.2769 21.1395C30.6201 21.0735 30.1407 20.4868 30.2067 19.8301C30.218 19.7219 30.2428 19.6177 30.2799 19.5208L32.4089 19.3115C32.546 19.5291 32.6151 19.793 32.5872 20.0683L32.5862 20.0693Z" fill="#FF908D"/>
<path id="Vector_22" d="M32.7171 15.0554C32.4831 15.2379 32.181 15.3348 31.8625 15.3018C31.3841 15.2533 30.9995 14.9296 30.8511 14.5028C31.2851 14.4409 31.7253 14.4935 32.1357 14.677C32.3522 14.7739 32.546 14.9018 32.7171 15.0544V15.0554Z" fill="#FF908D"/>
<path id="Vector_23" d="M32.879 17.1505C32.813 17.8073 32.2264 18.2877 31.5696 18.2207C30.9119 18.1547 30.4325 17.5681 30.4984 16.9114C30.5644 16.2546 31.1511 15.7742 31.8078 15.8412C32.4655 15.9072 32.945 16.4938 32.8779 17.1505H32.879Z" fill="#F65E53"/>
</g>
<path id="Vector_24" d="M34.9378 20.6627L33.4182 19.9853C33.3481 19.9544 33.2986 19.8864 33.2893 19.8101L33.2522 19.4936C33.2522 19.4936 33.2512 19.4833 33.2408 19.4791C33.2305 19.476 33.2254 19.4812 33.2233 19.4833L32.4171 20.2524C32.347 20.3194 32.247 20.3328 32.1624 20.2874C32.0769 20.2421 32.0325 20.1513 32.049 20.0565L32.3759 18.1419C32.3759 18.1419 32.3779 18.1296 32.3666 18.1244C32.3552 18.1182 32.349 18.1244 32.347 18.1275L31.4624 18.9667C31.3975 19.0286 31.3026 19.0441 31.2212 19.008L29.951 18.442L30.0335 18.2564L31.3036 18.8224C31.3098 18.8255 31.317 18.8245 31.3222 18.8193L32.2068 17.9801C32.2769 17.9141 32.3769 17.9007 32.4614 17.9461C32.546 17.9914 32.5913 18.0822 32.5748 18.177L32.248 20.0915C32.248 20.0915 32.2459 20.1039 32.2573 20.1091C32.2686 20.1152 32.2748 20.1091 32.2769 20.106L33.0831 19.3369C33.1439 19.2791 33.2305 19.2606 33.3099 19.2894C33.3893 19.3183 33.4439 19.3874 33.4532 19.4709L33.4903 19.7874C33.4903 19.7936 33.4945 19.7987 33.5007 19.8008L35.0203 20.4782L34.9378 20.6637V20.6627Z" fill="white"/>
</g>
<g id="Group_4">
<g id="Group_5">
<path id="Vector_25" d="M25.0652 16.3575C25.0652 16.3493 25.0652 16.34 25.0672 16.3307C25.0827 16.2431 25.1662 16.1709 25.2538 16.1709H26.4766C26.556 16.1709 26.6116 16.2286 26.6116 16.3039C26.6116 16.3121 26.6116 16.3214 26.6096 16.3307C26.5941 16.4194 26.5106 16.4905 26.423 16.4905H25.1992C25.1198 16.4905 25.0641 16.4328 25.0641 16.3575H25.0652Z" fill="#BB41BF"/>
<path id="Vector_26" d="M28.0282 19.136C28.287 19.0175 28.485 18.8958 28.618 18.77L27.7777 23.7249C27.7231 24.0476 27.4169 24.3095 27.0942 24.3095H22.9311C22.797 24.3095 22.6805 24.2641 22.595 24.1878L22.5898 24.1837L22.1506 23.8002C22.1506 23.8002 22.1475 23.7981 22.1455 23.796L22.13 23.7826L22.4702 23.3352L22.5249 23.263L23.0362 20.2464C23.6899 20.1629 24.2982 20.0721 24.8569 19.9763C24.9662 19.9567 25.0745 19.9381 25.1796 19.9185C25.4034 19.8773 25.6168 19.835 25.823 19.7917C26.522 19.6443 27.1138 19.4855 27.5818 19.3185C27.7458 19.2597 27.8942 19.1999 28.0272 19.1391L28.0282 19.136Z" fill="#BB41BF"/>
<path id="Vector_27" d="M25.0652 16.3575C25.0652 16.3493 25.0652 16.34 25.0672 16.3307C25.0827 16.2431 25.1662 16.1709 25.2538 16.1709H26.4766C26.556 16.1709 26.6116 16.2286 26.6116 16.3039C26.6116 16.3121 26.6116 16.3214 26.6096 16.3307C26.5941 16.4194 26.5106 16.4905 26.423 16.4905H25.1992C25.1198 16.4905 25.0641 16.4328 25.0641 16.3575H25.0652Z" fill="#FF70FE"/>
<path id="Vector_28" d="M28.0282 19.1362L27.3189 23.323C27.2643 23.6457 26.9581 23.9076 26.6354 23.9076H22.4723C22.3454 23.9076 22.2351 23.8674 22.1516 23.7994C22.1496 23.7983 22.1485 23.7973 22.1465 23.7952L22.131 23.7818C22.0145 23.6756 21.9557 23.5096 21.9877 23.3241L22.498 20.3115C22.6413 20.2951 22.7826 20.2775 22.9218 20.26C22.9599 20.2548 22.9981 20.2507 23.0362 20.2456C23.6898 20.1621 24.2981 20.0713 24.8569 19.9754C24.9662 19.9559 25.0745 19.9373 25.1796 19.9177C25.4033 19.8765 25.6167 19.8342 25.8229 19.7909C26.5219 19.6435 27.1137 19.4847 27.5818 19.3177C27.7457 19.2589 27.8942 19.1991 28.0272 19.1383L28.0282 19.1362Z" fill="#FF70FE"/>
<path id="Vector_29" d="M25.2002 16.4905C25.1209 16.4905 25.0652 16.4328 25.0652 16.3575C25.0652 16.3493 25.0652 16.34 25.0672 16.3307C25.0827 16.2431 25.1662 16.1709 25.2539 16.1709H26.4766C26.556 16.1709 26.6117 16.2286 26.6117 16.3039C26.6117 16.3121 26.6117 16.3214 26.6096 16.3307C26.5941 16.4194 26.5106 16.4905 26.423 16.4905H25.1992H25.2002Z" fill="#112130"/>
<path id="Vector_30" d="M27.5829 19.3154L27.0344 22.5496L25.1817 19.9155C25.4054 19.8742 25.6188 19.832 25.825 19.7886C26.524 19.6412 27.1158 19.4824 27.5839 19.3154H27.5829Z" fill="#112130"/>
<path id="Vector_31" d="M27.0344 22.5507L26.9406 23.1022C26.9014 23.3311 26.6839 23.5177 26.455 23.5177H22.7857C22.6414 23.5177 22.5269 23.4445 22.4713 23.3332C22.4383 23.2672 22.4259 23.1878 22.4403 23.1022L22.9218 20.2588C22.96 20.2536 22.9981 20.2495 23.0362 20.2444C23.6899 20.1608 24.2982 20.0701 24.857 19.9742C24.9662 19.9547 25.0745 19.9361 25.1797 19.9165L27.0323 22.5507H27.0344Z" fill="#182733"/>
<path id="Vector_32" d="M26.6127 16.3039C26.6127 16.3121 26.6127 16.3214 26.6106 16.3307C26.5952 16.4194 26.5116 16.4905 26.424 16.4905H25.2002C25.1209 16.4905 25.0652 16.4328 25.0652 16.3575C25.0652 16.3493 25.0652 16.34 25.0672 16.3307C25.0827 16.2431 25.1662 16.1709 25.2539 16.1709H26.4766C26.556 16.1709 26.6117 16.2286 26.6117 16.3039H26.6127Z" fill="#FF70FE"/>
</g>
<path id="Vector_33" d="M25.1816 19.9163C25.0754 19.9359 24.9682 19.9555 24.8589 19.974C24.3001 20.071 23.6908 20.1617 23.0382 20.2442C23.0001 20.2493 22.9619 20.2545 22.9238 20.2586L23.4094 17.3945L23.5001 17.5234L25.1826 19.9153L25.1816 19.9163Z" fill="#112130"/>
<path id="Vector_34" d="M27.8622 15.8009C27.8312 15.7927 27.7993 15.7886 27.7652 15.7886H24.095C23.8661 15.7886 23.6485 15.9752 23.6094 16.2041L23.5413 16.6061L23.4073 17.3948L23.498 17.5237L25.1806 19.9156C25.4043 19.8743 25.6177 19.8321 25.8239 19.7888C26.5229 19.6413 27.1147 19.4826 27.5828 19.3156L27.8776 17.5814L28.1106 16.2041C28.1436 16.0092 28.0364 15.8453 27.8622 15.8009ZM26.6105 16.3309C26.5951 16.4195 26.5116 16.4907 26.4239 16.4907H25.2002C25.1208 16.4907 25.0651 16.4329 25.0651 16.3577C25.0651 16.3494 25.0651 16.3401 25.0672 16.3309C25.0826 16.2432 25.1661 16.1711 25.2538 16.1711H26.4765C26.5559 16.1711 26.6116 16.2288 26.6116 16.3041C26.6116 16.3123 26.6116 16.3216 26.6095 16.3309H26.6105Z" fill="#07131C"/>
<path id="Vector_35" d="M28.5632 15.9835L28.2612 17.764L28.0282 19.1362C27.8952 19.1971 27.7467 19.2569 27.5828 19.3156L27.8776 17.5815L28.1106 16.2041C28.1436 16.0093 28.0364 15.8453 27.8622 15.801C27.8312 15.7928 27.7993 15.7886 27.7653 15.7886H24.095C23.8661 15.7886 23.6486 15.9752 23.6094 16.2041L23.5413 16.6062L23.4073 17.3949L22.9217 20.259C22.7825 20.2765 22.6413 20.294 22.498 20.3105L23.1351 16.5516L23.231 15.9835C23.2857 15.6608 23.5919 15.3989 23.9146 15.3989H28.0776C28.2096 15.3989 28.3241 15.4433 28.4096 15.5165C28.4117 15.5185 28.4148 15.5206 28.4168 15.5226C28.5354 15.6299 28.5942 15.7959 28.5632 15.9835Z" fill="#BB41BF"/>
<path id="Vector_36" d="M28.8777 15.9256L28.8592 15.9091L28.4179 15.5225C28.5365 15.6297 28.5952 15.7957 28.5643 15.9833L28.2622 17.7638L28.0292 19.136C28.288 19.0175 28.486 18.8958 28.619 18.77L28.7262 18.136L29.0231 16.3854C29.0551 16.1988 28.9953 16.0328 28.8767 15.9256H28.8777ZM28.6674 17.57L28.5952 17.9927L28.521 18.4298C28.5179 18.4525 28.4901 18.4618 28.4736 18.4463L28.3963 18.3793C28.3777 18.3628 28.3684 18.3381 28.3726 18.3133L28.4468 17.8772L28.519 17.4525C28.5231 17.4298 28.5499 17.4205 28.5664 17.436L28.6437 17.503C28.6623 17.5195 28.6715 17.5442 28.6674 17.569V17.57Z" fill="#9D28A3"/>
<path id="Vector_37" d="M28.6673 17.5699L28.5952 17.9926L28.5209 18.4297C28.5179 18.4524 28.49 18.4617 28.4735 18.4462L28.3962 18.3792C28.3776 18.3627 28.3684 18.338 28.3725 18.3132L28.4467 17.8771L28.5189 17.4524C28.523 17.4297 28.5498 17.4204 28.5663 17.4359L28.6436 17.5029C28.6622 17.5194 28.6715 17.5441 28.6673 17.5689V17.5699Z" fill="#0B1C2B"/>
<g id="Group_6">
<path id="Vector_38" d="M24.7168 18.2349C24.7539 18.2874 24.756 18.2864 24.7931 18.338C24.8302 18.3895 24.8323 18.3895 24.8694 18.4411C24.9065 18.4926 24.9158 18.4864 24.9529 18.539C24.99 18.5916 24.9663 18.6081 25.0034 18.6607C25.0405 18.7132 25.0611 18.6988 25.0983 18.7514C25.1354 18.804 25.1354 18.804 25.1725 18.8565C25.2096 18.9091 25.2086 18.9102 25.2457 18.9627C25.2828 19.0153 25.2684 19.0256 25.3055 19.0782C25.3426 19.1308 25.3591 19.1194 25.3962 19.172C25.4333 19.2246 25.4189 19.2349 25.456 19.2875C25.4931 19.3401 25.4962 19.338 25.5333 19.3906C25.5704 19.4432 25.5735 19.4411 25.6117 19.4937C25.6498 19.5463 25.6478 19.5473 25.6859 19.5999C25.7241 19.6525 25.723 19.6535 25.7601 19.7061C25.7973 19.7587 25.8004 19.7566 25.8385 19.8102" stroke="white" stroke-width="0.221661" stroke-miterlimit="10"/>
<path id="Vector_39" d="M24.2487 18.9854C24.2838 19.041 24.2704 19.0503 24.3054 19.106C24.3405 19.1617 24.326 19.1709 24.3611 19.2266C24.3961 19.2823 24.4209 19.2668 24.457 19.3225C24.4931 19.3782 24.4745 19.3895 24.5096 19.4452C24.5446 19.5008 24.5384 19.505 24.5735 19.5617C24.6085 19.6184 24.6261 19.606 24.6611 19.6617C24.6962 19.7173 24.6848 19.7246 24.7199 19.7802C24.7549 19.8359 24.7797 19.8204 24.8147 19.8761C24.8498 19.9318 24.8199 19.9514 24.8549 20.0071C24.89 20.0627 24.9127 20.0493 24.9477 20.105C24.9828 20.1607 24.9817 20.1617 25.0178 20.2174C25.0539 20.273 25.0529 20.2741 25.0879 20.3298C25.123 20.3854 25.1116 20.3937 25.1467 20.4493C25.1818 20.505 25.2065 20.4896 25.2416 20.5463C25.2766 20.603 25.2488 20.6195 25.2838 20.6751C25.3189 20.7308 25.3426 20.7164 25.3776 20.772C25.4127 20.8277 25.3972 20.838 25.4323 20.8947C25.4673 20.9514 25.4859 20.9391 25.522 20.9958C25.5581 21.0525 25.5467 21.0597 25.5818 21.1154" stroke="white" stroke-width="0.221661" stroke-miterlimit="10"/>
<path id="Vector_40" d="M24.3436 20.5762C24.3745 20.6329 24.3786 20.6308 24.4095 20.6875C24.4405 20.7442 24.4415 20.7442 24.4724 20.8009C24.5034 20.8576 24.5075 20.8556 24.5384 20.9123C24.5694 20.969 24.559 20.9752 24.591 21.0319C24.623 21.0886 24.624 21.0875 24.656 21.1442C24.6879 21.2009 24.6941 21.1979 24.725 21.2546C24.756 21.3113 24.7549 21.3123 24.7859 21.369C24.8168 21.4257 24.8127 21.4288 24.8436 21.4865C24.8745 21.5443 24.8807 21.5412 24.9116 21.5979" stroke="white" stroke-width="0.221661" stroke-miterlimit="10"/>
</g>
</g>
<path id="Vector_41" d="M21.1917 23.5116C21.1917 23.5116 21.1855 23.5065 21.1824 23.5044" stroke="#FF70FE" stroke-width="0.0371153" stroke-miterlimit="10"/>
<path id="Vector_42" d="M19.6019 20.1763C19.6019 20.1763 19.5988 20.1773 19.5947 20.1804" stroke="#FF70FE" stroke-width="0.0371153" stroke-miterlimit="10"/>
<g id="Group_7">
<g id="Group_8">
<g id="Group_9">
<path id="Vector_43" d="M19.8967 20.8453C19.5688 22.1454 18.9698 23.2331 18.2543 23.8775C17.8141 24.2744 17.3305 24.5043 16.8377 24.5125H16.8109C15.248 24.5125 14.2005 22.2815 14.4696 19.5288C14.484 19.3834 14.5015 19.2401 14.5222 19.0978C14.5768 18.7226 14.6541 18.3596 14.751 18.0122C15.0809 18.5411 15.2985 19.1483 15.3676 19.7999C15.3841 19.9504 15.3923 20.1041 15.3923 20.2597C15.3923 20.401 15.3851 20.5402 15.3717 20.6773C15.4016 20.6794 15.4325 20.6804 15.4624 20.6824C15.7119 20.6969 15.9645 20.7103 16.2202 20.7237C16.4099 20.733 16.6016 20.7422 16.7944 20.7505C16.9192 20.7556 17.0439 20.7608 17.1687 20.767C17.3666 20.7752 17.5656 20.7824 17.7656 20.7897C17.9976 20.7979 18.2306 20.8051 18.4657 20.8123C18.9347 20.8258 19.4111 20.8371 19.8946 20.8443L19.8967 20.8453Z" fill="#223544"/>
<path id="Vector_44" d="M23.3329 20.8524C22.7988 22.9628 21.5513 24.5134 20.2482 24.5134H16.8377C17.3295 24.5051 17.814 24.2763 18.2543 23.8783C18.9698 23.2339 19.5688 22.1452 19.8966 20.8462C20.4441 20.8555 20.9987 20.8606 21.5606 20.8617C21.6266 20.8617 21.6936 20.8617 21.7596 20.8617H21.8297C22.3359 20.8617 22.837 20.8586 23.3319 20.8524H23.3329Z" fill="#112130"/>
<path id="Vector_45" d="M20.3203 24.5137H20.2482" stroke="black" stroke-width="0.214444" stroke-miterlimit="10"/>
<path id="Vector_46" d="M22.3267 14.9719C22.3081 14.9554 22.2895 14.941 22.27 14.9255L22.2968 14.9121L22.3256 14.9719H22.3267Z" fill="#223544"/>
<path id="Vector_47" d="M21.9462 23.0115L22.0246 23.1888L20.0018 24.0806L19.9832 24.0394C19.8946 24.1126 19.8049 24.1806 19.7121 24.2414L19.6059 24.0796C19.91 23.8795 20.1946 23.6032 20.4523 23.2671L19.3214 22.5857L19.4214 22.4197L20.5688 23.1104C20.8534 22.7063 21.1008 22.2279 21.2998 21.697L19.8636 21.166L19.9307 20.9846L21.3648 21.5145C21.438 21.3031 21.5039 21.0856 21.5606 20.8608C21.6266 20.8608 21.6936 20.8608 21.7596 20.8608C21.6235 21.4052 21.44 21.9166 21.2173 22.3764L22.8432 21.4433L22.9401 21.6114L21.0524 22.695C20.8328 23.0929 20.5822 23.4434 20.308 23.7342L21.9462 23.0115Z" fill="#223544"/>
</g>
<g id="Group_10">
<path id="Vector_48" d="M16.2222 20.7248L15.6243 21.6156C15.5439 21.3383 15.4892 21.0238 15.4645 20.6836C15.714 20.698 15.9666 20.7114 16.2222 20.7248Z" fill="#112130"/>
<path id="Vector_49" d="M17.3575 22.6289C17.1544 22.7773 16.9399 22.8557 16.7265 22.8485C16.5286 22.8423 16.3481 22.7619 16.1873 22.6227L16.776 20.8071C16.7822 20.7876 16.7894 20.769 16.7966 20.7515C16.9214 20.7566 17.0461 20.7618 17.1709 20.768C17.1709 20.768 17.1719 20.7752 17.1729 20.7793C17.1729 20.7824 17.174 20.7865 17.175 20.7906C17.176 20.7989 17.1771 20.8061 17.1781 20.8144L17.3585 22.6289H17.3575Z" fill="#112130"/>
<path id="Vector_50" d="M18.4689 20.8132C18.3751 21.1122 18.2637 21.3885 18.1369 21.6349L17.7689 20.7905C18.0008 20.7988 18.2338 20.806 18.4689 20.8132Z" fill="#112130"/>
<g id="&#38;lt;Radial Repeat&#38;gt;">
<path id="Vector_51" d="M16.2224 20.7246C16.4121 20.7339 16.6038 20.7432 16.7966 20.7514C16.7894 20.7689 16.7822 20.7875 16.776 20.8071L16.1873 22.6226C16.0811 22.5288 15.9821 22.4061 15.8966 22.2618L15.8883 22.2505L15.8244 22.135C15.7471 21.9824 15.6801 21.8092 15.6244 21.6164L16.2224 20.7256V20.7246Z" fill="#67869B"/>
<path id="Vector_52" d="M18.1369 21.6351C18.0884 21.7341 18.0358 21.8259 17.9822 21.9155C17.7935 22.2238 17.5822 22.4692 17.3574 22.629L17.177 20.8145C17.177 20.8062 17.175 20.798 17.1739 20.7907C17.1729 20.7835 17.1719 20.7753 17.1708 20.7681C17.3688 20.7763 17.5678 20.7835 17.7678 20.7907L18.1358 21.6351H18.1369Z" fill="#67869B"/>
</g>
</g>
</g>
<path id="Vector_53" d="M20.1255 19.5286C20.0812 19.9843 20.0029 20.4256 19.8967 20.8452C19.4142 20.8369 18.9378 20.8266 18.4677 20.8132C18.5863 20.4349 18.6749 20.0194 18.7255 19.5822C18.7337 19.509 18.7409 19.4358 18.7461 19.3637C18.7966 18.7719 18.7657 18.2193 18.6688 17.7471C18.6296 17.5584 18.5801 17.3821 18.5213 17.2203C18.3687 16.7986 18.1481 16.4852 17.8801 16.3264C17.7625 16.2563 17.6337 16.2161 17.4986 16.2099H17.4759C17.3326 16.2078 17.1893 16.2439 17.0491 16.313C16.7563 16.4563 16.4759 16.7491 16.2346 17.144C16.1305 17.3151 16.0325 17.5058 15.9439 17.7131C15.8645 17.8966 15.7944 18.0914 15.7315 18.2987L15.6397 18.6368L15.6377 18.6482C15.5851 18.8667 15.5418 19.0946 15.5109 19.3296C15.5026 19.3771 15.4975 19.4266 15.4913 19.476C15.4428 19.9008 15.4346 20.308 15.4624 20.6844C15.4315 20.6823 15.4016 20.6813 15.3717 20.6792C15.3851 20.5421 15.3923 20.4029 15.3923 20.2617C15.3923 20.106 15.3841 19.9524 15.3676 19.8018C15.2985 19.1513 15.081 18.544 14.751 18.0141C14.9531 17.2873 15.2408 16.6326 15.5851 16.0934C16.1934 15.1397 16.978 14.5459 17.7842 14.5459H17.811C18.3007 14.5541 18.7409 14.783 19.1028 15.181C19.2946 15.3903 19.4647 15.647 19.61 15.9439C20.0544 16.8501 20.2616 18.1224 20.1245 19.5307L20.1255 19.5286Z" fill="#1B2D3A"/>
<path id="Vector_54" d="M18.7472 19.365L17.7832 19.531C17.6945 19.5465 17.6131 19.6723 17.5688 19.8403C17.5667 19.8486 17.5636 19.8568 17.5616 19.8651C17.5162 20.03 17.5162 20.2125 17.5677 20.33L17.7698 20.793C17.5688 20.7857 17.3698 20.7785 17.1729 20.7703C17.1718 20.7631 17.1698 20.7548 17.1687 20.7486V20.7466C17.1667 20.7342 17.1636 20.7228 17.1595 20.7115C17.1574 20.7033 17.1543 20.695 17.1512 20.6878C17.1502 20.6847 17.1492 20.6816 17.1471 20.6785C17.145 20.6744 17.144 20.6703 17.1419 20.6661C17.1399 20.66 17.1368 20.6548 17.1337 20.6496C17.1306 20.6445 17.1275 20.6393 17.1244 20.6342C17.1244 20.6342 17.1244 20.6342 17.1244 20.6332C17.1213 20.629 17.1193 20.6239 17.1162 20.6208C17.1059 20.6063 17.0945 20.595 17.0821 20.5857C17.078 20.5826 17.0739 20.5795 17.0698 20.5775C17.0656 20.5754 17.0615 20.5734 17.0574 20.5713C17.0574 20.5713 17.0574 20.5713 17.0564 20.5713C17.0522 20.5692 17.0481 20.5682 17.044 20.5672C17.0388 20.5651 17.0337 20.5651 17.0285 20.5641C17.0244 20.5641 17.0203 20.5641 17.0172 20.5641H16.9955H16.9945C16.9904 20.5641 16.9863 20.5641 16.9821 20.5641C16.9811 20.5641 16.9801 20.5641 16.979 20.5641C16.976 20.5641 16.9729 20.5651 16.9687 20.5661C16.9687 20.5661 16.9667 20.5661 16.9656 20.5661C16.9615 20.5661 16.9574 20.5682 16.9533 20.5703C16.9491 20.5713 16.944 20.5734 16.9399 20.5764C16.9347 20.5785 16.9296 20.5816 16.9244 20.5847C16.9203 20.5868 16.9172 20.5899 16.9131 20.5929C16.91 20.596 16.9058 20.5991 16.9017 20.6022C16.8842 20.6177 16.8677 20.6362 16.8522 20.6579C16.8502 20.661 16.8481 20.6641 16.846 20.6672C16.8409 20.6734 16.8368 20.6806 16.8326 20.6878C16.8306 20.6909 16.8285 20.695 16.8265 20.6991C16.8203 20.7105 16.8141 20.7218 16.8089 20.7342C16.8069 20.7373 16.8058 20.7404 16.8038 20.7445C16.8017 20.7497 16.7997 20.7538 16.7976 20.7589C16.6048 20.7507 16.413 20.7414 16.2233 20.7321L16.4842 20.3424C16.5625 20.2259 16.6017 20.0403 16.5924 19.8702C16.5924 19.864 16.5914 19.8568 16.5904 19.8506C16.5832 19.6836 16.5285 19.5599 16.446 19.5424L15.512 19.3372C15.5429 19.1021 15.5862 18.8753 15.6388 18.6557L15.6408 18.6444L15.7326 18.3062C15.7955 18.099 15.8656 17.9041 15.945 17.7206L16.6563 18.732C16.7203 18.8228 16.8151 18.8032 16.8976 18.697C16.9007 18.6918 16.9038 18.6877 16.9079 18.6825C16.9883 18.5836 17.044 18.4135 17.044 18.2423L17.0502 16.3206C17.1904 16.2515 17.3337 16.2144 17.477 16.2175H17.4997C17.6337 16.2226 17.7626 16.2628 17.8812 16.3329L17.4605 18.2341C17.4213 18.4073 17.4399 18.5815 17.4997 18.6836C17.5028 18.6887 17.5059 18.6918 17.5079 18.697C17.5646 18.8011 17.6533 18.8207 17.7368 18.7331L18.6699 17.7547C18.7678 18.2279 18.7977 18.7805 18.7472 19.3712V19.365Z" fill="#223544"/>
<path id="Vector_55" d="M16.4831 20.3349L16.2223 20.7246C15.9666 20.7112 15.714 20.6978 15.4645 20.6833C15.4367 20.307 15.4439 19.8998 15.4934 19.475C15.4985 19.4255 15.5047 19.376 15.513 19.3286L16.447 19.5338C16.5295 19.5513 16.5842 19.675 16.5914 19.842C16.5914 19.8482 16.5924 19.8554 16.5934 19.8616C16.6027 20.0317 16.5635 20.2183 16.4852 20.3338L16.4831 20.3349Z" fill="#0B1B28"/>
<path id="Vector_56" d="M17.0502 16.313L17.044 18.2347C17.044 18.4059 16.9883 18.575 16.9079 18.675C16.9048 18.6801 16.9017 18.6842 16.8976 18.6894C16.8151 18.7956 16.7202 18.8152 16.6563 18.7245L15.9449 17.7131C16.0336 17.5069 16.1316 17.3161 16.2357 17.144C16.4769 16.7481 16.7574 16.4563 17.0502 16.313Z" fill="#0B1B28"/>
<path id="Vector_57" d="M17.1708 20.768C17.045 20.7628 16.9202 20.7577 16.7965 20.7515C16.7986 20.7463 16.8006 20.7412 16.8027 20.7371C16.8048 20.734 16.8058 20.7309 16.8078 20.7268C16.813 20.7144 16.8192 20.703 16.8254 20.6917C16.8274 20.6876 16.8295 20.6845 16.8316 20.6804C16.8357 20.6731 16.8398 20.667 16.845 20.6597C16.847 20.6566 16.8491 20.6536 16.8512 20.6505C16.8666 20.6288 16.8831 20.6103 16.9006 20.5948C16.9048 20.5917 16.9089 20.5886 16.912 20.5855C16.9151 20.5824 16.9192 20.5804 16.9233 20.5773C16.9285 20.5742 16.9336 20.5711 16.9388 20.569C16.9429 20.5669 16.9481 20.5649 16.9522 20.5628C16.9563 20.5608 16.9604 20.5597 16.9646 20.5587C16.9656 20.5587 16.9666 20.5587 16.9677 20.5587C16.9707 20.5587 16.9738 20.5577 16.978 20.5566C16.979 20.5566 16.98 20.5566 16.9811 20.5566C16.9852 20.5566 16.9893 20.5566 16.9934 20.5566H17.014H17.0171C17.0213 20.5566 17.0254 20.5566 17.0285 20.5566C17.0336 20.5566 17.0388 20.5577 17.0439 20.5597C17.0481 20.5608 17.0522 20.5618 17.0563 20.5639C17.0563 20.5639 17.0563 20.5639 17.0573 20.5639C17.0615 20.5659 17.0656 20.568 17.0697 20.57C17.0738 20.5721 17.078 20.5752 17.0821 20.5783C17.0945 20.5876 17.1058 20.5989 17.1161 20.6133C17.1192 20.6175 17.1223 20.6216 17.1244 20.6257C17.1244 20.6257 17.1244 20.6257 17.1244 20.6267C17.1275 20.6319 17.1305 20.6371 17.1336 20.6422C17.1367 20.6474 17.1388 20.6525 17.1419 20.6587C17.1439 20.6628 17.145 20.667 17.147 20.6711C17.1481 20.6742 17.1491 20.6773 17.1512 20.6804C17.1543 20.6886 17.1563 20.6958 17.1594 20.7041C17.1625 20.7154 17.1656 20.7268 17.1687 20.7391C17.1687 20.7391 17.1687 20.7402 17.1687 20.7412C17.1697 20.7484 17.1718 20.7556 17.1728 20.7628L17.1708 20.768Z" fill="#0B1B28"/>
<path id="Vector_58" d="M18.6698 17.7474L17.7368 18.7258C17.6532 18.8134 17.5646 18.7938 17.5079 18.6897C17.5058 18.6846 17.5027 18.6815 17.4996 18.6763C17.4398 18.5742 17.4213 18.4 17.4605 18.2268L17.8811 16.3257C18.1502 16.4845 18.3698 16.7979 18.5224 17.2195C18.5811 17.3814 18.6316 17.5577 18.6698 17.7464V17.7474Z" fill="#0B1B28"/>
<path id="Vector_59" d="M18.7471 19.3648C18.742 19.437 18.7348 19.5091 18.7265 19.5834C18.676 20.0195 18.5873 20.435 18.4688 20.8144C18.2337 20.8082 18.0007 20.7999 17.7687 20.7917L17.5667 20.3288C17.5151 20.2123 17.5161 20.0288 17.5605 19.8638C17.5625 19.8555 17.5656 19.8473 17.5677 19.839C17.612 19.671 17.6935 19.5452 17.7821 19.5298L18.7461 19.3638L18.7471 19.3648Z" fill="#0B1B28"/>
<path id="Vector_60" d="M21.8298 18.3153C21.8473 18.7029 21.837 19.106 21.7968 19.5195C21.7906 19.5854 21.7834 19.6514 21.7752 19.7174L20.2266 19.2287L20.1679 19.4133L21.7484 19.9123C21.7133 20.1607 21.6679 20.404 21.6133 20.6422L21.5999 20.6504L21.6081 20.6649C21.5927 20.7309 21.5772 20.7958 21.5607 20.8608C20.9988 20.8597 20.4442 20.8546 19.8967 20.8453C20.0029 20.4257 20.0802 19.9844 20.1256 19.5287C20.2637 18.1204 20.0555 16.8482 19.6111 15.942C19.4658 15.6461 19.2957 15.3893 19.1039 15.179C18.742 14.7821 18.3018 14.5522 17.8121 14.5439H21.2215C21.6061 14.5439 21.9597 14.679 22.27 14.9244L21.204 15.4471C21.0019 15.1491 20.7669 14.9068 20.5029 14.7357L20.3978 14.8986C20.4761 14.9491 20.5514 15.0069 20.6246 15.0708L19.4823 14.912L19.4555 15.1038L20.8493 15.2976C21.004 15.476 21.1421 15.6863 21.2628 15.9224C21.3648 16.1224 21.4545 16.3409 21.5308 16.575L20.1565 16.2915L20.1173 16.4812L21.5947 16.7863C21.7081 17.1905 21.7844 17.6369 21.8174 18.1101L20.4297 17.7204L20.3772 17.907L21.8288 18.3142L21.8298 18.3153Z" fill="#0B1B28"/>
<path id="Vector_61" d="M23.5639 19.5288C23.5186 19.9865 23.4402 20.4309 23.334 20.8515C22.8391 20.8577 22.3381 20.8608 21.8319 20.8608H21.7618C21.77 20.8299 21.7772 20.8 21.7844 20.769L23.5021 19.801L23.4072 19.6319L21.8422 20.5144C21.9082 20.1968 21.9587 19.87 21.9917 19.537C22.0082 19.3638 22.0205 19.1916 22.0267 19.0215L23.5144 18.2823L23.4278 18.1091L22.0319 18.8019C22.0381 18.3648 22.0102 17.9442 21.9525 17.5452L23.2835 16.8668L23.1959 16.6936L21.9205 17.3431C21.8267 16.8142 21.6772 16.3317 21.4782 15.9193C21.4267 15.8111 21.371 15.708 21.3123 15.61L22.3855 15.0832L22.3288 14.9688C22.6072 15.2038 22.8484 15.5286 23.0443 15.9245C23.4938 16.8317 23.7031 18.1101 23.5649 19.5257L23.5639 19.5288Z" fill="#0B1B28"/>
<path id="Vector_62" d="M23.4051 19.6329L23.5 19.802L21.7824 20.7701C21.7752 20.801 21.7679 20.8309 21.7597 20.8618C21.6937 20.8618 21.6267 20.8618 21.5607 20.8618C21.5772 20.7969 21.5937 20.7319 21.6081 20.6659L21.5999 20.6515L21.6133 20.6432C21.6679 20.4051 21.7123 20.1618 21.7484 19.9133L20.1679 19.4143L20.2266 19.2298L21.7752 19.7185C21.7834 19.6525 21.7906 19.5865 21.7968 19.5205C21.837 19.1071 21.8473 18.704 21.8298 18.3163L20.3782 17.9091L20.4308 17.7225L21.8185 18.1122C21.7844 17.639 21.7092 17.1936 21.5958 16.7884L20.1184 16.4832L20.1575 16.2935L21.5318 16.5771C21.4556 16.343 21.3659 16.1245 21.2638 15.9245C21.1432 15.6884 21.005 15.478 20.8504 15.2997L19.4565 15.1059L19.4833 14.9141L20.6256 15.0729C20.5534 15.0089 20.4772 14.9512 20.3988 14.9007L20.504 14.7378C20.7679 14.9089 21.003 15.1512 21.205 15.4492L22.2711 14.9265C22.2896 14.9419 22.3092 14.9564 22.3278 14.9729L22.3845 15.0873L21.3112 15.6141C21.37 15.7121 21.4246 15.8152 21.4772 15.9234C21.6762 16.3358 21.8257 16.8183 21.9195 17.3472L23.1948 16.6977L23.2824 16.8709L21.9515 17.5493C22.0102 17.9472 22.037 18.3689 22.0308 18.806L23.4268 18.1132L23.5134 18.2864L22.0257 19.0256C22.0195 19.1958 22.0071 19.3669 21.9906 19.5411C21.9587 19.8741 21.9082 20.201 21.8411 20.5185L23.4062 19.636L23.4051 19.6329Z" fill="#1B2D3A"/>
</g>
<g id="Group_11">
<g id="Group_12">
<path id="Vector_63" d="M8.08897 19.8421C7.56833 20.0916 7.16212 20.4091 6.99098 20.8153C6.96727 20.6338 6.9549 20.4493 6.9549 20.2606C6.9549 20.0348 6.97242 19.8132 7.00644 19.5967C7.3343 19.6812 7.69617 19.7627 8.08897 19.841V19.8421Z" fill="#FEDCFF"/>
<path id="Vector_64" d="M8.08893 19.8423C9.34775 20.0928 10.9231 20.3083 12.7325 20.4753C12.7191 20.497 12.7046 20.5207 12.6912 20.5434C12.6768 20.5671 12.6624 20.5908 12.6469 20.6155C12.5943 20.7001 12.5376 20.7887 12.4788 20.8805C12.4706 20.8939 12.4623 20.9073 12.4531 20.9197C12.2654 21.2083 12.0489 21.5228 11.8118 21.8352C11.7901 21.863 11.7685 21.8919 11.7468 21.9197C11.7365 21.9341 11.7252 21.9475 11.7139 21.962C11.6922 21.9898 11.6695 22.0187 11.6479 22.0465C11.6365 22.061 11.6252 22.0744 11.6138 22.0888C11.6025 22.1032 11.5912 22.1166 11.5798 22.1311C11.5685 22.1445 11.5571 22.1589 11.5458 22.1733C11.5231 22.2012 11.5004 22.229 11.4767 22.2568C11.4107 22.3362 11.3437 22.4135 11.2767 22.4898C11.218 22.5569 11.1582 22.6218 11.0973 22.6857C11.0808 22.7022 11.0654 22.7197 11.0499 22.7362C11.0375 22.7486 11.0252 22.761 11.0138 22.7744C10.9911 22.7971 10.9685 22.8198 10.9458 22.8424C10.919 22.8692 10.8922 22.895 10.8654 22.9218C10.8406 22.9455 10.8159 22.9692 10.7901 22.993C10.7777 23.0053 10.7654 23.0167 10.753 23.028C10.7406 23.0394 10.7282 23.0507 10.7148 23.062C10.6901 23.0847 10.6643 23.1074 10.6385 23.129C10.6272 23.1394 10.6148 23.1497 10.6035 23.16C10.6035 23.16 10.6014 23.161 10.6004 23.162C10.5746 23.1837 10.5499 23.2053 10.5241 23.226C10.4447 23.2909 10.3653 23.3517 10.2849 23.4084C10.2633 23.4239 10.2426 23.4383 10.221 23.4528C10.1932 23.4713 10.1653 23.4899 10.1375 23.5074C10.1251 23.5157 10.1117 23.5239 10.0983 23.5322C10.0591 23.5559 10.0189 23.5796 9.97975 23.6012C9.96944 23.6074 9.95913 23.6126 9.94778 23.6188C9.82922 23.6827 9.71066 23.7342 9.59107 23.7734C9.57972 23.7765 9.56941 23.7806 9.55807 23.7837C9.55292 23.7858 9.54673 23.7868 9.54158 23.7889C9.53127 23.792 9.52096 23.7951 9.51065 23.7982C9.48384 23.8054 9.45807 23.8116 9.43126 23.8177C9.41992 23.8198 9.40858 23.8229 9.39621 23.825C9.38384 23.827 9.37147 23.8301 9.35806 23.8322C9.33229 23.8373 9.30651 23.8404 9.27971 23.8435C9.26837 23.8445 9.25806 23.8456 9.24672 23.8466C9.23847 23.8466 9.22919 23.8476 9.22094 23.8487C9.21063 23.8487 9.19929 23.8497 9.18898 23.8507C9.18073 23.8507 9.17249 23.8507 9.16321 23.8518C9.15084 23.8518 9.13847 23.8518 9.12506 23.8518C9.04362 23.8518 8.9632 23.8435 8.88278 23.8281C7.86521 23.1651 7.14867 22.0785 6.98578 20.8176C7.15692 20.4124 7.56313 20.0938 8.08377 19.8443L8.08893 19.8423Z" fill="#FF70FE"/>
<path id="Vector_65" d="M14.3975 21.6372C14.3975 22.5712 14.1552 23.2032 13.7913 23.6373C13.7913 23.6373 13.7903 23.6373 13.7892 23.6393C13.0727 24.1878 12.1778 24.5136 11.2066 24.5136C10.3509 24.5136 9.55395 24.261 8.88794 23.8249C8.96836 23.8414 9.04877 23.8486 9.13022 23.8486C9.14259 23.8486 9.15496 23.8486 9.16837 23.8486C9.17661 23.8486 9.18589 23.8486 9.19414 23.8476C9.20445 23.8476 9.21476 23.8466 9.2261 23.8455C9.23435 23.8455 9.24363 23.8445 9.25188 23.8435C9.26219 23.8424 9.27353 23.8414 9.28487 23.8404C9.31064 23.8373 9.33642 23.8342 9.36322 23.829C9.37559 23.827 9.38797 23.8249 9.40137 23.8218C9.41271 23.8198 9.42508 23.8167 9.43642 23.8146C9.46323 23.8084 9.489 23.8022 9.51581 23.795C9.52612 23.7919 9.53643 23.7899 9.54674 23.7857C9.55189 23.7847 9.55808 23.7826 9.56323 23.7806C9.57457 23.7775 9.58488 23.7734 9.59622 23.7703C9.71479 23.7311 9.83335 23.6795 9.95294 23.6156C9.96325 23.6105 9.97356 23.6043 9.9849 23.5981C10.0241 23.5764 10.0643 23.5527 10.1035 23.529C10.1169 23.5208 10.1292 23.5125 10.1426 23.5043C10.1705 23.4868 10.1983 23.4682 10.2262 23.4496C10.2478 23.4352 10.2684 23.4208 10.2901 23.4053C10.3705 23.3486 10.4499 23.2878 10.5293 23.2228C10.555 23.2022 10.5798 23.1806 10.6056 23.1589C10.6056 23.1589 10.6076 23.1568 10.6086 23.1568C10.62 23.1465 10.6324 23.1362 10.6437 23.1259C10.6695 23.1043 10.6942 23.0816 10.72 23.0589C10.7324 23.0476 10.7447 23.0362 10.7581 23.0249C10.7705 23.0135 10.7829 23.0022 10.7953 22.9898C10.82 22.9661 10.8458 22.9424 10.8705 22.9187C10.8973 22.8929 10.9241 22.8661 10.9509 22.8393C10.9736 22.8166 10.9963 22.7939 11.019 22.7713C11.0313 22.7589 11.0437 22.7465 11.0551 22.7331C11.0716 22.7166 11.087 22.6991 11.1025 22.6826C11.1633 22.6187 11.2221 22.5527 11.2819 22.4867C11.3499 22.4104 11.4169 22.3321 11.4819 22.2537C11.5056 22.2259 11.5283 22.198 11.551 22.1702C11.5623 22.1568 11.5736 22.1424 11.585 22.1279C11.5963 22.1135 11.6077 22.1001 11.619 22.0857C11.6303 22.0722 11.6417 22.0578 11.653 22.0434C11.6747 22.0155 11.6974 21.9867 11.719 21.9588C11.7304 21.9444 11.7407 21.931 11.752 21.9166C11.7737 21.8887 11.7953 21.8599 11.817 21.832C12.053 21.5207 12.2696 21.2062 12.4582 20.9165C12.4665 20.9031 12.4758 20.8907 12.484 20.8773C12.5428 20.7866 12.5995 20.698 12.652 20.6124C12.6675 20.5876 12.6819 20.5639 12.6964 20.5402C12.7108 20.5175 12.7242 20.4948 12.7376 20.4722C13.2263 20.5175 13.7315 20.5588 14.2532 20.5969C14.2748 20.6701 14.2965 20.7495 14.315 20.832C14.3181 20.8485 14.3222 20.866 14.3264 20.8825C14.3346 20.9227 14.3429 20.9639 14.3501 21.0062C14.3532 21.0268 14.3573 21.0485 14.3604 21.0701C14.3666 21.1103 14.3728 21.1526 14.3769 21.1949C14.3934 21.333 14.4037 21.4794 14.4037 21.6341L14.3975 21.6372Z" fill="#FEDCFF"/>
<path id="Vector_66" d="M15.4388 20.6785C15.3213 21.8826 14.7006 22.9394 13.7913 23.6374C14.1553 23.2033 14.3975 22.5724 14.3975 21.6373C14.3975 21.4826 14.3883 21.3362 14.3707 21.1981C14.3656 21.1558 14.3604 21.1146 14.3542 21.0733C14.3511 21.0517 14.347 21.03 14.3439 21.0094C14.3367 20.9671 14.3285 20.9259 14.3202 20.8857C14.3171 20.8682 14.313 20.8517 14.3089 20.8352C14.2903 20.7517 14.2687 20.6733 14.247 20.6001C14.6357 20.6279 15.0337 20.6547 15.4388 20.6785Z" fill="#FF70FE"/>
<path id="Vector_67" d="M13.9903 19.9814C13.98 19.9875 13.9696 19.9927 13.9583 19.9968C13.6779 20.1185 13.3552 20.0566 13.0902 19.8597C12.9211 19.735 12.7758 19.5556 12.6799 19.3339C12.6252 19.2071 12.5902 19.0772 12.5768 18.9493C12.5366 18.6029 12.6438 18.2751 12.8665 18.0771C12.9253 18.0235 12.9933 17.9792 13.0686 17.9462C13.3005 17.8452 13.5614 17.8709 13.7954 17.9936C14.0243 18.1143 14.2253 18.3287 14.348 18.6091C14.4109 18.7545 14.447 18.9019 14.4563 19.0463C14.4851 19.4525 14.314 19.8216 13.9913 19.9793L13.9903 19.9814Z" fill="#6B6BC6"/>
</g>
<path id="Vector_68" d="M12.5769 18.9503C12.0459 18.974 9.59011 19.1225 8.089 19.8421C7.6962 19.7638 7.33432 19.6823 7.00647 19.5978C7.1838 18.4637 7.81063 17.477 8.69934 16.8275C8.84677 16.7203 9.00039 16.6213 9.16122 16.5337C9.62619 16.4574 10.0582 16.478 10.452 16.5615C11.6325 16.811 12.4748 17.6255 12.8666 18.0791C12.6439 18.2771 12.5366 18.6049 12.5769 18.9513V18.9503Z" fill="#EAB0E4"/>
<path id="Vector_69" d="M13.0903 19.8607C13.0686 19.8998 13.0428 19.9452 13.015 19.9937C13.0057 20.0102 12.9954 20.0266 12.9861 20.0442C12.9851 20.0462 12.983 20.0493 12.982 20.0514C12.9727 20.0679 12.9634 20.0844 12.9531 20.1009C12.9428 20.1184 12.9336 20.1359 12.9222 20.1535C12.916 20.1627 12.9109 20.173 12.9047 20.1823C12.8933 20.2019 12.881 20.2215 12.8696 20.2421C12.8274 20.3143 12.781 20.3916 12.7304 20.4731C10.9221 20.306 9.34574 20.0906 8.08691 19.84C9.58905 19.1204 12.0438 18.972 12.5748 18.9482C12.5882 19.0761 12.6232 19.206 12.6779 19.3328C12.7737 19.5534 12.9191 19.7328 13.0882 19.8586L13.0903 19.8607Z" fill="#DA50DD"/>
<path id="Vector_70" d="M14.247 20.5999C13.7264 20.5618 13.2202 20.5206 12.7315 20.4752C12.781 20.3937 12.8274 20.3164 12.8707 20.2443C12.8831 20.2236 12.8944 20.204 12.9057 20.1845C12.9119 20.1741 12.9171 20.1649 12.9233 20.1556C12.9336 20.1381 12.9439 20.1205 12.9542 20.103C12.9645 20.0865 12.9738 20.069 12.9831 20.0535C12.9841 20.0515 12.9862 20.0484 12.9872 20.0463C12.9975 20.0288 13.0068 20.0123 13.0161 19.9958C13.0439 19.9463 13.0686 19.902 13.0913 19.8628C13.3563 20.0587 13.679 20.1216 13.9594 19.9999C13.9707 19.9948 13.9811 19.9906 13.9914 19.9844C14.0501 20.0906 14.1285 20.2494 14.2007 20.4556C14.2058 20.4721 14.212 20.4876 14.2171 20.5041C14.2275 20.536 14.2378 20.569 14.2481 20.602L14.247 20.5999Z" fill="#EAB0E4"/>
<path id="Vector_71" d="M15.4595 20.2607C15.4595 20.402 15.4523 20.5411 15.4389 20.6783C15.0337 20.6546 14.6358 20.6277 14.2471 20.5999C14.2368 20.5659 14.2265 20.5339 14.2161 20.502C14.211 20.4855 14.2048 20.47 14.1996 20.4535C14.1275 20.2473 14.0491 20.0875 13.9904 19.9824C14.3131 19.8246 14.4842 19.4555 14.4553 19.0493C14.6038 19.0988 15.1914 19.3174 15.4337 19.8019C15.4502 19.9525 15.4585 20.1061 15.4585 20.2617L15.4595 20.2607Z" fill="#DA50DD"/>
<path id="Vector_72" d="M15.4337 19.8012C15.2389 19.4125 14.8223 19.195 14.5883 19.0991C14.5306 19.0754 14.4842 19.0589 14.4553 19.0486C14.446 18.9043 14.41 18.7568 14.3471 18.6115C14.2254 18.3311 14.0244 18.1166 13.7945 17.996C13.8192 17.8228 13.8934 17.0475 13.447 16.6475C14.0017 16.9918 14.4708 17.4599 14.8172 18.0145C15.1471 18.5434 15.3646 19.1507 15.4337 19.8023V19.8012Z" fill="#EAB0E4"/>
<path id="Vector_73" d="M13.7944 17.9945C13.5604 17.8718 13.2995 17.8471 13.0676 17.9471C12.9923 17.9801 12.9243 18.0244 12.8655 18.078C12.4737 17.6244 11.6304 16.8099 10.4509 16.5604C10.0571 16.4769 9.62513 16.4563 9.16016 16.5326C9.7674 16.1985 10.4643 16.0078 11.2067 16.0078C11.7582 16.0078 12.2851 16.113 12.7686 16.3037C13.0057 16.3975 13.2336 16.512 13.448 16.645C13.8944 17.045 13.8202 17.8203 13.7954 17.9935L13.7944 17.9945Z" fill="#DA50DD"/>
<g id="Group_13">
<path id="Vector_74" d="M12.1677 18.6247C10.5542 18.3494 8.94069 18.868 7.32617 19.2577V22.7847C8.94069 22.3929 10.5542 21.8743 12.1677 22.1517C12.3151 22.1764 12.4336 22.1022 12.4336 21.9754V18.9051C12.4336 18.7793 12.3151 18.6494 12.1677 18.6237V18.6247Z" fill="white"/>
<path id="Vector_75" d="M6.11677 20.2341V20.364C6.51989 20.296 6.923 20.2063 7.32715 20.1083V20.4846C6.923 20.5826 6.51989 20.6723 6.11677 20.7393V20.8888C6.51989 20.8207 6.923 20.731 7.32715 20.6331V21.7414C6.923 21.8393 6.51989 21.929 6.11677 21.9971V22.3229C6.51989 22.2558 6.923 22.1662 7.32715 22.0672V22.7868C6.69825 22.9394 6.07038 23.0724 5.44148 23.1312V19.6042C5.42292 19.6062 5.4054 19.6073 5.38684 19.6093C6.03327 19.5526 6.68072 19.4165 7.32715 19.2588V19.9794C6.923 20.0774 6.51989 20.1671 6.11677 20.2351V20.2341Z" fill="#CECECE"/>
<g id="Group_14">
<path id="Vector_76" d="M5.4415 19.6042V23.1312L5.42603 23.1332C5.41057 23.1342 5.3951 23.1363 5.37964 23.1373C5.31572 23.1425 5.25283 23.1476 5.18994 23.1518C5.16313 23.1538 5.13633 23.1549 5.11055 23.1559C5.10849 23.1559 5.10643 23.1559 5.10334 23.1559C5.08581 23.1559 5.06828 23.158 5.05076 23.158C5.02395 23.159 4.99714 23.16 4.97034 23.1611C4.93632 23.1621 4.90332 23.1631 4.8693 23.1631C4.83631 23.1631 4.80229 23.1631 4.7693 23.1631C4.45279 23.1631 4.13524 23.1394 3.81873 23.0848C3.67233 23.06 3.55377 22.9301 3.55377 22.8033V19.733C3.55377 19.6073 3.67233 19.532 3.81873 19.5578C4.16927 19.6176 4.52083 19.6403 4.87136 19.6351C4.90436 19.6351 4.93735 19.6341 4.97034 19.633C4.99611 19.633 5.02189 19.632 5.04663 19.6299C5.06519 19.6299 5.08478 19.6279 5.10437 19.6269C5.1322 19.6258 5.16004 19.6238 5.18788 19.6217C5.25386 19.6176 5.31881 19.6124 5.38479 19.6073C5.40335 19.6062 5.42088 19.6042 5.43943 19.6021L5.4415 19.6042Z" fill="#FF7631"/>
</g>
<g id="Group_15">
<path id="Vector_77" d="M7.32622 19.9785V20.1084C6.9231 20.2064 6.51896 20.2961 6.11584 20.3641V20.2342C6.51896 20.1672 6.9231 20.0765 7.32622 19.9785Z" fill="#010102"/>
<path id="Vector_78" d="M7.87781 19.8413V19.9712C7.69429 20.0176 7.50975 20.064 7.32623 20.1083V19.9784C7.50975 19.9341 7.69429 19.8877 7.87781 19.8413Z" fill="#112130"/>
</g>
<g id="Group_16">
<path id="Vector_79" d="M7.32622 20.4844V20.6328C6.9231 20.7308 6.51896 20.8205 6.11584 20.8885V20.7401C6.51896 20.673 6.9231 20.5823 7.32622 20.4844Z" fill="#010102"/>
<path id="Vector_80" d="M8.96034 20.0806V20.229C8.41598 20.3548 7.87059 20.5012 7.32623 20.6332V20.4847C7.87059 20.3527 8.41598 20.2063 8.96034 20.0806Z" fill="#112130"/>
</g>
<g id="Group_17">
<path id="Vector_81" d="M7.32731 21.7412V22.067C6.92317 22.166 6.52006 22.2557 6.11694 22.3227V21.9969C6.52006 21.9288 6.92317 21.8392 7.32731 21.7412Z" fill="#010102"/>
<path id="Vector_82" d="M8.67792 21.4043V21.7301C8.22738 21.8394 7.77787 21.9579 7.32733 22.0672V21.7414C7.77787 21.6321 8.22738 21.5136 8.67792 21.4043Z" fill="#112130"/>
</g>
<path id="Vector_83" d="M11.483 19.8754C11.4243 19.8991 11.3655 19.9239 11.3078 19.9496C11.2799 19.962 11.25 19.9682 11.2191 19.9682C11.1284 19.9661 11.0376 19.9661 10.9459 19.9682C10.8376 20.1672 10.7284 20.3682 10.6201 20.5713C10.5933 20.6208 10.5098 20.6125 10.5088 20.56C10.5356 20.3682 10.5624 20.1764 10.5892 19.9847C10.3634 20.0001 10.1376 20.0249 9.91182 20.0579C9.86542 20.1486 9.81903 20.2404 9.7716 20.3321C9.7582 20.3579 9.71696 20.3579 9.71593 20.3311C9.73036 20.2311 9.74377 20.13 9.75717 20.03C9.71077 20.0321 9.66541 20.0342 9.61902 20.0362C9.59737 20.0383 9.58087 20.0249 9.58087 20.0063C9.58087 19.9878 9.5984 19.9672 9.62108 19.961C9.66644 19.9486 9.71181 19.9362 9.75614 19.9249C9.74274 19.8311 9.72933 19.7383 9.71593 19.6445C9.71593 19.6177 9.7582 19.6022 9.7716 19.6238C9.818 19.6991 9.86439 19.7744 9.91078 19.8496C10.1366 19.8084 10.3624 19.7733 10.5881 19.7486C10.5613 19.5609 10.5345 19.3743 10.5077 19.1877C10.5077 19.1341 10.5923 19.1094 10.6191 19.1558C10.7273 19.3403 10.8356 19.528 10.9449 19.7177C11.0356 19.7125 11.1263 19.7084 11.2181 19.7063C11.249 19.7063 11.2799 19.7125 11.3067 19.7259C11.3655 19.7537 11.4243 19.7816 11.482 19.8104C11.5119 19.8249 11.5119 19.862 11.482 19.8744L11.483 19.8754Z" fill="#112130"/>
</g>
</g>
<path id="Vector_84" d="M32.1099 4.57961C30.7046 4.44868 27.1436 4.50126 22.5259 7.39007C19.2422 9.44584 16.8132 12.18 15.0193 14.9935C13.0676 18.0566 10.4871 19.5958 7.90141 19.5958C5.4652 19.5958 3.02384 18.2288 1.099 15.4781C-0.434065 13.2873 -0.348494 9.51079 1.26911 7.47151C3.97234 4.06 9.27158 0 19.1752 0C24.7023 0 28.953 2.03619 32.1099 4.57961Z" fill="#4EBFA3"/>
</g>
</svg>
