<svg width="18" height="18" viewBox="0 0 18 18" fill="none" xmlns="http://www.w3.org/2000/svg">
<g id="change-record-type-svgrepo-com 1" clip-path="url(#clip0_2540_49639)">
<path id="Vector" d="M6.92315 12.9802C6.92315 12.7032 6.68084 12.4609 6.40392 12.4609H1.21161C0.934691 12.4609 0.692383 12.7032 0.692383 12.9802V16.7879C0.692383 17.0648 0.934691 17.3071 1.21161 17.3071H6.40392C6.68084 17.3071 6.92315 17.0648 6.92315 16.7879V12.9802Z" fill="#1A473F"/>
<path id="Vector_2" d="M2.80348 7.61463H1.10733C0.761173 7.61463 0.588096 7.92617 0.795788 8.09925L3.56502 10.9723C3.70348 11.0762 3.91117 11.0762 4.04963 10.9723L6.81886 8.09925C7.02656 7.89156 6.85348 7.61463 6.50733 7.61463H4.8804C4.8804 5.88386 6.57656 4.1531 8.30733 4.1531V2.07617C5.19194 2.07617 2.80348 4.49925 2.80348 7.61463Z" fill="#1A473F"/>
<path id="Vector_3" d="M14.4693 7.0271C14.3308 6.92326 14.1232 6.92326 13.9847 7.0271L11.2155 9.90018C11.0078 10.1079 11.1808 10.3848 11.527 10.3848H13.1885C13.1885 12.4617 11.7693 13.8463 9.69238 13.8463V15.9233C12.8078 15.9233 15.2655 13.5002 15.2655 10.3848H16.9616C17.3078 10.3848 17.4808 10.0733 17.2732 9.90018L14.4693 7.0271Z" fill="#1A473F"/>
<path id="Vector_4" d="M17.3079 1.21064C17.3079 0.933714 17.0656 0.691406 16.7887 0.691406H11.5964C11.3195 0.691406 11.0771 0.933714 11.0771 1.21064V5.01833C11.0771 5.29525 11.3195 5.53756 11.5964 5.53756H16.7887C17.0656 5.53756 17.3079 5.29525 17.3079 5.01833V1.21064Z" fill="#1A473F"/>
</g>
<defs>
<clipPath id="clip0_2540_49639">
<rect width="18" height="18" fill="white"/>
</clipPath>
</defs>
</svg>
