<svg width="32" height="32" viewBox="0 0 32 32" fill="none" xmlns="http://www.w3.org/2000/svg">
<path d="M6.1012 6.09924C6.47625 5.7243 6.98487 5.51367 7.5152 5.51367C8.04553 5.51367 8.55414 5.7243 8.9292 6.09924L16.0012 13.1712L23.0732 6.09924C23.4504 5.73493 23.9556 5.53334 24.48 5.5379C25.0044 5.54245 25.506 5.75279 25.8768 6.12361C26.2477 6.49442 26.458 6.99605 26.4625 7.52044C26.4671 8.04484 26.2655 8.55004 25.9012 8.92725L18.8292 15.9992L25.9012 23.0712C26.2655 23.4485 26.4671 23.9537 26.4625 24.478C26.458 25.0024 26.2477 25.5041 25.8768 25.8749C25.506 26.2457 25.0044 26.456 24.48 26.4606C23.9556 26.4651 23.4504 26.2636 23.0732 25.8992L16.0012 18.8272L8.9292 25.8992C8.55199 26.2636 8.04679 26.4651 7.5224 26.4606C6.998 26.456 6.49638 26.2457 6.12556 25.8749C5.75474 25.5041 5.54441 25.0024 5.53985 24.478C5.53529 23.9537 5.73688 23.4485 6.1012 23.0712L13.1732 15.9992L6.1012 8.92725C5.72626 8.55219 5.51562 8.04357 5.51562 7.51324C5.51562 6.98292 5.72626 6.4743 6.1012 6.09924Z" fill="white"/>
</svg>
