<svg width="47" height="34" viewBox="0 0 47 34" fill="none" xmlns="http://www.w3.org/2000/svg">
<g id="MobileArtboard 20 3" clip-path="url(#clip0_6724_10093)">
<g id="Clip path group">
<mask id="mask0_6724_10093" style="mask-type:luminance" maskUnits="userSpaceOnUse" x="5" y="12" width="25" height="13">
<g id="clippath">
<path id="Vector" d="M12.1636 23.5091C12.1931 23.2951 12.2085 23.0734 12.2085 22.8478C12.2085 21.0333 11.2218 19.5621 10.0031 19.5621H9.30595C8.84975 19.5621 8.4243 19.7685 8.07318 20.1234C8.06549 20.1311 8.05908 20.1388 8.05139 20.1452C8.03729 20.1606 8.02192 20.176 8.00782 20.1913C7.45807 20.7885 7.10054 21.756 7.10054 22.8478C7.10054 23.017 7.10951 23.1849 7.12617 23.3476C7.13129 23.4027 7.1377 23.4565 7.14539 23.5091L5.40771 24.0268L5.55893 23.5091L7.17999 17.9385C7.3594 17.317 7.92837 16.889 8.57551 16.889H9.74934C9.98897 16.889 10.2209 16.8044 10.4042 16.6494L10.4836 16.5814L10.7386 16.3662L10.9065 16.2252L11.6357 15.6101L11.6575 15.5909L11.8253 15.4499L14.4728 13.2163C14.7163 13.01 15.0252 12.8972 15.3455 12.8972L20.0152 12.8921H20.1523H20.2369C20.2407 12.8921 20.2433 12.8921 20.2472 12.8921C20.2472 12.8921 20.2497 12.8921 20.251 12.8921C20.5073 12.8959 20.7469 13.0228 20.8943 13.233L23.4175 16.8262L28.9445 18.2474L29.1918 23.5091H12.1636Z" fill="white"/>
</g>
</mask>
<g mask="url(#mask0_6724_10093)">
<g id="Group">
<path id="Vector_2" d="M24.0656 25.3018C20.4326 26.4603 16.1307 27.0113 12.3478 26.3962C11.2483 26.1963 10.1604 25.8529 9.2031 25.2916C7.35393 24.2485 5.9866 22.152 7.13352 20.0939C7.73197 18.9996 8.77637 18.1704 9.83742 17.5297C13.9112 15.1039 19.0422 15.0654 23.4864 16.4584C26.2467 17.2798 27.3205 19.0893 23.9516 20.1401C21.3719 20.9154 16.8599 21.4139 14.2623 20.7065C13.4858 20.4809 12.394 19.9017 12.6656 19.0162C13.2654 17.5541 17.2097 17.6271 18.5437 17.9872C19.4882 18.2127 20.2724 18.8368 19.2383 19.3122C16.8676 20.1721 12.5734 19.3225 10.8395 17.4131C9.27101 15.6652 10.3462 13.7801 12.1031 12.7101C13.1782 12.0271 14.402 11.5888 15.6438 11.3146C19.5664 10.4432 23.7029 11.1851 27.2552 13.0023" stroke="white" stroke-width="0.144806" stroke-miterlimit="10"/>
</g>
</g>
</g>
<path id="Vector_3" d="M46.9424 26.6784C46.9424 26.7706 46.9257 26.8616 46.895 26.9526C46.1171 29.1772 35.9268 30.938 23.4709 30.938C11.015 30.938 0.824779 29.1772 0.0469262 26.9513C0.0148894 26.8603 -0.000488281 26.7694 -0.000488281 26.6771C-0.000488281 24.3243 10.5076 22.4175 23.4709 22.4175C36.4343 22.4175 46.8565 24.3089 46.9411 26.6476C46.9411 26.6566 46.9411 26.6668 46.9411 26.6758L46.9424 26.6784Z" fill="#6D69B5"/>
<path id="Vector_4" d="M46.9424 26.6782V29.7397C46.9424 29.7499 46.9424 29.7602 46.9424 29.7704C46.8514 32.1091 36.3779 33.9993 23.4722 33.9993C10.5665 33.9993 -0.000488281 32.0924 -0.000488281 29.7397V26.6782C-0.000488281 26.7705 0.0161708 26.8615 0.0469262 26.9525C0.824779 29.1771 11.015 30.9378 23.4709 30.9378C35.9268 30.9378 46.1171 29.1771 46.895 26.9525C46.927 26.8615 46.9424 26.7705 46.9424 26.6782Z" fill="#918DE0"/>
<path id="Vector_5" d="M45.5867 22.823V26.2624C45.5867 26.3355 45.5726 26.4085 45.5431 26.4816C45.2637 27.1723 43.6773 27.8066 41.1617 28.3269C40.8004 28.4012 40.4211 28.4743 40.0225 28.5435C39.4894 28.637 38.9243 28.7254 38.3297 28.81C35.7706 29.1714 32.6656 29.4405 29.2287 29.584C27.3936 29.6609 25.4637 29.7019 23.4723 29.7019C21.29 29.7019 19.182 29.6532 17.1905 29.5609C16.264 29.5187 15.3632 29.4674 14.4918 29.4059C13.9459 29.3687 13.4115 29.3277 12.8899 29.2829C8.20103 28.8856 4.54115 28.2308 2.68942 27.4414C1.97948 27.139 1.53481 26.8173 1.40026 26.4816C1.37079 26.4085 1.35669 26.3368 1.35669 26.2624V22.823C1.35669 16.7398 3.81327 11.2295 7.78839 7.23131C11.142 3.85335 15.5836 1.55311 20.5442 0.898275C21.5014 0.77141 22.4792 0.706055 23.471 0.706055C23.7286 0.706055 23.9849 0.709899 24.2399 0.718869C25.2023 0.752188 26.1493 0.845735 27.0771 0.99823C28.0485 1.15713 28.998 1.38011 29.922 1.66203C32.7873 2.53471 35.4054 3.97253 37.6467 5.84732C37.9529 6.10233 38.2515 6.36631 38.5424 6.63799C38.7346 6.81611 38.923 6.99808 39.1076 7.18389C39.3856 7.46197 39.6573 7.74902 39.9213 8.0412C43.4428 11.9587 45.5854 17.1409 45.5854 22.823H45.5867Z" fill="#FDC2FF"/>
<path id="Vector_6" d="M45.588 26.2614C45.588 26.3793 45.5496 26.4972 45.474 26.6126C44.3437 28.3477 34.9236 29.7009 23.4711 29.7009C22.8086 29.7009 22.1525 29.6958 21.5053 29.6868C10.2117 29.5317 1.35547 28.0581 1.35547 26.2614C1.35547 25.8898 1.73478 25.5323 2.43575 25.1965C5.31906 23.8189 13.6473 22.8232 23.4724 22.8232C25.7572 22.8232 27.9614 22.8771 30.0348 22.977C39.0448 23.4114 45.5893 24.7173 45.5893 26.2614H45.588Z" fill="#918DE0"/>
<path id="Vector_7" d="M41.8551 19.662C41.7948 19.9426 41.3258 20.2297 40.4301 20.3937L40.2622 19.3711C40.8773 19.4185 41.864 19.5172 41.8551 19.662Z" fill="#FE5D02"/>
<g id="Group_2">
<path id="&#38;lt;Path&#38;gt;" d="M23.1691 27.5471C32.5367 27.5471 40.1306 27.1036 40.1306 26.5565C40.1306 26.0094 32.5367 25.5659 23.1691 25.5659C13.8015 25.5659 6.20752 26.0094 6.20752 26.5565C6.20752 27.1036 13.8015 27.5471 23.1691 27.5471Z" fill="#112130"/>
<g id="Group_3">
<path id="Vector_8" d="M21.5084 19.5688C21.5084 19.5688 21.5148 19.5688 21.5187 19.5688H24.2033C25.3592 19.5688 26.296 21.0848 26.296 22.9545C26.296 24.8242 25.3592 26.3401 24.2033 26.3401H21.5187C21.5187 26.3401 21.5123 26.3401 21.5084 26.3401C20.3525 26.3401 19.4158 24.8242 19.4158 22.9545C19.4158 21.0848 20.3525 19.5688 21.5084 19.5688Z" fill="#112130"/>
<path id="Vector_9" d="M33.6722 19.5688C33.6722 19.5688 33.6786 19.5688 33.6825 19.5688H36.3672C37.5231 19.5688 38.4598 21.0848 38.4598 22.9545C38.4598 24.8242 37.5231 26.3401 36.3672 26.3401H33.6825C33.6825 26.3401 33.6761 26.3401 33.6722 26.3401C32.5163 26.3401 31.5796 24.8242 31.5796 22.9545C31.5796 21.0848 32.5163 19.5688 33.6722 19.5688Z" fill="#112130"/>
</g>
<path id="Vector_10" d="M7.95426 16.998L7.34043 17.526C7.04954 17.7759 6.92267 18.1667 7.0111 18.5397L7.15078 19.1291L7.95298 16.998H7.95426Z" fill="white"/>
<g id="Group_4">
<path id="Vector_11" d="M6.84094 20.4354C6.9473 19.2808 7.24973 18.1518 7.7354 17.0972L7.94428 16.6436H13.0458L10.4021 24.2542C9.4718 24.0223 8.60937 23.5738 7.88662 22.9445L7.82511 22.892C7.12158 22.2795 6.75508 21.3645 6.84094 20.4354Z" fill="#1A473F"/>
<path id="Vector_12" opacity="0.5" d="M6.84094 20.4354C6.9473 19.2808 7.24973 18.1518 7.7354 17.0972L7.94428 16.6436H13.0458L10.4021 24.2542C9.4718 24.0223 8.60937 23.5738 7.88662 22.9445L7.82511 22.892C7.12158 22.2795 6.75508 21.3645 6.84094 20.4354Z" fill="#1A473F"/>
</g>
<g id="Group_5">
<path id="Vector_13" d="M13.6112 26.3426C14.7671 26.3426 15.7038 24.8266 15.7038 22.9569C15.7038 21.0873 14.7671 19.5713 13.6112 19.5713H10.9265V26.3439H13.6112V26.3426Z" fill="#223544"/>
<path id="Vector_14" d="M10.9176 26.3426C12.0733 26.3426 13.0102 24.8268 13.0102 22.9569C13.0102 21.0871 12.0733 19.5713 10.9176 19.5713C9.76186 19.5713 8.82495 21.0871 8.82495 22.9569C8.82495 24.8268 9.76186 26.3426 10.9176 26.3426Z" fill="#223544"/>
<path id="Vector_15" d="M10.9172 25.0986C11.7276 25.0986 12.3845 24.1399 12.3845 22.9573C12.3845 21.7746 11.7276 20.8159 10.9172 20.8159C10.1069 20.8159 9.44995 21.7746 9.44995 22.9573C9.44995 24.1399 10.1069 25.0986 10.9172 25.0986Z" fill="#112130"/>
</g>
<path id="Vector_16" d="M33.9183 16.1804L31.8192 19.5507L31.7846 19.607L31.3105 20.367L29.7228 22.9158L28.8872 24.2562H14.6514C14.4387 24.2562 14.2567 24.123 14.1952 23.9218C13.7992 22.6339 13.8171 19.5699 10.9274 19.5699L7.94287 16.6443C9.068 14.8566 12.783 12.6833 18.9212 12.2373L19.2454 12.7294C20.3834 13.3291 22.1403 14.5888 23.6409 16.1791H33.9157L33.9183 16.1804Z" fill="#1A473F"/>
<g id="Group_6">
<path id="Vector_17" d="M25.7753 26.3426C26.9311 26.3426 27.8679 24.8266 27.8679 22.9569C27.8679 21.0873 26.9311 19.5713 25.7753 19.5713H23.0906V26.3439H25.7753V26.3426Z" fill="#223544"/>
<path id="Vector_18" d="M23.0804 26.3426C24.2362 26.3426 25.1731 24.8268 25.1731 22.9569C25.1731 21.0871 24.2362 19.5713 23.0804 19.5713C21.9247 19.5713 20.9878 21.0871 20.9878 22.9569C20.9878 24.8268 21.9247 26.3426 23.0804 26.3426Z" fill="#223544"/>
<path id="Vector_19" d="M23.0803 25.0986C23.8907 25.0986 24.5476 24.1399 24.5476 22.9573C24.5476 21.7746 23.8907 20.8159 23.0803 20.8159C22.27 20.8159 21.613 21.7746 21.613 22.9573C21.613 24.1399 22.27 25.0986 23.0803 25.0986Z" fill="#112130"/>
</g>
<g id="Group_7">
<path id="Vector_20" d="M40.1794 19.2546L39.2631 19.4661L38.8543 19.5596L37.2909 19.9197L36.4106 20.1222L33.0121 19.7441L32.379 19.6737L32.0471 19.6365L31.7857 19.607L27.8888 19.1726L27.8273 19.147L26.1665 18.4498L26.0575 18.3525L23.6445 16.1816H33.9194C34.728 16.1816 38.5083 17.5477 39.8833 18.9227C39.9615 19.0009 40.0345 19.0803 40.1012 19.1585C40.1243 19.188 40.1486 19.2149 40.1717 19.2444C40.1755 19.2482 40.1781 19.2508 40.1806 19.2546H40.1794Z" fill="#5FCEB1"/>
<path id="Vector_21" d="M41.0589 23.3226C41.082 23.8262 40.6194 24.258 40.0619 24.2593C36.5468 24.2606 32.4756 24.2708 29.7948 24.2773L29.6192 21.0121C29.6192 21.0121 29.6192 21.0057 29.6192 21.0018C29.5782 20.3098 29.1463 19.6998 28.5069 19.432L27.8879 19.1719L36.4097 20.1202L40.1798 19.2539C40.8692 20.1266 40.9589 21.1351 41.0589 23.3213V23.3226Z" fill="#A6FFE6"/>
</g>
<path id="Vector_22" d="M33.9179 16.1801H25.1731C25.1731 16.1801 21.4146 12.9303 18.9221 12.2383C19.2873 12.2114 19.6602 12.1908 20.0421 12.1768C20.0511 12.1768 20.0601 12.1768 20.0678 12.1768C20.16 12.1729 20.2523 12.1703 20.3458 12.1678C20.433 12.1652 20.5214 12.1639 20.6098 12.1614C20.6457 12.1614 20.6816 12.1601 20.7187 12.1601C20.7918 12.1588 20.8648 12.1575 20.9392 12.1575C21.0391 12.1575 21.1391 12.1562 21.2403 12.1562C21.9233 12.1562 22.5782 12.1806 23.2022 12.2267C23.3227 12.2357 23.4431 12.2447 23.5623 12.2562C23.6956 12.2677 23.8289 12.2793 23.9596 12.2934C24.0685 12.3049 24.1762 12.3164 24.2825 12.3292C24.6362 12.369 24.9784 12.4177 25.3103 12.4715C25.4217 12.4894 25.5307 12.5087 25.6396 12.5279C25.7767 12.5509 25.9138 12.5766 26.0471 12.6035C26.1253 12.6189 26.2022 12.6342 26.2778 12.6496C26.3816 12.6714 26.4854 12.6932 26.5879 12.7163C26.6891 12.7393 26.7904 12.7611 26.8903 12.7855C26.9774 12.806 27.0633 12.8265 27.1492 12.8482C27.2081 12.8636 27.2683 12.8777 27.3273 12.8931C27.7463 13.0007 28.1449 13.1174 28.5229 13.2417C28.5806 13.2609 28.6382 13.2788 28.6946 13.2993C28.9765 13.3929 29.2457 13.4915 29.5032 13.5902C29.5814 13.621 29.6583 13.6504 29.7339 13.6812C32.407 14.7576 33.7487 16.0314 33.9038 16.1685C33.9051 16.1698 33.9076 16.1724 33.9102 16.1737C33.9141 16.1775 33.9153 16.1788 33.9166 16.1801H33.9179Z" fill="#FAA6FF"/>
<path id="Vector_23" d="M36.4002 20.1682C36.4002 20.1682 36.4066 20.1682 36.4105 20.1682L38.8184 19.6146C38.8427 19.6095 38.8581 19.5839 38.853 19.5595C38.8478 19.5352 38.8222 19.5198 38.7979 19.5249L36.3977 20.0759L32.4289 19.6236C32.4033 19.621 32.3802 19.639 32.3777 19.6646C32.3751 19.6902 32.3931 19.7133 32.4187 19.7159L36.3951 20.1682C36.3951 20.1682 36.3989 20.1682 36.4002 20.1682Z" fill="#1A473F"/>
<path id="Vector_24" d="M17.7048 17.1H16.5053C16.4118 17.1 16.3362 17.0244 16.3362 16.9309C16.3362 16.8373 16.4118 16.7617 16.5053 16.7617H17.7048C17.7983 16.7617 17.8739 16.8373 17.8739 16.9309C17.8739 17.0244 17.7983 17.1 17.7048 17.1Z" fill="#192A38"/>
<path id="Vector_25" d="M29.796 24.277C29.7409 24.277 29.6858 24.277 29.632 24.277C28.8195 24.2783 28.1455 24.2808 27.6662 24.2821C27.2126 24.2821 26.8345 23.9938 26.7666 23.5889C26.5116 22.0754 25.002 19.5702 23.0926 19.5702L21.2422 16.1807H23.6437L26.1656 18.4501L28.5068 19.433C29.1476 19.7009 29.5782 20.3108 29.6192 21.0028C29.6192 21.0067 29.6192 21.0092 29.6192 21.0131L29.7947 24.2783L29.796 24.277Z" fill="#1A473F"/>
<g id="Clip path group_2">
<mask id="mask1_6724_10093" style="mask-type:luminance" maskUnits="userSpaceOnUse" x="6" y="12" width="24" height="13">
<g id="clippath-1">
<path id="Vector_26" d="M29.7223 22.9156L28.8868 24.2547H27.4284C27.085 24.174 26.821 23.9202 26.7646 23.5883C26.5109 22.0877 25.0244 19.6094 23.1355 19.5709C23.1201 19.5709 23.106 19.5709 23.0907 19.5709H23.0817C21.9258 19.5709 20.989 21.0869 20.989 22.9579C20.989 23.4179 21.0454 23.8574 21.1492 24.2573H14.6509C14.4382 24.2573 14.2562 24.124 14.1947 23.9228C13.8538 22.813 13.8192 20.3885 11.9713 19.7362C11.6843 19.635 11.3537 19.576 10.9718 19.5722C10.9564 19.5722 10.9423 19.5722 10.9269 19.5722H10.9167C9.7608 19.5722 8.82404 21.0882 8.82404 22.9591C8.82404 23.1936 8.83942 23.423 8.86633 23.6447C8.51777 23.4461 8.18971 23.2129 7.88472 22.9489L7.82321 22.8963C7.1184 22.2825 6.7519 21.3688 6.83776 20.4398C6.94412 19.2839 7.24655 18.1562 7.73223 17.1028L7.94111 16.6492C9.06624 14.8615 12.7812 12.6881 18.9195 12.2422L19.2437 12.7343C20.3816 13.334 22.1385 14.5937 23.6391 16.184L26.1598 18.4535L28.501 19.4364C29.1418 19.7042 29.5723 20.3142 29.6134 21.0062C29.6134 21.01 29.6134 21.0126 29.6134 21.0164L29.7159 22.9207L29.7223 22.9156Z" fill="white"/>
</g>
</mask>
<g mask="url(#mask1_6724_10093)">
<g id="Group_8">
<path id="Vector_27" d="M5.43774 17.653C8.59913 18.5372 13.1279 17.4941 14.1517 14.8786C14.4747 13.9957 13.9313 13.2794 12.7255 13.5241C11.6208 13.7087 10.1561 14.8504 9.43722 15.8128C8.07501 17.5505 7.25872 20.1903 8.41973 22.1561C10.702 25.2304 17.0261 23.1403 19.8825 20.4351C20.9205 19.4727 21.7573 18.2797 22.1738 17.0277C22.4429 16.2114 22.5941 15.1452 22.0597 14.475C21.1922 13.5446 19.7646 14.3045 18.997 15.0555C16.9633 17.1661 16.5007 20.7196 17.8642 23.3722C20.8705 29.2529 27.6072 24.7549 29.2001 21.0989C29.5602 20.2877 29.7024 19.4907 29.532 18.7807C29.2846 17.6389 28.1095 16.697 26.732 16.4548C23.5744 15.8654 22.1468 18.9473 23.6321 21.6346C24.4125 23.2133 25.8477 24.5717 27.3419 25.7289" stroke="#256B59" stroke-width="0.749661" stroke-miterlimit="10"/>
</g>
</g>
</g>
<path id="Vector_28" d="M12.4431 17.1H11.2436C11.1501 17.1 11.0745 17.0244 11.0745 16.9309C11.0745 16.8373 11.1501 16.7617 11.2436 16.7617H12.4431C12.5366 16.7617 12.6122 16.8373 12.6122 16.9309C12.6122 17.0244 12.5366 17.1 12.4431 17.1Z" fill="#192A38"/>
<path id="Vector_29" d="M23.6433 16.1794H11.4078C10.7837 16.1794 10.1686 16.0179 9.62524 15.7116C9.62524 15.7116 10.1199 15.2631 11.1118 14.7159C12.1036 14.17 13.594 13.5267 15.5841 13.141C17.2205 12.8232 18.7724 12.6989 19.2478 12.7296C20.3858 13.3294 22.1427 14.5891 23.6433 16.1794Z" fill="#192A38"/>
<path id="Vector_30" d="M32.5314 23.4336H39.3514C39.6 23.4336 39.782 23.1709 39.7205 22.8992L39.3924 21.4499C39.3489 21.2602 39.1976 21.127 39.0234 21.127H32.8608C32.6865 21.127 32.534 21.2602 32.4917 21.4499L32.1636 22.8992C32.1021 23.1696 32.2841 23.4336 32.5327 23.4336H32.5314Z" fill="#1A473F"/>
<path id="Vector_31" d="M8.16581 19.6528L8.71299 19.7579V18.2739L8.16581 18.379C8.09148 18.3931 8.03638 18.4931 8.03638 18.6122V19.4183C8.03638 19.5375 8.09148 19.6374 8.16581 19.6515V19.6528Z" fill="#192A38"/>
<path id="Vector_32" d="M32.0545 19.6384C30.855 19.1835 27.2323 17.9072 26.2443 18.2403C25.2563 18.5722 27.6488 19.7563 28.2511 19.9139C28.8534 20.0716 29.2493 19.7563 30.1515 20.192C31.0537 20.6277 33.5077 20.1895 32.0545 19.6384Z" fill="white"/>
<path id="Vector_33" d="M38.8941 19.6833C39.1414 19.5334 39.5464 19.2951 40.0039 19.0503C40.2666 19.3348 40.4562 19.6257 40.5972 19.9601C40.4588 19.9883 40.2999 20.0537 40.1038 20.2049C39.5195 20.6547 37.9535 20.2562 38.8941 19.6833Z" fill="white"/>
<g id="Clip path group_3">
<mask id="mask2_6724_10093" style="mask-type:luminance" maskUnits="userSpaceOnUse" x="18" y="12" width="16" height="5">
<g id="clippath-2">
<path id="Vector_34" d="M21.2424 12.157C29.8846 12.157 33.829 16.1194 33.9174 16.1809H25.1726C25.1726 16.1809 21.4128 12.9311 18.9216 12.2391C19.6598 12.1852 20.4338 12.1558 21.2411 12.1558L21.2424 12.157Z" fill="white"/>
</g>
</mask>
<g mask="url(#mask2_6724_10093)">
<g id="Group_9">
<path id="Vector_35" d="M21.5242 14.7907C21.469 15.0022 21.437 15.2175 21.4268 15.4302L23.586 16.1888C23.522 16.053 23.4758 15.9082 23.4489 15.757C23.2657 14.6972 24.146 14.478 25.0162 14.6113C25.4211 14.6639 25.8325 14.7958 26.2259 14.9355C27.483 15.4238 29.1656 15.7134 30.0434 14.3935C30.2497 14.0654 30.3701 13.7066 30.4304 13.3375L29.304 12.9416C29.2002 13.3914 28.9913 13.7732 28.5953 13.8617C28.348 13.9206 27.9559 13.8527 27.6803 13.7579C27.4407 13.6848 27.1972 13.581 26.9704 13.4721C26.2131 13.1094 25.3942 12.7993 24.5395 12.7609C23.1939 12.6545 21.8689 13.4106 21.5254 14.7894L21.5242 14.7907Z" fill="white"/>
</g>
</g>
</g>
<path id="Vector_36" d="M15.4414 17.2856C15.4414 17.2856 15.4799 20.0395 16.2885 22.1206" stroke="#192A38" stroke-width="0.194784" stroke-miterlimit="10"/>
<path id="Vector_37" d="M25.1731 16.1801H23.643C22.1424 14.5898 20.3855 13.3301 19.2476 12.7304L18.9233 12.2383C21.4158 12.9303 25.1744 16.1801 25.1744 16.1801H25.1731Z" fill="#5FCEB1"/>
</g>
<path id="Vector_38" d="M28.8302 22.3571C27.9921 22.4737 27.1592 22.5327 26.3236 22.5327C24.9717 22.5327 23.6133 22.3789 22.2191 22.0714C20.27 21.6408 18.5682 20.9706 17.2021 20.4336C16.6831 20.2299 16.1936 20.0364 15.7528 19.8813C9.92209 17.8233 3.47757 21.4255 3.41349 21.4614L4.07858 20.2222L2.44727 19.7609C2.52159 19.7186 4.29002 18.7216 6.87347 18.0052C8.39842 17.5836 9.89646 17.3453 11.3266 17.2979C13.1399 17.2376 14.8481 17.4863 16.4051 18.036C16.8792 18.2039 17.3854 18.4025 17.9197 18.6127C20.5532 19.6494 24.158 21.068 28.6828 20.4016L28.7905 20.3862L28.8302 22.3571Z" fill="#CC58B1"/>
<path id="Vector_39" d="M35.8622 22.2025L36.1492 22.3601L35.925 22.6369C35.7802 22.6369 33.9899 22.6344 33.8426 22.6331C31.3437 22.5998 29.3561 22.4088 28.8423 22.355C28.8384 22.355 28.8346 22.355 28.8307 22.3563L28.791 20.3854L28.809 20.3828L28.9358 20.3969C28.982 20.402 33.1647 20.6801 36.2517 20.6788L35.9673 21.0863L36.1441 21.3068L35.8814 21.6604L36.1351 21.7988L35.8635 22.2012L35.8622 22.2025Z" fill="#F180D2"/>
<path id="Vector_40" d="M41.8553 19.6621C41.8207 20.1298 41.7733 20.7539 41.7387 21.2229C41.403 22.5582 37.6444 22.5659 36.5564 22.6377L36.7807 22.3609L36.4937 22.2033L36.7653 21.8009L36.5116 21.6625L36.7743 21.3088L36.5975 21.0884L36.8819 20.6809C37.5022 20.6809 41.0237 20.7578 41.8553 19.6621Z" fill="#F180D2"/>
<path id="Vector_41" d="M11.6581 15.5931L10.4843 16.5837C10.0819 16.4799 9.71153 16.3607 9.37322 16.2275C7.71628 15.5714 7.35106 14.7563 7.29468 14.6L8.14429 14.7487L8.4275 14.1592C8.43006 14.1643 8.71327 14.7166 10.096 15.1985C10.4932 15.3369 11.0045 15.4765 11.6581 15.5944V15.5931Z" fill="#FE5D02"/>
<path id="Vector_42" d="M41.5794 18.0446C41.1488 18.0843 40.8002 18.6507 40.7503 19.3709C40.7016 18.6494 40.353 18.0843 39.9211 18.0446C40.3517 18.0049 40.7003 17.4384 40.7503 16.7183C40.799 17.4384 41.1475 18.0049 41.5794 18.0446Z" fill="white"/>
<g id="Group_10">
<path id="Vector_43" d="M21.0793 8.97579C20.7154 9.27694 20.636 9.81259 20.882 10.2393C20.5488 9.87667 20.0132 9.79209 19.6172 10.0497C19.9811 9.74852 20.0619 9.21286 19.8145 8.78613C20.1477 9.14879 20.6834 9.23337 21.0793 8.97579Z" fill="#F180D2"/>
<path id="Vector_44" d="M10.9253 9.36586C10.792 9.63754 10.6587 9.90793 10.5254 10.1796C9.98465 10.1424 9.90648 9.47351 9.56689 9.52989C9.65275 9.35561 9.73861 9.18005 9.82447 9.00577C10.1974 8.88019 10.323 9.45685 10.9253 9.36715V9.36586Z" fill="#F180D2"/>
<path id="Vector_45" d="M17.2905 10.6712C17.2008 10.7391 17.1098 10.8083 17.0201 10.8762C16.7523 10.7724 16.7818 10.3777 16.4204 10.1881C16.5434 10.0945 16.6665 10.001 16.7895 9.90869C17.1111 10.1291 17.0496 10.5481 17.2905 10.6712Z" fill="#5FCEB1"/>
<path id="Vector_46" d="M33.3855 12.2753C33.3009 12.1997 33.2176 12.1241 33.1331 12.0485C33.1843 11.7666 33.5777 11.7217 33.6956 11.3296C33.811 11.4334 33.925 11.5372 34.0403 11.6397C33.8853 11.9972 33.4611 12.0152 33.3855 12.2753Z" fill="#5FCEB1"/>
<path id="Vector_47" d="M14.8333 13.266C14.6654 13.4338 14.4976 13.6017 14.3297 13.7696C13.8184 13.6209 13.8504 12.9277 13.3391 12.779C13.507 12.6111 13.6749 12.4433 13.8427 12.2754C14.354 12.424 14.322 13.1173 14.8333 13.266Z" fill="#918DE0"/>
<path id="Vector_48" d="M28.622 12.0277C28.4811 11.9624 28.3388 11.8957 28.1978 11.8304C28.1389 11.4139 28.6797 11.1371 28.6989 10.3926C28.9321 10.5002 29.1654 10.6091 29.3973 10.7168C29.2538 11.4049 28.6271 11.6407 28.622 12.0277Z" fill="#E5FC54"/>
<path id="Vector_49" d="M22.1338 13.2449L22.6092 13.022L22.8194 13.7255L22.5131 13.8639L22.1338 13.2449Z" fill="#FE5D02"/>
<path id="Vector_50" d="M36.5919 13.2871L37.5556 13.3396C37.5556 13.3396 37.5236 14.1495 36.8623 14.4392H36.1357C36.1357 14.4392 36.7906 14.0701 36.5919 13.2871Z" fill="#02B6FF"/>
<path id="Vector_51" d="M25.1278 8.89415L24.678 8.39309C24.678 8.39309 25.0932 8.00865 25.5622 8.19318L25.9197 8.55071C25.9197 8.55071 25.4148 8.40975 25.1265 8.89415H25.1278Z" fill="white"/>
<path id="Vector_52" d="M11.5481 9.99856C12.235 9.9127 12.9654 9.83325 13.5933 10.128C14.507 10.5573 14.9735 11.676 15.9192 12.0271C16.4907 12.2386 17.1417 12.1207 17.6863 11.8477C18.231 11.5748 18.6885 11.1596 19.1395 10.7508" stroke="white" stroke-width="0.120458" stroke-miterlimit="10"/>
</g>
<path id="Vector_53" d="M7.00098 16.8898C8.05178 13.1402 10.4597 9.95703 13.6608 7.90283" stroke="white" stroke-width="1.93374" stroke-miterlimit="10" stroke-linecap="round"/>
<g id="Group_11" opacity="0.2">
<path id="Vector_54" d="M37.6009 5.84691L12.8428 29.2812C8.15394 28.8839 4.49406 28.2291 2.64233 27.4397L29.8762 1.66162C32.7415 2.5343 35.3596 3.97211 37.6009 5.84691Z" fill="white"/>
<path id="Vector_55" d="M39.8769 8.04139L17.1436 29.5586C16.2171 29.5163 15.3162 29.465 14.4448 29.4035L38.4968 6.63818C38.689 6.81631 38.8774 6.99828 39.0619 7.18409C39.34 7.46217 39.6116 7.74922 39.8756 8.04139H39.8769Z" fill="white"/>
</g>
<path id="Vector_56" d="M38.1018 3.79907V3.83496C38.1018 3.98233 37.9904 4.10535 37.843 4.11944C36.386 4.26681 35.2262 5.64568 35.1173 7.36925C35.1083 7.51791 34.9802 7.63324 34.8302 7.63324C34.6803 7.63324 34.5535 7.51919 34.5432 7.36925C34.4356 5.64568 33.2745 4.26681 31.8162 4.11944C31.6689 4.10407 31.5574 3.98233 31.5574 3.83496V3.79907C31.5574 3.65171 31.6689 3.52868 31.8162 3.51459C33.2758 3.36722 34.4356 1.98836 34.5432 0.263495C34.5522 0.114844 34.6803 -0.000488281 34.8302 -0.000488281C34.9802 -0.000488281 35.1071 0.113563 35.1173 0.263495C35.2249 1.98836 36.3847 3.36722 37.843 3.51459C37.9904 3.52997 38.1018 3.65171 38.1018 3.79907Z" fill="#FAA6FF"/>
</g>
<defs>
<clipPath id="clip0_6724_10093">
<rect width="46.9429" height="34" fill="white"/>
</clipPath>
</defs>
</svg>
