<svg width="36" height="37" viewBox="0 0 36 37" fill="none" xmlns="http://www.w3.org/2000/svg">
<g clip-path="url(#clip0_5417_972)">
<path d="M12.5836 0.691406C8.7975 0.691406 5.71729 3.77163 5.71729 7.55771C5.71729 11.3437 8.7975 14.4238 12.5836 14.4238C16.3697 14.4238 19.4498 11.3437 19.4498 7.55771C19.4498 3.77163 16.3697 0.691406 12.5836 0.691406Z" fill="#667085"/>
<path d="M1.64143 31.9316H15.4938C15.0878 31.418 14.7244 30.8691 14.4095 30.2903C14.1248 29.7665 13.8801 29.2178 13.6785 28.649C13.2535 27.4506 13.0213 26.1617 13.0213 24.8193C13.0213 24.2622 13.062 23.7143 13.1389 23.178C13.2196 22.6171 13.3409 22.0687 13.4997 21.5367C13.5487 21.373 13.6022 21.2114 13.6579 21.051C13.7955 20.6558 13.9528 20.2698 14.1312 19.8954C14.1965 19.7583 14.2652 19.623 14.3358 19.4888C14.6104 18.9667 14.9247 18.4688 15.2734 17.9978C14.3933 17.806 13.493 17.707 12.5834 17.707C5.64491 17.7068 0 23.3517 0 30.2902C0.000140624 31.1967 0.734969 31.9316 1.64143 31.9316Z" fill="#667085"/>
<path d="M5.71729 7.55771C5.71729 11.3436 8.79751 14.4238 12.5834 14.4238V0.691406C8.79751 0.691406 5.71729 3.77163 5.71729 7.55771Z" fill="#667085"/>
<path d="M0 30.2905C0 31.197 0.734899 31.9318 1.64129 31.9318H12.5834V17.707C5.64491 17.7071 0 23.352 0 30.2905Z" fill="#667085"/>
<path d="M29.0131 14.6609C28.4866 14.4101 27.9382 14.1986 27.3718 14.0294C26.8398 13.8704 26.2916 13.7491 25.7305 13.6686C25.1941 13.5917 24.6464 13.5508 24.0892 13.5508C23.4982 13.5508 22.9175 13.5956 22.3504 13.6822C22.1236 13.7168 21.8988 13.7581 21.6764 13.8059C21.5653 13.8297 21.4547 13.8552 21.3448 13.8822C20.905 13.9906 20.4751 14.1242 20.0567 14.2817C19.8475 14.3604 19.6412 14.4451 19.438 14.5356C19.0316 14.7163 18.6375 14.9201 18.2575 15.1452C17.9724 15.3139 17.6952 15.4947 17.4267 15.6867C17.2477 15.8148 17.0724 15.9477 16.9011 16.0855C16.8156 16.1544 16.7308 16.2245 16.6474 16.2958C16.3966 16.5096 16.1552 16.7341 15.9237 16.9684C15.5379 17.3588 15.1796 17.7767 14.8523 18.2187C14.5907 18.572 14.3485 18.9403 14.128 19.3227C14.0544 19.4502 13.9833 19.5792 13.9147 19.7097C13.8441 19.8439 13.7754 19.9791 13.7101 20.1164C13.5317 20.4908 13.3744 20.8767 13.2368 21.2719C13.1809 21.4325 13.1275 21.5941 13.0786 21.7576C13.0389 21.8907 13.0015 22.0246 12.9666 22.1597C12.8617 22.5647 12.7783 22.9783 12.7177 23.399C12.6409 23.9353 12.6001 24.4833 12.6001 25.0403C12.6001 25.7115 12.6582 26.3693 12.7693 27.0091C12.8805 27.6489 13.0447 28.2708 13.2572 28.87C13.358 29.1545 13.4696 29.4338 13.5915 29.7075C13.7134 29.9813 13.8458 30.2493 13.9881 30.5113C14.1456 30.8007 14.3152 31.0828 14.4962 31.3565C14.6772 31.6303 14.8696 31.8958 15.0725 32.1526C17.1785 34.8168 20.4375 36.5295 24.0893 36.5295C30.4245 36.5295 35.5786 31.3754 35.5786 25.0402C35.5783 20.4659 32.8912 16.508 29.0131 14.6609Z" fill="#8C94A6"/>
<path d="M28.545 22.4409C28.12 21.9709 27.41 21.7359 26.38 21.7359H26.26V21.7159C26.26 20.8759 26.26 19.8359 24.38 19.8359H23.62C21.74 19.8359 21.74 20.8809 21.74 21.7159V21.7409H21.62C20.585 21.7409 19.88 21.9759 19.455 22.4459C18.96 22.9959 18.975 23.7359 19.025 24.2409L19.03 24.2759L19.0603 24.5938C19.0728 24.7249 19.1434 24.8434 19.2539 24.915C19.3714 24.991 19.5223 25.0866 19.62 25.1409C19.69 25.1859 19.765 25.2259 19.84 25.2659C20.695 25.7359 21.635 26.0509 22.59 26.2059C22.635 26.6759 22.84 27.2259 23.935 27.2259C25.03 27.2259 25.245 26.6809 25.28 26.1959C26.3 26.0309 27.285 25.6759 28.175 25.1559C28.205 25.1409 28.225 25.1259 28.25 25.1109C28.428 25.0103 28.6119 24.8888 28.7833 24.7672C28.8775 24.7003 28.9373 24.5957 28.95 24.4809L28.975 24.2459C28.98 24.2159 28.98 24.1909 28.985 24.1559C29.025 23.6509 29.015 22.9609 28.545 22.4409ZM24.545 25.8659C24.545 26.3959 24.545 26.4759 23.93 26.4759C23.315 26.4759 23.315 26.3809 23.315 25.8709V25.2409H24.545V25.8659ZM22.455 21.7359V21.7159C22.455 20.8659 22.455 20.5509 23.62 20.5509H24.38C25.545 20.5509 25.545 20.8709 25.545 21.7159V21.7409H22.455V21.7359Z" fill="white"/>
<path d="M28.1325 25.9635C28.4433 25.8193 28.8 26.0652 28.769 26.4065L28.6199 28.0485C28.5149 29.0485 28.1049 30.0685 25.9049 30.0685H22.0949C19.8949 30.0685 19.4849 29.0485 19.3799 28.0535L19.2393 26.5066C19.2086 26.1693 19.5571 25.9238 19.8669 26.0605C20.4221 26.3054 21.1939 26.6281 21.7396 26.7847C21.8825 26.8257 21.9978 26.9297 22.0688 27.0603C22.39 27.6504 23.03 27.9635 23.9349 27.9635C24.831 27.9635 25.4782 27.6383 25.8009 27.0455C25.872 26.9148 25.9875 26.8109 26.1304 26.7694C26.7137 26.6004 27.5449 26.2359 28.1325 25.9635Z" fill="white"/>
</g>
<defs>
<clipPath id="clip0_5417_972">
<rect width="36" height="36" fill="white" transform="translate(0 0.5)"/>
</clipPath>
</defs>
</svg>
