<svg width="36" height="37" viewBox="0 0 36 37" fill="none" xmlns="http://www.w3.org/2000/svg">
<g clip-path="url(#clip0_1648_18620)">
<path d="M12.5838 0.691406C8.79775 0.691406 5.71753 3.77163 5.71753 7.55771C5.71753 11.3437 8.79775 14.4238 12.5838 14.4238C16.3699 14.4238 19.4501 11.3437 19.4501 7.55771C19.4501 3.77163 16.3699 0.691406 12.5838 0.691406Z" fill="#662600"/>
<path d="M1.64143 31.9316H15.4938C15.0878 31.418 14.7244 30.8691 14.4095 30.2903C14.1248 29.7665 13.8801 29.2178 13.6785 28.649C13.2535 27.4506 13.0213 26.1617 13.0213 24.8193C13.0213 24.2622 13.062 23.7143 13.1389 23.178C13.2196 22.6171 13.3409 22.0687 13.4997 21.5367C13.5487 21.373 13.6022 21.2114 13.6579 21.051C13.7955 20.6558 13.9528 20.2698 14.1312 19.8954C14.1965 19.7583 14.2652 19.623 14.3358 19.4888C14.6104 18.9667 14.9247 18.4688 15.2734 17.9978C14.3933 17.806 13.493 17.707 12.5834 17.707C5.64491 17.7068 0 23.3517 0 30.2902C0.000140624 31.1967 0.734969 31.9316 1.64143 31.9316Z" fill="#FE5E02"/>
<path d="M5.71753 7.55771C5.71753 11.3436 8.79775 14.4238 12.5837 14.4238V0.691406C8.79775 0.691406 5.71753 3.77163 5.71753 7.55771Z" fill="#662600"/>
<path d="M0 30.2905C0 31.197 0.734899 31.9318 1.64129 31.9318H12.5834V17.707C5.64491 17.7071 0 23.352 0 30.2905Z" fill="#FE5E02"/>
<path d="M28.413 14.1101C27.8865 13.8593 27.3381 13.6478 26.7717 13.4786C26.2397 13.3196 25.6915 13.1984 25.1304 13.1178C24.594 13.0409 24.0463 13 23.4891 13C22.8981 13 22.3174 13.0449 21.7503 13.1314C21.5235 13.166 21.2987 13.2073 21.0763 13.2551C20.9652 13.2789 20.8546 13.3045 20.7447 13.3315C20.3049 13.4398 19.875 13.5735 19.4566 13.731C19.2474 13.8096 19.0411 13.8943 18.8379 13.9848C18.4315 14.1656 18.0374 14.3693 17.6574 14.5944C17.3723 14.7631 17.0951 14.9439 16.8266 15.1359C16.6476 15.264 16.4723 15.3969 16.301 15.5347C16.2155 15.6036 16.1307 15.6737 16.0473 15.745C15.7965 15.9589 15.5551 16.1833 15.3236 16.4176C14.9378 16.808 14.5795 17.2259 14.2522 17.6679C13.9906 18.0212 13.7484 18.3895 13.5279 18.772C13.4543 18.8994 13.3832 19.0285 13.3146 19.159C13.244 19.2931 13.1753 19.4283 13.11 19.5656C12.9316 19.94 12.7743 20.3259 12.6367 20.7212C12.5808 20.8817 12.5274 21.0433 12.4785 21.2069C12.4388 21.3399 12.4014 21.4738 12.3665 21.6089C12.2616 22.0139 12.1782 22.4275 12.1176 22.8482C12.0409 23.3845 12 23.9325 12 24.4895C12 25.1607 12.0581 25.8185 12.1692 26.4583C12.2804 27.0981 12.4447 27.7201 12.6571 28.3193C12.7579 28.6037 12.8695 28.883 12.9914 29.1567C13.1133 29.4305 13.2457 29.6986 13.388 29.9605C13.5455 30.2499 13.7151 30.532 13.8961 30.8057C14.0771 31.0795 14.2695 31.3451 14.4724 31.6018C16.5784 34.266 19.8374 35.9787 23.4892 35.9787C29.8244 35.9787 34.9785 30.8246 34.9785 24.4894C34.9783 19.9151 32.2911 15.9572 28.413 14.1101Z" fill="#28A487"/>
<path d="M27.545 21.4898C27.12 21.0198 26.41 20.7848 25.38 20.7848H25.26V20.7648C25.26 19.9248 25.26 18.8848 23.38 18.8848H22.62C20.74 18.8848 20.74 19.9298 20.74 20.7648V20.7898H20.62C19.585 20.7898 18.88 21.0248 18.455 21.4948C17.96 22.0448 17.975 22.7848 18.025 23.2898L18.03 23.3248L18.0603 23.6426C18.0728 23.7737 18.1434 23.8923 18.2539 23.9638C18.3714 24.0398 18.5223 24.1355 18.62 24.1898C18.69 24.2348 18.765 24.2748 18.84 24.3148C19.695 24.7848 20.635 25.0998 21.59 25.2548C21.635 25.7248 21.84 26.2748 22.935 26.2748C24.03 26.2748 24.245 25.7298 24.28 25.2448C25.3 25.0798 26.285 24.7248 27.175 24.2048C27.205 24.1898 27.225 24.1748 27.25 24.1598C27.428 24.0592 27.6119 23.9376 27.7833 23.816C27.8775 23.7492 27.9373 23.6445 27.95 23.5298L27.975 23.2948C27.98 23.2648 27.98 23.2398 27.985 23.2048C28.025 22.6998 28.015 22.0098 27.545 21.4898ZM23.545 24.9148C23.545 25.4448 23.545 25.5248 22.93 25.5248C22.315 25.5248 22.315 25.4298 22.315 24.9198V24.2898H23.545V24.9148ZM21.455 20.7848V20.7648C21.455 19.9148 21.455 19.5998 22.62 19.5998H23.38C24.545 19.5998 24.545 19.9198 24.545 20.7648V20.7898H21.455V20.7848Z" fill="white"/>
<path d="M27.1325 25.0103C27.4433 24.8662 27.8 25.1121 27.769 25.4534L27.6199 27.0954C27.5149 28.0954 27.1049 29.1153 24.9049 29.1153H21.0949C18.8949 29.1153 18.4849 28.0954 18.3799 27.1004L18.2393 25.5535C18.2086 25.2162 18.5571 24.9707 18.8669 25.1073C19.4221 25.3522 20.1939 25.6749 20.7396 25.8316C20.8825 25.8726 20.9978 25.9766 21.0688 26.1072C21.39 26.6973 22.03 27.0104 22.9349 27.0104C23.831 27.0104 24.4782 26.6852 24.8009 26.0923C24.872 25.9617 24.9875 25.8577 25.1304 25.8163C25.7137 25.6472 26.5449 25.2828 27.1325 25.0103Z" fill="white"/>
</g>
<defs>
<clipPath id="clip0_1648_18620">
<rect width="36" height="36" fill="white" transform="translate(0 0.5)"/>
</clipPath>
</defs>
</svg>
