<svg width="100" height="100" viewBox="0 0 100 100" fill="none" xmlns="http://www.w3.org/2000/svg">
<g clip-path="url(#clip0_6749_145934)">
<path d="M89.3027 6.56234L95.3934 23.6959C95.8576 24.9997 96.591 26.1912 97.5459 27.1929C98.5008 28.1947 99.6558 28.9843 100.936 29.5104C102.216 30.0366 103.592 30.2874 104.976 30.2467C106.359 30.2061 107.718 29.8747 108.965 29.2743L125.391 21.4678C133.775 17.4833 142.525 26.233 138.54 34.625L130.734 51.0429C130.141 52.2906 129.817 53.6487 129.782 55.0296C129.746 56.4105 130.002 57.7834 130.53 59.0595C131.059 60.3357 131.85 61.4866 132.852 62.4379C133.853 63.3892 135.043 64.1197 136.345 64.5823L153.47 70.6729C155.392 71.3553 157.055 72.616 158.231 74.2817C159.407 75.9475 160.038 77.9365 160.038 79.9756C160.038 82.0147 159.407 84.0038 158.231 85.6695C157.055 87.3353 155.392 88.5959 153.47 89.2783L136.345 95.369C135.044 95.8317 133.855 96.562 132.854 97.5127C131.854 98.4634 131.063 99.6135 130.535 100.889C130.006 102.164 129.75 103.536 129.785 104.916C129.819 106.296 130.142 107.653 130.734 108.9L138.54 125.326C139.413 127.167 139.695 129.232 139.347 131.238C139 133.245 138.041 135.095 136.6 136.535C135.16 137.975 133.31 138.935 131.303 139.282C129.297 139.63 127.232 139.348 125.391 138.475L108.965 130.669C107.718 130.077 106.361 129.754 104.981 129.72C103.601 129.685 102.229 129.941 100.954 130.469C99.6786 130.998 98.5285 131.789 97.5778 132.789C96.627 133.79 95.8967 134.979 95.4341 136.28L89.3434 153.405C88.661 155.327 87.4003 156.99 85.7346 158.166C84.0688 159.342 82.0798 159.973 80.0407 159.973C78.0016 159.973 76.0125 159.342 74.3468 158.166C72.6811 156.99 71.4204 155.327 70.738 153.405L64.6473 136.28C64.1848 134.978 63.4543 133.788 62.5029 132.787C61.5516 131.785 60.4007 130.994 59.1246 130.465C57.8485 129.937 56.4756 129.681 55.0947 129.716C53.7138 129.751 52.3556 130.076 51.108 130.669L34.69 138.475C26.2981 142.46 17.5483 133.71 21.5329 125.326L29.2743 108.965C29.8673 107.719 30.192 106.362 30.2276 104.982C30.2631 103.602 30.0086 102.23 29.4805 100.954C28.9524 99.6789 28.1625 98.5286 27.1619 97.5777C26.1612 96.6268 24.9721 95.8965 23.6715 95.4341L6.56234 89.3027C4.64082 88.6203 2.97777 87.3597 1.80167 85.6939C0.625569 84.0282 -0.00585938 82.0391 -0.00585938 80C-0.00585938 77.9609 0.625569 75.9719 1.80167 74.3061C2.97777 72.6404 4.64082 71.3797 6.56234 70.6973L23.6959 64.6067C24.9947 64.1408 26.1813 63.4078 27.1794 62.455C28.1774 61.5023 28.9646 60.3509 29.4902 59.0751C30.0159 57.7994 30.2682 56.4276 30.231 55.0483C30.1938 53.6691 29.8679 52.3129 29.2743 51.0673L21.4678 34.6493C20.586 32.8055 20.2982 30.7333 20.6442 28.7189C20.9903 26.7045 21.953 24.8471 23.3996 23.4032C24.8462 21.9592 26.7054 20.9999 28.7204 20.6576C30.7355 20.3153 32.8071 20.6069 34.6494 21.4922L51.0673 29.2743C52.3144 29.8674 53.6721 30.1922 55.0526 30.2278C56.4331 30.2634 57.8057 30.0089 59.0817 29.4809C60.3578 28.9529 61.5088 28.163 62.4605 27.1623C63.4122 26.1616 64.1433 24.9724 64.6067 23.6715L70.6973 6.56234C71.3797 4.64082 72.6404 2.97777 74.3061 1.80167C75.9719 0.625569 77.9609 -0.00585938 80 -0.00585937C82.0391 -0.00585938 84.0282 0.625569 85.6939 1.80167C87.3597 2.97777 88.6203 4.64082 89.3027 6.56234Z" fill="#FE5E02"/>
</g>
<g clip-path="url(#clip1_6749_145934)">
<mask id="mask0_6749_145934" style="mask-type:luminance" maskUnits="userSpaceOnUse" x="44" y="64" width="25" height="13">
<path d="M51.1636 75.5091C51.193 75.2951 51.2084 75.0734 51.2084 74.8478C51.2084 73.0333 50.2217 71.5621 49.003 71.5621H48.3059C47.8497 71.5621 47.4242 71.7685 47.0731 72.1234C47.0654 72.1311 47.059 72.1388 47.0513 72.1452C47.0372 72.1606 47.0219 72.176 47.0078 72.1913C46.458 72.7885 46.1005 73.756 46.1005 74.8478C46.1005 75.017 46.1094 75.1849 46.1261 75.3476C46.1312 75.4027 46.1376 75.4565 46.1453 75.5091L44.4077 76.0268L44.5589 75.5091L46.1799 69.9385C46.3593 69.317 46.9283 68.889 47.5755 68.889H48.7493C48.9889 68.889 49.2209 68.8044 49.4041 68.6494L49.4836 68.5814L49.7386 68.3662L49.9064 68.2252L50.6356 67.6101L50.6574 67.5909L50.8253 67.4499L53.4728 65.2163C53.7163 65.01 54.0251 64.8972 54.3455 64.8972L59.0151 64.8921H59.1523H59.2368C59.2407 64.8921 59.2432 64.8921 59.2471 64.8921C59.2471 64.8921 59.2497 64.8921 59.2509 64.8921C59.5072 64.8959 59.7469 65.0228 59.8942 65.233L62.4175 68.8262L67.9444 70.2474L68.1918 75.5091H51.1636Z" fill="white"/>
</mask>
<g mask="url(#mask0_6749_145934)">
<path d="M63.0655 77.3018C59.4325 78.4603 55.1306 79.0113 51.3477 78.3962C50.2482 78.1963 49.1602 77.8529 48.203 77.2916C46.3538 76.2485 44.9865 74.152 46.1334 72.0939C46.7318 70.9996 47.7762 70.1704 48.8373 69.5297C52.9111 67.1039 58.0421 67.0654 62.4863 68.4584C65.2465 69.2798 66.3204 71.0893 62.9514 72.1401C60.3718 72.9154 55.8598 73.4139 53.2622 72.7065C52.4857 72.4809 51.3938 71.9017 51.6655 71.0162C52.2652 69.5541 56.2096 69.6271 57.5436 69.9872C58.4881 70.2127 59.2723 70.8368 58.2382 71.3122C55.8675 72.1721 51.5732 71.3225 49.8394 69.4131C48.2709 67.6652 49.346 65.7801 51.1029 64.7101C52.1781 64.0271 53.4019 63.5888 54.6436 63.3146C58.5662 62.4432 62.7028 63.1851 66.2551 65.0023" stroke="white" stroke-width="0.144806" stroke-miterlimit="10"/>
</g>
<path d="M85.9424 78.6784C85.9424 78.7706 85.9257 78.8616 85.895 78.9526C85.1171 81.1772 74.9268 82.938 62.4709 82.938C50.015 82.938 39.8248 81.1772 39.0469 78.9513C39.0149 78.8603 38.9995 78.7694 38.9995 78.6771C38.9995 76.3243 49.5076 74.4175 62.4709 74.4175C75.4343 74.4175 85.8565 76.3089 85.9411 78.6476C85.9411 78.6566 85.9411 78.6668 85.9411 78.6758L85.9424 78.6784Z" fill="#6D69B5"/>
<path d="M85.9424 78.6782V81.7397C85.9424 81.7499 85.9424 81.7602 85.9424 81.7704C85.8514 84.1091 75.3779 85.9993 62.4722 85.9993C49.5665 85.9993 38.9995 84.0924 38.9995 81.7397V78.6782C38.9995 78.7705 39.0162 78.8615 39.0469 78.9525C39.8248 81.1771 50.015 82.9378 62.4709 82.9378C74.9268 82.9378 85.1171 81.1771 85.895 78.9525C85.927 78.8615 85.9424 78.7705 85.9424 78.6782Z" fill="#918DE0"/>
<path d="M84.5867 74.823V78.2624C84.5867 78.3355 84.5726 78.4085 84.5432 78.4816C84.2638 79.1723 82.6773 79.8066 80.1618 80.3269C79.8004 80.4012 79.4211 80.4743 79.0226 80.5435C78.4895 80.637 77.9244 80.7254 77.3298 80.81C74.7707 81.1714 71.6657 81.4405 68.2288 81.584C66.3937 81.6609 64.4638 81.7019 62.4724 81.7019C60.29 81.7019 58.182 81.6532 56.1906 81.5609C55.2641 81.5187 54.3632 81.4674 53.4918 81.4059C52.9459 81.3687 52.4116 81.3277 51.89 81.2829C47.2011 80.8856 43.5412 80.2308 41.6895 79.4414C40.9795 79.139 40.5349 78.8173 40.4003 78.4816C40.3708 78.4085 40.3568 78.3368 40.3568 78.2624V74.823C40.3568 68.7398 42.8133 63.2295 46.7885 59.2313C50.1421 55.8533 54.5836 53.5531 59.5442 52.8983C60.5015 52.7714 61.4792 52.7061 62.4711 52.7061C62.7287 52.7061 62.985 52.7099 63.24 52.7189C64.2024 52.7522 65.1494 52.8457 66.0772 52.9982C67.0485 53.1571 67.9981 53.3801 68.922 53.662C71.7874 54.5347 74.4054 55.9725 76.6467 57.8473C76.953 58.1023 77.2516 58.3663 77.5425 58.638C77.7347 58.8161 77.9231 58.9981 78.1076 59.1839C78.3857 59.462 78.6574 59.749 78.9213 60.0412C82.4428 63.9587 84.5855 69.1409 84.5855 74.823H84.5867Z" fill="#FDC2FF"/>
<path d="M84.588 78.2614C84.588 78.3793 84.5496 78.4972 84.474 78.6126C83.3437 80.3477 73.9236 81.7009 62.4711 81.7009C61.8086 81.7009 61.1525 81.6958 60.5053 81.6868C49.2117 81.5317 40.3555 80.0581 40.3555 78.2614C40.3555 77.8898 40.7348 77.5323 41.4357 77.1965C44.3191 75.8189 52.6473 74.8232 62.4724 74.8232C64.7572 74.8232 66.9614 74.8771 69.0348 74.977C78.0448 75.4114 84.5893 76.7173 84.5893 78.2614H84.588Z" fill="#918DE0"/>
<path d="M80.855 71.662C80.7947 71.9426 80.3257 72.2297 79.43 72.3937L79.2621 71.3711C79.8772 71.4185 80.8639 71.5172 80.855 71.662Z" fill="#FE5D02"/>
<path d="M62.1691 79.5471C71.5367 79.5471 79.1306 79.1036 79.1306 78.5565C79.1306 78.0094 71.5367 77.5659 62.1691 77.5659C52.8015 77.5659 45.2075 78.0094 45.2075 78.5565C45.2075 79.1036 52.8015 79.5471 62.1691 79.5471Z" fill="#112130"/>
<path d="M60.5084 71.5688C60.5084 71.5688 60.5148 71.5688 60.5186 71.5688H63.2033C64.3592 71.5688 65.2959 73.0848 65.2959 74.9545C65.2959 76.8242 64.3592 78.3401 63.2033 78.3401H60.5186C60.5186 78.3401 60.5122 78.3401 60.5084 78.3401C59.3525 78.3401 58.4157 76.8242 58.4157 74.9545C58.4157 73.0848 59.3525 71.5688 60.5084 71.5688Z" fill="#112130"/>
<path d="M72.6722 71.5688C72.6722 71.5688 72.6786 71.5688 72.6825 71.5688H75.3672C76.5231 71.5688 77.4598 73.0848 77.4598 74.9545C77.4598 76.8242 76.5231 78.3401 75.3672 78.3401H72.6825C72.6825 78.3401 72.6761 78.3401 72.6722 78.3401C71.5163 78.3401 70.5796 76.8242 70.5796 74.9545C70.5796 73.0848 71.5163 71.5688 72.6722 71.5688Z" fill="#112130"/>
<path d="M46.9541 68.998L46.3403 69.526C46.0494 69.7759 45.9226 70.1667 46.011 70.5397L46.1507 71.1291L46.9529 68.998H46.9541Z" fill="white"/>
<path d="M45.8407 72.4354C45.9471 71.2808 46.2495 70.1518 46.7352 69.0972L46.944 68.6436H52.0456L49.4019 76.2542C48.4716 76.0223 47.6091 75.5738 46.8864 74.9445L46.8249 74.892C46.1213 74.2795 45.7548 73.3645 45.8407 72.4354Z" fill="#1A473F"/>
<path opacity="0.5" d="M45.8407 72.4354C45.9471 71.2808 46.2495 70.1518 46.7352 69.0972L46.944 68.6436H52.0456L49.4019 76.2542C48.4716 76.0223 47.6091 75.5738 46.8864 74.9445L46.8249 74.892C46.1213 74.2795 45.7548 73.3645 45.8407 72.4354Z" fill="#1A473F"/>
<path d="M52.6111 78.3426C53.767 78.3426 54.7037 76.8266 54.7037 74.9569C54.7037 73.0873 53.767 71.5713 52.6111 71.5713H49.9264V78.3439H52.6111V78.3426Z" fill="#223544"/>
<path d="M49.9174 78.3426C51.0731 78.3426 52.0101 76.8268 52.0101 74.9569C52.0101 73.0871 51.0731 71.5713 49.9174 71.5713C48.7617 71.5713 47.8248 73.0871 47.8248 74.9569C47.8248 76.8268 48.7617 78.3426 49.9174 78.3426Z" fill="#223544"/>
<path d="M49.9172 77.0986C50.7275 77.0986 51.3845 76.1399 51.3845 74.9573C51.3845 73.7746 50.7275 72.8159 49.9172 72.8159C49.1068 72.8159 48.4499 73.7746 48.4499 74.9573C48.4499 76.1399 49.1068 77.0986 49.9172 77.0986Z" fill="#112130"/>
<path d="M72.9181 68.1804L70.8191 71.5507L70.7845 71.607L70.3103 72.367L68.7226 74.9158L67.8871 76.2562H53.6512C53.4385 76.2562 53.2565 76.123 53.195 75.9218C52.799 74.6339 52.817 71.5699 49.9272 71.5699L46.9427 68.6443C48.0678 66.8566 51.7828 64.6833 57.9211 64.2373L58.2453 64.7294C59.3832 65.3291 61.1401 66.5888 62.6407 68.1791H72.9156L72.9181 68.1804Z" fill="#1A473F"/>
<path d="M64.7751 78.3426C65.931 78.3426 66.8678 76.8266 66.8678 74.9569C66.8678 73.0873 65.931 71.5713 64.7751 71.5713H62.0905V78.3439H64.7751V78.3426Z" fill="#223544"/>
<path d="M62.0803 78.3426C63.236 78.3426 64.1729 76.8268 64.1729 74.9569C64.1729 73.0871 63.236 71.5713 62.0803 71.5713C60.9245 71.5713 59.9876 73.0871 59.9876 74.9569C59.9876 76.8268 60.9245 78.3426 62.0803 78.3426Z" fill="#223544"/>
<path d="M62.08 77.0986C62.8904 77.0986 63.5473 76.1399 63.5473 74.9573C63.5473 73.7746 62.8904 72.8159 62.08 72.8159C61.2697 72.8159 60.6127 73.7746 60.6127 74.9573C60.6127 76.1399 61.2697 77.0986 62.08 77.0986Z" fill="#112130"/>
<path d="M79.1791 71.2546L78.2629 71.4661L77.8541 71.5596L76.2907 71.9197L75.4103 72.1222L72.0118 71.7441L71.3788 71.6737L71.0469 71.6365L70.7855 71.607L66.8885 71.1726L66.827 71.147L65.1662 70.4498L65.0573 70.3525L62.6443 68.1816H72.9191C73.7277 68.1816 77.5081 69.5477 78.8831 70.9227C78.9613 71.0009 79.0343 71.0803 79.1009 71.1585C79.124 71.188 79.1484 71.2149 79.1714 71.2444C79.1753 71.2482 79.1778 71.2508 79.1804 71.2546H79.1791Z" fill="#5FCEB1"/>
<path d="M80.0586 75.3226C80.0817 75.8262 79.6191 76.258 79.0616 76.2593C75.5465 76.2606 71.4753 76.2708 68.7945 76.2773L68.6189 73.0121C68.6189 73.0121 68.6189 73.0057 68.6189 73.0018C68.5779 72.3098 68.146 71.6998 67.5066 71.432L66.8876 71.1719L75.4094 72.1202L79.1795 71.2539C79.8689 72.1266 79.9586 73.1351 80.0586 75.3213V75.3226Z" fill="#A6FFE6"/>
<path d="M72.9178 68.1801H64.173C64.173 68.1801 60.4145 64.9303 57.922 64.2383C58.2872 64.2114 58.6601 64.1908 59.042 64.1768C59.051 64.1768 59.0599 64.1768 59.0676 64.1768C59.1599 64.1729 59.2522 64.1703 59.3457 64.1678C59.4329 64.1652 59.5213 64.1639 59.6097 64.1614C59.6456 64.1614 59.6815 64.1601 59.7186 64.1601C59.7917 64.1588 59.8647 64.1575 59.939 64.1575C60.039 64.1575 60.1389 64.1562 60.2402 64.1562C60.9232 64.1562 61.578 64.1806 62.2021 64.2267C62.3226 64.2357 62.443 64.2447 62.5622 64.2562C62.6955 64.2677 62.8288 64.2793 62.9595 64.2934C63.0684 64.3049 63.176 64.3164 63.2824 64.3292C63.6361 64.369 63.9782 64.4177 64.3101 64.4715C64.4216 64.4894 64.5305 64.5087 64.6395 64.5279C64.7766 64.5509 64.9137 64.5766 65.047 64.6035C65.1251 64.6189 65.202 64.6342 65.2776 64.6496C65.3814 64.6714 65.4852 64.6932 65.5878 64.7163C65.689 64.7393 65.7902 64.7611 65.8902 64.7855C65.9773 64.806 66.0632 64.8265 66.149 64.8482C66.208 64.8636 66.2682 64.8777 66.3272 64.8931C66.7462 65.0007 67.1447 65.1174 67.5228 65.2417C67.5804 65.2609 67.6381 65.2788 67.6945 65.2993C67.9764 65.3929 68.2455 65.4915 68.5031 65.5902C68.5813 65.621 68.6582 65.6504 68.7338 65.6812C71.4069 66.7576 72.7486 68.0314 72.9037 68.1685C72.905 68.1698 72.9075 68.1724 72.9101 68.1737C72.9139 68.1775 72.9152 68.1788 72.9165 68.1801H72.9178Z" fill="#FAA6FF"/>
<path d="M75.4002 72.1682C75.4002 72.1682 75.4066 72.1682 75.4105 72.1682L77.8184 71.6146C77.8427 71.6095 77.8581 71.5839 77.853 71.5595C77.8478 71.5352 77.8222 71.5198 77.7979 71.5249L75.3977 72.0759L71.4289 71.6236C71.4033 71.621 71.3802 71.639 71.3777 71.6646C71.3751 71.6902 71.3931 71.7133 71.4187 71.7159L75.3951 72.1682C75.3951 72.1682 75.3989 72.1682 75.4002 72.1682Z" fill="#1A473F"/>
<path d="M56.7047 69.1H55.5052C55.4117 69.1 55.3361 69.0244 55.3361 68.9309C55.3361 68.8373 55.4117 68.7617 55.5052 68.7617H56.7047C56.7982 68.7617 56.8738 68.8373 56.8738 68.9309C56.8738 69.0244 56.7982 69.1 56.7047 69.1Z" fill="#192A38"/>
<path d="M68.7959 76.277C68.7408 76.277 68.6857 76.277 68.6319 76.277C67.8194 76.2783 67.1454 76.2808 66.6661 76.2821C66.2124 76.2821 65.8344 75.9938 65.7665 75.5889C65.5115 74.0754 64.0019 71.5702 62.0925 71.5702L60.2421 68.1807H62.6435L65.1655 70.4501L67.5067 71.433C68.1475 71.7009 68.578 72.3108 68.619 73.0028C68.619 73.0067 68.619 73.0092 68.619 73.0131L68.7946 76.2783L68.7959 76.277Z" fill="#1A473F"/>
<mask id="mask1_6749_145934" style="mask-type:luminance" maskUnits="userSpaceOnUse" x="45" y="64" width="24" height="13">
<path d="M68.7222 74.9156L67.8867 76.2547H66.4284C66.0849 76.174 65.821 75.9202 65.7646 75.5883C65.5108 74.0877 64.0243 71.6094 62.1355 71.5709C62.1201 71.5709 62.106 71.5709 62.0906 71.5709H62.0816C60.9257 71.5709 59.989 73.0869 59.989 74.9579C59.989 75.4179 60.0454 75.8574 60.1492 76.2573H53.6508C53.4381 76.2573 53.2561 76.124 53.1946 75.9228C52.8538 74.813 52.8192 72.3885 50.9713 71.7362C50.6842 71.635 50.3536 71.576 49.9717 71.5722C49.9563 71.5722 49.9423 71.5722 49.9269 71.5722H49.9166C48.7607 71.5722 47.824 73.0882 47.824 74.9591C47.824 75.1936 47.8394 75.423 47.8663 75.6447C47.5177 75.4461 47.1897 75.2129 46.8847 74.9489L46.8232 74.8963C46.1183 74.2825 45.7518 73.3688 45.8377 72.4398C45.9441 71.2839 46.2465 70.1562 46.7322 69.1028L46.941 68.6492C48.0662 66.8615 51.7812 64.6881 57.9194 64.2422L58.2436 64.7343C59.3816 65.334 61.1385 66.5937 62.6391 68.184L65.1597 70.4535L67.501 71.4364C68.1417 71.7042 68.5723 72.3142 68.6133 73.0062C68.6133 73.01 68.6133 73.0126 68.6133 73.0164L68.7158 74.9207L68.7222 74.9156Z" fill="white"/>
</mask>
<g mask="url(#mask1_6749_145934)">
<path d="M44.4377 69.653C47.5991 70.5372 52.1278 69.4941 53.1517 66.8786C53.4746 65.9957 52.9313 65.2794 51.7254 65.5241C50.6208 65.7087 49.1561 66.8504 48.4372 67.8128C47.075 69.5505 46.2587 72.1903 47.4197 74.1561C49.702 77.2304 56.026 75.1403 58.8824 72.4351C59.9204 71.4727 60.7572 70.2797 61.1737 69.0277C61.4428 68.2114 61.594 67.1452 61.0596 66.475C60.1921 65.5446 58.7645 66.3045 57.9969 67.0555C55.9632 69.1661 55.5006 72.7196 56.8641 75.3722C59.8704 81.2529 66.6071 76.7549 68.2 73.0989C68.5601 72.2877 68.7023 71.4907 68.5319 70.7807C68.2846 69.6389 67.1095 68.697 65.7319 68.4548C62.5743 67.8654 61.1468 70.9473 62.632 73.6346C63.4124 75.2133 64.8477 76.5717 66.3419 77.7289" stroke="#256B59" stroke-width="0.749661" stroke-miterlimit="10"/>
</g>
<path d="M51.4429 69.1H50.2434C50.1499 69.1 50.0743 69.0244 50.0743 68.9309C50.0743 68.8373 50.1499 68.7617 50.2434 68.7617H51.4429C51.5364 68.7617 51.612 68.8373 51.612 68.9309C51.612 69.0244 51.5364 69.1 51.4429 69.1Z" fill="#192A38"/>
<path d="M62.6431 68.1794H50.4076C49.7836 68.1794 49.1685 68.0179 48.6251 67.7116C48.6251 67.7116 49.1198 67.2631 50.1116 66.7159C51.1035 66.17 52.5938 65.5267 54.584 65.141C56.2204 64.8232 57.7723 64.6989 58.2477 64.7296C59.3856 65.3294 61.1425 66.5891 62.6431 68.1794Z" fill="#192A38"/>
<path d="M71.5314 75.4336H78.3514C78.6 75.4336 78.7819 75.1709 78.7204 74.8992L78.3924 73.4499C78.3488 73.2602 78.1976 73.127 78.0233 73.127H71.8607C71.6864 73.127 71.5339 73.2602 71.4916 73.4499L71.1636 74.8992C71.1021 75.1696 71.284 75.4336 71.5327 75.4336H71.5314Z" fill="#1A473F"/>
<path d="M47.1657 71.6528L47.7129 71.7579V70.2739L47.1657 70.379C47.0914 70.3931 47.0363 70.4931 47.0363 70.6122V71.4183C47.0363 71.5375 47.0914 71.6374 47.1657 71.6515V71.6528Z" fill="#192A38"/>
<path d="M71.0544 71.6384C69.855 71.1835 66.2323 69.9072 65.2442 70.2403C64.2562 70.5722 66.6487 71.7563 67.251 71.9139C67.8533 72.0716 68.2493 71.7563 69.1514 72.192C70.0536 72.6277 72.5076 72.1895 71.0544 71.6384Z" fill="white"/>
<path d="M77.8939 71.6833C78.1412 71.5334 78.5461 71.2951 79.0036 71.0503C79.2663 71.3348 79.456 71.6257 79.5969 71.9601C79.4585 71.9883 79.2996 72.0537 79.1036 72.2049C78.5192 72.6547 76.9533 72.2562 77.8939 71.6833Z" fill="white"/>
<mask id="mask2_6749_145934" style="mask-type:luminance" maskUnits="userSpaceOnUse" x="57" y="64" width="16" height="5">
<path d="M60.2422 64.157C68.8844 64.157 72.8288 68.1194 72.9172 68.1809H64.1725C64.1725 68.1809 60.4126 64.9311 57.9214 64.2391C58.6596 64.1852 59.4336 64.1558 60.2409 64.1558L60.2422 64.157Z" fill="white"/>
</mask>
<g mask="url(#mask2_6749_145934)">
<path d="M60.5238 66.7907C60.4687 67.0022 60.4367 67.2175 60.4265 67.4302L62.5857 68.1888C62.5217 68.053 62.4755 67.9082 62.4486 67.757C62.2654 66.6972 63.1457 66.478 64.0159 66.6113C64.4208 66.6639 64.8322 66.7958 65.2256 66.9355C66.4827 67.4238 68.1653 67.7134 69.0431 66.3935C69.2494 66.0654 69.3698 65.7066 69.4301 65.3375L68.3037 64.9416C68.1999 65.3914 67.991 65.7732 67.595 65.8617C67.3477 65.9206 66.9555 65.8527 66.68 65.7579C66.4404 65.6848 66.1969 65.581 65.9701 65.4721C65.2127 65.1094 64.3939 64.7993 63.5391 64.7609C62.1936 64.6545 60.8686 65.4106 60.5251 66.7894L60.5238 66.7907Z" fill="white"/>
</g>
<path d="M54.4413 69.2856C54.4413 69.2856 54.4797 72.0395 55.2883 74.1206" stroke="#192A38" stroke-width="0.194784" stroke-miterlimit="10"/>
<path d="M64.173 68.1801H62.6429C61.1423 66.5898 59.3854 65.3301 58.2475 64.7304L57.9233 64.2383C60.4157 64.9303 64.1743 68.1801 64.1743 68.1801H64.173Z" fill="#5FCEB1"/>
<path d="M67.8303 74.3571C66.9922 74.4737 66.1592 74.5327 65.3237 74.5327C63.9717 74.5327 62.6134 74.3789 61.2191 74.0714C59.27 73.6408 57.5682 72.9706 56.2022 72.4336C55.6832 72.2299 55.1937 72.0364 54.7528 71.8813C48.9221 69.8233 42.4776 73.4255 42.4136 73.4614L43.0786 72.2222L41.4473 71.7609C41.5217 71.7186 43.2901 70.7216 45.8735 70.0052C47.3985 69.5836 48.8965 69.3453 50.3266 69.2979C52.1399 69.2376 53.8481 69.4863 55.4051 70.036C55.8793 70.2039 56.3854 70.4025 56.9198 70.6127C59.5532 71.6494 63.158 73.068 67.6829 72.4016L67.7905 72.3862L67.8303 74.3571Z" fill="#CC58B1"/>
<path d="M74.8621 74.2025L75.1492 74.3601L74.9249 74.6369C74.7801 74.6369 72.9899 74.6344 72.8425 74.6331C70.3436 74.5998 68.3561 74.4088 67.8422 74.355C67.8384 74.355 67.8345 74.355 67.8307 74.3563L67.791 72.3854L67.8089 72.3828L67.9358 72.3969C67.9819 72.402 72.1646 72.6801 75.2517 72.6788L74.9672 73.0863L75.144 73.3068L74.8813 73.6604L75.1351 73.7988L74.8634 74.2012L74.8621 74.2025Z" fill="#F180D2"/>
<path d="M80.8552 71.6621C80.8206 72.1298 80.7732 72.7539 80.7386 73.2229C80.4028 74.5582 76.6443 74.5659 75.5563 74.6377L75.7806 74.3609L75.4935 74.2033L75.7652 73.8009L75.5115 73.6625L75.7742 73.3088L75.5973 73.0884L75.8818 72.6809C76.502 72.6809 80.0235 72.7578 80.8552 71.6621Z" fill="#F180D2"/>
<path d="M50.6581 67.5931L49.4843 68.5837C49.0819 68.4799 48.7115 68.3607 48.3732 68.2275C46.7163 67.5714 46.3511 66.7563 46.2947 66.6L47.1443 66.7487L47.4275 66.1592C47.4301 66.1643 47.7133 66.7166 49.096 67.1985C49.4932 67.3369 50.0045 67.4765 50.6581 67.5944V67.5931Z" fill="#FE5D02"/>
<path d="M80.5794 70.0446C80.1488 70.0843 79.8002 70.6507 79.7503 71.3709C79.7016 70.6494 79.353 70.0843 78.9211 70.0446C79.3517 70.0049 79.7003 69.4384 79.7503 68.7183C79.799 69.4384 80.1475 70.0049 80.5794 70.0446Z" fill="white"/>
<path d="M60.0795 60.9758C59.7155 61.2769 59.6361 61.8126 59.8821 62.2393C59.5489 61.8767 59.0133 61.7921 58.6173 62.0497C58.9812 61.7485 59.062 61.2129 58.8147 60.7861C59.1478 61.1488 59.6835 61.2334 60.0795 60.9758Z" fill="#F180D2"/>
<path d="M49.9254 61.3659C49.7921 61.6375 49.6588 61.9079 49.5256 62.1796C48.9848 62.1424 48.9066 61.4735 48.567 61.5299C48.6529 61.3556 48.7387 61.1801 48.8246 61.0058C49.1975 60.8802 49.3231 61.4568 49.9254 61.3671V61.3659Z" fill="#F180D2"/>
<path d="M56.2906 62.6712C56.2009 62.7391 56.1099 62.8083 56.0202 62.8762C55.7524 62.7724 55.7818 62.3777 55.4205 62.1881C55.5435 62.0945 55.6665 62.001 55.7895 61.9087C56.1112 62.1291 56.0497 62.5481 56.2906 62.6712Z" fill="#5FCEB1"/>
<path d="M72.3855 64.2753C72.3009 64.1997 72.2176 64.1241 72.1331 64.0485C72.1843 63.7666 72.5777 63.7217 72.6956 63.3296C72.811 63.4334 72.925 63.5372 73.0403 63.6397C72.8853 63.9972 72.4611 64.0152 72.3855 64.2753Z" fill="#5FCEB1"/>
<path d="M53.8334 65.266C53.6656 65.4338 53.4977 65.6017 53.3298 65.7696C52.8185 65.6209 52.8505 64.9277 52.3392 64.779C52.5071 64.6111 52.675 64.4433 52.8429 64.2754C53.3542 64.424 53.3221 65.1173 53.8334 65.266Z" fill="#918DE0"/>
<path d="M67.6221 64.0277C67.4812 63.9624 67.3389 63.8957 67.198 63.8304C67.139 63.4139 67.6798 63.1371 67.699 62.3926C67.9323 62.5002 68.1655 62.6091 68.3974 62.7168C68.2539 63.4049 67.6273 63.6407 67.6221 64.0277Z" fill="#E5FC54"/>
<path d="M61.134 65.2449L61.6095 65.022L61.8196 65.7255L61.5133 65.8639L61.134 65.2449Z" fill="#FE5D02"/>
<path d="M75.5921 65.2871L76.5558 65.3396C76.5558 65.3396 76.5238 66.1495 75.8625 66.4392H75.1359C75.1359 66.4392 75.7908 66.0701 75.5921 65.2871Z" fill="#02B6FF"/>
<path d="M64.1279 60.8941L63.6781 60.3931C63.6781 60.3931 64.0933 60.0087 64.5623 60.1932L64.9198 60.5507C64.9198 60.5507 64.4149 60.4098 64.1266 60.8941H64.1279Z" fill="white"/>
<path d="M50.5482 61.9986C51.2351 61.9127 51.9655 61.8333 52.5934 62.128C53.5071 62.5573 53.9736 63.676 54.9193 64.0271C55.4909 64.2386 56.1418 64.1207 56.6865 63.8477C57.2311 63.5748 57.6886 63.1596 58.1397 62.7508" stroke="white" stroke-width="0.120458" stroke-miterlimit="10"/>
<path d="M46.0011 68.8898C47.0519 65.1402 49.4598 61.957 52.6609 59.9028" stroke="white" stroke-width="1.93374" stroke-miterlimit="10" stroke-linecap="round"/>
<g opacity="0.2">
<path d="M76.6008 57.8469L51.8428 81.2812C47.1539 80.8839 43.494 80.2291 41.6423 79.4397L68.8761 53.6616C71.7415 54.5343 74.3595 55.9721 76.6008 57.8469Z" fill="white"/>
<path d="M78.8768 60.0414L56.1435 81.5586C55.217 81.5163 54.3161 81.465 53.4447 81.4035L77.4966 58.6382C77.6889 58.8163 77.8772 58.9983 78.0618 59.1841C78.3398 59.4622 78.6115 59.7492 78.8755 60.0414H78.8768Z" fill="white"/>
</g>
<path d="M77.1017 55.7991V55.835C77.1017 55.9823 76.9902 56.1053 76.8429 56.1194C75.3858 56.2668 74.2261 57.6457 74.1172 59.3693C74.1082 59.5179 73.9801 59.6332 73.8301 59.6332C73.6802 59.6332 73.5533 59.5192 73.5431 59.3693C73.4354 57.6457 72.2744 56.2668 70.8161 56.1194C70.6687 56.1041 70.5573 55.9823 70.5573 55.835V55.7991C70.5573 55.6517 70.6687 55.5287 70.8161 55.5146C72.2757 55.3672 73.4354 53.9884 73.5431 52.2635C73.552 52.1148 73.6802 51.9995 73.8301 51.9995C73.9801 51.9995 74.1069 52.1136 74.1172 52.2635C74.2248 53.9884 75.3846 55.3672 76.8429 55.5146C76.9902 55.53 77.1017 55.6517 77.1017 55.7991Z" fill="#FAA6FF"/>
</g>
<defs>
<clipPath id="clip0_6749_145934">
<rect width="160" height="160" fill="white"/>
</clipPath>
<clipPath id="clip1_6749_145934">
<rect width="46.9429" height="34" fill="white" transform="translate(39 52)"/>
</clipPath>
</defs>
</svg>
