<svg width="14" height="15" viewBox="0 0 14 15" fill="none" xmlns="http://www.w3.org/2000/svg">
<g id="vuesax/bold/document-copy">
<g id="document-copy">
<path id="Vector" d="M9.04163 8.17148H7.77579C6.73746 8.17148 5.89163 7.33148 5.89163 6.28732V5.02148C5.89163 4.78232 5.69913 4.58398 5.45413 4.58398H3.60496C2.25746 4.58398 1.16663 5.45898 1.16663 7.02232V10.8957C1.16663 12.459 2.25746 13.334 3.60496 13.334H7.04079C8.38829 13.334 9.47913 12.459 9.47913 10.8957V8.60898C9.47913 8.36398 9.28079 8.17148 9.04163 8.17148Z" fill="#FE5E02"/>
<path id="Vector_2" d="M10.3949 1.66602H9.24578H8.60994H6.95911C5.64078 1.66602 4.57328 2.50602 4.52661 4.00518C4.56161 4.00518 4.59078 3.99935 4.62578 3.99935H6.27661H6.91244H8.06161C9.40911 3.99935 10.4999 4.87435 10.4999 6.43768V7.58685V9.16768V10.3168C10.4999 10.3518 10.4941 10.381 10.4941 10.4102C11.7949 10.3693 12.8333 9.50602 12.8333 7.98352V6.83435V5.25352V4.10435C12.8333 2.54102 11.7424 1.66602 10.3949 1.66602Z" fill="#FE5E02"/>
<path id="Vector_3" d="M6.98829 4.6702C6.80746 4.48937 6.49829 4.61187 6.49829 4.8627V6.39103C6.49829 7.0327 7.04079 7.5577 7.70579 7.5577C8.11996 7.56353 8.69746 7.56353 9.19329 7.56353C9.44412 7.56353 9.57246 7.27187 9.39746 7.09687C8.76162 6.46103 7.62996 5.32353 6.98829 4.6702Z" fill="#FE5E02"/>
</g>
</g>
</svg>
