<svg width="21" height="13" viewBox="0 0 21 13" fill="none" xmlns="http://www.w3.org/2000/svg">
<path d="M12.624 4.64814C13.0472 4.38396 13.4486 4.1621 13.8257 3.97359L14.1475 3.81842H14.118L14.1488 3.81201C16.0237 2.93741 17.1984 2.93484 17.2266 2.93484C17.2176 2.89509 17.1138 2.88867 16.688 2.61167C16.4423 2.44652 16.1852 2.2991 15.9185 2.17053C15.48 1.89096 14.4579 1.55754 14.4579 1.55754H14.4463C13.1517 1.15518 11.8081 0.932104 10.4529 0.894531C9.60461 0.900627 8.75891 0.989535 7.92787 1.15999L7.86631 1.17281C6.79679 1.38826 5.44 2.05896 5.44 2.05896C4.7218 2.39982 4.03811 2.80909 3.39841 3.28109L3.3702 3.30289C3.13936 3.47986 1.58508 4.70585 0.5489 6.38067V6.38836C0.494073 6.47024 0.445215 6.55595 0.402705 6.64485H0.415529C0.401423 6.67434 0.384751 6.70255 0.370645 6.73205C0.356538 6.76154 0.333455 6.80643 0.315501 6.8449C0.105567 7.30765 -0.00203907 7.81025 2.92609e-05 8.31839C2.92609e-05 10.4395 1.94288 12.1053 4.29738 12.1053C7.41234 12.1053 8.25745 9.24557 10.1439 6.84747C10.7635 6.02908 11.5281 5.33142 12.3996 4.7892L12.4176 4.77894L12.624 4.64814Z" fill="#28A487"/>
<path opacity="0.5" d="M17.2227 2.94727C17.1996 2.94727 16.0262 2.94727 14.1449 3.82443L13.8218 3.97319C13.4447 4.16171 13.0433 4.38484 12.6189 4.64774C12.5509 4.69134 12.347 4.80291 12.2341 4.88883C13.2254 5.80062 13.8166 6.41233 14.2142 6.85091C14.6117 7.2895 14.8554 7.59343 15.1721 7.94096C18.0165 10.9905 23.4411 6.99326 17.2227 2.94727Z" fill="#28A487"/>
</svg>
