<svg width="40" height="40" viewBox="0 0 40 40" fill="none" xmlns="http://www.w3.org/2000/svg">
<g id="stopwatch-svgrepo-com 1">
<path id="Vector" d="M20 0C17.9375 0 16.25 1.6875 16.25 3.75C16.25 5.8125 17.9375 7.5 20 7.5C22.0625 7.5 23.75 5.8125 23.75 3.75C23.75 1.6875 22.0625 0 20 0ZM20 6.4375C18.5 6.4375 17.3125 5.25 17.3125 3.75C17.3125 2.25 18.5 1.0625 20 1.0625C21.5 1.0625 22.6875 2.25 22.6875 3.75C22.6875 5.25 21.5 6.4375 20 6.4375Z" fill="#C5CAD3"/>
<path id="Vector_2" d="M19.0625 5.375H20.9375V9.4375H19.0625V5.375Z" fill="#1A473F"/>
<path id="Vector_3" d="M21.5625 7.25H18.4375V3.6875C18.4375 2.75 21.5625 2.75 21.5625 3.6875V7.25Z" fill="#28A487"/>
<path id="Vector_4" d="M6.71094 12.9285L8.56656 11.0723L10.4228 12.9279L8.56781 14.7841L6.71094 12.9285Z" fill="#1A473F"/>
<path id="Vector_5" d="M9.75 11L6.625 14.125L4.6875 12.1875C4.3125 11.8125 4.3125 11.1875 4.6875 10.8125L6.4375 9.0625C6.8125 8.6875 7.4375 8.6875 7.8125 9.0625L9.75 11Z" fill="#28A487"/>
<path id="Vector_6" d="M29.5898 12.9402L31.4461 11.084L33.3023 12.9402L31.4461 14.7965L29.5898 12.9402Z" fill="#1A473F"/>
<g id="Group">
<path id="Vector_7" d="M33.375 14.125L30.25 11L32.1875 9.0625C32.5625 8.6875 33.1875 8.6875 33.5625 9.0625L35.3125 10.8125C35.6875 11.1875 35.6875 11.8125 35.3125 12.1875L33.375 14.125Z" fill="#28A487"/>
<path id="Vector_8" d="M20 40C28.6294 40 35.625 33.0044 35.625 24.375C35.625 15.7456 28.6294 8.75 20 8.75C11.3706 8.75 4.375 15.7456 4.375 24.375C4.375 33.0044 11.3706 40 20 40Z" fill="#28A487"/>
</g>
<path id="Vector_9" d="M20 37.9375C27.4904 37.9375 33.5625 31.8654 33.5625 24.375C33.5625 16.8846 27.4904 10.8125 20 10.8125C12.5096 10.8125 6.4375 16.8846 6.4375 24.375C6.4375 31.8654 12.5096 37.9375 20 37.9375Z" fill="#D2D3D5"/>
<path id="Vector_10" d="M20 36.875C26.9036 36.875 32.5 31.2786 32.5 24.375C32.5 17.4714 26.9036 11.875 20 11.875C13.0964 11.875 7.5 17.4714 7.5 24.375C7.5 31.2786 13.0964 36.875 20 36.875Z" fill="white"/>
<path id="Vector_11" d="M32.5 24.375C32.5 27.8125 31.125 30.9375 28.875 33.1875L20 24.375V11.875C26.875 11.875 32.5 17.5 32.5 24.375Z" fill="#FE5E02"/>
<g id="Group_2">
<path id="Vector_12" d="M27.1875 31.5L20.8125 23.9375L19.5625 25.1875L27.1875 31.5Z" fill="#1A473F"/>
<path id="Vector_13" d="M19.5625 12.9375H20.4375V16.4375H19.5625V12.9375Z" fill="#1A473F"/>
<path id="Vector_14" d="M19.5625 32.3125H20.4375V35.8125H19.5625V32.3125Z" fill="#1A473F"/>
<path id="Vector_15" d="M8.5625 23.9375H12.0625V24.8125H8.5625V23.9375Z" fill="#1A473F"/>
<path id="Vector_16" d="M27.9375 23.9375H31.4375V24.8125H27.9375V23.9375Z" fill="#1A473F"/>
<path id="Vector_17" d="M13.8613 14.6641L14.6195 14.2266L15.4945 15.7422L14.7363 16.1797L13.8613 14.6641Z" fill="#1A473F"/>
<path id="Vector_18" d="M9.83008 19.0387L10.2676 18.2812L11.7832 19.1562L11.3457 19.9144L9.83008 19.0387Z" fill="#1A473F"/>
<path id="Vector_19" d="M9.85156 29.7571L11.3666 28.8809L11.8041 29.6384L10.2897 30.5146L9.85156 29.7571Z" fill="#1A473F"/>
<path id="Vector_20" d="M13.9082 34.1094L14.7832 32.5938L15.5407 33.0313L14.6657 34.5469L13.9082 34.1094Z" fill="#1A473F"/>
<path id="Vector_21" d="M24.4746 32.9531L25.2321 32.5156L26.1071 34.0312L25.3502 34.4688L24.4746 32.9531Z" fill="#1A473F"/>
<path id="Vector_22" d="M28.1875 29.6429L28.625 28.8848L30.1406 29.7604L29.7031 30.5185L28.1875 29.6429Z" fill="#1A473F"/>
<path id="Vector_23" d="M28.1406 19.1426L29.6556 18.2676L30.0931 19.0251L28.5781 19.9001L28.1406 19.1426Z" fill="#1A473F"/>
<path id="Vector_24" d="M24.4609 15.7181L25.3366 14.2031L26.0941 14.6406L25.2191 16.1562L24.4609 15.7181Z" fill="#1A473F"/>
<path id="Vector_25" d="M20 26.125C20.9665 26.125 21.75 25.3415 21.75 24.375C21.75 23.4085 20.9665 22.625 20 22.625C19.0335 22.625 18.25 23.4085 18.25 24.375C18.25 25.3415 19.0335 26.125 20 26.125Z" fill="#1A473F"/>
</g>
</g>
</svg>
