<svg width="51" height="28" viewBox="0 0 51 28" fill="none" xmlns="http://www.w3.org/2000/svg">
<path d="M31.5297 9.37497C32.5867 8.71517 33.5892 8.16106 34.5308 7.69023L35.3348 7.30268H35.2611L35.338 7.28666C40.0207 5.10227 42.9545 5.09586 43.025 5.09586C43.0026 4.99657 42.7432 4.98055 41.6798 4.28872C41.0662 3.87624 40.424 3.50804 39.758 3.18691C38.6626 2.48868 36.1099 1.65591 36.1099 1.65591H36.0811C32.8477 0.650995 29.4918 0.0938419 26.1071 0C23.9884 0.015224 21.8762 0.237279 19.8006 0.663006L19.6468 0.695036C16.9756 1.23313 13.5869 2.90826 13.5869 2.90826C11.7931 3.7596 10.0855 4.78178 8.48783 5.96065L8.41737 6.0151C7.84084 6.4571 3.95889 9.5191 1.37093 13.7021V13.7213C1.23399 13.9258 1.11196 14.1399 1.00579 14.3619H1.03782C1.00259 14.4356 0.960952 14.5061 0.925719 14.5797C0.890487 14.6534 0.832835 14.7655 0.787994 14.8616C0.263664 16.0173 -0.00509277 17.2726 7.30817e-05 18.5418C7.30817e-05 23.8394 4.85251 28 10.7331 28C18.513 28 20.6237 20.8575 25.3352 14.868C26.8827 12.824 28.7924 11.0815 30.9692 9.72729L31.014 9.70167L31.5297 9.37497Z" fill="white"/>
<path opacity="0.5" d="M43.0141 5.125C42.9564 5.125 40.0257 5.125 35.3271 7.3158L34.5199 7.68734C33.5783 8.15817 32.5757 8.71548 31.5156 9.37208C31.3458 9.48098 30.8365 9.75964 30.5547 9.97423C33.0306 12.2515 34.5071 13.7793 35.5 14.8747C36.4929 15.9701 37.1015 16.7292 37.8926 17.5972C44.9967 25.2138 58.5451 15.2302 43.0141 5.125Z" fill="white"/>
</svg>
