<svg width="107" height="97" viewBox="0 0 107 97" fill="none" xmlns="http://www.w3.org/2000/svg">
<path d="M104.376 7.67268L111.494 27.6975C112.037 29.2213 112.894 30.6139 114.01 31.7847C115.126 32.9555 116.476 33.8783 117.972 34.4933C119.468 35.1082 121.076 35.4014 122.693 35.3538C124.31 35.3063 125.899 34.919 127.356 34.2173L146.554 25.0934C156.353 20.4365 166.579 30.6628 161.922 40.4709L152.798 59.6594C152.105 61.1175 151.726 62.7049 151.685 64.3188C151.644 65.9328 151.942 67.5373 152.56 69.0288C153.178 70.5202 154.103 71.8654 155.273 72.9772C156.444 74.0891 157.835 74.9429 159.356 75.4835L179.371 82.6019C181.617 83.3995 183.561 84.8729 184.935 86.8197C186.31 88.7666 187.048 91.0913 187.048 93.4745C187.048 95.8577 186.31 98.1824 184.935 100.129C183.561 102.076 181.617 103.549 179.371 104.347L159.356 111.465C157.836 112.006 156.446 112.86 155.277 113.971C154.107 115.082 153.183 116.426 152.565 117.917C151.947 119.407 151.649 121.01 151.689 122.623C151.729 124.236 152.107 125.822 152.798 127.28L161.922 146.478C162.942 148.629 163.271 151.042 162.865 153.388C162.459 155.733 161.338 157.896 159.655 159.579C157.972 161.262 155.809 162.383 153.464 162.789C151.118 163.195 148.705 162.866 146.554 161.846L127.356 152.722C125.898 152.031 124.312 151.653 122.699 151.613C121.086 151.573 119.483 151.871 117.993 152.489C116.502 153.107 115.158 154.031 114.047 155.2C112.936 156.37 112.082 157.76 111.542 159.28L104.423 179.295C103.625 181.541 102.152 183.485 100.205 184.859C98.2584 186.234 95.9337 186.972 93.5505 186.972C91.1673 186.972 88.8426 186.234 86.8958 184.859C84.9489 183.485 83.4755 181.541 82.678 179.295L75.5595 159.28C75.0189 157.759 74.1651 156.368 73.0533 155.197C71.9414 154.027 70.5963 153.102 69.1048 152.484C67.6134 151.866 66.0088 151.568 64.3949 151.609C62.7809 151.65 61.1936 152.029 59.7354 152.722L40.5469 161.846C30.7388 166.503 20.5125 156.277 25.1695 146.478L34.2173 127.356C34.9103 125.899 35.2899 124.313 35.3314 122.7C35.3729 121.088 35.0755 119.484 34.4583 117.993C33.841 116.503 32.9179 115.158 31.7484 114.047C30.5789 112.936 29.1891 112.082 27.669 111.542L7.67268 104.376C5.4269 103.578 3.48321 102.105 2.10864 100.158C0.734075 98.2109 -0.00390625 95.8862 -0.00390625 93.503C-0.00390625 91.1198 0.734075 88.7951 2.10864 86.8482C3.48321 84.9014 5.4269 83.428 7.67268 82.6304L27.6975 75.512C29.2155 74.9675 30.6024 74.1108 31.7688 72.9973C32.9353 71.8837 33.8553 70.538 34.4697 69.047C35.084 67.556 35.3789 65.9527 35.3354 64.3407C35.292 62.7287 34.911 61.1436 34.2173 59.6879L25.0934 40.4994C24.0628 38.3443 23.7265 35.9225 24.1309 33.5681C24.5353 31.2138 25.6605 29.043 27.3512 27.3554C29.042 25.6678 31.2148 24.5466 33.5699 24.1466C35.925 23.7465 38.3462 24.0873 40.4994 25.122L59.6879 34.2173C61.1454 34.9104 62.7322 35.2901 64.3457 35.3317C65.9591 35.3733 67.5634 35.0759 69.0547 34.4587C70.5461 33.8416 71.8914 32.9184 73.0036 31.7489C74.1159 30.5793 74.9704 29.1894 75.512 27.669L82.6304 7.67268C83.428 5.4269 84.9014 3.48321 86.8482 2.10864C88.7951 0.734075 91.1198 -0.00390625 93.503 -0.00390625C95.8862 -0.00390625 98.2109 0.734075 100.158 2.10864C102.105 3.48321 103.578 5.4269 104.376 7.67268Z" fill="#FF70FF"/>
</svg>
