<svg width="16" height="16" viewBox="0 0 16 16" fill="none" xmlns="http://www.w3.org/2000/svg">
<g clip-path="url(#clip0_7801_50257)">
<path d="M13.2279 8.549C12.6773 8.53833 12.3833 8.5675 12.3459 8.6365C12.3086 8.7055 12.4224 8.973 12.6874 9.439C12.8041 9.651 13.1008 10.1938 13.5774 11.0675C14.0541 11.9412 14.4248 12.6112 14.6894 13.0775C14.7954 13.2468 14.8854 13.5725 14.9594 14.0545C15.0334 14.5365 15.0811 14.9762 15.1024 15.3735C15.1238 15.7708 15.1238 15.98 15.1024 16.001C14.8694 15.7467 14.1518 14.9867 12.9494 13.721C11.7471 12.4553 10.9023 11.5893 10.4149 11.123C9.44027 12.9027 8.9371 13.8348 8.90544 13.9195C8.74644 14.3325 8.57694 14.645 8.39694 14.857C8.21694 15.069 7.9151 15.3338 7.49144 15.6515V13.1885C7.5021 12.6378 7.47027 12.3438 7.39594 12.3065C7.3216 12.2692 7.05144 12.383 6.58544 12.648C6.32077 12.7963 5.93944 13.0028 5.44144 13.2675C4.94344 13.5322 4.49327 13.7758 4.09094 13.9985C3.6886 14.2212 3.3126 14.4383 2.96294 14.65C2.78294 14.756 2.44394 14.846 1.94594 14.92C1.44794 14.994 1.02427 15.039 0.674937 15.055C0.325604 15.071 0.108438 15.0683 0.0234375 15.047C0.192771 14.9093 0.905104 14.242 2.16044 13.045C3.41577 11.848 4.3241 10.9688 4.88544 10.4075C3.0741 9.4225 2.1261 8.914 2.04144 8.882C1.62844 8.723 1.31594 8.5535 1.10394 8.3735C0.891937 8.1935 0.627104 7.89167 0.309437 7.468H2.77244C3.3231 7.47867 3.6171 7.44683 3.65444 7.3725C3.69177 7.29817 3.57794 7.028 3.31294 6.562L1.31094 2.9395C1.20494 2.7595 1.11494 2.4205 1.04094 1.9225C0.966938 1.4245 0.921937 1.00083 0.905937 0.6515C0.889938 0.302167 0.892604 0.085 0.913938 0C1.0516 0.169333 1.72694 0.889667 2.93994 2.161C4.15294 3.43233 5.03477 4.34333 5.58544 4.894C6.57044 3.104 7.07894 2.17183 7.11094 2.0975C7.25927 1.69483 7.4261 1.385 7.61144 1.168C7.79677 0.951 8.10127 0.678167 8.52494 0.3495C8.52494 1.51483 8.5196 2.33583 8.50894 2.8125C8.49827 3.36317 8.5301 3.65983 8.60444 3.7025C8.67877 3.74517 8.94894 3.634 9.41494 3.369L13.0374 1.367C13.2174 1.261 13.5484 1.171 14.0304 1.097C14.5124 1.023 14.9521 0.975333 15.3494 0.954C15.7468 0.932667 15.9559 0.932667 15.9769 0.954C15.7863 1.113 15.0606 1.7935 13.7999 2.9955C12.5393 4.1975 11.6494 5.0635 11.1304 5.5935C12.9311 6.58917 13.8738 7.10283 13.9584 7.1345C14.3714 7.2935 14.6839 7.463 14.8959 7.643C15.1079 7.823 15.3728 8.12483 15.6904 8.5485H13.2274L13.2279 8.549ZM8.00094 9.5185L9.52644 8.009L8.00094 6.4835L6.49144 8.009L8.00094 9.5185Z" fill="#6F56DC"/>
</g>
<defs>
<clipPath id="clip0_7801_50257">
<rect width="16" height="16" fill="white"/>
</clipPath>
</defs>
</svg>
