<svg width="40" height="40" viewBox="0 0 40 40" fill="none" xmlns="http://www.w3.org/2000/svg">
<g id="power-button-svgrepo-com 1" clip-path="url(#clip0_7008_23770)">
<path id="Vector" d="M33.7839 13.9537C31.9364 11.2506 29.3714 9.16459 26.3664 7.92115C25.9251 7.73857 25.4204 7.78833 25.0232 8.05365C24.6262 8.31911 24.3864 8.76513 24.3864 9.24271V12.2433C24.3864 12.7741 24.6818 13.2613 25.1515 13.5087C28.8263 15.4443 31.11 19.2103 31.11 23.3372C31.11 29.4468 26.1339 34.4174 20.017 34.4174C13.8888 34.4174 8.90337 29.4468 8.90337 23.3372C8.90337 19.2909 11.1174 15.5601 14.6837 13.6007C15.141 13.3494 15.4239 12.869 15.4239 12.3472V9.3231C15.4239 8.84208 15.1835 8.39326 14.7818 8.12872C14.3801 7.86411 13.8729 7.81911 13.431 8.00927C7.28524 10.6513 3.31445 16.668 3.31445 23.337C3.31445 32.5246 10.7954 39.9993 19.9904 39.9993C29.1962 39.9993 36.6858 32.5246 36.6858 23.337C36.6858 19.9762 35.6824 16.7314 33.7839 13.9537Z" fill="#28A487"/>
<path id="Vector_2" d="M20.0168 34.417C13.8887 34.417 8.90321 29.457 8.90321 23.3474C8.90321 19.3011 11.1172 15.565 14.6835 13.6057C15.1409 13.3544 15.4237 12.8686 15.4237 12.3469V9.32276C15.4237 8.84174 15.1833 8.39291 14.7817 8.12838C14.38 7.86385 13.8728 7.81877 13.4309 8.00893C7.28516 10.651 3.31445 16.6676 3.31445 23.3368C3.31445 32.5244 10.7954 39.9991 19.9904 39.9991L20.0168 34.417Z" fill="#28A487"/>
<path id="Vector_3" d="M19.9998 19.873C21.4844 19.873 22.6695 18.6693 22.6695 17.1847V2.68829C22.6695 1.20367 21.4844 0 19.9998 0C18.5152 0 17.3301 1.20352 17.3301 2.68829V17.1847C17.3301 18.6694 18.5151 19.873 19.9998 19.873Z" fill="#FE5E02"/>
<path id="Vector_4" d="M19.9998 19.873V0C18.5152 0 17.3301 1.20352 17.3301 2.68829V17.1847C17.3301 18.6694 18.5151 19.873 19.9998 19.873Z" fill="#FE5E02"/>
</g>
<defs>
<clipPath id="clip0_7008_23770">
<rect width="40" height="40" fill="white"/>
</clipPath>
</defs>
</svg>
