<svg width="28" height="28" viewBox="0 0 28 28" fill="none" xmlns="http://www.w3.org/2000/svg">
<g id="tooth-rotate-svgrepo-com 1">
<g id="Group">
<path id="Vector" d="M2.625 8.75C2.625 6.57538 7.8157 4.8125 14.2188 4.8125C20.6218 4.8125 25.8125 6.57538 25.8125 8.75" stroke="#FE5E02" stroke-width="2.625" stroke-linecap="round"/>
<path id="Vector_2" fill-rule="evenodd" clip-rule="evenodd" d="M10.0625 1.75C7.163 1.75 5.25 5.07988 5.25 9.1875C5.25 13.2951 7.163 26.25 10.0625 26.25C11.754 26.25 11.9461 15.4918 14.2188 15.4821C16.9289 15.4918 16.6835 26.25 18.375 26.25C21.2745 26.25 23.1875 13.2951 23.1875 9.1875C23.1875 5.07988 21.2745 1.75 18.375 1.75C16.9896 1.75 15.6042 3.0625 14.2188 3.0625C12.8333 3.0625 11.4479 1.75 10.0625 1.75Z" fill="#1F92D0"/>
<path id="Vector_3" d="M10.9375 3.5C9.0045 3.5 7.4375 5.067 7.4375 7" stroke="white" stroke-width="0.875" stroke-linecap="round"/>
<path id="Vector_4" d="M25.8125 8.75C25.8125 10.9246 20.6218 12.6875 14.2188 12.6875M7.4726 11.9526C4.53743 11.2382 2.625 10.07 2.625 8.75" stroke="#FE9E67" stroke-width="2.625" stroke-linecap="round"/>
<path id="Vector_5" fill-rule="evenodd" clip-rule="evenodd" d="M10.9375 12.6875L14.875 15.3125V10.0625L10.9375 12.6875Z" fill="#FE9E67"/>
</g>
</g>
</svg>
