<svg width="20" height="20" viewBox="0 0 20 20" fill="none" xmlns="http://www.w3.org/2000/svg">
<path d="M18.3868 2H1.64996C1.28435 2 1 2.31707 1 2.67377V14.6433H7.49975C7.49975 14.8415 7.66226 15 7.86536 15H12.1308C12.3339 15 12.4964 14.8414 12.4964 14.6433H18.9961V2.67381C19.0368 2.31707 18.7524 2 18.3868 2Z" fill="#28A487"/>
<path d="M18.1474 3.07422H1.90527V14.0972H18.1474V3.07422Z" fill="white"/>
<path d="M12.6096 15C12.6096 15.1471 12.4426 15.2647 12.2338 15.2647H7.80794C7.59919 15.2647 7.43216 15.147 7.43216 15H0V16.1471C0 16.6176 0.542811 17 1.21085 17H18.7891C19.4572 17 20 16.6176 20 16.1471V15H12.6096Z" fill="#28A487"/>
<path d="M9.89566 2.79742C10.0571 2.79742 10.1879 2.66657 10.1879 2.50515C10.1879 2.34374 10.0571 2.21289 9.89566 2.21289C9.73425 2.21289 9.60339 2.34374 9.60339 2.50515C9.60339 2.66657 9.73425 2.79742 9.89566 2.79742Z" fill="#28A487"/>
<path d="M8.55961 16.2032C8.74408 16.2032 8.89363 16.0537 8.89363 15.8692C8.89363 15.6847 8.74408 15.5352 8.55961 15.5352C8.37513 15.5352 8.22559 15.6847 8.22559 15.8692C8.22559 16.0537 8.37513 16.2032 8.55961 16.2032Z" fill="white"/>
<path d="M10.0205 16.2032C10.205 16.2032 10.3546 16.0537 10.3546 15.8692C10.3546 15.6847 10.205 15.5352 10.0205 15.5352C9.83607 15.5352 9.68652 15.6847 9.68652 15.8692C9.68652 16.0537 9.83607 16.2032 10.0205 16.2032Z" fill="white"/>
<path d="M11.4825 16.2032C11.6669 16.2032 11.8165 16.0537 11.8165 15.8692C11.8165 15.6847 11.6669 15.5352 11.4825 15.5352C11.298 15.5352 11.1484 15.6847 11.1484 15.8692C11.1484 16.0537 11.298 16.2032 11.4825 16.2032Z" fill="white"/>
<g clip-path="url(#clip0_6862_9724)">
<path d="M13.4165 5.74817C13.0183 5.29844 12.4679 5.05078 11.8667 5.05078C11.3944 5.05078 10.9526 5.24295 10.5891 5.6065C10.3465 5.84905 10.1464 6.15744 10 6.51167C9.85359 6.15744 9.6535 5.84906 9.41097 5.6065C9.04742 5.24295 8.60563 5.05078 8.13336 5.05078C7.53216 5.05078 6.98177 5.29845 6.58355 5.74819C6.21269 6.16695 6 6.73892 6 7.31744C6 8.01209 6.21019 8.69767 6.6247 9.35522C6.95297 9.87591 7.4095 10.38 7.98166 10.8535C8.95112 11.6558 9.90531 12.0878 9.94545 12.1058C9.97988 12.1212 10.0201 12.1212 10.0545 12.1058C10.0947 12.0878 11.0489 11.6558 12.0183 10.8535C12.5905 10.38 13.047 9.87591 13.3753 9.35522C13.7898 8.69767 14 8.01209 14 7.31744C14 6.73892 13.7873 6.16695 13.4165 5.74817Z" fill="#28A487"/>
<path d="M8.51498 10.8535C7.94283 10.38 7.4863 9.87589 7.15803 9.3552C6.74352 8.69766 6.53333 8.01206 6.53333 7.31742C6.53333 6.73891 6.74602 6.16694 7.11684 5.74816C7.45184 5.36983 7.89458 5.13455 8.38463 5.06936C8.30203 5.05708 8.21817 5.05078 8.13334 5.05078C7.53214 5.05078 6.98175 5.29845 6.58353 5.74819C6.21269 6.16694 6 6.73891 6 7.31742C6 8.01208 6.21019 8.69766 6.6247 9.3552C6.95297 9.87589 7.4095 10.38 7.98166 10.8535C8.95113 11.6558 9.90531 12.0878 9.94545 12.1057C9.97988 12.1212 10.0201 12.1212 10.0545 12.1057C10.0653 12.1009 10.1418 12.0663 10.2667 12.0028C9.92584 11.8295 9.22455 11.4407 8.51498 10.8535Z" fill="#28A487"/>
<path d="M7.33398 8.63687H8.35921L8.96876 7.83332L9.55065 9.32954L10.188 7.58398L10.7837 9.49576L11.4625 8.63687H12.8895" stroke="white" stroke-width="0.4" stroke-linecap="round" stroke-linejoin="round"/>
</g>
<defs>
<clipPath id="clip0_6862_9724">
<rect width="8" height="8" fill="white" transform="translate(6 4.58398)"/>
</clipPath>
</defs>
</svg>
