<svg width="24" height="24" viewBox="0 0 24 24" fill="none" xmlns="http://www.w3.org/2000/svg">
<g id="app-doctor-svgrepo-com 1">
<g id="Group">
<path id="Vector" d="M3.8467 0.363281H20.1766C20.6945 0.363281 21.1143 0.783083 21.1143 1.30093V22.8924C21.1143 23.4102 20.6945 23.83 20.1766 23.83H3.8467C3.32886 23.83 2.90906 23.4102 2.90906 22.8924V1.30093C2.90906 0.783017 3.32879 0.363281 3.8467 0.363281Z" fill="#F2F4F7"/>
<path id="Vector_2" d="M4.04824 2.02344H19.9738C20.0339 2.02344 20.0827 2.07223 20.0827 2.13235V21.5236C20.0827 21.5838 20.0339 21.6326 19.9738 21.6326H4.04824C3.98812 21.6326 3.93933 21.5838 3.93933 21.5236V2.13235C3.93926 2.07216 3.98812 2.02344 4.04824 2.02344Z" fill="#28A487"/>
<g id="Group_2">
<path id="Vector_3" d="M12.0114 23.3032C12.3491 23.3032 12.6229 23.0294 12.6229 22.6917C12.6229 22.3539 12.3491 22.0801 12.0114 22.0801C11.6736 22.0801 11.3998 22.3539 11.3998 22.6917C11.3998 23.0294 11.6736 23.3032 12.0114 23.3032Z" fill="#ECF0F1"/>
<path id="Vector_4" d="M20.4406 23.4911C20.6782 23.4911 20.8708 23.2986 20.8708 23.061C20.8708 22.8234 20.6782 22.6309 20.4406 22.6309C20.2031 22.6309 20.0105 22.8234 20.0105 23.061C20.0105 23.2986 20.2031 23.4911 20.4406 23.4911Z" fill="#ECF0F1"/>
</g>
<path id="Vector_5" d="M20.0833 3.88858H3.93982V2.13235C3.93982 2.07236 3.98887 2.02344 4.04873 2.02344H19.9744C20.0345 2.02344 20.0833 2.07236 20.0833 2.13235L20.0833 3.88858Z" fill="#FE5E02"/>
<g id="Group_3">
<path id="Vector_6" d="M5.13655 2.55469C5.36869 2.55469 5.55649 2.74248 5.55649 2.97469C5.55649 3.2067 5.36876 3.39462 5.13655 3.39462C4.90468 3.39462 4.71655 3.20676 4.71655 2.97469C4.71655 2.74255 4.90468 2.55469 5.13655 2.55469Z" fill="white"/>
<path id="Vector_7" d="M6.31832 2.55469C6.55046 2.55469 6.73825 2.74248 6.73825 2.97469C6.73825 3.2067 6.55052 3.39462 6.31832 3.39462C6.08644 3.39462 5.89832 3.20676 5.89832 2.97469C5.89832 2.74255 6.08637 2.55469 6.31832 2.55469Z" fill="white"/>
<path id="Vector_8" d="M7.5002 2.55469C7.73234 2.55469 7.92014 2.74248 7.92014 2.97469C7.92014 3.2067 7.73241 3.39462 7.5002 3.39462C7.26833 3.39462 7.0802 3.20676 7.0802 2.97469C7.08027 2.74255 7.26833 2.55469 7.5002 2.55469Z" fill="white"/>
<path id="Vector_9" d="M9.8571 2.64844H19.4574C19.5281 2.64844 19.5859 2.72447 19.5859 2.81767V3.13174C19.5859 3.22488 19.5281 3.30098 19.4574 3.30098H9.8571C9.78637 3.30098 9.72864 3.22488 9.72864 3.13174V2.81767C9.72857 2.72447 9.78637 2.64844 9.8571 2.64844Z" fill="white"/>
</g>
<g id="Group_4">
<path id="Vector_10" d="M10.8586 12.4355C11.6677 12.4355 12.4767 12.4355 13.2858 12.4355L13.2991 12.6014L12.1129 14.3996L10.8387 12.5836L10.8586 12.4355Z" fill="#667085"/>
<path id="Vector_11" d="M10.8746 11.9846L10.8536 12.9988L9.13269 13.9399V17.3891H12.0296H14.9261V13.9399L13.3269 12.9457L13.239 11.9316L10.8746 11.9846Z" fill="#996E00"/>
<path id="Vector_12" d="M10.0795 9.02756C10.0795 9.02756 9.9807 8.8106 9.71581 8.91825C9.45086 9.02564 9.72781 10.0969 9.82903 10.2464C9.93019 10.3958 10.0931 10.3008 10.1524 10.2951C10.2367 10.9337 10.2443 11.3739 10.4998 11.6432C10.742 11.8981 11.2965 12.4178 11.5885 12.599C11.7863 12.6408 11.9339 12.6652 12.0727 12.6727C12.2115 12.6652 12.3592 12.6408 12.5569 12.599C12.8489 12.4178 13.4033 11.8982 13.6454 11.6432C13.901 11.3739 13.9086 10.9337 13.993 10.2951C14.0522 10.3008 14.2152 10.3959 14.3163 10.2464C14.4176 10.097 14.6945 9.02564 14.4295 8.91825C14.1646 8.81066 14.066 9.02756 14.066 9.02756C14.066 9.02756 14.3278 8.1863 13.8623 7.35816C13.5433 6.7906 12.8158 6.49622 12.0727 6.47461C11.3296 6.49622 10.602 6.7906 10.2831 7.35816C9.81756 8.1863 10.0795 9.02756 10.0795 9.02756Z" fill="#996E00"/>
<path id="Vector_13" d="M10.0089 13.2978L10.421 13.1354L10.7532 12.8369L11.9257 13.7264H12.2178L13.3907 12.8359L14.1347 13.2978L15.4277 15.4956L14.757 19.1354H9.47859L8.31921 15.671L10.0089 13.2978Z" fill="white"/>
<g id="Group_5">
<path id="Vector_14" d="M13.7586 13.0193L13.2852 12.4355L12.2178 13.7258L13.134 14.7439L13.7586 13.0193Z" fill="white"/>
<path id="Vector_15" d="M10.3848 13.009L10.8586 12.4355L11.9262 13.7258L10.9735 14.7335L10.3848 13.009Z" fill="white"/>
<path id="Vector_16" d="M10.3848 13.0078L7.24709 14.0282C7.11962 14.0695 7.03935 14.1781 7.01349 14.3097L6.0907 18.9855C6.1436 19.0355 6.19722 19.0849 6.25131 19.1337H8.59824L8.65187 18.9584C8.65724 18.9411 8.67348 18.9304 8.69131 18.9326C8.70914 18.9347 8.72273 18.9489 8.72379 18.9668L8.73002 19.1337H11.7146L10.3848 13.0078Z" fill="white"/>
</g>
<g id="Group_6">
<path id="Vector_17" d="M10.3846 13.0078L10.0252 13.1182L9.07312 14.7427L10.2751 14.7804L9.53714 15.2006L11.3235 19.1338H11.7144L10.3846 13.0078Z" fill="white"/>
<path id="Vector_18" d="M13.7593 13.0176L16.8979 14.0277C17.0257 14.0688 17.1056 14.1776 17.1315 14.3092L18.0543 18.9849C18.0013 19.0349 17.9476 19.0843 17.8935 19.1331H15.5465L15.4927 18.9578C15.4875 18.9407 15.471 18.9298 15.4531 18.9321C15.4354 18.9341 15.422 18.9484 15.4209 18.9663L15.4146 19.1331H12.4305L13.7593 13.0176Z" fill="white"/>
</g>
<path id="Vector_19" d="M13.7587 13.0195L13.9581 13.0802L15.0701 14.7546L13.8682 14.7922L14.6062 15.2124L12.8216 19.1352H12.4301L13.7587 13.0195Z" fill="white"/>
<g id="Group_7">
<path id="Vector_20" d="M13.837 9.27729L14.0218 9.27086L14.0812 9.06027L14.2551 8.88666C14.3699 8.0218 14.404 6.67562 13.5453 6.71447C13.5453 6.71447 13.4679 5.73281 11.9194 5.92544C10.3707 6.11781 9.67088 7.1175 9.75434 7.95153C9.83773 8.78563 9.80412 8.88666 9.80412 8.88666L9.978 9.06027L10.0042 9.30003L10.1562 9.29042C10.1562 9.29042 10.2038 8.96945 10.2514 8.82839C10.2991 8.68733 10.2842 8.40176 10.2842 8.40176C10.2842 8.40176 12.1133 8.51836 12.6076 7.88955C12.9128 7.50124 13.614 6.82841 13.6494 7.76023C13.6599 8.03645 13.5571 8.45068 13.7537 8.75209C13.9503 9.0535 13.837 9.27729 13.837 9.27729Z" fill="#332500"/>
</g>
<path id="Vector_21" d="M15.1474 17.8669C14.8077 17.8083 14.5799 17.485 14.6385 17.1452C14.6971 16.8056 15.0201 16.5775 15.36 16.6362C15.6998 16.6947 15.9278 17.018 15.8691 17.3578C15.8105 17.6976 15.4873 17.9255 15.1474 17.8669Z" fill="white"/>
<path id="Vector_22" d="M15.1535 17.8316C14.8335 17.7764 14.6188 17.4723 14.6741 17.1523C14.7292 16.8322 15.0335 16.6175 15.3536 16.6727C15.6737 16.728 15.8883 17.0323 15.833 17.3524C15.7776 17.6724 15.4736 17.887 15.1535 17.8316Z" fill="#1F92D0"/>
<path id="Vector_23" d="M15.198 17.5698C15.0211 17.5393 14.9022 17.3709 14.9329 17.1939C14.9635 17.0166 15.1319 16.8981 15.3089 16.9286C15.486 16.9592 15.6046 17.1275 15.5741 17.3045C15.5436 17.4815 15.3753 17.6004 15.198 17.5698Z" fill="white"/>
<path id="Vector_24" d="M15.2362 16.9648L15.3792 16.9894L15.4561 16.5441L15.3131 16.5195L15.2362 16.9648Z" fill="white"/>
<path id="Vector_25" d="M10.4474 17.9903L10.7152 17.9372C10.8291 17.9147 10.9234 17.8476 10.9835 17.7576C11.0435 17.6678 11.0695 17.555 11.0469 17.4413L10.7319 15.8539C10.6131 15.2549 10.1444 14.9493 9.60882 14.8817C9.40373 14.8557 9.18856 14.8651 8.98021 14.9063C8.77167 14.9476 8.56943 15.0211 8.38972 15.1233C7.92192 15.3897 7.60659 15.8506 7.72591 16.4506L8.04091 18.038C8.06345 18.1519 8.13073 18.2461 8.22049 18.3062L8.22075 18.3061C8.31064 18.3662 8.42326 18.3923 8.53708 18.3697L8.80488 18.3165L8.78301 18.2062L8.51507 18.2592C8.43161 18.2758 8.34895 18.2567 8.28306 18.2127V18.2126C8.21717 18.1684 8.16785 18.0993 8.15141 18.016L7.83628 16.4286C7.7283 15.8841 8.01711 15.4646 8.4452 15.2209C8.61444 15.1244 8.80515 15.0553 9.00222 15.0162C9.1991 14.9773 9.40207 14.9684 9.5953 14.9928C10.0853 15.0549 10.5139 15.3324 10.6217 15.8758L10.9369 17.4632C10.9534 17.5467 10.9343 17.6292 10.8902 17.6952C10.8461 17.7612 10.7769 17.8104 10.6935 17.8269L10.4256 17.8799L10.4474 17.9903Z" fill="#1F92D0"/>
<path id="Vector_26" d="M10.817 16.0873L10.7687 15.8449C10.6462 15.2272 10.1641 14.9124 9.61355 14.8428C9.40434 14.8165 9.18533 14.8259 8.97301 14.868C8.76062 14.9099 8.55453 14.9849 8.37151 15.089C7.89026 15.363 7.56631 15.8374 7.68907 16.456L7.73727 16.6986L7.92115 16.662L7.87296 16.4195C7.76862 15.8938 8.04875 15.4878 8.46365 15.2514C8.62937 15.1571 8.8163 15.0893 9.0094 15.0511C9.20256 15.0128 9.40123 15.0041 9.59068 15.028C10.0656 15.088 10.4807 15.3564 10.585 15.8812L10.6332 16.1237L10.817 16.0873Z" fill="#1A1200"/>
<g id="Group_8">
<path id="Vector_27" d="M8.59249 18.3821L8.73574 18.3536C8.77173 18.394 8.82735 18.4148 8.88422 18.4036C8.96954 18.3867 9.02495 18.3038 9.00798 18.2184C8.99108 18.1333 8.90822 18.0778 8.82297 18.0949C8.76603 18.1061 8.72248 18.1466 8.70478 18.1976L8.5614 18.226L8.59249 18.3821Z" fill="#1F92D0"/>
<path id="Vector_28" d="M10.5613 17.9912L10.4181 18.0196C10.4003 18.0707 10.3567 18.1111 10.2999 18.1224C10.2146 18.1393 10.132 18.0839 10.1149 17.9986C10.0979 17.9134 10.1534 17.8306 10.2386 17.8136C10.2952 17.8023 10.3511 17.8231 10.387 17.8634L10.5302 17.835L10.5613 17.9912Z" fill="#1F92D0"/>
</g>
<path id="Vector_29" d="M9.06072 14.8535L9.0061 14.5781L8.89739 14.5997L8.78894 14.6211L8.84416 14.8992C8.88552 14.8871 8.92748 14.8769 8.96977 14.8686C9 14.8628 9.03036 14.8576 9.06072 14.8535Z" fill="#1A1200"/>
<g id="Group_9">
<path id="Vector_30" d="M8.82639 18.2291C8.8523 18.2239 8.86901 18.1988 8.86384 18.1732C8.85873 18.1474 8.83381 18.1305 8.80809 18.1357C8.78217 18.1408 8.76547 18.1659 8.77057 18.1917C8.77567 18.2175 8.80067 18.2343 8.82639 18.2291Z" fill="#1F92D0"/>
<path id="Vector_31" d="M10.2433 17.9478C10.2691 17.9428 10.286 17.9176 10.2807 17.892C10.2756 17.8662 10.2506 17.8494 10.2249 17.8544C10.1991 17.8596 10.1823 17.8846 10.1875 17.9105C10.1924 17.9361 10.2176 17.9529 10.2433 17.9478Z" fill="#1F92D0"/>
</g>
<path id="Vector_32" d="M15.1805 17.5681C15.013 17.5392 14.9008 17.3799 14.9297 17.2124C14.9585 17.045 15.1177 16.9326 15.2852 16.9616C15.4527 16.9905 15.565 17.1496 15.5361 17.3172C15.5072 17.4846 15.3479 17.597 15.1805 17.5681Z" fill="white"/>
<g id="Group_10">
<path id="Vector_33" d="M10.3864 13.0913C10.3815 13.0913 8.69038 13.1054 8.97602 14.585L8.81878 14.6151C8.49682 12.9471 10.3793 12.9316 10.3846 12.9316L10.3864 13.0913Z" fill="#1A1200"/>
<path id="Vector_34" d="M13.7615 12.9395C14.0375 12.9469 14.5709 13.022 14.9814 13.5215C15.3831 14.0101 15.6647 14.9077 15.4541 16.5531L15.2956 16.5333C15.4995 14.9406 15.2361 14.0831 14.8579 13.6231C14.4885 13.1738 14.0069 13.106 13.7578 13.0993L13.7615 12.9395Z" fill="#1A1200"/>
</g>
</g>
</g>
</g>
</svg>
