<svg width="24" height="24" viewBox="0 0 24 24" fill="none" xmlns="http://www.w3.org/2000/svg">
<rect width="24" height="24" rx="12" fill="#EAFAF6"/>
<g clip-path="url(#clip0_4656_253555)">
<path d="M6.16331 6.09196C10.0432 8.40064 10.1563 11.4562 10.0456 12.5872L7.04483 12.5872C6.80872 12.5872 6.5959 12.7289 6.50611 12.9469C6.41576 13.165 6.46589 13.4157 6.63262 13.5824L11.8797 18.8295C12.1071 19.0568 12.4761 19.0568 12.7041 18.8295L17.9511 13.5824C18.1179 13.4157 18.168 13.165 18.0776 12.947C17.9873 12.7289 17.7745 12.5872 17.5389 12.5872H15.2046C15.0664 9.23553 12.8008 6.31059 9.55292 5.37371C8.42423 5.04782 7.47567 4.99999 6.91715 4.99999C6.77023 4.99999 6.65073 5.0035 6.56151 5.00583L6.46182 5.00816C6.19947 5.00816 5.96917 5.18307 5.89979 5.43608C5.82985 5.68967 5.93771 5.95785 6.16331 6.09196Z" fill="#1A473F"/>
</g>
<defs>
<clipPath id="clip0_4656_253555">
<rect width="14" height="14" fill="white" transform="matrix(-1 0 0 -1 19 19)"/>
</clipPath>
</defs>
</svg>
