<svg width="28" height="28" viewBox="0 0 28 28" fill="none" xmlns="http://www.w3.org/2000/svg">
<g id="document-education-file-format-svgrepo-com 1">
<path id="Vector" d="M19.9427 3.57422H6.89197C5.44364 3.57422 4.26953 4.74832 4.26953 6.19666V24.1457C4.26953 25.5941 5.44364 26.7682 6.89197 26.7682H19.9427C21.391 26.7682 22.5651 25.5941 22.5651 24.1457V6.19666C22.5651 4.74832 21.391 3.57422 19.9427 3.57422Z" fill="#1A473F"/>
<path id="Vector_2" d="M21.1992 24.3428V5.99799C21.1992 5.41338 20.7253 4.93945 20.1407 4.93945L6.69426 4.93945C6.10965 4.93945 5.63573 5.41338 5.63573 5.99799L5.63573 24.3428C5.63573 24.9274 6.10965 25.4013 6.69426 25.4013H20.1407C20.7253 25.4013 21.1992 24.9274 21.1992 24.3428Z" fill="#EAFAF6"/>
<path id="Vector_3" d="M19.0508 24.2308C19.3315 24.2308 19.6008 24.1192 19.7993 23.9207C19.9978 23.7222 20.1093 23.453 20.1093 23.1722V4.93945H20.1421C20.4228 4.93945 20.6921 5.05098 20.8906 5.24949C21.0891 5.44801 21.2006 5.71725 21.2006 5.99799V24.3428C21.2006 24.6235 21.0891 24.8928 20.8906 25.0913C20.6921 25.2898 20.4228 25.4013 20.1421 25.4013H6.69526C6.41451 25.4013 6.14527 25.2898 5.94676 25.0913C5.74824 24.8928 5.63672 24.6235 5.63672 24.3428V24.2308H19.0508Z" fill="#ADEBDD"/>
<path id="Vector_4" d="M19.082 9.31587H8.14426C8.07182 9.31587 8.00233 9.28709 7.9511 9.23586C7.89987 9.18463 7.87109 9.11515 7.87109 9.0427C7.87109 8.97025 7.89987 8.90077 7.9511 8.84954C8.00233 8.79831 8.07182 8.76953 8.14426 8.76953H19.082C19.1545 8.76953 19.224 8.79831 19.2752 8.84954C19.3264 8.90077 19.3552 8.97025 19.3552 9.0427C19.3552 9.11515 19.3264 9.18463 19.2752 9.23586C19.224 9.28709 19.1545 9.31587 19.082 9.31587Z" fill="#1A473F"/>
<path id="Vector_5" d="M15.5944 12.4565H8.14231C8.06986 12.4565 8.00038 12.4277 7.94915 12.3765C7.89792 12.3253 7.86914 12.2558 7.86914 12.1833C7.86914 12.1109 7.89792 12.0414 7.94915 11.9902C8.00038 11.9389 8.06986 11.9102 8.14231 11.9102H15.5944C15.6669 11.9102 15.7363 11.9389 15.7876 11.9902C15.8388 12.0414 15.8676 12.1109 15.8676 12.1833C15.8676 12.2558 15.8388 12.3253 15.7876 12.3765C15.7363 12.4277 15.6669 12.4565 15.5944 12.4565Z" fill="#1A473F"/>
<path id="Vector_6" d="M16.5642 15.5952H8.14231C8.06986 15.5952 8.00038 15.5664 7.94915 15.5152C7.89792 15.4639 7.86914 15.3944 7.86914 15.322C7.86914 15.2495 7.89792 15.1801 7.94915 15.1288C8.00038 15.0776 8.06986 15.0488 8.14231 15.0488H16.5642C16.6366 15.0488 16.7061 15.0776 16.7573 15.1288C16.8086 15.1801 16.8373 15.2495 16.8373 15.322C16.8373 15.3944 16.8086 15.4639 16.7573 15.5152C16.7061 15.5664 16.6366 15.5952 16.5642 15.5952Z" fill="#1A473F"/>
<path id="Vector_7" d="M12.7786 18.7358H8.14426C8.07182 18.7358 8.00233 18.707 7.9511 18.6558C7.89987 18.6046 7.87109 18.5351 7.87109 18.4626C7.87109 18.3902 7.89987 18.3207 7.9511 18.2695C8.00233 18.2182 8.07182 18.1895 8.14426 18.1895H12.7786C12.8511 18.1895 12.9205 18.2182 12.9718 18.2695C13.023 18.3207 13.0518 18.3902 13.0518 18.4626C13.0518 18.5351 13.023 18.6046 12.9718 18.6558C12.9205 18.707 12.8511 18.7358 12.7786 18.7358Z" fill="#1A473F"/>
<path id="Vector_8" opacity="0.2" d="M22.565 10.9743L22.0856 11.4537C22.0447 11.429 21.9991 11.4132 21.9517 11.4073C21.938 11.3666 21.9151 11.3297 21.8848 11.2994L21.1909 10.6055C21.1643 10.5789 21.1327 10.5577 21.0979 10.5433C21.0631 10.5289 21.0258 10.5215 20.9881 10.5215C20.9504 10.5215 20.9131 10.5289 20.8783 10.5433C20.8435 10.5577 20.8119 10.5789 20.7853 10.6055L17.1548 14.2359C17.1283 14.2625 17.1072 14.294 17.0929 14.3287C17.0785 14.3634 17.0711 14.4005 17.0711 14.4381C17.0711 14.4756 17.0785 14.5128 17.0929 14.5475C17.1072 14.5822 17.1283 14.6137 17.1548 14.6402C17.1814 14.6668 17.2129 14.6878 17.2476 14.7022C17.2823 14.7166 17.3194 14.724 17.357 14.724C17.3945 14.724 17.4317 14.7166 17.4664 14.7022C17.5011 14.6878 17.5326 14.6668 17.5591 14.6402L20.9888 11.2119L21.4805 11.7037L18.4237 14.7591L18.1546 15.0295L14.1582 19.026L14.0188 19.1639C13.9706 19.2123 13.9389 19.2746 13.9281 19.342C13.9173 19.4095 13.928 19.4786 13.9587 19.5396L13.0805 21.1185C12.9849 21.2906 13.1734 21.4791 13.3441 21.3835L14.9244 20.5052C14.9856 20.5355 15.0547 20.5459 15.1221 20.5349C15.1895 20.5239 15.2517 20.492 15.3 20.4437L19.2992 16.4445L19.7049 16.0389L22.565 13.1788V10.9743Z" fill="black"/>
<path id="Vector_9" d="M13.8618 19.1641L14.904 20.2062L13.127 21.1937C12.9631 21.2852 12.7828 21.1049 12.8743 20.941L13.8618 19.1641Z" fill="#1A473F"/>
<path id="Vector_10" d="M23.6952 11.0859L22.9844 10.375C22.9369 10.3275 22.86 10.3275 22.8125 10.375L21.4455 11.742C21.398 11.7895 21.398 11.8665 21.4455 11.9139L22.1563 12.6248C22.2038 12.6722 22.2808 12.6722 22.3282 12.6248L23.6952 11.2578C23.7427 11.2103 23.7427 11.1333 23.6952 11.0859Z" fill="#1E7B65"/>
<path id="Vector_11" d="M14.5532 20.2954L13.7709 19.5131C13.7125 19.4547 13.6797 19.3755 13.6797 19.2929C13.6797 19.2103 13.7125 19.1311 13.7709 19.0727L21.0888 11.7548C21.1477 11.6959 21.2276 11.6628 21.311 11.6628C21.3943 11.6628 21.4742 11.6959 21.5331 11.7548L22.3125 12.5342C22.3714 12.5932 22.4045 12.6731 22.4045 12.7564C22.4045 12.8397 22.3714 12.9196 22.3125 12.9785L14.9936 20.2974C14.9352 20.3558 14.856 20.3886 14.7734 20.3886C14.6908 20.3886 14.6116 20.3558 14.5532 20.2974L14.5532 20.2954Z" fill="#28A487"/>
<path id="Vector_12" d="M22.1815 12.4043L14.993 19.5928C14.9347 19.651 14.8556 19.6837 14.7731 19.6837C14.6907 19.6837 14.6116 19.651 14.5532 19.5928L13.9017 18.9413L13.7706 19.0738C13.7124 19.1321 13.6797 19.2112 13.6797 19.2937C13.6797 19.3761 13.7124 19.4552 13.7706 19.5136L14.5532 20.2962C14.6116 20.3544 14.6907 20.3871 14.7731 20.3871C14.8556 20.3871 14.9347 20.3544 14.993 20.2962L22.3113 12.978C22.3406 12.9489 22.3638 12.9143 22.3797 12.8762C22.3955 12.8381 22.4037 12.7973 22.4037 12.756C22.4037 12.7147 22.3955 12.6739 22.3797 12.6358C22.3638 12.5977 22.3406 12.5631 22.3113 12.5341L22.1815 12.4043Z" fill="#1E7B65"/>
<path id="Vector_13" d="M19.2008 16.0896L17.9783 14.8672L17.5918 15.2537L18.8142 16.4762L19.2008 16.0896Z" fill="#1A473F"/>
<path id="Vector_14" d="M16.9603 14.8355C16.9064 14.8351 16.8537 14.8189 16.8089 14.7888C16.7641 14.7587 16.7292 14.716 16.7085 14.6662C16.6878 14.6164 16.6822 14.5615 16.6925 14.5085C16.7028 14.4556 16.7285 14.4068 16.7664 14.3683L20.2343 10.9004C20.2597 10.875 20.2898 10.8549 20.3229 10.8411C20.3561 10.8274 20.3917 10.8203 20.4276 10.8203C20.4635 10.8203 20.499 10.8274 20.5322 10.8411C20.5653 10.8549 20.5955 10.875 20.6208 10.9004L21.2833 11.5642C21.3106 11.5891 21.3327 11.6193 21.348 11.653C21.3634 11.6867 21.3717 11.7231 21.3726 11.7601C21.3734 11.7971 21.3667 11.8339 21.3529 11.8682C21.3391 11.9025 21.3185 11.9337 21.2923 11.9598C21.2661 11.986 21.2348 12.0065 21.2005 12.0202C21.1661 12.0338 21.1293 12.0404 21.0923 12.0394C21.0553 12.0384 21.0189 12.03 20.9853 12.0145C20.9516 11.999 20.9215 11.9769 20.8967 11.9494L20.4282 11.4809L17.1529 14.7549C17.1277 14.7803 17.0977 14.8006 17.0647 14.8144C17.0316 14.8282 16.9962 14.8354 16.9603 14.8355Z" fill="#1A473F"/>
<path id="Vector_15" d="M12.7767 21.5639H8.14231C8.06986 21.5639 8.00038 21.5351 7.94915 21.4839C7.89792 21.4327 7.86914 21.3632 7.86914 21.2907C7.86914 21.2183 7.89792 21.1488 7.94915 21.0976C8.00038 21.0464 8.06986 21.0176 8.14231 21.0176H12.7767C12.8491 21.0176 12.9186 21.0464 12.9698 21.0976C13.021 21.1488 13.0498 21.2183 13.0498 21.2907C13.0498 21.3632 13.021 21.4327 12.9698 21.4839C12.9186 21.5351 12.8491 21.5639 12.7767 21.5639Z" fill="#1A473F"/>
<path id="Vector_16" opacity="0.2" d="M8.13867 3.57422V5.03841C8.13903 5.40055 8.28305 5.74775 8.53912 6.00382C8.79519 6.25989 9.14239 6.40391 9.50453 6.40427H17.3336C17.6956 6.40355 18.0426 6.25941 18.2986 6.00342C18.5546 5.74743 18.6987 5.40044 18.6995 5.03841V3.57422H8.13867Z" fill="black"/>
<path id="Vector_17" d="M9.50321 2.71965C10.5815 2.72044 11.6226 2.32529 12.4289 1.60921C12.7011 1.36653 13.0531 1.23242 13.4177 1.23242C13.7824 1.23242 14.1344 1.36653 14.4066 1.60921C15.2126 2.32574 16.2539 2.72095 17.3323 2.71965C17.5207 2.71965 17.7013 2.79448 17.8345 2.92767C17.9677 3.06087 18.0425 3.24152 18.0425 3.42989V5.03887C18.0425 5.22724 17.9677 5.40789 17.8345 5.54109C17.7013 5.67428 17.5207 5.74911 17.3323 5.74911H9.50321C9.31484 5.74911 9.13419 5.67428 9.00099 5.54109C8.8678 5.40789 8.79297 5.22724 8.79297 5.03887V3.42989C8.79297 3.24152 8.8678 3.06087 9.00099 2.92767C9.13419 2.79448 9.31484 2.71965 9.50321 2.71965Z" fill="#28A487"/>
<path id="Vector_18" d="M14.1649 1.46178C13.7169 1.46137 13.2846 1.62624 12.9506 1.9248C11.9621 2.80349 10.6851 3.28814 9.36253 3.28656C9.15316 3.28639 8.95082 3.36209 8.79297 3.49963V3.42997C8.79297 3.2416 8.8678 3.06095 9.00099 2.92775C9.13419 2.79456 9.31484 2.71973 9.50321 2.71973C10.5815 2.72052 11.6226 2.32537 12.4289 1.60929C12.6702 1.3943 12.9749 1.26375 13.297 1.23738C13.6191 1.21101 13.941 1.29026 14.214 1.46314L14.1649 1.46178Z" fill="#28A487"/>
<path id="Vector_19" d="M16.4982 5.19855C16.6865 5.19855 16.8672 5.12372 17.0004 4.99053C17.1336 4.85733 17.2084 4.67668 17.2084 4.48831V2.87933C17.2083 2.8246 17.2019 2.77005 17.1893 2.7168L17.3341 2.71953C17.5224 2.71953 17.7031 2.79436 17.8363 2.92755C17.9695 3.06075 18.0443 3.2414 18.0443 3.42977V5.03875C18.0443 5.22712 17.9695 5.40777 17.8363 5.54097C17.7031 5.67416 17.5224 5.74899 17.3341 5.74899H9.50499C9.34432 5.74909 9.18836 5.69472 9.06259 5.59474C8.93681 5.49477 8.84865 5.3551 8.8125 5.19855H16.4982Z" fill="#1E7B65"/>
<path id="Vector_20" d="M20.7349 12.9666C20.8518 12.8497 20.8518 12.6604 20.7349 12.5435C20.6181 12.4267 20.4287 12.4267 20.3119 12.5435L18.7734 14.0821C18.6566 14.1989 18.6566 14.3883 18.7734 14.5051C18.8902 14.6219 19.0796 14.6219 19.1964 14.5051L20.7349 12.9666Z" fill="#28A487"/>
<path id="Vector_21" d="M17.442 16.2595C17.5588 16.1427 17.5588 15.9533 17.442 15.8365C17.3252 15.7197 17.1358 15.7197 17.019 15.8365L15.4804 17.375C15.3636 17.4919 15.3636 17.6812 15.4804 17.7981C15.5972 17.9149 15.7866 17.9149 15.9035 17.7981L17.442 16.2595Z" fill="#28A487"/>
<path id="Vector_22" d="M6.58599 10.9988C6.58599 10.7362 6.37349 10.5234 6.11135 10.5234C5.84922 10.5234 5.63672 10.7362 5.63672 10.9988V16.6332C5.63672 16.8957 5.84922 17.1085 6.11135 17.1085C6.37349 17.1085 6.58599 16.8957 6.58599 16.6332V10.9988Z" fill="#D6F5EE"/>
<path id="Vector_23" d="M6.58599 18.3894C6.58599 18.1269 6.37349 17.9141 6.11135 17.9141C5.84922 17.9141 5.63672 18.1269 5.63672 18.3894V19.9127C5.63672 20.1752 5.84922 20.388 6.11135 20.388C6.37349 20.388 6.58599 20.1752 6.58599 19.9127V18.3894Z" fill="#D6F5EE"/>
</g>
</svg>
