<svg width="36" height="37" viewBox="0 0 36 37" fill="none" xmlns="http://www.w3.org/2000/svg">
<g clip-path="url(#clip0_1648_18594)">
<path d="M28.6167 15.0539C28.1049 14.81 27.5717 14.6044 27.021 14.4399C26.5038 14.2854 25.9708 14.1674 25.4253 14.0892C24.9038 14.0144 24.3714 13.9746 23.8296 13.9746C23.2551 13.9746 22.6905 14.0182 22.1391 14.1024C21.9186 14.136 21.7 14.1762 21.4839 14.2226C21.3758 14.2458 21.2684 14.2706 21.1614 14.2969C20.7339 14.4022 20.3159 14.5321 19.9091 14.6853C19.7057 14.7618 19.5052 14.8441 19.3076 14.932C18.9125 15.1078 18.5294 15.3059 18.1599 15.5247C17.8828 15.6888 17.6133 15.8645 17.3522 16.0512C17.1782 16.1757 17.0078 16.305 16.8412 16.4389C16.758 16.5059 16.6757 16.574 16.5945 16.6434C16.3507 16.8513 16.116 17.0695 15.8909 17.2973C15.5158 17.6768 15.1675 18.0831 14.8493 18.5129C14.595 18.8564 14.3595 19.2144 14.1451 19.5862C14.0736 19.7102 14.0045 19.8356 13.9378 19.9625C13.8691 20.0929 13.8024 20.2244 13.7388 20.3578C13.5654 20.7218 13.4124 21.097 13.2787 21.4813C13.2244 21.6373 13.1724 21.7945 13.1249 21.9535C13.0863 22.0828 13.0499 22.2131 13.016 22.3444C12.914 22.7381 12.833 23.1402 12.774 23.5493C12.6994 24.0706 12.6597 24.6034 12.6597 25.145C12.6597 25.7975 12.7161 26.4371 12.8242 27.0591C12.9323 27.6811 13.092 28.2858 13.2985 28.8683C13.3965 29.1448 13.5051 29.4164 13.6235 29.6826C13.7421 29.9487 13.8708 30.2093 14.0091 30.464C14.1622 30.7454 14.3271 31.0196 14.5031 31.2857C14.6791 31.5519 14.8661 31.8101 15.0634 32.0597C17.1108 34.6499 20.2793 36.315 23.8298 36.315C29.9889 36.315 34.9998 31.3041 34.9998 25.1449C34.9996 20.6976 32.3871 16.8497 28.6167 15.0539Z" fill="#28A487"/>
<path d="M27.6012 21.5922C26.0903 20.0865 23.6403 20.0865 22.1397 21.5922C21.0831 22.6385 20.7667 24.1443 21.175 25.4714L18.7761 27.8703C18.6076 28.0439 18.4902 28.3858 18.526 28.6308L18.6791 29.7435C18.7352 30.111 19.0772 30.4581 19.4447 30.5092L20.5574 30.6623C20.8024 30.698 21.1444 30.5857 21.3179 30.4071L21.7365 29.9885C21.8386 29.8916 21.8386 29.7282 21.7365 29.6261L20.7463 28.6359C20.5982 28.4879 20.5982 28.2429 20.7463 28.0949C20.8943 27.9469 21.1393 27.9469 21.2873 28.0949L22.2826 29.0902C22.3796 29.1872 22.5429 29.1872 22.6399 29.0902L23.722 28.0132C25.044 28.4267 26.5497 28.1051 27.6012 27.0588C29.1069 25.553 29.1069 23.0979 27.6012 21.5922ZM24.9011 25.5632C24.1967 25.5632 23.625 24.9916 23.625 24.2872C23.625 23.5828 24.1967 23.0111 24.9011 23.0111C25.6054 23.0111 26.1771 23.5828 26.1771 24.2872C26.1771 24.9916 25.6054 25.5632 24.9011 25.5632Z" fill="white"/>
<path d="M12.5836 0.691406C8.7975 0.691406 5.71729 3.77163 5.71729 7.55771C5.71729 11.3437 8.7975 14.4238 12.5836 14.4238C16.3697 14.4238 19.4498 11.3437 19.4498 7.55771C19.4498 3.77163 16.3697 0.691406 12.5836 0.691406Z" fill="#662600"/>
<path d="M1.64143 31.9316H15.4938C15.0878 31.418 14.7244 30.8691 14.4095 30.2903C14.1248 29.7665 13.8801 29.2178 13.6785 28.649C13.2535 27.4506 13.0213 26.1617 13.0213 24.8193C13.0213 24.2622 13.062 23.7143 13.1389 23.178C13.2196 22.6171 13.3409 22.0687 13.4997 21.5367C13.5487 21.373 13.6022 21.2114 13.6579 21.051C13.7955 20.6558 13.9528 20.2698 14.1312 19.8954C14.1965 19.7583 14.2652 19.623 14.3358 19.4888C14.6104 18.9667 14.9247 18.4688 15.2734 17.9978C14.3933 17.806 13.493 17.707 12.5834 17.707C5.64491 17.7068 0 23.3517 0 30.2902C0.000140624 31.1967 0.734969 31.9316 1.64143 31.9316Z" fill="#6F56DC"/>
<path d="M5.71729 7.55771C5.71729 11.3436 8.79751 14.4238 12.5834 14.4238V0.691406C8.79751 0.691406 5.71729 3.77163 5.71729 7.55771Z" fill="#662600"/>
<path d="M0 30.2905C0 31.197 0.734899 31.9318 1.64129 31.9318H12.5834V17.707C5.64491 17.7071 0 23.352 0 30.2905Z" fill="#6F56DC"/>
</g>
<defs>
<clipPath id="clip0_1648_18594">
<rect width="36" height="36" fill="white" transform="translate(0 0.5)"/>
</clipPath>
</defs>
</svg>
