<svg width="32" height="32" viewBox="0 0 32 32" fill="none" xmlns="http://www.w3.org/2000/svg">
<g id="eye-view-svgrepo-com 1" clip-path="url(#clip0_3504_268509)">
<path id="Vector" d="M31.8181 15.4218C28.2573 10.576 22.1005 5.62011 16 5.59961C9.88747 5.62011 3.71828 10.6094 0.181969 15.4218C-0.0606562 15.7695 -0.0606562 16.2303 0.181969 16.5781C3.74278 21.4239 9.89953 26.3799 16 26.4004C22.1126 26.3799 28.2818 21.3905 31.8181 16.5781C32.0607 16.2304 32.0607 15.7695 31.8181 15.4218Z" fill="#FFDFCC"/>
<path id="Vector_2" d="M31.8181 15.4218C28.2572 10.576 22.1005 5.62011 16 5.59961V26.4004C22.1126 26.3799 28.2818 21.3905 31.8181 16.5781C32.0606 16.2304 32.0606 15.7695 31.8181 15.4218Z" fill="#FFDFCC"/>
<path id="Vector_3" d="M16.0004 9.74023C12.545 9.74192 9.74205 12.545 9.74023 16.0004C9.74205 19.4556 12.545 22.2587 16.0004 22.2604C19.4557 22.2587 22.2587 19.4556 22.2605 16.0004C22.2587 12.545 19.4557 9.74192 16.0004 9.74023Z" fill="#1F92D0"/>
<path id="Vector_4" d="M16 9.74023V22.2604C19.4554 22.2587 22.2583 19.4556 22.2601 16.0004C22.2583 12.545 19.4554 9.74192 16 9.74023Z" fill="#1F92D0"/>
<path id="Vector_5" d="M15.9998 18.0874C17.1522 18.0874 18.0865 17.1532 18.0865 16.0007C18.0865 14.8483 17.1522 13.9141 15.9998 13.9141C14.8473 13.9141 13.9131 14.8483 13.9131 16.0007C13.9131 17.1532 14.8473 18.0874 15.9998 18.0874Z" fill="#FE5E02"/>
<path id="Vector_6" d="M16 13.9141V18.0875C17.1525 18.0875 18.0867 17.1533 18.0867 16.0008C18.0867 14.8484 17.1525 13.9141 16 13.9141Z" fill="#FE5E02"/>
<path id="Vector_7" d="M20.1736 13.9136C21.326 13.9136 22.2603 12.9794 22.2603 11.8269C22.2603 10.6745 21.326 9.74023 20.1736 9.74023C19.0212 9.74023 18.0869 10.6745 18.0869 11.8269C18.0869 12.9794 19.0212 13.9136 20.1736 13.9136Z" fill="white"/>
</g>
<defs>
<clipPath id="clip0_3504_268509">
<rect width="32" height="32" fill="white"/>
</clipPath>
</defs>
</svg>
