<svg width="21" height="20" viewBox="0 0 21 20" fill="none" xmlns="http://www.w3.org/2000/svg">
<g clip-path="url(#clip0_7378_29215)">
<path d="M2.06766 9.55703C2.67011 9.53618 3.15165 9.41321 3.53731 9.24434C3.95631 9.51117 4.45245 9.66543 4.98611 9.66543C5.51976 9.66543 6.0159 9.51117 6.43491 9.24434C6.81847 9.41528 7.30002 9.53618 7.90455 9.55703C8.05256 9.56328 8.1526 9.40485 8.08383 9.27352C7.9379 8.9921 7.75654 8.50222 7.75654 7.80179C7.75654 6.63024 7.71696 3.84521 4.98611 3.84521C2.25527 3.84521 2.21567 6.63024 2.21567 7.80179C2.21567 8.50013 2.03431 8.99002 1.88838 9.27352C1.81959 9.40485 1.91965 9.56328 2.06766 9.55703Z" fill="#1F92D0"/>
<path d="M1.23158 15.331H7.22273L7.24567 15.1976C7.36032 14.5347 7.70638 13.9323 8.21918 13.4987C8.41304 13.3361 8.62567 13.2006 8.85289 13.0943C8.76534 13.0276 8.68402 12.9546 8.60483 12.8754C8.11494 12.3855 7.84603 11.7351 7.84603 11.043C7.84603 11.0368 7.84603 11.0284 7.84603 11.0222C7.22276 10.551 6.44726 10.2759 5.6155 10.2759H4.35432C2.55322 10.2759 1.0127 11.5725 0.706263 13.3486L0.51031 14.4784C0.435286 14.9245 0.779245 15.331 1.23158 15.331Z" fill="#1F92D0"/>
<path d="M20.2933 13.3486C19.9869 11.5725 18.4463 10.2759 16.6453 10.2759H15.3841C14.496 10.2759 13.6726 10.5907 13.0285 11.1222C13.0055 11.9207 12.6136 12.6336 12.0195 13.0943C12.2468 13.2006 12.4615 13.3361 12.6574 13.5008C13.1723 13.9344 13.5163 14.5368 13.6309 15.1997L13.6539 15.3331H19.7701C20.2224 15.3331 20.5664 14.9245 20.4893 14.4805L20.2933 13.3486Z" fill="#1F92D0"/>
<path d="M13.0202 15.3314L13.016 15.3043C12.8847 14.5371 12.3698 13.9201 11.6902 13.6303C11.4213 13.5157 11.1274 13.4531 10.8209 13.4531H10.0621C9.79947 13.4531 9.54514 13.499 9.30958 13.5845C8.57166 13.8492 8.00462 14.4933 7.86495 15.3043L7.86079 15.3314L7.76489 15.8879C7.71067 16.2069 7.95459 16.4966 8.27771 16.4966H12.6054C12.9285 16.4966 13.1745 16.2048 13.1182 15.8879L13.0202 15.3314Z" fill="#1F92D0"/>
<path d="M8.9049 12.2733C9.26554 12.7215 9.81796 13.0092 10.4392 13.0092C10.4475 13.0092 10.4579 13.0092 10.4663 13.0092C11.5398 12.9946 12.4112 12.1045 12.4049 11.0309C12.4008 10.3076 12.0047 9.67593 11.4189 9.33822C11.1083 9.15894 10.8478 8.90462 10.6726 8.59402C10.6059 8.47728 10.5455 8.34386 10.4975 8.20005C10.4871 8.17086 10.4621 8.15625 10.4371 8.15625C10.4121 8.15625 10.3871 8.17084 10.3766 8.20005C10.3287 8.34386 10.2682 8.47522 10.2015 8.59402C10.0243 8.90881 9.75961 9.16313 9.44692 9.34447C8.86112 9.68429 8.46924 10.318 8.46924 11.0455C8.46924 11.329 8.52969 11.5979 8.63601 11.8418C8.70893 11.9961 8.79856 12.142 8.9049 12.2733Z" fill="#1F92D0"/>
<path d="M15.947 9.61523C17.4625 9.61523 18.6903 8.38742 18.6903 6.87189V4.16816C18.6903 3.7304 18.2734 3.41145 17.8502 3.52819L14.5086 4.44958C13.7373 4.66221 13.2036 5.36264 13.2036 6.16313V6.87189C13.2036 8.3874 14.4315 9.61523 15.947 9.61523Z" fill="#1F92D0"/>
</g>
<defs>
<clipPath id="clip0_7378_29215">
<rect width="20" height="20" fill="white" transform="translate(0.5)"/>
</clipPath>
</defs>
</svg>
