<svg width="25" height="24" viewBox="0 0 25 24" fill="none" xmlns="http://www.w3.org/2000/svg">
<g clip-path="url(#clip0_5079_9295)">
<path d="M23.8407 17.9093L23.846 17.904C22.6314 16.9163 21.2716 16.0763 19.7814 15.4125C19.4382 14.3359 19.25 13.1906 19.25 12V6C19.25 2.68613 16.5639 0 13.25 0H11.75C8.43612 0 5.75 2.68613 5.75 6V12C5.75 13.1899 5.56213 14.3348 5.21938 15.411C3.72725 16.0654 2.39713 16.8934 1.154 17.904L1.15925 17.9093C0.752 18.3165 0.5 18.879 0.5 19.5V22.5C0.5 23.3291 1.17088 24 2 24H23C23.8291 24 24.5 23.3291 24.5 22.5V19.5C24.5 18.879 24.248 18.3165 23.8407 17.9093ZM8 7.125C8 6.29663 8.67163 5.625 9.5 5.625C10.283 5.625 10.9722 5.2245 11.375 4.61737C11.7778 5.2245 12.467 5.625 13.25 5.625H14.75C15.9924 5.625 17 6.63263 17 7.875C17 7.9455 17 8.0625 17 8.25C17 12.75 14.1991 15 12.5 15C10.8009 15 8 12.75 8 8.25C8 8.0625 8 7.125 8 7.125ZM10.1289 14.7896C10.91 15.4065 11.7463 15.75 12.5 15.75C13.2537 15.75 14.09 15.4065 14.8711 14.7896C15.8998 14.9314 16.8958 15.1714 17.8584 15.486C16.9329 16.4115 12.8667 20.4776 12.7242 20.6201C12.563 20.7814 12.4438 20.7878 12.2806 20.625C12.1363 20.481 8.0675 16.4123 7.14163 15.4864C8.10388 15.1714 9.10025 14.9314 10.1289 14.7896Z" fill="#667085"/>
</g>
<defs>
<clipPath id="clip0_5079_9295">
<rect width="24" height="24" fill="white" transform="translate(0.5)"/>
</clipPath>
</defs>
</svg>
