<svg width="36" height="36" viewBox="0 0 36 36" fill="none" xmlns="http://www.w3.org/2000/svg">
<g id="heart-svgrepo-com 1" opacity="0.1">
<path id="Vector" d="M44.4989 6.98512C42.1096 4.28672 38.8072 2.80078 35.2 2.80078C32.3664 2.80078 29.7157 3.95381 27.5344 6.13509C26.0792 7.59037 24.8784 9.44072 24.0001 11.5661C23.1216 9.44072 21.921 7.59047 20.4658 6.13509C18.2845 3.95381 15.6337 2.80078 12.8002 2.80078C9.19294 2.80078 5.89059 4.28681 3.50128 6.98522C1.27612 9.49781 0 12.9296 0 16.4007C0 20.5687 1.26112 24.6821 3.74822 28.6274C5.71781 31.7515 8.457 34.776 11.8899 37.617C17.7067 42.4309 23.4319 45.0228 23.6727 45.1307C23.8792 45.2233 24.1207 45.2233 24.3272 45.1307C24.5681 45.0228 30.2932 42.4309 36.11 37.617C39.5429 34.776 42.2821 31.7515 44.2517 28.6274C46.7389 24.6821 48 20.5687 48 16.4007C48 12.9296 46.7239 9.49781 44.4989 6.98512Z" fill="#1F92D0"/>
<path id="Vector_2" d="M15.0899 37.6169C11.657 34.7759 8.91778 31.7514 6.94819 28.6273C4.46109 24.682 3.19997 20.5685 3.19997 16.4006C3.19997 12.9295 4.47609 9.49772 6.70106 6.98503C8.71106 4.71506 11.3675 3.30337 14.3078 2.91225C13.8122 2.83856 13.309 2.80078 12.8001 2.80078C9.19284 2.80078 5.8905 4.28681 3.50119 6.98522C1.27613 9.49772 0 12.9295 0 16.4006C0 20.5686 1.26113 24.682 3.74822 28.6273C5.71781 31.7514 8.457 34.7759 11.8899 37.6169C17.7068 42.4308 23.4319 45.0227 23.6727 45.1306C23.8793 45.2232 24.1208 45.2232 24.3272 45.1306C24.3918 45.1017 24.8509 44.894 25.6 44.513C23.5551 43.4731 19.3473 41.1402 15.0899 37.6169Z" fill="#1A7DB2"/>
<g id="line">
<path id="Vector_3" d="M8.00391 24.3193H14.1552L17.8126 19.498L21.3039 28.4753L25.1279 18.002L28.7019 29.4726L32.7752 24.3193H41.3372" stroke="white" stroke-width="2" stroke-linecap="round" stroke-linejoin="round"/>
</g>
</g>
</svg>
