<svg width="16" height="16" viewBox="0 0 16 16" fill="none" xmlns="http://www.w3.org/2000/svg">
<path d="M14.5 5.33339C14.5 5.60672 14.2733 5.83339 14 5.83339H2C1.72667 5.83339 1.5 5.60672 1.5 5.33339C1.5 5.06005 1.72667 4.83339 2 4.83339H2.68L2.93333 3.62672C3.17333 2.46005 3.67333 1.38672 5.66 1.38672H10.34C12.3267 1.38672 12.8267 2.46005 13.0667 3.62672L13.32 4.83339H14C14.2733 4.83339 14.5 5.06005 14.5 5.33339Z" fill="#FE5E02"/>
<path d="M14.7866 9.10536C14.6866 8.00536 14.3933 6.83203 12.2533 6.83203H3.74664C1.60664 6.83203 1.31998 8.00536 1.21331 9.10536L0.839976 13.1654C0.793309 13.672 0.959976 14.1787 1.30664 14.5587C1.65998 14.9454 2.15998 15.1654 2.69331 15.1654H3.94664C5.02664 15.1654 5.23331 14.5454 5.36664 14.1387L5.49998 13.7387C5.65331 13.2787 5.69331 13.1654 6.29331 13.1654H9.70664C10.3066 13.1654 10.3266 13.232 10.5 13.7387L10.6333 14.1387C10.7666 14.5454 10.9733 15.1654 12.0533 15.1654H13.3066C13.8333 15.1654 14.34 14.9454 14.6933 14.5587C15.04 14.1787 15.2066 13.672 15.16 13.1654L14.7866 9.10536ZM5.99998 10.4987H3.99998C3.72664 10.4987 3.49998 10.272 3.49998 9.9987C3.49998 9.72536 3.72664 9.4987 3.99998 9.4987H5.99998C6.27331 9.4987 6.49998 9.72536 6.49998 9.9987C6.49998 10.272 6.27331 10.4987 5.99998 10.4987ZM12 10.4987H9.99998C9.72664 10.4987 9.49998 10.272 9.49998 9.9987C9.49998 9.72536 9.72664 9.4987 9.99998 9.4987H12C12.2733 9.4987 12.5 9.72536 12.5 9.9987C12.5 10.272 12.2733 10.4987 12 10.4987Z" fill="#FE5E02"/>
</svg>
