<svg width="32" height="32" viewBox="0 0 32 32" fill="none" xmlns="http://www.w3.org/2000/svg">
<g id="wallet-money-business-svgrepo-com 1">
<g id="Group">
<g id="Group_2">
<path id="Vector" d="M20.948 6.19263L11.8535 16.1602L17.507 21.3185L26.6015 11.351L20.948 6.19263Z" fill="#28A487"/>
<path id="Vector_2" opacity="0.1" d="M12.64 16.1065L21.36 6.53319L20.96 6.18652L11.8667 16.1599L17.52 21.3065L17.8934 20.9065L12.64 16.1065Z" fill="black"/>
<path id="Vector_3" d="M21.8134 9.14648C21.3868 9.62648 20.6401 9.65315 20.1868 9.22648L20.1068 9.14648L14.7734 15.0132L14.8534 15.0931C15.3334 15.5198 15.3601 16.2665 14.9334 16.7198L16.7201 18.3465C17.1468 17.8665 17.8934 17.8398 18.3468 18.2665L18.4268 18.3465L23.7601 12.4798L23.6801 12.3998C23.2001 11.9732 23.1734 11.2265 23.6001 10.7732L21.8134 9.14648Z" fill="#FFCCFF"/>
<path id="Vector_4" d="M19.2265 15.3602C20.1101 15.3602 20.8265 14.6438 20.8265 13.7602C20.8265 12.8765 20.1101 12.1602 19.2265 12.1602C18.3428 12.1602 17.6265 12.8765 17.6265 13.7602C17.6265 14.6438 18.3428 15.3602 19.2265 15.3602Z" fill="#28A487"/>
</g>
<g id="Group_3">
<path id="Vector_5" d="M15.0685 4.42306L9.1665 16.5576L16.0491 19.9052L21.9511 7.77063L15.0685 4.42306Z" fill="#28A487"/>
<path id="Vector_6" opacity="0.1" d="M9.86648 16.2934L15.5198 4.64009L15.0665 4.42676L9.14648 16.5601L16.0265 19.8934L16.2665 19.3868L9.86648 16.2934Z" fill="black"/>
<path id="Vector_7" d="M16.6932 7.01367C16.3999 7.60034 15.7066 7.84034 15.1466 7.54701L15.0399 7.49367L11.5732 14.6403L11.6799 14.6937C12.2666 14.987 12.5066 15.6803 12.2132 16.2403L14.3732 17.2803C14.6666 16.6937 15.3599 16.4537 15.9199 16.747L16.0266 16.8003L19.4932 9.65367L19.3866 9.60034C18.7999 9.30701 18.5599 8.61367 18.8532 8.05367L16.6932 7.01367Z" fill="#FFCCFF"/>
<path id="Vector_8" d="M15.5463 13.7596C16.4299 13.7596 17.1463 13.0432 17.1463 12.1596C17.1463 11.2759 16.4299 10.5596 15.5463 10.5596C14.6626 10.5596 13.9463 11.2759 13.9463 12.1596C13.9463 13.0432 14.6626 13.7596 15.5463 13.7596Z" fill="#28A487"/>
</g>
<g id="Group_4">
<path id="Vector_9" d="M8.04247 5.52132L8.04248 19.0146L15.6958 19.0146L15.6958 5.52131L8.04247 5.52132Z" fill="#28A487"/>
<path id="Vector_10" opacity="0.1" d="M8.5597 18.4529V5.51953H8.02637V19.0129H15.6797V18.4529H8.5597Z" fill="black"/>
<path id="Vector_11" d="M10.6667 7.14648C10.6667 7.78648 10.1601 8.31982 9.49338 8.31982H9.38672V16.2398H9.49338C10.1334 16.2398 10.6667 16.7465 10.6667 17.4132H13.0667C13.0667 16.7732 13.5734 16.2398 14.2401 16.2398H14.3467V8.31982H14.2401C13.6001 8.31982 13.0667 7.81315 13.0667 7.14648H10.6667Z" fill="#FFCCFF"/>
<path id="Vector_12" d="M11.8666 13.866C12.7503 13.866 13.4666 13.1497 13.4666 12.266C13.4666 11.3824 12.7503 10.666 11.8666 10.666C10.9829 10.666 10.2666 11.3824 10.2666 12.266C10.2666 13.1497 10.9829 13.866 11.8666 13.866Z" fill="#28A487"/>
</g>
<path id="Vector_13" d="M10.7466 15.6269C12.6906 15.6269 14.2666 14.051 14.2666 12.1069C14.2666 10.1629 12.6906 8.58691 10.7466 8.58691C8.80252 8.58691 7.22656 10.1629 7.22656 12.1069C7.22656 14.051 8.80252 15.6269 10.7466 15.6269Z" fill="#FE7E34"/>
<path id="Vector_14" d="M10.7471 14.4531C12.0431 14.4531 13.0937 13.4025 13.0937 12.1064C13.0937 10.8104 12.0431 9.75977 10.7471 9.75977C9.45103 9.75977 8.40039 10.8104 8.40039 12.1064C8.40039 13.4025 9.45103 14.4531 10.7471 14.4531Z" fill="#145244"/>
<path id="Vector_15" d="M10.7468 13.7338C11.6452 13.7338 12.3735 13.0055 12.3735 12.1071C12.3735 11.2088 11.6452 10.4805 10.7468 10.4805C9.8484 10.4805 9.12012 11.2088 9.12012 12.1071C9.12012 13.0055 9.8484 13.7338 10.7468 13.7338Z" fill="#FE7E34"/>
<path id="Vector_16" d="M22.6934 27.5734H7.17339C6.18672 27.5734 5.38672 26.7734 5.38672 25.7867V14.48C5.38672 13.4934 6.18672 12.6934 7.17339 12.6934H22.7201C23.7067 12.6934 24.5067 13.4934 24.5067 14.48V25.8134C24.4801 26.8 23.68 27.5734 22.6934 27.5734Z" fill="#28A487"/>
<path id="Vector_17" opacity="0.1" d="M23.5201 27.2797H7.97339C6.98672 27.2797 6.18672 26.4797 6.18672 25.4931V14.1597C6.18672 13.5731 6.48005 13.0397 6.93339 12.7197C6.05339 12.8264 5.38672 13.5731 5.38672 14.4797V25.8131C5.38672 26.7997 6.18672 27.5997 7.17339 27.5997H22.7201C23.0934 27.5997 23.4667 27.4664 23.7601 27.2797C23.6534 27.2531 23.6001 27.2797 23.5201 27.2797Z" fill="black"/>
<path id="Vector_18" d="M25.2535 22.667H19.7069C19.2535 22.667 18.8535 22.2936 18.8535 21.8136V18.4803C18.8535 18.027 19.2269 17.627 19.7069 17.627H25.2268C25.6802 17.627 26.0802 18.0003 26.0802 18.4803V21.8136C26.0802 22.267 25.7068 22.667 25.2535 22.667Z" fill="#28A487"/>
<path id="Vector_19" d="M21.4402 21.3336C22.103 21.3336 22.6402 20.7963 22.6402 20.1336C22.6402 19.4709 22.103 18.9336 21.4402 18.9336C20.7775 18.9336 20.2402 19.4709 20.2402 20.1336C20.2402 20.7963 20.7775 21.3336 21.4402 21.3336Z" fill="#145244"/>
<path id="Vector_20" opacity="0.1" d="M21.6799 21.227C21.0133 21.227 20.4799 20.6937 20.4799 20.027C20.4799 19.6003 20.7199 19.227 21.0666 19.0137C20.5866 19.1737 20.2666 19.627 20.2666 20.1337C20.2666 20.8003 20.7999 21.3337 21.4666 21.3337C21.6799 21.3337 21.8933 21.2803 22.0799 21.147C21.9466 21.2003 21.8133 21.227 21.6799 21.227Z" fill="black"/>
<path id="Vector_21" opacity="0.1" d="M25.6799 22.5067H20.1599C19.7065 22.5067 19.3065 22.1333 19.3065 21.6533V18.3467C19.3065 18.0533 19.4665 17.7867 19.6799 17.6533C19.2265 17.68 18.8799 18.0267 18.8799 18.5067V21.84C18.8799 22.2933 19.2532 22.6933 19.7332 22.6933H25.2532C25.4399 22.6933 25.5999 22.64 25.7332 22.56C25.7065 22.5067 25.6799 22.5067 25.6799 22.5067Z" fill="black"/>
<g id="Group_5">
<path id="Vector_22" opacity="0.1" d="M8.02686 9.89328C8.61352 9.17328 9.52019 8.69328 10.5069 8.61328C10.4269 8.61328 10.3469 8.61328 10.2669 8.61328C9.41352 8.61328 8.64019 8.90661 8.02686 9.41328V9.89328Z" fill="black"/>
</g>
</g>
</g>
</svg>
