<svg width="54" height="44" viewBox="0 0 54 44" fill="none" xmlns="http://www.w3.org/2000/svg">
<g id="MobileArtboard 24 2" clip-path="url(#clip0_6694_15682)">
<g id="Group">
<g id="Group_2">
<path id="Vector" d="M52.8801 42.9942H52.8769C52.7823 43.032 52.6798 43.0541 52.5726 43.0541C52.5694 43.0541 52.5663 43.0541 52.5631 43.0541H41.6057C41.0286 43.0541 40.5335 42.641 40.4278 42.0733L38.4678 31.395C38.4205 31.138 38.5009 30.892 38.6602 30.7154C38.7311 30.6365 38.8194 30.5719 38.9188 30.5261H38.9204C39.0213 30.4788 39.1332 30.4536 39.2515 30.4536H50.242C50.8412 30.4536 51.3553 30.8809 51.4641 31.4707L53.4052 42.0418C53.4809 42.4565 53.2459 42.846 52.8801 42.9926V42.9942Z" fill="#FF7631"/>
<path id="Vector_2" d="M52.8768 42.9959L52.3202 43.2371H52.3186C52.2098 43.2892 52.0853 43.3191 51.956 43.3191H45.8489V43.2056C45.8489 43.1662 45.8174 43.1346 45.7779 43.1346H45.0337C45.01 43.1346 44.9864 43.1378 44.9643 43.1441C44.9438 43.1504 44.9233 43.1583 44.9044 43.1693L44.8602 43.1945L44.8255 43.215L44.6537 43.3175H40.9954C40.4183 43.3175 39.9232 42.9044 39.8175 42.3367L37.8575 31.6584C37.7881 31.2784 37.9978 30.922 38.3274 30.7817L38.3416 30.7754H38.3463L38.9156 30.5278C38.8162 30.5736 38.7295 30.6382 38.657 30.7171C38.4977 30.8937 38.4173 31.1396 38.4646 31.3967L40.4246 42.075C40.5287 42.6427 41.0238 43.0558 41.6025 43.0558H52.5599C52.5599 43.0558 52.5662 43.0558 52.5694 43.0558C52.6782 43.0558 52.7807 43.0337 52.8737 42.9959H52.8768Z" fill="#C44B0E"/>
</g>
<g id="Group_3">
<path id="Vector_3" d="M49.7421 43.7777V44.0016H43.7328C42.8782 44.0016 42.588 43.6263 42.4966 43.3188H42.7662C42.8293 43.5254 43.0232 43.7777 43.5988 43.7777H49.7421Z" fill="#BABABA"/>
<path id="Vector_4" d="M46.5962 43.7777H43.5987C43.0231 43.7777 42.8276 43.5254 42.7661 43.3188H44.231L44.3098 43.5365C44.3319 43.5979 44.3887 43.6342 44.4486 43.6358C44.4518 43.6358 44.4549 43.6358 44.4581 43.6358H45.3931C45.3931 43.6358 45.3994 43.6358 45.4026 43.6358C45.4278 43.6358 45.453 43.6279 45.4767 43.6153L45.8063 43.4198C45.8993 43.5995 46.1137 43.7793 46.5994 43.7793L46.5962 43.7777Z" fill="#969696"/>
<path id="Vector_5" d="M44.9931 43.3882L44.9912 43.3901" stroke="white" stroke-width="0.3" stroke-miterlimit="10"/>
<path id="Vector_6" d="M44.6569 43.3174L44.5197 43.3994C44.4882 43.4183 44.4488 43.4041 44.4362 43.3694L44.4172 43.3174H44.6569Z" fill="#969696"/>
<path id="Vector_7" d="M45.8489 43.3771C45.8489 43.3849 45.8457 43.3928 45.8379 43.3976L45.4752 43.6136C45.4515 43.6278 45.4263 43.6341 45.4011 43.6341H44.4565C44.4818 43.6341 44.5054 43.6262 44.5291 43.6136L44.9012 43.3912C44.9201 43.3786 44.9422 43.3707 44.9627 43.3644C44.9785 43.3597 44.9942 43.3566 45.0116 43.355C45.0195 43.355 45.0289 43.355 45.0368 43.355H45.8221C45.8363 43.355 45.8457 43.3676 45.8457 43.3786L45.8489 43.3771Z" fill="#BABABA"/>
<path id="Vector_8" d="M45.8488 43.2038V43.3756C45.8488 43.363 45.8394 43.352 45.8252 43.352H45.0399C45.0305 43.352 45.0226 43.352 45.0147 43.352C44.9989 43.352 44.9816 43.3567 44.9658 43.3615V43.352V43.1423C44.9879 43.136 45.0115 43.1328 45.0352 43.1328H45.7795C45.8189 43.1328 45.8504 43.1643 45.8504 43.2038H45.8488Z" fill="#EAEAEA"/>
<path id="Vector_9" d="M44.9644 43.1437V43.3628C44.9424 43.3692 44.9219 43.3786 44.9029 43.3897L44.5308 43.612C44.5071 43.6262 44.4835 43.6325 44.4583 43.6325H44.4488C44.3889 43.6325 44.3321 43.5946 44.31 43.5331L44.2312 43.3155H44.4173L44.4362 43.3676C44.4488 43.4023 44.4882 43.4165 44.5198 43.3975L44.6569 43.3155L44.8288 43.213L44.8635 43.1925L44.9077 43.1673C44.9266 43.1563 44.9455 43.1468 44.9676 43.1421L44.9644 43.1437Z" fill="#AFAFAF"/>
<path id="Vector_10" d="M47.3754 43.3174L47.2382 43.3994C47.2067 43.4183 47.1673 43.4041 47.1547 43.3694L47.1357 43.3174H47.3754Z" fill="#969696"/>
<path id="Vector_11" d="M48.5674 43.3771C48.5674 43.3849 48.5642 43.3928 48.5564 43.3976L48.1937 43.6136C48.17 43.6278 48.1448 43.6341 48.1196 43.6341H47.175C47.2003 43.6341 47.2239 43.6262 47.2476 43.6136L47.6197 43.3912C47.6386 43.3786 47.6607 43.3707 47.6812 43.3644C47.697 43.3597 47.7128 43.3566 47.7301 43.355C47.738 43.355 47.7474 43.355 47.7553 43.355H48.5406C48.5548 43.355 48.5642 43.3676 48.5642 43.3786L48.5674 43.3771Z" fill="#BABABA"/>
<path id="Vector_12" d="M48.5674 43.2038V43.3756C48.5674 43.363 48.5579 43.352 48.5437 43.352H47.7584C47.749 43.352 47.7411 43.352 47.7332 43.352C47.7174 43.352 47.7001 43.3567 47.6843 43.3615V43.352V43.1423C47.7064 43.136 47.7301 43.1328 47.7537 43.1328H48.498C48.5374 43.1328 48.5689 43.1643 48.5689 43.2038H48.5674Z" fill="#EAEAEA"/>
<path id="Vector_13" d="M47.6844 43.1437V43.3628C47.6623 43.3692 47.6418 43.3786 47.6229 43.3897L47.2508 43.612C47.2271 43.6262 47.2035 43.6325 47.1782 43.6325H47.1688C47.1089 43.6325 47.0521 43.5946 47.03 43.5331L46.9512 43.3155H47.1372L47.1562 43.3676C47.1688 43.4023 47.2082 43.4165 47.2397 43.3975L47.3769 43.3155L47.5488 43.213L47.5835 43.1925L47.6276 43.1673C47.6466 43.1563 47.6655 43.1468 47.6876 43.1421L47.6844 43.1437Z" fill="#AFAFAF"/>
</g>
</g>
<path id="Vector_14" d="M24.071 35.5591C24.172 35.5969 24.2681 35.6427 24.358 35.6978" stroke="white" stroke-width="0.27" stroke-miterlimit="10"/>
<path id="Vector_15" d="M24.3596 35.6978C24.418 35.7324 24.4732 35.7719 24.5268 35.8129" stroke="white" stroke-width="0.27" stroke-miterlimit="10"/>
<g id="Group_4">
<path id="Vector_16" d="M16.3195 34.7002C16.0562 34.7002 15.8023 34.7475 15.5689 34.8326C14.9666 35.0534 14.4888 35.5312 14.2681 36.1335C14.1829 36.3685 14.1356 36.6208 14.1356 36.8841V42.3936C14.1356 43.2324 13.4544 43.9136 12.6155 43.9136H3.41155C2.65625 43.9136 2.04443 43.3018 2.04443 42.5465V36.8841C2.04443 35.6778 3.02207 34.7002 4.22835 34.7002H16.3211H16.3195Z" fill="#0097D3"/>
<path id="Vector_17" d="M37.7299 36.8837V42.5461C37.7299 43.3015 37.118 43.9133 36.3627 43.9133H35.6264C36.3911 43.8328 36.9856 43.1863 36.9856 42.3995V37.1502C36.9856 36.212 36.2256 35.452 35.2873 35.452H16.5908C15.6542 35.452 14.8941 36.212 14.8941 37.1486V42.5446C14.8941 43.2999 14.2823 43.9117 13.527 43.9117H12.6172C13.4561 43.9117 14.1373 43.2305 14.1373 42.3916V36.8822C14.1373 36.6188 14.1846 36.365 14.2697 36.1316C14.4905 35.5292 14.9682 35.0515 15.5706 34.8307C15.8055 34.7455 16.0578 34.6982 16.3212 34.6982H35.5459C36.7522 34.6982 37.7299 35.6759 37.7299 36.8822V36.8837Z" fill="#02B6FF"/>
<path id="Vector_18" d="M36.984 37.1504V42.3997C36.984 43.1849 36.3895 43.8314 35.6247 43.9134C35.5711 43.9198 35.5175 43.9213 35.4623 43.9213H26.5453C25.8925 43.9213 25.3469 43.464 25.2097 42.8538C25.205 42.8349 25.2019 42.8144 25.1971 42.7939C25.1829 42.7151 25.1751 42.6346 25.1751 42.5511V37.1488C25.1751 36.6064 24.9212 36.1239 24.5254 35.8132C24.4718 35.7707 24.4166 35.7328 24.3583 35.6981C24.2684 35.6429 24.1722 35.5972 24.0713 35.5594C24.0634 35.5562 24.0571 35.5546 24.0492 35.5515C24.0397 35.5483 24.0303 35.5452 24.0208 35.542C23.8505 35.4837 23.6676 35.4521 23.4768 35.4521H35.2841C36.2224 35.4521 36.9824 36.2122 36.9824 37.1504H36.984Z" fill="#0573FF"/>
</g>
<path id="Vector_19" d="M35.486 28.604L35.4702 28.6119" stroke="white" stroke-width="0.34" stroke-miterlimit="10"/>
<g id="Group_5">
<path id="Vector_20" d="M19.94 33.6733L19.765 34.7062H11.906V33.6733H19.94Z" fill="#CC4DBB"/>
<path id="Vector_21" d="M27.6964 33.6733V34.7062H19.7649L19.9399 33.6733H27.6964Z" fill="#DD88D2"/>
<path id="Vector_22" d="M37.2755 25.1001C37.0153 25.3066 36.6842 25.4312 36.3184 25.4312H8.78525C7.5837 25.4312 6.54614 24.5907 6.297 23.416L1.71945 1.86697C1.63746 1.47749 1.70841 1.09905 1.8866 0.783687C1.90867 0.742689 1.9339 0.704845 1.95913 0.667001C2.23508 0.268062 2.69709 0 3.23164 0H30.7647C31.9663 0 33.0039 0.840453 33.253 2.01519L37.8305 23.5642C37.9583 24.1681 37.717 24.7516 37.2755 25.1001Z" fill="#DD88D2"/>
<path id="Vector_23" d="M15.1306 26.7856L13.9606 33.6733H12.8584L14.0268 26.7856H15.1306Z" fill="#CC4DBB"/>
<path id="Vector_24" d="M21.9471 26.7856L20.7787 33.6733H13.9604L15.1305 26.7856H21.9471Z" fill="#DD88D2"/>
<path id="Vector_25" d="M1.88672 0.783467L1.95925 0.666782L1.99237 0.614746" stroke="white" stroke-width="0.31" stroke-miterlimit="10"/>
<path id="Vector_26" d="M37.2757 25.0999L36.9036 25.4311L35.9685 26.2652C35.5917 26.6011 35.106 26.7856 34.6014 26.7856H8.40386C6.68669 26.7856 5.20289 25.584 4.84652 23.9047L0.634797 4.0902C0.500766 3.46105 0.617452 2.80508 0.959625 2.26107L1.58878 1.25978L1.8868 0.785156C1.70862 1.09895 1.63766 1.47896 1.71966 1.86844L6.29721 23.4175C6.54635 24.5922 7.58549 25.4327 8.78546 25.4327H36.3186C36.6844 25.4327 37.014 25.3081 37.2757 25.1015V25.0999Z" fill="#CC4DBB"/>
</g>
<path id="Vector_27" d="M35.3517 26.0698L35.3044 26.1124" stroke="white" stroke-width="0.27" stroke-miterlimit="10"/>
<g id="Group_6">
<path id="Vector_28" d="M4.69189 37.1215V37.019" stroke="white" stroke-width="0.31" stroke-miterlimit="10"/>
<path id="Vector_29" d="M5.38403 37.1215V37.019" stroke="white" stroke-width="0.31" stroke-miterlimit="10"/>
<path id="Vector_30" d="M6.33643 37.1215V37.019" stroke="white" stroke-width="0.31" stroke-miterlimit="10"/>
<path id="Vector_31" d="M7.34088 41.7389C7.34088 41.7531 7.34088 41.7657 7.34088 41.7783V42.696H4.55146V41.7783C4.55146 41.7657 4.55146 41.7515 4.55146 41.7389C4.55146 41.5654 4.50573 41.4077 4.43162 41.2926C4.36224 41.1854 4.26605 41.116 4.1604 41.1066H4.74383C4.96143 41.1239 5.13488 41.3999 5.13488 41.7373C5.13488 41.7515 5.13488 41.7641 5.13488 41.7767V42.2371H6.75745V41.7767C6.75745 41.7641 6.75745 41.7499 6.75745 41.7373C6.75745 41.5638 6.71172 41.4062 6.63761 41.291C6.56823 41.1838 6.47204 41.1144 6.36639 41.105H6.94982C7.16742 41.1223 7.34088 41.3983 7.34088 41.7357V41.7389Z" fill="#EAEAEA"/>
<path id="Vector_32" d="M4.1605 41.1079H4.13843" stroke="white" stroke-width="0.31" stroke-miterlimit="10"/>
<path id="Vector_33" d="M4.5498 41.7388C4.5498 41.7529 4.5498 41.7656 4.5498 41.7782V42.6959H3.72827V41.7782C3.72827 41.7656 3.72827 41.7514 3.72827 41.7388C3.72827 41.3887 3.91276 41.1064 4.13983 41.1064C4.14771 41.1064 4.15402 41.1064 4.1619 41.1064C4.26755 41.1143 4.36216 41.1837 4.43312 41.2925C4.50723 41.406 4.55296 41.5637 4.55296 41.7388H4.5498Z" fill="#AFAFAF"/>
<path id="Vector_34" d="M6.36631 41.1079H6.32373C6.32373 41.1079 6.33792 41.1079 6.34423 41.1079C6.35054 41.1079 6.35842 41.1079 6.36473 41.1079H6.36631Z" stroke="white" stroke-width="0.31" stroke-miterlimit="10"/>
<path id="Vector_35" d="M6.75581 41.7386C6.75581 41.7527 6.75581 41.7654 6.75581 41.778V42.2384H5.13324V41.778C5.13324 41.7654 5.13324 41.7512 5.13324 41.7386C5.13324 41.3995 4.95979 41.1236 4.74219 41.1078H5.38238V37.1216H6.33479V41.1078H6.36475C6.4704 41.1157 6.56501 41.1851 6.63597 41.2939C6.71008 41.4074 6.75581 41.5651 6.75581 41.7401V41.7386Z" fill="#BABABA"/>
<path id="Vector_36" d="M6.9498 41.1079H6.90723C6.90723 41.1079 6.92142 41.1079 6.92773 41.1079C6.93403 41.1079 6.94192 41.1079 6.94822 41.1079H6.9498Z" stroke="white" stroke-width="0.31" stroke-miterlimit="10"/>
<path id="Vector_37" d="M6.90251 42.2402H6.75586" stroke="white" stroke-width="0.31" stroke-miterlimit="10"/>
<path id="Vector_38" d="M5.13323 42.2402H5.06543" stroke="white" stroke-width="0.31" stroke-miterlimit="10"/>
<path id="Vector_39" d="M4.74375 41.1079H4.70117C4.70117 41.1079 4.71536 41.1079 4.72325 41.1079C4.73113 41.1079 4.73744 41.1079 4.74375 41.1079Z" stroke="white" stroke-width="0.31" stroke-miterlimit="10"/>
<path id="Vector_40" d="M11.0654 43.9115H4.20612C3.78984 43.9115 3.45239 43.5741 3.45239 43.1578V42.6958H10.31V43.1562C10.31 43.5725 10.6475 43.91 11.0638 43.91L11.0654 43.9115Z" fill="#AFAFAF"/>
<path id="Vector_41" d="M14.036 42.6973V43.1593C14.036 43.5756 13.6986 43.913 13.2839 43.913H11.0653C10.649 43.913 10.3115 43.5756 10.3115 43.1593V42.6988H14.0376L14.036 42.6973Z" fill="#EAEAEA"/>
<path id="Vector_42" d="M5.38412 37.1216H4.69189V41.1078H5.38412V37.1216Z" fill="#AFAFAF"/>
<path id="Vector_43" d="M6.34746 40.5073C6.33642 40.5073 6.32538 40.5089 6.31277 40.5089C6.30015 40.5089 6.29069 40.5089 6.27808 40.5073H6.34588H6.34746Z" stroke="white" stroke-width="0.31" stroke-miterlimit="10"/>
<path id="Vector_44" d="M8.23969 40.2866H6.3396V40.4191H8.23969V40.2866Z" fill="#969696"/>
<g id="Group_7">
<path id="Vector_45" d="M5.57649 39.9724C5.57649 39.9882 5.57649 40.0039 5.57649 40.0181C5.57649 40.0213 5.57649 40.0244 5.57649 40.026C5.57649 40.0355 5.57649 40.0433 5.57334 40.0528C5.57334 40.0575 5.57334 40.0623 5.57176 40.067C5.57176 40.0733 5.57176 40.0796 5.56861 40.0859C5.54023 40.2578 5.45035 40.3981 5.33051 40.4659C5.31947 40.4722 5.30843 40.477 5.29897 40.4817C5.29582 40.4817 5.29109 40.4849 5.28793 40.4864C5.28163 40.488 5.27532 40.4912 5.26901 40.4927H5.26586C5.25955 40.4927 5.25482 40.4959 5.24851 40.4975C5.23432 40.5006 5.22171 40.5038 5.20752 40.5054C5.20278 40.5054 5.19963 40.5054 5.1949 40.5054C5.1949 40.5054 5.18229 40.5054 5.1744 40.5054C5.16021 40.5054 5.14602 40.5054 5.1334 40.5022C5.11921 40.5006 5.1066 40.4975 5.09241 40.4943C5.0861 40.4927 5.07979 40.4912 5.07191 40.488C5.05929 40.4833 5.04668 40.4785 5.03406 40.4722C5.01514 40.4628 4.9978 40.4517 4.98045 40.4407C4.96311 40.4281 4.94734 40.4139 4.93157 40.3981C4.90476 40.3729 4.88111 40.3429 4.86061 40.3098C4.848 40.2893 4.83696 40.2688 4.82592 40.2468C4.78965 40.1663 4.76758 40.0701 4.76758 39.9692C4.76758 39.8683 4.78965 39.7721 4.82592 39.6917C4.83696 39.6696 4.848 39.6491 4.86061 39.6286C4.88111 39.5955 4.90476 39.5656 4.93157 39.5403C4.94734 39.5246 4.96311 39.5119 4.98045 39.4978C4.9978 39.4851 5.01514 39.4741 5.03406 39.4662C5.04668 39.4599 5.05929 39.4552 5.07191 39.4505C5.07821 39.4489 5.0861 39.4457 5.09241 39.4441C5.10502 39.441 5.11921 39.4378 5.1334 39.4363C5.1476 39.4363 5.16021 39.4331 5.1744 39.4331C5.18859 39.4331 5.20278 39.4331 5.2154 39.4363C5.22959 39.4378 5.24221 39.441 5.2564 39.4441C5.2627 39.4457 5.26901 39.4473 5.2769 39.4505C5.28951 39.4552 5.30213 39.4599 5.31474 39.4662C5.33366 39.4757 5.35101 39.4867 5.36835 39.4978C5.3857 39.5104 5.40304 39.5246 5.41881 39.5403C5.51815 39.6381 5.58122 39.7942 5.58122 39.9692L5.57649 39.9724Z" fill="#969696"/>
<path id="Vector_46" d="M5.16963 40.3352C5.32116 40.3352 5.444 40.1728 5.444 39.9725C5.444 39.7722 5.32116 39.6099 5.16963 39.6099C5.0181 39.6099 4.89526 39.7722 4.89526 39.9725C4.89526 40.1728 5.0181 40.3352 5.16963 40.3352Z" fill="#7F7F7F"/>
</g>
<g id="Group_8">
<path id="Vector_47" d="M10.8415 38.913L8.87515 31.3032C8.7285 30.7371 8.21761 30.3413 7.6326 30.3413H4.33386C4.17145 30.3413 4.02165 30.3933 3.90181 30.4801C3.84031 30.5258 3.78512 30.5794 3.74097 30.6409C3.6164 30.8112 3.56279 31.0351 3.62271 31.2606L5.6111 38.9556C5.75144 39.4964 6.23868 39.8733 6.79688 39.8733H10.0988C10.236 39.8733 10.3621 39.8386 10.4709 39.7771C10.545 39.7361 10.6112 39.6825 10.668 39.621L10.6948 39.5894H10.6964C10.843 39.4065 10.9077 39.1605 10.843 38.9114L10.8415 38.913ZM9.84963 39.2378H6.91199C6.55247 39.2378 6.23868 38.995 6.1488 38.6465L4.28183 31.4167C4.22506 31.196 4.39221 30.9784 4.62085 30.9784H7.55691C7.94008 30.9784 8.27437 31.237 8.37056 31.6091L10.2186 38.7632C10.2817 39.0029 10.0988 39.2378 9.85121 39.2378H9.84963Z" fill="#FF70FE"/>
<path id="Vector_48" d="M10.6664 39.6243L10.351 39.9917L10.3085 40.0406C10.1681 40.1904 9.96788 40.2866 9.74081 40.2866H6.39477C5.82869 40.2866 5.33514 39.905 5.19322 39.3562L3.1796 31.5604C3.09288 31.2277 3.24583 30.8997 3.51389 30.7357H3.51547L3.90495 30.4834C3.84345 30.5291 3.78826 30.5827 3.74411 30.6442C3.61954 30.8145 3.56593 31.0384 3.62585 31.2639L5.61424 38.9589C5.75458 39.4997 6.24182 39.8766 6.80002 39.8766H10.1019C10.2391 39.8766 10.3652 39.8419 10.474 39.7804C10.5482 39.7394 10.6144 39.6858 10.6711 39.6243H10.6664Z" fill="#BB41BF"/>
<path id="Vector_49" d="M4.12091 33.971L4.0263 34.0657C4.0058 34.0862 3.96953 34.0767 3.96165 34.0483L3.69043 32.9429C3.68255 32.9114 3.69043 32.8783 3.71566 32.8546L3.81027 32.76C3.83077 32.7395 3.86704 32.749 3.87492 32.7774L4.14614 33.8827C4.15402 33.9143 4.14614 33.9474 4.12091 33.971Z" fill="#182733"/>
</g>
<g id="Group_9">
<path id="Vector_50" d="M6.54775 39.2568V39.5927C6.54775 39.7598 6.45314 39.9128 6.30334 39.9869L5.93594 40.1682L5.32886 40.4663C5.4487 40.3985 5.54015 40.2581 5.56696 40.0863L5.90913 39.9175L6.25446 39.7472C6.30176 39.7236 6.33172 39.6747 6.33172 39.6227V39.4713L6.54617 39.2568H6.54775Z" fill="#969696"/>
<path id="Vector_51" d="M7.6909 39.2569V39.5928C7.6909 39.76 7.59629 39.9129 7.44649 39.987L6.45782 40.4727L6.44993 40.4758C6.44993 40.4758 6.43574 40.4821 6.42943 40.4853C6.4042 40.4948 6.37582 40.5026 6.34902 40.5058H5.20581C5.23419 40.5026 5.261 40.4963 5.28623 40.4853C5.29411 40.4821 5.30042 40.479 5.30673 40.4758L5.31461 40.4727L5.93431 40.1668L6.30171 39.9854C6.45151 39.9113 6.54612 39.7584 6.54612 39.5912V39.2554H7.68933L7.6909 39.2569Z" fill="#EAEAEA"/>
</g>
<path id="Vector_52" d="M9.53891 39.2568V39.5927C9.53891 39.7598 9.4443 39.9128 9.2945 39.9869L8.9271 40.1682L8.3074 40.4742L8.29952 40.4789C8.29952 40.4789 8.28532 40.4852 8.27902 40.4883C8.25221 40.4978 8.2254 40.5057 8.1986 40.5088C8.18756 40.5088 8.17652 40.5104 8.16391 40.5104C8.08034 40.5104 7.85327 40.4962 7.85327 40.2881H8.18756L8.39097 40.1793L8.55969 40.0894L8.90187 39.9207L9.24719 39.7504C9.2945 39.7267 9.32604 39.6779 9.32604 39.6258V39.4744L9.54049 39.26L9.53891 39.2568Z" fill="#AFAFAF"/>
<path id="Vector_53" d="M10.6821 39.2569V39.5928C10.6821 39.76 10.5875 39.9129 10.4377 39.987L9.44903 40.4727L9.44114 40.4758C9.44114 40.4758 9.42695 40.4821 9.42065 40.4853C9.39542 40.4948 9.36703 40.5026 9.34023 40.5058H8.19702C8.2254 40.5026 8.25221 40.4963 8.27744 40.4853C8.28532 40.4821 8.29163 40.479 8.29794 40.4758L8.30582 40.4727L8.92552 40.1668L9.29292 39.9854C9.44272 39.9113 9.53733 39.7584 9.53733 39.5912V39.2554H10.6805L10.6821 39.2569Z" fill="#EAEAEA"/>
</g>
<path id="Vector_54" d="M27.7814 1.63525L26.0327 3.76398L25.5376 4.36791L25.0409 4.97184L23.4672 6.88927L22.9705 7.4932L22.4754 8.09555L20.8087 10.1234L20.312 10.7273L19.8168 11.3296L18.3346 13.1367L17.8395 13.7406L17.3428 14.3445L15.7675 16.262L15.2724 16.8659L14.7773 17.4683L9.58318 23.7929H9.42707C8.83261 23.7929 8.31856 23.3767 8.19556 22.7948L3.91919 2.69173C3.80408 2.14773 4.21879 1.63525 4.77541 1.63525H27.7814Z" fill="white"/>
<path id="Vector_55" d="M34.7747 23.7978H9.58008L14.7742 17.4731L15.2693 16.8708L15.7644 16.2669L17.3397 14.3494L17.8364 13.7455L18.3315 13.1416L19.8153 11.3345L20.3104 10.7322L20.8071 10.1282L22.4739 8.10043L22.969 7.49808L23.4657 6.89415L25.0394 4.97672L25.5361 4.37279L26.0312 3.76886L27.7799 1.64014H30.2618C30.7775 1.64014 31.2237 2.00123 31.3309 2.50424L35.631 22.7445C35.7461 23.2885 35.3314 23.801 34.7747 23.801V23.7978Z" fill="#DDDDDD"/>
<g id="Group_10">
<g id="Group_11">
<path id="Vector_56" d="M16.7009 43.0336H15.9551L14.6447 29.8339C14.6101 29.4917 14.774 29.1779 15.0374 29.0013L15.5845 28.5361C15.4931 28.6276 15.4237 28.7395 15.3796 28.8625C15.337 28.984 15.3181 29.1164 15.3322 29.2536L16.641 42.4533H16.6426L16.6994 43.0336H16.7009Z" fill="#595996"/>
<path id="Vector_57" d="M16.6426 42.4531H16.6411L15.3323 29.2534C15.3181 29.1162 15.337 28.9838 15.3796 28.8623C15.4301 28.8529 15.4821 28.8481 15.5373 28.8481H16.2847C15.7549 28.8481 15.3402 29.3054 15.3922 29.8321L16.6442 42.4515L16.6426 42.4531Z" fill="#595996"/>
<path id="Vector_58" d="M35.1846 42.4533H16.6411L15.3323 29.2536C15.3181 29.1164 15.337 28.9839 15.3796 28.8625C15.4238 28.7395 15.4931 28.6276 15.5846 28.5361C15.6224 28.4983 15.6634 28.462 15.7076 28.4305C15.8527 28.328 16.0293 28.2681 16.2232 28.2681H32.8241C33.365 28.2681 33.8175 28.678 33.8711 29.2173L35.1846 42.4533Z" fill="#AFA5FF"/>
<path id="Vector_59" d="M45.01 42.4551V43.0827C45.01 43.5415 44.6378 43.9137 44.1805 43.9137H27.7373C28.1567 43.8711 28.4831 43.5179 28.4831 43.089V42.4567H45.01V42.4551Z" fill="#6D69B5"/>
<path id="Vector_60" d="M28.4814 42.4551V43.0874C28.4814 43.5163 28.155 43.8695 27.7356 43.9121H16.7829C16.3524 43.9121 15.9929 43.5841 15.9566 43.1552L15.8936 42.4551H28.4814Z" fill="#595996"/>
</g>
<g id="Group_12">
<path id="Vector_61" d="M31.8308 29.3497L26.5878 35.7264L25.8956 36.5685L24.8596 37.8299L24.1674 38.672L21.9487 41.3715H18.393C18.0224 41.3715 17.7149 41.0924 17.6787 40.725L16.6206 30.1381C16.578 29.7155 16.9108 29.3481 17.3349 29.3481H31.8308V29.3497Z" fill="white"/>
<path id="Vector_62" d="M32.9725 41.3729H21.9473L24.8597 37.8313L25.8957 36.5698L26.5879 35.7278L27.7516 34.3118H27.7484L28.4407 33.4682H28.4438L29.5429 32.131H29.5397L30.232 31.2874H30.2367L31.8277 29.3511H31.9129C32.2818 29.3511 32.5909 29.6318 32.6272 29.9976L33.6836 40.586C33.7262 41.0086 33.3951 41.3744 32.9693 41.3744L32.9725 41.3729Z" fill="#DDDDDD"/>
</g>
</g>
<path id="Vector_63" d="M50.0275 31.5444L48.9568 32.8501L47.9555 34.0689L47.4068 34.7359L46.4071 35.9548L45.8583 36.6234L44.857 37.8407L44.3083 38.5093L43.3086 39.7266L41.5914 41.8175C41.5299 41.7576 41.4873 41.6788 41.4716 41.5889L39.6756 31.874C39.644 31.7021 39.7765 31.546 39.9499 31.546H50.0259L50.0275 31.5444Z" fill="white"/>
<path id="Vector_64" d="M51.9465 41.9407H41.8973C41.7807 41.9407 41.6719 41.8934 41.593 41.8146L43.3102 39.7237L44.3099 38.5064L44.8586 37.8378L46.4071 35.9519L47.4068 34.733L47.9555 34.066L48.9568 32.8471L50.0275 31.5415C50.2246 31.5557 50.3902 31.6992 50.4249 31.8947L52.2193 41.6096C52.2508 41.7799 52.12 41.9376 51.9465 41.9376V41.9407Z" fill="#DDDDDD"/>
<g id="Group_13">
<path id="Vector_65" d="M8.69071 32.8518L8.317 33.3059L7.79665 33.9398L7.39298 34.4286L6.74017 35.2218L6.33807 35.7122L6.01167 36.1095L5.61588 36.592L4.27873 31.4153C4.22196 31.193 4.38911 30.9785 4.61775 30.9785H7.55224C7.93541 30.9785 8.27127 31.2371 8.36588 31.6092L8.68756 32.8502L8.69071 32.8518Z" fill="white"/>
<path id="Vector_66" d="M9.84966 39.2381H6.91201C6.55249 39.2381 6.2387 38.9953 6.14883 38.6468L5.61743 36.5938L6.01322 36.1113L6.33962 35.7139L6.74171 35.2235L7.39452 34.4304L7.79819 33.9415L8.31855 33.3076L8.69226 32.8535L10.2202 38.7651C10.2817 39.0047 10.1004 39.2381 9.85281 39.2381H9.84966Z" fill="#DDDDDD"/>
</g>
<g id="Group_14" opacity="0.3">
<path id="Vector_67" d="M26.6414 35.8292C26.572 35.8292 26.5011 35.7976 26.4506 35.7393C26.181 35.4255 25.7899 35.2394 25.3784 35.2284C24.9495 35.2158 24.5631 35.3987 24.3171 35.7283C24.2446 35.8244 24.1027 35.8355 23.9986 35.7551C23.8946 35.6731 23.8677 35.5296 23.9403 35.4334C24.2667 34.9982 24.7776 34.7569 25.3452 34.7727C25.8971 34.7869 26.4222 35.0392 26.7865 35.4634C26.8732 35.5643 26.8669 35.7062 26.7754 35.7834C26.7376 35.815 26.6903 35.8308 26.6414 35.8308V35.8292Z" fill="#112130"/>
<path id="Vector_68" d="M27.2865 35.1528C27.2171 35.1528 27.1461 35.1212 27.0957 35.0629C26.6447 34.5378 25.9919 34.2272 25.3044 34.2083C24.5932 34.1925 23.9483 34.4921 23.5383 35.0393C23.4658 35.1354 23.3239 35.1465 23.2198 35.0661C23.1157 34.9841 23.0889 34.8406 23.1615 34.7444C23.6503 34.0916 24.4198 33.7289 25.2713 33.7526C26.0975 33.7746 26.886 34.1515 27.4315 34.787C27.5183 34.8879 27.512 35.0298 27.4205 35.1071C27.3827 35.1386 27.3354 35.1544 27.2865 35.1544V35.1528Z" fill="#112130"/>
<path id="Vector_69" d="M27.9139 34.4335C27.8477 34.4335 27.7783 34.4052 27.7279 34.3484C27.105 33.6625 26.1968 33.2541 25.2396 33.2273C24.2431 33.1989 23.3396 33.5962 22.7624 34.3153C22.6867 34.4083 22.5432 34.4162 22.4423 34.3311C22.3398 34.2459 22.3193 34.1024 22.3935 34.0094C23.051 33.1926 24.0775 32.74 25.2081 32.7716C26.2993 32.8015 27.3384 33.2714 28.0559 34.0614C28.1442 34.1592 28.1442 34.3027 28.0543 34.3831C28.0149 34.4178 27.966 34.4335 27.9155 34.4335H27.9139Z" fill="#112130"/>
<path id="Vector_70" d="M26.0354 37.0587C26.3062 36.7742 26.271 36.3012 25.9568 36.0022C25.6426 35.7032 25.1685 35.6915 24.8977 35.976C24.627 36.2606 24.6622 36.7336 24.9763 37.0325C25.2905 37.3315 25.7647 37.3432 26.0354 37.0587Z" fill="#112130"/>
</g>
<g id="Group_15" opacity="0.3">
<path id="Vector_71" d="M22.786 13.9108C22.663 13.9108 22.529 13.8557 22.4265 13.75C21.8809 13.1887 21.1445 12.8559 20.405 12.8354C19.637 12.8165 18.9827 13.1414 18.6074 13.7295C18.497 13.9014 18.2447 13.9219 18.0413 13.7768C17.8379 13.6302 17.7638 13.3731 17.8726 13.2013C18.3693 12.4239 19.2365 11.9934 20.2536 12.0202C21.2423 12.047 22.2325 12.4964 22.9705 13.2565C23.1455 13.4362 23.1644 13.6917 23.013 13.8289C22.9515 13.8856 22.8695 13.9124 22.7844 13.9124L22.786 13.9108Z" fill="#112130"/>
<path id="Vector_72" d="M23.803 12.6997C23.68 12.6997 23.546 12.6445 23.4435 12.5389C22.5321 11.6006 21.3006 11.0424 20.0675 11.0109C18.7887 10.9746 17.6991 11.5186 17.0746 12.4979C16.9643 12.6697 16.712 12.6902 16.5086 12.5452C16.3052 12.3985 16.231 12.1415 16.3398 11.9696C17.0857 10.8012 18.3897 10.1547 19.9161 10.1957C21.3983 10.2351 22.8837 10.91 23.9875 12.0453C24.1625 12.2251 24.1814 12.4805 24.0301 12.6177C23.9686 12.6745 23.8866 12.7013 23.8014 12.7013L23.803 12.6997Z" fill="#112130"/>
<path id="Vector_73" d="M24.7839 11.4148C24.6656 11.4148 24.5363 11.3627 24.4338 11.2634C23.1803 10.0366 21.4773 9.30498 19.7585 9.25925C17.9688 9.21037 16.433 9.91995 15.5436 11.2051C15.4285 11.3722 15.1731 11.3864 14.9728 11.235C14.7741 11.0836 14.7063 10.825 14.8215 10.6579C15.8338 9.19618 17.5809 8.38884 19.6071 8.44245C21.5656 8.49449 23.5161 9.33652 24.9589 10.7494C25.1371 10.9244 25.1655 11.1814 25.0204 11.3233C24.9573 11.3848 24.8738 11.4148 24.7823 11.4148H24.7839Z" fill="#112130"/>
<path id="Vector_74" d="M21.9233 16.1332C22.3679 15.6394 22.2339 14.7941 21.6242 14.2453C21.0145 13.6965 20.1598 13.6519 19.7153 14.1458C19.2708 14.6397 19.4047 15.4849 20.0144 16.0338C20.6242 16.5826 21.4788 16.6271 21.9233 16.1332Z" fill="#112130"/>
</g>
<g id="Group_16" opacity="0.3">
<path id="Vector_75" d="M47.3532 37.3852C47.2996 37.3852 47.2413 37.3616 47.1971 37.3159C46.9606 37.073 46.6405 36.928 46.3204 36.9201C45.9877 36.9122 45.7039 37.0525 45.5399 37.308C45.4926 37.3821 45.3822 37.3916 45.2939 37.3285C45.2056 37.2654 45.1725 37.1535 45.2214 37.0793C45.4358 36.7419 45.8127 36.5558 46.2542 36.5669C46.6831 36.5779 47.112 36.7734 47.4321 37.103C47.5078 37.1803 47.5156 37.2922 47.451 37.3506C47.4242 37.3742 47.3895 37.3868 47.3517 37.3868L47.3532 37.3852Z" fill="#112130"/>
<path id="Vector_76" d="M47.7947 36.86C47.7411 36.86 47.6827 36.8364 47.6386 36.7907C47.2428 36.3838 46.7098 36.1426 46.1753 36.1284C45.6202 36.1126 45.1472 36.3491 44.8775 36.7733C44.8302 36.8474 44.7198 36.8569 44.6315 36.7938C44.5432 36.7307 44.5101 36.6188 44.559 36.5447C44.8823 36.0385 45.4483 35.7578 46.1106 35.7752C46.754 35.7925 47.3973 36.0842 47.8767 36.5778C47.9524 36.655 47.9602 36.767 47.8956 36.8253C47.8688 36.849 47.8341 36.8616 47.7962 36.8616L47.7947 36.86Z" fill="#112130"/>
<path id="Vector_77" d="M48.2189 36.3017C48.1668 36.3017 48.1116 36.2796 48.0675 36.2355C47.5235 35.7025 46.7855 35.3856 46.0397 35.3667C45.2639 35.3462 44.5969 35.6536 44.2121 36.2103C44.1617 36.2828 44.0513 36.2891 43.9646 36.2229C43.8778 36.1567 43.8495 36.0447 43.8983 35.9722C44.3367 35.3383 45.0952 34.9882 45.975 35.0119C46.8249 35.0339 47.6701 35.3998 48.2961 36.0132C48.3734 36.0888 48.386 36.2008 48.3229 36.2623C48.2961 36.2891 48.2583 36.3017 48.2204 36.3017H48.2189Z" fill="#112130"/>
<path id="Vector_78" d="M46.9797 38.351C47.1726 38.1367 47.1143 37.7699 46.8496 37.5316C46.5848 37.2933 46.2139 37.2738 46.021 37.488C45.8282 37.7023 45.8865 38.0691 46.1512 38.3074C46.416 38.5457 46.7869 38.5652 46.9797 38.351Z" fill="#112130"/>
</g>
<g id="Group_17" opacity="0.3">
<path id="Vector_79" d="M7.96374 35.5009C7.9322 35.5009 7.89909 35.4867 7.87386 35.4599C7.73668 35.318 7.55061 35.2344 7.36454 35.2297C7.17059 35.2249 7.0066 35.3069 6.91199 35.4552C6.88361 35.4977 6.82054 35.504 6.77008 35.4678C6.71962 35.4315 6.7007 35.3668 6.7275 35.3227C6.85207 35.1272 7.07125 35.0184 7.3267 35.0247C7.57584 35.031 7.82498 35.1445 8.01105 35.3353C8.0552 35.381 8.05993 35.4457 8.02208 35.4788C8.00631 35.493 7.98582 35.4993 7.96374 35.4993V35.5009Z" fill="#112130"/>
<path id="Vector_80" d="M8.22075 35.1967C8.18921 35.1967 8.1561 35.1825 8.13087 35.1557C7.90065 34.9192 7.59159 34.7788 7.28095 34.7709C6.95928 34.7615 6.68491 34.8987 6.52723 35.1447C6.49884 35.1872 6.43577 35.1935 6.38531 35.1573C6.33485 35.121 6.31593 35.0564 6.34274 35.0122C6.53038 34.7173 6.85836 34.5549 7.24311 34.566C7.61682 34.5754 7.99053 34.7457 8.26805 35.0311C8.3122 35.0769 8.31693 35.1415 8.27909 35.1746C8.26332 35.1888 8.24282 35.1951 8.22075 35.1951V35.1967Z" fill="#112130"/>
<path id="Vector_81" d="M8.46682 34.8735C8.43686 34.8735 8.40375 34.8608 8.37852 34.8356C8.06315 34.5266 7.63425 34.3421 7.20062 34.331C6.74965 34.3184 6.36332 34.4982 6.13941 34.8214C6.11103 34.864 6.04638 34.8672 5.99592 34.8293C5.94546 34.7915 5.92812 34.7268 5.95808 34.6842C6.21352 34.3168 6.65346 34.1134 7.16278 34.126C7.65633 34.1387 8.14672 34.3515 8.51097 34.7063C8.5567 34.7505 8.56301 34.8151 8.52674 34.8514C8.51097 34.8672 8.4889 34.875 8.46682 34.875V34.8735Z" fill="#112130"/>
<path id="Vector_82" d="M7.74586 36.0626C7.85772 35.9383 7.82405 35.7256 7.67064 35.5876C7.51724 35.4495 7.3022 35.4383 7.19033 35.5626C7.07847 35.6869 7.11215 35.8995 7.26556 36.0376C7.41896 36.1757 7.634 36.1869 7.74586 36.0626Z" fill="#112130"/>
</g>
</g>
<defs>
<clipPath id="clip0_6694_15682">
<rect width="52.8382" height="44" fill="white" transform="translate(0.581055)"/>
</clipPath>
</defs>
</svg>
