<svg width="65" height="54" viewBox="0 0 65 54" fill="none" xmlns="http://www.w3.org/2000/svg">
<g id="MobileArtboard 24 2" clip-path="url(#clip0_7562_52091)">
<g id="Group">
<g id="Group_2">
<path id="Vector" d="M64.2616 52.7667H64.2577C64.1416 52.8131 64.0158 52.8402 63.8842 52.8402C63.8803 52.8402 63.8765 52.8402 63.8726 52.8402H50.4248C49.7166 52.8402 49.1089 52.3332 48.9792 51.6365L46.5738 38.5313C46.5157 38.2159 46.6144 37.914 46.8099 37.6972C46.897 37.6005 47.0053 37.5211 47.1272 37.465H47.1292C47.253 37.4069 47.3904 37.376 47.5356 37.376H61.024C61.7593 37.376 62.3902 37.9004 62.5238 38.6242L64.906 51.5978C64.9989 52.1068 64.7105 52.5848 64.2616 52.7647V52.7667Z" fill="#FF7631"/>
<path id="Vector_2" d="M64.2577 52.769L63.5746 53.0651H63.5726C63.4391 53.1289 63.2862 53.1657 63.1275 53.1657H55.6325V53.0263C55.6325 52.978 55.5938 52.9393 55.5454 52.9393H54.632C54.603 52.9393 54.5739 52.9431 54.5468 52.9509C54.5217 52.9586 54.4965 52.9683 54.4733 52.9818L54.4191 53.0128L54.3765 53.038L54.1656 53.1637H49.6759C48.9676 53.1637 48.36 52.6567 48.2303 51.96L45.8249 38.8548C45.7397 38.3884 45.9971 37.9511 46.4016 37.7789L46.419 37.7711H46.4248L47.1234 37.4673C47.0015 37.5234 46.895 37.6027 46.806 37.6995C46.6106 37.9163 46.5119 38.2181 46.5699 38.5336L48.9754 51.6388C49.1031 52.3355 49.7108 52.8425 50.421 52.8425H63.8687C63.8687 52.8425 63.8765 52.8425 63.8803 52.8425C64.0139 52.8425 64.1397 52.8154 64.2538 52.769H64.2577Z" fill="#C44B0E"/>
</g>
<g id="Group_3">
<path id="Vector_3" d="M60.4105 53.7292V54.004H53.0355C51.9866 54.004 51.6305 53.5434 51.5182 53.166H51.8492C51.9266 53.4195 52.1646 53.7292 52.871 53.7292H60.4105Z" fill="#BABABA"/>
<path id="Vector_4" d="M56.5497 53.7292H52.8709C52.1646 53.7292 51.9246 53.4195 51.8491 53.166H53.6469L53.7437 53.4331C53.7708 53.5085 53.8405 53.5531 53.914 53.555C53.9179 53.555 53.9217 53.555 53.9256 53.555H55.0732C55.0732 53.555 55.0809 53.555 55.0848 53.555C55.1157 53.555 55.1467 53.5453 55.1757 53.5298L55.5802 53.2899C55.6944 53.5105 55.9576 53.7311 56.5536 53.7311L56.5497 53.7292Z" fill="#969696"/>
<path id="Vector_5" d="M54.5817 53.251L54.5798 53.2529" stroke="white" stroke-width="0.368182" stroke-miterlimit="10"/>
<path id="Vector_6" d="M54.1695 53.1636L54.0011 53.2642C53.9624 53.2874 53.914 53.27 53.8985 53.2274L53.8753 53.1636H54.1695Z" fill="#969696"/>
<path id="Vector_7" d="M55.6325 53.2375C55.6325 53.2472 55.6286 53.2569 55.6189 53.2627L55.1738 53.5278C55.1448 53.5452 55.1139 53.553 55.0829 53.553H53.9237C53.9547 53.553 53.9837 53.5433 54.0127 53.5278L54.4694 53.255C54.4927 53.2395 54.5197 53.2298 54.5449 53.2221C54.5643 53.2163 54.5836 53.2124 54.6049 53.2104C54.6146 53.2104 54.6262 53.2104 54.6359 53.2104H55.5996C55.617 53.2104 55.6286 53.2259 55.6286 53.2395L55.6325 53.2375Z" fill="#BABABA"/>
<path id="Vector_8" d="M55.6325 53.0241V53.235C55.6325 53.2195 55.6209 53.206 55.6035 53.206H54.6397C54.6281 53.206 54.6184 53.206 54.6088 53.206C54.5894 53.206 54.5681 53.2118 54.5488 53.2176V53.206V52.9486C54.5759 52.9409 54.6049 52.937 54.6339 52.937H55.5473C55.5957 52.937 55.6344 52.9757 55.6344 53.0241H55.6325Z" fill="#EAEAEA"/>
<path id="Vector_9" d="M54.5468 52.9511V53.2201C54.5197 53.2279 54.4946 53.2395 54.4714 53.253L54.0147 53.5259C53.9856 53.5433 53.9566 53.5511 53.9256 53.5511H53.914C53.8405 53.5511 53.7708 53.5046 53.7437 53.4291L53.647 53.1621H53.8753L53.8985 53.226C53.914 53.2685 53.9624 53.2859 54.0011 53.2627L54.1695 53.1621L54.3804 53.0363L54.423 53.0111L54.4772 52.9802C54.5004 52.9666 54.5236 52.955 54.5507 52.9492L54.5468 52.9511Z" fill="#AFAFAF"/>
<path id="Vector_10" d="M57.5058 53.1636L57.3374 53.2642C57.2987 53.2874 57.2503 53.27 57.2348 53.2274L57.2116 53.1636H57.5058Z" fill="#969696"/>
<path id="Vector_11" d="M58.9688 53.2375C58.9688 53.2472 58.9649 53.2569 58.9553 53.2627L58.5102 53.5278C58.4811 53.5452 58.4502 53.553 58.4192 53.553H57.26C57.291 53.553 57.32 53.5433 57.349 53.5278L57.8057 53.255C57.829 53.2395 57.8561 53.2298 57.8812 53.2221C57.9006 53.2163 57.9199 53.2124 57.9412 53.2104C57.9509 53.2104 57.9625 53.2104 57.9722 53.2104H58.9359C58.9533 53.2104 58.9649 53.2259 58.9649 53.2395L58.9688 53.2375Z" fill="#BABABA"/>
<path id="Vector_12" d="M58.9688 53.0241V53.235C58.9688 53.2195 58.9572 53.206 58.9398 53.206H57.976C57.9644 53.206 57.9547 53.206 57.9451 53.206C57.9257 53.206 57.9044 53.2118 57.8851 53.2176V53.206V52.9486C57.9122 52.9409 57.9412 52.937 57.9702 52.937H58.8836C58.932 52.937 58.9707 52.9757 58.9707 53.0241H58.9688Z" fill="#EAEAEA"/>
<path id="Vector_13" d="M57.885 52.9511V53.2201C57.8579 53.2279 57.8328 53.2395 57.8096 53.253L57.3529 53.5259C57.3238 53.5433 57.2948 53.5511 57.2638 53.5511H57.2522C57.1787 53.5511 57.109 53.5046 57.0819 53.4291L56.9852 53.1621H57.2135L57.2367 53.226C57.2522 53.2685 57.3006 53.2859 57.3393 53.2627L57.5077 53.1621L57.7186 53.0363L57.7612 53.0111L57.8154 52.9802C57.8386 52.9666 57.8618 52.955 57.8889 52.9492L57.885 52.9511Z" fill="#AFAFAF"/>
</g>
</g>
<path id="Vector_14" d="M28.9054 43.6421C29.0292 43.6885 29.1473 43.7447 29.2576 43.8124" stroke="white" stroke-width="0.331364" stroke-miterlimit="10"/>
<path id="Vector_15" d="M29.2595 43.8125C29.3311 43.8551 29.3989 43.9035 29.4647 43.9538" stroke="white" stroke-width="0.331364" stroke-miterlimit="10"/>
<g id="Group_4">
<path id="Vector_16" d="M19.3919 42.5874C19.0687 42.5874 18.7572 42.6455 18.4708 42.75C17.7315 43.0209 17.1451 43.6073 16.8742 44.3465C16.7697 44.6349 16.7117 44.9445 16.7117 45.2677V52.0293C16.7117 53.0588 15.8757 53.8948 14.8461 53.8948H3.55032C2.62336 53.8948 1.8725 53.144 1.8725 52.217V45.2677C1.8725 43.7872 3.07233 42.5874 4.55276 42.5874H19.3939H19.3919Z" fill="#0097D3"/>
<path id="Vector_17" d="M45.6682 45.2672V52.2165C45.6682 53.1434 44.9173 53.8943 43.9904 53.8943H43.0866C44.0252 53.7956 44.7548 53.0022 44.7548 52.0365V45.5942C44.7548 44.4428 43.822 43.51 42.6705 43.51H19.7248C18.5753 43.51 17.6425 44.4428 17.6425 45.5923V52.2145C17.6425 53.1415 16.8917 53.8924 15.9647 53.8924H14.8481C15.8776 53.8924 16.7136 53.0564 16.7136 52.0268V45.2652C16.7136 44.942 16.7717 44.6305 16.8762 44.3441C17.1471 43.6048 17.7335 43.0184 18.4727 42.7475C18.7611 42.643 19.0707 42.585 19.3939 42.585H42.9879C44.4684 42.585 45.6682 43.7848 45.6682 45.2652V45.2672Z" fill="#02B6FF"/>
<path id="Vector_18" d="M44.7528 45.5945V52.0368C44.7528 53.0005 44.0232 53.7939 43.0847 53.8946C43.0189 53.9023 42.9531 53.9042 42.8853 53.9042H31.9418C31.1406 53.9042 30.471 53.343 30.3026 52.5941C30.2968 52.5709 30.293 52.5457 30.2872 52.5206C30.2697 52.4238 30.2601 52.3251 30.2601 52.2226V45.5925C30.2601 44.9268 29.9485 44.3347 29.4628 43.9534C29.397 43.9012 29.3292 43.8547 29.2576 43.8121C29.1473 43.7444 29.0293 43.6883 28.9054 43.6418C28.8957 43.638 28.888 43.636 28.8783 43.6322C28.8667 43.6283 28.8551 43.6244 28.8435 43.6206C28.6345 43.549 28.41 43.5103 28.1758 43.5103H42.6667C43.8181 43.5103 44.7509 44.443 44.7509 45.5945H44.7528Z" fill="#0573FF"/>
</g>
<path id="Vector_19" d="M42.9136 35.1055L42.895 35.1148" stroke="white" stroke-width="0.417273" stroke-miterlimit="10"/>
<g id="Group_5">
<path id="Vector_20" d="M23.8352 41.3267L23.6203 42.5942H13.9753V41.3267H23.8352Z" fill="#CC4DBB"/>
<path id="Vector_21" d="M33.3544 41.3267V42.5942H23.6204L23.8352 41.3267H33.3544Z" fill="#DD88D2"/>
<path id="Vector_22" d="M45.1108 30.8056C44.7915 31.0591 44.3851 31.212 43.9361 31.212H10.1455C8.67083 31.212 7.39747 30.1805 7.09171 28.7388L1.4738 2.29226C1.37317 1.81426 1.46025 1.34982 1.67893 0.962774C1.70603 0.912459 1.73699 0.866014 1.76795 0.819569C2.10661 0.329962 2.67363 0.000976562 3.32966 0.000976562H37.1203C38.5949 0.000976562 39.8683 1.03244 40.1741 2.47417L45.792 28.9207C45.9487 29.6619 45.6526 30.3779 45.1108 30.8056Z" fill="#DD88D2"/>
<path id="Vector_23" d="M17.9327 32.875L16.4968 41.328H15.1441L16.5781 32.875H17.9327Z" fill="#CC4DBB"/>
<path id="Vector_24" d="M26.2987 32.875L24.8647 41.328H16.4969L17.9328 32.875H26.2987Z" fill="#DD88D2"/>
<path id="Vector_25" d="M1.67896 0.962926L1.76797 0.819721L1.80861 0.755859" stroke="white" stroke-width="0.380455" stroke-miterlimit="10"/>
<path id="Vector_26" d="M45.1108 30.8052L44.6541 31.2116L43.5065 32.2354C43.044 32.6476 42.448 32.874 41.8287 32.874H9.67719C7.56975 32.874 5.74872 31.3993 5.31136 29.3384L0.142422 5.02055C-0.0220701 4.2484 0.121135 3.44335 0.541075 2.77571L1.31322 1.54685L1.67898 0.964355C1.4603 1.34946 1.37321 1.81585 1.47384 2.29384L7.09175 28.7404C7.39751 30.1821 8.67281 31.2136 10.1455 31.2136H43.9361C44.3851 31.2136 44.7896 31.0607 45.1108 30.8072V30.8052Z" fill="#CC4DBB"/>
</g>
<path id="Vector_27" d="M42.7498 31.9951L42.6918 32.0474" stroke="white" stroke-width="0.331364" stroke-miterlimit="10"/>
<g id="Group_6">
<path id="Vector_28" d="M5.1217 45.5599V45.4341" stroke="white" stroke-width="0.380455" stroke-miterlimit="10"/>
<path id="Vector_29" d="M5.97125 45.5599V45.4341" stroke="white" stroke-width="0.380455" stroke-miterlimit="10"/>
<path id="Vector_30" d="M7.14008 45.5599V45.4341" stroke="white" stroke-width="0.380455" stroke-miterlimit="10"/>
<path id="Vector_31" d="M8.37285 51.2267C8.37285 51.2441 8.37285 51.2596 8.37285 51.2751V52.4014H4.94947V51.2751C4.94947 51.2596 4.94947 51.2422 4.94947 51.2267C4.94947 51.0138 4.89335 50.8203 4.8024 50.679C4.71725 50.5474 4.5992 50.4623 4.46954 50.4507H5.18557C5.45263 50.472 5.6655 50.8106 5.6655 51.2248C5.6655 51.2422 5.6655 51.2576 5.6655 51.2731V51.8382H7.65683V51.2731C7.65683 51.2576 7.65683 51.2402 7.65683 51.2248C7.65683 51.0119 7.60071 50.8184 7.50975 50.6771C7.4246 50.5455 7.30656 50.4603 7.1769 50.4487H7.89292C8.15998 50.47 8.37285 50.8087 8.37285 51.2228V51.2267Z" fill="#EAEAEA"/>
<path id="Vector_32" d="M4.46948 50.4526H4.44238" stroke="white" stroke-width="0.380455" stroke-miterlimit="10"/>
<path id="Vector_33" d="M4.94751 51.2262C4.94751 51.2436 4.94751 51.2591 4.94751 51.2746V52.4009H3.93927V51.2746C3.93927 51.2591 3.93927 51.2417 3.93927 51.2262C3.93927 50.7966 4.16569 50.4502 4.44436 50.4502C4.45404 50.4502 4.46178 50.4502 4.47145 50.4502C4.60111 50.4599 4.71722 50.545 4.80431 50.6785C4.89526 50.8179 4.95138 51.0114 4.95138 51.2262H4.94751Z" fill="#AFAFAF"/>
<path id="Vector_34" d="M7.17688 50.4526H7.12463C7.12463 50.4526 7.14205 50.4526 7.14979 50.4526C7.15753 50.4526 7.16721 50.4526 7.17495 50.4526H7.17688Z" stroke="white" stroke-width="0.380455" stroke-miterlimit="10"/>
<path id="Vector_35" d="M7.65485 51.2263C7.65485 51.2438 7.65485 51.2592 7.65485 51.2747V51.8398H5.66353V51.2747C5.66353 51.2592 5.66353 51.2418 5.66353 51.2263C5.66353 50.8103 5.45065 50.4716 5.18359 50.4523H5.96929V45.5601H7.13815V50.4523H7.17492C7.30458 50.4619 7.42069 50.5471 7.50778 50.6806C7.59873 50.82 7.65485 51.0135 7.65485 51.2283V51.2263Z" fill="#BABABA"/>
<path id="Vector_36" d="M7.89289 50.4526H7.84064C7.84064 50.4526 7.85805 50.4526 7.8658 50.4526C7.87354 50.4526 7.88321 50.4526 7.89095 50.4526H7.89289Z" stroke="white" stroke-width="0.380455" stroke-miterlimit="10"/>
<path id="Vector_37" d="M7.83482 51.8413H7.65485" stroke="white" stroke-width="0.380455" stroke-miterlimit="10"/>
<path id="Vector_38" d="M5.66354 51.8413H5.58032" stroke="white" stroke-width="0.380455" stroke-miterlimit="10"/>
<path id="Vector_39" d="M5.18555 50.4526H5.1333C5.1333 50.4526 5.15072 50.4526 5.16039 50.4526C5.17007 50.4526 5.17781 50.4526 5.18555 50.4526Z" stroke="white" stroke-width="0.380455" stroke-miterlimit="10"/>
<path id="Vector_40" d="M12.9438 53.8934H4.52561C4.01472 53.8934 3.60059 53.4793 3.60059 52.9684V52.4014H12.0168V52.9664C12.0168 53.4773 12.4309 53.8915 12.9418 53.8915L12.9438 53.8934Z" fill="#AFAFAF"/>
<path id="Vector_41" d="M16.5897 52.4038V52.9708C16.5897 53.4817 16.1756 53.8959 15.6666 53.8959H12.9438C12.4329 53.8959 12.0187 53.4817 12.0187 52.9708V52.4057H16.5916L16.5897 52.4038Z" fill="#EAEAEA"/>
<path id="Vector_42" d="M5.97126 45.5601H5.1217V50.4523H5.97126V45.5601Z" fill="#AFAFAF"/>
<path id="Vector_43" d="M7.15363 49.7153C7.14008 49.7153 7.12654 49.7173 7.11106 49.7173C7.09557 49.7173 7.08396 49.7173 7.06848 49.7153H7.1517H7.15363Z" stroke="white" stroke-width="0.380455" stroke-miterlimit="10"/>
<path id="Vector_44" d="M9.47591 49.4443H7.14398V49.6069H9.47591V49.4443Z" fill="#969696"/>
<g id="Group_7">
<path id="Vector_45" d="M6.20736 49.0593C6.20736 49.0787 6.20736 49.098 6.20736 49.1154C6.20736 49.1193 6.20736 49.1232 6.20736 49.1251C6.20736 49.1367 6.20736 49.1464 6.20349 49.158C6.20349 49.1638 6.20349 49.1696 6.20155 49.1754C6.20155 49.1832 6.20155 49.1909 6.19768 49.1986C6.16285 49.4096 6.05254 49.5818 5.90547 49.665C5.89192 49.6728 5.87838 49.6786 5.86676 49.6844C5.86289 49.6844 5.85709 49.6882 5.85322 49.6902C5.84548 49.6921 5.83774 49.696 5.83 49.6979H5.82612C5.81838 49.6979 5.81258 49.7018 5.80484 49.7037C5.78742 49.7076 5.77194 49.7115 5.75452 49.7134C5.74872 49.7134 5.74485 49.7134 5.73904 49.7134C5.73904 49.7134 5.72356 49.7134 5.71388 49.7134C5.69647 49.7134 5.67905 49.7134 5.66357 49.7095C5.64615 49.7076 5.63067 49.7037 5.61325 49.6999C5.60551 49.6979 5.59777 49.696 5.58809 49.6921C5.57261 49.6863 5.55713 49.6805 5.54165 49.6728C5.51843 49.6612 5.49714 49.6476 5.47585 49.6341C5.45457 49.6186 5.43521 49.6012 5.41586 49.5818C5.38296 49.5508 5.35393 49.5141 5.32878 49.4734C5.3133 49.4483 5.29975 49.4231 5.2862 49.396C5.24169 49.2973 5.2146 49.1793 5.2146 49.0554C5.2146 48.9316 5.24169 48.8135 5.2862 48.7148C5.29975 48.6877 5.3133 48.6626 5.32878 48.6374C5.35393 48.5968 5.38296 48.56 5.41586 48.5291C5.43521 48.5097 5.45457 48.4942 5.47585 48.4768C5.49714 48.4613 5.51843 48.4478 5.54165 48.4381C5.55713 48.4304 5.57261 48.4246 5.58809 48.4187C5.59584 48.4168 5.60551 48.4129 5.61325 48.411C5.62873 48.4071 5.64615 48.4033 5.66357 48.4013C5.68098 48.4013 5.69647 48.3975 5.71388 48.3975C5.7313 48.3975 5.74872 48.3975 5.7642 48.4013C5.78162 48.4033 5.7971 48.4071 5.81451 48.411C5.82225 48.4129 5.83 48.4149 5.83967 48.4187C5.85515 48.4246 5.87063 48.4304 5.88612 48.4381C5.90934 48.4497 5.93063 48.4633 5.95191 48.4768C5.9732 48.4923 5.99449 48.5097 6.01384 48.5291C6.13576 48.649 6.21317 48.8406 6.21317 49.0554L6.20736 49.0593Z" fill="#969696"/>
<path id="Vector_46" d="M5.70806 49.5045C5.89403 49.5045 6.04479 49.3052 6.04479 49.0594C6.04479 48.8135 5.89403 48.6143 5.70806 48.6143C5.5221 48.6143 5.37134 48.8135 5.37134 49.0594C5.37134 49.3052 5.5221 49.5045 5.70806 49.5045Z" fill="#7F7F7F"/>
</g>
<g id="Group_8">
<path id="Vector_47" d="M12.669 47.759L10.2558 38.4197C10.0758 37.725 9.44882 37.2393 8.73086 37.2393H4.68241C4.48308 37.2393 4.29924 37.3031 4.15216 37.4096C4.07669 37.4657 4.00895 37.5315 3.95477 37.6069C3.80189 37.816 3.73609 38.0907 3.80963 38.3675L6.24992 47.8113C6.42216 48.4751 7.02013 48.9376 7.7052 48.9376H11.7575C11.9259 48.9376 12.0807 48.895 12.2142 48.8195C12.3052 48.7692 12.3865 48.7034 12.4561 48.6279L12.489 48.5892H12.491C12.6709 48.3648 12.7503 48.0629 12.6709 47.7571L12.669 47.759ZM11.4518 48.1577H7.84647C7.40524 48.1577 7.02014 47.8597 6.90983 47.432L4.61854 38.5591C4.54888 38.2881 4.75401 38.0211 5.03461 38.0211H8.63797C9.10822 38.0211 9.51849 38.3385 9.63653 38.7952L11.9046 47.5752C11.982 47.8693 11.7575 48.1577 11.4537 48.1577H11.4518Z" fill="#FF70FE"/>
<path id="Vector_48" d="M12.4542 48.6315L12.0671 49.0824L12.0149 49.1424C11.8427 49.3262 11.5969 49.4443 11.3182 49.4443H7.21171C6.51697 49.4443 5.91125 48.9759 5.73708 48.3025L3.26582 38.7348C3.15939 38.3265 3.3471 37.924 3.67609 37.7227H3.67802L4.15602 37.4131C4.08054 37.4692 4.01281 37.535 3.95863 37.6105C3.80575 37.8195 3.73995 38.0943 3.81349 38.371L6.25378 47.8148C6.42601 48.4786 7.02399 48.9411 7.70906 48.9411H11.7614C11.9297 48.9411 12.0846 48.8985 12.2181 48.8231C12.309 48.7727 12.3903 48.7069 12.46 48.6315H12.4542Z" fill="#BB41BF"/>
<path id="Vector_49" d="M4.42113 41.6946L4.30502 41.8107C4.27986 41.8358 4.23535 41.8242 4.22568 41.7894L3.89282 40.4328C3.88314 40.3941 3.89282 40.3535 3.92378 40.3244L4.0399 40.2083C4.06505 40.1832 4.10956 40.1948 4.11924 40.2296L4.45209 41.5862C4.46177 41.6249 4.45209 41.6655 4.42113 41.6946Z" fill="#182733"/>
</g>
<g id="Group_9">
<path id="Vector_50" d="M7.39942 48.1812V48.5933C7.39942 48.7985 7.28331 48.9862 7.09946 49.0772L6.64856 49.2997L5.9035 49.6655C6.05058 49.5822 6.16282 49.41 6.19572 49.1991L6.61566 48.992L7.03947 48.783C7.09753 48.754 7.13429 48.694 7.13429 48.6301V48.4443L7.39748 48.1812H7.39942Z" fill="#969696"/>
<path id="Vector_51" d="M8.80245 48.1806V48.5928C8.80245 48.798 8.68634 48.9857 8.50249 49.0766L7.28912 49.6727L7.27944 49.6766C7.27944 49.6766 7.26202 49.6843 7.25428 49.6882C7.22332 49.6998 7.18849 49.7095 7.15559 49.7133H5.75256C5.7874 49.7095 5.8203 49.7017 5.85126 49.6882C5.86094 49.6843 5.86868 49.6804 5.87642 49.6766L5.88609 49.6727L6.64663 49.2973L7.09753 49.0747C7.28138 48.9838 7.39749 48.796 7.39749 48.5909V48.1787H8.80051L8.80245 48.1806Z" fill="#EAEAEA"/>
</g>
<path id="Vector_52" d="M11.0705 48.1802V48.5924C11.0705 48.7975 10.9544 48.9852 10.7705 49.0762L10.3196 49.2987L9.55911 49.6742L9.54943 49.68C9.54943 49.68 9.53202 49.6877 9.52428 49.6916C9.49138 49.7032 9.45848 49.7129 9.42558 49.7167C9.41203 49.7167 9.39849 49.7187 9.38301 49.7187C9.28044 49.7187 9.00177 49.7012 9.00177 49.4458H9.41203L9.66168 49.3123L9.86874 49.202L10.2887 48.9949L10.7125 48.7859C10.7705 48.7569 10.8093 48.6969 10.8093 48.633V48.4472L11.0724 48.184L11.0705 48.1802Z" fill="#AFAFAF"/>
<path id="Vector_53" d="M12.4735 48.1806V48.5928C12.4735 48.798 12.3574 48.9857 12.1736 49.0766L10.9602 49.6727L10.9505 49.6766C10.9505 49.6766 10.9331 49.6843 10.9254 49.6882C10.8944 49.6998 10.8596 49.7095 10.8267 49.7133H9.42365C9.45848 49.7095 9.49138 49.7017 9.52234 49.6882C9.53202 49.6843 9.53976 49.6804 9.5475 49.6766L9.55717 49.6727L10.3177 49.2973L10.7686 49.0747C10.9525 48.9838 11.0686 48.796 11.0686 48.5909V48.1787H12.4716L12.4735 48.1806Z" fill="#EAEAEA"/>
</g>
<path id="Vector_54" d="M33.4589 2.00732L31.3128 4.61985L30.7051 5.36104L30.0955 6.10222L28.1642 8.45543L27.5546 9.19662L26.947 9.93586L24.9014 12.4245L24.2919 13.1657L23.6842 13.905L21.8651 16.1227L21.2575 16.8639L20.6479 17.6051L18.7146 19.9583L18.1069 20.6995L17.4993 21.4387L11.1247 29.2008H10.9331C10.2036 29.2008 9.57268 28.6899 9.42173 27.9759L4.17345 3.30391C4.03218 2.63627 4.54114 2.00732 5.22427 2.00732H33.4589Z" fill="white"/>
<path id="Vector_55" d="M42.0415 29.2067H11.1208L17.4954 21.4446L18.103 20.7053L18.7107 19.9642L20.6439 17.6109L21.2535 16.8698L21.8612 16.1286L23.6822 13.9108L24.2899 13.1716L24.8995 12.4304L26.945 9.94172L27.5526 9.20248L28.1622 8.46129L30.0936 6.10808L30.7031 5.3669L31.3108 4.62571L33.4569 2.01318H36.503C37.1358 2.01318 37.6834 2.45635 37.815 3.07368L43.0923 27.914C43.2336 28.5816 42.7246 29.2106 42.0415 29.2106V29.2067Z" fill="#DDDDDD"/>
<g id="Group_10">
<g id="Group_11">
<path id="Vector_56" d="M19.8602 52.8133H18.9449L17.3367 36.6137C17.2941 36.1937 17.4954 35.8086 17.8186 35.5919L18.4901 35.021C18.3779 35.1332 18.2927 35.2706 18.2385 35.4216C18.1863 35.5706 18.163 35.7332 18.1805 35.9015L19.7867 52.1011H19.7886L19.8583 52.8133H19.8602Z" fill="#595996"/>
<path id="Vector_57" d="M19.7886 52.1013H19.7867L18.1805 35.9016C18.163 35.7333 18.1863 35.5707 18.2385 35.4217C18.3004 35.4101 18.3643 35.4043 18.432 35.4043H19.3493C18.6991 35.4043 18.1901 35.9655 18.254 36.6119L19.7906 52.0993L19.7886 52.1013Z" fill="#595996"/>
<path id="Vector_58" d="M42.5447 52.1015H19.7867L18.1805 35.9019C18.163 35.7335 18.1863 35.571 18.2385 35.422C18.2927 35.271 18.3779 35.1336 18.4901 35.0214C18.5365 34.9749 18.5869 34.9304 18.641 34.8917C18.8191 34.7659 19.0358 34.6924 19.2739 34.6924H39.6477C40.3115 34.6924 40.8669 35.1955 40.9327 35.8574L42.5447 52.1015Z" fill="#AFA5FF"/>
<path id="Vector_59" d="M54.603 52.103V52.8732C54.603 53.4364 54.1463 53.8931 53.5851 53.8931H33.4047C33.9195 53.8408 34.3201 53.4074 34.3201 52.881V52.105H54.603V52.103Z" fill="#6D69B5"/>
<path id="Vector_60" d="M34.3181 52.103V52.879C34.3181 53.4054 33.9176 53.8389 33.4028 53.8912H19.9608C19.4325 53.8912 18.9913 53.4886 18.9468 52.9623L18.8694 52.103H34.3181Z" fill="#595996"/>
</g>
<g id="Group_12">
<path id="Vector_61" d="M38.4285 36.02L31.994 43.846L31.1444 44.8794L29.873 46.4275L29.0234 47.4609L26.3006 50.774H21.9367C21.4819 50.774 21.1046 50.4315 21.0601 49.9806L19.7615 36.9876C19.7093 36.469 20.1176 36.0181 20.6382 36.0181H38.4285V36.02Z" fill="white"/>
<path id="Vector_62" d="M39.8296 50.7755H26.2986L29.873 46.429L31.1444 44.8809L31.994 43.8475L33.4221 42.1096H33.4183L34.2678 41.0743H34.2717L35.6205 39.4333H35.6167L36.4662 38.3979H36.472L38.4246 36.0215H38.5291C38.982 36.0215 39.3613 36.366 39.4058 36.8149L40.7024 49.8098C40.7546 50.3285 40.3482 50.7774 39.8257 50.7774L39.8296 50.7755Z" fill="#DDDDDD"/>
</g>
</g>
<path id="Vector_63" d="M60.7608 38.7153L59.4468 40.3177L58.2179 41.8136L57.5445 42.6322L56.3175 44.1281L55.6441 44.9486L54.4152 46.4426L53.7418 47.2631L52.5149 48.7571L50.4074 51.3232C50.3319 51.2497 50.2797 51.1529 50.2603 51.0426L48.0561 39.1198C48.0174 38.9089 48.18 38.7173 48.3929 38.7173H60.7588L60.7608 38.7153Z" fill="white"/>
<path id="Vector_64" d="M63.1159 51.4731H50.7829C50.6397 51.4731 50.5061 51.4151 50.4094 51.3183L52.5168 48.7522L53.7437 47.2583L54.4172 46.4377L56.3175 44.1232L57.5445 42.6273L58.2179 41.8087L59.4468 40.3128L60.7608 38.7104C61.0027 38.7279 61.2059 38.904 61.2485 39.1439L63.4507 51.0667C63.4894 51.2757 63.3288 51.4693 63.1159 51.4693V51.4731Z" fill="#DDDDDD"/>
<g id="Group_13">
<path id="Vector_65" d="M10.0293 40.3186L9.5707 40.8759L8.93208 41.6538L8.43667 42.2538L7.63549 43.2272L7.14201 43.829L6.74143 44.3167L6.25569 44.9089L4.61464 38.5556C4.54497 38.2827 4.7501 38.0195 5.0307 38.0195H8.63212C9.10238 38.0195 9.51458 38.3369 9.63069 38.7936L10.0255 40.3166L10.0293 40.3186Z" fill="white"/>
<path id="Vector_66" d="M11.4517 48.1564H7.84643C7.40521 48.1564 7.0201 47.8584 6.90979 47.4307L6.25763 44.9111L6.74337 44.3189L7.14395 43.8313L7.63743 43.2294L8.43861 42.256L8.93402 41.6561L9.57264 40.8781L10.0313 40.3208L11.9065 47.5759C11.982 47.87 11.7594 48.1564 11.4556 48.1564H11.4517Z" fill="#DDDDDD"/>
</g>
<g id="Group_14" opacity="0.3">
<path id="Vector_67" d="M32.0597 43.9728C31.9746 43.9728 31.8875 43.9341 31.8256 43.8625C31.4947 43.4774 31.0147 43.249 30.5096 43.2355C29.9833 43.22 29.5091 43.4445 29.2072 43.8489C29.1182 43.967 28.9441 43.9805 28.8163 43.8818C28.6886 43.7812 28.6557 43.6051 28.7447 43.487C29.1453 42.9529 29.7723 42.6568 30.469 42.6762C31.1463 42.6936 31.7908 43.0032 32.2378 43.5238C32.3442 43.6477 32.3365 43.8218 32.2242 43.9167C32.1778 43.9554 32.1197 43.9747 32.0597 43.9747V43.9728Z" fill="#112130"/>
<path id="Vector_68" d="M32.8513 43.1426C32.7662 43.1426 32.6791 43.1039 32.6171 43.0323C32.0637 42.3879 31.2625 42.0067 30.4187 41.9835C29.546 41.9641 28.7545 42.3318 28.2513 43.0033C28.1623 43.1214 27.9881 43.1349 27.8604 43.0362C27.7327 42.9356 27.6998 42.7595 27.7888 42.6414C28.3887 41.8403 29.3331 41.3952 30.3781 41.4242C31.3922 41.4513 32.3598 41.9138 33.0293 42.6937C33.1358 42.8175 33.128 42.9917 33.0158 43.0865C32.9694 43.1252 32.9113 43.1446 32.8513 43.1446V43.1426Z" fill="#112130"/>
<path id="Vector_69" d="M33.6215 42.2599C33.5402 42.2599 33.4551 42.225 33.3931 42.1554C32.6287 41.3135 31.5141 40.8123 30.3394 40.7794C29.1163 40.7446 28.0075 41.2323 27.2992 42.1147C27.2063 42.2289 27.0302 42.2386 26.9063 42.1341C26.7805 42.0296 26.7554 41.8535 26.8463 41.7393C27.6533 40.7369 28.9131 40.1815 30.3007 40.2202C31.6398 40.2569 32.9151 40.8336 33.7957 41.8032C33.904 41.9231 33.904 42.0992 33.7937 42.1979C33.7453 42.2405 33.6854 42.2599 33.6234 42.2599H33.6215Z" fill="#112130"/>
<path id="Vector_70" d="M31.3159 45.4811C31.6482 45.132 31.605 44.5514 31.2194 44.1845C30.8338 43.8176 30.2519 43.8032 29.9196 44.1524C29.5873 44.5016 29.6305 45.0821 30.0161 45.449C30.4016 45.816 30.9836 45.8303 31.3159 45.4811Z" fill="#112130"/>
</g>
<g id="Group_15" opacity="0.3">
<path id="Vector_71" d="M27.3282 17.0727C27.1772 17.0727 27.0127 17.005 26.8869 16.8753C26.2174 16.1864 25.3136 15.7781 24.406 15.7529C23.4636 15.7297 22.6604 16.1284 22.1999 16.8502C22.0644 17.0611 21.7548 17.0863 21.5051 16.9082C21.2555 16.7283 21.1645 16.4128 21.2981 16.2019C21.9076 15.2478 22.972 14.7195 24.2202 14.7524C25.4336 14.7853 26.6489 15.3369 27.5546 16.2696C27.7694 16.4902 27.7926 16.8037 27.6068 16.9721C27.5314 17.0418 27.4307 17.0747 27.3262 17.0747L27.3282 17.0727Z" fill="#112130"/>
<path id="Vector_72" d="M28.5763 15.5866C28.4254 15.5866 28.2609 15.5189 28.1351 15.3892C27.0166 14.2378 25.5052 13.5527 23.9918 13.514C22.4224 13.4695 21.0852 14.1371 20.3188 15.3389C20.1834 15.5498 19.8737 15.575 19.6241 15.3969C19.3744 15.217 19.2835 14.9015 19.417 14.6906C20.3324 13.2566 21.9328 12.4632 23.8061 12.5135C25.6252 12.5619 27.4481 13.3901 28.8028 14.7835C29.0176 15.0041 29.0408 15.3176 28.855 15.486C28.7795 15.5556 28.6789 15.5885 28.5744 15.5885L28.5763 15.5866Z" fill="#112130"/>
<path id="Vector_73" d="M29.7801 14.0093C29.6349 14.0093 29.4762 13.9455 29.3505 13.8236C27.812 12.318 25.7219 11.42 23.6126 11.3639C21.4161 11.3039 19.5312 12.1748 18.4398 13.752C18.2985 13.9571 17.985 13.9745 17.7392 13.7887C17.4954 13.6029 17.4122 13.2856 17.5534 13.0804C18.7958 11.2865 20.94 10.2957 23.4268 10.3615C25.8303 10.4253 28.2242 11.4587 29.9949 13.1927C30.2136 13.4075 30.2484 13.7229 30.0703 13.8971C29.9929 13.9726 29.8904 14.0093 29.7781 14.0093H29.7801Z" fill="#112130"/>
<path id="Vector_74" d="M26.2693 19.8006C26.8149 19.1945 26.6505 18.1572 25.9022 17.4836C25.1539 16.8101 24.105 16.7554 23.5594 17.3615C23.0139 17.9676 23.1782 19.005 23.9265 19.6785C24.6748 20.3521 25.7237 20.4068 26.2693 19.8006Z" fill="#112130"/>
</g>
<g id="Group_16" opacity="0.3">
<path id="Vector_75" d="M57.4787 45.8829C57.4129 45.8829 57.3413 45.8538 57.2871 45.7977C56.9968 45.4997 56.604 45.3217 56.2111 45.312C55.8028 45.3023 55.4545 45.4745 55.2532 45.788C55.1952 45.879 55.0597 45.8906 54.9513 45.8132C54.8429 45.7358 54.8023 45.5984 54.8623 45.5074C55.1255 45.0933 55.588 44.865 56.1299 44.8785C56.6562 44.892 57.1826 45.132 57.5755 45.5365C57.6683 45.6313 57.678 45.7687 57.5987 45.8403C57.5658 45.8693 57.5232 45.8848 57.4768 45.8848L57.4787 45.8829Z" fill="#112130"/>
<path id="Vector_76" d="M58.0205 45.2381C57.9547 45.2381 57.8831 45.2091 57.829 45.153C57.3432 44.6537 56.6891 44.3576 56.0331 44.3402C55.3519 44.3208 54.7713 44.6111 54.4404 45.1317C54.3824 45.2226 54.2469 45.2342 54.1385 45.1568C54.0301 45.0794 53.9895 44.942 54.0495 44.8511C54.4462 44.2299 55.1409 43.8854 55.9537 43.9067C56.7433 43.928 57.5329 44.286 58.1212 44.8917C58.2141 44.9865 58.2237 45.1239 58.1444 45.1955C58.1115 45.2246 58.0689 45.2401 58.0225 45.2401L58.0205 45.2381Z" fill="#112130"/>
<path id="Vector_77" d="M58.5411 44.5531C58.4773 44.5531 58.4095 44.526 58.3553 44.4719C57.6877 43.8178 56.782 43.4288 55.8667 43.4056C54.9145 43.3804 54.096 43.7578 53.6238 44.4409C53.5618 44.5299 53.4264 44.5377 53.3199 44.4564C53.2135 44.3751 53.1787 44.2377 53.2387 44.1487C53.7766 43.3707 54.7075 42.9411 55.7873 42.9701C56.8304 42.9972 57.8677 43.4462 58.636 44.199C58.7308 44.2919 58.7463 44.4293 58.6688 44.5048C58.6359 44.5377 58.5895 44.5531 58.5431 44.5531H58.5411Z" fill="#112130"/>
<path id="Vector_78" d="M57.0204 47.0683C57.2571 46.8053 57.1855 46.3551 56.8606 46.0627C56.5357 45.7702 56.0805 45.7463 55.8438 46.0093C55.6071 46.2722 55.6787 46.7224 56.0036 47.0149C56.3285 47.3073 56.7837 47.3312 57.0204 47.0683Z" fill="#112130"/>
</g>
<g id="Group_17" opacity="0.3">
<path id="Vector_79" d="M9.13724 43.5701C9.09854 43.5701 9.0579 43.5527 9.02693 43.5198C8.85857 43.3456 8.63022 43.2431 8.40186 43.2372C8.16383 43.2314 7.96257 43.3321 7.84646 43.514C7.81162 43.5662 7.73422 43.574 7.67229 43.5295C7.61036 43.485 7.58714 43.4056 7.62004 43.3514C7.77292 43.1115 8.04191 42.9779 8.35542 42.9857C8.66118 42.9934 8.96694 43.1327 9.1953 43.3669C9.24948 43.423 9.25529 43.5024 9.20884 43.543C9.18949 43.5604 9.16433 43.5682 9.13724 43.5682V43.5701Z" fill="#112130"/>
<path id="Vector_80" d="M9.4527 43.1971C9.414 43.1971 9.37336 43.1797 9.34239 43.1468C9.05985 42.8565 8.68055 42.6843 8.29932 42.6746C7.90454 42.663 7.56781 42.8313 7.37429 43.1332C7.33946 43.1855 7.26205 43.1932 7.20012 43.1487C7.13819 43.1042 7.11497 43.0249 7.14787 42.9707C7.37816 42.6088 7.78068 42.4095 8.25287 42.423C8.71152 42.4346 9.17016 42.6436 9.51076 42.9939C9.56494 43.05 9.57075 43.1294 9.5243 43.17C9.50495 43.1874 9.47979 43.1952 9.4527 43.1952V43.1971Z" fill="#112130"/>
<path id="Vector_81" d="M9.75457 42.7998C9.7178 42.7998 9.67716 42.7843 9.6462 42.7534C9.25916 42.3741 8.73278 42.1476 8.2006 42.1341C7.64713 42.1186 7.173 42.3392 6.8982 42.7359C6.86337 42.7882 6.78403 42.7921 6.7221 42.7456C6.66017 42.6992 6.63889 42.6198 6.67565 42.5676C6.98916 42.1167 7.52908 41.867 8.15415 41.8825C8.75987 41.898 9.36172 42.1593 9.80875 42.5947C9.86488 42.6489 9.87262 42.7282 9.82811 42.7727C9.80875 42.7921 9.78166 42.8017 9.75457 42.8017V42.7998Z" fill="#112130"/>
<path id="Vector_82" d="M8.86987 44.2589C9.00716 44.1064 8.96583 43.8453 8.77756 43.6759C8.58929 43.5064 8.32537 43.4927 8.18809 43.6452C8.0508 43.7977 8.09214 44.0588 8.28041 44.2282C8.46868 44.3977 8.73259 44.4114 8.86987 44.2589Z" fill="#112130"/>
</g>
</g>
<defs>
<clipPath id="clip0_7562_52091">
<rect width="64.8468" height="54" fill="white" transform="translate(0.0765991 0.000976562)"/>
</clipPath>
</defs>
</svg>
