<svg width="18" height="18" viewBox="0 0 18 18" fill="none" xmlns="http://www.w3.org/2000/svg">
<g clip-path="url(#clip0_1648_21223)">
<path d="M2.95557 3.27761C2.95557 2.98901 3.07021 2.71223 3.27428 2.50817C3.47835 2.3041 3.75512 2.18945 4.04372 2.18945H9.57455C9.86314 2.18945 10.1399 2.3041 10.344 2.50817C10.5481 2.71224 10.6627 2.98901 10.6627 3.27761V16.9114C10.6627 17.2 10.5481 17.4768 10.344 17.6809C10.1399 17.8849 9.86314 17.9996 9.57455 17.9996H4.04372C3.75512 17.9996 3.47835 17.8849 3.27428 17.6809C3.07021 17.4768 2.95557 17.2 2.95557 16.9114V3.27761Z" fill="#0A2922"/>
<path d="M3.74194 3.94948C3.74194 3.66088 3.85659 3.38411 4.06066 3.18004C4.26473 2.97597 4.5415 2.86133 4.8301 2.86133H8.82736C9.11595 2.86133 9.39272 2.97598 9.59679 3.18004C9.80086 3.38411 9.9155 3.66089 9.9155 3.94948V16.0813C9.9155 16.3699 9.80086 16.6467 9.59679 16.8508C9.39272 17.0548 9.11595 17.1695 8.82736 17.1695H4.8301C4.5415 17.1695 4.26473 17.0548 4.06066 16.8508C3.85659 16.6467 3.74195 16.3699 3.74194 16.0813V3.94948Z" fill="#FCFCFD"/>
<path d="M5.23633 2.90008C5.23633 2.77429 5.2863 2.65365 5.37525 2.5647C5.4642 2.47575 5.58484 2.42578 5.71063 2.42578H7.90778C7.97015 2.42566 8.03193 2.43783 8.08958 2.46161C8.14724 2.48539 8.19964 2.52031 8.24378 2.56436C8.28793 2.60842 8.32295 2.66075 8.34685 2.71836C8.37074 2.77596 8.38304 2.83772 8.38304 2.90009C8.38304 2.96245 8.37074 3.02421 8.34685 3.08181C8.32295 3.13942 8.28793 3.19175 8.24378 3.23581C8.19964 3.27986 8.14724 3.31478 8.08958 3.33856C8.03193 3.36234 7.97015 3.37451 7.90778 3.37439H5.71062C5.58483 3.37438 5.46419 3.32441 5.37524 3.23546C5.2863 3.14651 5.23633 3.02587 5.23633 2.90008Z" fill="#0A2922"/>
<path d="M5.27563 16.4376C5.27563 16.3905 5.29437 16.3452 5.32773 16.3119C5.36109 16.2785 5.40633 16.2598 5.45351 16.2598H8.24354C8.26703 16.2596 8.29034 16.264 8.31211 16.2728C8.33388 16.2817 8.35369 16.2947 8.37038 16.3113C8.38707 16.3278 8.40032 16.3475 8.40937 16.3692C8.41841 16.3909 8.42307 16.4141 8.42307 16.4376C8.42307 16.4611 8.41841 16.4844 8.40937 16.5061C8.40032 16.5278 8.38707 16.5475 8.37038 16.564C8.35369 16.5805 8.33388 16.5936 8.31211 16.6024C8.29034 16.6113 8.26703 16.6157 8.24354 16.6155H5.4535C5.40633 16.6155 5.36109 16.5968 5.32774 16.5634C5.29438 16.5301 5.27564 16.4848 5.27563 16.4376Z" fill="#0A2922"/>
<path d="M11.3472 2.85847C11.3477 2.784 11.3776 2.71275 11.4304 2.66024C11.4832 2.60772 11.5546 2.57821 11.629 2.57813H12.6095C12.6462 2.57808 12.6826 2.58532 12.7166 2.59941C12.7505 2.6135 12.7814 2.63417 12.8073 2.66023C12.8332 2.68629 12.8537 2.71723 12.8676 2.75125C12.8815 2.78527 12.8886 2.82171 12.8883 2.85847C12.8878 2.93293 12.8579 3.00419 12.8051 3.0567C12.7523 3.10921 12.6809 3.13873 12.6065 3.13881H11.626C11.5892 3.13885 11.5528 3.13162 11.5189 3.11753C11.485 3.10343 11.4541 3.08276 11.4282 3.0567C11.4023 3.03064 11.3818 2.99971 11.3679 2.96568C11.354 2.93166 11.3469 2.89522 11.3472 2.85847Z" fill="#596173"/>
<path d="M9.97814 1.45761C10.0523 1.45712 10.1232 1.42734 10.1755 1.37477C10.2278 1.32219 10.2572 1.25107 10.2573 1.17692V0.277653C10.2573 0.241052 10.2501 0.204805 10.2361 0.171001C10.2221 0.137198 10.2015 0.106506 10.1755 0.080696C10.1496 0.0548859 10.1188 0.0344679 10.0849 0.0206191C10.051 0.00677027 10.0147 -0.000235374 9.97814 6.03303e-06C9.90398 0.000493241 9.83303 0.0302709 9.78074 0.0828491C9.72845 0.135427 9.69906 0.206543 9.69897 0.280698V1.17996C9.69893 1.21656 9.70614 1.25281 9.72017 1.28661C9.7342 1.32042 9.75479 1.35111 9.78074 1.37692C9.80669 1.40273 9.83749 1.42315 9.87137 1.43699C9.90525 1.45084 9.94154 1.45785 9.97814 1.45761Z" fill="#596173"/>
<path d="M10.9869 1.89456C10.9423 1.83537 10.9229 1.76092 10.933 1.68748C10.9431 1.61404 10.9819 1.54759 11.0408 1.50263L11.7943 0.928856C11.8534 0.884539 11.9277 0.865458 12.0008 0.875793C12.074 0.886129 12.14 0.925038 12.1846 0.983997C12.2291 1.04296 12.2484 1.11716 12.2383 1.19034C12.2282 1.26353 12.1896 1.32974 12.1308 1.37446L11.3773 1.94822C11.3482 1.97043 11.3149 1.98666 11.2795 1.99599C11.2441 2.00531 11.2072 2.00755 11.171 2.00256C11.1347 1.99757 11.0997 1.98547 11.0682 1.96693C11.0366 1.9484 11.009 1.9238 10.9869 1.89456Z" fill="#596173"/>
<path d="M10.9869 3.89184C10.9423 3.95103 10.9229 4.02548 10.933 4.09892C10.9431 4.17235 10.9819 4.23881 11.0408 4.28377L11.7943 4.85754C11.8534 4.90169 11.9276 4.92064 12.0007 4.91025C12.0737 4.89985 12.1397 4.86097 12.1841 4.80208C12.2286 4.7432 12.2479 4.6691 12.2379 4.596C12.2279 4.52289 12.1894 4.45672 12.1308 4.41194L11.3773 3.83818C11.3482 3.81597 11.3149 3.79974 11.2795 3.79041C11.2441 3.78109 11.2072 3.77885 11.171 3.78384C11.1347 3.78883 11.0997 3.80093 11.0682 3.81947C11.0366 3.838 11.009 3.8626 10.9869 3.89184Z" fill="#596173"/>
<path d="M8.95692 1.86193C9.00154 1.80274 9.02092 1.72829 9.01082 1.65485C9.00073 1.58142 8.96198 1.51496 8.90304 1.47L8.14957 0.896228C8.09048 0.851609 8.01608 0.832291 7.94275 0.842524C7.86942 0.852757 7.80315 0.891702 7.75853 0.950792C7.71391 1.00988 7.6946 1.08428 7.70483 1.15761C7.71506 1.23094 7.75401 1.29721 7.8131 1.34183L8.56657 1.91559C8.59568 1.9378 8.6289 1.95403 8.66431 1.96336C8.69972 1.97269 8.73662 1.97492 8.7729 1.96993C8.80918 1.96495 8.84411 1.95284 8.87569 1.9343C8.90727 1.91577 8.93488 1.89117 8.95692 1.86193Z" fill="#596173"/>
<path d="M13.9209 5.09961H8.52409C8.37672 5.09961 8.2308 5.12863 8.09464 5.18503C7.95849 5.24142 7.83478 5.32408 7.73057 5.42829C7.62636 5.53249 7.5437 5.6562 7.48731 5.79235C7.43091 5.92851 7.40188 6.07443 7.40188 6.2218V9.20336C7.40188 9.22836 7.40763 9.25173 7.40924 9.27633C7.39227 9.28825 7.37778 9.30335 7.36655 9.32079L6.50624 10.9094C6.48941 10.9405 6.483 10.9762 6.48796 11.0112C6.49292 11.0462 6.50898 11.0787 6.53379 11.1038C6.55859 11.129 6.59082 11.1456 6.62574 11.1511C6.66066 11.1565 6.69642 11.1507 6.72775 11.1343L8.31659 10.3046C8.38496 10.318 8.45443 10.325 8.5241 10.3255H13.9209C14.2186 10.3255 14.504 10.2073 14.7145 9.99686C14.9249 9.78641 15.0431 9.50098 15.0432 9.20336V6.2218C15.0431 5.92417 14.9249 5.63874 14.7145 5.42829C14.504 5.21784 14.2186 5.09961 13.9209 5.09961Z" fill="#596173"/>
</g>
<defs>
<clipPath id="clip0_1648_21223">
<rect width="18" height="18" fill="white"/>
</clipPath>
</defs>
</svg>
