<svg width="19" height="18" viewBox="0 0 19 18" fill="none" xmlns="http://www.w3.org/2000/svg">
<g clip-path="url(#clip0_6544_314682)">
<path d="M3.45557 3.27761C3.45557 2.98901 3.57021 2.71223 3.77428 2.50817C3.97835 2.3041 4.25512 2.18945 4.54372 2.18945H10.0745C10.3631 2.18945 10.6399 2.3041 10.844 2.50817C11.0481 2.71224 11.1627 2.98901 11.1627 3.27761V16.9114C11.1627 17.2 11.0481 17.4768 10.844 17.6809C10.6399 17.8849 10.3631 17.9996 10.0745 17.9996H4.54372C4.25512 17.9996 3.97835 17.8849 3.77428 17.6809C3.57021 17.4768 3.45557 17.2 3.45557 16.9114V3.27761Z" fill="#28A487"/>
<path d="M4.24194 3.94948C4.24194 3.66088 4.35659 3.38411 4.56066 3.18004C4.76473 2.97597 5.0415 2.86133 5.3301 2.86133H9.32736C9.61595 2.86133 9.89272 2.97598 10.0968 3.18004C10.3009 3.38411 10.4155 3.66089 10.4155 3.94948V16.0813C10.4155 16.3699 10.3009 16.6467 10.0968 16.8508C9.89272 17.0548 9.61595 17.1695 9.32736 17.1695H5.3301C5.0415 17.1695 4.76473 17.0548 4.56066 16.8508C4.35659 16.6467 4.24195 16.3699 4.24194 16.0813V3.94948Z" fill="#FCFCFD"/>
<path d="M5.73633 2.90008C5.73633 2.77429 5.7863 2.65365 5.87525 2.5647C5.9642 2.47575 6.08484 2.42578 6.21063 2.42578H8.40778C8.47015 2.42566 8.53193 2.43783 8.58958 2.46161C8.64724 2.48539 8.69964 2.52031 8.74378 2.56436C8.78793 2.60842 8.82295 2.66075 8.84685 2.71836C8.87074 2.77596 8.88304 2.83772 8.88304 2.90009C8.88304 2.96245 8.87074 3.02421 8.84685 3.08181C8.82295 3.13942 8.78793 3.19175 8.74378 3.23581C8.69964 3.27986 8.64724 3.31478 8.58958 3.33856C8.53193 3.36234 8.47015 3.37451 8.40778 3.37439H6.21062C6.08483 3.37438 5.96419 3.32441 5.87524 3.23546C5.7863 3.14651 5.73633 3.02587 5.73633 2.90008Z" fill="#28A487"/>
<path d="M5.77563 16.4376C5.77563 16.3905 5.79437 16.3452 5.82773 16.3119C5.86109 16.2785 5.90633 16.2598 5.95351 16.2598H8.74354C8.76703 16.2596 8.79034 16.264 8.81211 16.2728C8.83388 16.2817 8.85369 16.2947 8.87038 16.3113C8.88707 16.3278 8.90032 16.3475 8.90937 16.3692C8.91841 16.3909 8.92307 16.4141 8.92307 16.4376C8.92307 16.4611 8.91841 16.4844 8.90937 16.5061C8.90032 16.5278 8.88707 16.5475 8.87038 16.564C8.85369 16.5805 8.83388 16.5936 8.81211 16.6024C8.79034 16.6113 8.76703 16.6157 8.74354 16.6155H5.9535C5.90633 16.6155 5.86109 16.5968 5.82774 16.5634C5.79438 16.5301 5.77564 16.4848 5.77563 16.4376Z" fill="#28A487"/>
<path d="M11.8472 2.85847C11.8477 2.784 11.8776 2.71275 11.9304 2.66024C11.9832 2.60772 12.0546 2.57821 12.129 2.57813H13.1095C13.1462 2.57808 13.1826 2.58532 13.2166 2.59941C13.2505 2.6135 13.2814 2.63417 13.3073 2.66023C13.3332 2.68629 13.3537 2.71723 13.3676 2.75125C13.3815 2.78527 13.3886 2.82171 13.3883 2.85847C13.3878 2.93293 13.3579 3.00419 13.3051 3.0567C13.2523 3.10921 13.1809 3.13873 13.1065 3.13881H12.126C12.0892 3.13885 12.0528 3.13162 12.0189 3.11753C11.985 3.10343 11.9541 3.08276 11.9282 3.0567C11.9023 3.03064 11.8818 2.99971 11.8679 2.96568C11.854 2.93166 11.8469 2.89522 11.8472 2.85847Z" fill="#28A487"/>
<path d="M10.4781 1.45761C10.5523 1.45712 10.6232 1.42734 10.6755 1.37477C10.7278 1.32219 10.7572 1.25107 10.7573 1.17692V0.277653C10.7573 0.241052 10.7501 0.204805 10.7361 0.171001C10.7221 0.137198 10.7015 0.106506 10.6755 0.080696C10.6496 0.0548859 10.6188 0.0344679 10.5849 0.0206191C10.551 0.00677027 10.5147 -0.000235374 10.4781 6.03303e-06C10.404 0.000493241 10.333 0.0302709 10.2807 0.0828491C10.2284 0.135427 10.1991 0.206543 10.199 0.280698V1.17996C10.1989 1.21656 10.2061 1.25281 10.2202 1.28661C10.2342 1.32042 10.2548 1.35111 10.2807 1.37692C10.3067 1.40273 10.3375 1.42315 10.3714 1.43699C10.4053 1.45084 10.4415 1.45785 10.4781 1.45761Z" fill="#28A487"/>
<path d="M11.4869 1.89456C11.4423 1.83537 11.4229 1.76092 11.433 1.68748C11.4431 1.61404 11.4819 1.54759 11.5408 1.50263L12.2943 0.928856C12.3534 0.884539 12.4277 0.865458 12.5008 0.875793C12.574 0.886129 12.64 0.925038 12.6846 0.983997C12.7291 1.04296 12.7484 1.11716 12.7383 1.19034C12.7282 1.26353 12.6896 1.32974 12.6308 1.37446L11.8773 1.94822C11.8482 1.97043 11.8149 1.98666 11.7795 1.99599C11.7441 2.00531 11.7072 2.00755 11.671 2.00256C11.6347 1.99757 11.5997 1.98547 11.5682 1.96693C11.5366 1.9484 11.509 1.9238 11.4869 1.89456Z" fill="#28A487"/>
<path d="M11.4869 3.89184C11.4423 3.95103 11.4229 4.02548 11.433 4.09892C11.4431 4.17235 11.4819 4.23881 11.5408 4.28377L12.2943 4.85754C12.3534 4.90169 12.4276 4.92064 12.5007 4.91025C12.5737 4.89985 12.6397 4.86097 12.6841 4.80208C12.7286 4.7432 12.7479 4.6691 12.7379 4.596C12.7279 4.52289 12.6894 4.45672 12.6308 4.41194L11.8773 3.83818C11.8482 3.81597 11.8149 3.79974 11.7795 3.79041C11.7441 3.78109 11.7072 3.77885 11.671 3.78384C11.6347 3.78883 11.5997 3.80093 11.5682 3.81947C11.5366 3.838 11.509 3.8626 11.4869 3.89184Z" fill="#28A487"/>
<path d="M9.45692 1.86193C9.50154 1.80274 9.52092 1.72829 9.51082 1.65485C9.50073 1.58142 9.46198 1.51496 9.40304 1.47L8.64957 0.896228C8.59048 0.851609 8.51608 0.832291 8.44275 0.842524C8.36942 0.852757 8.30315 0.891702 8.25853 0.950792C8.21391 1.00988 8.1946 1.08428 8.20483 1.15761C8.21506 1.23094 8.25401 1.29721 8.3131 1.34183L9.06657 1.91559C9.09568 1.9378 9.1289 1.95403 9.16431 1.96336C9.19972 1.97269 9.23662 1.97492 9.2729 1.96993C9.30918 1.96495 9.34411 1.95284 9.37569 1.9343C9.40727 1.91577 9.43488 1.89117 9.45692 1.86193Z" fill="#28A487"/>
<path d="M14.4209 5.09961H9.02409C8.87672 5.09961 8.7308 5.12863 8.59464 5.18503C8.45849 5.24142 8.33478 5.32408 8.23057 5.42829C8.12636 5.53249 8.0437 5.6562 7.98731 5.79235C7.93091 5.92851 7.90188 6.07443 7.90188 6.2218V9.20336C7.90188 9.22836 7.90763 9.25173 7.90924 9.27633C7.89227 9.28825 7.87778 9.30335 7.86655 9.32079L7.00624 10.9094C6.98941 10.9405 6.983 10.9762 6.98796 11.0112C6.99292 11.0462 7.00898 11.0787 7.03379 11.1038C7.05859 11.129 7.09082 11.1456 7.12574 11.1511C7.16066 11.1565 7.19642 11.1507 7.22775 11.1343L8.81659 10.3046C8.88496 10.318 8.95443 10.325 9.0241 10.3255H14.4209C14.7186 10.3255 15.004 10.2073 15.2145 9.99686C15.4249 9.78641 15.5431 9.50098 15.5432 9.20336V6.2218C15.5431 5.92417 15.4249 5.63874 15.2145 5.42829C15.004 5.21784 14.7186 5.09961 14.4209 5.09961Z" fill="#28A487"/>
</g>
<defs>
<clipPath id="clip0_6544_314682">
<rect width="18" height="18" fill="white" transform="translate(0.5)"/>
</clipPath>
</defs>
</svg>
