<svg width="19" height="18" viewBox="0 0 19 18" fill="none" xmlns="http://www.w3.org/2000/svg">
<g clip-path="url(#clip0_6544_314701)">
<path d="M8.3129 6.79152L6.19678 0.977516L7.78246 0.400391L11.4843 5.63755L8.3129 6.79152Z" fill="#28A487"/>
<path d="M1.84961 7.94643L14.5559 3.32184C14.8771 3.20484 15.234 3.24028 15.526 3.41803L16.602 4.07334C17.1859 3.861 17.8316 4.16193 18.044 4.74581C18.2566 5.32968 17.9557 5.97515 17.3715 6.18778L8.38586 9.45815L2.42673 9.53212L1.84961 7.94643Z" fill="#28A487"/>
<path d="M1.94516 4.91797L0.887939 5.30272L1.84981 7.94562L3.96425 7.17612L1.94516 4.91797Z" fill="#28A487"/>
<path d="M8.69775 7.84761L10.8136 13.6619L12.3998 13.0848L11.8688 6.69336L8.69775 7.84761Z" fill="#28A487"/>
<path d="M16.1458 3.64253L14.8242 4.12305L15.0164 4.65168L16.338 4.17117L16.1458 3.64253Z" fill="white"/>
<path d="M13.5019 4.6027L12.9736 4.79492L13.1659 5.32324L13.6942 5.13102L13.5019 4.6027Z" fill="white"/>
<path d="M12.4448 4.98746L11.9165 5.17969L12.1087 5.708L12.637 5.51578L12.4448 4.98746Z" fill="white"/>
<path d="M11.3879 5.37223L10.8596 5.56445L11.0518 6.09277L11.5802 5.90055L11.3879 5.37223Z" fill="white"/>
<path d="M10.3308 5.757L9.80249 5.94922L9.99471 6.47754L10.523 6.28531L10.3308 5.757Z" fill="white"/>
<path d="M9.27368 6.14176L8.74536 6.33398L8.93758 6.8623L9.4659 6.67008L9.27368 6.14176Z" fill="white"/>
<path d="M8.21631 6.52653L7.68799 6.71875L7.88021 7.24707L8.40853 7.05484L8.21631 6.52653Z" fill="white"/>
<path d="M7.15918 6.91129L6.63086 7.10352L6.82308 7.63183L7.3514 7.43961L7.15918 6.91129Z" fill="white"/>
<path d="M6.1025 7.29769L5.57397 7.49023L5.76652 8.01876L6.29504 7.82622L6.1025 7.29769Z" fill="white"/>
<path d="M5.04513 7.68246L4.5166 7.875L4.70915 8.40352L5.23767 8.21098L5.04513 7.68246Z" fill="white"/>
<path d="M10.625 15.1875H5.84375C4.91309 15.1875 4.15625 14.4307 4.15625 13.5C4.15625 12.5693 4.91309 11.8125 5.84375 11.8125H7.8125V12.375H5.84375C5.22331 12.375 4.71875 12.8796 4.71875 13.5C4.71875 14.1204 5.22331 14.625 5.84375 14.625H10.625V15.1875Z" fill="#28A487"/>
<path d="M11.75 14.625H11.1875V15.1875H11.75V14.625Z" fill="#28A487"/>
<path d="M14.7031 17.1562H5.84375V16.5938H14.7031C15.091 16.5938 15.4062 16.2782 15.4062 15.8906C15.4062 15.5031 15.091 15.1875 14.7031 15.1875H12.3125V14.625H14.7031C15.4009 14.625 15.9688 15.1928 15.9688 15.8906C15.9688 16.5884 15.4009 17.1562 14.7031 17.1562Z" fill="#28A487"/>
<path d="M5.28125 16.5938H2.46875V17.1562H5.28125V16.5938Z" fill="#28A487"/>
<path d="M1.90625 17.7188C2.37224 17.7188 2.75 17.341 2.75 16.875C2.75 16.409 2.37224 16.0312 1.90625 16.0312C1.44026 16.0312 1.0625 16.409 1.0625 16.875C1.0625 17.341 1.44026 17.7188 1.90625 17.7188Z" fill="#28A487"/>
<path d="M8.375 12.9375C8.84099 12.9375 9.21875 12.5597 9.21875 12.0938C9.21875 11.6278 8.84099 11.25 8.375 11.25C7.90901 11.25 7.53125 11.6278 7.53125 12.0938C7.53125 12.5597 7.90901 12.9375 8.375 12.9375Z" fill="#28A487"/>
</g>
<defs>
<clipPath id="clip0_6544_314701">
<rect width="18" height="18" fill="white" transform="translate(0.5)"/>
</clipPath>
</defs>
</svg>
