<svg width="19" height="18" viewBox="0 0 19 18" fill="none" xmlns="http://www.w3.org/2000/svg">
<g clip-path="url(#clip0_6544_314725)">
<path d="M17.1871 2.61991C16.2911 1.60801 15.0527 1.05078 13.7 1.05078C12.6374 1.05078 11.6434 1.48317 10.8254 2.30115C10.2797 2.84688 9.82941 3.54076 9.50004 4.33779C9.17059 3.54076 8.72038 2.84691 8.17468 2.30115C7.3567 1.48317 6.36266 1.05078 5.30006 1.05078C3.94735 1.05078 2.70897 1.60804 1.81298 2.61995C0.978547 3.56217 0.5 4.8491 0.5 6.15076C0.5 7.71373 0.972922 9.25629 1.90558 10.7358C2.64418 11.9073 3.67137 13.0415 4.95873 14.1069C7.14003 15.9121 9.28695 16.884 9.37727 16.9245C9.45472 16.9592 9.54528 16.9592 9.62269 16.9245C9.71305 16.884 11.8599 15.9121 14.0412 14.1069C15.3286 13.0415 16.3558 11.9073 17.0944 10.7358C18.0271 9.25629 18.5 7.71373 18.5 6.15076C18.5 4.8491 18.0215 3.56217 17.1871 2.61991Z" fill="#28A487"/>
<path d="M6.15872 14.1068C4.87136 13.0415 3.84417 11.9073 3.10557 10.7357C2.17291 9.25625 1.69999 7.71366 1.69999 6.15072C1.69999 4.84906 2.17854 3.56213 3.0129 2.61987C3.76665 1.76864 4.7628 1.23925 5.86541 1.09258C5.67957 1.06495 5.49089 1.05078 5.30002 1.05078C3.94732 1.05078 2.70894 1.60804 1.81295 2.61995C0.978547 3.56213 0.5 4.84906 0.5 6.15072C0.5 7.7137 0.972922 9.25625 1.90558 10.7357C2.64418 11.9073 3.67138 13.0415 4.95873 14.1068C7.14003 15.912 9.28695 16.884 9.37727 16.9245C9.45472 16.9592 9.54528 16.9592 9.6227 16.9245C9.64692 16.9136 9.81908 16.8357 10.1 16.6929C9.33315 16.3029 7.75523 15.4281 6.15872 14.1068Z" fill="#28A487"/>
<path d="M3.50049 9.119H5.80724L7.17874 7.311L8.48799 10.6775L9.92199 6.75L11.2622 11.0515L12.7897 9.119H16.0005" stroke="white" stroke-width="0.8" stroke-linecap="round" stroke-linejoin="round"/>
</g>
<defs>
<clipPath id="clip0_6544_314725">
<rect width="18" height="18" fill="white" transform="translate(0.5)"/>
</clipPath>
</defs>
</svg>
