<svg width="14" height="14" viewBox="0 0 14 14" fill="none" xmlns="http://www.w3.org/2000/svg">
<path d="M6.44585 8.72214L5.36669 9.8013C5.13919 10.0288 4.77752 10.0288 4.54419 9.80713C4.48002 9.74297 4.41585 9.68464 4.35169 9.62047C3.75085 9.0138 3.20835 8.37797 2.72419 7.71297C2.24585 7.04797 1.86085 6.38297 1.58085 5.7238C1.30669 5.0588 1.16669 4.42297 1.16669 3.8163C1.16669 3.41964 1.23669 3.04047 1.37669 2.69047C1.51669 2.33464 1.73835 2.00797 2.04752 1.7163C2.42085 1.3488 2.82919 1.16797 3.26085 1.16797C3.42419 1.16797 3.58752 1.20297 3.73335 1.27297C3.88502 1.34297 4.01919 1.44797 4.12419 1.59964L5.47752 3.50714C5.58252 3.65297 5.65835 3.78714 5.71085 3.91547C5.76335 4.03797 5.79252 4.16047 5.79252 4.2713C5.79252 4.4113 5.75169 4.5513 5.67002 4.68547C5.59419 4.81964 5.48335 4.95964 5.34335 5.09964L4.90002 5.56047C4.83585 5.62464 4.80669 5.70047 4.80669 5.7938C4.80669 5.84047 4.81252 5.8813 4.82419 5.92797C4.84169 5.97464 4.85919 6.00963 4.87085 6.04463C4.97585 6.23713 5.15669 6.48797 5.41335 6.7913C5.67585 7.09464 5.95585 7.4038 6.25919 7.71297C6.31752 7.7713 6.38169 7.82964 6.44002 7.88797C6.67335 8.11547 6.67919 8.4888 6.44585 8.72214Z" fill="#28A487"/>
<path d="M12.8158 10.6939C12.8158 10.8572 12.7866 11.0264 12.7283 11.1897C12.7108 11.2364 12.6933 11.2831 12.67 11.3297C12.5708 11.5397 12.4425 11.7381 12.2733 11.9247C11.9875 12.2397 11.6725 12.4672 11.3166 12.6131C11.3108 12.6131 11.305 12.6189 11.2991 12.6189C10.955 12.7589 10.5816 12.8347 10.1791 12.8347C9.58414 12.8347 8.94831 12.6947 8.27748 12.4089C7.60664 12.1231 6.93581 11.7381 6.27081 11.2539C6.04331 11.0847 5.81581 10.9156 5.59998 10.7347L7.50748 8.82724C7.67081 8.94974 7.81664 9.04307 7.93914 9.10724C7.96831 9.11891 8.00331 9.13641 8.04414 9.15391C8.09081 9.17141 8.13748 9.17724 8.18998 9.17724C8.28914 9.17724 8.36498 9.14224 8.42914 9.07807L8.87248 8.64057C9.01831 8.49474 9.15831 8.38391 9.29248 8.31391C9.42664 8.23224 9.56081 8.19141 9.70664 8.19141C9.81747 8.19141 9.93414 8.21474 10.0625 8.26724C10.1908 8.31974 10.325 8.39557 10.4708 8.49474L12.4016 9.86557C12.5533 9.97057 12.6583 10.0931 12.7225 10.2389C12.7808 10.3847 12.8158 10.5306 12.8158 10.6939Z" fill="#28A487"/>
</svg>
