<svg width="24" height="24" viewBox="0 0 24 24" fill="none" xmlns="http://www.w3.org/2000/svg">
<path d="M12.0001 0.75C6.5626 0.75 3.6001 4.125 3.6001 8.5875V22.5H20.4001V8.5875C20.4001 1.95 15.8626 2.0625 15.8626 2.0625C15.8626 2.0625 15.5251 0.75 12.0001 0.75Z" fill="#28A487"/>
<path d="M15.75 18.4125V15.75H8.25V18.4125C3.5625 18.525 2.625 19.3125 2.625 23.25H21.375C21.375 19.3125 20.4375 18.525 15.75 18.4125Z" fill="#28A487"/>
<path d="M5.925 12.3367C5.925 12.3367 4.6875 12.0367 4.6875 10.1992C4.6875 8.77422 5.625 8.51172 5.625 8.51172C8.925 8.51172 14.325 4.19922 14.325 4.19922C14.325 4.19922 16.35 7.98672 18.3375 8.51172C18.3375 8.51172 19.275 8.69922 19.275 10.1992C19.275 11.9992 18 12.3367 18 12.3367C18 15.0742 14.25 18.3742 12 18.3742C9.7125 18.3742 5.925 15.0742 5.925 12.3367Z" fill="#EAFAF6"/>
</svg>
