<svg width="19" height="18" viewBox="0 0 19 18" fill="none" xmlns="http://www.w3.org/2000/svg">
<g clip-path="url(#clip0_6544_314733)">
<path d="M13.4717 7.96808H1.73209L1.73169 7.96768C1.76487 7.93775 1.79604 7.90581 1.82553 7.87259C1.95259 7.72875 2.04683 7.55662 2.09888 7.36729L2.32471 6.54806C2.66898 5.29645 3.80706 4.42969 5.1046 4.42969H9.97337C10.9459 4.42969 11.8414 4.86655 12.4401 5.58169C12.6942 5.88457 12.8946 6.23781 13.025 6.6292L13.3369 7.56359L13.3373 7.56439L13.4717 7.96808Z" fill="#F1F2F4"/>
<path d="M8.91877 7.8437H6.31226L8.83519 4.30527L8.8438 4.29297L8.8442 4.30527L8.91877 7.8437Z" fill="white"/>
<path d="M13.345 7.84342H10.7385L12.4397 5.45703C12.6938 5.75991 12.8942 6.11315 13.0246 6.50454L13.3365 7.43893L13.3369 7.43973L13.345 7.84342Z" fill="white"/>
<path d="M5.10435 4.85352V7.84361H2.97241L5.10435 4.85352Z" fill="white"/>
<path d="M14.0026 9.07685L13.7735 7.79166C13.7711 7.77732 13.7674 7.76257 13.7625 7.74863L13.3158 6.40975C12.8358 4.96841 11.492 4 9.97277 4H5.104C4.81222 4 4.52737 4.04015 4.25567 4.11556C3.1938 4.41022 2.32988 5.24504 2.02784 6.34419L1.80201 7.16343C1.76307 7.30439 1.42372 7.85605 1.42456 7.86667L1.46351 9.00477L1.46679 9.10065C1.47252 9.26581 1.60776 9.39695 1.77292 9.39736L2.91881 9.40144H2.91921L13.699 9.43835H13.7002C13.7908 9.43835 13.8773 9.3982 13.9355 9.32892C13.9941 9.2588 14.0186 9.16661 14.0026 9.07685ZM3.07455 8.78672L2.07131 8.78343L2.04342 7.96708C2.04711 7.96299 2.0508 7.95887 2.05488 7.95438C2.05488 7.95438 2.05529 7.95398 2.05529 7.95357C2.21388 7.77407 2.33112 7.55726 2.39463 7.32655L2.62046 6.50731C2.8311 5.74217 3.37824 5.13562 4.07495 4.8303C4.39258 4.69138 4.74174 4.61473 5.10404 4.61473H9.97281C11.2273 4.61473 12.3363 5.41429 12.733 6.604L13.1724 7.922L13.333 8.82238L3.07455 8.78672Z" fill="#28A487"/>
<path d="M17.6767 9.61082L17.323 11.5936L17.1492 12.5669H1.04538C0.783086 12.5669 0.570801 12.3546 0.570801 12.0923V9.26494C0.570801 8.74939 0.881454 8.28464 1.35767 8.08754C1.49703 8.03016 1.62285 7.94862 1.73144 7.84901L1.73184 7.84941H4.80023V4.32617H5.41497V7.84941H8.53949V4.39172H9.15423V7.84941H13.4714L16.4824 8.07235C17.2578 8.12973 17.8136 8.84527 17.6767 9.61082Z" fill="#28A487"/>
<path d="M1.75932 12.089V9.26164C1.75932 8.74608 2.06997 8.28133 2.54619 8.08423C2.68533 8.02692 2.81093 7.94549 2.91948 7.84611H1.73184L1.73144 7.8457C1.62285 7.94527 1.49699 8.02685 1.35767 8.08423C0.881454 8.28136 0.570801 8.74608 0.570801 9.26164V12.089C0.570801 12.3511 0.783269 12.5636 1.04538 12.5636H2.2339C1.97175 12.5635 1.75932 12.3511 1.75932 12.089Z" fill="#28A487"/>
<path d="M16.6352 10.6468C16.6172 10.6468 16.5991 10.6451 16.5808 10.6419C16.4137 10.6121 16.3024 10.4524 16.3322 10.2853L16.4917 9.39208C16.5215 9.22495 16.6811 9.11366 16.8483 9.14351C17.0155 9.17334 17.1267 9.33302 17.0969 9.50015L16.9374 10.3933C16.9108 10.5421 16.7813 10.6468 16.6352 10.6468Z" fill="white"/>
<path d="M17.323 11.5879L17.1492 12.5612H1.04538C0.783086 12.5612 0.570801 12.3489 0.570801 12.0867V11.5879H17.323Z" fill="#28A487"/>
<path d="M17.5646 11.8862H15.9421C15.7724 11.8862 15.6348 11.7486 15.6348 11.5788C15.6348 11.4091 15.7724 11.2715 15.9421 11.2715H17.5646C17.7344 11.2715 17.872 11.4091 17.872 11.5788C17.872 11.7486 17.7344 11.8862 17.5646 11.8862Z" fill="#FCFCFD"/>
<path d="M1.95032 11.8862H0.307368C0.137606 11.8862 0 11.7486 0 11.5788C0 11.4091 0.137606 11.2715 0.307368 11.2715H1.95032C2.12008 11.2715 2.25769 11.4091 2.25769 11.5788C2.25769 11.7486 2.12008 11.8862 1.95032 11.8862Z" fill="#FCFCFD"/>
<path d="M15.3806 10.1148C15.5391 10.1148 15.6675 9.98635 15.6675 9.8279C15.6675 9.66946 15.5391 9.54102 15.3806 9.54102C15.2222 9.54102 15.0938 9.66946 15.0938 9.8279C15.0938 9.98635 15.2222 10.1148 15.3806 10.1148Z" fill="white"/>
<path d="M16.2103 12.3885C16.213 12.3468 16.2144 12.3047 16.2144 12.2626C16.2144 11.1931 15.3474 10.3262 14.2779 10.3262C13.2081 10.3262 12.3411 11.1931 12.3411 12.2626C12.3411 12.3047 12.3424 12.3468 12.3451 12.3885C12.4099 13.3995 13.2502 14.1994 14.2779 14.1994C15.3053 14.1994 16.1456 13.3995 16.2103 12.3885Z" fill="#28A487"/>
<path d="M14.2776 13.0596C13.8395 13.0596 13.4832 12.7032 13.4832 12.2652C13.4832 11.8271 13.8395 11.4707 14.2776 11.4707C14.7157 11.4707 15.072 11.8271 15.072 12.2652C15.072 12.7032 14.7157 13.0596 14.2776 13.0596Z" fill="#FCFCFD"/>
<path d="M14.2777 13.2185C13.7522 13.2185 13.3247 12.791 13.3247 12.2655C13.3247 11.74 13.7522 11.3125 14.2777 11.3125C14.8032 11.3125 15.2307 11.74 15.2307 12.2655C15.2307 12.791 14.8032 13.2185 14.2777 13.2185ZM14.2777 11.6296C13.9271 11.6296 13.6418 11.9149 13.6418 12.2655C13.6418 12.6162 13.9271 12.9014 14.2777 12.9014C14.6283 12.9014 14.9136 12.6162 14.9136 12.2655C14.9136 11.9148 14.6283 11.6296 14.2777 11.6296Z" fill="#28A487"/>
<path d="M5.55479 12.3885C5.55749 12.3468 5.55884 12.3047 5.55884 12.2626C5.55884 11.1931 4.69185 10.3262 3.62243 10.3262C2.55254 10.3262 1.68555 11.1931 1.68555 12.2626C1.68555 12.3047 1.6869 12.3468 1.6896 12.3885C1.75439 13.3995 2.59462 14.1994 3.6224 14.1994C4.64973 14.1994 5.49 13.3995 5.55479 12.3885Z" fill="#28A487"/>
<path d="M3.6221 13.0596C3.18399 13.0596 2.82764 12.7032 2.82764 12.2652C2.82764 11.8271 3.18402 11.4707 3.6221 11.4707C4.06014 11.4707 4.41653 11.8271 4.41653 12.2652C4.41653 12.7032 4.06014 13.0596 3.6221 13.0596Z" fill="#FCFCFD"/>
<path d="M3.62221 13.2185C3.09672 13.2185 2.66919 12.791 2.66919 12.2655C2.66919 11.74 3.09672 11.3125 3.62221 11.3125C4.1477 11.3125 4.57516 11.74 4.57516 12.2655C4.57516 12.791 4.14767 13.2185 3.62221 13.2185ZM3.62221 11.6296C3.27155 11.6296 2.98627 11.9149 2.98627 12.2655C2.98627 12.6162 3.27155 12.9014 3.62221 12.9014C3.97283 12.9014 4.25812 12.6162 4.25812 12.2655C4.25812 11.9148 3.97283 11.6296 3.62221 11.6296Z" fill="#28A487"/>
<path d="M4.25597 4.11133L4.07522 4.82607C3.37851 5.13138 2.83141 5.73794 2.62073 6.50308L2.3949 7.32231C2.33139 7.55303 2.21415 7.76984 2.05556 7.94934C2.05556 7.94974 2.05516 7.95015 2.05516 7.95015C2.05107 7.95467 2.04738 7.95876 2.04369 7.96285L1.46378 9.00053L0.802979 8.52363C0.802176 8.51297 1.76334 7.46696 1.80228 7.1592L2.02811 6.33996C2.33015 5.24081 3.19407 4.40599 4.25597 4.11133Z" fill="#28A487"/>
</g>
<defs>
<clipPath id="clip0_6544_314733">
<rect width="18" height="18" fill="white" transform="translate(0.5)"/>
</clipPath>
</defs>
</svg>
