<svg width="25" height="24" viewBox="0 0 25 24" fill="none" xmlns="http://www.w3.org/2000/svg">
<path d="M12.5 16.5758V23.2508H1.25V14.4439C1.97 13.5439 3.13438 12.942 4.41125 12.6383C5.18938 12.4545 6.0125 12.3477 6.86 12.3477C7.0925 12.3477 7.32687 12.3552 7.56312 12.3739C7.89125 12.3964 8.21937 12.4358 8.55125 12.492C10.7787 12.8764 12.5 14.2733 12.5 16.5758Z" fill="#28A487"/>
<path d="M6.77393 13.8971C6.0483 13.8971 5.46143 13.3102 5.46143 12.5846V11.3809H8.08643V12.5846C8.08643 13.3102 7.49768 13.8971 6.77393 13.8971Z" fill="#D6F5EE"/>
<path d="M1.25 18V23.25H2.75V18H1.25Z" fill="#EAFAF6"/>
<path d="M10.1524 6.51367H3.39301C2.66363 6.51367 2.06738 7.1493 2.06738 7.92555C2.06738 8.7018 2.66363 9.33742 3.39301 9.33742H10.1524C10.8818 9.33742 11.478 8.7018 11.478 7.92555C11.478 7.1493 10.8818 6.51367 10.1524 6.51367Z" fill="#28A487"/>
<path d="M6.77355 1.52148C4.62105 1.52148 2.62793 3.82398 2.62793 7.13523C2.62793 10.4296 4.68105 12.059 6.77355 12.059C8.86605 12.059 10.9192 10.4296 10.9192 7.13523C10.9192 3.82398 8.92605 1.52148 6.77355 1.52148Z" fill="#EAFAF6"/>
<path d="M6.78892 0.787109H6.78704H6.78517C1.20892 0.817109 2.35079 7.18648 2.35079 7.18648C2.35079 7.18648 2.60017 7.84273 2.71454 8.13336C2.73142 8.17461 2.79142 8.17086 2.80079 8.12586C2.92079 7.59336 3.34829 5.70523 3.56392 5.13148C3.69142 4.79398 4.04204 4.59711 4.39829 4.66086C4.94392 4.76023 5.81579 4.88211 6.77579 4.88211H6.79829C7.75829 4.88211 8.62829 4.76023 9.17579 4.66086C9.53204 4.59711 9.88267 4.79398 10.0102 5.13148C10.2258 5.70336 10.6514 7.58023 10.7714 8.12023C10.7808 8.16523 10.8427 8.16898 10.8595 8.12586L11.2252 7.18461C11.2233 7.18648 12.3652 0.817109 6.78892 0.787109Z" fill="#28A487"/>
<path d="M11.2233 7.18648C11.2233 7.18648 12.3652 0.817109 6.78895 0.787109H6.78708H6.7852C6.69895 0.787109 6.6127 0.788984 6.5302 0.792734C6.36333 0.800234 6.20395 0.813359 6.0502 0.830234H6.04645C6.0352 0.832109 6.02583 0.833984 6.01458 0.833984C1.3177 1.42648 2.35083 7.18648 2.35083 7.18648L2.71645 8.12961C2.73333 8.17086 2.79333 8.16711 2.8027 8.12398C2.9227 7.58586 3.3502 5.70523 3.56583 5.13336C3.69333 4.79586 4.04395 4.59898 4.4002 4.66273C4.94583 4.76211 5.8177 4.88398 6.7777 4.88398H6.8002C7.7602 4.88398 8.6302 4.76211 9.1777 4.66273C9.53395 4.59898 9.88458 4.79586 10.0121 5.13336C10.2277 5.70898 10.6571 7.59898 10.7752 8.12961C10.7846 8.17273 10.8446 8.17836 10.8615 8.13523C10.9721 7.84461 11.2233 7.18648 11.2233 7.18648Z" fill="#28A487"/>
<path d="M18.0783 0.787109C13.0139 0.787109 13.0552 5.46898 13.0552 5.54398C13.0552 8.57586 13.2877 12.8602 14.5008 14.5459C14.9827 15.2134 15.9127 15.2509 15.9127 15.2509L18.0089 15.2471L20.1052 15.2509C20.1052 15.2509 21.0352 15.2134 21.5171 14.5459C22.7302 12.8602 22.9627 8.57586 22.9627 5.54398C22.9608 5.46898 23.1427 0.787109 18.0783 0.787109Z" fill="#28A487"/>
<path d="M18.0783 0.787109C13.0139 0.787109 13.0552 5.46898 13.0552 5.54398C13.0552 8.57586 13.2877 12.8602 14.5008 14.5459C14.9827 15.2134 15.9127 15.2509 15.9127 15.2509L18.0089 15.2471L20.1052 15.2509C20.1052 15.2509 21.0352 15.2134 21.5171 14.5459C22.7302 12.8602 22.9627 8.57586 22.9627 5.54398C22.9608 5.46898 23.1427 0.787109 18.0783 0.787109Z" fill="#28A487"/>
<path d="M23.75 14.4439V23.2508H12.5V16.5758C12.5 14.2902 14.1969 12.897 16.4 12.5014C16.4169 12.4977 16.4319 12.4939 16.4487 12.492C16.5425 12.4752 16.6381 12.462 16.7319 12.4489C16.8238 12.4358 16.9156 12.4227 17.0075 12.4133C17.0994 12.402 17.1913 12.3927 17.2831 12.3852C17.2888 12.3852 17.2944 12.3852 17.3 12.3833L17.5625 12.3664C17.7556 12.3533 17.9488 12.3477 18.1381 12.3477C18.9875 12.3477 19.8106 12.4545 20.5887 12.6383C21.8656 12.942 23.03 13.5439 23.75 14.4439Z" fill="#28A487"/>
<path d="M18.0088 13.9049C17.2832 13.9049 16.6963 13.318 16.6963 12.5924V11.3887H19.3213V12.5924C19.3213 13.318 18.7344 13.9049 18.0088 13.9049Z" fill="#D6F5EE"/>
<path d="M22.25 18V23.25H23.75V18H22.25Z" fill="#EAFAF6"/>
<path d="M17.977 2.22266C15.847 2.22266 13.8745 3.80703 13.8745 7.16516C13.8745 9.86328 15.5451 11.4589 17.0001 11.9727C17.347 12.0945 17.6808 12.1564 17.9789 12.1564C18.2733 12.1564 18.607 12.0945 18.9501 11.9745C20.4051 11.4627 22.0814 9.86516 22.0814 7.16516C22.0795 3.80516 20.107 2.22266 17.977 2.22266Z" fill="#EAFAF6"/>
<path d="M18.0783 0.787109C13.0139 0.787109 13.0552 5.46898 13.0552 5.54398C13.0552 6.50211 13.0777 7.58398 13.1489 8.67148L14.6039 11.5834C14.6039 11.5834 14.3527 9.30149 14.3246 7.75461C14.3208 7.55586 14.2871 7.05711 14.3827 6.62211C14.5308 6.25461 14.7258 5.96961 14.9771 5.91336C17.7371 5.29273 19.3008 3.82836 19.3008 3.82836C19.7077 4.71523 20.9771 5.58148 21.4346 5.90961C21.5639 6.00336 21.6614 6.30523 21.7346 6.68023C21.7739 7.06836 21.7589 7.49398 21.7552 7.74336L21.3783 11.5759L22.8689 8.67336C22.8689 8.66773 22.8708 8.66023 22.8727 8.65461C22.9421 7.57461 22.9646 6.49836 22.9646 5.54586C22.9608 5.46899 23.1427 0.787109 18.0783 0.787109Z" fill="#28A487"/>
<path d="M18.0783 0.787109C13.0139 0.787109 13.0552 5.46898 13.0552 5.54398C13.0552 6.50211 13.0777 7.58398 13.1489 8.67148L13.9777 8.66961C13.9702 8.30961 14.2233 6.08023 14.9752 5.91148C17.7352 5.29086 19.2989 3.82648 19.2989 3.82648C19.7058 4.71336 20.9752 5.57961 21.4327 5.90773C21.8077 6.17773 21.9221 8.19898 21.9146 8.67148H22.8652C22.8652 8.66586 22.8671 8.65836 22.8689 8.65273C22.9383 7.57273 22.9608 6.49648 22.9608 5.54398C22.9608 5.46898 23.1427 0.787109 18.0783 0.787109Z" fill="#28A487"/>
<path opacity="0.4" d="M17.5625 12.3652V23.2496H7.4375V12.3709C7.47875 12.3709 7.52187 12.3727 7.56312 12.3727C7.89125 12.3952 8.21937 12.4346 8.55125 12.4909C10.7787 12.8752 12.5 14.2721 12.5 16.5746C12.5 14.289 14.1969 12.8959 16.4 12.5002C16.4188 12.4965 16.4375 12.4946 16.4562 12.4909C16.5481 12.4759 16.64 12.4609 16.7319 12.4477C16.8237 12.4346 16.9156 12.4215 17.0075 12.4121C17.0994 12.4009 17.1913 12.3915 17.2831 12.384C17.2888 12.384 17.2944 12.384 17.3 12.3821L17.5625 12.3652Z" fill="#28A487"/>
<path d="M11.9226 22.872C11.9226 21.027 9.57695 20.4082 8.75945 20.4082H7.0007C6.18508 20.4082 3.8357 21.027 3.8357 22.872C3.8357 22.872 3.83383 23.0201 3.83008 23.2507H11.9282C11.9245 23.0595 11.9226 22.872 11.9226 22.872Z" fill="#D6F5EE"/>
<path d="M7.87836 21.8053C7.39086 21.8053 7.02148 21.4453 7.02148 21.0009V20.5547H8.80836V21.0009C8.81023 21.4453 8.36773 21.8053 7.87836 21.8053Z" fill="#D6F5EE"/>
<path d="M4.4036 20.8262L4.51985 20.2787L3.50922 20.5318C3.50922 20.5318 3.43797 19.5568 4.30797 18.9943C5.26235 18.3775 6.35922 19.0356 6.35922 19.0356C6.35922 19.0356 6.25047 19.7725 5.59797 20.4043C5.15735 20.83 4.4036 20.8262 4.4036 20.8262Z" fill="#28A487"/>
<path d="M11.3599 20.8262L11.2437 20.2787L12.2543 20.5318C12.2543 20.5318 12.3255 19.5568 11.4555 18.9943C10.5012 18.3775 9.4043 19.0356 9.4043 19.0356C9.4043 19.0356 9.51305 19.7725 10.1655 20.4043C10.6062 20.83 11.3599 20.8262 11.3599 20.8262Z" fill="#28A487"/>
<path d="M11.3599 20.8262L11.2437 20.2787L12.2543 20.5318C12.2543 20.5318 12.3255 19.5568 11.4555 18.9943C10.5012 18.3775 9.4043 19.0356 9.4043 19.0356C9.4043 19.0356 9.51305 19.7725 10.1655 20.4043C10.6062 20.83 11.3599 20.8262 11.3599 20.8262Z" fill="#28A487"/>
<path d="M4.37772 20.8262L4.49397 20.2787L3.48334 20.5318C3.48334 20.5318 3.41209 19.5568 4.28209 18.9943C5.23647 18.3775 6.33335 19.0356 6.33335 19.0356C6.33335 19.0356 6.22459 19.7725 5.57209 20.4043C5.13147 20.83 4.37772 20.8262 4.37772 20.8262Z" fill="#28A487"/>
<path d="M10.6829 16.7266H5.15357C4.55732 16.7266 4.06982 17.1953 4.06982 17.7691C4.06982 18.3428 4.55732 18.8116 5.15357 18.8116H10.6811C11.2773 18.8116 11.6917 18.3428 11.6917 17.7691C11.6917 17.1953 11.2792 16.7266 10.6829 16.7266Z" fill="#28A487"/>
<path d="M7.87982 12.4258C6.13045 12.4258 4.58545 14.2633 4.58545 16.907C4.58545 19.5358 6.43607 20.837 7.87982 20.837C9.32357 20.837 11.1742 19.5377 11.1742 16.907C11.1742 14.2614 9.62732 12.4258 7.87982 12.4258Z" fill="#EAFAF6"/>
<path d="M10.7995 13.1086C10.3626 12.653 9.94448 12.4861 9.90323 12.4805C9.39511 12.248 8.74073 12.0586 7.89323 12.0586C4.16573 12.0586 3.91261 15.0961 4.06261 16.433C4.19386 17.6123 4.88198 17.903 4.88198 17.903L4.76948 16.5698C4.76948 16.5698 6.10261 16.1611 6.83948 15.6642C7.56511 15.1748 7.86698 14.8411 7.86698 14.8411C7.86698 14.8411 8.09198 15.0811 8.88698 15.6548C9.71198 16.2511 10.957 16.5773 10.957 16.5773L10.8614 17.903C10.8614 17.903 11.5832 17.6142 11.6864 16.433C11.8176 14.9536 11.6414 14.0686 10.7995 13.1086Z" fill="#28A487"/>
<path d="M10.7995 13.1086C10.3626 12.653 9.94448 12.4861 9.90323 12.4805C9.39511 12.248 8.74073 12.0586 7.89323 12.0586C4.16573 12.0586 3.91261 15.0961 4.06261 16.433C4.19386 17.6123 4.88198 17.903 4.88198 17.903L4.76948 16.5698C4.76948 16.5698 6.10261 16.1611 6.83948 15.6642C7.56511 15.1748 7.86698 14.8411 7.86698 14.8411C7.86698 14.8411 8.09198 15.0811 8.88698 15.6548C9.71198 16.2511 10.957 16.5773 10.957 16.5773L10.8614 17.903C10.8614 17.903 11.5832 17.6142 11.6864 16.433C11.8176 14.9536 11.6414 14.0686 10.7995 13.1086Z" fill="#28A487"/>
<path d="M21.1682 22.868C21.1682 21.023 18.8226 20.4043 18.0051 20.4043H16.2463C15.4307 20.4043 13.0813 21.023 13.0813 22.868C13.0813 22.868 13.0794 23.0162 13.0757 23.2468H21.1719L21.1682 22.868Z" fill="#D6F5EE"/>
<path d="M17.1255 21.8044C16.8922 21.8044 16.6686 21.7117 16.5037 21.5468C16.3387 21.3819 16.2461 21.1582 16.2461 20.925V20.25H18.0067V20.925C18.006 21.1583 17.9128 21.3818 17.7477 21.5467C17.5825 21.7115 17.3588 21.8041 17.1255 21.8044Z" fill="#D6F5EE"/>
<path d="M19.8877 16.7227H14.3621C13.7658 16.7227 13.2783 17.1914 13.2783 17.7652C13.2783 18.3389 13.7658 18.8077 14.3621 18.8077H19.8877C20.4839 18.8077 20.9714 18.3389 20.9714 17.7652C20.9714 17.1914 20.4839 16.7227 19.8877 16.7227Z" fill="#28A487"/>
<path d="M17.1258 12.4219C15.3764 12.4219 13.7583 14.2594 13.7583 16.9013C13.7583 19.53 15.4271 20.8313 17.1258 20.8313C18.8246 20.8313 20.4933 19.5319 20.4933 16.9013C20.4933 14.2594 18.8733 12.4219 17.1258 12.4219Z" fill="#EAFAF6"/>
<path d="M17.1443 12.0273C13.4075 12.0273 13.1468 15.0798 13.2987 16.4148C13.4318 17.5942 14.0468 17.8848 14.0468 17.8848C14.0468 17.8848 13.9268 16.8555 14.1218 16.1092C14.2775 15.5167 14.6468 15.078 14.6468 15.078C14.6468 15.078 15.3218 15.663 16.5781 16.0436C17.1837 16.2273 17.96 16.1355 17.96 16.1355L17.525 15.3667C17.525 15.3667 18.2375 15.8898 18.68 15.9892C19.2481 16.1167 19.6643 16.0623 19.6643 16.0623L19.4562 15.2505C19.4562 15.2505 19.8181 15.4867 20.0881 16.1336C20.3581 16.7805 20.1912 17.8848 20.1912 17.8848C20.1912 17.8848 20.84 17.5961 20.945 16.4148C21.0762 14.9336 20.8662 12.0273 17.1443 12.0273Z" fill="#28A487"/>
<path d="M17.1443 12.0273C13.4075 12.0273 13.1468 15.0798 13.2987 16.4148C13.4318 17.5942 14.0468 17.8848 14.0468 17.8848C14.0468 17.8848 13.9268 16.8555 14.1218 16.1092C14.2775 15.5167 14.6468 15.078 14.6468 15.078C14.6468 15.078 15.3218 15.663 16.5781 16.0436C17.1837 16.2273 17.96 16.1355 17.96 16.1355L17.525 15.3667C17.525 15.3667 18.2375 15.8898 18.68 15.9892C19.2481 16.1167 19.6643 16.0623 19.6643 16.0623L19.4562 15.2505C19.4562 15.2505 19.8181 15.4867 20.0881 16.1336C20.3581 16.7805 20.1912 17.8848 20.1912 17.8848C20.1912 17.8848 20.84 17.5961 20.945 16.4148C21.0762 14.9336 20.8662 12.0273 17.1443 12.0273Z" fill="#28A487"/>
</svg>
