<svg width="14" height="14" viewBox="0 0 14 14" fill="none" xmlns="http://www.w3.org/2000/svg">
<path d="M9.91667 2.04297H4.08334C2.33334 2.04297 1.16667 2.91797 1.16667 4.95964V9.04297C1.16667 11.0846 2.33334 11.9596 4.08334 11.9596H9.91667C11.6667 11.9596 12.8333 11.0846 12.8333 9.04297V4.95964C12.8333 2.91797 11.6667 2.04297 9.91667 2.04297ZM10.1908 5.59547L8.36501 7.0538C7.98 7.36297 7.49001 7.51464 7 7.51464C6.51 7.51464 6.01417 7.36297 5.635 7.0538L3.80917 5.59547C3.62251 5.4438 3.59334 5.1638 3.73917 4.97714C3.89084 4.79047 4.165 4.75547 4.35167 4.90714L6.17751 6.36547C6.62084 6.7213 7.37334 6.7213 7.81667 6.36547L9.64251 4.90714C9.82917 4.75547 10.1092 4.78464 10.255 4.97714C10.4067 5.1638 10.3775 5.4438 10.1908 5.59547Z" fill="#28A487"/>
</svg>
