<svg width="24" height="24" viewBox="0 0 24 24" fill="none" xmlns="http://www.w3.org/2000/svg">
<g clip-path="url(#clip0_1673_18039)">
<path d="M14.702 0.701172C12.7257 0.701172 12.0001 2.71867 12.0001 2.71867C12.0001 2.71867 11.2838 0.701172 9.29445 0.701172C7.80008 0.701172 6.09383 1.88617 6.72383 4.57867C7.35383 7.27117 12.0038 10.6274 12.0038 10.6274C12.0038 10.6274 16.6388 7.27117 17.2688 4.57867C17.8988 1.88617 16.3163 0.701172 14.702 0.701172Z" fill="#28A487"/>
<path d="M8.98891 0.901797C10.5395 0.901797 11.3102 2.56867 11.5595 3.24555C11.5952 3.34117 11.7302 3.34492 11.7695 3.25117L11.9964 2.72055C11.6758 1.69867 10.7964 0.701172 9.29453 0.701172C8.67203 0.701172 8.01578 0.907422 7.50391 1.34055C7.95391 1.04242 8.48453 0.901797 8.98891 0.901797Z" fill="#0A2922"/>
<path d="M14.702 0.701172C14.2239 0.701172 13.8208 0.839922 13.4814 1.04805C13.7195 0.956172 13.9839 0.901797 14.2745 0.901797C15.737 0.901797 17.0439 2.00992 16.4533 4.57305C15.947 6.77242 12.9845 9.44055 12.0808 10.4587C12.0227 10.5243 12.0039 10.6293 12.0039 10.6293C12.0039 10.6293 16.6389 7.27305 17.2689 4.58055C17.8989 1.88617 16.1964 0.701172 14.702 0.701172Z" fill="#0A2922"/>
<path d="M7.76252 2.13046C8.10002 1.70859 8.70564 1.35984 9.21752 1.76109C9.49502 1.97859 9.37314 2.42484 9.12564 2.61234C8.76377 2.88609 8.45064 3.05109 8.23127 3.48046C8.10002 3.73921 8.01939 4.02046 7.98002 4.30921C7.96502 4.42359 7.81502 4.44984 7.75877 4.35046C7.37627 3.67546 7.26939 2.74734 7.76252 2.13046Z" fill="#D6F5EE"/>
<path d="M13.1831 3.01781C13.0238 3.01781 12.9131 2.86406 12.9713 2.71593C13.0771 2.44334 13.2156 2.18458 13.3838 1.94531C13.6313 1.59843 14.1 1.39781 14.3981 1.60593C14.7038 1.82156 14.6644 2.24906 14.4488 2.45718C13.9894 2.90531 13.4119 3.01781 13.1831 3.01781Z" fill="#D6F5EE"/>
<path d="M1.01796 13.9916C1.02921 13.9429 1.94609 8.49035 6.79296 8.9141C9.61297 9.15973 11.5705 11.0741 11.593 13.9035C11.6005 14.901 11.6342 16.6241 11.5517 17.4079C11.2086 20.7041 10.1005 22.7385 9.95234 22.776C9.17234 22.9672 2.20109 23.4041 1.68546 22.3579C0.496714 19.9579 0.747964 15.6679 1.01796 13.9916Z" fill="#28A487"/>
<path d="M5.07738 20.8337H6.48738C8.11676 20.7099 10.5299 21.4412 11.0755 23.2505H0.489258C1.03488 21.443 3.44801 20.7099 5.07738 20.8337Z" fill="#28A487"/>
<path d="M5.73936 22.093C5.4012 22.093 5.0769 21.9587 4.83779 21.7196C4.59869 21.4805 4.46436 21.1562 4.46436 20.818V19.9668H7.01623V20.818C7.01544 21.1563 6.88059 21.4804 6.64125 21.7194C6.40191 21.9584 6.07759 22.0928 5.73936 22.093Z" fill="#D6F5EE"/>
<path d="M11.5911 13.9033C11.5686 11.0739 9.61108 9.16141 6.79108 8.91391C1.9442 8.49203 1.0292 13.9427 1.01795 13.9914C0.766704 15.557 0.530454 19.4045 1.46795 21.8608C2.46733 21.0658 3.95795 20.747 5.07733 20.8333H6.48733C7.70983 20.7395 9.37295 21.1277 10.3573 22.0914C10.7548 21.2308 11.3211 19.5995 11.548 17.4077C11.6323 16.6258 11.5986 14.9008 11.5911 13.9033Z" fill="url(#paint0_linear_1673_18039)"/>
<path d="M7.03243 10.4304C4.7543 10.151 2.4368 11.5854 1.9943 15.1779C1.63993 18.0635 3.2168 19.9892 4.70555 20.7298C5.05993 20.906 5.41055 21.0167 5.72743 21.056C6.04243 21.0954 6.40618 21.0729 6.79055 20.9885C8.4143 20.6323 10.4149 19.1435 10.7712 16.2542C11.2118 12.6617 9.31055 10.7098 7.03243 10.4304Z" fill="#EAFAF6"/>
<path d="M6.79094 8.91606C1.94407 8.49231 1.02907 13.9429 1.01782 13.9917C0.89219 14.7754 0.770315 16.1292 0.796565 17.5936L2.15407 17.6892C2.11282 16.9467 2.69407 14.1004 3.92032 14.0123C6.97094 13.7892 8.36594 12.4017 8.36594 12.4017C8.68469 13.4067 9.93344 14.5017 10.3797 14.9161C10.7453 15.2554 10.5372 17.1079 10.4678 17.6161H11.5291L11.5516 17.4117C11.6322 16.6279 11.6003 14.9048 11.5928 13.9073C11.5684 11.0742 9.61094 9.16169 6.79094 8.91606Z" fill="#28A487"/>
<path d="M18.9375 20.8336H17.5275C15.8963 20.7099 13.4831 21.443 12.9375 23.2505H23.5237C22.9819 21.443 20.5669 20.7099 18.9375 20.8336Z" fill="#28A487"/>
<path d="M18.1876 22.093C17.8494 22.093 17.5251 21.9587 17.286 21.7196C17.0469 21.4805 16.9126 21.1562 16.9126 20.818V19.9668H19.4645V20.818C19.4637 21.1563 19.3288 21.4804 19.0895 21.7194C18.8502 21.9584 18.5258 22.0928 18.1876 22.093Z" fill="#D6F5EE"/>
<path d="M21.0003 14.9374L20.0291 15.0574L14.7735 15.7024L13.8022 15.8224C13.026 15.918 12.4747 16.6718 12.576 17.4987C12.6772 18.3255 13.3953 18.9237 14.1716 18.828L15.1428 18.708L20.3985 18.063L21.3697 17.943C22.146 17.8474 22.6972 17.0937 22.596 16.2668C22.4947 15.4418 21.7766 14.8437 21.0003 14.9374Z" fill="#28A487"/>
<path d="M16.7496 10.0633C14.4583 10.3445 12.6358 13.0558 13.0689 16.5827C13.5002 20.0908 15.8983 21.5552 18.1258 21.2833C20.3533 21.0095 22.3258 19.007 21.8964 15.4989C21.4633 11.972 19.0408 9.78203 16.7496 10.0633Z" fill="#EAFAF6"/>
<path d="M16.6523 9.26824H16.6505H16.6486C10.6692 10.037 12.7336 16.7195 12.7336 16.7195C12.7336 16.7195 13.088 17.3907 13.2492 17.687C13.2717 17.7301 13.3373 17.717 13.3411 17.6682C13.3992 17.0814 13.4236 14.9982 13.5792 14.3551C13.6711 13.9745 14.0217 13.7195 14.4117 13.7401C15.3848 13.7926 17.0105 13.6632 17.0142 13.6614C18.0455 13.5357 19.148 13.2882 19.7217 13.1101C20.0948 12.9939 20.498 13.1589 20.678 13.5057C20.9836 14.0907 21.6886 16.0501 21.8892 16.6126C21.9061 16.6595 21.9717 16.6557 21.983 16.607L22.2511 15.5495C22.253 15.5495 22.6392 8.56699 16.6523 9.26824Z" fill="#28A487"/>
<path d="M22.2527 15.5497C22.2527 15.5497 22.6389 8.56536 16.6521 9.26849H16.6502H16.6483C16.5546 9.27974 16.4646 9.29286 16.3746 9.30786C16.2013 9.33644 16.0293 9.37209 15.8589 9.41474C15.8477 9.41849 15.8364 9.42036 15.8252 9.42411C10.8658 10.6766 12.7333 16.7197 12.7333 16.7197L13.2489 17.6816C13.2714 17.7247 13.3352 17.7116 13.3408 17.6629C13.3989 17.0704 13.4233 14.9966 13.5789 14.3535C13.6235 14.1696 13.7313 14.0072 13.8835 13.8948C14.0357 13.7823 14.2226 13.727 14.4114 13.7385C15.0114 13.7722 15.9602 13.7891 16.9914 13.6635L17.1883 13.6616C17.1921 13.6616 17.1958 13.6616 17.1996 13.6597C18.2308 13.5341 19.1477 13.2866 19.7214 13.1085C20.0946 12.9922 20.4977 13.1572 20.6777 13.5041C20.9852 14.0929 21.6939 16.0654 21.8908 16.6185C21.9077 16.6635 21.9714 16.6616 21.9846 16.6147C22.0689 16.2904 22.2527 15.5497 22.2527 15.5497Z" fill="#28A487"/>
</g>
<defs>
<linearGradient id="paint0_linear_1673_18039" x1="0.555241" y1="16.3231" x2="12.0678" y2="16.896" gradientUnits="userSpaceOnUse">
<stop stop-color="#28A487" stop-opacity="0"/>
<stop offset="0.68" stop-color="#28A487" stop-opacity="0"/>
<stop offset="0.966" stop-color="#28A487"/>
</linearGradient>
<clipPath id="clip0_1673_18039">
<rect width="24" height="24" fill="white"/>
</clipPath>
</defs>
</svg>
