<svg width="16" height="15" viewBox="0 0 16 15" fill="none" xmlns="http://www.w3.org/2000/svg">
<path fill-rule="evenodd" clip-rule="evenodd" d="M4.66671 0.5C2.54962 0.5 0.833374 2.21624 0.833374 4.33333V12.9462C0.833374 13.9245 1.96496 14.4684 2.72885 13.8573L4.61384 12.3493C4.7616 12.2311 4.94519 12.1667 5.13442 12.1667H11.3334C13.4505 12.1667 15.1667 10.4504 15.1667 8.33333V4.33333C15.1667 2.21624 13.4505 0.5 11.3334 0.5H4.66671ZM4.69983 7.20117C5.16007 7.20117 5.53316 6.82808 5.53316 6.36784C5.53316 5.9076 5.16007 5.53451 4.69983 5.53451C4.23959 5.53451 3.8665 5.9076 3.8665 6.36784C3.8665 6.82808 4.23959 7.20117 4.69983 7.20117ZM8.8665 6.36784C8.8665 6.82808 8.4934 7.20117 8.03316 7.20117C7.57293 7.20117 7.19983 6.82808 7.19983 6.36784C7.19983 5.9076 7.57293 5.53451 8.03316 5.53451C8.4934 5.53451 8.8665 5.9076 8.8665 6.36784ZM11.3665 7.20117C11.8267 7.20117 12.1998 6.82808 12.1998 6.36784C12.1998 5.9076 11.8267 5.53451 11.3665 5.53451C10.9063 5.53451 10.5332 5.9076 10.5332 6.36784C10.5332 6.82808 10.9063 7.20117 11.3665 7.20117Z" fill="#28A487"/>
</svg>
