<svg width="15" height="15" viewBox="0 0 15 15" fill="none" xmlns="http://www.w3.org/2000/svg">
<path fill-rule="evenodd" clip-rule="evenodd" d="M4.16665 0.5C2.04955 0.5 0.333313 2.21624 0.333313 4.33333V12.9462C0.333313 13.9245 1.4649 14.4684 2.22879 13.8573L4.11378 12.3493C4.26154 12.2311 4.44513 12.1667 4.63435 12.1667H10.8333C12.9504 12.1667 14.6666 10.4504 14.6666 8.33333V4.33333C14.6666 2.21624 12.9504 0.5 10.8333 0.5H4.16665ZM4.19989 7.20117C4.66013 7.20117 5.03322 6.82808 5.03322 6.36784C5.03322 5.9076 4.66013 5.53451 4.19989 5.53451C3.73965 5.53451 3.36656 5.9076 3.36656 6.36784C3.36656 6.82808 3.73965 7.20117 4.19989 7.20117ZM8.36656 6.36784C8.36656 6.82808 7.99346 7.20117 7.53322 7.20117C7.07299 7.20117 6.69989 6.82808 6.69989 6.36784C6.69989 5.9076 7.07299 5.53451 7.53322 5.53451C7.99346 5.53451 8.36656 5.9076 8.36656 6.36784ZM10.8666 7.20117C11.3268 7.20117 11.6999 6.82808 11.6999 6.36784C11.6999 5.9076 11.3268 5.53451 10.8666 5.53451C10.4063 5.53451 10.0332 5.9076 10.0332 6.36784C10.0332 6.82808 10.4063 7.20117 10.8666 7.20117Z" fill="#A8AFBD"/>
</svg>
