<svg width="15" height="14" viewBox="0 0 15 14" fill="none" xmlns="http://www.w3.org/2000/svg">
<path d="M10.4167 2.04297H4.58335C2.83335 2.04297 1.66669 2.91797 1.66669 4.95964V9.04297C1.66669 11.0846 2.83335 11.9596 4.58335 11.9596H10.4167C12.1667 11.9596 13.3334 11.0846 13.3334 9.04297V4.95964C13.3334 2.91797 12.1667 2.04297 10.4167 2.04297ZM10.6909 5.59547L8.86502 7.0538C8.48002 7.36297 7.99002 7.51464 7.50002 7.51464C7.01002 7.51464 6.51419 7.36297 6.13502 7.0538L4.30919 5.59547C4.12252 5.4438 4.09335 5.1638 4.23919 4.97714C4.39085 4.79047 4.66502 4.75547 4.85169 4.90714L6.67752 6.36547C7.12085 6.7213 7.87335 6.7213 8.31669 6.36547L10.1425 4.90714C10.3292 4.75547 10.6092 4.78464 10.755 4.97714C10.9067 5.1638 10.8775 5.4438 10.6909 5.59547Z" fill="#A8AFBD"/>
</svg>
