<svg width="24" height="24" viewBox="0 0 24 24" fill="none" xmlns="http://www.w3.org/2000/svg">
<g id="hospital-svgrepo-com (1) 1" clip-path="url(#clip0_3504_269922)">
<path id="Vector" d="M22.6459 9.75391H6.98684C6.61405 9.75391 6.31184 10.0561 6.31184 10.4289V14.1858H1.59687C1.22408 14.1858 0.921875 14.488 0.921875 14.8608V22.6215C0.921875 22.9943 1.22408 23.2965 1.59687 23.2965H22.6459C23.0187 23.2965 23.3209 22.9943 23.3209 22.6215V10.4289C23.3209 10.0561 23.0186 9.75391 22.6459 9.75391Z" fill="#C5CAD3"/>
<path id="Vector_2" d="M23.3783 8.85938H10.0641C9.97455 8.85938 9.88871 8.89493 9.82541 8.95823C9.76212 9.02152 9.72656 9.10736 9.72656 9.19687V9.99328C9.72656 10.099 9.76856 10.2004 9.84333 10.2752C9.9181 10.3499 10.0195 10.392 10.1252 10.392H23.3171C23.4229 10.392 23.5243 10.3499 23.599 10.2752C23.6738 10.2004 23.7158 10.099 23.7158 9.99328V9.19687C23.7158 9.10736 23.6802 9.02152 23.6169 8.95822C23.5536 8.89493 23.4678 8.85937 23.3783 8.85938Z" fill="#667085"/>
<path id="Vector_3" d="M0.864844 13.1211H14.1791C14.2686 13.1211 14.3544 13.1567 14.4177 13.2199C14.481 13.2832 14.5166 13.3691 14.5166 13.4586V14.255C14.5166 14.3607 14.4746 14.4621 14.3998 14.5369C14.325 14.6117 14.2236 14.6537 14.1179 14.6537H0.926016C0.820281 14.6537 0.718878 14.6117 0.644112 14.5369C0.569347 14.4621 0.527344 14.3607 0.527344 14.255V13.4586C0.527344 13.3691 0.562902 13.2832 0.626195 13.2199C0.689489 13.1567 0.775333 13.1211 0.864844 13.1211Z" fill="#667085"/>
<path id="Vector_4" d="M14.8321 1.40625H2.75169C2.55659 1.40625 2.39844 1.59347 2.39844 1.82437V22.8786C2.39844 23.1095 2.55659 23.2967 2.75169 23.2967H14.8321C15.0272 23.2967 15.1853 23.1095 15.1853 22.8786V1.82437C15.1853 1.59347 15.0272 1.40625 14.8321 1.40625Z" fill="#A8AFBD"/>
<path id="Vector_5" d="M11.0119 5.32258H9.45844V3.76914C9.45844 3.67963 9.42288 3.59379 9.35959 3.53049C9.29629 3.4672 9.21045 3.43164 9.12094 3.43164H8.46281C8.3733 3.43164 8.28746 3.4672 8.22416 3.53049C8.16087 3.59379 8.12531 3.67963 8.12531 3.76914V5.32258H6.57188C6.48236 5.32258 6.39652 5.35814 6.33323 5.42143C6.26993 5.48472 6.23438 5.57057 6.23438 5.66008V6.3182C6.23438 6.40771 6.26993 6.49356 6.33323 6.55685C6.39652 6.62015 6.48236 6.6557 6.57188 6.6557H8.12531V8.20914C8.12531 8.29865 8.16087 8.3845 8.22416 8.44779C8.28746 8.51108 8.3733 8.54664 8.46281 8.54664H9.12094C9.21045 8.54664 9.29629 8.51108 9.35959 8.44779C9.42288 8.3845 9.45844 8.29865 9.45844 8.20914V6.6557H11.0119C11.1014 6.6557 11.1872 6.62015 11.2505 6.55685C11.3138 6.49356 11.3494 6.40771 11.3494 6.3182V5.66008C11.3494 5.57057 11.3138 5.48472 11.2505 5.42143C11.1872 5.35814 11.1014 5.32258 11.0119 5.32258Z" fill="white"/>
<path id="Vector_6" d="M21.7445 17.2676H16.7862C16.6967 17.2676 16.6108 17.232 16.5476 17.1687C16.4843 17.1054 16.4487 17.0196 16.4487 16.9301V14.9412C16.4487 14.8517 16.4843 14.7659 16.5476 14.7026C16.6108 14.6393 16.6967 14.6037 16.7862 14.6037H21.7446C21.8341 14.6037 21.9199 14.6393 21.9832 14.7026C22.0465 14.7659 22.0821 14.8517 22.0821 14.9412V16.9301C22.0821 17.0196 22.0465 17.1055 21.9832 17.1687C21.9199 17.232 21.8341 17.2676 21.7445 17.2676ZM22.1401 21.1098V19.121C22.1401 19.0315 22.1046 18.9456 22.0413 18.8823C21.978 18.819 21.8921 18.7835 21.8026 18.7835H16.7281C16.6386 18.7835 16.5528 18.819 16.4895 18.8823C16.4262 18.9456 16.3906 19.0315 16.3906 19.121V21.1098C16.3906 21.1994 16.4262 21.2852 16.4895 21.3485C16.5528 21.4118 16.6386 21.4473 16.7281 21.4473H21.8026C21.8921 21.4473 21.978 21.4118 22.0413 21.3485C22.1046 21.2852 22.1401 21.1994 22.1401 21.1098ZM22.1401 12.6175V11.9605C22.1401 11.871 22.1046 11.7852 22.0413 11.7219C21.978 11.6586 21.8921 11.623 21.8026 11.623H16.7281C16.6386 11.623 16.5528 11.6586 16.4895 11.7219C16.4262 11.7852 16.3906 11.871 16.3906 11.9605V12.6175C16.3906 12.707 16.4262 12.7929 16.4895 12.8561C16.5528 12.9194 16.6386 12.955 16.7281 12.955H21.8026C21.8921 12.955 21.978 12.9194 22.0413 12.8561C22.1046 12.7929 22.1401 12.707 22.1401 12.6175Z" fill="white"/>
<path id="Vector_7" d="M4.72656 19.7402H12.856V23.2978H4.72656V19.7402Z" fill="#2B3B47"/>
<path id="Vector_8" d="M9.63941 17.2663H7.96551C7.876 17.2663 7.79015 17.2308 7.72686 17.1675C7.66357 17.1042 7.62801 17.0183 7.62801 16.9288V14.8259C7.62801 14.7364 7.66357 14.6505 7.72686 14.5872C7.79015 14.5239 7.876 14.4884 7.96551 14.4884H9.63941C9.72893 14.4884 9.81477 14.5239 9.87806 14.5872C9.94136 14.6505 9.97691 14.7364 9.97691 14.8259V16.9288C9.97691 17.0183 9.94136 17.1042 9.87806 17.1675C9.81477 17.2308 9.72893 17.2663 9.63941 17.2663ZM13.6313 16.9288V14.8259C13.6313 14.7364 13.5958 14.6505 13.5325 14.5872C13.4692 14.5239 13.3833 14.4884 13.2938 14.4884H11.6199C11.5304 14.4884 11.4446 14.5239 11.3813 14.5872C11.318 14.6505 11.2824 14.7364 11.2824 14.8259V16.9288C11.2824 17.0183 11.318 17.1042 11.3813 17.1675C11.4446 17.2308 11.5304 17.2663 11.6199 17.2663H13.2938C13.3833 17.2663 13.4692 17.2308 13.5325 17.1675C13.5958 17.1042 13.6313 17.0183 13.6313 16.9288ZM6.32254 16.9288V14.8259C6.32254 14.7364 6.28698 14.6505 6.22369 14.5872C6.16039 14.5239 6.07455 14.4884 5.98504 14.4884H4.31113C4.22162 14.4884 4.13578 14.5239 4.07248 14.5872C4.00919 14.6505 3.97363 14.7364 3.97363 14.8259V16.9288C3.97363 17.0183 4.00919 17.1042 4.07248 17.1675C4.13578 17.2308 4.22162 17.2663 4.31113 17.2663H5.98504C6.07455 17.2663 6.16039 17.2308 6.22369 17.1675C6.28698 17.1042 6.32254 17.0183 6.32254 16.9288ZM5.39563 12.6162V10.5133C5.39563 10.469 5.3869 10.4251 5.36994 10.3841C5.35298 10.3432 5.32812 10.306 5.29678 10.2746C5.26544 10.2433 5.22824 10.2184 5.18729 10.2015C5.14634 10.1845 5.10245 10.1758 5.05813 10.1758H4.31113C4.26681 10.1758 4.22292 10.1845 4.18198 10.2015C4.14103 10.2184 4.10382 10.2433 4.07248 10.2746C4.04114 10.306 4.01628 10.3432 3.99932 10.3841C3.98236 10.4251 3.97363 10.469 3.97363 10.5133V12.6162C3.97363 12.6606 3.98236 12.7044 3.99932 12.7454C4.01628 12.7863 4.04114 12.8235 4.07248 12.8549C4.10382 12.8862 4.14103 12.9111 4.18198 12.928C4.22292 12.945 4.26681 12.9537 4.31113 12.9537H5.05813C5.14764 12.9537 5.23349 12.9182 5.29678 12.8549C5.36008 12.7916 5.39563 12.7057 5.39563 12.6162ZM8.14087 12.6162V10.5133C8.14087 10.4238 8.10531 10.3379 8.04202 10.2746C7.97872 10.2113 7.89288 10.1758 7.80337 10.1758H7.05637C6.96686 10.1758 6.88101 10.2113 6.81772 10.2746C6.75443 10.3379 6.71887 10.4238 6.71887 10.5133V12.6162C6.71887 12.7057 6.75443 12.7916 6.81772 12.8549C6.88101 12.9182 6.96686 12.9537 7.05637 12.9537H7.80337C7.89288 12.9537 7.97872 12.9182 8.04202 12.8549C8.10531 12.7916 8.14087 12.7057 8.14087 12.6162ZM10.8861 12.6162V10.5133C10.8861 10.4238 10.8505 10.3379 10.7873 10.2746C10.724 10.2113 10.6381 10.1758 10.5486 10.1758H9.8016C9.71209 10.1758 9.62625 10.2113 9.56295 10.2746C9.49966 10.3379 9.4641 10.4238 9.4641 10.5133V12.6162C9.4641 12.7057 9.49966 12.7916 9.56295 12.8549C9.62625 12.9182 9.71209 12.9537 9.8016 12.9537H10.5486C10.6381 12.9537 10.724 12.9182 10.7873 12.8549C10.8505 12.7916 10.8861 12.7057 10.8861 12.6162ZM13.6313 12.6162V10.5133C13.6313 10.4238 13.5958 10.3379 13.5325 10.2746C13.4692 10.2113 13.3833 10.1758 13.2938 10.1758H12.5468C12.4573 10.1758 12.3715 10.2113 12.3082 10.2746C12.2449 10.3379 12.2093 10.4238 12.2093 10.5133V12.6162C12.2093 12.7057 12.2449 12.7916 12.3082 12.8549C12.3715 12.9182 12.4573 12.9537 12.5468 12.9537H13.2938C13.3833 12.9537 13.4692 12.9182 13.5325 12.8549C13.5958 12.7916 13.6313 12.7057 13.6313 12.6162Z" fill="white"/>
<path id="Vector_9" d="M12.856 20.1148H4.72656V19.7295C4.72656 19.4744 4.93337 19.2676 5.18847 19.2676H12.394C12.6491 19.2676 12.8559 19.4744 12.8559 19.7295L12.856 20.1148Z" fill="#67747C"/>
<path id="Vector_10" d="M15.4594 0.939453H2.14512C2.05561 0.939453 1.96976 0.975011 1.90647 1.0383C1.84318 1.1016 1.80762 1.18744 1.80762 1.27695V2.07336C1.80762 2.17909 1.84962 2.2805 1.92439 2.35526C1.99915 2.43003 2.10055 2.47203 2.20629 2.47203H15.3982C15.5039 2.47203 15.6053 2.43003 15.6801 2.35526C15.7548 2.2805 15.7969 2.17909 15.7969 2.07336V1.27695C15.7969 1.18744 15.7613 1.1016 15.698 1.0383C15.6347 0.975011 15.5489 0.939453 15.4594 0.939453Z" fill="#667085"/>
</g>
<defs>
<clipPath id="clip0_3504_269922">
<rect width="24" height="24" fill="white"/>
</clipPath>
</defs>
</svg>
