<svg width="15" height="14" viewBox="0 0 15 14" fill="none" xmlns="http://www.w3.org/2000/svg">
<path d="M6.94582 8.72214L5.86666 9.8013C5.63916 10.0288 5.27749 10.0288 5.04416 9.80713C4.97999 9.74297 4.91582 9.68464 4.85166 9.62047C4.25082 9.0138 3.70832 8.37797 3.22416 7.71297C2.74582 7.04797 2.36082 6.38297 2.08082 5.7238C1.80666 5.0588 1.66666 4.42297 1.66666 3.8163C1.66666 3.41964 1.73666 3.04047 1.87666 2.69047C2.01666 2.33464 2.23832 2.00797 2.54749 1.7163C2.92082 1.3488 3.32916 1.16797 3.76082 1.16797C3.92416 1.16797 4.08749 1.20297 4.23332 1.27297C4.38499 1.34297 4.51916 1.44797 4.62416 1.59964L5.97749 3.50714C6.08249 3.65297 6.15832 3.78714 6.21082 3.91547C6.26332 4.03797 6.29249 4.16047 6.29249 4.2713C6.29249 4.4113 6.25166 4.5513 6.16999 4.68547C6.09416 4.81964 5.98332 4.95964 5.84332 5.09964L5.39999 5.56047C5.33582 5.62464 5.30666 5.70047 5.30666 5.7938C5.30666 5.84047 5.31249 5.8813 5.32416 5.92797C5.34166 5.97464 5.35916 6.00963 5.37082 6.04463C5.47582 6.23713 5.65666 6.48797 5.91332 6.7913C6.17582 7.09464 6.45582 7.4038 6.75916 7.71297C6.81749 7.7713 6.88166 7.82964 6.93999 7.88797C7.17332 8.11547 7.17916 8.4888 6.94582 8.72214Z" fill="#A8AFBD"/>
<path d="M13.3158 10.6939C13.3158 10.8572 13.2867 11.0264 13.2283 11.1897C13.2108 11.2364 13.1933 11.2831 13.17 11.3297C13.0708 11.5397 12.9425 11.7381 12.7733 11.9247C12.4875 12.2397 12.1725 12.4672 11.8167 12.6131C11.8108 12.6131 11.805 12.6189 11.7992 12.6189C11.455 12.7589 11.0817 12.8347 10.6792 12.8347C10.0842 12.8347 9.44834 12.6947 8.77751 12.4089C8.10667 12.1231 7.43584 11.7381 6.77084 11.2539C6.54334 11.0847 6.31584 10.9156 6.10001 10.7347L8.00751 8.82724C8.17084 8.94974 8.31667 9.04307 8.43917 9.10724C8.46834 9.11891 8.50334 9.13641 8.54417 9.15391C8.59084 9.17141 8.63751 9.17724 8.69001 9.17724C8.78917 9.17724 8.86501 9.14224 8.92917 9.07807L9.37251 8.64057C9.51834 8.49474 9.65834 8.38391 9.79251 8.31391C9.92667 8.23224 10.0608 8.19141 10.2067 8.19141C10.3175 8.19141 10.4342 8.21474 10.5625 8.26724C10.6908 8.31974 10.825 8.39557 10.9708 8.49474L12.9017 9.86557C13.0533 9.97057 13.1583 10.0931 13.2225 10.2389C13.2808 10.3847 13.3158 10.5306 13.3158 10.6939Z" fill="#A8AFBD"/>
</svg>
