<svg width="86" height="86" viewBox="0 0 86 86" fill="none" xmlns="http://www.w3.org/2000/svg">
<g clip-path="url(#clip0_6882_101073)">
<path d="M72.5584 5.33178L77.507 19.2528C77.8842 20.3121 78.4801 21.2802 79.2559 22.0941C80.0318 22.9081 80.9702 23.5496 82.0103 23.9771C83.0503 24.4046 84.1687 24.6084 85.2926 24.5754C86.4166 24.5423 87.5211 24.2731 88.5342 23.7852L101.88 17.4425C108.692 14.205 115.801 21.3142 112.564 28.1327L106.221 41.4723C105.739 42.486 105.476 43.5895 105.447 44.7115C105.419 45.8334 105.626 46.9489 106.056 47.9858C106.486 49.0226 107.128 49.9577 107.942 50.7307C108.756 51.5036 109.723 52.0972 110.78 52.473L124.694 57.4216C126.256 57.9761 127.607 59.0004 128.563 60.3538C129.518 61.7072 130.031 63.3233 130.031 64.9801C130.031 66.6368 129.518 68.253 128.563 69.6064C127.607 70.9598 126.256 71.9841 124.694 72.5385L110.78 77.4872C109.723 77.8631 108.757 78.4565 107.944 79.2289C107.131 80.0014 106.489 80.9358 106.059 81.9719C105.63 83.0079 105.422 84.1225 105.45 85.2438C105.478 86.365 105.741 87.4679 106.221 88.4813L112.564 101.828C113.273 103.323 113.502 105.001 113.22 106.631C112.937 108.262 112.158 109.765 110.988 110.935C109.818 112.105 108.314 112.885 106.684 113.167C105.053 113.449 103.376 113.22 101.88 112.511L88.5342 106.168C87.5208 105.688 86.4179 105.425 85.2966 105.397C84.1754 105.369 83.0608 105.577 82.0247 106.006C80.9887 106.436 80.0543 107.078 79.2818 107.891C78.5093 108.704 77.916 109.67 77.5401 110.727L72.5914 124.642C72.0369 126.203 71.0126 127.554 69.6592 128.51C68.3058 129.465 66.6897 129.978 65.033 129.978C63.3762 129.978 61.7601 129.465 60.4067 128.51C59.0533 127.554 58.0289 126.203 57.4745 124.642L52.5258 110.727C52.15 109.67 51.5565 108.703 50.7835 107.889C50.0106 107.075 49.0755 106.433 48.0386 106.003C47.0018 105.573 45.8863 105.366 44.7643 105.394C43.6423 105.423 42.5388 105.687 41.5251 106.168L28.1855 112.511C21.3671 115.749 14.2579 108.639 17.4953 101.828L23.7852 88.5342C24.267 87.5214 24.5309 86.4187 24.5598 85.2975C24.5886 84.1763 24.3818 83.0615 23.9528 82.0253C23.5237 80.989 22.8819 80.0544 22.0689 79.2818C21.2559 78.5091 20.2897 77.9158 19.233 77.5401L5.33178 72.5583C3.77055 72.0039 2.41931 70.9796 1.46373 69.6262C0.508152 68.2728 -0.00488281 66.6567 -0.00488281 64.9999C-0.00488281 63.3431 0.508152 61.727 1.46373 60.3736C2.41931 59.0202 3.77055 57.9959 5.33178 57.4415L19.2528 52.4928C20.308 52.1143 21.2722 51.5187 22.0831 50.7446C22.894 49.9705 23.5336 49.035 23.9607 47.9984C24.3878 46.9619 24.5928 45.8473 24.5626 44.7267C24.5324 43.606 24.2675 42.5041 23.7852 41.4921L17.4425 28.1525C16.726 26.6543 16.4922 24.9707 16.7733 23.334C17.0545 21.6973 17.8367 20.1882 19.0121 19.015C20.1874 17.8418 21.698 17.0623 23.3352 16.7842C24.9724 16.5061 26.6556 16.743 28.1525 17.4623L41.4921 23.7852C42.5054 24.2671 43.6085 24.531 44.7301 24.5599C45.8518 24.5889 46.967 24.3821 48.0038 23.9531C49.0406 23.5241 49.9758 22.8823 50.749 22.0692C51.5223 21.2562 52.1163 20.29 52.4928 19.233L57.4415 5.33178C57.9959 3.77055 59.0202 2.41931 60.3736 1.46373C61.727 0.508152 63.3432 -0.00488281 64.9999 -0.00488281C66.6567 -0.00488281 68.2728 0.508152 69.6262 1.46373C70.9796 2.41931 72.0039 3.77055 72.5584 5.33178Z" fill="#CC4DBB"/>
</g>
<g clip-path="url(#clip1_6882_101073)">
<path d="M75.5677 74.8337H75.5651C75.4893 74.864 75.4071 74.8817 75.3211 74.8817C75.3186 74.8817 75.3161 74.8817 75.3135 74.8817H66.5276C66.0648 74.8817 65.6678 74.5505 65.5831 74.0953L64.0115 65.5331C63.9736 65.327 64.0381 65.1298 64.1658 64.9882C64.2227 64.925 64.2935 64.8731 64.3731 64.8365H64.3744C64.4553 64.7985 64.5451 64.7783 64.6399 64.7783H73.4524C73.9329 64.7783 74.3451 65.121 74.4323 65.5938L75.9887 74.07C76.0494 74.4025 75.861 74.7148 75.5677 74.8324V74.8337Z" fill="#FF7631"/>
<path d="M75.5653 74.8351L75.119 75.0285H75.1177C75.0304 75.0703 74.9306 75.0943 74.8269 75.0943H69.9301V75.0033C69.9301 74.9716 69.9048 74.9464 69.8732 74.9464H69.2764C69.2574 74.9464 69.2385 74.9489 69.2208 74.9539C69.2043 74.959 69.1879 74.9653 69.1727 74.9742L69.1373 74.9944L69.1095 75.0108L68.9717 75.093H66.0384C65.5757 75.093 65.1786 74.7618 65.0939 74.3066L63.5223 65.7444C63.4667 65.4397 63.6349 65.154 63.8991 65.0415L63.9105 65.0364H63.9143L64.3707 64.8379C64.2911 64.8746 64.2215 64.9264 64.1634 64.9896C64.0357 65.1312 63.9712 65.3285 64.0091 65.5345L65.5807 74.0967C65.6642 74.5519 66.0612 74.8831 66.5252 74.8831H75.3111C75.3111 74.8831 75.3162 74.8831 75.3187 74.8831C75.406 74.8831 75.4881 74.8654 75.5627 74.8351H75.5653Z" fill="#C44B0E"/>
<path d="M73.0514 75.4627V75.6422H68.2329C67.5477 75.6422 67.315 75.3413 67.2417 75.0947H67.4579C67.5085 75.2604 67.664 75.4627 68.1255 75.4627H73.0514Z" fill="#BABABA"/>
<path d="M70.5291 75.4627H68.1256C67.6641 75.4627 67.5073 75.2604 67.458 75.0947H68.6326L68.6958 75.2692C68.7135 75.3185 68.759 75.3476 68.8071 75.3489C68.8096 75.3489 68.8121 75.3489 68.8147 75.3489H69.5644C69.5644 75.3489 69.5695 75.3489 69.572 75.3489C69.5922 75.3489 69.6125 75.3425 69.6314 75.3324L69.8957 75.1756C69.9703 75.3198 70.1422 75.4639 70.5316 75.4639L70.5291 75.4627Z" fill="#969696"/>
<path d="M69.2436 75.1504L69.2417 75.1523" stroke="white" stroke-width="0.278529" stroke-miterlimit="10"/>
<path d="M68.9739 75.0928L68.8639 75.1585C68.8386 75.1737 68.807 75.1623 68.7969 75.1345L68.7817 75.0928H68.9739Z" fill="#969696"/>
<path d="M69.9297 75.1417C69.9297 75.148 69.9271 75.1544 69.9208 75.1582L69.63 75.3314C69.611 75.3428 69.5908 75.3478 69.5706 75.3478H68.8132C68.8335 75.3478 68.8524 75.3415 68.8714 75.3314L69.1698 75.1531C69.185 75.143 69.2027 75.1367 69.2191 75.1316C69.2317 75.1278 69.2444 75.1253 69.2583 75.124C69.2646 75.124 69.2722 75.124 69.2785 75.124H69.9082C69.9195 75.124 69.9271 75.1341 69.9271 75.143L69.9297 75.1417Z" fill="#BABABA"/>
<path d="M69.9297 75.0022V75.14C69.9297 75.1299 69.9221 75.1211 69.9107 75.1211H69.2811C69.2735 75.1211 69.2672 75.1211 69.2609 75.1211C69.2482 75.1211 69.2343 75.1248 69.2217 75.1286V75.1211V74.9529C69.2394 74.9478 69.2583 74.9453 69.2773 74.9453H69.8741C69.9057 74.9453 69.931 74.9706 69.931 75.0022H69.9297Z" fill="#EAEAEA"/>
<path d="M69.2205 74.9534V75.1292C69.2028 75.1342 69.1864 75.1418 69.1712 75.1507L68.8728 75.3289C68.8538 75.3403 68.8349 75.3454 68.8146 75.3454H68.807C68.759 75.3454 68.7135 75.315 68.6958 75.2657L68.6326 75.0912H68.7818L68.7969 75.1329C68.807 75.1608 68.8387 75.1721 68.8639 75.157L68.9739 75.0912L69.1118 75.009L69.1396 74.9926L69.175 74.9724C69.1901 74.9635 69.2053 74.9559 69.223 74.9521L69.2205 74.9534Z" fill="#AFAFAF"/>
<path d="M71.1536 75.0928L71.0436 75.1585C71.0183 75.1737 70.9867 75.1623 70.9766 75.1345L70.9614 75.0928H71.1536Z" fill="#969696"/>
<path d="M72.1096 75.1417C72.1096 75.148 72.1071 75.1544 72.1007 75.1582L71.8099 75.3314C71.791 75.3428 71.7707 75.3478 71.7505 75.3478H70.9932C71.0134 75.3478 71.0324 75.3415 71.0513 75.3314L71.3497 75.1531C71.3649 75.143 71.3826 75.1367 71.399 75.1316C71.4117 75.1278 71.4243 75.1253 71.4382 75.124C71.4445 75.124 71.4521 75.124 71.4584 75.124H72.0881C72.0995 75.124 72.1071 75.1341 72.1071 75.143L72.1096 75.1417Z" fill="#BABABA"/>
<path d="M72.1096 75.0022V75.14C72.1096 75.1299 72.1021 75.1211 72.0907 75.1211H71.461C71.4534 75.1211 71.4471 75.1211 71.4408 75.1211C71.4282 75.1211 71.4143 75.1248 71.4016 75.1286V75.1211V74.9529C71.4193 74.9478 71.4383 74.9453 71.4572 74.9453H72.054C72.0856 74.9453 72.1109 74.9706 72.1109 75.0022H72.1096Z" fill="#EAEAEA"/>
<path d="M71.4014 74.9534V75.1292C71.3837 75.1342 71.3673 75.1418 71.3521 75.1507L71.0537 75.3289C71.0347 75.3403 71.0158 75.3454 70.9955 75.3454H70.988C70.9399 75.3454 70.8944 75.315 70.8767 75.2657L70.8135 75.0912H70.9627L70.9778 75.1329C70.988 75.1608 71.0196 75.1721 71.0449 75.157L71.1548 75.0912L71.2927 75.009L71.3205 74.9926L71.3559 74.9724C71.3711 74.9635 71.3862 74.9559 71.4039 74.9521L71.4014 74.9534Z" fill="#AFAFAF"/>
<path d="M52.468 68.8721C52.5489 68.9024 52.6261 68.9391 52.6981 68.9833" stroke="white" stroke-width="0.250676" stroke-miterlimit="10"/>
<path d="M52.6992 68.9834C52.746 69.0112 52.7903 69.0428 52.8332 69.0757" stroke="white" stroke-width="0.250676" stroke-miterlimit="10"/>
<path d="M46.2523 68.1846C46.0412 68.1846 45.8376 68.2225 45.6505 68.2908C45.1675 68.4678 44.7844 68.8509 44.6074 69.3339C44.5391 69.5223 44.5012 69.7245 44.5012 69.9357V74.3533C44.5012 75.026 43.955 75.5722 43.2823 75.5722H35.9023C35.2967 75.5722 34.8062 75.0816 34.8062 74.476V69.9357C34.8062 68.9685 35.59 68.1846 36.5573 68.1846H46.2536H46.2523Z" fill="#0097D3"/>
<path d="M63.4195 69.935V74.4753C63.4195 75.0809 62.9289 75.5715 62.3233 75.5715H61.7328C62.346 75.507 62.8227 74.9886 62.8227 74.3577V70.1487C62.8227 69.3964 62.2133 68.787 61.461 68.787H46.4696C45.7186 68.787 45.1092 69.3964 45.1092 70.1474V74.474C45.1092 75.0796 44.6186 75.5702 44.013 75.5702H43.2834C43.9561 75.5702 44.5023 75.024 44.5023 74.3514V69.9337C44.5023 69.7226 44.5402 69.519 44.6085 69.3319C44.7855 68.8489 45.1686 68.4658 45.6516 68.2888C45.84 68.2205 46.0423 68.1826 46.2534 68.1826H61.6683C62.6356 68.1826 63.4195 68.9665 63.4195 69.9337V69.935Z" fill="#02B6FF"/>
<path d="M62.8216 70.1488V74.3578C62.8216 74.9875 62.345 75.5059 61.7318 75.5716C61.6888 75.5767 61.6458 75.5779 61.6015 75.5779H54.4516C53.9282 75.5779 53.4907 75.2113 53.3807 74.722C53.3769 74.7068 53.3744 74.6904 53.3706 74.6739C53.3592 74.6107 53.3529 74.5462 53.3529 74.4792V70.1475C53.3529 69.7126 53.1494 69.3257 52.832 69.0766C52.789 69.0425 52.7448 69.0122 52.698 68.9843C52.6259 68.9401 52.5488 68.9034 52.4679 68.8731C52.4615 68.8706 52.4565 68.8693 52.4502 68.8668C52.4426 68.8642 52.435 68.8617 52.4274 68.8592C52.2909 68.8124 52.1442 68.7871 51.9912 68.7871H61.4587C62.2109 68.7871 62.8204 69.3965 62.8204 70.1488H62.8216Z" fill="#0573FF"/>
<path d="M61.6209 63.2949L61.6079 63.3014" stroke="white" stroke-width="0.315667" stroke-miterlimit="10"/>
<path d="M49.1555 67.3604L49.0151 68.1885H42.7136V67.3604H49.1555Z" fill="#CC4DBB"/>
<path d="M55.3748 67.3604V68.1885H49.0151L49.1555 67.3604H55.3748Z" fill="#DD88D2"/>
<path d="M63.0555 60.4862C62.8469 60.6519 62.5814 60.7518 62.2881 60.7518H40.2113C39.2479 60.7518 38.4159 60.0779 38.2161 59.1359L34.5457 41.8573C34.48 41.545 34.5369 41.2416 34.6798 40.9887C34.6975 40.9559 34.7177 40.9255 34.7379 40.8952C34.9592 40.5753 35.3296 40.3604 35.7583 40.3604H57.835C58.7985 40.3604 59.6304 41.0342 59.8302 41.9762L63.5006 59.2548C63.603 59.739 63.4095 60.2068 63.0555 60.4862Z" fill="#DD88D2"/>
<path d="M45.2992 61.8379L44.3611 67.3606H43.4773L44.4142 61.8379H45.2992Z" fill="#CC4DBB"/>
<path d="M50.765 61.8379L49.8281 67.3606H44.3611L45.2992 61.8379H50.765Z" fill="#DD88D2"/>
<path d="M34.6799 40.9888L34.7381 40.8952L34.7646 40.8535" stroke="white" stroke-width="0.287814" stroke-miterlimit="10"/>
<path d="M63.0557 60.4855L62.7573 60.751L62.0076 61.4199C61.7054 61.6892 61.316 61.8371 60.9114 61.8371H39.9055C38.5286 61.8371 37.3389 60.8737 37.0531 59.5271L33.6761 43.6393C33.5686 43.1349 33.6621 42.6089 33.9365 42.1727L34.441 41.3698L34.6799 40.9893C34.5371 41.2409 34.4802 41.5456 34.5459 41.8579L38.2163 59.1364C38.4161 60.0784 39.2493 60.7523 40.2115 60.7523H62.2883C62.5816 60.7523 62.8458 60.6524 63.0557 60.4868V60.4855Z" fill="#F4D7F0"/>
<path d="M61.5133 61.2627L61.4753 61.2968" stroke="white" stroke-width="0.250676" stroke-miterlimit="10"/>
<path d="M36.929 70.1252V70.043" stroke="white" stroke-width="0.287814" stroke-miterlimit="10"/>
<path d="M37.4841 70.1252V70.043" stroke="white" stroke-width="0.287814" stroke-miterlimit="10"/>
<path d="M38.2478 70.1252V70.043" stroke="white" stroke-width="0.287814" stroke-miterlimit="10"/>
<path d="M39.0531 73.8276C39.0531 73.839 39.0531 73.8491 39.0531 73.8592V74.5951H36.8165V73.8592C36.8165 73.8491 36.8165 73.8377 36.8165 73.8276C36.8165 73.6885 36.7798 73.5621 36.7204 73.4698C36.6648 73.3838 36.5876 73.3282 36.5029 73.3206H36.9707C37.1452 73.3345 37.2843 73.5558 37.2843 73.8263C37.2843 73.8377 37.2843 73.8478 37.2843 73.8579V74.2271H38.5853V73.8579C38.5853 73.8478 38.5853 73.8365 38.5853 73.8263C38.5853 73.6873 38.5486 73.5608 38.4892 73.4685C38.4336 73.3826 38.3565 73.3269 38.2718 73.3193H38.7396C38.914 73.3332 39.0531 73.5545 39.0531 73.8251V73.8276Z" fill="#EAEAEA"/>
<path d="M36.5033 73.3223H36.4851" stroke="white" stroke-width="0.287814" stroke-miterlimit="10"/>
<path d="M36.8152 73.8273C36.8152 73.8387 36.8152 73.8488 36.8152 73.8589V74.5948H36.1565V73.8589C36.1565 73.8488 36.1565 73.8374 36.1565 73.8273C36.1565 73.5466 36.3044 73.3203 36.4865 73.3203C36.4928 73.3203 36.4979 73.3203 36.5042 73.3203C36.5889 73.3266 36.6648 73.3823 36.7217 73.4695C36.7811 73.5605 36.8177 73.687 36.8177 73.8273H36.8152Z" fill="#AFAFAF"/>
<path d="M38.2719 73.3223H38.2378C38.2378 73.3223 38.2492 73.3223 38.2542 73.3223C38.2593 73.3223 38.2656 73.3223 38.2707 73.3223H38.2719Z" stroke="white" stroke-width="0.287814" stroke-miterlimit="10"/>
<path d="M38.5841 73.827C38.5841 73.8384 38.5841 73.8485 38.5841 73.8586V74.2278H37.283V73.8586C37.283 73.8485 37.283 73.8371 37.283 73.827C37.283 73.5552 37.144 73.3339 36.9695 73.3213H37.4828V70.125H38.2465V73.3213H38.2705C38.3552 73.3276 38.4311 73.3832 38.488 73.4705C38.5474 73.5615 38.5841 73.6879 38.5841 73.8283V73.827Z" fill="#BABABA"/>
<path d="M38.7395 73.3223H38.7053C38.7053 73.3223 38.7167 73.3223 38.7218 73.3223C38.7268 73.3223 38.7331 73.3223 38.7382 73.3223H38.7395Z" stroke="white" stroke-width="0.287814" stroke-miterlimit="10"/>
<path d="M38.7016 74.2295H38.584" stroke="white" stroke-width="0.287814" stroke-miterlimit="10"/>
<path d="M37.2829 74.2295H37.2285" stroke="white" stroke-width="0.287814" stroke-miterlimit="10"/>
<path d="M36.9707 73.3223H36.9365C36.9365 73.3223 36.9479 73.3223 36.9542 73.3223C36.9605 73.3223 36.9656 73.3223 36.9707 73.3223Z" stroke="white" stroke-width="0.287814" stroke-miterlimit="10"/>
<path d="M42.0396 75.5695H36.5397C36.2059 75.5695 35.9353 75.299 35.9353 74.9652V74.5947H41.434V74.9639C41.434 75.2977 41.7045 75.5683 42.0383 75.5683L42.0396 75.5695Z" fill="#AFAFAF"/>
<path d="M44.4214 74.5957V74.9662C44.4214 75.2999 44.1509 75.5705 43.8184 75.5705H42.0394C41.7056 75.5705 41.4351 75.2999 41.4351 74.9662V74.597H44.4227L44.4214 74.5957Z" fill="#EAEAEA"/>
<path d="M37.484 70.125H36.929V73.3213H37.484V70.125Z" fill="#AFAFAF"/>
<path d="M38.2566 72.8398C38.2477 72.8398 38.2389 72.8411 38.2287 72.8411C38.2186 72.8411 38.211 72.8411 38.2009 72.8398H38.2553H38.2566Z" stroke="white" stroke-width="0.287814" stroke-miterlimit="10"/>
<path d="M39.7738 72.6631H38.2502V72.7693H39.7738V72.6631Z" fill="#969696"/>
<path d="M37.6381 72.4109C37.6381 72.4236 37.6381 72.4362 37.6381 72.4476C37.6381 72.4501 37.6381 72.4526 37.6381 72.4539C37.6381 72.4615 37.6381 72.4678 37.6356 72.4754C37.6356 72.4792 37.6356 72.483 37.6343 72.4868C37.6343 72.4918 37.6343 72.4969 37.6318 72.502C37.609 72.6398 37.537 72.7523 37.4409 72.8067C37.432 72.8117 37.4232 72.8155 37.4156 72.8193C37.4131 72.8193 37.4093 72.8218 37.4067 72.8231C37.4017 72.8244 37.3966 72.8269 37.3916 72.8282H37.389C37.384 72.8282 37.3802 72.8307 37.3751 72.8319C37.3637 72.8345 37.3536 72.837 37.3423 72.8383C37.3385 72.8383 37.3359 72.8383 37.3321 72.8383C37.3321 72.8383 37.322 72.8383 37.3157 72.8383C37.3043 72.8383 37.2929 72.8383 37.2828 72.8357C37.2715 72.8345 37.2613 72.832 37.25 72.8294C37.2449 72.8282 37.2398 72.8269 37.2335 72.8244C37.2234 72.8206 37.2133 72.8168 37.2032 72.8117C37.188 72.8041 37.1741 72.7953 37.1602 72.7864C37.1463 72.7763 37.1336 72.7649 37.121 72.7523C37.0995 72.7321 37.0805 72.708 37.0641 72.6815C37.054 72.6651 37.0451 72.6486 37.0363 72.6309C37.0072 72.5664 36.9895 72.4893 36.9895 72.4084C36.9895 72.3275 37.0072 72.2504 37.0363 72.1859C37.0451 72.1682 37.054 72.1517 37.0641 72.1353C37.0805 72.1087 37.0995 72.0847 37.121 72.0645C37.1336 72.0518 37.1463 72.0417 37.1602 72.0304C37.1741 72.0202 37.188 72.0114 37.2032 72.0051C37.2133 72 37.2234 71.9962 37.2335 71.9924C37.2386 71.9912 37.2449 71.9886 37.25 71.9874C37.2601 71.9848 37.2715 71.9823 37.2828 71.981C37.2942 71.981 37.3043 71.9785 37.3157 71.9785C37.3271 71.9785 37.3385 71.9785 37.3486 71.981C37.36 71.9823 37.3701 71.9848 37.3814 71.9874C37.3865 71.9886 37.3916 71.9899 37.3979 71.9924C37.408 71.9962 37.4181 72 37.4282 72.0051C37.4434 72.0127 37.4573 72.0215 37.4712 72.0304C37.4851 72.0405 37.499 72.0518 37.5117 72.0645C37.5913 72.1429 37.6419 72.2681 37.6419 72.4084L37.6381 72.4109Z" fill="#969696"/>
<path d="M37.312 72.7017C37.4335 72.7017 37.532 72.5715 37.532 72.4109C37.532 72.2503 37.4335 72.1201 37.312 72.1201C37.1905 72.1201 37.092 72.2503 37.092 72.4109C37.092 72.5715 37.1905 72.7017 37.312 72.7017Z" fill="#7F7F7F"/>
<path d="M41.8601 71.5615L40.2835 65.4597C40.1659 65.0058 39.7563 64.6885 39.2872 64.6885H36.6422C36.5119 64.6885 36.3918 64.7302 36.2957 64.7997C36.2464 64.8364 36.2022 64.8794 36.1668 64.9287C36.0669 65.0653 36.0239 65.2448 36.0719 65.4256L37.6663 71.5956C37.7788 72.0293 38.1695 72.3315 38.6171 72.3315H41.2646C41.3746 72.3315 41.4758 72.3036 41.563 72.2543C41.6224 72.2215 41.6755 72.1785 41.7211 72.1292L41.7425 72.1039H41.7438C41.8614 71.9572 41.9132 71.76 41.8614 71.5602L41.8601 71.5615ZM41.0649 71.8219H38.7094C38.4211 71.8219 38.1695 71.6272 38.0974 71.3478L36.6004 65.5508C36.5549 65.3738 36.6889 65.1993 36.8723 65.1993H39.2265C39.5337 65.1993 39.8018 65.4066 39.8789 65.705L41.3607 71.4414C41.4113 71.6335 41.2646 71.8219 41.0661 71.8219H41.0649Z" fill="#FF70FE"/>
<path d="M41.7197 72.1322L41.4668 72.4268L41.4326 72.4659C41.3201 72.5861 41.1596 72.6632 40.9775 72.6632H38.2945C37.8406 72.6632 37.4449 72.3572 37.3311 71.9172L35.7165 65.6663C35.647 65.3995 35.7696 65.1365 35.9846 65.005H35.9858L36.2981 64.8027C36.2488 64.8394 36.2046 64.8824 36.1692 64.9317C36.0693 65.0682 36.0263 65.2478 36.0743 65.4286L37.6687 71.5986C37.7812 72.0323 38.1719 72.3345 38.6195 72.3345H41.267C41.377 72.3345 41.4782 72.3066 41.5654 72.2573C41.6248 72.2245 41.6779 72.1815 41.7235 72.1322H41.7197Z" fill="#BB41BF"/>
<path d="M36.4713 67.599L36.3954 67.6748C36.379 67.6913 36.3499 67.6837 36.3436 67.6609L36.1261 66.7746C36.1198 66.7493 36.1261 66.7228 36.1464 66.7038L36.2222 66.628C36.2387 66.6115 36.2677 66.6191 36.2741 66.6419L36.4915 67.5282C36.4978 67.5535 36.4915 67.58 36.4713 67.599Z" fill="#182733"/>
<path d="M38.4173 71.8369V72.1062C38.4173 72.2402 38.3414 72.3629 38.2213 72.4223L37.9267 72.5677L37.4399 72.8067C37.536 72.7523 37.6094 72.6398 37.6309 72.502L37.9052 72.3667L38.1821 72.2301C38.22 72.2112 38.2441 72.172 38.2441 72.1302V72.0089L38.416 71.8369H38.4173Z" fill="#969696"/>
<path d="M39.3339 71.8372V72.1065C39.3339 72.2405 39.2581 72.3632 39.1379 72.4226L38.3452 72.812L38.3389 72.8145C38.3389 72.8145 38.3275 72.8196 38.3224 72.8221C38.3022 72.8297 38.2795 72.836 38.258 72.8386H37.3413C37.3641 72.836 37.3856 72.831 37.4058 72.8221C37.4121 72.8196 37.4172 72.8171 37.4222 72.8145L37.4285 72.812L37.9254 72.5667L38.22 72.4213C38.3401 72.3619 38.416 72.2393 38.416 72.1052V71.8359H39.3327L39.3339 71.8372Z" fill="#EAEAEA"/>
<path d="M40.8155 71.8369V72.1062C40.8155 72.2402 40.7396 72.3629 40.6195 72.4223L40.3249 72.5677L39.828 72.813L39.8217 72.8168C39.8217 72.8168 39.8103 72.8218 39.8052 72.8244C39.7837 72.832 39.7623 72.8383 39.7408 72.8408C39.7319 72.8408 39.7231 72.8421 39.7129 72.8421C39.6459 72.8421 39.4639 72.8307 39.4639 72.6638H39.7319L39.895 72.5766L40.0303 72.5045L40.3047 72.3692L40.5816 72.2327C40.6195 72.2137 40.6448 72.1745 40.6448 72.1328V72.0114L40.8167 71.8394L40.8155 71.8369Z" fill="#AFAFAF"/>
<path d="M41.7321 71.8372V72.1065C41.7321 72.2405 41.6563 72.3632 41.5361 72.4226L40.7434 72.812L40.7371 72.8145C40.7371 72.8145 40.7257 72.8196 40.7206 72.8221C40.7004 72.8297 40.6776 72.836 40.6562 72.8386H39.7395C39.7623 72.836 39.7838 72.831 39.804 72.8221C39.8103 72.8196 39.8154 72.8171 39.8204 72.8145L39.8267 72.812L40.3236 72.5667L40.6182 72.4213C40.7383 72.3619 40.8142 72.2393 40.8142 72.1052V71.8359H41.7309L41.7321 71.8372Z" fill="#EAEAEA"/>
<path d="M55.4428 41.6709L54.0406 43.3778L53.6436 43.862L53.2454 44.3463L51.9835 45.8837L51.5853 46.368L51.1883 46.8509L49.8518 48.4769L49.4536 48.9611L49.0566 49.4441L47.8681 50.8931L47.4711 51.3773L47.0728 51.8615L45.8097 53.399L45.4127 53.8832L45.0157 54.3662L40.8509 59.4375H40.7258C40.2491 59.4375 39.8369 59.1037 39.7383 58.6372L36.3094 42.518C36.2171 42.0818 36.5496 41.6709 36.996 41.6709H55.4428Z" fill="white"/>
<path d="M61.0504 59.4414H40.8486L45.0134 54.3701L45.4104 53.8871L45.8074 53.4029L47.0705 51.8655L47.4688 51.3812L47.8658 50.897L49.0555 49.448L49.4525 48.965L49.8508 48.4808L51.1872 46.8548L51.5842 46.3719L51.9825 45.8876L53.2443 44.3502L53.6426 43.8659L54.0396 43.3817L55.4417 41.6748H57.4318C57.8453 41.6748 58.2031 41.9643 58.2891 42.3677L61.7369 58.5968C61.8292 59.033 61.4967 59.444 61.0504 59.444V59.4414Z" fill="#DDDDDD"/>
<path d="M46.5584 74.8656H45.9604L44.9097 64.2818C44.8819 64.0074 45.0134 63.7558 45.2245 63.6142L45.6633 63.2412C45.5899 63.3145 45.5343 63.4043 45.4989 63.5029C45.4648 63.6003 45.4496 63.7065 45.461 63.8165L46.5104 74.4004H46.5116L46.5571 74.8656H46.5584Z" fill="#595996"/>
<path d="M46.5117 74.4H46.5104L45.461 63.8161C45.4496 63.7062 45.4648 63.5999 45.4989 63.5026C45.5394 63.495 45.5811 63.4912 45.6254 63.4912H46.2247C45.7999 63.4912 45.4673 63.8579 45.5091 64.2802L46.5129 74.3987L46.5117 74.4Z" fill="#595996"/>
<path d="M61.3792 74.4004H46.5104L45.461 63.8166C45.4496 63.7066 45.4648 63.6004 45.4989 63.503C45.5343 63.4044 45.59 63.3146 45.6633 63.2413C45.6937 63.211 45.7265 63.1819 45.7619 63.1566C45.8782 63.0744 46.0199 63.0264 46.1754 63.0264H59.4864C59.9201 63.0264 60.283 63.3551 60.326 63.7875L61.3792 74.4004Z" fill="#AFA5FF"/>
<path d="M69.2571 74.4014V74.9046C69.2571 75.2725 68.9588 75.5709 68.5921 75.5709H55.4075C55.7438 75.5368 56.0055 75.2535 56.0055 74.9096V74.4026H69.2571V74.4014Z" fill="#6D69B5"/>
<path d="M56.0044 74.4014V74.9084C56.0044 75.2523 55.7427 75.5355 55.4064 75.5696H46.6242C46.2791 75.5696 45.9908 75.3066 45.9617 74.9627L45.9111 74.4014H56.0044Z" fill="#595996"/>
<path d="M58.6898 63.8929L54.4859 69.0059L53.9308 69.6811L53.1001 70.6925L52.5451 71.3677L50.7661 73.5323H47.915C47.6179 73.5323 47.3714 73.3085 47.3423 73.0139L46.4939 64.525C46.4598 64.1862 46.7266 63.8916 47.0667 63.8916H58.6898V63.8929Z" fill="white"/>
<path d="M59.605 73.5339H50.7646L53.0999 70.6942L53.9306 69.6827L54.4856 69.0076L55.4187 67.8722H55.4162L55.9712 67.1957H55.9738L56.855 66.1236H56.8525L57.4075 65.4472H57.4113L58.6871 63.8945H58.7553C59.0512 63.8945 59.299 64.1196 59.3281 64.4129L60.1752 72.903C60.2093 73.2419 59.9438 73.5352 59.6024 73.5352L59.605 73.5339Z" fill="#DDDDDD"/>
<path d="M73.2803 65.6533L72.4218 66.7002L71.6189 67.6775L71.1789 68.2124L70.3773 69.1897L69.9373 69.7258L69.1345 70.7019L68.6945 71.2379L67.8929 72.214L66.516 73.8906C66.4667 73.8425 66.4326 73.7793 66.4199 73.7072L64.9798 65.9176C64.9545 65.7798 65.0607 65.6546 65.1998 65.6546H73.279L73.2803 65.6533Z" fill="white"/>
<path d="M74.819 73.9888H66.7614C66.6678 73.9888 66.5806 73.9508 66.5173 73.8876L67.8942 72.2111L68.6958 71.235L69.1358 70.6989L70.3774 69.1868L71.179 68.2094L71.619 67.6746L72.4218 66.6973L73.2803 65.6504C73.4384 65.6618 73.5711 65.7768 73.599 65.9336L75.0378 73.7233C75.0631 73.8598 74.9581 73.9862 74.819 73.9862V73.9888Z" fill="#DDDDDD"/>
<path d="M40.1355 66.7003L39.8358 67.0644L39.4186 67.5727L39.0949 67.9646L38.5715 68.6006L38.249 68.9938L37.9873 69.3124L37.67 69.6993L36.5978 65.5485C36.5523 65.3702 36.6863 65.1982 36.8696 65.1982H39.2226C39.5298 65.1982 39.7991 65.4056 39.875 65.704L40.1329 66.699L40.1355 66.7003Z" fill="white"/>
<path d="M41.0647 71.8205H38.7092C38.4209 71.8205 38.1693 71.6258 38.0972 71.3464L37.6711 69.7002L37.9885 69.3133L38.2502 68.9947L38.5726 68.6015L39.0961 67.9655L39.4197 67.5736L39.837 67.0653L40.1366 66.7012L41.3618 71.4412C41.4111 71.6334 41.2657 71.8205 41.0672 71.8205H41.0647Z" fill="#DDDDDD"/>
<g opacity="0.3">
<path d="M54.5287 69.0879C54.473 69.0879 54.4161 69.0626 54.3757 69.0159C54.1595 68.7643 53.8459 68.6151 53.5159 68.6062C53.172 68.5961 52.8623 68.7428 52.665 69.007C52.6069 69.0841 52.4931 69.093 52.4096 69.0285C52.3262 68.9628 52.3047 68.8477 52.3628 68.7706C52.6246 68.4216 53.0342 68.2282 53.4894 68.2408C53.9319 68.2522 54.3529 68.4545 54.645 68.7946C54.7145 68.8755 54.7095 68.9893 54.6361 69.0513C54.6058 69.0766 54.5679 69.0892 54.5287 69.0892V69.0879Z" fill="#112130"/>
<path d="M55.0459 68.5465C54.9902 68.5465 54.9333 68.5212 54.8929 68.4744C54.5313 68.0534 54.0078 67.8043 53.4566 67.7891C52.8864 67.7765 52.3692 68.0167 52.0405 68.4554C51.9824 68.5326 51.8686 68.5414 51.7851 68.4769C51.7017 68.4112 51.6802 68.2961 51.7383 68.219C52.1303 67.6956 52.7473 67.4048 53.43 67.4237C54.0926 67.4414 54.7247 67.7436 55.1622 68.2531C55.2317 68.3341 55.2267 68.4478 55.1533 68.5098C55.123 68.5351 55.0851 68.5477 55.0459 68.5477V68.5465Z" fill="#112130"/>
<path d="M55.5489 67.9696C55.4958 67.9696 55.4402 67.9468 55.3997 67.9013C54.9003 67.3513 54.1721 67.0239 53.4046 67.0024C52.6055 66.9796 51.8811 67.2982 51.4183 67.8748C51.3576 67.9494 51.2426 67.9557 51.1617 67.8874C51.0795 67.8191 51.063 67.7041 51.1225 67.6295C51.6497 66.9746 52.4728 66.6117 53.3793 66.637C54.2542 66.661 55.0875 67.0378 55.6627 67.6712C55.7335 67.7496 55.7335 67.8647 55.6615 67.9291C55.6299 67.957 55.5907 67.9696 55.5502 67.9696H55.5489Z" fill="#112130"/>
<path d="M54.0426 70.0742C54.2597 69.846 54.2315 69.4668 53.9796 69.227C53.7277 68.9873 53.3475 68.9779 53.1304 69.2061C52.9133 69.4342 52.9415 69.8135 53.1934 70.0532C53.4453 70.2929 53.8255 70.3023 54.0426 70.0742Z" fill="#112130"/>
</g>
<g opacity="0.3">
<path d="M51.4374 51.514C51.3387 51.514 51.2313 51.4697 51.1491 51.385C50.7116 50.9349 50.1212 50.6681 49.5282 50.6517C48.9125 50.6365 48.3878 50.897 48.0868 51.3686C47.9983 51.5064 47.796 51.5228 47.6329 51.4065C47.4698 51.2889 47.4104 51.0828 47.4977 50.945C47.8959 50.3217 48.5913 49.9765 49.4068 49.998C50.1996 50.0195 50.9936 50.3799 51.5853 50.9893C51.7256 51.1334 51.7408 51.3382 51.6194 51.4482C51.5701 51.4937 51.5044 51.5152 51.4361 51.5152L51.4374 51.514Z" fill="#112130"/>
<path d="M52.2528 50.5434C52.1542 50.5434 52.0467 50.4992 51.9645 50.4145C51.2337 49.6622 50.2463 49.2146 49.2576 49.1893C48.2322 49.1602 47.3585 49.5964 46.8578 50.3816C46.7693 50.5194 46.567 50.5359 46.4039 50.4195C46.2408 50.3019 46.1814 50.0959 46.2686 49.958C46.8667 49.0212 47.9123 48.5028 49.1362 48.5357C50.3247 48.5673 51.5157 49.1084 52.4007 50.0187C52.5411 50.1629 52.5563 50.3677 52.4349 50.4777C52.3856 50.5232 52.3198 50.5447 52.2515 50.5447L52.2528 50.5434Z" fill="#112130"/>
<path d="M53.0392 49.5132C52.9444 49.5132 52.8407 49.4715 52.7585 49.3919C51.7534 48.4082 50.3879 47.8215 49.0097 47.7849C47.5747 47.7457 46.3432 48.3146 45.6301 49.3451C45.5378 49.4791 45.333 49.4905 45.1724 49.3691C45.0131 49.2477 44.9588 49.0404 45.0511 48.9064C45.8628 47.7343 47.2637 47.087 48.8884 47.1299C50.4587 47.1717 52.0227 47.8468 53.1796 48.9797C53.3224 49.12 53.3452 49.3261 53.2289 49.4399C53.1783 49.4892 53.1113 49.5132 53.0379 49.5132H53.0392Z" fill="#112130"/>
<path d="M50.7457 53.2965C51.1021 52.9005 50.9947 52.2227 50.5058 51.7827C50.0169 51.3426 49.3317 51.3069 48.9752 51.7029C48.6188 52.0989 48.7262 52.7767 49.2151 53.2167C49.704 53.6568 50.3893 53.6925 50.7457 53.2965Z" fill="#112130"/>
</g>
<g opacity="0.3">
<path d="M71.136 70.3363C71.093 70.3363 71.0462 70.3173 71.0108 70.2806C70.8212 70.0859 70.5645 69.9696 70.3078 69.9633C70.0411 69.957 69.8135 70.0695 69.682 70.2743C69.6441 70.3337 69.5555 70.3413 69.4847 70.2907C69.4139 70.2402 69.3874 70.1504 69.4266 70.091C69.5985 69.8204 69.9007 69.6712 70.2547 69.6801C70.5986 69.6889 70.9425 69.8457 71.1992 70.1099C71.2599 70.1719 71.2662 70.2617 71.2144 70.3084C71.1929 70.3274 71.1651 70.3375 71.1347 70.3375L71.136 70.3363Z" fill="#112130"/>
<path d="M71.4898 69.9144C71.4468 69.9144 71.4 69.8955 71.3646 69.8588C71.0473 69.5326 70.6199 69.3391 70.1913 69.3278C69.7462 69.3151 69.3669 69.5048 69.1507 69.8449C69.1128 69.9043 69.0243 69.9119 68.9535 69.8613C68.8827 69.8107 68.8561 69.721 68.8953 69.6616C69.1545 69.2557 69.6084 69.0306 70.1395 69.0446C70.6553 69.0585 71.1712 69.2924 71.5555 69.6881C71.6162 69.7501 71.6225 69.8398 71.5707 69.8866C71.5492 69.9056 71.5214 69.9157 71.491 69.9157L71.4898 69.9144Z" fill="#112130"/>
<path d="M71.8301 69.4668C71.7884 69.4668 71.7441 69.4491 71.7087 69.4137C71.2725 68.9863 70.6808 68.7322 70.0828 68.717C69.4607 68.7006 68.9259 68.9471 68.6174 69.3934C68.5769 69.4516 68.4884 69.4567 68.4189 69.4036C68.3494 69.3505 68.3266 69.2607 68.3658 69.2025C68.7173 68.6943 69.3254 68.4136 70.0309 68.4325C70.7124 68.4502 71.3901 68.7436 71.8921 69.2354C71.954 69.2961 71.9641 69.3859 71.9135 69.4352C71.8921 69.4567 71.8617 69.4668 71.8314 69.4668H71.8301Z" fill="#112130"/>
<path d="M70.8365 71.1103C70.9912 70.9386 70.9444 70.6444 70.7321 70.4533C70.5199 70.2623 70.2224 70.2466 70.0678 70.4184C69.9132 70.5902 69.9599 70.8844 70.1722 71.0754C70.3845 71.2665 70.6819 71.2821 70.8365 71.1103Z" fill="#112130"/>
</g>
<g opacity="0.3">
<path d="M39.5528 68.8244C39.5275 68.8244 39.5009 68.813 39.4807 68.7916C39.3707 68.6778 39.2215 68.6107 39.0723 68.607C38.9168 68.6032 38.7853 68.6689 38.7094 68.7878C38.6867 68.8219 38.6361 68.827 38.5957 68.7979C38.5552 68.7688 38.54 68.717 38.5615 68.6816C38.6614 68.5248 38.8371 68.4375 39.042 68.4426C39.2417 68.4476 39.4415 68.5387 39.5907 68.6917C39.6261 68.7283 39.6299 68.7802 39.5995 68.8067C39.5869 68.8181 39.5705 68.8232 39.5528 68.8232V68.8244Z" fill="#112130"/>
<path d="M39.7588 68.5804C39.7335 68.5804 39.7069 68.569 39.6867 68.5475C39.5021 68.3579 39.2543 68.2453 39.0052 68.239C38.7473 68.2314 38.5273 68.3414 38.4009 68.5387C38.3781 68.5728 38.3275 68.5779 38.2871 68.5488C38.2466 68.5197 38.2314 68.4679 38.2529 68.4325C38.4034 68.196 38.6664 68.0658 38.9749 68.0746C39.2745 68.0822 39.5742 68.2188 39.7967 68.4476C39.8321 68.4843 39.8359 68.5361 39.8055 68.5627C39.7929 68.5741 39.7765 68.5791 39.7588 68.5791V68.5804Z" fill="#112130"/>
<path d="M39.956 68.3214C39.932 68.3214 39.9054 68.3113 39.8852 68.2911C39.6323 68.0433 39.2884 67.8953 38.9407 67.8865C38.5791 67.8764 38.2694 68.0205 38.0898 68.2797C38.0671 68.3138 38.0152 68.3164 37.9748 68.286C37.9343 68.2557 37.9204 68.2038 37.9444 68.1697C38.1492 67.8751 38.502 67.712 38.9104 67.7221C39.3061 67.7322 39.6993 67.9029 39.9914 68.1874C40.0281 68.2228 40.0331 68.2746 40.004 68.3037C39.9914 68.3164 39.9737 68.3227 39.956 68.3227V68.3214Z" fill="#112130"/>
<path d="M39.3781 69.2752C39.4678 69.1755 39.4408 69.005 39.3178 68.8943C39.1948 68.7836 39.0224 68.7746 38.9327 68.8743C38.843 68.9739 38.87 69.1444 38.993 69.2552C39.116 69.3659 39.2884 69.3748 39.3781 69.2752Z" fill="#112130"/>
</g>
</g>
<defs>
<clipPath id="clip0_6882_101073">
<rect width="130" height="130" fill="white"/>
</clipPath>
<clipPath id="clip1_6882_101073">
<rect width="42.367" height="35.2804" fill="white" transform="translate(33.6331 40.3594)"/>
</clipPath>
</defs>
</svg>
