<svg width="81" height="80" viewBox="0 0 81 80" fill="none" xmlns="http://www.w3.org/2000/svg">
<g clip-path="url(#clip0_6861_106570)">
<path d="M61.3997 4.51564L65.587 16.295C65.9062 17.1913 66.4104 18.0105 67.0668 18.6992C67.7233 19.3879 68.5174 19.9307 69.3974 20.2924C70.2775 20.6542 71.2238 20.8266 72.1748 20.7987C73.1259 20.7707 74.0604 20.5429 74.9177 20.1301L86.2106 14.7631C91.9745 12.0238 97.9899 18.0392 95.2505 23.8087L89.8836 35.096C89.476 35.9538 89.2529 36.8875 89.2288 37.8369C89.2047 38.7863 89.3801 39.7301 89.7437 40.6075C90.1073 41.4848 90.6509 42.276 91.3395 42.9301C92.0281 43.5841 92.8462 44.0863 93.7411 44.4043L105.515 48.5917C106.836 49.0608 107.979 49.9275 108.788 51.0727C109.596 52.2179 110.03 53.5854 110.03 54.9873C110.03 56.3891 109.596 57.7566 108.788 58.9018C107.979 60.047 106.836 60.9137 105.515 61.3829L93.7411 65.5702C92.847 65.8883 92.0295 66.3904 91.3414 67.044C90.6534 67.6976 90.11 68.4883 89.7465 69.3649C89.383 70.2416 89.2074 71.1847 89.231 72.1335C89.2546 73.0822 89.4769 74.0154 89.8836 74.8729L95.2505 86.1659C95.8503 87.4311 96.0441 88.8508 95.8053 90.2304C95.5665 91.6101 94.9069 92.8821 93.9169 93.8721C92.9268 94.8622 91.6548 95.5218 90.2752 95.7606C88.8955 95.9993 87.4758 95.8056 86.2106 95.2058L74.9177 89.8389C74.0602 89.4322 73.1269 89.2099 72.1782 89.1863C71.2295 89.1627 70.2863 89.3383 69.4097 89.7018C68.533 90.0653 67.7424 90.6086 67.0887 91.2967C66.4351 91.9847 65.933 92.8022 65.615 93.6964L61.4276 105.47C60.9585 106.791 60.0917 107.934 58.9466 108.743C57.8014 109.552 56.4339 109.986 55.032 109.986C53.6301 109.986 52.2626 109.552 51.1175 108.743C49.9723 107.934 49.1055 106.791 48.6364 105.47L44.4491 93.6964C44.1311 92.8015 43.6288 91.9833 42.9748 91.2948C42.3208 90.6062 41.5295 90.0625 40.6522 89.699C39.7749 89.3354 38.831 89.16 37.8816 89.1841C36.9323 89.2082 35.9985 89.4313 35.1408 89.8389L23.8534 95.2058C18.0839 97.9452 12.0685 91.9297 14.8079 86.1659L20.1301 74.9176C20.5378 74.0607 20.7611 73.1276 20.7855 72.1789C20.8099 71.2302 20.6349 70.287 20.2719 69.4101C19.9088 68.5333 19.3657 67.7424 18.6778 67.0887C17.9899 66.4349 17.1724 65.9329 16.2782 65.6149L4.51564 61.3997C3.19459 60.9305 2.05124 60.0638 1.24267 58.9186C0.434107 57.7734 0 56.4059 0 55.004C0 53.6022 0.434107 52.2347 1.24267 51.0895C2.05124 49.9443 3.19459 49.0776 4.51564 48.6084L16.295 44.4211C17.1879 44.1008 18.0037 43.5969 18.6898 42.9419C19.376 42.2868 19.9172 41.4953 20.2786 40.6182C20.6399 39.7411 20.8134 38.798 20.7879 37.8498C20.7623 36.9015 20.5382 35.9691 20.1301 35.1128L14.7631 23.8255C14.1569 22.5578 13.959 21.1332 14.1969 19.7483C14.4348 18.3633 15.0967 17.0864 16.0913 16.0937C17.0858 15.101 18.364 14.4415 19.7493 14.2062C21.1347 13.9708 22.5589 14.1713 23.8255 14.7799L35.1128 20.1301C35.9702 20.5378 36.9036 20.7612 37.8527 20.7856C38.8018 20.8101 39.7455 20.6352 40.6227 20.2721C41.5 19.9091 42.2913 19.3661 42.9456 18.6781C43.5999 17.9901 44.1025 17.1726 44.4211 16.2782L48.6084 4.51564C49.0776 3.19459 49.9443 2.05124 51.0895 1.24267C52.2347 0.434107 53.6022 0 55.0041 0C56.4059 0 57.7734 0.434107 58.9186 1.24267C60.0638 2.05124 60.9305 3.19459 61.3997 4.51564Z" fill="#FE5E02"/>
</g>
<path d="M33.8353 41.3448C33.8716 41.5201 33.928 41.7017 34.0056 41.8882L47.9611 41.6679H48.1038C47.9097 41.3536 47.6693 41.0543 47.3951 40.7789C46.3547 39.7272 44.8309 39.001 43.5 39.0185L42.1941 39.036L41.3327 37.1179C40.7818 35.8921 39.238 34.9581 37.8832 35.0319C37.2059 35.0682 36.705 35.35 36.4421 35.7744C36.4421 35.7994 36.4459 35.827 36.4496 35.852C36.4747 36.0536 36.5348 36.2652 36.6324 36.4818L37.4037 38.2009L36.7989 38.2084L37.1996 39.1024L35.8298 39.1212C34.9321 39.1337 34.2936 39.4818 33.9881 40.0352C33.7877 40.397 33.7289 40.8452 33.8341 41.3448H33.8353Z" fill="#0573FF"/>
<path d="M29.3918 40.289L38.7484 61.9496C39.0339 62.612 39.7864 63.0953 40.5088 63.0828L60.3665 62.7535C60.5268 62.751 60.667 62.7146 60.7835 62.652C60.8962 62.5932 60.9863 62.5093 61.0489 62.4091C61.1766 62.2101 61.1966 61.9434 61.0764 61.6629L51.7724 39.9947C51.4882 39.3324 50.7344 38.8466 50.0107 38.8591L30.1017 39.1959C29.7687 39.2022 29.517 39.3537 29.3968 39.5816L29.3843 39.6028C29.3367 39.7005 29.3104 39.8132 29.3129 39.9321C29.3129 40.0461 29.3392 40.1663 29.393 40.2902L29.3918 40.289Z" fill="#9CE8FF"/>
<mask id="mask0_6861_106570" style="mask-type:luminance" maskUnits="userSpaceOnUse" x="29" y="38" width="33" height="26">
<path d="M29.3918 40.289L38.7484 61.9496C39.0339 62.612 39.7864 63.0953 40.5088 63.0828L60.3665 62.7535C60.5268 62.751 60.667 62.7146 60.7835 62.652C60.8962 62.5932 60.9863 62.5093 61.0489 62.4091C61.1766 62.2101 61.1966 61.9434 61.0764 61.6629L51.7724 39.9947C51.4882 39.3324 50.7344 38.8466 50.0107 38.8591L30.1017 39.1959C29.7687 39.2022 29.517 39.3537 29.3968 39.5816L29.3843 39.6028C29.3367 39.7005 29.3104 39.8132 29.3129 39.9321C29.3129 40.0461 29.3392 40.1663 29.393 40.2902L29.3918 40.289Z" fill="white"/>
</mask>
<g mask="url(#mask0_6861_106570)">
<path d="M57.5169 63.1457C53.4765 60.614 51.8351 53.501 55.739 48.2962C57.0762 46.5671 58.7828 46.1502 59.2773 47.9932C59.8032 49.6221 58.8892 53.1392 57.7173 55.4743C55.6539 59.7651 51.5434 64.7546 47.1111 66.3046C39.8191 68.1589 38.6647 57.266 41.3078 49.6848C42.2305 46.9615 43.7255 44.1344 45.6499 41.7354C46.9082 40.1716 48.7062 38.3774 50.3226 38.018C52.6665 37.675 52.4085 40.5685 51.656 42.6419C49.4411 48.3188 43.4175 54.2548 37.5954 56.5936C24.7017 61.8035 27.5526 46.7674 32.8851 39.2939C34.0621 37.6287 35.3843 36.2501 36.7916 35.3862C39.0328 33.9639 41.637 33.9776 43.142 35.2948C46.6516 38.266 42.2218 44.669 36.2419 46.9127C32.8013 48.3438 29.2467 48.643 26.0076 48.5629" stroke="#00C3FF" stroke-width="0.626031" stroke-miterlimit="10"/>
</g>
<path d="M29.02 40.9237L38.3767 62.5844C38.6622 63.2455 39.4146 63.73 40.1371 63.7175L59.9948 63.3882C60.3429 63.3832 60.6008 63.2192 60.7172 62.975L61.049 62.4091C60.9864 62.5093 60.8963 62.5932 60.7836 62.652C60.6671 62.7134 60.5269 62.7497 60.3666 62.7534L40.5089 63.0827C39.7865 63.094 39.034 62.6107 38.7486 61.9496L29.3919 40.2889C29.3381 40.165 29.313 40.0435 29.3118 39.9309C29.3093 39.8119 29.3356 39.7005 29.3831 39.6016L29.0814 40.1224L29.0751 40.1324C28.9211 40.3365 28.8873 40.622 29.0188 40.9237H29.02Z" fill="#02B6FF"/>
<path d="M57.7598 56.1891L43.7717 56.2379L51.4156 41.7778L57.7335 56.1265L57.7385 56.139L57.7598 56.1891Z" fill="#FFDACA"/>
<path d="M51.4155 41.7776L43.7729 56.2364L37.2184 56.2589L37.1896 56.1901L37.1044 55.996L30.4109 40.6395C30.297 40.3778 30.4485 40.1411 30.7315 40.1349L50.0783 39.6866C50.3137 39.6816 50.5591 39.8381 50.6543 40.0522L51.1563 41.1916L51.4143 41.7788L51.4155 41.7776Z" fill="#FFC7B3"/>
<path d="M58.6589 58.2286L42.8792 57.9281L43.7719 56.2378L57.7599 56.189L58.6576 58.2273L58.6589 58.2286Z" fill="#FFC7B3"/>
<path d="M43.7718 56.2378L42.8791 57.9281L42.2793 57.9156L41.0598 57.8918C40.9309 57.8755 40.7956 57.9243 40.6617 58.0721C40.3875 58.4226 40.3073 59.075 40.0657 59.4568C39.9455 59.6597 39.779 59.7674 39.5912 59.7736H39.5611C39.4447 59.7736 39.3157 59.7298 39.1867 59.6497C38.7423 59.373 38.3779 58.8083 38.0787 58.2323L37.2185 56.2603L43.773 56.2378H43.7718Z" fill="#FFA68A"/>
<path d="M46.813 63.3296C46.813 63.3296 46.8142 63.3321 46.8142 63.3333" stroke="#CBD7EE" stroke-width="0.128962" stroke-miterlimit="10"/>
<path d="M41.0623 57.8931C41.5506 57.9594 41.9938 58.9648 42.0952 59.4031C42.134 59.5433 42.1703 59.6835 42.2004 59.825C42.7175 62.12 42.3356 64.4213 43.9858 66.4784C44.5843 67.2372 45.4946 68.016 46.4586 68.1525C46.5588 68.1662 46.6552 68.1725 46.7479 68.17H46.7504C47.7983 68.15 48.2378 67.1621 48.0412 66.1805C47.8772 65.2051 47.3326 64.241 46.8167 63.3333L63.4679 63.6513C63.2701 62.3917 63.2525 61.0921 62.8919 59.8012C62.7843 59.3404 62.301 58.2537 61.7826 58.2887H61.7776L58.6763 58.2299H58.6587L41.0623 57.8931Z" fill="#FFDACA"/>
<path d="M41.0034 57.8916L41.0623 57.8929" stroke="#CBD7EE" stroke-width="0.128962" stroke-miterlimit="10"/>
<path d="M61.7815 58.2876L61.8253 58.2889" stroke="#CBD7EE" stroke-width="0.128962" stroke-miterlimit="10"/>
<path d="M50.5078 43.4943L49.5162 45.3699L48.929 45.3786C48.6786 45.3824 48.3843 45.1783 48.2729 44.9229L47.4014 42.9434C47.2888 42.6892 47.4015 42.4789 47.6494 42.4739L49.5838 42.4376C49.8342 42.4338 50.1284 42.6366 50.2411 42.892L50.5078 43.4943Z" fill="#02B6FF"/>
<path d="M46.0055 43.909L34.176 44.1118C33.9243 44.1156 33.6288 43.9115 33.5149 43.6561L33.2808 43.1277C33.1668 42.8723 33.2783 42.6607 33.5299 42.6569L45.3369 42.4391C45.5935 42.434 45.8965 42.6394 46.0142 42.8986L46.2571 43.4319C46.3748 43.6911 46.2621 43.904 46.0055 43.909Z" fill="#FFF0EB"/>
<path d="M47.012 46.12L35.15 46.3015C34.8983 46.3053 34.6016 46.1 34.4864 45.8433L34.251 45.3137C34.137 45.057 34.2485 44.8454 34.5001 44.8416L46.3409 44.6451C46.5976 44.6413 46.9018 44.8479 47.0195 45.1071L47.2637 45.643C47.3826 45.9034 47.2699 46.1162 47.012 46.1213V46.12Z" fill="#FFF0EB"/>
<path d="M49.2921 44.4736C49.2558 44.4736 49.2132 44.4611 49.1719 44.4323L48.4331 43.9202C48.3518 43.8639 48.3117 43.7712 48.3417 43.7136C48.3718 43.656 48.4632 43.6535 48.5433 43.7099L49.1356 44.1205L49.5926 43.2541C49.6226 43.1965 49.714 43.194 49.7941 43.2504C49.8743 43.3067 49.9156 43.3993 49.8855 43.4569L49.3722 44.4285C49.3572 44.4573 49.3271 44.4724 49.2896 44.4736H49.2921Z" fill="white"/>
<path d="M53.6155 51.3825L51.6586 51.4038C51.4069 51.4063 51.1102 51.1985 50.9962 50.9406L50.116 48.9398C50.0021 48.6819 50.1148 48.4703 50.3652 48.4678L52.3146 48.4415C52.5663 48.4377 52.8643 48.6443 52.9782 48.9035L53.8659 50.908C53.9811 51.1672 53.8685 51.38 53.6155 51.3825Z" fill="#02B6FF"/>
<path d="M48.854 49.9965L36.9319 50.1405C36.6789 50.143 36.3797 49.9364 36.2645 49.6772L36.0279 49.1438C35.9127 48.8847 36.0254 48.6731 36.2783 48.6693L48.1779 48.5103C48.4358 48.5065 48.7413 48.7156 48.8602 48.9773L49.1056 49.517C49.2246 49.7786 49.1119 49.994 48.8527 49.9965H48.854Z" fill="#FFF0EB"/>
<path d="M49.8717 52.2327L37.9158 52.3554C37.6616 52.3579 37.3624 52.1488 37.2472 51.8896L37.0093 51.3538C36.8941 51.0946 37.0068 50.8817 37.2597 50.878L49.1931 50.7403C49.4523 50.7378 49.7591 50.9481 49.878 51.2098L50.1247 51.7507C50.2449 52.0136 50.1309 52.229 49.8717 52.2315V52.2327Z" fill="#FFF0EB"/>
<path d="M52.024 50.4922C51.9877 50.4922 51.9439 50.4785 51.9025 50.4497L51.1563 49.9288C51.0749 49.8725 51.0336 49.7786 51.0649 49.7197C51.0962 49.6609 51.1864 49.6609 51.2677 49.7172L51.8662 50.1341L52.3257 49.2627C52.357 49.2039 52.4472 49.2026 52.5298 49.2602C52.6125 49.3178 52.6525 49.4104 52.6225 49.4693L52.1066 50.4472C52.0916 50.476 52.0603 50.491 52.024 50.4922Z" fill="white"/>
<path d="M56.4851 57.4847L54.5131 57.496C54.2589 57.4985 53.9597 57.2869 53.8445 57.0252L53.4827 56.2039L54.2827 56.2001L54.7573 56.5344C54.7973 56.5632 54.8412 56.5782 54.8787 56.5782C54.9163 56.5782 54.9463 56.5632 54.9614 56.5332L55.1391 56.1976L56.3762 56.1938L56.7368 57.0064C56.8532 57.2694 56.7405 57.4835 56.4851 57.4847Z" fill="#0573FF"/>
<path d="M56.3762 56.1943L55.1392 56.1981H54.7298L54.7198 56.2168L54.6947 56.1993H54.2815L53.4815 56.2031L52.9531 55.0023C52.8392 54.7407 52.9506 54.5291 53.2035 54.5266L55.168 54.5103C55.4222 54.5078 55.7214 54.7181 55.8379 54.9798L56.375 56.193L56.3762 56.1943Z" fill="#02B6FF"/>
<path d="M51.5784 56.1529L39.5624 56.2368C39.307 56.238 39.0052 56.0277 38.89 55.766L38.6509 55.2264C38.5345 54.9647 38.6471 54.7518 38.9026 54.7493L50.8948 54.6504C51.1552 54.6479 51.4632 54.8608 51.5834 55.1249L51.8313 55.6708C51.9515 55.935 51.8389 56.1516 51.5772 56.1529H51.5784Z" fill="#FFF0EB"/>
<path d="M52.6075 58.4152L40.5564 58.4778C40.2997 58.4791 39.998 58.2675 39.8815 58.0045L39.6411 57.4624C39.5247 57.1994 39.6374 56.9853 39.8928 56.9841L51.9201 56.9077C52.1805 56.9065 52.491 57.1193 52.6112 57.3848L52.8604 57.9319C52.9818 58.1973 52.8679 58.4139 52.6062 58.4152H52.6075Z" fill="#FFF0EB"/>
<path d="M54.1163 55.7936L54.696 56.1993H54.2828L54.0048 56.0052C53.9222 55.9477 53.8809 55.8525 53.9109 55.7936C53.9422 55.7348 54.0336 55.7348 54.115 55.7936H54.1163Z" fill="white"/>
<path d="M55.4809 55.5504L55.1404 56.1977H54.731L55.183 55.34C55.213 55.2812 55.3057 55.2812 55.3883 55.34C55.4697 55.3976 55.5122 55.4928 55.4809 55.5516V55.5504Z" fill="white"/>
<path d="M46.8081 63.332H46.8156" stroke="#CBD7EE" stroke-width="0.128962" stroke-miterlimit="10"/>
<path d="M46.6941 68.1675L46.7479 68.1687" stroke="#CBD7EE" stroke-width="0.128962" stroke-miterlimit="10"/>
<path d="M39.5898 59.7739L42.2004 59.8239C42.1691 59.6837 42.134 59.5435 42.0952 59.402C41.9938 58.965 41.5506 57.9596 41.0623 57.892C40.9321 57.8745 40.7968 57.9246 40.6641 58.0723C40.3887 58.4229 40.3073 59.0752 40.0656 59.4558C39.9442 59.6587 39.7789 59.7664 39.5898 59.7726V59.7739Z" fill="#FF7631"/>
<path d="M34.0394 40.443C34.0758 40.6183 34.1321 40.7998 34.2097 40.9864L47.3964 40.7785L48.1652 40.766H48.3079C47.3726 39.256 45.3856 38.0941 43.7041 38.1166L42.3982 38.1342L41.5368 36.216C40.9871 34.9902 39.4433 34.0562 38.0899 34.1301C37.1734 34.1802 36.5786 34.6772 36.4597 35.3734C36.4384 35.5011 36.4321 35.6351 36.4434 35.7753C36.4434 35.8003 36.4472 35.8279 36.4509 35.8529C36.476 36.0545 36.5361 36.2661 36.6337 36.4827L37.405 38.2018L36.8002 38.2093L36.0352 38.2206C34.7168 38.2393 33.9556 38.9843 33.9894 40.036C33.9944 40.1675 34.0106 40.304 34.0394 40.4442V40.443Z" fill="#02B6FF"/>
<path d="M34.2737 41.4959L34.2098 40.9863C34.1322 40.801 34.0759 40.6182 34.0396 40.4429C34.0533 40.7709 34.1297 41.1252 34.2737 41.4959Z" fill="#0573FF"/>
<path d="M34.2097 40.9865L34.2736 41.4961L48.3455 41.0566C48.2891 40.9577 48.229 40.8625 48.1664 40.7661L34.211 40.9852L34.2097 40.9865Z" fill="#B7C8E9"/>
<path d="M38.1337 36.0284C38.1412 36.0885 38.1587 36.1474 38.1863 36.2037C38.309 36.0234 38.5707 35.9245 38.8912 35.9621C39.3081 36.0109 39.6825 36.2751 39.8014 36.5831C39.8014 36.5831 39.8039 36.5806 39.8039 36.5794C39.8828 36.4867 39.9216 36.369 39.9054 36.235C39.8603 35.8732 39.4271 35.5351 38.9388 35.4775C38.4505 35.4199 38.1149 35.6516 38.1312 35.9921C38.1312 36.0047 38.1337 36.0172 38.1349 36.0297L38.1337 36.0284Z" fill="#0573FF"/>
<path d="M38.1863 36.2034C38.3228 36.4939 38.6921 36.738 39.1015 36.7856C39.4083 36.8206 39.6625 36.738 39.8014 36.5815C39.6825 36.2747 39.3081 36.0093 38.8912 35.9605C38.5719 35.9229 38.3102 36.0231 38.1863 36.2021V36.2034Z" fill="#1A473F"/>
<path d="M34.2097 40.9865L34.2736 41.4961L34.4589 41.4936L48.373 41.2745L48.3104 40.7662C48.3104 40.7662 48.3092 40.7662 48.3092 40.7637L48.1664 40.7662L48.0099 40.7687L34.211 40.9853L34.2097 40.9865Z" fill="#0573FF"/>
<path d="M36.2468 36.7546C36.2719 36.9561 36.332 37.1677 36.4296 37.3843L36.8002 38.2095L37.405 38.2019L36.6337 36.4829C36.5361 36.2663 36.476 36.0547 36.4509 35.8531C36.4472 35.8268 36.4447 35.8005 36.4434 35.7754C36.4321 35.6365 36.4384 35.5012 36.4597 35.3735L36.2919 36.1135C36.2343 36.3101 36.218 36.5254 36.2468 36.7546Z" fill="#0573FF"/>
<path d="M42.8589 64.1809C43.063 64.971 43.3935 65.7398 43.9857 66.4785C44.5842 67.2372 45.4945 68.016 46.4586 68.1525C46.5587 68.1662 46.6551 68.1725 46.7478 68.17H46.7503C47.7983 68.15 48.2377 67.1621 48.0412 66.1805C47.956 65.6746 47.7695 65.1726 47.5353 64.6793L44.573 64.6041L44.4978 64.216L42.8601 64.1797L42.8589 64.1809Z" fill="#FFB89F"/>
<path d="M41.0623 57.8931C41.5506 57.9594 41.9939 58.9648 42.0953 59.4031C42.1341 59.5433 42.1704 59.6835 42.2004 59.825C42.5322 61.2962 42.4947 62.7711 42.859 64.1822L47.3351 64.2786C47.1699 63.9581 46.9908 63.6438 46.8143 63.3333L63.4655 63.6513C63.2676 62.3917 63.2501 61.0921 62.8895 59.8012C62.7818 59.3404 62.2985 58.2537 61.7802 58.2887H61.7752L58.6738 58.2299H58.6563L41.0598 57.8931H41.0623Z" fill="#FFDACA"/>
<path d="M44.4966 64.2158L44.5717 64.604L47.5341 64.6791C47.4715 64.5451 47.4039 64.4111 47.335 64.2784L44.4966 64.2171V64.2158Z" fill="#FFDACA"/>
<path d="M39.5898 59.7739L42.2004 59.8239C42.1691 59.6837 42.134 59.5435 42.0952 59.402C41.9938 58.965 41.5506 57.9596 41.0623 57.892C40.9321 57.8745 40.7968 57.9246 40.6641 58.0723C40.3887 58.4229 40.3073 59.0752 40.0656 59.4558C39.9442 59.6587 39.7789 59.7664 39.5898 59.7726V59.7739Z" fill="#FF7631"/>
<path d="M46.7491 68.1687L67.3893 68.5619C68.5487 68.642 69.0408 67.6066 68.8354 66.5774C68.6714 65.602 68.1267 64.6367 67.6096 63.7289L63.4653 63.6501L46.8142 63.332C47.33 64.2398 47.8747 65.2039 48.0387 66.1792C48.2353 67.1608 47.7958 68.1475 46.7478 68.1687H46.7491Z" fill="#FF7631"/>
<mask id="mask1_6861_106570" style="mask-type:luminance" maskUnits="userSpaceOnUse" x="46" y="63" width="23" height="6">
<path d="M46.7491 68.1687L67.3893 68.5619C68.5487 68.642 69.0408 67.6066 68.8354 66.5774C68.6714 65.602 68.1267 64.6367 67.6096 63.7289L63.4653 63.6501L46.8142 63.332C47.33 64.2398 47.8747 65.2039 48.0387 66.1792C48.2353 67.1608 47.7958 68.1475 46.7478 68.1687H46.7491Z" fill="white"/>
</mask>
<g mask="url(#mask1_6861_106570)">
<path d="M38.5706 63.9842L37.3899 64.4487L32.9364 57.9405L33.4184 57.7515L34.3825 57.8629L38.5719 63.9842H38.5706ZM37.003 58.1659L40.1808 59.5507L40.49 58.5703L37.0043 58.1659H37.003ZM35.2051 66.248L34.0244 66.7125L38.478 73.2207L39.6587 72.7562L35.2051 66.248ZM34.6166 64.132L34.2585 65.2688L41.2688 68.3239L41.6269 67.187L34.6166 64.132ZM32.9138 61.897L33.0904 63.3206L33.1329 63.3432L33.6187 62.2677L32.9138 61.8983V61.897ZM39.1503 81.3866L40.6653 81.5619L40.748 81.5294L36.2944 75.0211L35.1137 75.4857L39.1516 81.3866H39.1503ZM40.2709 76.9017L39.7851 77.9773L48.1877 82.3833L48.6735 81.3077L40.2709 76.9017ZM35.3466 74.042L42.3569 77.0971L42.715 75.9602L35.7047 72.9052L35.3466 74.042ZM34.0019 70.6702L34.1784 72.0938L34.221 72.1164L34.7068 71.0408L34.0019 70.6715V70.6702ZM43.7842 81.925L42.2216 79.7777L41.0685 80.2836L42.1227 81.7322L43.783 81.925H43.7842ZM35.0899 79.4434L35.2664 80.867L35.309 80.8896L35.7948 79.814L35.0899 79.4447V79.4434ZM47.2599 59.3566L46.2958 59.2452L45.8138 59.4342L50.2674 65.9424L51.4481 65.4779L47.2587 59.3566H47.2599ZM41.3314 58.812L41.5906 58.698L41.2175 58.6542L41.3314 58.8107V58.812ZM49.8818 59.6609L53.0595 61.0456L53.3687 60.0653L49.883 59.6609H49.8818ZM44.4966 61.5139L44.7683 59.0674L43.3072 58.8984L43.063 61.092L44.4966 61.5139ZM46.9018 68.2074L51.3554 74.7156L52.5361 74.2511L48.0825 67.7429L46.9018 68.2074ZM40.0456 62.2313L38.8924 62.7372L42.4195 67.5864L43.5726 67.0806L40.0456 62.2313ZM54.5044 68.682L47.4941 65.6269L47.136 66.7638L54.1463 69.8188L54.5044 68.682ZM52.923 63.725L51.7699 64.2309L55.2969 69.0801L56.4501 68.5743L52.923 63.725ZM38.0948 59.3554L37.609 60.4309L46.0116 64.8369L46.4974 63.7614L38.0948 59.3554ZM46.0417 66.1816L44.6081 65.7596L44.1511 69.8652L45.5847 70.2871L46.0417 66.1816ZM52.0278 82.8816L53.5428 83.0569L53.6254 83.0243L49.1718 76.5161L47.9911 76.9806L52.029 82.8816H52.0278ZM53.1496 78.3955L52.6638 79.471L61.0664 83.877L61.5522 82.8015L53.1496 78.3955ZM41.1336 71.0045L39.9805 71.5104L43.5075 76.3596L44.6607 75.8538L41.1336 71.0045ZM48.2253 75.537L55.2356 78.592L55.5937 77.4552L48.5834 74.4001L48.2253 75.537ZM47.0997 73.6101L47.5855 72.5346L39.1829 68.1285L38.6971 69.2041L47.0997 73.6101ZM47.1297 74.9548L45.6961 74.5328L45.2391 78.6383L46.6727 79.0603L47.1297 74.9548ZM56.6617 83.4187L55.0991 81.2714L53.9459 81.7773L55.0002 83.2259L56.6604 83.4187H56.6617ZM60.1386 60.8516L59.1746 60.7401L58.6925 60.9292L63.1461 67.4374L64.3268 66.9729L60.1374 60.8516H60.1386ZM63.851 62.344L63.3652 63.4195L71.0529 67.4499L70.8763 66.0263L63.8523 62.3428L63.851 62.344ZM54.2101 60.3069L54.4693 60.193L54.0962 60.1492L54.2101 60.3057V60.3069ZM62.7592 61.1558L65.9369 62.5406L66.2462 61.5602L62.7605 61.1558H62.7592ZM57.3753 63.0076L57.647 60.5611L56.1859 60.3921L55.9417 62.5857L57.3753 63.0076ZM59.7805 69.7024L64.2341 76.2106L65.4148 75.7461L60.9612 69.2379L59.7793 69.7024H59.7805ZM64.939 71.1172L64.4532 72.1927L72.1409 76.2231L71.9644 74.7995L64.9403 71.116L64.939 71.1172ZM67.3831 70.1757L60.3728 67.1206L60.0147 68.2575L67.025 71.3125L67.3831 70.1757ZM65.8017 65.22L64.6486 65.7258L68.1756 70.5751L69.3288 70.0692L65.8017 65.22ZM50.9736 60.8503L50.4878 61.9258L58.8903 66.3318L59.3761 65.2563L50.9736 60.8503ZM58.9204 67.6753L57.4868 67.2534L57.0298 71.3589L58.4634 71.7808L58.9204 67.6753ZM64.9065 84.3753L66.4215 84.5506L66.5041 84.518L62.0505 78.0098L60.8686 78.4743L64.9065 84.3753ZM54.0111 72.4982L52.8579 73.0041L56.385 77.8533L57.5381 77.3475L54.0111 72.4982ZM68.113 80.0857L68.4711 78.9489L61.4608 75.8938L61.1027 77.0307L68.113 80.0857ZM59.9784 75.105L60.4642 74.0295L52.0616 69.6235L51.5758 70.699L59.9784 75.105ZM60.0084 76.4485L58.5748 76.0266L58.1178 80.1321L59.5514 80.554L60.0084 76.4485ZM69.5404 84.9137L67.9778 82.7664L66.8246 83.2722L67.8789 84.7209L69.5391 84.9137H69.5404ZM73.2289 84.9976L73.0524 83.574L66.0283 79.8904L65.5425 80.9659L73.2302 84.9963L73.2289 84.9976ZM67.0888 61.8006L67.348 61.6867L66.9749 61.6429L67.0888 61.7994V61.8006ZM70.3818 62.0398L69.0646 61.887L68.8204 64.0806L70.254 64.5026L70.4594 62.6595L70.383 62.0398H70.3818ZM70.3655 68.7483L69.9085 72.8538L71.3421 73.2758L71.5474 71.4327L71.2469 69.0075L70.3667 68.7483H70.3655ZM69.2649 79.347L70.4181 78.8412L66.891 73.992L65.7379 74.4978L69.2649 79.347ZM72.4301 82.049L72.6355 80.2059L72.335 77.7807L71.4548 77.5215L70.9978 81.627L72.4314 82.049H72.4301Z" fill="#FFAC88"/>
</g>
<path d="M61.8352 62.3293C61.1365 62.3293 60.4379 62.3293 59.7392 62.3293C59.4688 62.3293 59.2259 62.1064 59.182 61.8297C59.0719 61.1185 58.9003 60.4036 58.675 59.6949C58.5886 59.4207 58.7213 59.1991 58.9842 59.1991C59.6653 59.1966 60.3465 59.1954 61.0276 59.1929C61.2905 59.1929 61.5973 59.412 61.6962 59.6862C61.9516 60.3961 62.1394 61.1135 62.2559 61.8272C62.3009 62.1039 62.1056 62.328 61.8352 62.328V62.3293Z" fill="#02B6FF"/>
<path d="M57.1801 60.729C52.9418 60.7378 48.7024 60.7453 44.4629 60.7541C44.1924 60.7541 43.942 60.5312 43.9045 60.2557C43.8782 60.0667 43.8519 59.8764 43.8268 59.6873C43.7905 59.4119 43.9746 59.1877 44.24 59.1877C48.4006 59.174 52.5587 59.1614 56.713 59.1489C56.9835 59.1489 57.2827 59.3718 57.3729 59.6485C57.4342 59.8401 57.4918 60.0304 57.5457 60.2232C57.6245 60.5024 57.4555 60.729 57.1801 60.7303V60.729Z" fill="#FFF0EB"/>
<path d="M57.5658 63.1115H44.791C44.5193 63.1115 44.2689 62.8874 44.2314 62.6107C44.2051 62.4204 44.1788 62.2301 44.1525 62.0398C44.1149 61.7631 44.3027 61.5389 44.5744 61.5389C48.8339 61.5339 53.0935 61.5289 57.353 61.5239C57.6297 61.5239 57.8989 61.7505 57.9427 62.031C57.9727 62.2238 57.9978 62.4154 58.0203 62.607C58.0516 62.8862 57.8425 63.1115 57.5658 63.1115Z" fill="#FFF0EB"/>
<path d="M60.4067 61.3652C60.3679 61.3652 60.3254 61.3502 60.289 61.3189C60.0687 61.1311 59.8433 60.9446 59.6154 60.7567C59.5403 60.6954 59.5165 60.5952 59.5591 60.5339C59.6029 60.4725 59.6993 60.4725 59.7757 60.5339C59.961 60.6841 60.1451 60.8344 60.3266 60.9846C60.5545 60.6766 60.7698 60.3699 60.9702 60.0631C61.0102 60.0018 61.1066 60.0018 61.1855 60.0631C61.2644 60.1245 61.2957 60.2234 61.2544 60.286C61.0228 60.6303 60.7736 60.9746 60.5069 61.3202C60.4831 61.3515 60.4468 61.3665 60.4067 61.3665V61.3652Z" fill="white"/>
<path d="M55.1403 56.1978L54.9626 56.5333C54.9475 56.5621 54.9162 56.5771 54.8799 56.5784C54.8424 56.5784 54.7985 56.5646 54.7585 56.5346L54.2839 56.2003H54.6971L54.7222 56.2165L54.7322 56.199H55.1416L55.1403 56.1978Z" fill="#E2E2E2"/>
<path d="M50.8708 45.3489L49.5161 45.3702L50.5077 43.4946L51.1188 44.8757C51.2327 45.1323 51.1213 45.3439 50.8708 45.3477V45.3489Z" fill="#29CDFF"/>
<defs>
<clipPath id="clip0_6861_106570">
<rect width="110" height="110" fill="white"/>
</clipPath>
</defs>
</svg>
