<svg width="86" height="86" viewBox="0 0 86 86" fill="none" xmlns="http://www.w3.org/2000/svg">
<g clip-path="url(#clip0_6882_99774)">
<path d="M72.5584 5.33178L77.507 19.2528C77.8842 20.3121 78.4801 21.2802 79.2559 22.0941C80.0318 22.9081 80.9702 23.5496 82.0103 23.9771C83.0503 24.4046 84.1687 24.6084 85.2926 24.5754C86.4166 24.5423 87.5211 24.2731 88.5342 23.7852L101.88 17.4425C108.692 14.205 115.801 21.3142 112.564 28.1327L106.221 41.4723C105.739 42.486 105.476 43.5895 105.447 44.7115C105.419 45.8334 105.626 46.9489 106.056 47.9858C106.486 49.0226 107.128 49.9577 107.942 50.7307C108.756 51.5036 109.723 52.0972 110.78 52.473L124.694 57.4216C126.256 57.9761 127.607 59.0004 128.563 60.3538C129.518 61.7072 130.031 63.3233 130.031 64.9801C130.031 66.6368 129.518 68.253 128.563 69.6064C127.607 70.9598 126.256 71.9841 124.694 72.5385L110.78 77.4872C109.723 77.8631 108.757 78.4565 107.944 79.2289C107.131 80.0014 106.489 80.9358 106.059 81.9719C105.63 83.0079 105.422 84.1225 105.45 85.2438C105.478 86.365 105.741 87.4679 106.221 88.4813L112.564 101.828C113.273 103.323 113.502 105.001 113.22 106.631C112.937 108.262 112.158 109.765 110.988 110.935C109.818 112.105 108.314 112.885 106.684 113.167C105.053 113.449 103.376 113.22 101.88 112.511L88.5342 106.168C87.5208 105.688 86.4179 105.425 85.2966 105.397C84.1754 105.369 83.0608 105.577 82.0247 106.006C80.9887 106.436 80.0543 107.078 79.2818 107.891C78.5093 108.704 77.916 109.67 77.5401 110.727L72.5914 124.642C72.0369 126.203 71.0126 127.554 69.6592 128.51C68.3058 129.465 66.6897 129.978 65.033 129.978C63.3762 129.978 61.7601 129.465 60.4067 128.51C59.0533 127.554 58.0289 126.203 57.4745 124.642L52.5258 110.727C52.15 109.67 51.5565 108.703 50.7835 107.889C50.0106 107.075 49.0755 106.433 48.0386 106.003C47.0018 105.573 45.8863 105.366 44.7643 105.394C43.6423 105.423 42.5388 105.687 41.5251 106.168L28.1855 112.511C21.3671 115.749 14.2579 108.639 17.4953 101.828L23.7852 88.5342C24.267 87.5214 24.5309 86.4187 24.5598 85.2975C24.5886 84.1763 24.3818 83.0615 23.9528 82.0253C23.5237 80.989 22.8819 80.0544 22.0689 79.2818C21.2559 78.5091 20.2897 77.9158 19.233 77.5401L5.33178 72.5583C3.77055 72.0039 2.41931 70.9796 1.46373 69.6262C0.508152 68.2728 -0.00488281 66.6567 -0.00488281 64.9999C-0.00488281 63.3431 0.508152 61.727 1.46373 60.3736C2.41931 59.0202 3.77055 57.9959 5.33178 57.4415L19.2528 52.4928C20.308 52.1143 21.2722 51.5187 22.0831 50.7446C22.894 49.9705 23.5336 49.035 23.9607 47.9984C24.3878 46.9619 24.5928 45.8473 24.5626 44.7267C24.5324 43.606 24.2675 42.5041 23.7852 41.4921L17.4425 28.1525C16.726 26.6543 16.4922 24.9707 16.7733 23.334C17.0545 21.6973 17.8367 20.1882 19.0121 19.015C20.1874 17.8418 21.698 17.0623 23.3352 16.7842C24.9724 16.5061 26.6556 16.743 28.1525 17.4623L41.4921 23.7852C42.5054 24.2671 43.6085 24.531 44.7301 24.5599C45.8518 24.5889 46.967 24.3821 48.0038 23.9531C49.0406 23.5241 49.9758 22.8823 50.749 22.0692C51.5223 21.2562 52.1163 20.29 52.4928 19.233L57.4415 5.33178C57.9959 3.77055 59.0202 2.41931 60.3736 1.46373C61.727 0.508152 63.3432 -0.00488281 64.9999 -0.00488281C66.6567 -0.00488281 68.2728 0.508152 69.6262 1.46373C70.9796 2.41931 72.0039 3.77055 72.5584 5.33178Z" fill="#FF9532"/>
</g>
<g clip-path="url(#clip1_6882_99774)">
<mask id="mask0_6882_99774" style="mask-type:luminance" maskUnits="userSpaceOnUse" x="31" y="53" width="26" height="13">
<path d="M38.6406 64.8919C38.6718 64.6653 38.6881 64.4306 38.6881 64.1918C38.6881 62.2705 37.6433 60.7128 36.353 60.7128H35.6148C35.1318 60.7128 34.6813 60.9313 34.3096 61.3071C34.3014 61.3152 34.2946 61.3234 34.2865 61.3302C34.2716 61.3465 34.2553 61.3627 34.2404 61.379C33.6583 62.0113 33.2797 63.0357 33.2797 64.1918C33.2797 64.3709 33.2892 64.5486 33.3068 64.7209C33.3123 64.7793 33.3191 64.8363 33.3272 64.8919L31.4873 65.4401L31.6474 64.8919L33.3638 58.9937C33.5538 58.3356 34.1562 57.8824 34.8414 57.8824H36.0843C36.3381 57.8824 36.5836 57.7929 36.7777 57.6287L36.8618 57.5568L37.1318 57.3288L37.3096 57.1796L38.0816 56.5283L38.1047 56.5079L38.2824 56.3587L41.0857 53.9937C41.3435 53.7752 41.6705 53.6558 42.0097 53.6558L46.9541 53.6504H47.0992H47.1888C47.1929 53.6504 47.1956 53.6504 47.1997 53.6504C47.1997 53.6504 47.2024 53.6504 47.2037 53.6504C47.4751 53.6545 47.7288 53.7888 47.8849 54.0113L50.5565 57.8159L56.4086 59.3207L56.6705 64.8919H38.6406Z" fill="white"/>
</mask>
<g mask="url(#mask0_6882_99774)">
<path d="M51.2426 66.7906C47.3959 68.0172 42.841 68.6006 38.8355 67.9493C37.6714 67.7377 36.5194 67.374 35.5058 66.7797C33.5479 65.6752 32.1001 63.4554 33.3145 61.2763C33.9482 60.1176 35.054 59.2397 36.1775 58.5613C40.4909 55.9928 45.9237 55.952 50.6293 57.4269C53.552 58.2967 54.689 60.2126 51.1218 61.3252C48.3905 62.1461 43.613 62.6739 40.8627 61.9249C40.0404 61.6861 38.8844 61.0728 39.172 60.1352C39.807 58.5871 43.9834 58.6644 45.3959 59.0457C46.3959 59.2845 47.2263 59.9453 46.1313 60.4487C43.6212 61.3591 39.0743 60.4595 37.2385 58.4378C35.5777 56.5871 36.7161 54.5911 38.5764 53.4582C39.7148 52.7349 41.0106 52.2709 42.3254 51.9805C46.4787 51.0579 50.8586 51.8435 54.6198 53.7675" stroke="white" stroke-width="0.166057" stroke-miterlimit="10"/>
</g>
<path d="M75.4652 68.2469C75.4652 68.3446 75.4476 68.4409 75.415 68.5373C74.5914 70.8927 63.8017 72.7571 50.6131 72.7571C37.4245 72.7571 26.6348 70.8927 25.8112 68.5359C25.7773 68.4396 25.761 68.3432 25.761 68.2455C25.761 65.7543 36.8872 63.7354 50.6131 63.7354C64.339 63.7354 75.3743 65.7381 75.4638 68.2143C75.4638 68.2238 75.4638 68.2347 75.4638 68.2442L75.4652 68.2469Z" fill="#6D69B5"/>
<path d="M75.4652 68.2471V71.4886C75.4652 71.4994 75.4652 71.5103 75.4652 71.5212C75.3689 73.9974 64.2793 75.9988 50.6144 75.9988C36.9496 75.9988 25.761 73.9798 25.761 71.4886V68.2471C25.761 68.3448 25.7786 68.4411 25.8112 68.5374C26.6348 70.8929 37.4245 72.7572 50.6131 72.7572C63.8017 72.7572 74.5914 70.8929 75.415 68.5374C75.4489 68.4411 75.4652 68.3448 75.4652 68.2471Z" fill="#918DE0"/>
<path d="M74.0297 64.166V67.8077C74.0297 67.8851 74.0148 67.9624 73.9836 68.0398C73.6878 68.7711 72.008 69.4428 69.3445 69.9936C68.9619 70.0723 68.5603 70.1497 68.1383 70.2229C67.5738 70.322 66.9755 70.4156 66.3459 70.5052C63.6363 70.8878 60.3486 71.1727 56.7095 71.3247C54.7665 71.4061 52.7231 71.4495 50.6146 71.4495C48.3038 71.4495 46.0718 71.398 43.9633 71.3003C42.9823 71.2555 42.0284 71.2012 41.1057 71.1361C40.5277 71.0968 39.9619 71.0533 39.4097 71.0058C34.4449 70.5852 30.5698 69.8919 28.6091 69.056C27.8574 68.7358 27.3866 68.3953 27.2441 68.0398C27.2129 67.9624 27.198 67.8864 27.198 67.8077V64.166C27.198 57.725 29.7991 51.8905 34.008 47.6571C37.5589 44.0805 42.2618 41.6449 47.5141 40.9516C48.5277 40.8172 49.563 40.748 50.6132 40.748C50.8859 40.748 51.1573 40.7521 51.4273 40.7616C52.4463 40.7969 53.449 40.8959 54.4314 41.0574C55.4599 41.2257 56.4653 41.4618 57.4436 41.7603C60.4775 42.6843 63.2496 44.2067 65.6227 46.1917C65.947 46.4618 66.2631 46.7413 66.5711 47.0289C66.7747 47.2175 66.9741 47.4102 67.1695 47.6069C67.4639 47.9014 67.7516 48.2053 68.0311 48.5147C71.7597 52.6626 74.0284 58.1497 74.0284 64.166H74.0297Z" fill="#FDC2FF"/>
<path d="M74.031 67.8065C74.031 67.9313 73.9903 68.0561 73.9102 68.1782C72.7135 70.0154 62.7393 71.4482 50.6131 71.4482C49.9116 71.4482 49.2169 71.4428 48.5317 71.4333C36.5737 71.2691 27.1965 69.7088 27.1965 67.8065C27.1965 67.413 27.5982 67.0344 28.3404 66.6789C31.3933 65.2203 40.2115 64.166 50.6144 64.166C53.0337 64.166 55.3675 64.223 57.5629 64.3288C67.1029 64.7888 74.0324 66.1714 74.0324 67.8065H74.031Z" fill="#918DE0"/>
<path d="M70.0784 60.8178C70.0146 61.1149 69.518 61.4189 68.5696 61.5925L68.3918 60.5098C69.0431 60.56 70.0879 60.6644 70.0784 60.8178Z" fill="#FE5D02"/>
<path d="M50.2933 69.1661C60.2119 69.1661 68.2526 68.6965 68.2526 68.1172C68.2526 67.5379 60.2119 67.0684 50.2933 67.0684C40.3746 67.0684 32.334 67.5379 32.334 68.1172C32.334 68.6965 40.3746 69.1661 50.2933 69.1661Z" fill="#112130"/>
<path d="M48.5351 60.7188C48.5351 60.7188 48.5419 60.7188 48.5459 60.7188H51.3885C52.6124 60.7188 53.6043 62.3239 53.6043 64.3036C53.6043 66.2832 52.6124 67.8884 51.3885 67.8884H48.5459C48.5459 67.8884 48.5391 67.8884 48.5351 67.8884C47.3112 67.8884 46.3193 66.2832 46.3193 64.3036C46.3193 62.3239 47.3112 60.7188 48.5351 60.7188Z" fill="#112130"/>
<path d="M61.4145 60.7188C61.4145 60.7188 61.4213 60.7188 61.4253 60.7188H64.2679C65.4918 60.7188 66.4837 62.3239 66.4837 64.3036C66.4837 66.2832 65.4918 67.8884 64.2679 67.8884H61.4253C61.4253 67.8884 61.4185 67.8884 61.4145 67.8884C60.1906 67.8884 59.1987 66.2832 59.1987 64.3036C59.1987 62.3239 60.1906 60.7188 61.4145 60.7188Z" fill="#112130"/>
<path d="M34.1835 57.9971L33.5336 58.5561C33.2256 58.8207 33.0912 59.2345 33.1848 59.6294L33.3327 60.2535L34.1821 57.9971H34.1835Z" fill="white"/>
<path d="M33.0047 61.636C33.1174 60.4135 33.4376 59.2181 33.9518 58.1014L34.173 57.6211H39.5746L36.7754 65.6794C35.7904 65.4338 34.8772 64.9589 34.1119 64.2927L34.0468 64.2371C33.3019 63.5885 32.9138 62.6197 33.0047 61.636Z" fill="#1A473F"/>
<path opacity="0.5" d="M33.0047 61.636C33.1174 60.4135 33.4376 59.2181 33.9518 58.1014L34.173 57.6211H39.5746L36.7754 65.6794C35.7904 65.4338 34.8772 64.9589 34.1119 64.2927L34.0468 64.2371C33.3019 63.5885 32.9138 62.6197 33.0047 61.636Z" fill="#1A473F"/>
<path d="M40.1732 67.8913C41.3971 67.8913 42.3889 66.2861 42.3889 64.3065C42.3889 62.3268 41.3971 60.7217 40.1732 60.7217H37.3306V67.8926H40.1732V67.8913Z" fill="#223544"/>
<path d="M37.321 67.8913C38.5447 67.8913 39.5367 66.2863 39.5367 64.3065C39.5367 62.3267 38.5447 60.7217 37.321 60.7217C36.0972 60.7217 35.1052 62.3267 35.1052 64.3065C35.1052 66.2863 36.0972 67.8913 37.321 67.8913Z" fill="#223544"/>
<path d="M37.3207 66.5737C38.1787 66.5737 38.8743 65.5586 38.8743 64.3064C38.8743 63.0542 38.1787 62.0391 37.3207 62.0391C36.4627 62.0391 35.7671 63.0542 35.7671 64.3064C35.7671 65.5586 36.4627 66.5737 37.3207 66.5737Z" fill="#112130"/>
<path d="M61.6748 57.1311L59.4523 60.6996L59.4156 60.7593L58.9136 61.5639L57.2324 64.2627L56.3478 65.682H41.2745C41.0493 65.682 40.8566 65.5409 40.7915 65.3278C40.3722 63.9642 40.3912 60.72 37.3315 60.72L34.1714 57.6223C35.3627 55.7295 39.2962 53.4282 45.7955 52.9561L46.1388 53.4771C47.3437 54.1121 49.204 55.4459 50.7928 57.1297H61.6721L61.6748 57.1311Z" fill="#1A473F"/>
<path d="M53.0528 67.8913C54.2767 67.8913 55.2685 66.2861 55.2685 64.3065C55.2685 62.3268 54.2767 60.7217 53.0528 60.7217H50.2102V67.8926H53.0528V67.8913Z" fill="#223544"/>
<path d="M50.1994 67.8913C51.4231 67.8913 52.4151 66.2863 52.4151 64.3065C52.4151 62.3267 51.4231 60.7217 50.1994 60.7217C48.9757 60.7217 47.9836 62.3267 47.9836 64.3065C47.9836 66.2863 48.9757 67.8913 50.1994 67.8913Z" fill="#223544"/>
<path d="M50.1993 66.5737C51.0574 66.5737 51.7529 65.5586 51.7529 64.3064C51.7529 63.0542 51.0574 62.0391 50.1993 62.0391C49.3413 62.0391 48.6458 63.0542 48.6458 64.3064C48.6458 65.5586 49.3413 66.5737 50.1993 66.5737Z" fill="#112130"/>
<path d="M68.3039 60.3856L67.3337 60.6094L66.9009 60.7085L65.2455 61.0898L64.3133 61.3042L60.715 60.9039L60.0447 60.8293L59.6933 60.7899L59.4165 60.7587L55.2903 60.2987L55.2252 60.2716L53.4667 59.5335L53.3513 59.4303L50.7964 57.1318H61.6756C62.5318 57.1318 66.5345 58.5782 67.9904 60.0341C68.0732 60.1169 68.1505 60.201 68.2211 60.2838C68.2455 60.315 68.2713 60.3435 68.2957 60.3747C68.2998 60.3788 68.3025 60.3815 68.3052 60.3856H68.3039Z" fill="#5FCEB1"/>
<path d="M69.235 64.6927C69.2595 65.2259 68.7696 65.6832 68.1794 65.6846C64.4576 65.6859 60.1468 65.6968 57.3083 65.7035L57.1224 62.2463C57.1224 62.2463 57.1224 62.2395 57.1224 62.2354C57.079 61.5027 56.6217 60.8569 55.9447 60.5733L55.2893 60.2979L64.3124 61.3019L68.3042 60.3847C69.0342 61.3087 69.1292 62.3765 69.235 64.6913V64.6927Z" fill="#A6FFE6"/>
<path d="M61.6745 57.1316H52.4154C52.4154 57.1316 48.4357 53.6906 45.7966 52.9579C46.1833 52.9294 46.5782 52.9077 46.9825 52.8928C46.992 52.8928 47.0015 52.8928 47.0097 52.8928C47.1074 52.8887 47.205 52.886 47.3041 52.8833C47.3964 52.8806 47.49 52.8792 47.5836 52.8765C47.6216 52.8765 47.6596 52.8752 47.6989 52.8752C47.7763 52.8738 47.8536 52.8725 47.9323 52.8725C48.0381 52.8725 48.144 52.8711 48.2512 52.8711C48.9744 52.8711 49.6677 52.8969 50.3285 52.9457C50.4561 52.9552 50.5836 52.9647 50.7098 52.9769C50.8509 52.9891 50.992 53.0014 51.1304 53.0163C51.2457 53.0285 51.3597 53.0407 51.4723 53.0543C51.8468 53.0963 52.2091 53.1479 52.5605 53.2049C52.6786 53.2239 52.7939 53.2442 52.9092 53.2646C53.0544 53.289 53.1996 53.3161 53.3407 53.3446C53.4235 53.3609 53.5049 53.3772 53.585 53.3935C53.6949 53.4165 53.8048 53.4396 53.9133 53.464C54.0205 53.4885 54.1277 53.5115 54.2335 53.5373C54.3258 53.559 54.4167 53.5807 54.5076 53.6038C54.57 53.6201 54.6338 53.635 54.6962 53.6513C55.1399 53.7653 55.5619 53.8887 55.9622 54.0203C56.0232 54.0407 56.0843 54.0597 56.144 54.0814C56.4425 54.1805 56.7274 54.2849 57.0002 54.3894C57.0829 54.422 57.1643 54.4532 57.2444 54.4857C60.0748 55.6255 61.4954 56.9742 61.6596 57.1194C61.6609 57.1208 61.6637 57.1235 61.6664 57.1248C61.6704 57.1289 61.6718 57.1303 61.6732 57.1316H61.6745Z" fill="#FAA6FF"/>
<path d="M64.3029 61.3541C64.3029 61.3541 64.3097 61.3541 64.3137 61.3541L66.8633 60.7679C66.889 60.7625 66.9053 60.7353 66.8999 60.7096C66.8945 60.6838 66.8673 60.6675 66.8415 60.6729L64.3002 61.2564L60.098 60.7774C60.0709 60.7747 60.0464 60.7937 60.0437 60.8208C60.041 60.848 60.06 60.8724 60.0871 60.8751L64.2974 61.3541C64.2974 61.3541 64.3015 61.3541 64.3029 61.3541Z" fill="#1A473F"/>
<path d="M44.5075 58.1053H43.2375C43.1384 58.1053 43.0583 58.0252 43.0583 57.9262C43.0583 57.8271 43.1384 57.7471 43.2375 57.7471H44.5075C44.6065 57.7471 44.6866 57.8271 44.6866 57.9262C44.6866 58.0252 44.6065 58.1053 44.5075 58.1053Z" fill="#192A38"/>
<path d="M57.3099 65.7044C57.2516 65.7044 57.1932 65.7044 57.1362 65.7044C56.276 65.7058 55.5623 65.7085 55.0548 65.7099C54.5745 65.7099 54.1742 65.4046 54.1023 64.9758C53.8323 63.3734 52.2339 60.7207 50.2122 60.7207L48.2529 57.1318H50.7957L53.466 59.5348L55.9449 60.5755C56.6234 60.8591 57.0793 61.505 57.1227 62.2377C57.1227 62.2417 57.1227 62.2445 57.1227 62.2485L57.3086 65.7058L57.3099 65.7044Z" fill="#1A473F"/>
<mask id="mask1_6882_99774" style="mask-type:luminance" maskUnits="userSpaceOnUse" x="32" y="52" width="26" height="14">
<path d="M57.232 64.2622L56.3473 65.6801H54.8032C54.4396 65.5946 54.1601 65.3259 54.1004 64.9745C53.8317 63.3856 52.2578 60.7615 50.2578 60.7208C50.2415 60.7208 50.2266 60.7208 50.2103 60.7208H50.2008C48.9769 60.7208 47.985 62.3259 47.985 64.3069C47.985 64.794 48.0447 65.2594 48.1547 65.6828H41.2741C41.0488 65.6828 40.8561 65.5417 40.791 65.3286C40.4301 64.1536 40.3935 61.5864 38.4369 60.8958C38.1329 60.7886 37.7829 60.7262 37.3785 60.7221C37.3623 60.7221 37.3473 60.7221 37.331 60.7221H37.3202C36.0963 60.7221 35.1044 62.3273 35.1044 64.3083C35.1044 64.5566 35.1207 64.7995 35.1492 65.0342C34.7802 64.8239 34.4328 64.5769 34.1099 64.2974L34.0447 64.2418C33.2985 63.5919 32.9104 62.6244 33.0013 61.6407C33.1139 60.4168 33.4342 59.2228 33.9484 58.1075L34.1696 57.6272C35.3609 55.7343 39.2944 53.4331 45.7937 52.9609L46.137 53.482C47.3419 54.117 49.2021 55.4508 50.791 57.1346L53.4599 59.5376L55.9389 60.5783C56.6173 60.8619 57.0732 61.5077 57.1167 62.2404C57.1167 62.2445 57.1167 62.2472 57.1167 62.2513L57.2252 64.2676L57.232 64.2622Z" fill="white"/>
</mask>
<g mask="url(#mask1_6882_99774)">
<path d="M31.519 58.6898C34.8664 59.626 39.6615 58.5215 40.7456 55.7522C41.0876 54.8173 40.5123 54.0588 39.2355 54.318C38.0659 54.5134 36.515 55.7223 35.7538 56.7413C34.3114 58.5812 33.4471 61.3763 34.6764 63.4577C37.093 66.7128 43.7891 64.4998 46.8135 61.6355C47.9125 60.6165 48.7986 59.3533 49.2395 58.0276C49.5245 57.1633 49.6846 56.0344 49.1188 55.3248C48.2002 54.3397 46.6887 55.1443 45.8759 55.9394C43.7226 58.1742 43.2327 61.9367 44.6764 64.7454C47.8596 70.972 54.9926 66.2094 56.6792 62.3383C57.0604 61.4795 57.211 60.6355 57.0306 59.8838C56.7687 58.6748 55.5245 57.6776 54.0659 57.4211C50.7226 56.797 49.211 60.0602 50.7836 62.9055C51.61 64.5771 53.1296 66.0154 54.7117 67.2406" stroke="#256B59" stroke-width="0.859678" stroke-miterlimit="10"/>
</g>
<path d="M38.9364 58.1053H37.6664C37.5674 58.1053 37.4873 58.0252 37.4873 57.9262C37.4873 57.8271 37.5674 57.7471 37.6664 57.7471H38.9364C39.0355 57.7471 39.1155 57.8271 39.1155 57.9262C39.1155 58.0252 39.0355 58.1053 38.9364 58.1053Z" fill="#192A38"/>
<path d="M50.7952 57.1301H37.84C37.1792 57.1301 36.5279 56.9591 35.9526 56.6349C35.9526 56.6349 36.4764 56.16 37.5266 55.5806C38.5768 55.0026 40.1548 54.3214 42.262 53.913C43.9947 53.5765 45.6378 53.4449 46.1412 53.4775C47.3461 54.1125 49.2064 55.4463 50.7952 57.1301Z" fill="#192A38"/>
<path d="M60.2064 64.8115H67.4275C67.6908 64.8115 67.8834 64.5333 67.8183 64.2457L67.4709 62.7111C67.4248 62.5103 67.2647 62.3691 67.0802 62.3691H60.5551C60.3705 62.3691 60.2091 62.5103 60.1643 62.7111L59.8169 64.2457C59.7518 64.532 59.9445 64.8115 60.2077 64.8115H60.2064Z" fill="#1A473F"/>
<path d="M34.4076 60.8086L34.9869 60.9199V59.3486L34.4076 59.4599C34.3289 59.4748 34.2705 59.5807 34.2705 59.7068V60.5603C34.2705 60.6865 34.3289 60.7923 34.4076 60.8072V60.8086Z" fill="#192A38"/>
<path d="M59.7014 60.7923C58.4314 60.3106 54.5956 58.9591 53.5495 59.3119C52.5033 59.6634 55.0366 60.9171 55.6743 61.084C56.312 61.2509 56.7313 60.9171 57.6865 61.3784C58.6417 61.8397 61.2401 61.3757 59.7014 60.7923Z" fill="white"/>
<path d="M66.9434 60.8402C67.2053 60.6815 67.634 60.4291 68.1184 60.1699C68.3966 60.4711 68.5974 60.7791 68.7466 61.1333C68.6001 61.1631 68.4318 61.2323 68.2242 61.3924C67.6055 61.8687 65.9474 61.4467 66.9434 60.8402Z" fill="white"/>
<mask id="mask2_6882_99774" style="mask-type:luminance" maskUnits="userSpaceOnUse" x="45" y="52" width="17" height="6">
<path d="M48.2529 52.8705C57.4035 52.8705 61.5799 57.0659 61.6735 57.131H52.4144C52.4144 57.131 48.4334 53.69 45.7957 52.9573C46.5772 52.9003 47.3967 52.8691 48.2516 52.8691L48.2529 52.8705Z" fill="white"/>
</mask>
<g mask="url(#mask2_6882_99774)">
<path d="M48.5511 55.6607C48.4928 55.8846 48.4589 56.1125 48.448 56.3378L50.7343 57.141C50.6665 56.9972 50.6176 56.8439 50.5891 56.6838C50.3951 55.5617 51.3272 55.3296 52.2485 55.4707C52.6773 55.5264 53.1129 55.6661 53.5294 55.814C54.8605 56.331 56.642 56.6376 57.5715 55.2401C57.7899 54.8927 57.9175 54.5128 57.9812 54.122L56.7886 53.7028C56.6787 54.179 56.4575 54.5834 56.0382 54.677C55.7764 54.7394 55.3612 54.6675 55.0694 54.5671C54.8157 54.4897 54.5579 54.3798 54.3177 54.2645C53.5158 53.8805 52.6488 53.5522 51.7438 53.5115C50.3191 53.3988 48.9161 54.1994 48.5525 55.6594L48.5511 55.6607Z" fill="white"/>
</g>
<path d="M42.1111 58.3018C42.1111 58.3018 42.1518 61.2176 43.008 63.4212" stroke="#192A38" stroke-width="0.223369" stroke-miterlimit="10"/>
<path d="M52.4152 57.1317H50.7951C49.2063 55.4478 47.346 54.114 46.1411 53.479L45.7979 52.958C48.4369 53.6907 52.4166 57.1317 52.4166 57.1317H52.4152Z" fill="#5FCEB1"/>
<path d="M56.2874 63.6719C55.4 63.7953 54.5181 63.8577 53.6334 63.8577C52.2019 63.8577 50.7637 63.6949 49.2874 63.3693C47.2236 62.9134 45.4217 62.2037 43.9753 61.6352C43.4258 61.4195 42.9075 61.2146 42.4407 61.0504C36.2671 58.8713 29.4434 62.6854 29.3756 62.7234L30.0798 61.4113L28.3525 60.9229C28.4312 60.8781 30.3037 59.8225 33.0391 59.064C34.6538 58.6176 36.2399 58.3652 37.7542 58.315C39.6741 58.2512 41.4828 58.5145 43.1314 59.0965C43.6334 59.2743 44.1694 59.4846 44.7352 59.7071C47.5235 60.8048 51.3403 62.3069 56.1314 61.6013L56.2453 61.585L56.2874 63.6719Z" fill="#CC58B1"/>
<path d="M63.733 63.5088L64.0369 63.6757L63.7994 63.9687C63.6461 63.9687 61.7506 63.966 61.5946 63.9647C58.9487 63.9294 56.8442 63.7272 56.3001 63.6702C56.2961 63.6702 56.292 63.6702 56.2879 63.6716L56.2458 61.5847L56.2648 61.582L56.3992 61.597C56.448 61.6024 60.8768 61.8968 64.1454 61.8955L63.8442 62.3269L64.0315 62.5603L63.7533 62.9348L64.022 63.0814L63.7343 63.5074L63.733 63.5088Z" fill="#F180D2"/>
<path d="M70.0787 60.8184C70.042 61.3136 69.9918 61.9744 69.9552 62.471C69.5997 63.8848 65.6201 63.893 64.4681 63.969L64.7055 63.6759L64.4016 63.509L64.6893 63.0829L64.4206 62.9364L64.6988 62.5619L64.5115 62.3285L64.8127 61.8971C65.4695 61.8971 69.1981 61.9785 70.0787 60.8184Z" fill="#F180D2"/>
<path d="M38.1052 56.5105L36.8623 57.5594C36.4363 57.4494 36.0441 57.3233 35.6859 57.1821C33.9315 56.4874 33.5448 55.6245 33.4851 55.4589L34.3847 55.6163L34.6846 54.9922C34.6873 54.9976 34.9871 55.5824 36.4512 56.0926C36.8718 56.2391 37.4132 56.387 38.1052 56.5119V56.5105Z" fill="#FE5D02"/>
<path d="M69.7865 59.1055C69.3306 59.1476 68.9616 59.7473 68.9086 60.5099C68.8571 59.7459 68.488 59.1476 68.0308 59.1055C68.4867 59.0635 68.8557 58.4637 68.9086 57.7012C68.9602 58.4637 69.3293 59.0635 69.7865 59.1055Z" fill="white"/>
<path d="M48.0809 49.5035C47.6955 49.8224 47.6114 50.3896 47.8719 50.8414C47.5191 50.4574 46.952 50.3679 46.5327 50.6406C46.9181 50.3217 47.0035 49.7546 46.7417 49.3027C47.0945 49.6867 47.6616 49.7763 48.0809 49.5035Z" fill="#F180D2"/>
<path d="M37.3294 49.9169C37.1883 50.2046 37.0472 50.4909 36.906 50.7785C36.3334 50.7392 36.2507 50.0309 35.8911 50.0906C35.982 49.9061 36.0729 49.7202 36.1638 49.5356C36.5587 49.4027 36.6917 50.0132 37.3294 49.9183V49.9169Z" fill="#F180D2"/>
<path d="M44.0693 51.2985C43.9743 51.3705 43.8779 51.4437 43.783 51.5156C43.4994 51.4057 43.5306 50.9878 43.1479 50.787C43.2782 50.688 43.4085 50.5889 43.5387 50.4912C43.8793 50.7246 43.8142 51.1683 44.0693 51.2985Z" fill="#5FCEB1"/>
<path d="M61.1108 52.9975C61.0213 52.9174 60.9331 52.8373 60.8435 52.7573C60.8978 52.4588 61.3143 52.4113 61.4392 51.9961C61.5613 52.106 61.682 52.2159 61.8042 52.3245C61.64 52.703 61.1909 52.722 61.1108 52.9975Z" fill="#5FCEB1"/>
<path d="M41.4673 54.0459C41.2896 54.2237 41.1118 54.4014 40.9341 54.5792C40.3927 54.4218 40.4266 53.6877 39.8853 53.5303C40.063 53.3526 40.2407 53.1748 40.4185 52.9971C40.9599 53.1545 40.926 53.8885 41.4673 54.0459Z" fill="#918DE0"/>
<path d="M56.0672 52.7352C55.9179 52.6661 55.7673 52.5955 55.618 52.5263C55.5556 52.0853 56.1282 51.7922 56.1486 51.0039C56.3955 51.1179 56.6425 51.2332 56.888 51.3472C56.7361 52.0758 56.0726 52.3255 56.0672 52.7352Z" fill="#E5FC54"/>
<path d="M49.1973 54.0242L49.7007 53.7881L49.9232 54.533L49.5989 54.6795L49.1973 54.0242Z" fill="#FE5D02"/>
<path d="M64.506 54.0684L65.5263 54.124C65.5263 54.124 65.4924 54.9815 64.7923 55.2882H64.0229C64.0229 55.2882 64.7163 54.8974 64.506 54.0684Z" fill="#02B6FF"/>
<path d="M52.3674 49.4173L51.8911 48.8868C51.8911 48.8868 52.3307 48.4797 52.8273 48.6751L53.2059 49.0537C53.2059 49.0537 52.6713 48.9044 52.366 49.4173H52.3674Z" fill="white"/>
<path d="M37.989 50.5872C38.7163 50.4963 39.4897 50.4121 40.1545 50.7242C41.122 51.1788 41.6159 52.3633 42.6172 52.7351C43.2224 52.9589 43.9117 52.8341 44.4883 52.5451C45.065 52.2561 45.5494 51.8165 46.027 51.3836" stroke="white" stroke-width="0.138136" stroke-miterlimit="10"/>
<path d="M33.1743 57.8828C34.2869 53.9126 36.8365 50.5422 40.2259 48.3672" stroke="white" stroke-width="2.21753" stroke-miterlimit="10" stroke-linecap="round"/>
<g opacity="0.2">
<path d="M65.574 46.1912L39.3596 71.004C34.3949 70.5834 30.5197 69.89 28.5591 69.0542L57.3949 41.7598C60.4288 42.6838 63.2009 44.2062 65.574 46.1912Z" fill="white"/>
<path d="M67.984 48.5141L43.9134 71.297C42.9324 71.2522 41.9786 71.1979 41.0559 71.1328L66.5227 47.0283C66.7262 47.2169 66.9256 47.4096 67.121 47.6063C67.4155 47.9008 67.7031 48.2047 67.9826 48.5141H67.984Z" fill="white"/>
</g>
<path d="M66.1045 44.0231V44.0611C66.1045 44.2171 65.9864 44.3474 65.8304 44.3623C64.2877 44.5183 63.0597 45.9783 62.9444 47.8033C62.9349 47.9607 62.7992 48.0828 62.6404 48.0828C62.4817 48.0828 62.3474 47.962 62.3365 47.8033C62.2225 45.9783 60.9932 44.5183 59.4491 44.3623C59.2931 44.346 59.175 44.2171 59.175 44.0611V44.0231C59.175 43.867 59.2931 43.7368 59.4491 43.7218C60.9946 43.5658 62.2225 42.1058 62.3365 40.2795C62.346 40.1221 62.4817 40 62.6404 40C62.7992 40 62.9335 40.1208 62.9444 40.2795C63.0584 42.1058 64.2863 43.5658 65.8304 43.7218C65.9864 43.7381 66.1045 43.867 66.1045 44.0231Z" fill="#FAA6FF"/>
</g>
<defs>
<clipPath id="clip0_6882_99774">
<rect width="130" height="130" fill="white"/>
</clipPath>
<clipPath id="clip1_6882_99774">
<rect width="49.7042" height="36" fill="white" transform="translate(25.7612 40)"/>
</clipPath>
</defs>
</svg>
