<svg width="86" height="86" viewBox="0 0 86 86" fill="none" xmlns="http://www.w3.org/2000/svg">
<g clip-path="url(#clip0_6882_91006)">
<path d="M72.5584 5.33178L77.507 19.2528C77.8842 20.3121 78.4801 21.2802 79.2559 22.0941C80.0318 22.9081 80.9702 23.5496 82.0103 23.9771C83.0503 24.4046 84.1687 24.6084 85.2926 24.5754C86.4166 24.5423 87.5211 24.2731 88.5342 23.7852L101.88 17.4425C108.692 14.205 115.801 21.3142 112.564 28.1327L106.221 41.4723C105.739 42.486 105.476 43.5895 105.447 44.7115C105.419 45.8334 105.626 46.9489 106.056 47.9858C106.486 49.0226 107.128 49.9577 107.942 50.7307C108.756 51.5036 109.723 52.0972 110.78 52.473L124.694 57.4216C126.256 57.9761 127.607 59.0004 128.563 60.3538C129.518 61.7072 130.031 63.3233 130.031 64.9801C130.031 66.6368 129.518 68.253 128.563 69.6064C127.607 70.9598 126.256 71.9841 124.694 72.5385L110.78 77.4872C109.723 77.8631 108.757 78.4565 107.944 79.2289C107.131 80.0014 106.489 80.9358 106.059 81.9719C105.63 83.0079 105.422 84.1225 105.45 85.2438C105.478 86.365 105.741 87.4679 106.221 88.4813L112.564 101.828C113.273 103.323 113.502 105.001 113.22 106.631C112.937 108.262 112.158 109.765 110.988 110.935C109.818 112.105 108.314 112.885 106.684 113.167C105.053 113.449 103.376 113.22 101.88 112.511L88.5342 106.168C87.5208 105.688 86.4179 105.425 85.2966 105.397C84.1754 105.369 83.0608 105.577 82.0247 106.006C80.9887 106.436 80.0543 107.078 79.2818 107.891C78.5093 108.704 77.916 109.67 77.5401 110.727L72.5914 124.642C72.0369 126.203 71.0126 127.554 69.6592 128.51C68.3058 129.465 66.6897 129.978 65.033 129.978C63.3762 129.978 61.7601 129.465 60.4067 128.51C59.0533 127.554 58.0289 126.203 57.4745 124.642L52.5258 110.727C52.15 109.67 51.5565 108.703 50.7835 107.889C50.0106 107.075 49.0755 106.433 48.0386 106.003C47.0018 105.573 45.8863 105.366 44.7643 105.394C43.6423 105.423 42.5388 105.687 41.5251 106.168L28.1855 112.511C21.3671 115.749 14.2579 108.639 17.4953 101.828L23.7852 88.5342C24.267 87.5214 24.5309 86.4187 24.5598 85.2975C24.5886 84.1763 24.3818 83.0615 23.9528 82.0253C23.5237 80.989 22.8819 80.0544 22.0689 79.2818C21.2559 78.5091 20.2897 77.9158 19.233 77.5401L5.33178 72.5583C3.77055 72.0039 2.41931 70.9796 1.46373 69.6262C0.508152 68.2728 -0.00488281 66.6567 -0.00488281 64.9999C-0.00488281 63.3431 0.508152 61.727 1.46373 60.3736C2.41931 59.0202 3.77055 57.9959 5.33178 57.4415L19.2528 52.4928C20.308 52.1143 21.2722 51.5187 22.0831 50.7446C22.894 49.9705 23.5336 49.035 23.9607 47.9984C24.3878 46.9619 24.5928 45.8473 24.5626 44.7267C24.5324 43.606 24.2675 42.5041 23.7852 41.4921L17.4425 28.1525C16.726 26.6543 16.4922 24.9707 16.7733 23.334C17.0545 21.6973 17.8367 20.1882 19.0121 19.015C20.1874 17.8418 21.698 17.0623 23.3352 16.7842C24.9724 16.5061 26.6556 16.743 28.1525 17.4623L41.4921 23.7852C42.5054 24.2671 43.6085 24.531 44.7301 24.5599C45.8518 24.5889 46.967 24.3821 48.0038 23.9531C49.0406 23.5241 49.9758 22.8823 50.749 22.0692C51.5223 21.2562 52.1163 20.29 52.4928 19.233L57.4415 5.33178C57.9959 3.77055 59.0202 2.41931 60.3736 1.46373C61.727 0.508152 63.3432 -0.00488281 64.9999 -0.00488281C66.6567 -0.00488281 68.2728 0.508152 69.6262 1.46373C70.9796 2.41931 72.0039 3.77055 72.5584 5.33178Z" fill="#1F92D0"/>
</g>
<g clip-path="url(#clip1_6882_91006)">
<path d="M41.6152 56.6513C42.9689 56.2 43.8917 55.4811 44.298 55.1074C44.756 54.6861 47.5027 52.0536 47.5027 52.0536L50.1447 51.3469L53.8304 50.42C53.8304 50.42 55.1691 49.8818 55.57 49.2988C56.5975 47.8011 55.9533 46.7533 55.9533 46.7533L49.0656 47.1134L50.6584 46.1621L53.7638 44.6522L55.0807 43.7484L55.9546 43.9251L58.7679 43.9618L60.4001 43.8354L63.3316 43.5771H63.3343C63.4634 43.5935 67.5854 44.1045 69.1483 44.9634C69.1483 44.9634 68.886 46.5956 66.7346 47.1487C64.5846 47.7019 59.393 46.1852 59.393 46.1852C59.393 46.1852 58.8181 46.4556 57.8818 46.6839C58.5708 46.8892 64.1348 48.5866 67.2239 50.4934C67.2239 50.4934 66.9018 51.9 65.3403 52.2425C64.5194 52.4232 63.3927 52.0604 60.1351 50.8331C59.1239 50.4526 58.3017 50.1427 57.6494 49.8954C56.751 50.0163 54.8252 50.2746 53.8739 50.4064L54.9625 50.4716C55.3784 50.4961 55.7834 50.6198 56.1422 50.8318L62.6792 54.6833C62.6792 54.6833 61.5879 56.885 58.757 55.8766C57.0011 55.2514 53.0653 52.975 53.0653 52.975L51.0077 52.8486C51.0077 52.8486 47.4184 55.3805 41.6166 56.6513H41.6152Z" fill="#7A2C00"/>
<path d="M66.3 44.0674L66.2171 44.3759C66.0826 44.8747 66.3911 45.3843 66.8953 45.4971L67.9282 45.7214C68.147 45.7689 68.3712 45.6711 68.484 45.4781C68.677 45.1478 68.8061 44.7782 68.8061 44.7782C68.8061 44.7782 67.2717 44.2345 66.3 44.0674Z" fill="#62B8CC"/>
<path d="M66.9166 50.2925L66.6081 50.692C66.4776 50.8606 66.252 50.9217 66.055 50.8415L65.0194 50.4175C64.6619 50.2694 64.5247 49.8358 64.7313 49.5083L64.8916 49.2637L66.918 50.2925H66.9166Z" fill="#62B8CC"/>
<path d="M60.8296 53.5879L60.5999 54.2239C60.5361 54.402 60.619 54.614 60.7834 54.6914L61.6342 55.0924C61.7959 55.1685 61.9889 55.1331 62.1085 55.0013C62.2811 54.8124 62.3993 54.5175 62.3993 54.5175L60.8283 53.5879H60.8296Z" fill="#BB41BF"/>
<path d="M58.1412 46.6982L56.4329 46.9619" stroke="#602200" stroke-width="0.420159" stroke-miterlimit="10" stroke-linecap="round"/>
<path d="M57.6913 49.628C57.6913 49.628 57.6763 48.5475 58.0147 47.8096" stroke="#491902" stroke-width="0.420159" stroke-miterlimit="10" stroke-linecap="round"/>
<path d="M59.3928 46.1843C59.3928 46.1843 58.8261 45.6651 59.1414 44.9639" stroke="#491902" stroke-width="0.420159" stroke-miterlimit="10" stroke-linecap="round"/>
<path d="M61.672 51.3149C61.672 51.3149 61.0197 50.5837 61.8786 49.5889" stroke="#491902" stroke-width="0.420159" stroke-miterlimit="10" stroke-linecap="round"/>
<path d="M63.0214 47.0436C63.0214 47.0436 62.5716 46.4158 62.7809 45.9482" stroke="#491902" stroke-width="0.420159" stroke-miterlimit="10" stroke-linecap="round"/>
<mask id="mask0_6882_91006" style="mask-type:luminance" maskUnits="userSpaceOnUse" x="41" y="43" width="29" height="14">
<path d="M41.6152 56.6513C42.9689 56.2 43.8917 55.4811 44.298 55.1074C44.756 54.6861 47.5027 52.0536 47.5027 52.0536L50.1447 51.3469L53.8304 50.42C53.8304 50.42 55.1691 49.8818 55.57 49.2988C56.5975 47.8011 55.9533 46.7533 55.9533 46.7533L49.0656 47.1134L50.6584 46.1621L53.7638 44.6522L55.0807 43.7484L55.9546 43.9251L58.7679 43.9618L60.4001 43.8354L63.3316 43.5771H63.3343C63.4634 43.5935 67.5854 44.1045 69.1483 44.9634C69.1483 44.9634 68.886 46.5956 66.7346 47.1487C64.5846 47.7019 59.393 46.1852 59.393 46.1852C59.393 46.1852 58.8181 46.4556 57.8818 46.6839C58.5708 46.8892 64.1348 48.5866 67.2239 50.4934C67.2239 50.4934 66.9018 51.9 65.3403 52.2425C64.5194 52.4232 63.3927 52.0604 60.1351 50.8331C59.1239 50.4526 58.3017 50.1427 57.6494 49.8954C56.751 50.0163 54.8252 50.2746 53.8739 50.4064L54.9625 50.4716C55.3784 50.4961 55.7834 50.6198 56.1422 50.8318L62.6792 54.6833C62.6792 54.6833 61.5879 56.885 58.757 55.8766C57.0011 55.2514 53.0653 52.975 53.0653 52.975L51.0077 52.8486C51.0077 52.8486 47.4184 55.3805 41.6166 56.6513H41.6152Z" fill="white"/>
</mask>
<g mask="url(#mask0_6882_91006)">
<path d="M67.3693 62.2228C61.8747 68.484 49.9449 65.3296 49.9449 65.3296L48.4499 64.294C48.4499 64.294 48.4214 64.2505 48.3711 64.169C48.3711 64.1676 48.3684 64.1649 48.367 64.1636C48.1305 63.7817 47.4252 62.5911 46.7633 60.9562C46.7076 60.8203 46.6533 60.6803 46.5989 60.539C46.3787 59.9641 46.1694 59.343 45.9887 58.6879L45.687 57.1821L45.5089 56.2933C45.4885 56.1247 45.4709 55.9549 45.4573 55.785C45.248 53.302 45.7155 50.66 47.6658 48.4393C49.9938 45.7851 54.056 45.1572 56.7741 47.0191C56.7904 47.03 56.8054 47.0408 56.8217 47.0517C56.8231 47.0517 56.8244 47.0544 56.8271 47.0558C56.8285 47.0558 56.8299 47.0585 56.8326 47.0598L58.318 48.0887C59.6608 49.0291 60.4137 50.4099 60.5496 51.8872C62.1845 51.6562 63.8602 51.9796 65.2003 52.9174C65.203 52.9187 65.2057 52.9215 65.2084 52.9228C65.2152 52.9282 65.2234 52.9337 65.2302 52.9378C65.4408 53.0832 66.5661 53.8619 66.6952 53.953C66.8651 54.0726 67.0268 54.199 67.1791 54.3322H67.1818C69.4405 56.3177 69.5683 59.7235 67.3748 62.2255L67.3693 62.2228Z" fill="#112130"/>
</g>
<path d="M48.7487 70.8145C48.1561 70.1975 47.6778 69.5261 47.2891 68.8412C47.1178 68.5395 46.9642 68.2337 46.827 67.9306C46.2942 67.6275 45.1173 66.9779 43.8398 66.4071C42.5677 65.8377 41.1937 65.343 40.256 65.343C38.0353 65.343 37.3748 66.8583 37.3748 66.8583C37.4617 66.9399 37.5609 67.0228 37.6683 67.107C37.7444 67.1655 37.8246 67.2253 37.9102 67.2851C37.9102 67.2851 37.9102 67.2851 37.9116 67.2851C38.2065 67.493 38.5503 67.7023 38.9159 67.9061C38.9241 67.9102 38.9309 67.9157 38.939 67.9197C39.2543 68.0951 39.5832 68.2663 39.9121 68.4294C41.2671 69.0994 42.5908 69.6213 42.6601 69.6485H42.6628L45.5658 70.1296L47.1763 70.4136C47.1763 70.4136 47.179 70.4136 47.1803 70.4136C47.1817 70.4136 47.1831 70.4136 47.1844 70.4136H47.1871L48.7772 70.8458C48.7677 70.8349 48.7568 70.8254 48.7473 70.8145H48.7487ZM66.9328 62.3897C63.8967 62.2824 61.339 62.6385 59.5695 63.0122C58.1506 63.3112 57.236 63.6197 56.9832 63.7094C56.9737 63.7135 56.9642 63.7162 56.9533 63.7203C56.9261 63.7298 56.9112 63.7352 56.9112 63.7352L55.1036 63.1508L54.9501 63.1005C54.9501 63.1005 54.8672 63.019 54.7204 62.8763C53.9525 62.1329 51.4573 59.7477 50.1607 58.8739C50.0561 58.8032 49.9515 58.738 49.8495 58.6795C48.428 57.86 47.323 58.1903 46.6829 58.5654C46.282 58.8005 46.0646 59.0533 46.0646 59.0533L46.2915 59.2802L46.755 59.7409L47.584 60.5673L51.4369 64.4093C51.7318 64.7042 52.0933 64.9244 52.4902 65.0508L53.5285 65.3837C52.5744 65.2737 50.6446 65.0453 49.7449 64.938C49.1741 64.5371 48.4551 64.0315 47.5704 63.4104C47.5609 63.4036 47.5514 63.3968 47.5418 63.3914C46.7155 62.8111 46.0455 62.3476 45.4897 61.9793C44.1442 61.0905 43.4715 60.7698 42.8789 60.7494C41.2793 60.6936 40.6188 61.9752 40.6188 61.9752C40.7017 62.0622 40.7887 62.1492 40.877 62.2362C40.9396 62.2973 41.0021 62.3598 41.0673 62.421C41.4859 62.8219 41.9507 63.2269 42.44 63.6278L42.4427 63.6306C42.4875 63.6673 42.5324 63.7039 42.5772 63.7406C43.7922 64.726 45.139 65.6732 46.2657 66.4261C45.9912 65.5332 45.8376 64.7029 45.752 64.0396C45.6324 63.1128 45.6446 62.5093 45.6446 62.5093L45.6786 62.5936L46.104 63.6414L46.8243 65.4164C47.1898 66.1734 47.5785 66.8801 47.9645 67.5256C48.2472 67.7023 48.4674 67.8382 48.6073 67.9225C48.6522 67.9496 48.6889 67.9727 48.7174 67.989C48.5516 67.9863 48.3953 67.989 48.2499 67.9931C49.3888 69.8183 50.457 71.0809 50.8104 71.4818C50.7492 71.5076 50.7125 71.5239 50.703 71.5294L50.8158 71.4886L51.1175 71.3785L51.9737 71.0659L52.2007 70.983L52.3529 70.9518L55.5847 70.294L57.3651 69.7694L57.3474 69.7653C57.3474 69.7653 57.3447 69.7653 57.3434 69.7653L55.0792 69.3073L51.8242 68.6495L51.7726 68.6387L51.1162 68.5068L50.6092 68.4049H50.6038C50.6038 68.4049 50.2409 67.228 51.6081 66.0334C52.1409 65.5686 53.572 65.3797 53.572 65.3797L54.2991 65.3837H54.3018L57.3719 65.4L60.1077 65.3729C60.1077 65.3729 60.109 65.3729 60.1104 65.3715C60.1185 65.3674 60.1389 65.3552 60.1715 65.3375C60.1783 65.3321 60.1865 65.328 60.1946 65.3239C60.1987 65.3226 60.2014 65.3199 60.2055 65.3185C60.2096 65.3158 60.2123 65.3144 60.2164 65.3117C60.2259 65.3063 60.2368 65.2995 60.249 65.2927C60.2599 65.2872 60.2708 65.2805 60.2816 65.2737C60.3074 65.2587 60.3373 65.2424 60.3686 65.2247C60.3768 65.2207 60.3836 65.2166 60.3917 65.2111C60.4637 65.1704 60.548 65.1228 60.6418 65.0698C60.6581 65.0603 60.6758 65.0508 60.6934 65.0413C60.8076 64.9774 60.9353 64.9054 61.0699 64.8292C61.0943 64.8157 61.1202 64.8007 61.1446 64.7871C61.1827 64.7654 61.2207 64.745 61.2601 64.7219C61.286 64.7069 61.3131 64.692 61.339 64.677C61.3566 64.6675 61.3729 64.658 61.392 64.6471C61.4273 64.6281 61.4626 64.6077 61.498 64.5873C61.5156 64.5778 61.5333 64.5669 61.5523 64.5574C61.5768 64.5438 61.5999 64.5303 61.6244 64.518C61.748 64.4487 61.8744 64.3767 62.0022 64.306C62.0294 64.2911 62.0566 64.2761 62.0824 64.2612C62.1544 64.2204 62.2264 64.181 62.2985 64.1402C62.3148 64.1307 62.3324 64.1212 62.3487 64.113C62.4167 64.075 62.4847 64.0369 62.5512 63.9989C62.5784 63.9839 62.6042 63.969 62.6314 63.954C62.645 63.9459 62.6586 63.9391 62.6722 63.9309C62.6994 63.916 62.7266 63.901 62.7524 63.8861C62.819 63.8494 62.8842 63.8127 62.9481 63.776C62.9603 63.7692 62.9739 63.7624 62.9861 63.7542C62.9984 63.7474 63.012 63.7406 63.0242 63.7325C63.0459 63.7203 63.0677 63.708 63.0894 63.6958C63.1397 63.6673 63.19 63.6401 63.2376 63.6129C63.2389 63.6129 63.2403 63.6115 63.243 63.6102C63.2661 63.5966 63.2892 63.5844 63.3123 63.5721C63.3232 63.5653 63.3341 63.5599 63.3463 63.5531C63.4061 63.5191 63.4632 63.4879 63.5175 63.458C63.5298 63.4512 63.5406 63.4444 63.5529 63.4389C63.7132 63.3506 63.8424 63.2786 63.9293 63.2324C63.9375 63.2283 63.9443 63.2242 63.9524 63.2201C63.9592 63.2161 63.966 63.2133 63.9728 63.2093C64.4594 62.9483 65.533 62.4808 66.9559 62.3816C66.9491 62.3816 66.9424 62.3816 66.9369 62.3816L66.9328 62.3897Z" fill="#7A2C00"/>
<path d="M39.9123 68.4311L40.07 68.1525C40.3241 67.7026 40.1515 67.1318 39.6922 66.8981L38.7476 66.4238C38.5478 66.3232 38.3059 66.3612 38.1496 66.5203C37.8805 66.7921 37.6631 67.1182 37.6631 67.1182C37.6631 67.1182 39.014 68.0261 39.9137 68.4311H39.9123Z" fill="#62B8CC"/>
<path d="M40.8651 62.2498L41.2633 61.9386C41.4319 61.8082 41.6656 61.8054 41.8369 61.9318L42.7338 62.6005C43.0423 62.8329 43.0682 63.2868 42.7868 63.5532L42.5707 63.7502L40.8638 62.2498H40.8651Z" fill="#62B8CC"/>
<path d="M47.5803 60.5736L47.9608 60.0151C48.0668 59.8588 48.0396 59.6318 47.8983 59.5163L47.1753 58.9156C47.038 58.8014 46.8423 58.7879 46.6928 58.8857C46.4794 59.0257 46.2905 59.2825 46.2905 59.2825L47.5803 60.5736Z" fill="#BB41BF"/>
<path d="M48.469 67.915L50.1896 68.0849" stroke="#112130" stroke-width="0.515395" stroke-miterlimit="10" stroke-linecap="round"/>
<path d="M57.5487 63.5215C57.5487 63.5215 56.5104 63.8001 55.6963 64.3505" stroke="#112130" stroke-width="0.515395" stroke-miterlimit="10" stroke-linecap="round"/>
<path d="M49.6333 65.1904C49.6333 65.1904 49.3778 66.241 48.8682 66.8702" stroke="#112130" stroke-width="0.515395" stroke-miterlimit="10" stroke-linecap="round"/>
<path d="M54.7951 63.2852C54.7951 63.2852 54.0299 64.4404 52.6641 64.7108" stroke="#112130" stroke-width="0.515395" stroke-miterlimit="10" stroke-linecap="round"/>
<path d="M50.9994 59.6543C50.9994 59.6543 51.3596 60.134 50.0386 60.8244" stroke="#112130" stroke-width="0.515395" stroke-miterlimit="10" stroke-linecap="round"/>
<path d="M46.1979 62.5645C46.1979 62.5645 46.4602 63.0727 46.1028 63.6476" stroke="#112130" stroke-width="0.515395" stroke-miterlimit="10" stroke-linecap="round"/>
<path d="M70.6201 63.2708C66.3948 72.7176 52.8043 72.4525 52.8043 72.4525L50.9315 71.6249L51.5132 70.8624C49.1335 67.6768 44.5766 60.1952 47.7839 53.0235C49.249 49.7468 52.315 47.7979 55.2411 48.0086L55.2764 47.6484L57.2076 48.5019C59.427 49.4981 60.752 51.7582 60.9097 54.3241C62.2402 53.2736 63.8113 52.6932 65.3633 52.7055L65.8335 52.3847C65.8335 52.3847 67.531 53.1349 67.7104 53.2151C67.9238 53.3116 68.1303 53.419 68.3274 53.5372H68.3301C71.2684 55.3094 72.304 59.4953 70.6161 63.2681L70.6201 63.2708Z" fill="#CE2521"/>
<path d="M69.5426 58.1961L45.1408 60.5894C44.5904 57.9351 44.6407 55.0417 45.9127 52.1972C47.7026 48.1934 51.8817 46.1712 55.278 47.6498C55.2984 47.658 55.3174 47.6675 55.3378 47.6756C55.3405 47.6756 55.3419 47.6783 55.3446 47.6783C55.3459 47.6783 55.3487 47.6811 55.35 47.6811C57.5626 48.68 58.8822 50.936 59.0399 53.4978C59.5305 53.1105 60.0537 52.787 60.5973 52.5342C62.2853 51.7474 64.1621 51.6359 65.8419 52.3888C65.8446 52.3902 65.8487 52.3915 65.8514 52.3929C65.861 52.397 65.8705 52.4011 65.88 52.4051C68.0735 53.4081 69.385 55.6492 69.5426 58.1947V58.1961Z" fill="#DB4642"/>
<path d="M68.7716 62.3886C68.7634 62.4063 68.7566 62.4253 68.7485 62.443C68.7403 62.462 68.7308 62.4824 68.7227 62.5014C66.8648 66.6003 63.2375 68.8591 59.7407 70.1026C55.2504 71.7008 50.9748 71.6247 50.9354 71.6247C50.9354 71.6247 50.9245 71.6139 50.9055 71.5921C50.8851 71.5704 50.8565 71.5378 50.8185 71.4943C50.8171 71.4915 50.8158 71.4902 50.813 71.4888C50.4597 71.0879 49.3915 69.8253 48.2526 68.0001C48.1574 67.8479 48.0623 67.6916 47.9672 67.5326C47.5812 66.8871 47.1925 66.1804 46.8269 65.4234L46.1066 63.6484L45.6813 62.6006C45.6147 62.3981 45.5521 62.1929 45.491 61.985C45.3578 61.5283 45.2409 61.0635 45.1431 60.5906L69.5449 58.1973C69.6292 59.555 69.3859 60.9996 68.7743 62.39L68.7716 62.3886Z" fill="#F65E53"/>
<path d="M50.1499 49.5157C49.9814 51.1955 48.4824 52.4213 46.8026 52.2528C46.5131 52.2243 46.2359 52.1549 45.979 52.053C46.8597 50.1667 48.2758 48.7356 49.8822 47.9229C50.1065 48.404 50.207 48.9489 50.1513 49.5157H50.1499Z" fill="#FF908D"/>
<path d="M57.9172 70.669C58.5737 70.4923 59.2464 70.283 59.9246 70.0357C59.1771 70.0003 58.4731 70.2395 57.9172 70.669Z" fill="#FF908D"/>
<path d="M55.7401 68.9175C55.9086 67.2377 54.6828 65.7387 53.003 65.5702C51.3232 65.4017 49.8242 66.6275 49.6556 68.3073C49.4993 69.8661 50.5417 71.2673 52.0353 71.5976C52.5178 71.5731 53.1375 71.5269 53.8565 71.4427C54.8676 71.0268 55.6232 70.0822 55.7401 68.9175Z" fill="#FF908D"/>
<path d="M48.6538 64.4373C48.8223 62.7575 47.5964 61.2585 45.9166 61.09C45.691 61.0669 45.4695 61.0696 45.2534 61.0954C45.7372 63.1258 46.5581 65.0027 47.4265 66.5928C48.0966 66.0981 48.5641 65.3329 48.6538 64.4373Z" fill="#FF908D"/>
<path d="M68.6741 59.6044C66.9943 59.4358 65.4953 60.6617 65.3268 62.3415C65.199 63.6149 65.8731 64.7851 66.9386 65.3491C67.6439 64.4997 68.2596 63.5361 68.7489 62.4421C69.1375 61.5736 69.3808 60.6821 69.4909 59.8041C69.2354 59.7022 68.9622 59.6343 68.6741 59.6057V59.6044Z" fill="#FF908D"/>
<path d="M49.4027 56.9761C49.2342 58.6559 47.7351 59.8817 46.0553 59.7132C45.6517 59.6724 45.2739 59.5555 44.9355 59.3775C44.699 57.574 44.7697 55.685 45.3242 53.7945C45.74 53.6437 46.1953 53.5825 46.6655 53.6301C48.3453 53.7986 49.5712 55.2976 49.4027 56.9774V56.9761Z" fill="#F65E53"/>
<path d="M64.3237 58.4742C64.3155 58.5544 64.3046 58.6332 64.291 58.712L58.4349 59.2855C58.2623 58.8479 58.1889 58.3641 58.2392 57.864C58.4077 56.1842 59.9067 54.9583 61.5865 55.1268C63.2663 55.2953 64.4922 56.7944 64.3237 58.4742Z" fill="#F65E53"/>
<path d="M64.291 58.71C64.0124 60.2661 62.5759 61.3696 60.9762 61.2093C59.7966 61.091 58.8412 60.3164 58.4348 59.2835L64.291 58.71Z" fill="#FF908D"/>
<path d="M69.5411 58.1961L69.06 58.2436C68.9785 58.2423 68.8956 58.2369 68.8127 58.2287C67.1329 58.0602 65.907 56.5611 66.0755 54.8813C66.1476 54.157 66.4683 53.5182 66.9426 53.0371C68.4947 54.1977 69.412 56.0923 69.5425 58.1961H69.5411Z" fill="#F65E53"/>
<path d="M69.5423 58.213C69.3846 58.2361 69.2229 58.2456 69.0598 58.2429L69.5409 58.1953C69.5409 58.1953 69.5409 58.2075 69.5409 58.213H69.5423Z" fill="#F65E53"/>
<path d="M60.8389 62.5868C59.1591 62.4183 57.6601 63.6441 57.4916 65.3239C57.323 67.0037 58.5489 68.5027 60.2287 68.6713C61.9085 68.8398 63.4075 67.6139 63.5761 65.9341C63.7446 64.2543 62.5187 62.7553 60.8389 62.5868Z" fill="#FF908D"/>
<path d="M64.7873 52.0333C64.245 53.16 63.0409 53.8816 61.7253 53.7498C61.0118 53.6778 60.3799 53.3665 59.9028 52.9031C61.4236 51.9939 63.1578 51.6528 64.7873 52.0333Z" fill="#F65E53"/>
<path d="M56.0335 59.5204L50.5918 60.0546C51.0729 58.7988 52.3491 57.967 53.7516 58.1084C54.726 58.2062 55.5483 58.7512 56.0335 59.5204Z" fill="#F65E53"/>
<path d="M56.4886 61.4558C56.3201 63.1356 54.8211 64.3615 53.1413 64.1929C51.4615 64.0244 50.2356 62.5254 50.4042 60.8456C50.4313 60.5683 50.4966 60.3033 50.5917 60.0546L56.0334 59.5205C56.384 60.0764 56.5593 60.7505 56.4886 61.4558Z" fill="#FF908D"/>
<path d="M56.8245 48.6389C56.2265 49.1051 55.4546 49.3524 54.6391 49.2695C53.4146 49.1472 52.4334 48.3182 52.0542 47.2282C53.1632 47.0706 54.2885 47.2038 55.3377 47.6753C55.8895 47.9227 56.3869 48.2489 56.8245 48.6389Z" fill="#FF908D"/>
<path d="M57.2374 53.9937C57.0689 55.6735 55.5699 56.8994 53.8901 56.7308C52.2103 56.5623 50.9844 55.0633 51.1529 53.3835C51.3215 51.7037 52.8205 50.4778 54.5003 50.6463C56.1801 50.8149 57.406 52.3139 57.2374 53.9937Z" fill="#F65E53"/>
<path d="M62.4997 62.9746L58.6156 61.2432C58.4348 61.163 58.3084 60.9904 58.2853 60.7947L58.1915 59.986C58.1915 59.986 58.1888 59.9589 58.163 59.9494C58.1372 59.9398 58.1222 59.9548 58.1182 59.9589L56.0565 61.9241C55.8784 62.0939 55.6216 62.1293 55.4041 62.0138C55.1867 61.8982 55.0725 61.6658 55.1146 61.4226L55.9505 56.5286C55.9518 56.5191 55.9559 56.4974 55.9274 56.4824C55.8988 56.4675 55.8839 56.4824 55.8771 56.4892L53.6156 58.6351C53.4498 58.7928 53.2079 58.8336 53 58.7412L49.7532 57.2938L49.9638 56.8208L53.2106 58.2682C53.2269 58.275 53.2459 58.2723 53.2582 58.26L55.5196 56.1141C55.6977 55.9442 55.9545 55.9102 56.172 56.0258C56.3894 56.1413 56.5022 56.3737 56.4615 56.617L55.6257 61.5109C55.6243 61.5204 55.6202 61.5422 55.6488 61.5571C55.6773 61.5721 55.6922 61.5571 55.699 61.5503L57.7607 59.5851C57.9157 59.437 58.1385 59.3908 58.3397 59.4628C58.5422 59.5362 58.6822 59.7129 58.7066 59.9262L58.8004 60.7349C58.8018 60.7498 58.8126 60.7634 58.8262 60.7702L62.7104 62.5017L62.4997 62.9746Z" fill="white"/>
<path d="M76.0049 67.6571C76.0049 70.6973 68.4037 75.2393 63.9025 75.2393C60.4383 75.2393 56.2986 75.7313 54.5753 75.9569C54.0072 76.0316 53.431 76.0099 52.8697 75.8957C51.6927 75.6552 49.5237 75.1646 47.4185 74.4592C45.7523 73.9006 43.4718 73.1939 41.7186 72.6612C40.6382 72.3323 39.7575 72.0686 39.3444 71.945C39.1799 71.896 39.0889 71.8688 39.0889 71.8688C39.0889 71.8688 38.9829 69.6481 41.894 69.6481H42.6659L45.5688 70.1279L47.1793 70.4119C47.1793 70.4119 47.182 70.4119 47.1834 70.4119C47.1834 70.4119 47.1848 70.4119 47.1861 70.4119H47.1875H47.1902L48.7803 70.8428L49.0548 70.9175L49.3198 70.9895C49.805 71.1499 50.2671 71.3279 50.6775 71.5236C50.6843 71.5277 50.6911 71.5304 50.6993 71.5332C50.6993 71.5332 50.6993 71.5332 50.7006 71.5332L50.8134 71.4924L51.1151 71.3823L51.9713 71.0697L52.1983 70.9868L52.3505 70.9556L55.5824 70.2978L57.3627 69.7732L57.3451 69.7691C57.3451 69.7691 57.3423 69.7691 57.341 69.7691L55.5389 69.4049L55.2276 69.3424L55.0768 69.3125L51.8219 68.6547L51.7702 68.6438L51.1138 68.512L50.6069 68.41H50.6014C50.6014 68.41 50.2386 67.2331 51.6058 66.0385C52.1385 65.5737 53.5696 65.3848 53.5696 65.3848L54.2967 65.3889H54.2994L57.3695 65.4052L60.1053 65.378C60.1053 65.378 60.1067 65.378 60.108 65.3766C60.1162 65.3726 60.1365 65.3603 60.1692 65.3427C60.1692 65.3427 60.1692 65.3427 60.1705 65.3427C60.1773 65.3386 60.1855 65.3345 60.1936 65.3291C60.1977 65.3277 60.2004 65.325 60.2045 65.3236C60.2086 65.3209 60.2113 65.3196 60.2154 65.3168C60.2249 65.3114 60.2371 65.3046 60.248 65.2978C60.2589 65.2924 60.2697 65.2856 60.2806 65.2788C60.3064 65.2638 60.3363 65.2475 60.3676 65.2299C60.3757 65.2258 60.3825 65.2217 60.3907 65.2163C60.4627 65.1755 60.547 65.1279 60.6408 65.0749C60.6571 65.0654 60.6747 65.0559 60.6924 65.0464C60.8066 64.9825 60.9343 64.9105 61.0689 64.8344C61.0933 64.8208 61.1191 64.8058 61.1436 64.7922C61.1817 64.7705 61.2197 64.7501 61.2591 64.727C61.285 64.7121 61.3121 64.6971 61.338 64.6822C61.3556 64.6726 61.3719 64.6631 61.391 64.6523C61.4263 64.6332 61.4616 64.6128 61.497 64.5925C61.5146 64.583 61.5323 64.5721 61.5513 64.5626C61.5758 64.549 61.5989 64.5354 61.6234 64.5232C61.747 64.4538 61.8734 64.3818 62.0012 64.3111C62.0284 64.2962 62.0555 64.2812 62.0814 64.2663C62.1534 64.2255 62.2254 64.1861 62.2974 64.1453C62.3138 64.1358 62.3314 64.1263 62.3477 64.1182C62.4157 64.0801 62.4836 64.042 62.5502 64.004C62.5774 63.989 62.6032 63.9741 62.6304 63.9591C62.644 63.951 62.6576 63.9442 62.6712 63.936C62.6984 63.9211 62.7255 63.9061 62.7514 63.8912C62.818 63.8545 62.8832 63.8178 62.9471 63.7811C62.9593 63.7743 62.9729 63.7675 62.9851 63.7594C62.9974 63.7526 63.011 63.7458 63.0232 63.7376C63.0449 63.7254 63.0667 63.7132 63.0884 63.7009C63.1387 63.6724 63.189 63.6452 63.2366 63.618C63.2379 63.618 63.2393 63.6167 63.242 63.6153C63.2651 63.6031 63.2882 63.5895 63.3113 63.5772C63.3222 63.5705 63.333 63.565 63.3453 63.5582C63.4051 63.5242 63.4622 63.493 63.5165 63.4631C63.5288 63.4563 63.5396 63.4495 63.5519 63.4441C63.7122 63.3557 63.8413 63.2837 63.9283 63.2375C63.9365 63.2334 63.9433 63.2293 63.9514 63.2253C63.9582 63.2212 63.965 63.2185 63.9718 63.2144C64.4583 62.9534 65.532 62.4859 66.9549 62.3867C67.2539 62.3962 67.557 62.4125 67.8655 62.4316C68.1618 62.4506 68.4472 62.4737 68.7244 62.4982C69.4991 62.5688 70.1976 62.6612 70.8269 62.7754C71.5268 62.9032 72.1397 63.0581 72.6752 63.2416C72.6793 63.2429 72.6833 63.2443 72.6874 63.2456C73.1835 63.4155 73.6129 63.6099 73.9826 63.826C73.9826 63.826 73.984 63.826 73.9853 63.8273C75.4952 64.7148 76.0076 65.9923 76.0076 67.6531L76.0049 67.6571Z" fill="#A44303"/>
<path d="M39.3985 71.6762L39.3428 71.948L41.713 72.6751C41.713 72.6751 41.9535 72.0295 40.9859 71.7822C40.4151 71.6367 39.9856 71.5294 39.7287 71.4669C39.5792 71.4302 39.4298 71.5253 39.3985 71.6762Z" fill="#9CE8FF"/>
<path d="M51.1637 67.8992C51.1922 67.66 51.4097 67.4901 51.6475 67.52L53.3776 67.7429C54.0354 67.8244 54.5287 68.383 54.5287 69.0462V69.1957L51.1134 68.5135C51.1039 68.4659 51.1243 68.2213 51.1623 67.8992H51.1637Z" fill="#9CE8FF"/>
<path d="M47.9633 67.5309C47.8464 67.4575 47.7173 67.376 47.5801 67.289C47.2023 67.0485 46.7538 66.7576 46.2645 66.4314C45.99 65.5385 45.8364 64.7082 45.7508 64.0449C45.6312 63.1181 45.6434 62.5146 45.6434 62.5146L45.6774 62.5989L46.1028 63.6467L46.8231 65.4217C47.1887 66.1787 47.5774 66.8854 47.9633 67.5309Z" fill="#112130"/>
<path d="M50.8091 71.4877C50.748 71.5135 50.7113 71.5298 50.7018 71.5353C50.7018 71.5353 50.7018 71.5353 50.7004 71.5353C50.6936 71.5312 50.6868 71.5285 50.6787 71.5257C50.2682 71.33 49.8075 71.152 49.321 70.9916L49.056 70.9196L48.7814 70.8449C48.7719 70.834 48.7611 70.8245 48.7515 70.8136C48.159 70.1966 47.6806 69.5252 47.2919 68.8403C47.1207 68.5385 46.9671 68.2328 46.8298 67.9297C47.0215 68.0384 47.1302 68.1036 47.1302 68.1036C47.1302 68.1036 47.4074 68.0506 47.8777 68.0194C47.9918 68.0112 48.1169 68.0058 48.2514 68.0017C48.95 69.1202 49.6213 70.0267 50.1174 70.6546C50.1364 70.6791 50.1568 70.7049 50.1758 70.728C50.4612 71.0854 50.6841 71.345 50.8119 71.4904L50.8091 71.4877Z" fill="#112130"/>
<path d="M57.3639 69.774L55.5836 70.2986L52.3517 70.9564L52.1995 70.9876L51.9726 71.0705L51.1164 71.3831L50.8147 71.4932L50.7019 71.534C50.7114 71.5299 50.7481 71.5136 50.8092 71.4864C50.6815 71.341 50.4586 71.0814 50.1732 70.724C50.1542 70.6995 50.1351 70.675 50.1147 70.6506C51.3855 70.0322 53.7298 69.5823 55.2275 69.3418L55.5387 69.4043L57.3408 69.7685C57.3408 69.7685 57.3436 69.7685 57.3449 69.7685L57.3626 69.7726L57.3639 69.774Z" fill="#112130"/>
<path d="M44.7353 62.5703L44.3521 62.8924" stroke="#7A2C00" stroke-width="0.0462175" stroke-miterlimit="10"/>
<mask id="mask1_6882_91006" style="mask-type:luminance" maskUnits="userSpaceOnUse" x="44" y="47" width="28" height="26">
<path d="M70.6201 63.2712C66.3948 72.718 52.8056 72.4529 52.8056 72.4529L50.9328 71.6253C50.9328 71.6253 50.8907 71.5804 50.8146 71.4934C50.8132 71.4921 50.8118 71.4894 50.8091 71.488C50.4558 71.0871 49.3876 69.8245 48.2487 67.9993C48.1535 67.8471 48.0584 67.6908 47.9633 67.5318C47.5773 66.8862 47.1886 66.1795 46.823 65.4225L46.1027 63.6476L45.6773 62.5998C45.6107 62.3973 45.5482 62.1921 45.4871 61.9841C44.6091 58.967 44.4121 55.549 45.9111 52.1962C47.701 48.1924 51.8801 46.1702 55.2763 47.6488C55.2967 47.657 55.3158 47.6665 55.3361 47.6746C55.3375 47.6746 55.3402 47.676 55.3429 47.6774C55.3443 47.6774 55.347 47.6787 55.3497 47.6801L57.2103 48.5023C58.8941 49.2579 60.0629 50.7407 60.597 52.5319C62.285 51.745 64.1618 51.6336 65.8416 52.3865C65.8457 52.3879 65.8484 52.3892 65.8511 52.3906C65.8579 52.3933 65.8647 52.3974 65.8715 52.4001C65.8742 52.4001 65.8756 52.4014 65.8783 52.4028C65.8797 52.4028 65.881 52.4028 65.8824 52.4042C65.8824 52.4042 65.8838 52.4042 65.8851 52.4042C66.1651 52.5278 67.5513 53.1408 67.713 53.2128C67.9264 53.3093 68.133 53.4167 68.3301 53.5349H68.3328C71.2711 55.3071 72.3067 59.493 70.6187 63.2657L70.6201 63.2712Z" fill="white"/>
</mask>
<g mask="url(#mask1_6882_91006)">
<path d="M31.6753 54.7628C30.9183 51.819 37.1496 45.528 41.5094 44.4068C44.8649 43.5438 48.7518 42.0379 50.3637 41.3897C50.895 41.1763 51.4577 41.0526 52.0312 41.0254C53.2313 40.9656 55.4533 40.9004 57.6686 41.0594C60.9303 41.2945 66.3828 41.4943 66.3828 41.4943C66.3828 41.4943 67.0379 43.6185 64.2179 44.3429C63.8373 44.4407 63.4704 44.5345 63.4704 44.5345L60.5389 44.7927L58.9067 44.9191L56.0934 44.8824L55.2196 44.7058L53.9026 45.6095L50.7972 47.1194L49.2044 48.0708L56.0921 47.7106C56.0921 47.7106 56.7363 48.7585 55.7088 50.2561C55.3079 50.8392 53.9692 51.3774 53.9692 51.3774L50.2835 52.3042L47.6415 53.0109C47.6415 53.0109 44.8948 55.6448 44.4368 56.0647C44.0305 56.4385 43.1077 57.1574 41.754 57.6086C41.4618 57.6739 41.1642 57.7337 40.8611 57.7907C34.5375 58.9826 32.4336 57.7051 31.6766 54.76L31.6753 54.7628Z" fill="#7C1515"/>
</g>
<path d="M31.5359 53.8018C30.7803 50.8581 37.0102 44.567 41.37 43.4458C44.7256 42.5828 48.6125 41.077 50.2243 40.4287C50.7557 40.2154 51.3183 40.0917 51.8919 40.0645C53.0919 40.0047 55.314 39.9395 57.5292 40.0985C60.7909 40.3336 66.2435 40.5334 66.2435 40.5334C66.2435 40.5334 66.8985 42.6576 64.0785 43.3819L63.331 43.5736L60.3995 43.8318L58.7673 43.9582L55.9541 43.9215L55.0802 43.7448L53.7633 44.6486L50.6578 46.1585L49.065 47.1098L55.9527 46.7497C55.9527 46.7497 56.5969 47.7975 55.5695 49.2952C55.1685 49.8782 53.8299 50.4164 53.8299 50.4164L50.1441 51.3433L47.5021 52.05C47.5021 52.05 44.7555 54.6838 44.2975 55.1038C43.8911 55.4775 42.9683 56.1965 41.6147 56.6477C41.3225 56.7129 41.0248 56.7727 40.7218 56.8298C34.3981 58.0217 32.2943 56.7442 31.5373 53.7991L31.5359 53.8018Z" fill="#A44303"/>
<path d="M65.9901 40.7967L65.9765 40.5194L63.4989 40.4053C63.4989 40.4053 63.4269 41.0902 64.4258 41.0889C65.0143 41.0889 65.4573 41.0848 65.7224 41.0821C65.8759 41.0807 65.9969 40.9516 65.9901 40.798V40.7967Z" fill="#9CE8FF"/>
<path d="M55.5347 47.3845C55.5673 47.6223 55.3988 47.8425 55.161 47.8724L53.4295 48.0884C52.7718 48.1727 52.1548 47.7555 51.9903 47.1126L51.9536 46.9672L55.4314 46.7783C55.4518 46.8232 55.4926 47.0637 55.5361 47.3858L55.5347 47.3845Z" fill="#9CE8FF"/>
<path d="M66.0521 42.0692C65.7722 42.5815 65.2 43.0966 64.0706 43.3861C63.6901 43.484 63.3232 43.5777 63.3232 43.5777L60.3917 43.836L58.7595 43.961L55.9462 43.9243L55.0723 43.7476L53.7554 44.6514L50.65 46.1613L49.0572 47.1126C49.0572 47.1126 44.3929 46.849 42.3394 48.0952C42.5296 47.9675 48.6508 43.8699 53.1112 42.8602C57.6423 41.8341 66.0535 42.0678 66.0535 42.0678L66.0521 42.0692Z" fill="#8C3200"/>
<path d="M39.6135 70.4332C40.0117 70.0051 40.6926 69.6476 41.8587 69.6449C42.2515 69.6449 42.6306 69.6436 42.6306 69.6436L45.5363 70.1165L47.1495 70.3978L49.8676 71.1263L50.6708 71.5136L52.1698 70.9632L55.5525 70.2646L57.3315 69.7346C57.3315 69.7346 61.7865 71.1399 64.0833 70.44C63.8672 70.5161 56.9238 72.9787 52.3533 72.8564C47.7094 72.734 39.6149 70.4318 39.6149 70.4318L39.6135 70.4332Z" fill="#8C3200"/>
<path d="M55.0786 43.7461C55.0786 43.7461 54.3121 44.3753 52.7886 45.1826C52.1933 45.4979 51.4812 45.8404 50.6562 46.1842" stroke="#602200" stroke-width="0.420159" stroke-miterlimit="10" stroke-linecap="round"/>
<path d="M56.1986 43.922C56.1986 43.922 54.9034 43.8622 54.5405 43.46" stroke="#602200" stroke-width="0.420159" stroke-miterlimit="10" stroke-linecap="round"/>
<path d="M60.2975 43.8385C60.2975 43.8385 59.6329 43.4213 59.6424 42.7363" stroke="#602200" stroke-width="0.420159" stroke-miterlimit="10" stroke-linecap="round"/>
<path d="M51.529 46.9102C49.6644 47.0338 47.4138 47.2445 45.1333 47.6074" stroke="#602200" stroke-width="0.420159" stroke-miterlimit="10" stroke-linecap="round"/>
<path d="M46.2477 53.248C45.9364 53.5253 45.6225 53.8216 45.2909 54.1477C44.8043 54.6234 44.3491 55.1167 43.8381 55.5258C43.2075 55.992 42.4477 56.3671 41.6133 56.6511" stroke="#602200" stroke-width="0.420159" stroke-miterlimit="10" stroke-linecap="round"/>
<path d="M49.262 48.3589C49.262 48.3589 49.5678 48.1197 49.0623 47.1113" stroke="#602200" stroke-width="0.420159" stroke-miterlimit="10" stroke-linecap="round"/>
<path d="M47.2909 68.8398C47.2691 69.0016 47.2052 69.1755 47.0693 69.3468" stroke="#491902" stroke-width="0.420159" stroke-miterlimit="10" stroke-linecap="round"/>
<path d="M45.751 64.0459C45.6952 64.0935 45.6354 64.1397 45.5688 64.1859" stroke="#491902" stroke-width="0.420159" stroke-miterlimit="10" stroke-linecap="round"/>
<path d="M43.828 66.3652C43.828 66.3652 44.108 67.0855 43.7886 67.4851" stroke="#491902" stroke-width="0.420159" stroke-miterlimit="10" stroke-linecap="round"/>
<path d="M55.5903 70.2744C54.2449 70.466 53.1576 70.7243 52.3517 70.9567C52.2172 70.9961 52.0921 71.0328 51.9739 71.0708C51.6246 71.1795 51.3447 71.2788 51.1367 71.3576C50.9927 71.4119 50.8826 71.4568 50.8105 71.488" stroke="#602200" stroke-width="0.420159" stroke-miterlimit="10" stroke-linecap="round"/>
<path d="M43.5886 69.7949C43.5886 69.7949 45.2806 69.9838 47.1792 70.4092C47.1792 70.4092 47.182 70.4092 47.1833 70.4092C47.1833 70.4092 47.1847 70.4092 47.186 70.4092C47.1874 70.4092 47.1888 70.4092 47.1901 70.4092" stroke="#602200" stroke-width="0.420159" stroke-miterlimit="10" stroke-linecap="round"/>
<path d="M50.6787 71.5254C50.888 71.6491 51.0701 71.7931 51.1503 71.9467" stroke="#602200" stroke-width="0.420159" stroke-miterlimit="10" stroke-linecap="round"/>
<path d="M50.1095 71.249C49.8567 71.1457 49.6597 71.0859 49.6597 71.0859" stroke="#602200" stroke-width="0.420159" stroke-miterlimit="10" stroke-linecap="round"/>
<path d="M45.6677 70.1455C45.6677 70.1455 46.2073 70.715 46.0279 71.3755" stroke="#602200" stroke-width="0.420159" stroke-miterlimit="10" stroke-linecap="round"/>
<path d="M54.926 69.3535C56.2525 69.6022 57.7841 69.8564 59.3987 70.0602" stroke="#602200" stroke-width="0.420159" stroke-miterlimit="10" stroke-linecap="round"/>
<path d="M57.481 68.5146C57.481 68.5146 57.1263 68.6709 57.3628 69.7731" stroke="#602200" stroke-width="0.420159" stroke-miterlimit="10" stroke-linecap="round"/>
<path d="M44.7358 62.5703L44.3525 62.8924" stroke="#7A2C00" stroke-width="0.0462175" stroke-miterlimit="10"/>
</g>
<defs>
<clipPath id="clip0_6882_91006">
<rect width="130" height="130" fill="white"/>
</clipPath>
<clipPath id="clip1_6882_91006">
<rect width="44.5308" height="36" fill="white" transform="translate(31.4739 40)"/>
</clipPath>
</defs>
</svg>
