<svg width="86" height="86" viewBox="0 0 86 86" fill="none" xmlns="http://www.w3.org/2000/svg">
<g clip-path="url(#clip0_6882_102658)">
<path d="M72.5584 5.33178L77.507 19.2528C77.8842 20.3121 78.4801 21.2802 79.2559 22.0941C80.0318 22.9081 80.9702 23.5496 82.0103 23.9771C83.0503 24.4046 84.1687 24.6084 85.2926 24.5754C86.4166 24.5423 87.5211 24.2731 88.5342 23.7852L101.88 17.4425C108.692 14.205 115.801 21.3142 112.564 28.1327L106.221 41.4723C105.739 42.486 105.476 43.5895 105.447 44.7115C105.419 45.8334 105.626 46.9489 106.056 47.9858C106.486 49.0226 107.128 49.9577 107.942 50.7307C108.756 51.5036 109.723 52.0972 110.78 52.473L124.694 57.4216C126.256 57.9761 127.607 59.0004 128.563 60.3538C129.518 61.7072 130.031 63.3233 130.031 64.9801C130.031 66.6368 129.518 68.253 128.563 69.6064C127.607 70.9598 126.256 71.9841 124.694 72.5385L110.78 77.4872C109.723 77.8631 108.757 78.4565 107.944 79.2289C107.131 80.0014 106.489 80.9358 106.059 81.9719C105.63 83.0079 105.422 84.1225 105.45 85.2438C105.478 86.365 105.741 87.4679 106.221 88.4813L112.564 101.828C113.273 103.323 113.502 105.001 113.22 106.631C112.937 108.262 112.158 109.765 110.988 110.935C109.818 112.105 108.314 112.885 106.684 113.167C105.053 113.449 103.376 113.22 101.88 112.511L88.5342 106.168C87.5208 105.688 86.4179 105.425 85.2966 105.397C84.1754 105.369 83.0608 105.577 82.0247 106.006C80.9887 106.436 80.0543 107.078 79.2818 107.891C78.5093 108.704 77.916 109.67 77.5401 110.727L72.5914 124.642C72.0369 126.203 71.0126 127.554 69.6592 128.51C68.3058 129.465 66.6897 129.978 65.033 129.978C63.3762 129.978 61.7601 129.465 60.4067 128.51C59.0533 127.554 58.0289 126.203 57.4745 124.642L52.5258 110.727C52.15 109.67 51.5565 108.703 50.7835 107.889C50.0106 107.075 49.0755 106.433 48.0386 106.003C47.0018 105.573 45.8863 105.366 44.7643 105.394C43.6423 105.423 42.5388 105.687 41.5251 106.168L28.1855 112.511C21.3671 115.749 14.2579 108.639 17.4953 101.828L23.7852 88.5342C24.267 87.5214 24.5309 86.4187 24.5598 85.2975C24.5886 84.1763 24.3818 83.0615 23.9528 82.0253C23.5237 80.989 22.8819 80.0544 22.0689 79.2818C21.2559 78.5091 20.2897 77.9158 19.233 77.5401L5.33178 72.5583C3.77055 72.0039 2.41931 70.9796 1.46373 69.6262C0.508152 68.2728 -0.00488281 66.6567 -0.00488281 64.9999C-0.00488281 63.3431 0.508152 61.727 1.46373 60.3736C2.41931 59.0202 3.77055 57.9959 5.33178 57.4415L19.2528 52.4928C20.308 52.1143 21.2722 51.5187 22.0831 50.7446C22.894 49.9705 23.5336 49.035 23.9607 47.9984C24.3878 46.9619 24.5928 45.8473 24.5626 44.7267C24.5324 43.606 24.2675 42.5041 23.7852 41.4921L17.4425 28.1525C16.726 26.6543 16.4922 24.9707 16.7733 23.334C17.0545 21.6973 17.8367 20.1882 19.0121 19.015C20.1874 17.8418 21.698 17.0623 23.3352 16.7842C24.9724 16.5061 26.6556 16.743 28.1525 17.4623L41.4921 23.7852C42.5054 24.2671 43.6085 24.531 44.7301 24.5599C45.8518 24.5889 46.967 24.3821 48.0038 23.9531C49.0406 23.5241 49.9758 22.8823 50.749 22.0692C51.5223 21.2562 52.1163 20.29 52.4928 19.233L57.4415 5.33178C57.9959 3.77055 59.0202 2.41931 60.3736 1.46373C61.727 0.508152 63.3432 -0.00488281 64.9999 -0.00488281C66.6567 -0.00488281 68.2728 0.508152 69.6262 1.46373C70.9796 2.41931 72.0039 3.77055 72.5584 5.33178Z" fill="#6F56DC"/>
</g>
<g clip-path="url(#clip1_6882_102658)">
<path d="M44.7083 46.7119L44.3251 52.6519L44.3042 52.9829L43.3264 68.1447H37.9298C37.1181 68.1447 36.4446 67.4305 36.4956 66.6246L37.3852 52.8366L37.4073 52.5033L37.4827 51.3431L37.5071 50.9692L37.7057 47.8848C37.7487 47.2136 38.2875 46.7119 38.9634 46.7119H44.7095H44.7083Z" fill="#0573FF"/>
<path d="M56.08 48.2309L55.1963 61.9248L54.8711 66.9718C54.8282 67.6418 54.2893 68.1447 53.6123 68.1447H41.9727C41.1609 68.1447 40.4862 67.4317 40.5385 66.6257L41.7486 47.8848C41.7915 47.2136 42.3304 46.7119 43.0074 46.7119H54.647C55.4587 46.7119 56.1323 47.4261 56.0812 48.2309H56.08Z" fill="#02B6FF"/>
<path d="M44.6714 50.47L43.7679 64.4589C43.7482 64.7597 43.4985 64.9943 43.1966 64.9943C42.8656 64.9943 42.6043 64.7144 42.6252 64.3846L43.5275 50.3957C43.5473 50.0949 43.7969 49.8604 44.0989 49.8604C44.4298 49.8604 44.6911 50.1402 44.6702 50.47H44.6714Z" fill="#0573FF"/>
<path d="M47.0356 50.47L46.1322 64.4589C46.1124 64.7597 45.8627 64.9943 45.5608 64.9943C45.2298 64.9943 44.9686 64.7144 44.9895 64.3846L45.8918 50.3957C45.9115 50.0949 46.1612 49.8604 46.4631 49.8604C46.7941 49.8604 47.0554 50.1402 47.0345 50.47H47.0356Z" fill="#0573FF"/>
<path d="M49.4011 50.47L48.4976 64.4589C48.4779 64.7597 48.2282 64.9943 47.9263 64.9943C47.5953 64.9943 47.334 64.7144 47.3549 64.3846L48.2573 50.3957C48.277 50.0949 48.5267 49.8604 48.8286 49.8604C49.1596 49.8604 49.4209 50.1402 49.4 50.47H49.4011Z" fill="#0573FF"/>
<path d="M51.7656 50.47L50.8621 64.4589C50.8424 64.7597 50.5927 64.9943 50.2908 64.9943C49.9598 64.9943 49.6985 64.7144 49.7194 64.3846L50.6218 50.3957C50.6415 50.0949 50.8912 49.8604 51.1931 49.8604C51.5241 49.8604 51.7854 50.1402 51.7645 50.47H51.7656Z" fill="#0573FF"/>
<path d="M54.1314 50.47L53.2279 64.4589C53.2081 64.7597 52.9584 64.9943 52.6565 64.9943C52.3255 64.9943 52.0643 64.7144 52.0852 64.3846L52.9875 50.3957C53.0072 50.0949 53.2569 49.8604 53.5588 49.8604C53.8898 49.8604 54.1511 50.1402 54.1302 50.47H54.1314Z" fill="#0573FF"/>
<path d="M49.3525 46.7121H48.5419L48.7242 43.8901C48.7568 43.3803 48.3526 42.9483 47.8417 42.9483H43.2313C42.9108 42.9483 42.6449 43.1968 42.624 43.5174L42.4173 46.7121H41.6067L41.8273 43.2851C41.8691 42.6429 42.401 42.1436 43.0444 42.1436H48.7022C49.2131 42.1436 49.6184 42.5756 49.5848 43.0854L49.3513 46.7109L49.3525 46.7121Z" fill="#112130"/>
<path d="M40.6336 70.3682C40.687 71.1904 40.4617 71.9081 40.082 72.2936C39.895 72.4829 39.6709 72.5909 39.4235 72.5909C38.6745 72.5909 38.0033 71.5957 37.9231 70.3682C37.843 69.1407 38.3842 68.1455 39.1332 68.1455C39.3806 68.1455 39.6186 68.2535 39.8311 68.4428C40.2608 68.8283 40.5802 69.546 40.6348 70.3682H40.6336Z" fill="#112130"/>
<path d="M41.9886 70.3682C42.0687 71.5957 41.5264 72.5909 40.7785 72.5909H39.4233C39.6707 72.5909 39.8948 72.4829 40.0818 72.2936C40.4615 71.9081 40.6868 71.1904 40.6334 70.3682C40.58 69.546 40.2606 68.8272 39.8298 68.4428C39.6184 68.2535 39.3792 68.1455 39.1318 68.1455H40.4871C41.2349 68.1455 41.9073 69.1407 41.9874 70.3682H41.9886Z" fill="#223544"/>
<path d="M39.9867 70.3666C40.0146 70.7962 39.8973 71.1713 39.6987 71.3734C39.6012 71.4721 39.4839 71.529 39.3538 71.529C38.9625 71.529 38.6106 71.0087 38.5688 70.3666C38.527 69.7244 38.8103 69.2041 39.2017 69.2041C39.3306 69.2041 39.456 69.261 39.5663 69.3597C39.7916 69.5606 39.9577 69.9369 39.9867 70.3666Z" fill="#223544"/>
<path d="M50.3106 70.3682C50.364 71.1904 50.1387 71.9081 49.759 72.2936C49.572 72.4829 49.3479 72.5909 49.1005 72.5909C48.3515 72.5909 47.6803 71.5957 47.6002 70.3682C47.52 69.1407 48.0612 68.1455 48.8102 68.1455C49.0576 68.1455 49.2956 68.2535 49.5082 68.4428C49.9378 68.8283 50.2572 69.546 50.3118 70.3682H50.3106Z" fill="#112130"/>
<path d="M51.6671 70.3682C51.7472 71.5957 51.2049 72.5909 50.457 72.5909H49.1018C49.3491 72.5909 49.5733 72.4829 49.7602 72.2936C50.14 71.9081 50.3653 71.1904 50.3119 70.3682C50.2584 69.546 49.9391 68.8272 49.5082 68.4428C49.2969 68.2535 49.0577 68.1455 48.8103 68.1455H50.1655C50.9134 68.1455 51.5858 69.1407 51.6659 70.3682H51.6671Z" fill="#223544"/>
<path d="M49.6652 70.3666C49.6931 70.7962 49.5758 71.1713 49.3772 71.3734C49.2796 71.4721 49.1624 71.529 49.0323 71.529C48.6409 71.529 48.2891 71.0087 48.2473 70.3666C48.2054 69.7244 48.4888 69.2041 48.8802 69.2041C49.0091 69.2041 49.1345 69.261 49.2448 69.3597C49.4701 69.5606 49.6362 69.9369 49.6652 70.3666Z" fill="#223544"/>
<path d="M49.8227 44.2547H48.3897L48.4222 43.7577C48.4396 43.4871 48.2248 43.2583 47.9542 43.2583H43.3938C43.1465 43.2583 42.9409 43.4499 42.9258 43.6973L42.8898 44.2559H41.4568L41.5265 43.1759C41.5752 42.4234 42.2 41.8369 42.9549 41.8369H48.4547C49.2816 41.8369 49.9354 42.5348 49.8831 43.3605L49.825 44.2559L49.8227 44.2547Z" fill="#223544"/>
<mask id="mask0_6882_102658" style="mask-type:luminance" maskUnits="userSpaceOnUse" x="40" y="46" width="17" height="23">
<path d="M56.0795 48.2319L55.1958 61.9258L54.8706 66.9728C54.8277 67.6428 54.2888 68.1457 53.6118 68.1457H41.9722C41.1605 68.1457 40.4857 67.4326 40.538 66.6267L41.7481 47.8858C41.791 47.2146 42.3299 46.7129 43.0069 46.7129H54.6465C55.4583 46.7129 56.1318 47.4271 56.0807 48.2319H56.0795Z" fill="white"/>
</mask>
<g mask="url(#mask0_6882_102658)">
<path d="M61.0026 62.3396C65.3174 61.0672 67.6695 56.1504 66.2562 51.3576C64.8429 46.5648 60.1993 43.7109 55.8845 44.9833C51.5696 46.2556 49.2175 51.1725 50.6308 55.9653C52.0442 60.7581 56.6878 63.612 61.0026 62.3396Z" fill="#112130"/>
</g>
<path d="M55.4527 57.9404L55.1961 61.9248L54.8709 66.9718C54.828 67.6418 54.2891 68.1447 53.6121 68.1447H51.4556L52.0838 57.9416H55.4527V57.9404Z" fill="#112130"/>
<path d="M67.6485 59.9432H66.6045L66.7624 57.6357C66.781 57.3686 66.5685 57.1421 66.3014 57.1421H62.9848C62.742 57.1421 62.54 57.3303 62.5237 57.573L62.3611 59.9443H61.3171L61.4971 57.3082C61.5436 56.6323 62.1057 56.1074 62.7827 56.1074H66.5313C67.278 56.1074 67.868 56.7392 67.8169 57.4835L67.6485 59.9443V59.9432Z" fill="#223544"/>
<path d="M62.6631 59.2676H61.1081C60.9095 59.2676 60.7446 59.4197 60.7284 59.6183L60.6726 60.3185H62.9917L63.0428 59.6787C63.0602 59.4569 62.8849 59.2676 62.6631 59.2676Z" fill="#112130"/>
<path d="M67.9574 59.2676H66.4722C66.255 59.2676 66.075 59.4336 66.0576 59.6508L66.0042 60.3185H68.3232L68.3709 59.7158C68.3894 59.4743 68.199 59.2676 67.9563 59.2676H67.9574Z" fill="#112130"/>
<path d="M73.7407 60.9595L73.4132 65.7452L73.3888 66.1017L73.21 68.7134L73.1844 69.0839L73.0149 71.569C72.9754 72.1439 72.4981 72.5898 71.9221 72.5898H57.4013C56.8787 72.5898 56.4665 72.1474 56.5013 71.6259L57.1958 61.4728L58.4 59.9434H72.7907C73.3424 59.9434 73.7778 60.409 73.7395 60.9595H73.7407Z" fill="#AFA5FF"/>
<path d="M57.3002 59.9434L56.4362 72.5898H53.7118C53.2171 72.5898 52.8258 72.1706 52.8594 71.677L53.6015 60.8167C53.6352 60.3254 54.044 59.9434 54.5363 59.9434H57.3002Z" fill="#6D69B5"/>
<path d="M57.1957 61.4739C57.1887 61.4739 57.1829 61.4739 57.176 61.4739C56.7115 61.4739 56.3445 61.0791 56.377 60.6157L56.384 60.5263C56.4072 60.1977 56.6813 59.9434 57.0099 59.9434H58.0957L57.1957 61.4728V61.4739Z" fill="#112130"/>
<mask id="mask1_6882_102658" style="mask-type:luminance" maskUnits="userSpaceOnUse" x="56" y="59" width="18" height="14">
<path d="M73.7407 60.9595L73.0149 71.569C72.9754 72.1439 72.4982 72.5898 71.9222 72.5898H57.4025C56.88 72.5898 56.4677 72.1474 56.5025 71.6259L57.197 61.4728L58.4013 59.9434H72.7931C73.3436 59.9434 73.7791 60.409 73.7419 60.9583L73.7407 60.9595Z" fill="white"/>
</mask>
<g mask="url(#mask1_6882_102658)">
<path d="M68.3986 73.4818C67.4034 73.4818 66.1376 72.965 64.9763 70.956C64.8474 70.733 64.7266 70.4996 64.614 70.2569C64.3701 70.5112 64.1181 70.7539 63.8603 70.9815C62.5562 72.1335 61.1894 72.8361 60.0095 72.9604C58.8749 73.08 57.9006 72.6782 57.191 71.8002L57.1678 71.7689C56.3944 70.5879 56.1447 69.0108 56.2295 67.4419C55.5757 67.6045 54.9219 67.6626 54.311 67.6022L54.3888 66.8171C54.9974 66.8775 55.6558 66.7986 56.3073 66.6035C56.4199 65.7244 56.6301 64.872 56.9019 64.1183C57.3536 62.7944 58.3941 61.1222 59.3568 60.6042C60.0443 60.2036 60.5181 60.3824 60.7399 60.5264C61.1801 60.811 61.3949 61.4276 61.3148 62.1755V62.1824C61.1162 63.7571 60.1988 65.2099 58.7309 66.2713C58.2048 66.6522 57.6312 66.96 57.0436 67.1853C56.9193 68.6857 57.1086 70.2232 57.8181 71.3195C58.357 71.9779 59.0665 72.2671 59.9282 72.1753C60.9455 72.0685 62.1567 71.4344 63.3389 70.3904C63.6664 70.1013 63.9846 69.7854 64.2877 69.4533C63.9196 68.422 63.6943 67.2666 63.6362 66.0774C63.5468 64.26 63.8557 62.4797 64.5048 61.0653L64.5095 61.056C64.8997 60.2582 65.6011 59.357 66.3954 59.2211C66.6799 59.1724 67.105 59.1991 67.5149 59.6032L67.537 59.6264C68.1931 60.3848 68.2291 61.7365 68.1443 62.7375C68.0166 64.2135 67.5439 65.7999 66.8146 67.205C66.4001 68.0226 65.8392 68.8529 65.1946 69.6147C65.3317 69.9457 65.4873 70.2627 65.6603 70.5611C66.5894 72.1684 67.6473 72.8733 68.8028 72.6561C69.7457 72.4784 70.7491 71.6969 71.6584 70.438C70.6504 69.5775 69.899 68.688 69.3474 67.709C68.2651 65.9508 68.0851 63.6654 68.9085 62.1476C69.4241 61.1977 70.2811 60.66 71.3216 60.6344C72.6699 60.5857 73.9148 61.5008 74.3503 62.8618C74.6127 63.6387 74.6557 64.5956 74.4792 65.7058C74.2527 67.1818 73.5977 68.8726 72.714 70.2801C72.9834 70.488 73.2703 70.6959 73.5757 70.9026L73.1321 71.554C72.829 71.3473 72.5421 71.1406 72.2716 70.9339C71.2485 72.3379 70.0802 73.2182 68.9479 73.4307C68.7772 73.4632 68.5937 73.4818 68.3998 73.4818H68.3986ZM71.4226 61.4206C71.3971 61.4206 71.3716 61.4206 71.346 61.4218H71.3402C70.3821 61.4439 69.8642 62.0326 69.5983 62.5227C68.9131 63.7862 69.0896 65.7952 70.0186 67.3014L70.0268 67.3153C70.5192 68.191 71.1915 68.9946 72.095 69.7773C72.8975 68.4755 73.4897 66.9321 73.6965 65.5839C73.8532 64.5979 73.8196 63.7664 73.5989 63.1103L73.5966 63.1033C73.2772 62.1023 72.39 61.4206 71.4215 61.4206H71.4226ZM65.2167 61.3986C64.254 63.5005 64.1634 66.3759 64.8823 68.7472C65.3642 68.134 65.7846 67.486 66.1097 66.845C66.7937 65.5258 67.2362 64.044 67.3558 62.669C67.4557 61.4973 67.307 60.5822 66.9482 60.1537C66.7682 59.983 66.6288 59.9806 66.5255 59.998C66.126 60.0666 65.5883 60.6414 65.2167 61.3974V61.3986ZM60.1593 61.1466C60.0141 61.1466 59.8504 61.2279 59.7482 61.2871L59.7331 61.2952C58.9748 61.6982 58.0411 63.2125 57.6451 64.375L57.6428 64.3819C57.4361 64.9544 57.2654 65.6024 57.1539 66.2783C58.8285 65.5014 60.2917 63.9755 60.5297 62.086C60.582 61.596 60.4577 61.2813 60.3114 61.1872C60.2661 61.1582 60.2139 61.1466 60.1593 61.1466Z" fill="#C3C0FF"/>
</g>
<path d="M62.3516 59.9434L61.4864 72.5898H59.7271L60.5911 59.9434H62.3516Z" fill="#6D69B5"/>
<path d="M70.7435 59.9434L69.8783 72.5898H68.1201L68.9841 59.9434H70.7435Z" fill="#6D69B5"/>
<path d="M57.1958 61.4739L57.255 60.6541C57.2841 60.2534 57.6173 59.9434 58.018 59.9434H58.6033L58.5859 60.1872C58.5324 60.9235 57.939 61.4728 57.1958 61.4728V61.4739Z" fill="#223544"/>
<path d="M73.714 61.4738C73.0265 61.4738 72.4598 60.8687 72.5085 60.1882L72.526 59.9443H72.8662C73.383 59.9443 73.7918 60.3833 73.7546 60.8989L73.7128 61.4738H73.714Z" fill="#223544"/>
<path d="M71.9718 72.59H71.6455L71.6629 72.3461C71.7163 71.6098 72.3098 71.0605 73.053 71.0605L73.0123 71.6214C72.9729 72.1673 72.5188 72.59 71.9707 72.59H71.9718Z" fill="#223544"/>
<path d="M57.5174 72.59H56.1587C55.8335 72.59 55.5769 72.3136 55.6001 71.9896L55.6047 71.9327C55.6407 71.4333 56.0437 71.0605 56.5465 71.0605L57.5185 72.59H57.5174Z" fill="#112130"/>
<path d="M57.7335 72.5892H57.3712C56.866 72.5892 56.4677 72.1607 56.5037 71.6567L56.5467 71.0586C57.2342 71.0586 57.8009 71.6636 57.7521 72.3441L57.7347 72.588L57.7335 72.5892Z" fill="#223544"/>
<path d="M53.5527 61.4739L53.6027 60.7865C53.6363 60.3115 54.0323 59.9434 54.5085 59.9434H54.5433L54.4957 60.6018C54.4597 61.1012 54.0567 61.4739 53.5539 61.4739H53.5527Z" fill="#112130"/>
<path d="M53.677 72.5892C53.2021 72.5892 52.8258 72.1862 52.8606 71.7112L52.9071 71.0586C53.3728 71.0586 53.7572 71.4685 53.7246 71.9307L53.677 72.5892Z" fill="#112130"/>
<path d="M61.2929 59.408C57.1459 61.1487 52.2163 58.825 50.2816 54.217C50.0423 53.6468 49.86 53.0685 49.7323 52.489C49.7079 52.381 49.687 52.273 49.6672 52.1638C48.9263 48.1713 50.7519 44.2078 54.2903 42.7225C58.4385 40.9818 63.3681 43.3055 65.3017 47.9124C67.2352 52.5204 65.441 57.666 61.2929 59.4068V59.408Z" fill="#FF70FE"/>
<mask id="mask2_6882_102658" style="mask-type:luminance" maskUnits="userSpaceOnUse" x="49" y="42" width="18" height="18">
<path d="M61.2932 59.4055C65.4412 57.6645 67.236 52.518 65.302 47.9106C63.3681 43.3031 58.4377 40.9795 54.2898 42.7206C50.1419 44.4616 48.3471 49.6081 50.281 54.2155C52.215 58.823 57.1453 61.1466 61.2932 59.4055Z" fill="white"/>
</mask>
<g mask="url(#mask2_6882_102658)">
<path d="M69.1317 48.0926L70.4498 48.8091L66.5711 55.9429L65.253 55.2264L69.1317 48.0926ZM65.253 44.9327L66.5711 45.6492L68.6336 41.8564H66.9265L65.2542 44.9327H65.253ZM62.4253 48.3237L62.956 49.7265L70.0097 47.0579L69.479 45.655L62.4253 48.3237ZM64.7467 43.4033L63.4542 42.6426L60.3419 47.9277L61.6345 48.6883L64.7467 43.4033ZM70.293 43.5728L70.9515 44.9211L72.2324 44.2952V42.6252L70.2919 43.574L70.293 43.5728ZM72.1244 51.4673L72.2336 51.4452V46.281L71.0978 46.5167L72.1256 51.4673H72.1244ZM66.3423 63.5192H68.0494L70.4498 59.1039L69.1317 58.3874L66.3412 63.5192H66.3423ZM62.4253 58.6185L62.956 60.0213L70.0097 57.3527L69.479 55.9499L62.4253 58.6185ZM70.293 53.8665L70.9515 55.2148L72.2324 54.5888V52.9189L70.2919 53.8677L70.293 53.8665ZM72.1244 61.7621L72.2336 61.7401V56.5758L71.0978 56.8115L72.1256 61.7621H72.1244ZM63.2846 63.5192H63.9431L63.4542 63.2312L63.2846 63.5192ZM71.6076 63.5192H72.2336V63.2137L71.6076 63.5192ZM65.8081 61.4242L65.1497 60.0759L58.1076 63.518H61.523L65.8081 61.423V61.4242ZM51.7519 55.2264L53.0699 55.9429L56.9487 48.8091L55.6306 48.0926L51.7519 55.2264ZM51.7519 44.9327L53.0699 45.6492L55.1324 41.8564H53.4253L51.753 44.9327H51.7519ZM48.9253 48.3237L49.456 49.7265L56.5097 47.0579L55.979 45.655L48.9253 48.3237ZM46.8408 47.9277L48.1333 48.6883L51.2456 43.4033L49.953 42.6426L46.8408 47.9277ZM60.3025 41.8564L56.7919 43.5728L57.4503 44.9211L63.7178 41.8576H60.3025V41.8564ZM59.0657 46.2113L57.5966 46.5155L58.6244 51.4661L60.0934 51.1619L59.0657 46.2113ZM56.9487 59.1039L55.6306 58.3874L52.84 63.5192H54.5471L56.9475 59.1039H56.9487ZM64.7467 53.6981L63.4542 52.9375L60.3419 58.2225L61.6345 58.9832L64.7467 53.6981ZM56.5085 57.3527L55.9778 55.9499L48.9241 58.6185L49.4548 60.0213L56.5085 57.3527ZM57.4515 55.2148L65.8081 51.1293L65.1497 49.7811L56.793 53.8665L57.4515 55.2148ZM58.6244 61.7621L60.0934 61.4579L59.0657 56.5073L57.5966 56.8115L58.6244 61.7621ZM49.7835 63.5192H50.4419L49.953 63.2312L49.7835 63.5192ZM52.307 61.4242L51.6485 60.0759L44.6065 63.518H48.0218L52.307 61.423V61.4242ZM38.2507 44.9327L39.5688 45.6492L41.6312 41.8564H39.9241L38.2519 44.9327H38.2507ZM42.4767 45.655L36.165 48.0438V49.6475L43.0085 47.059L42.4778 45.6562L42.4767 45.655ZM36.4519 42.6415L36.165 43.1292V46.0859L37.7444 43.4033L36.4519 42.6426V42.6415ZM46.8013 41.8564L43.2907 43.5728L43.9492 44.9211L50.2167 41.8576H46.8013V41.8564ZM45.5645 46.2113L44.0955 46.5155L45.1232 51.4661L46.5923 51.1619L45.5645 46.2113ZM36.165 41.8564V42.1259L36.7167 41.8564H36.165ZM43.4475 59.1039L42.1294 58.3874L39.3388 63.5192H41.0459L43.4463 59.1039H43.4475ZM51.2456 53.6981L49.953 52.9375L46.8408 58.2225L48.1333 58.9832L51.2456 53.6981ZM43.4475 48.8091L42.1294 48.0926L38.2507 55.2264L39.5688 55.9429L43.4475 48.8091ZM42.4767 55.9499L36.165 58.3375V59.9412L43.0085 57.3527L42.4778 55.9499H42.4767ZM36.4519 52.9363L36.165 53.4241V56.3807L37.7444 53.6981L36.4519 52.9375V52.9363ZM43.9503 55.2148L52.307 51.1293L51.6485 49.7811L43.2919 53.8665L43.9503 55.2148ZM45.1232 61.7621L46.5923 61.4579L45.5645 56.5073L44.0955 56.8115L45.1232 61.7621ZM36.165 52.4207L38.8058 51.1293L38.1474 49.7811L36.165 50.7508V52.4207ZM36.9408 63.5192L36.4519 63.2312L36.2823 63.5192H36.9408ZM36.165 62.7155L38.8058 61.4242L38.1474 60.0759L36.165 61.0456V62.7155Z" fill="#918DE0"/>
</g>
<g style="mix-blend-mode:darken">
<path d="M62.0986 53.3821C63.0409 50.1174 61.8861 46.917 59.5192 46.2339C57.1524 45.5507 54.4698 47.6435 53.5275 50.9081C52.5852 54.1728 53.74 57.3731 56.1069 58.0563C58.4737 58.7395 61.1563 56.6467 62.0986 53.3821Z" fill="#C153C4"/>
</g>
<path d="M60.3034 55.1772C62.4731 54.2665 63.3998 51.5453 62.3731 49.0994C61.3464 46.6535 58.7552 45.4089 56.5855 46.3197C54.4157 47.2304 53.489 49.9516 54.5157 52.3975C55.5424 54.8435 58.1336 56.088 60.3034 55.1772Z" fill="#112130"/>
<path d="M60.3906 54.6402C62.2659 53.8531 63.0478 51.456 62.137 49.2863C61.2263 47.1165 58.9677 45.9956 57.0925 46.7828C55.2172 47.5699 54.4353 49.967 55.3461 52.1367C56.2568 54.3065 58.5153 55.4273 60.3906 54.6402Z" fill="#C153C4"/>
<path d="M60.9442 54.1453C62.7077 53.4051 63.4519 51.1722 62.6065 49.1579C61.761 47.1437 59.646 46.1109 57.8825 46.8511C56.119 47.5913 55.3748 49.8243 56.2203 51.8385C57.0658 53.8527 59.1807 54.8855 60.9442 54.1453Z" fill="#FCA1FF"/>
<path d="M63.3828 59.9403H63.5001C63.6592 59.9403 63.7869 59.7905 63.7451 59.628C63.6325 59.189 63.6197 59.1344 63.6755 58.9707C63.7266 58.8418 63.8787 58.7756 63.9913 58.7117C64.3873 58.4934 65.0702 57.9905 65.0702 57.9905L65.0423 57.209C65.0423 57.209 64.9982 57.2438 64.9262 57.2996V57.9406C64.9262 57.9406 64.2433 58.4434 63.8473 58.6618C63.7347 58.7256 63.5837 58.7907 63.5315 58.9207C63.4757 59.0856 63.5686 59.3725 63.629 59.628C63.6627 59.7708 63.5709 59.9032 63.4409 59.9334C63.4223 59.938 63.4037 59.9403 63.384 59.9403H63.3828Z" fill="#BA6500"/>
<path d="M69.3474 59.9239H69.4646C69.6237 59.9239 69.7515 59.7741 69.7097 59.6116C69.597 59.1726 69.5843 59.118 69.64 58.9543C69.6911 58.8254 69.8432 58.7592 69.9559 58.6953C69.9663 58.6895 69.9779 58.6837 69.9919 58.6779C70.0476 58.6535 70.1324 58.6256 70.2392 58.5954C70.8315 58.427 72.1031 58.1832 72.9021 58.0357C73.3166 57.959 73.6035 57.9091 73.6035 57.9091L73.5779 57.1972C73.5594 57.1891 73.5396 57.181 73.5175 57.1729C73.5013 57.1856 73.4815 57.2007 73.4583 57.2193V57.8603C73.4583 57.8603 73.2377 57.8987 72.9032 57.9602C72.1681 58.0938 70.8872 58.3365 70.2137 58.5141C70.1126 58.5409 70.0255 58.5652 69.9559 58.5896C69.8908 58.6105 69.8409 58.6303 69.8095 58.6477C69.6969 58.7116 69.5459 58.7766 69.4937 58.9067C69.4379 59.0716 69.5308 59.3584 69.5912 59.6139C69.6249 59.7567 69.5332 59.8891 69.4031 59.9193C69.3845 59.9239 69.3659 59.9263 69.3462 59.9263L69.3474 59.9239Z" fill="#EA8B0F"/>
<path d="M69.2209 59.9034L69.2929 59.9185C69.3115 59.922 69.3289 59.9243 69.3463 59.9243C69.3661 59.9243 69.3858 59.922 69.4032 59.9173C69.5333 59.886 69.625 59.7547 69.5913 59.6119C69.531 59.3564 69.4381 59.0696 69.4938 58.9047C69.5449 58.7758 69.697 58.7096 69.8097 58.6457C69.8329 58.6329 69.8666 58.619 69.9095 58.6039C69.9223 58.5993 69.9363 58.5935 69.9513 58.5888C69.9513 58.5888 69.9537 58.5888 69.9548 58.5888C69.963 58.5853 69.9723 58.583 69.9815 58.5795C69.9908 58.576 70.0001 58.5737 70.0106 58.5702C70.0686 58.5516 70.1372 58.5331 70.2126 58.5133C70.2846 58.4947 70.3624 58.475 70.4472 58.4553C70.4681 58.4506 70.4902 58.4448 70.5134 58.4402C70.5471 58.432 70.5808 58.4251 70.6156 58.4169C70.6342 58.4123 70.6528 58.4076 70.6725 58.4042C70.7596 58.3844 70.8502 58.3647 70.9443 58.3438C70.9698 58.3391 70.9953 58.3333 71.0209 58.3275C71.0464 58.3217 71.072 58.3171 71.0987 58.3113C71.1219 58.3066 71.144 58.302 71.1672 58.2973C71.1974 58.2915 71.2276 58.2845 71.2578 58.2787C71.2845 58.2729 71.3101 58.2683 71.3368 58.2625C71.3495 58.259 71.3635 58.2567 71.3774 58.2544C71.3983 58.2497 71.4204 58.2451 71.4424 58.2416C71.5818 58.2125 71.7235 58.1847 71.8628 58.158C71.8895 58.1533 71.9163 58.1475 71.943 58.1429C72.0103 58.1301 72.0765 58.1173 72.1415 58.1045C72.1671 58.0999 72.1926 58.0941 72.2182 58.0895C72.3239 58.0697 72.4249 58.05 72.5224 58.0325C72.5445 58.0279 72.5666 58.0244 72.5875 58.0209C72.6095 58.0163 72.6316 58.0128 72.6537 58.0082C72.7001 58 72.7466 57.9919 72.7895 57.9826C72.8279 57.9756 72.8662 57.9687 72.9022 57.9617C72.9753 57.9478 73.0439 57.9362 73.1054 57.9245C73.1217 57.9211 73.1379 57.9187 73.1542 57.9153C73.1855 57.9095 73.2146 57.9048 73.2413 57.9002C73.2552 57.8978 73.268 57.8955 73.2808 57.8932C73.2935 57.8909 73.3052 57.8885 73.3168 57.8874C73.333 57.8839 73.3493 57.8816 73.3632 57.8793C73.3702 57.8781 73.3772 57.8769 73.3841 57.8758C73.3946 57.8735 73.405 57.8723 73.4143 57.8711C73.4166 57.8711 73.419 57.8711 73.4224 57.87C73.4468 57.8653 73.4584 57.8642 73.4584 57.8642V57.1593C73.4434 57.1546 73.4271 57.15 73.4108 57.1465C73.239 57.1929 72.6212 57.3636 71.9313 57.5657C71.3217 57.7445 70.6563 57.9478 70.1917 58.1138C70.0524 58.1638 69.9316 58.2102 69.8352 58.252C69.733 58.2962 69.6587 58.3345 69.6204 58.3647C69.5275 58.439 69.4009 58.5261 69.3382 58.6271C69.2592 58.7363 69.2255 58.8698 69.2093 59.0011C69.1803 59.1845 69.1489 59.5109 69.1094 59.7431C69.0966 59.8198 69.1466 59.8918 69.2221 59.908L69.2209 59.9034Z" fill="#EA8B0F"/>
<path d="M69.3811 57.9741C69.5414 58.0055 69.5565 58.1007 69.5565 58.1007C69.5565 58.1007 69.9107 59.1946 70.2207 59.6232C70.4216 59.8984 70.885 59.9518 71.3425 59.939C70.9663 59.9286 70.6156 59.8531 70.4495 59.6232C70.1383 59.1946 69.7852 58.1007 69.7852 58.1007C69.7852 58.1007 69.7632 57.9648 69.4949 57.9648C69.4508 57.9648 69.4125 57.9683 69.3811 57.9753V57.9741Z" fill="#EA8B0F"/>
<path d="M65.1575 57.209H64.9287V57.9406H65.1575V57.209Z" fill="#EA8B0F"/>
<path d="M64.9287 57.2091H65.1575C65.413 57.0616 66.2235 57.0314 66.5975 57.0256C66.5859 57.0256 66.5731 57.0256 66.5615 57.0245C66.5615 57.0245 65.2655 57.0163 64.9299 57.2103L64.9287 57.2091Z" fill="#EA8B0F"/>
<path d="M64.9287 57.9414L65.1645 58.2282C65.1645 58.2282 65.4583 58.6904 65.5767 59.0435C65.694 59.3965 65.9042 59.8262 66.4767 59.8854C66.7426 59.9121 67.0887 59.9504 67.4162 59.94C67.1619 59.933 66.9099 59.9063 66.7055 59.8854C66.133 59.8262 65.9228 59.3965 65.8055 59.0435C65.687 58.6904 65.3932 58.2282 65.3932 58.2282L65.1575 57.9414H64.9287Z" fill="#EA8B0F"/>
<path d="M65.1575 57.2091V57.9407L65.3933 58.2275C65.3933 58.2275 65.6871 58.6897 65.8055 59.0427C65.9228 59.3958 66.133 59.8254 66.7055 59.8847C66.9099 59.9056 67.1619 59.9323 67.4162 59.9393C67.875 59.952 68.3395 59.8998 68.5392 59.6234C68.8504 59.1949 69.2035 58.1009 69.2035 58.1009C69.2035 58.1009 69.2197 58.0057 69.38 57.9744C69.4113 57.9685 69.4497 57.9639 69.4938 57.9639C69.7621 57.9639 69.7841 58.0998 69.7841 58.0998C69.7841 58.0998 69.8015 58.1543 69.8317 58.2438C69.8619 58.3309 69.9037 58.4505 69.9548 58.5852C69.9664 58.6142 69.9781 58.6444 69.9897 58.6758C70.1186 59.0079 70.2893 59.4027 70.4484 59.6234C70.6144 59.8533 70.9651 59.9276 71.3414 59.9393C71.5957 59.9323 71.8489 59.9056 72.0533 59.8835C72.6246 59.8254 72.8348 59.3958 72.9533 59.0427C73.0706 58.6897 73.3655 58.2264 73.3655 58.2264L73.6013 57.9407V57.2091C73.5931 57.2044 73.585 57.1998 73.5757 57.1951C73.5571 57.187 73.5374 57.1789 73.5153 57.1707C73.4968 57.1638 73.477 57.158 73.4561 57.1522C73.441 57.1475 73.4248 57.1429 73.4085 57.1394C73.0566 57.0511 72.4516 57.0302 72.1497 57.0256C71.1022 57.0593 70.2335 57.4123 70.0187 57.4947C69.8004 57.5783 69.4926 57.5691 69.4926 57.5691C69.4926 57.5691 69.4462 57.5702 69.3777 57.5679C69.2673 57.5633 69.1001 57.547 68.9654 57.4959C68.7471 57.4123 67.8552 57.05 66.7868 57.0244C66.7868 57.0244 66.7125 57.0244 66.5941 57.0256C66.2201 57.0314 65.4107 57.0616 65.1541 57.2091H65.1575ZM70.1906 58.1067C70.3299 57.8907 71.0093 57.5574 71.7304 57.5574C71.7757 57.5574 71.8175 57.5574 71.8582 57.5598C71.8826 57.5586 71.907 57.5574 71.9302 57.5574C71.9395 57.5574 71.9488 57.5574 71.9581 57.5574C72.8441 57.5574 72.8871 57.8652 72.8871 57.8652C72.8975 57.8826 72.9022 57.914 72.9033 57.9569C72.9033 57.979 72.9033 58.0057 72.8999 58.0336C72.879 58.3018 72.7559 58.7931 72.6699 58.9754C72.5584 59.2123 72.5375 59.3737 72.1183 59.4434C71.9162 59.4771 71.6642 59.4956 71.4343 59.4875H71.4308C71.0999 59.4991 70.7666 59.4654 70.6261 59.3528C70.496 59.2494 70.3322 58.8964 70.237 58.5933C70.2277 58.5654 70.2196 58.5376 70.2126 58.5109C70.1697 58.3576 70.1488 58.2264 70.165 58.159C70.1685 58.1427 70.1766 58.1253 70.1894 58.1079L70.1906 58.1067ZM65.8729 57.8652C65.8729 57.8652 65.9147 57.5574 66.8019 57.5574C66.8356 57.5574 66.8693 57.5574 66.903 57.5598C66.9436 57.5586 66.9854 57.5574 67.0307 57.5574C67.8134 57.5574 68.5462 57.9488 68.595 58.1578C68.6437 58.3669 68.3441 59.1844 68.1339 59.3516C67.9934 59.4643 67.6601 59.498 67.3291 59.4863H67.3257C67.0957 59.4945 66.8437 59.4759 66.6417 59.4422C66.2224 59.3725 66.2015 59.2111 66.0901 58.9742C65.9786 58.7373 65.8044 57.9755 65.8741 57.864L65.8729 57.8652Z" fill="#EBAC4B"/>
<path d="M66.0797 58.9554C66.0832 58.9624 66.0855 58.9694 66.089 58.9763C66.2005 59.2132 66.2214 59.3747 66.6406 59.4443C66.7405 59.4606 66.8531 59.4745 66.9693 59.4815C67.0877 59.4896 67.2085 59.492 67.3246 59.4885H67.3281C67.6591 59.5001 67.9924 59.4664 68.1329 59.3538C68.3431 59.1865 68.6427 58.369 68.5939 58.16C68.5776 58.0891 68.4836 57.9974 68.3361 57.908C68.0934 57.7593 67.7055 57.6153 67.2816 57.5723C67.1992 57.5642 67.1156 57.5596 67.0308 57.5596C66.9855 57.5596 66.9437 57.5596 66.9031 57.5619C66.8694 57.5596 66.8357 57.5596 66.802 57.5596C65.916 57.5596 65.873 57.8673 65.873 57.8673C65.8056 57.9753 65.9682 58.6988 66.0797 58.9566V58.9554Z" fill="#282828"/>
<path d="M70.6272 59.3538C70.6702 59.3886 70.7317 59.4153 70.806 59.4362C70.9698 59.4827 71.1939 59.4966 71.4192 59.4896C71.4238 59.4896 71.4285 59.4896 71.4331 59.4896H71.4366C71.6665 59.4978 71.9185 59.4792 72.1206 59.4455C72.5398 59.3758 72.5607 59.2144 72.6722 58.9775C72.7837 58.7406 72.9591 57.9788 72.8882 57.8673C72.8882 57.8673 72.8859 57.8487 72.8685 57.8197C72.8302 57.757 72.7198 57.6478 72.4063 57.5932C72.2878 57.5723 72.1415 57.5596 71.9592 57.5596C71.9255 57.5596 71.8918 57.5596 71.8582 57.5619C71.8175 57.5607 71.7757 57.5596 71.7304 57.5596C70.9489 57.5596 70.2149 57.9509 70.1662 58.16C70.1174 58.369 70.4182 59.1865 70.6272 59.3538Z" fill="#282828"/>
<path d="M70.8059 59.4348C70.9697 59.4812 71.1938 59.4952 71.4191 59.4882L72.8684 57.8182C72.83 57.7555 72.7197 57.6464 72.4062 57.5918L70.8059 59.4348Z" fill="#444444"/>
<path d="M66.0793 58.9546C66.0828 58.9615 66.0852 58.9685 66.0886 58.9755C66.2001 59.2124 66.221 59.3738 66.6402 59.4435C66.7401 59.4597 66.8528 59.4737 66.9689 59.4806L68.3357 57.9059C68.093 57.7573 67.7052 57.6133 67.2813 57.5703L66.0805 58.9534L66.0793 58.9546Z" fill="#444444"/>
<path d="M71.4355 59.4867C71.6655 59.4948 71.9175 59.4763 72.1195 59.4426C72.5388 59.3729 72.5597 59.2115 72.6712 58.9746C72.7826 58.7377 72.958 57.9759 72.8872 57.8644C72.8872 57.8644 72.8454 57.5566 71.9581 57.5566C71.9245 57.5566 71.8908 57.5566 71.8571 57.559C72.6201 57.5868 72.6584 57.8632 72.6584 57.8632C72.7281 57.9747 72.5539 58.7354 72.4424 58.9734C72.3309 59.2103 72.31 59.3717 71.8908 59.4414C71.7549 59.4646 71.5958 59.4797 71.4355 59.4855V59.4867Z" fill="#EA8B0F"/>
<path d="M67.9038 59.3528C67.7958 59.4387 67.574 59.4794 67.3278 59.4875C67.6588 59.4991 67.9921 59.4654 68.1326 59.3528C68.3428 59.1856 68.6424 58.368 68.5936 58.159C68.5448 57.9488 67.8121 57.5586 67.0294 57.5586C66.9841 57.5586 66.9423 57.5586 66.9016 57.5609C67.6448 57.5923 68.3172 57.9581 68.3637 58.159C68.4124 58.368 68.1128 59.1856 67.9026 59.3528H67.9038Z" fill="#EA8B0F"/>
<path d="M63.2576 59.9194L63.3296 59.9345C63.3482 59.938 63.3656 59.9403 63.383 59.9403C63.4027 59.9403 63.4225 59.938 63.4399 59.9334C63.57 59.902 63.6617 59.7708 63.628 59.628C63.5677 59.3725 63.4747 59.0856 63.5305 58.9207C63.5816 58.7918 63.7337 58.7256 63.8464 58.6618C64.2424 58.4434 64.9252 57.9406 64.9252 57.9406V57.209C64.9252 57.209 64.0078 58.0916 63.6536 58.3749C63.5607 58.4492 63.4341 58.5363 63.3714 58.6374C63.2924 58.7465 63.2587 58.8801 63.2425 59.0113C63.2135 59.1948 63.1821 59.5211 63.1426 59.7534C63.1298 59.83 63.1798 59.902 63.2553 59.9183L63.2576 59.9194Z" fill="#EA8B0F"/>
<path d="M59.1817 63.2098V67.2825C59.1817 67.4497 59.0238 67.5275 58.8298 67.4683C58.1563 67.2616 57.4827 67.1594 56.8103 67.1222C55.5921 67.0572 54.374 67.2081 53.1558 67.351L53.4774 62.635C54.6945 62.4921 55.9115 62.3621 57.1285 62.4666C57.6952 62.5154 58.2631 62.6152 58.8298 62.7894C59.0249 62.8486 59.1817 63.0426 59.1817 63.211V63.2098Z" fill="#112130"/>
<path d="M62.1069 40.2334C62.1069 40.2334 67.4895 42.88 68.5997 49.3368" stroke="#FF70FE" stroke-width="0.569729" stroke-miterlimit="10"/>
<path d="M58.8293 61.7772C56.6879 61.4102 54.5477 62.0989 52.4062 62.6168V67.2956C54.5477 66.7765 56.6879 66.0891 58.8293 66.4549C59.0233 66.4885 59.1812 66.3898 59.1812 66.2214V62.1488C59.1812 61.9816 59.0244 61.8085 58.8293 61.776V61.7772Z" fill="white"/>
<path d="M50.8013 63.912V64.0851C51.3367 63.9956 51.872 63.876 52.4074 63.746V64.2442C51.872 64.3742 51.3367 64.4938 50.8013 64.5833V64.7807C51.3367 64.6913 51.872 64.5716 52.4074 64.4416V65.9118C51.872 66.0418 51.3367 66.1614 50.8013 66.2509V66.6829C51.3367 66.5934 51.872 66.4738 52.4074 66.3438V67.2972C51.5736 67.4993 50.7398 67.6758 49.9071 67.7547V63.0759C49.8828 63.0782 49.8584 63.0805 49.834 63.0817C50.6922 63.0074 51.5504 62.8262 52.4074 62.6172V63.5718C51.872 63.7018 51.3367 63.8214 50.8013 63.9109V63.912Z" fill="#D7CCFF"/>
<path d="M49.9061 63.0753V67.7542L49.8864 67.7565C49.8655 67.7577 49.8458 67.76 49.8249 67.7612C49.7401 67.7681 49.6565 67.7751 49.5729 67.7797C49.538 67.7821 49.502 67.7844 49.4672 67.7855C49.4649 67.7855 49.4614 67.7855 49.4579 67.7855C49.4347 67.7867 49.4114 67.7879 49.3882 67.789C49.3534 67.7902 49.3174 67.7925 49.2825 67.7925C49.2384 67.7937 49.1931 67.7948 49.149 67.796C49.1049 67.796 49.0607 67.7972 49.0166 67.7972C48.5962 67.7972 48.1758 67.7658 47.7554 67.6938C47.5615 67.6601 47.4036 67.4882 47.4036 67.321V63.2484C47.4036 63.0812 47.5615 62.9824 47.7554 63.015C48.2211 63.0951 48.6856 63.1241 49.1513 63.1172C49.1954 63.1172 49.2396 63.116 49.2825 63.1137C49.3162 63.1137 49.3499 63.1113 49.3847 63.1102C49.4103 63.109 49.4358 63.1079 49.4614 63.1067C49.4985 63.1055 49.5357 63.1032 49.5729 63.1009C49.66 63.0962 49.747 63.0893 49.8341 63.0812C49.8585 63.0788 49.8829 63.0777 49.9073 63.0753H49.9061Z" fill="#FF7631"/>
<path d="M49.9062 67.7529C49.8795 67.7553 49.8517 67.7587 49.825 67.7599C49.8517 67.7576 49.8795 67.7553 49.9062 67.7529Z" fill="#FF7631"/>
<path d="M52.4073 63.5732V63.7463C51.872 63.8763 51.3366 63.996 50.8013 64.0854V63.9123C51.3366 63.8229 51.872 63.7033 52.4073 63.5732Z" fill="#010102"/>
<path d="M53.1379 63.3906V63.5637C52.894 63.6252 52.6501 63.6868 52.4062 63.7448V63.5718C52.6501 63.5126 52.894 63.451 53.1379 63.3906Z" fill="#112130"/>
<path d="M52.4076 64.2433V64.4396C51.8722 64.5697 51.3369 64.6893 50.8015 64.7787V64.5813C51.3369 64.4919 51.8722 64.3723 52.4076 64.2422V64.2433Z" fill="#010102"/>
<path d="M54.5746 63.707V63.9045C53.8523 64.0717 53.13 64.2656 52.4065 64.441V64.2447C53.1288 64.0694 53.8511 63.8754 54.5746 63.7082V63.707Z" fill="#112130"/>
<path d="M54.1993 65.4639V65.8959C53.6024 66.041 53.0044 66.1978 52.4075 66.343V65.911C53.0055 65.7658 53.6024 65.609 54.1993 65.4639Z" fill="#112130"/>
<path d="M57.92 63.4354C57.8422 63.4668 57.7644 63.5005 57.6865 63.5342C57.6505 63.5504 57.6099 63.5585 57.5681 63.5585C57.4473 63.5562 57.3265 63.5562 57.2058 63.5585C57.0618 63.8222 56.9178 64.0893 56.7738 64.3587C56.7378 64.4249 56.6275 64.4144 56.6263 64.3436C56.6623 64.0893 56.6971 63.8338 56.7331 63.5794C56.4335 63.6003 56.1339 63.6329 55.8343 63.6758C55.7727 63.7966 55.71 63.9174 55.6485 64.0393C55.6311 64.0742 55.5753 64.073 55.5753 64.0382C55.5939 63.9058 55.6125 63.7722 55.6299 63.6387C55.5684 63.641 55.508 63.6445 55.4464 63.6468C55.4174 63.6491 55.3965 63.6317 55.3965 63.6073C55.3965 63.5829 55.4197 63.5551 55.4487 63.5481C55.5091 63.5318 55.5684 63.5156 55.6287 63.5005C55.6113 63.3762 55.5927 63.252 55.5753 63.1289C55.5753 63.0929 55.6311 63.072 55.6485 63.101C55.71 63.2009 55.7716 63.3007 55.8343 63.4006C56.1339 63.3449 56.4335 63.2996 56.7331 63.2671C56.6971 63.0185 56.6623 62.7712 56.6263 62.5238C56.6263 62.453 56.7378 62.4205 56.7738 62.4809C56.9178 62.7259 57.0618 62.9744 57.2058 63.2264C57.3265 63.2194 57.4473 63.2136 57.5681 63.2113C57.6099 63.2113 57.6505 63.2194 57.6865 63.2369C57.7644 63.2729 57.8422 63.31 57.92 63.3484C57.9595 63.3681 57.9595 63.4169 57.92 63.4331V63.4354Z" fill="#112130"/>
<path d="M52.4073 65.9102V66.3422C51.872 66.4722 51.3366 66.5918 50.8013 66.6813V66.2493C51.3366 66.1598 51.872 66.0402 52.4073 65.9102Z" fill="#010102"/>
<path d="M58.4629 67.478H61.8782L61.653 66.4189H58.838L58.4629 67.478Z" fill="#EA8B0F"/>
<path d="M55.7893 72.617H64.4909C64.8253 72.617 65.1156 72.3465 65.1389 72.012L65.4153 68.0845C65.4385 67.7501 65.1865 67.4795 64.852 67.4795H56.1505C55.816 67.4795 55.5257 67.7501 55.5025 68.0845L55.2261 72.012C55.2029 72.3465 55.4549 72.617 55.7893 72.617Z" fill="#FF7631"/>
<path d="M55.8009 72.617H56.2678C56.5035 72.617 56.7091 72.4254 56.7253 72.1897L57.0272 67.9068C57.0435 67.6711 56.8658 67.4795 56.6301 67.4795H56.1528C55.8183 67.4795 55.528 67.7501 55.5048 68.0845L55.2284 72.0016C55.204 72.3418 55.4607 72.6182 55.8009 72.6182V72.617Z" fill="#C44B0E"/>
<path d="M59.9991 70.0485C59.962 70.5676 60.1002 71.0403 60.3545 71.3921C60.5078 71.6058 60.7052 71.7742 60.9317 71.8834C61.1372 71.7916 61.3277 71.6557 61.4926 71.4874C61.5228 71.4572 61.5506 71.4258 61.5785 71.3933C61.8828 71.0414 62.0871 70.5688 62.1231 70.0497C62.1603 69.5306 62.0221 69.0579 61.7678 68.7049C61.7446 68.6724 61.7202 68.641 61.6946 68.612C61.5529 68.4425 61.3822 68.3066 61.1895 68.2148C60.9468 68.3228 60.7273 68.4924 60.5426 68.7061C60.2384 69.0579 60.034 69.5306 59.998 70.0497L59.9991 70.0485Z" fill="#C44B0E"/>
<path d="M56.6943 70.4113H65.4435L65.519 69.3359H56.7698L56.6943 70.4113Z" fill="#EBAC4B"/>
<path d="M55.0798 70.4113H56.694L56.7695 69.3359H55.1553L55.0798 70.4113Z" fill="#EA8B0F"/>
<path d="M59.1281 70.0487C59.0886 70.6119 59.2384 71.1241 59.5136 71.505C59.6797 71.7361 59.8945 71.9195 60.1396 72.0368C60.3079 72.117 60.4903 72.1669 60.6854 72.1808C60.7214 72.1832 60.7574 72.1843 60.7934 72.1843C61.7967 72.1843 62.677 71.2286 62.7606 70.0487C62.8442 68.8688 62.0975 67.9131 61.0941 67.9131C61.0581 67.9131 61.021 67.9142 60.985 67.9166C60.7887 67.9305 60.5994 67.9793 60.4194 68.0606C60.157 68.1779 59.9178 68.3613 59.718 68.5924C59.3882 68.9745 59.1676 69.4866 59.1269 70.0499L59.1281 70.0487Z" fill="#AFA5FF"/>
<path d="M58.9108 70.0489C58.8713 70.6121 59.02 71.1242 59.2964 71.5051C59.4624 71.7362 59.6761 71.9197 59.9223 72.037C60.1221 72.1322 60.3415 72.1845 60.5761 72.1845C60.6121 72.1845 60.6493 72.1833 60.6853 72.181C60.4913 72.1671 60.3079 72.1183 60.1395 72.037C59.8933 71.9197 59.6796 71.7362 59.5135 71.5051C59.2383 71.1242 59.0885 70.6109 59.128 70.0489C59.1675 69.4868 59.3893 68.9735 59.7191 68.5915C59.9188 68.3604 60.1581 68.1769 60.4205 68.0596C60.6005 67.9795 60.7898 67.9295 60.9861 67.9156C60.9501 67.9133 60.9141 67.9121 60.8781 67.9121C60.6435 67.9121 60.4159 67.9644 60.2033 68.0596C59.9409 68.1769 59.7017 68.3604 59.5019 68.5915C59.1721 68.9735 58.9515 69.4857 58.9108 70.0489Z" fill="#6D69B5"/>
<path d="M59.3647 70.0488C59.2881 71.137 59.9756 72.0195 60.9011 72.0195H61.534C61.318 72.0195 61.1148 71.9719 60.9313 71.8837C60.7049 71.7757 60.5074 71.6061 60.3541 71.3924C60.0998 71.0406 59.9616 70.5679 59.9988 70.0488C60.0359 69.5297 60.2403 69.0571 60.5434 68.7052C60.7281 68.4915 60.9476 68.3232 61.1903 68.214C61.3865 68.1257 61.5967 68.0781 61.8127 68.0781H61.1798C60.2543 68.0781 59.4425 68.9607 59.3659 70.0488H59.3647Z" fill="#6D69B5"/>
<path d="M59.9991 70.0488C59.962 70.5679 60.1002 71.0406 60.3545 71.3924C60.5078 71.6061 60.7052 71.7745 60.9317 71.8837C61.1151 71.9719 61.3184 72.0195 61.5344 72.0195C62.4599 72.0195 63.2717 71.137 63.3483 70.0488C63.4249 68.9607 62.7375 68.0781 61.8119 68.0781C61.5959 68.0781 61.3857 68.1257 61.1895 68.214C60.9468 68.322 60.7273 68.4915 60.5426 68.7052C60.2384 69.0571 60.034 69.5297 59.998 70.0488H59.9991ZM60.4497 70.0488C60.5031 69.2835 61.0536 68.6588 61.6969 68.6112C61.7237 68.6088 61.7492 68.6077 61.7759 68.6077C62.4529 68.6077 62.9558 69.2522 62.9 70.0488C62.8443 70.8443 62.2497 71.49 61.5739 71.49C61.5471 71.49 61.5204 71.4888 61.4949 71.4865C60.8585 71.4389 60.3975 70.813 60.4509 70.0488H60.4497Z" fill="#AFA5FF"/>
<path d="M60.4495 70.0494C60.4367 70.2282 60.4518 70.4001 60.4925 70.558C60.5285 70.7043 60.5854 70.8379 60.6597 70.9575C60.6922 71.0098 60.7282 71.0597 60.7677 71.1061C60.9697 71.3442 61.2519 71.4905 61.5736 71.4905C61.6781 71.4905 61.7803 71.4754 61.879 71.4464C62.4202 71.2885 62.8534 70.7229 62.901 70.0494C62.9079 69.9576 62.9068 69.8682 62.8987 69.7811C62.8557 69.2957 62.599 68.8962 62.2321 68.7151C62.181 68.6895 62.1276 68.6686 62.0718 68.6523C61.9789 68.6245 61.8802 68.6094 61.7768 68.6094C61.7455 68.6094 61.7153 68.6105 61.6839 68.614C61.0464 68.6698 60.5041 69.2911 60.4507 70.0505L60.4495 70.0494Z" fill="#C3C0FF"/>
<path d="M64.5866 68.4606C64.7328 68.3194 64.7445 68.0942 64.6127 67.9576C64.4808 67.821 64.2554 67.8248 64.1091 67.966C63.9628 68.1072 63.9511 68.3324 64.083 68.469C64.2148 68.6056 64.4403 68.6018 64.5866 68.4606Z" fill="#C44B0E"/>
<path d="M59.6648 67.478H63.0801L62.8549 66.4189H60.0399L59.6648 67.478Z" fill="#EBAC4B"/>
<path d="M57.1702 67.4782H57.8553L57.8832 67.0752H57.198L57.1702 67.4782Z" fill="#223544"/>
<path d="M57.032 67.2133H58.0307L58.062 66.7627H57.0633L57.032 67.2133Z" fill="#112130"/>
<path d="M60.7667 71.1032C60.9688 71.3413 61.251 71.4876 61.5727 71.4876C61.6772 71.4876 61.7794 71.4725 61.8781 71.4435L62.8977 69.7782C62.8547 69.2928 62.5981 68.8933 62.2311 68.7121L60.7679 71.1032H60.7667ZM60.4927 70.5551C60.5287 70.7014 60.5856 70.835 60.6599 70.9546L62.0709 68.6494C61.978 68.6215 61.8793 68.6064 61.7759 68.6064C61.7445 68.6064 61.7144 68.6076 61.683 68.6111L60.4927 70.5563V70.5551Z" fill="white"/>
<path d="M73.406 57.3451L73.4083 57.352C73.4187 57.3811 73.4048 57.4124 73.3781 57.4252C73.104 57.5553 72.974 57.9048 73.0727 58.2486C73.0808 58.2787 73.0645 58.3089 73.0355 58.3194C73.0065 58.3298 72.974 58.3159 72.9612 58.288C72.8207 57.9594 72.4978 57.7713 72.2029 57.8433C72.1727 57.8502 72.1425 57.834 72.132 57.8061L72.1297 57.7991C72.1193 57.7701 72.1332 57.7387 72.1599 57.726C72.434 57.5959 72.5652 57.2464 72.4665 56.9015C72.4583 56.8713 72.4746 56.8411 72.5036 56.8306C72.5327 56.8202 72.5652 56.8341 72.578 56.862C72.7185 57.1906 73.0413 57.3799 73.3363 57.3067C73.3665 57.2998 73.3967 57.316 73.4071 57.3439L73.406 57.3451Z" fill="white"/>
<path d="M49.732 52.4889C48.6647 52.6143 47.5766 52.7293 46.4815 52.8257C45.7406 52.8884 45.009 52.9418 44.3029 52.9836C43.072 53.0579 41.9211 53.0997 40.9422 53.1032C40.8853 53.1032 40.8283 53.1032 40.7714 53.1032C39.0911 53.1032 38.0401 52.9952 37.384 52.8361C36.5142 52.6259 36.34 52.3275 36.3179 52.0755C36.2807 51.6574 36.7708 51.2939 37.5047 50.9688L37.4803 51.3427C36.981 51.5738 36.6256 51.8188 36.6465 52.0464C36.6628 52.2229 36.9102 52.3797 37.4049 52.5028C38.486 52.7711 40.7436 52.8744 44.3238 52.6526C44.9869 52.612 45.6976 52.5597 46.4525 52.4958C47.5336 52.4018 48.6102 52.288 49.6658 52.1649C49.6855 52.2729 49.7076 52.3809 49.7308 52.49L49.732 52.4889Z" fill="#EBAC4B"/>
<path d="M75.1293 67.3876C75.1293 67.9903 74.4883 68.5523 73.1853 69.083C72.463 69.3768 71.5363 69.6637 70.4017 69.9412C67.1036 70.7506 65.2363 71.7052 64.1946 72.589C63.5884 73.1023 63.2621 73.5923 63.0948 74.015C62.6896 75.0428 63.1622 75.7872 63.1819 75.8185L62.9067 76.0008C62.8823 75.9648 62.3191 75.0916 62.7836 73.9036C62.9636 73.4414 63.2667 73.0036 63.6918 72.589C64.9099 71.3986 67.1303 70.4046 70.3227 69.6207C71.6187 69.3025 72.5478 68.9959 73.2108 68.7114C74.5394 68.1436 74.7983 67.6697 74.7995 67.3864C74.7995 66.9091 74.1561 66.4597 73.3897 66.0997L73.4141 65.7432C74.3025 66.1473 75.1305 66.707 75.1305 67.3864L75.1293 67.3876Z" fill="#EBAC4B"/>
</g>
<defs>
<clipPath id="clip0_6882_102658">
<rect width="130" height="130" fill="white"/>
</clipPath>
<clipPath id="clip1_6882_102658">
<rect width="38.9648" height="36" fill="white" transform="translate(36.1648 40)"/>
</clipPath>
</defs>
</svg>
