<svg width="81" height="80" viewBox="0 0 81 80" fill="none" xmlns="http://www.w3.org/2000/svg">
<g clip-path="url(#clip0_6861_106569)">
<path d="M61.3997 4.51564L65.587 16.295C65.9062 17.1913 66.4104 18.0105 67.0668 18.6992C67.7233 19.3879 68.5174 19.9307 69.3974 20.2924C70.2775 20.6542 71.2238 20.8266 72.1748 20.7987C73.1259 20.7707 74.0604 20.5429 74.9177 20.1301L86.2106 14.7631C91.9745 12.0238 97.9899 18.0392 95.2505 23.8087L89.8836 35.096C89.476 35.9538 89.2529 36.8875 89.2288 37.8369C89.2047 38.7863 89.3801 39.7301 89.7437 40.6075C90.1073 41.4848 90.6509 42.276 91.3395 42.9301C92.0281 43.5841 92.8462 44.0863 93.7411 44.4043L105.515 48.5917C106.836 49.0608 107.979 49.9275 108.788 51.0727C109.596 52.2179 110.03 53.5854 110.03 54.9873C110.03 56.3891 109.596 57.7566 108.788 58.9018C107.979 60.047 106.836 60.9137 105.515 61.3829L93.7411 65.5702C92.847 65.8883 92.0295 66.3904 91.3414 67.044C90.6534 67.6976 90.11 68.4883 89.7465 69.3649C89.383 70.2416 89.2074 71.1847 89.231 72.1335C89.2546 73.0822 89.4769 74.0154 89.8836 74.8729L95.2505 86.1659C95.8503 87.4311 96.0441 88.8508 95.8053 90.2304C95.5665 91.6101 94.9069 92.8821 93.9169 93.8721C92.9268 94.8622 91.6548 95.5218 90.2752 95.7606C88.8955 95.9993 87.4758 95.8056 86.2106 95.2058L74.9177 89.8389C74.0602 89.4322 73.1269 89.2099 72.1782 89.1863C71.2295 89.1627 70.2863 89.3383 69.4097 89.7018C68.533 90.0653 67.7424 90.6086 67.0887 91.2967C66.4351 91.9847 65.933 92.8022 65.615 93.6964L61.4276 105.47C60.9585 106.791 60.0917 107.934 58.9466 108.743C57.8014 109.552 56.4339 109.986 55.032 109.986C53.6301 109.986 52.2626 109.552 51.1175 108.743C49.9723 107.934 49.1055 106.791 48.6364 105.47L44.4491 93.6964C44.1311 92.8015 43.6288 91.9833 42.9748 91.2948C42.3208 90.6062 41.5295 90.0625 40.6522 89.699C39.7749 89.3354 38.831 89.16 37.8816 89.1841C36.9323 89.2082 35.9985 89.4313 35.1408 89.8389L23.8534 95.2058C18.0839 97.9452 12.0685 91.9297 14.8079 86.1659L20.1301 74.9176C20.5378 74.0607 20.7611 73.1276 20.7855 72.1789C20.8099 71.2302 20.6349 70.287 20.2719 69.4101C19.9088 68.5333 19.3657 67.7424 18.6778 67.0887C17.9899 66.4349 17.1724 65.9329 16.2782 65.6149L4.51564 61.3997C3.19459 60.9305 2.05124 60.0638 1.24267 58.9186C0.434107 57.7734 0 56.4059 0 55.004C0 53.6022 0.434107 52.2347 1.24267 51.0895C2.05124 49.9443 3.19459 49.0776 4.51564 48.6084L16.295 44.4211C17.1879 44.1008 18.0037 43.5969 18.6898 42.9419C19.376 42.2868 19.9172 41.4953 20.2786 40.6182C20.6399 39.7411 20.8134 38.798 20.7879 37.8498C20.7623 36.9015 20.5382 35.9691 20.1301 35.1128L14.7631 23.8255C14.1569 22.5578 13.959 21.1332 14.1969 19.7483C14.4348 18.3633 15.0967 17.0864 16.0913 16.0937C17.0858 15.101 18.364 14.4415 19.7493 14.2062C21.1347 13.9708 22.5589 14.1713 23.8255 14.7799L35.1128 20.1301C35.9702 20.5378 36.9036 20.7612 37.8527 20.7856C38.8018 20.8101 39.7455 20.6352 40.6227 20.2721C41.5 19.9091 42.2913 19.3661 42.9456 18.6781C43.5999 17.9901 44.1025 17.1726 44.4211 16.2782L48.6084 4.51564C49.0776 3.19459 49.9443 2.05124 51.0895 1.24267C52.2347 0.434107 53.6022 0 55.0041 0C56.4059 0 57.7734 0.434107 58.9186 1.24267C60.0638 2.05124 60.9305 3.19459 61.3997 4.51564Z" fill="#28A487"/>
</g>
<g clip-path="url(#clip1_6861_106569)">
<path d="M65.6252 43.3213H47.146C47.1485 41.2542 47.5792 39.1207 48.4381 37.0522H66.9173C66.0584 39.1194 65.6277 41.2529 65.6252 43.3213Z" fill="white"/>
<path d="M63.527 38.7739C62.8696 40.7309 62.613 42.7492 62.7607 44.7062" stroke="#DBDBDB" stroke-width="0.305503" stroke-miterlimit="10"/>
<path d="M61.6124 38.7739C60.9551 40.7309 60.6984 42.7492 60.8462 44.7062" stroke="#DBDBDB" stroke-width="0.305503" stroke-miterlimit="10"/>
<path d="M59.6993 38.7739C59.042 40.7309 58.7853 42.7492 58.9331 44.7062" stroke="#DBDBDB" stroke-width="0.305503" stroke-miterlimit="10"/>
<path d="M57.7863 38.7739C57.1289 40.7309 56.8723 42.7492 57.02 44.7062" stroke="#DBDBDB" stroke-width="0.305503" stroke-miterlimit="10"/>
<path d="M55.8729 38.7739C55.2156 40.7309 54.9589 42.7492 55.1067 44.7062" stroke="#DBDBDB" stroke-width="0.305503" stroke-miterlimit="10"/>
<path d="M53.9599 38.7739C53.3014 40.7309 53.0459 42.7492 53.1937 44.7062" stroke="#DBDBDB" stroke-width="0.305503" stroke-miterlimit="10"/>
<path d="M52.0466 38.7739C51.388 40.7309 51.1326 42.7492 51.2804 44.7062" stroke="#DBDBDB" stroke-width="0.305503" stroke-miterlimit="10"/>
<path d="M50.1335 38.7739C49.4749 40.7309 49.2195 42.7492 49.3673 44.7062" stroke="#DBDBDB" stroke-width="0.305503" stroke-miterlimit="10"/>
<path d="M68.0029 53.0715H49.5225L50.0346 46.8037H68.5137L68.0029 53.0715Z" fill="white"/>
<path d="M69.8498 49.0309L68.455 64.3962C68.4237 64.743 68.117 65.0247 67.7701 65.0247H49.49C49.1432 65.0247 48.8878 64.743 48.9191 64.3962L50.3139 49.0309C50.3452 48.684 50.652 48.4023 50.9988 48.4023H51.9754C52.2471 48.4023 52.5075 48.2371 52.6315 47.9841L53.1849 46.8573C53.3013 46.6194 53.5467 46.4629 53.8034 46.4629H60.5032C60.7598 46.4629 60.9764 46.6194 61.0503 46.8585L61.3984 47.9854C61.476 48.2383 61.7064 48.4036 61.9781 48.4036H69.2789C69.6257 48.4036 69.8811 48.6853 69.8498 49.0321V49.0309Z" fill="#5FCEB1"/>
<mask id="mask0_6861_106569" style="mask-type:luminance" maskUnits="userSpaceOnUse" x="48" y="46" width="22" height="20">
<path d="M69.8498 49.0309L68.455 64.3962C68.4237 64.743 68.117 65.0247 67.7701 65.0247H49.49C49.1432 65.0247 48.8878 64.743 48.9191 64.3962L50.3139 49.0309C50.3452 48.684 50.652 48.4023 50.9988 48.4023H51.9754C52.2471 48.4023 52.5075 48.2371 52.6315 47.9841L53.1849 46.8573C53.3013 46.6194 53.5467 46.4629 53.8034 46.4629H60.5032C60.7598 46.4629 60.9764 46.6194 61.0503 46.8585L61.3984 47.9854C61.476 48.2383 61.7064 48.4036 61.9781 48.4036H69.2789C69.6257 48.4036 69.8811 48.6853 69.8498 49.0321V49.0309Z" fill="white"/>
</mask>
<g mask="url(#mask0_6861_106569)">
<path d="M67.5573 43.9762L66.1625 59.3415C66.1312 59.6883 65.8245 59.97 65.4777 59.97H47.1976C46.8507 59.97 46.5953 59.6883 46.6266 59.3415L48.0214 43.9762C48.0527 43.6294 48.3595 43.3476 48.7063 43.3476H49.6829C49.9546 43.3476 50.215 43.1824 50.339 42.9295L50.8924 41.8026C51.0088 41.5647 51.2542 41.4082 51.5109 41.4082H58.2107C58.4674 41.4082 58.684 41.5647 58.7578 41.8039L59.1059 42.9307C59.1835 43.1836 59.4139 43.3489 59.6856 43.3489H66.9864C67.3332 43.3489 67.5886 43.6306 67.5573 43.9774V43.9762Z" fill="#1C1B2B"/>
</g>
<path d="M66.1311 42.6754L64.7363 58.0407C64.705 58.3875 64.3982 58.6692 64.0514 58.6692H45.7713C45.4245 58.6692 45.169 58.3875 45.2003 58.0407L46.5951 42.6754C46.6264 42.3286 46.9332 42.0469 47.28 42.0469H48.2566C48.5283 42.0469 48.7888 41.8816 48.9127 41.6287L49.4661 40.5018C49.5826 40.2639 49.828 40.1074 50.0846 40.1074H56.7844C57.0411 40.1074 57.2577 40.2639 57.3316 40.5031L57.6796 41.6299C57.7573 41.8828 57.9877 42.0481 58.2593 42.0481H65.5601C65.9069 42.0481 66.1624 42.3298 66.1311 42.6767V42.6754Z" fill="#FF70FE"/>
<mask id="mask1_6861_106569" style="mask-type:luminance" maskUnits="userSpaceOnUse" x="45" y="40" width="22" height="19">
<path d="M66.1311 42.6754L64.7363 58.0407C64.705 58.3875 64.3982 58.6692 64.0514 58.6692H45.7713C45.4245 58.6692 45.169 58.3875 45.2003 58.0407L46.5951 42.6754C46.6264 42.3286 46.9332 42.0469 47.28 42.0469H48.2566C48.5283 42.0469 48.7888 41.8816 48.9127 41.6287L49.4661 40.5018C49.5826 40.2639 49.828 40.1074 50.0846 40.1074H56.7844C57.0411 40.1074 57.2577 40.2639 57.3316 40.5031L57.6796 41.6299C57.7573 41.8828 57.9877 42.0481 58.2593 42.0481H65.5601C65.9069 42.0481 66.1624 42.3298 66.1311 42.6767V42.6754Z" fill="white"/>
</mask>
<g mask="url(#mask1_6861_106569)">
<path d="M49.4901 56.3766C48.7726 56.3766 48.0502 56.3427 47.3227 56.2751L47.3816 55.6516C52.2396 56.1061 56.9311 54.9843 60.5921 52.4914C61.923 51.5874 62.9935 50.582 63.7736 49.5015C64.6563 48.3271 65.0231 47.08 64.7852 46.0746C64.65 45.5024 64.322 45.0204 63.8099 44.6372C60.5796 48.1868 55.6239 50.4355 49.9921 50.8612C47.8949 51.0515 46.4025 50.5783 46.0043 49.5991C45.7577 48.9931 45.8453 47.9615 47.6596 46.489C50.2826 44.4043 55.0392 41.9378 58.1543 41.5835C58.5262 41.5471 59.777 41.4783 60.4932 42.0755C60.7849 42.3197 60.9489 42.6364 60.9802 43.0183V43.0321V43.0459C60.9802 43.0646 60.9802 43.0834 60.979 43.1035C61.9243 43.1736 62.7932 43.3739 63.4969 43.717C63.5645 43.7508 63.6296 43.7846 63.6934 43.8196C63.8537 43.6318 64.0077 43.439 64.158 43.2437C65.2059 41.8602 65.7869 40.6081 65.9309 39.4186C66.2689 36.8169 63.9614 35.3006 61.6764 34.9913C60.532 34.8173 59.2511 34.8711 57.8651 35.1516C53.861 36.0406 49.4187 38.3131 45.6825 41.3844L45.2856 40.9011C49.0957 37.7684 53.6331 35.4509 57.7361 34.5394C59.1998 34.2439 60.5545 34.1875 61.7665 34.3728C64.4259 34.7322 66.9288 36.609 66.5532 39.4975C66.3954 40.7972 65.7744 42.1481 64.6563 43.6231C64.5161 43.8071 64.3708 43.9874 64.2218 44.1639C64.8291 44.6322 65.2285 45.2307 65.3937 45.9281C65.6755 47.1151 65.2685 48.5524 64.2769 49.8708C63.4581 51.0052 62.335 52.0632 60.9439 53.0073C57.7136 55.2071 53.7095 56.3741 49.4913 56.3741L49.4901 56.3766ZM58.6526 42.1844C58.5024 42.1844 58.3559 42.192 58.2182 42.2057C55.2182 42.5475 50.6031 44.949 48.0489 46.9773C46.8845 47.9214 46.3486 48.7928 46.5815 49.3638C46.857 50.0436 48.2067 50.3942 49.9383 50.2377C55.3685 49.8258 60.1426 47.6847 63.2652 44.3029C63.2502 44.2954 63.2352 44.2879 63.2189 44.2791C62.5616 43.9574 61.7302 43.7771 60.8225 43.7207C59.9986 45.5325 56.1573 46.8722 54.7324 47.0387C53.9812 47.1489 53.0672 47.0737 52.7855 46.5291C52.664 46.295 52.6252 45.9031 53.1336 45.3672L53.1523 45.3484C54.7988 43.8835 57.7687 43.0371 60.3529 43.0759C60.3529 43.0684 60.3529 43.0621 60.3529 43.0546C60.3329 42.8505 60.2465 42.6865 60.0888 42.555C59.7595 42.2808 59.186 42.1832 58.6501 42.1832L58.6526 42.1844ZM53.5793 45.8079C53.3439 46.0583 53.3201 46.2011 53.3414 46.2411C53.414 46.3813 53.9224 46.5241 54.6523 46.4177C56.0696 46.2524 59.2374 45.0216 60.1226 43.7019C57.7537 43.717 55.0555 44.5008 53.5806 45.8067L53.5793 45.8079Z" fill="#FDC2FF"/>
</g>
<path d="M62.4978 50.8063L61.103 66.1716C61.0717 66.5184 60.7649 66.8001 60.4181 66.8001H42.138C41.7912 66.8001 41.5357 66.5184 41.567 66.1716L42.9618 50.8063C42.9931 50.4594 43.2999 50.1777 43.6467 50.1777H44.6233C44.895 50.1777 45.1555 50.0125 45.2794 49.7595L45.8328 48.6327C45.9493 48.3948 46.1947 48.2383 46.4513 48.2383H53.1511C53.4078 48.2383 53.6244 48.3948 53.6983 48.6339L54.0463 49.7608C54.124 50.0137 54.3544 50.179 54.626 50.179H61.9268C62.2736 50.179 62.5291 50.4607 62.4978 50.8075V50.8063Z" fill="#1C1B2B"/>
<path d="M60.2815 54.3311H41.801L42.3131 48.062H60.7923L60.2815 54.3311Z" fill="white"/>
<path d="M61.1555 50.1627L59.7607 65.528C59.7294 65.8748 59.4227 66.1565 59.0758 66.1565H40.7945C40.4477 66.1565 40.1922 65.8748 40.2235 65.528L41.6183 50.1627C41.6496 49.8159 41.9564 49.5342 42.3032 49.5342H43.2798C43.5515 49.5342 43.812 49.3689 43.9359 49.116L44.4893 47.9891C44.6058 47.7512 44.8512 47.5947 45.1078 47.5947H51.8076C52.0643 47.5947 52.2809 47.7512 52.3548 47.9904L52.7028 49.1172C52.7805 49.3701 53.0108 49.5354 53.2825 49.5354H60.5833C60.9301 49.5354 61.1856 49.8171 61.1543 50.164L61.1555 50.1627Z" fill="#02B6FF"/>
<path d="M45.6123 49.5205H51.8325" stroke="#112130" stroke-width="0.140231" stroke-miterlimit="10" stroke-linecap="round"/>
<path d="M58.1479 51.61L56.7531 66.9753C56.7218 67.3221 56.4151 67.6038 56.0682 67.6038H37.7881C37.4413 67.6038 37.1859 67.3221 37.2172 66.9753L38.612 51.61C38.6433 51.2631 38.95 50.9814 39.2969 50.9814H40.2735C40.5452 50.9814 40.8056 50.8162 40.9296 50.5632L41.483 49.4364C41.5994 49.1985 41.8448 49.042 42.1015 49.042H48.8013C49.0579 49.042 49.2745 49.1985 49.3484 49.4376L49.6965 50.5645C49.7741 50.8174 50.0045 50.9827 50.2762 50.9827H57.577C57.9238 50.9827 58.1792 51.2644 58.1479 51.6112V51.61Z" fill="#1C1B2B"/>
<path d="M55.7765 55.2888H37.2974L37.8082 49.021H56.2886L55.7765 55.2888Z" fill="white"/>
<path d="M56.7844 50.9806L55.3896 66.3459C55.3583 66.6927 55.0515 66.9744 54.7047 66.9744H36.4246C36.0778 66.9744 35.8224 66.6927 35.8537 66.3459L37.2485 50.9806C37.2798 50.6338 37.5865 50.352 37.9333 50.352H38.91C39.1816 50.352 39.4421 50.1868 39.566 49.9339L40.1194 48.807C40.2359 48.5691 40.4813 48.4126 40.738 48.4126H47.4377C47.6944 48.4126 47.911 48.5691 47.9849 48.8082L48.333 49.9351C48.4106 50.188 48.641 50.3533 48.9127 50.3533H56.2134C56.5603 50.3533 56.8157 50.635 56.7844 50.9818V50.9806Z" fill="#AFA5FF"/>
<path d="M40.9546 50.3394H47.1748" stroke="#112130" stroke-width="0.140231" stroke-miterlimit="10" stroke-linecap="round"/>
<path d="M53.5217 52.7106L52.1269 68.0759C52.0956 68.4227 51.7888 68.7044 51.442 68.7044H33.1619C32.8151 68.7044 32.5597 68.4227 32.591 68.0759L33.9858 52.7106C34.0171 52.3637 34.3238 52.082 34.6706 52.082H35.6473C35.919 52.082 36.1794 51.9167 36.3033 51.6638L36.8567 50.537C36.9732 50.2991 37.2186 50.1426 37.4753 50.1426H44.175C44.4317 50.1426 44.6483 50.2991 44.7222 50.5382L45.0703 51.6651C45.1479 51.918 45.3783 52.0833 45.65 52.0833H52.9507C53.2976 52.0833 53.553 52.365 53.5217 52.7118V52.7106Z" fill="#1C1B2B"/>
<path d="M51.5598 56.3518H33.0793L33.5914 50.084H52.0706L51.5598 56.3518Z" fill="white"/>
<path d="M52.3886 52.0812L50.9938 67.4465C50.9625 67.7933 50.6558 68.075 50.309 68.075H32.0289C31.682 68.075 31.4266 67.7933 31.4579 67.4465L32.8527 52.0812C32.884 51.7343 33.1908 51.4526 33.5376 51.4526H34.5142C34.7859 51.4526 35.0463 51.2874 35.1703 51.0344L35.7237 49.9076C35.8401 49.6697 36.0855 49.5132 36.3422 49.5132H43.042C43.2987 49.5132 43.5153 49.6697 43.5891 49.9088L43.9372 51.0357C44.0148 51.2886 44.2452 51.4539 44.5169 51.4539H51.8177C52.1645 51.4539 52.4199 51.7356 52.3886 52.0824V52.0812Z" fill="#FDC2FF"/>
<path d="M52.0956 55.3701L50.9988 67.45C50.9675 67.7981 50.6607 68.0785 50.3127 68.0785H32.0225C31.6745 68.0785 31.419 67.7981 31.4503 67.45L32.5472 55.3701H52.0956Z" fill="#1C1B2B"/>
<path d="M52.1757 69.1187H30.3022C29.5572 69.1187 28.9687 68.4965 29.0013 67.7603H51.9816L52.1744 69.1187H52.1757Z" fill="#48B596"/>
<path d="M51.9816 67.7592H29.0012C29.0012 67.7392 29.0037 67.7191 29.005 67.6991L30.0467 56.2202H50.3388L51.9816 67.7592Z" fill="#5FCEB1"/>
<mask id="mask2_6861_106569" style="mask-type:luminance" maskUnits="userSpaceOnUse" x="29" y="56" width="24" height="14">
<path d="M52.1757 69.1179H30.3022C29.5572 69.1179 28.9687 68.4956 29.0013 67.7594C29.0013 67.7394 29.0038 67.7194 29.005 67.6993L30.0468 56.2217H50.3389L51.9829 67.7607L52.1757 69.1192V69.1179Z" fill="white"/>
</mask>
<g mask="url(#mask2_6861_106569)">
<path opacity="0.5" d="M70.7889 45.4536C70.7989 45.5413 70.8064 45.6302 70.8064 45.7203C70.8064 46.9786 69.786 47.9978 68.5289 47.9978C67.2719 47.9978 66.2514 46.9774 66.2514 45.7203C66.2514 45.6302 66.2577 45.5413 66.269 45.4536H70.7914H70.7889ZM68.5277 54.6162C67.2694 54.6162 66.2502 55.6366 66.2502 56.8937C66.2502 58.1508 67.2706 59.1712 68.5277 59.1712C69.7847 59.1712 70.8052 58.1508 70.8052 56.8937C70.8052 55.6366 69.7847 54.6162 68.5277 54.6162ZM71.2559 49.0333C70.0289 49.0683 69.0435 50.0725 69.0435 51.3083C69.0435 52.544 70.0289 53.5482 71.2559 53.5832V49.0333ZM68.0118 51.307C68.0118 50.0487 66.9914 49.0295 65.7343 49.0295C64.4773 49.0295 63.4568 50.0499 63.4568 51.307C63.4568 52.5641 64.4773 53.5845 65.7343 53.5845C66.9914 53.5845 68.0118 52.5641 68.0118 51.307ZM62.4251 51.307C62.4251 50.0487 61.4047 49.0295 60.1476 49.0295C58.8906 49.0295 57.8701 50.0499 57.8701 51.307C57.8701 52.5641 58.8906 53.5845 60.1476 53.5845C61.4047 53.5845 62.4251 52.5641 62.4251 51.307ZM60.6622 45.7203C60.6622 46.9786 61.6827 47.9978 62.9397 47.9978C64.1968 47.9978 65.2172 46.9774 65.2172 45.7203C65.2172 45.6302 65.211 45.5413 65.1997 45.4536H60.6772C60.6672 45.5413 60.6597 45.6302 60.6597 45.7203H60.6622ZM68.5277 65.7896C67.2694 65.7896 66.2502 66.81 66.2502 68.0671C66.2502 69.3242 67.2706 70.3446 68.5277 70.3446C69.7847 70.3446 70.8052 69.3242 70.8052 68.0671C70.8052 66.81 69.7847 65.7896 68.5277 65.7896ZM71.2559 60.2067C70.0289 60.2417 69.0435 61.2459 69.0435 62.4816C69.0435 63.7174 70.0289 64.7216 71.2559 64.7566V60.2067ZM65.7343 64.7591C66.9926 64.7591 68.0118 63.7387 68.0118 62.4816C68.0118 61.2246 66.9914 60.2041 65.7343 60.2041C64.4773 60.2041 63.4568 61.2246 63.4568 62.4816C63.4568 63.7387 64.4773 64.7591 65.7343 64.7591ZM62.4251 62.4804C62.4251 61.2221 61.4047 60.2029 60.1476 60.2029C58.8906 60.2029 57.8701 61.2233 57.8701 62.4804C57.8701 63.7375 58.8906 64.7579 60.1476 64.7579C61.4047 64.7579 62.4251 63.7375 62.4251 62.4804ZM65.2185 56.8937C65.2185 55.6354 64.198 54.6162 62.941 54.6162C61.6839 54.6162 60.6635 55.6366 60.6635 56.8937C60.6635 58.1508 61.6839 59.1712 62.941 59.1712C64.198 59.1712 65.2185 58.1508 65.2185 56.8937ZM68.5277 76.963C67.6249 76.963 66.8487 77.4889 66.4793 78.2489H70.576C70.2067 77.4876 69.4292 76.963 68.5277 76.963ZM62.941 76.963C62.0382 76.963 61.262 77.4889 60.8926 78.2489H64.9893C64.62 77.4876 63.8425 76.963 62.941 76.963ZM69.0423 73.6538C69.0423 74.8896 70.0276 75.8937 71.2547 75.9288V71.3788C70.0276 71.4139 69.0423 72.418 69.0423 73.6538ZM65.7343 75.9325C66.9926 75.9325 68.0118 74.9121 68.0118 73.655C68.0118 72.398 66.9914 71.3775 65.7343 71.3775C64.4773 71.3775 63.4568 72.398 63.4568 73.655C63.4568 74.9121 64.4773 75.9325 65.7343 75.9325ZM65.2185 68.0671C65.2185 66.8088 64.198 65.7896 62.941 65.7896C61.6839 65.7896 60.6635 66.81 60.6635 68.0671C60.6635 69.3242 61.6839 70.3446 62.941 70.3446C64.198 70.3446 65.2185 69.3242 65.2185 68.0671ZM55.0755 45.7203C55.0755 46.9786 56.096 47.9978 57.353 47.9978C58.6101 47.9978 59.6305 46.9774 59.6305 45.7203C59.6305 45.6302 59.6243 45.5413 59.613 45.4536H55.0906C55.0805 45.5413 55.073 45.6302 55.073 45.7203H55.0755ZM52.2822 51.307C52.2822 52.5653 53.3026 53.5845 54.5597 53.5845C55.8167 53.5845 56.8372 52.5641 56.8372 51.307C56.8372 50.0499 55.8167 49.0295 54.5597 49.0295C53.3026 49.0295 52.2822 50.0499 52.2822 51.307ZM51.2517 51.307C51.2517 50.0487 50.2313 49.0295 48.9742 49.0295C47.7172 49.0295 46.6967 50.0499 46.6967 51.307C46.6967 52.5641 47.7172 53.5845 48.9742 53.5845C50.2313 53.5845 51.2517 52.5641 51.2517 51.307ZM49.4888 45.7203C49.4888 46.9786 50.5093 47.9978 51.7663 47.9978C53.0234 47.9978 54.0438 46.9774 54.0438 45.7203C54.0438 45.6302 54.0376 45.5413 54.0263 45.4536H49.5039C49.4938 45.5413 49.4863 45.6302 49.4863 45.7203H49.4888ZM54.5609 64.7591C55.8193 64.7591 56.8384 63.7387 56.8384 62.4816C56.8384 61.2246 55.818 60.2041 54.5609 60.2041C53.3039 60.2041 52.2834 61.2246 52.2834 62.4816C52.2834 63.7387 53.3039 64.7591 54.5609 64.7591ZM51.2517 62.4804C51.2517 61.2221 50.2313 60.2029 48.9742 60.2029C47.7172 60.2029 46.6967 61.2233 46.6967 62.4804C46.6967 63.7375 47.7172 64.7579 48.9742 64.7579C50.2313 64.7579 51.2517 63.7375 51.2517 62.4804ZM59.6318 56.8937C59.6318 55.6354 58.6114 54.6162 57.3543 54.6162C56.0972 54.6162 55.0768 55.6366 55.0768 56.8937C55.0768 58.1508 56.0972 59.1712 57.3543 59.1712C58.6114 59.1712 59.6318 58.1508 59.6318 56.8937ZM54.0451 56.8937C54.0451 55.6354 53.0247 54.6162 51.7676 54.6162C50.5105 54.6162 49.4901 55.6366 49.4901 56.8937C49.4901 58.1508 50.5105 59.1712 51.7676 59.1712C53.0247 59.1712 54.0451 58.1508 54.0451 56.8937ZM57.3543 76.963C56.4515 76.963 55.6753 77.4889 55.3059 78.2489H59.4027C59.0333 77.4876 58.2558 76.963 57.3543 76.963ZM51.7676 76.963C50.8648 76.963 50.0886 77.4889 49.7192 78.2489H53.816C53.4466 77.4876 52.6691 76.963 51.7676 76.963ZM60.1476 75.9325C61.406 75.9325 62.4251 74.9121 62.4251 73.655C62.4251 72.398 61.4047 71.3775 60.1476 71.3775C58.8906 71.3775 57.8701 72.398 57.8701 73.655C57.8701 74.9121 58.8906 75.9325 60.1476 75.9325ZM54.5609 75.9325C55.8193 75.9325 56.8384 74.9121 56.8384 73.655C56.8384 72.398 55.818 71.3775 54.5609 71.3775C53.3039 71.3775 52.2834 72.398 52.2834 73.655C52.2834 74.9121 53.3039 75.9325 54.5609 75.9325ZM59.6318 68.0671C59.6318 66.8088 58.6114 65.7896 57.3543 65.7896C56.0972 65.7896 55.0768 66.81 55.0768 68.0671C55.0768 69.3242 56.0972 70.3446 57.3543 70.3446C58.6114 70.3446 59.6318 69.3242 59.6318 68.0671ZM54.0451 68.0671C54.0451 66.8088 53.0247 65.7896 51.7676 65.7896C50.5105 65.7896 49.4901 66.81 49.4901 68.0671C49.4901 69.3242 50.5105 70.3446 51.7676 70.3446C53.0247 70.3446 54.0451 69.3242 54.0451 68.0671ZM43.9021 45.7203C43.9021 46.9786 44.9226 47.9978 46.1796 47.9978C47.4367 47.9978 48.4571 46.9774 48.4571 45.7203C48.4571 45.6302 48.4509 45.5413 48.4396 45.4536H43.9172C43.9071 45.5413 43.8996 45.6302 43.8996 45.7203H43.9021ZM41.1088 51.307C41.1088 52.5653 42.1292 53.5845 43.3863 53.5845C44.6434 53.5845 45.6638 52.5641 45.6638 51.307C45.6638 50.0499 44.6434 49.0295 43.3863 49.0295C42.1292 49.0295 41.1088 50.0499 41.1088 51.307ZM40.0783 51.307C40.0783 50.0487 39.0579 49.0295 37.8008 49.0295C36.5438 49.0295 35.5233 50.0499 35.5233 51.307C35.5233 52.5641 36.5438 53.5845 37.8008 53.5845C39.0579 53.5845 40.0783 52.5641 40.0783 51.307ZM38.3154 45.7203C38.3154 46.9786 39.3359 47.9978 40.5929 47.9978C41.85 47.9978 42.8704 46.9774 42.8704 45.7203C42.8704 45.6302 42.8642 45.5413 42.8529 45.4536H38.3305C38.3204 45.5413 38.3129 45.6302 38.3129 45.7203H38.3154ZM43.3875 64.7591C44.6459 64.7591 45.665 63.7387 45.665 62.4816C45.665 61.2246 44.6446 60.2041 43.3875 60.2041C42.1305 60.2041 41.11 61.2246 41.11 62.4816C41.11 63.7387 42.1305 64.7591 43.3875 64.7591ZM40.0783 62.4804C40.0783 61.2221 39.0579 60.2029 37.8008 60.2029C36.5438 60.2029 35.5233 61.2233 35.5233 62.4804C35.5233 63.7375 36.5438 64.7579 37.8008 64.7579C39.0579 64.7579 40.0783 63.7375 40.0783 62.4804ZM48.4584 56.8937C48.4584 55.6354 47.438 54.6162 46.1809 54.6162C44.9238 54.6162 43.9034 55.6366 43.9034 56.8937C43.9034 58.1508 44.9238 59.1712 46.1809 59.1712C47.438 59.1712 48.4584 58.1508 48.4584 56.8937ZM42.8717 56.8937C42.8717 55.6354 41.8513 54.6162 40.5942 54.6162C39.3371 54.6162 38.3167 55.6366 38.3167 56.8937C38.3167 58.1508 39.3371 59.1712 40.5942 59.1712C41.8513 59.1712 42.8717 58.1508 42.8717 56.8937ZM46.1809 76.963C45.2782 76.963 44.5019 77.4889 44.1325 78.2489H48.2293C47.8599 77.4876 47.0824 76.963 46.1809 76.963ZM40.5942 76.963C39.6915 76.963 38.9152 77.4889 38.5458 78.2489H42.6426C42.2732 77.4876 41.4957 76.963 40.5942 76.963ZM48.9742 75.9325C50.2326 75.9325 51.2517 74.9121 51.2517 73.655C51.2517 72.398 50.2313 71.3775 48.9742 71.3775C47.7172 71.3775 46.6967 72.398 46.6967 73.655C46.6967 74.9121 47.7172 75.9325 48.9742 75.9325ZM43.3875 75.9325C44.6459 75.9325 45.665 74.9121 45.665 73.655C45.665 72.398 44.6446 71.3775 43.3875 71.3775C42.1305 71.3775 41.11 72.398 41.11 73.655C41.11 74.9121 42.1305 75.9325 43.3875 75.9325ZM48.4584 68.0671C48.4584 66.8088 47.438 65.7896 46.1809 65.7896C44.9238 65.7896 43.9034 66.81 43.9034 68.0671C43.9034 69.3242 44.9238 70.3446 46.1809 70.3446C47.438 70.3446 48.4584 69.3242 48.4584 68.0671ZM42.8717 68.0671C42.8717 66.8088 41.8513 65.7896 40.5942 65.7896C39.3371 65.7896 38.3167 66.81 38.3167 68.0671C38.3167 69.3242 39.3371 70.3446 40.5942 70.3446C41.8513 70.3446 42.8717 69.3242 42.8717 68.0671ZM32.7287 45.7203C32.7287 46.9786 33.7492 47.9978 35.0062 47.9978C36.2633 47.9978 37.2837 46.9774 37.2837 45.7203C37.2837 45.6302 37.2775 45.5413 37.2662 45.4536H32.7463C32.7363 45.5413 32.7287 45.6302 32.7287 45.7203ZM29.9354 51.307C29.9354 52.5653 30.9558 53.5845 32.2129 53.5845C33.47 53.5845 34.4904 52.5641 34.4904 51.307C34.4904 50.0499 33.47 49.0295 32.2129 49.0295C30.9558 49.0295 29.9354 50.0499 29.9354 51.307ZM28.9049 51.307C28.9049 50.5182 28.503 49.8233 27.8945 49.4139V53.2001C28.5043 52.7907 28.9049 52.0958 28.9049 51.307ZM27.8945 47.4081C28.2989 47.7737 28.8323 47.9978 29.4208 47.9978C30.6791 47.9978 31.6983 46.9774 31.6983 45.7203C31.6983 45.6302 31.692 45.5413 31.6808 45.4536H27.8945V47.4081ZM32.2141 64.7591C33.4725 64.7591 34.4916 63.7387 34.4916 62.4816C34.4916 61.2246 33.4712 60.2041 32.2141 60.2041C30.9571 60.2041 29.9366 61.2246 29.9366 62.4816C29.9366 63.7387 30.9571 64.7591 32.2141 64.7591ZM28.9049 62.4804C28.9049 61.6916 28.503 60.9967 27.8945 60.5873V64.3735C28.5043 63.9641 28.9049 63.2692 28.9049 62.4804ZM37.285 56.8937C37.285 55.6354 36.2646 54.6162 35.0075 54.6162C33.7504 54.6162 32.73 55.6366 32.73 56.8937C32.73 58.1508 33.7504 59.1712 35.0075 59.1712C36.2646 59.1712 37.285 58.1508 37.285 56.8937ZM31.6983 56.8937C31.6983 55.6354 30.6779 54.6162 29.4208 54.6162C28.8323 54.6162 28.2989 54.8403 27.8945 55.2059V58.5815C28.2989 58.9471 28.8323 59.1712 29.4208 59.1712C30.6791 59.1712 31.6983 58.1508 31.6983 56.8937ZM35.0075 76.963C34.1048 76.963 33.3285 77.4889 32.9591 78.2489H37.0559C36.6865 77.4876 35.909 76.963 35.0075 76.963ZM29.4208 76.963C28.8323 76.963 28.2989 77.1871 27.8945 77.5527V78.2489H31.4692C31.0998 77.4876 30.3223 76.963 29.4208 76.963ZM37.8008 75.9325C39.0592 75.9325 40.0783 74.9121 40.0783 73.655C40.0783 72.398 39.0579 71.3775 37.8008 71.3775C36.5438 71.3775 35.5233 72.398 35.5233 73.655C35.5233 74.9121 36.5438 75.9325 37.8008 75.9325ZM34.4916 73.6538C34.4916 72.3955 33.4712 71.3763 32.2141 71.3763C30.9571 71.3763 29.9366 72.3967 29.9366 73.6538C29.9366 74.9109 30.9571 75.9313 32.2141 75.9313C33.4712 75.9313 34.4916 74.9109 34.4916 73.6538ZM28.9049 73.6538C28.9049 72.865 28.503 72.1701 27.8945 71.7607V75.5469C28.5043 75.1375 28.9049 74.4426 28.9049 73.6538ZM37.285 68.0671C37.285 66.8088 36.2646 65.7896 35.0075 65.7896C33.7504 65.7896 32.73 66.81 32.73 68.0671C32.73 69.3242 33.7504 70.3446 35.0075 70.3446C36.2646 70.3446 37.285 69.3242 37.285 68.0671ZM31.6983 68.0671C31.6983 66.8088 30.6779 65.7896 29.4208 65.7896C28.8323 65.7896 28.2989 66.0137 27.8945 66.3793V69.7549C28.2989 70.1205 28.8323 70.3446 29.4208 70.3446C30.6791 70.3446 31.6983 69.3242 31.6983 68.0671Z" fill="#48B596"/>
</g>
<path d="M68.6541 69.119H50.5318C49.7668 69.119 49.1658 68.4616 49.2346 67.6991L50.2763 56.2202H71.013L69.95 67.9345C69.8886 68.6056 69.3265 69.119 68.6528 69.119H68.6541Z" fill="#1A473F"/>
<path d="M50.166 42.0508H56.3863" stroke="#112130" stroke-width="0.140231" stroke-miterlimit="10" stroke-linecap="round"/>
<path d="M50.166 42.0268C50.2211 42.0268 50.2211 42.043 50.2749 42.043C50.3288 42.043 50.3288 42.0405 50.3839 42.0405C50.439 42.0405 50.4377 42.0743 50.4928 42.0743C50.5479 42.0743 50.5466 42.0218 50.6017 42.0218C50.6568 42.0218 50.6556 42.0568 50.7107 42.0568C50.7658 42.0568 50.7645 42.0293 50.8196 42.0293C50.8747 42.0293 50.8734 42.0268 50.9285 42.0268C50.9836 42.0268 50.9824 42.0568 51.0374 42.0568C51.0925 42.0568 51.0913 42.0318 51.1464 42.0318C51.2015 42.0318 51.2002 42.0455 51.2553 42.0455C51.3104 42.0455 51.3091 42.0543 51.3642 42.0543C51.4193 42.0543 51.4181 42.0781 51.4732 42.0781C51.5283 42.0781 51.527 42.0618 51.5821 42.0618C51.6372 42.0618 51.6359 42.0205 51.691 42.0205C51.7461 42.0205 51.7449 42.028 51.8 42.028C51.855 42.028 51.855 42.0606 51.9089 42.0606C51.9627 42.0606 51.964 42.0756 52.0178 42.0756C52.0717 42.0756 52.0729 42.0819 52.1267 42.0819C52.1806 42.0819 52.1818 42.0293 52.2357 42.0293C52.2895 42.0293 52.2908 42.0656 52.3446 42.0656C52.3984 42.0656 52.3984 42.0368 52.4535 42.0368C52.5086 42.0368 52.5074 42.0305 52.5625 42.0305C52.6176 42.0305 52.6163 42.0656 52.6714 42.0656C52.7265 42.0656 52.7252 42.0819 52.7803 42.0819C52.8354 42.0819 52.8342 42.0305 52.8892 42.0305C52.9443 42.0305 52.9443 42.0731 52.9982 42.0731C53.052 42.0731 53.0533 42.0794 53.1071 42.0794C53.1609 42.0794 53.1622 42.0643 53.216 42.0643C53.2699 42.0643 53.2711 42.0205 53.325 42.0205C53.3788 42.0205 53.3801 42.0718 53.4339 42.0718C53.4877 42.0718 53.489 42.0631 53.5428 42.0631C53.5967 42.0631 53.5979 42.038 53.6518 42.038C53.7056 42.038 53.7068 42.0543 53.7607 42.0543C53.8145 42.0543 53.8158 42.0756 53.8696 42.0756C53.9235 42.0756 53.9247 42.0706 53.9785 42.0706C54.0324 42.0706 54.0336 42.0706 54.0875 42.0706C54.1413 42.0706 54.1426 42.0781 54.1964 42.0781C54.2502 42.0781 54.2515 42.0656 54.3053 42.0656C54.3592 42.0656 54.3604 42.0518 54.4143 42.0518C54.4681 42.0518 54.4694 42.0481 54.5232 42.0481C54.577 42.0481 54.5783 42.0656 54.6321 42.0656C54.686 42.0656 54.6872 42.0606 54.741 42.0606C54.7949 42.0606 54.7961 42.043 54.85 42.043C54.9038 42.043 54.9051 42.0393 54.9589 42.0393C55.0127 42.0393 55.014 42.0631 55.0678 42.0631C55.1217 42.0631 55.1229 42.0693 55.1768 42.0693C55.2306 42.0693 55.2319 42.0293 55.2869 42.0293C55.342 42.0293 55.342 42.0806 55.3959 42.0806C55.4497 42.0806 55.451 42.0568 55.5048 42.0568C55.5586 42.0568 55.5599 42.038 55.615 42.038C55.6701 42.038 55.6701 42.0468 55.7252 42.0468C55.7803 42.0468 55.7803 42.0844 55.8341 42.0844C55.8879 42.0844 55.8892 42.0556 55.943 42.0556C55.9969 42.0556 55.9981 42.0405 56.0532 42.0405C56.1083 42.0405 56.1083 42.0681 56.1634 42.0681C56.2185 42.0681 56.2185 42.0819 56.2736 42.0819C56.3287 42.0819 56.3287 42.0455 56.3838 42.0455" stroke="#112130" stroke-width="0.229127" stroke-miterlimit="10" stroke-linecap="round"/>
<path d="M36.4773 51.4824C36.5324 51.4824 36.5324 51.4674 36.5862 51.4674C36.6401 51.4674 36.6401 51.4899 36.6952 51.4899C36.7502 51.4899 36.749 51.4661 36.8041 51.4661C36.8592 51.4661 36.8579 51.4874 36.913 51.4874C36.9681 51.4874 36.9669 51.4974 37.0219 51.4974C37.077 51.4974 37.0758 51.4899 37.1309 51.4899C37.186 51.4899 37.1847 51.4586 37.2398 51.4586C37.2949 51.4586 37.2936 51.5012 37.3487 51.5012C37.4038 51.5012 37.4026 51.4549 37.4577 51.4549C37.5127 51.4549 37.5115 51.51 37.5666 51.51C37.6217 51.51 37.6204 51.4649 37.6755 51.4649C37.7306 51.4649 37.7294 51.4536 37.7844 51.4536C37.8395 51.4536 37.8383 51.5075 37.8934 51.5075C37.9485 51.5075 37.9472 51.51 38.0023 51.51C38.0574 51.51 38.0561 51.4674 38.1112 51.4674C38.1663 51.4674 38.1663 51.4999 38.2202 51.4999C38.274 51.4999 38.2753 51.5125 38.3291 51.5125C38.3829 51.5125 38.3842 51.4874 38.438 51.4874C38.4919 51.4874 38.4931 51.4636 38.547 51.4636C38.6008 51.4636 38.602 51.4774 38.6559 51.4774C38.7097 51.4774 38.7097 51.4912 38.7648 51.4912C38.8199 51.4912 38.8186 51.4974 38.8737 51.4974C38.9288 51.4974 38.9276 51.5137 38.9827 51.5137C39.0378 51.5137 39.0365 51.4837 39.0916 51.4837C39.1467 51.4837 39.1454 51.4787 39.2005 51.4787C39.2556 51.4787 39.2556 51.5049 39.3095 51.5049C39.3633 51.5049 39.3645 51.5112 39.4184 51.5112C39.4722 51.5112 39.4735 51.5087 39.5273 51.5087C39.5812 51.5087 39.5824 51.5049 39.6362 51.5049C39.6901 51.5049 39.6913 51.4774 39.7452 51.4774C39.799 51.4774 39.8003 51.51 39.8541 51.51C39.9079 51.51 39.9092 51.4649 39.963 51.4649C40.0169 51.4649 40.0181 51.4799 40.072 51.4799C40.1258 51.4799 40.1271 51.4862 40.1809 51.4862C40.2347 51.4862 40.236 51.4624 40.2898 51.4624C40.3437 51.4624 40.3449 51.4699 40.3988 51.4699C40.4526 51.4699 40.4538 51.4949 40.5077 51.4949C40.5615 51.4949 40.5628 51.4724 40.6166 51.4724C40.6704 51.4724 40.6717 51.4636 40.7255 51.4636C40.7794 51.4636 40.7806 51.5062 40.8345 51.5062C40.8883 51.5062 40.8896 51.4674 40.9434 51.4674C40.9972 51.4674 40.9985 51.4736 41.0523 51.4736C41.1062 51.4736 41.1074 51.4999 41.1613 51.4999C41.2151 51.4999 41.2163 51.4924 41.2702 51.4924C41.324 51.4924 41.3253 51.4824 41.3791 51.4824C41.433 51.4824 41.4342 51.5049 41.488 51.5049C41.5419 51.5049 41.5431 51.5049 41.5982 51.5049C41.6533 51.5049 41.6533 51.4874 41.7072 51.4874C41.761 51.4874 41.7622 51.4561 41.8161 51.4561C41.8699 51.4561 41.8712 51.515 41.9263 51.515C41.9814 51.515 41.9814 51.5062 42.0364 51.5062C42.0915 51.5062 42.0915 51.4787 42.1454 51.4787C42.1992 51.4787 42.2005 51.4837 42.2543 51.4837C42.3081 51.4837 42.3094 51.4987 42.3645 51.4987C42.4196 51.4987 42.4196 51.4611 42.4747 51.4611C42.5298 51.4611 42.5298 51.5037 42.5848 51.5037C42.6399 51.5037 42.6399 51.4799 42.695 51.4799" stroke="#112130" stroke-width="0.229127" stroke-miterlimit="10" stroke-linecap="round"/>
<mask id="mask3_6861_106569" style="mask-type:luminance" maskUnits="userSpaceOnUse" x="49" y="56" width="23" height="14">
<path d="M68.6541 69.119H50.5318C49.7668 69.119 49.1658 68.4616 49.2346 67.6991L50.2763 56.2202H71.013L69.95 67.9345C69.8886 68.6056 69.3265 69.119 68.6528 69.119H68.6541Z" fill="white"/>
</mask>
<g mask="url(#mask3_6861_106569)">
<path opacity="0.5" d="M70.7889 45.4536C70.7989 45.5413 70.8064 45.6302 70.8064 45.7203C70.8064 46.9786 69.786 47.9978 68.5289 47.9978C67.2719 47.9978 66.2514 46.9774 66.2514 45.7203C66.2514 45.6302 66.2577 45.5413 66.269 45.4536H70.7914H70.7889ZM68.5277 54.6162C67.2694 54.6162 66.2502 55.6366 66.2502 56.8937C66.2502 58.1508 67.2706 59.1712 68.5277 59.1712C69.7847 59.1712 70.8052 58.1508 70.8052 56.8937C70.8052 55.6366 69.7847 54.6162 68.5277 54.6162ZM71.2559 49.0333C70.0289 49.0683 69.0435 50.0725 69.0435 51.3083C69.0435 52.544 70.0289 53.5482 71.2559 53.5832V49.0333ZM68.0118 51.307C68.0118 50.0487 66.9914 49.0295 65.7343 49.0295C64.4773 49.0295 63.4568 50.0499 63.4568 51.307C63.4568 52.5641 64.4773 53.5845 65.7343 53.5845C66.9914 53.5845 68.0118 52.5641 68.0118 51.307ZM62.4251 51.307C62.4251 50.0487 61.4047 49.0295 60.1476 49.0295C58.8906 49.0295 57.8701 50.0499 57.8701 51.307C57.8701 52.5641 58.8906 53.5845 60.1476 53.5845C61.4047 53.5845 62.4251 52.5641 62.4251 51.307ZM60.6622 45.7203C60.6622 46.9786 61.6827 47.9978 62.9397 47.9978C64.1968 47.9978 65.2172 46.9774 65.2172 45.7203C65.2172 45.6302 65.211 45.5413 65.1997 45.4536H60.6772C60.6672 45.5413 60.6597 45.6302 60.6597 45.7203H60.6622ZM68.5277 65.7896C67.2694 65.7896 66.2502 66.81 66.2502 68.0671C66.2502 69.3242 67.2706 70.3446 68.5277 70.3446C69.7847 70.3446 70.8052 69.3242 70.8052 68.0671C70.8052 66.81 69.7847 65.7896 68.5277 65.7896ZM71.2559 60.2067C70.0289 60.2417 69.0435 61.2459 69.0435 62.4816C69.0435 63.7174 70.0289 64.7216 71.2559 64.7566V60.2067ZM65.7343 64.7591C66.9926 64.7591 68.0118 63.7387 68.0118 62.4816C68.0118 61.2246 66.9914 60.2041 65.7343 60.2041C64.4773 60.2041 63.4568 61.2246 63.4568 62.4816C63.4568 63.7387 64.4773 64.7591 65.7343 64.7591ZM62.4251 62.4804C62.4251 61.2221 61.4047 60.2029 60.1476 60.2029C58.8906 60.2029 57.8701 61.2233 57.8701 62.4804C57.8701 63.7375 58.8906 64.7579 60.1476 64.7579C61.4047 64.7579 62.4251 63.7375 62.4251 62.4804ZM65.2185 56.8937C65.2185 55.6354 64.198 54.6162 62.941 54.6162C61.6839 54.6162 60.6635 55.6366 60.6635 56.8937C60.6635 58.1508 61.6839 59.1712 62.941 59.1712C64.198 59.1712 65.2185 58.1508 65.2185 56.8937ZM68.5277 76.963C67.6249 76.963 66.8487 77.4889 66.4793 78.2489H70.576C70.2067 77.4876 69.4292 76.963 68.5277 76.963ZM62.941 76.963C62.0382 76.963 61.262 77.4889 60.8926 78.2489H64.9893C64.62 77.4876 63.8425 76.963 62.941 76.963ZM69.0423 73.6538C69.0423 74.8896 70.0276 75.8937 71.2547 75.9288V71.3788C70.0276 71.4139 69.0423 72.418 69.0423 73.6538ZM65.7343 75.9325C66.9926 75.9325 68.0118 74.9121 68.0118 73.655C68.0118 72.398 66.9914 71.3775 65.7343 71.3775C64.4773 71.3775 63.4568 72.398 63.4568 73.655C63.4568 74.9121 64.4773 75.9325 65.7343 75.9325ZM65.2185 68.0671C65.2185 66.8088 64.198 65.7896 62.941 65.7896C61.6839 65.7896 60.6635 66.81 60.6635 68.0671C60.6635 69.3242 61.6839 70.3446 62.941 70.3446C64.198 70.3446 65.2185 69.3242 65.2185 68.0671ZM55.0755 45.7203C55.0755 46.9786 56.096 47.9978 57.353 47.9978C58.6101 47.9978 59.6305 46.9774 59.6305 45.7203C59.6305 45.6302 59.6243 45.5413 59.613 45.4536H55.0906C55.0805 45.5413 55.073 45.6302 55.073 45.7203H55.0755ZM52.2822 51.307C52.2822 52.5653 53.3026 53.5845 54.5597 53.5845C55.8167 53.5845 56.8372 52.5641 56.8372 51.307C56.8372 50.0499 55.8167 49.0295 54.5597 49.0295C53.3026 49.0295 52.2822 50.0499 52.2822 51.307ZM51.2517 51.307C51.2517 50.0487 50.2313 49.0295 48.9742 49.0295C47.7172 49.0295 46.6967 50.0499 46.6967 51.307C46.6967 52.5641 47.7172 53.5845 48.9742 53.5845C50.2313 53.5845 51.2517 52.5641 51.2517 51.307ZM49.4888 45.7203C49.4888 46.9786 50.5093 47.9978 51.7663 47.9978C53.0234 47.9978 54.0438 46.9774 54.0438 45.7203C54.0438 45.6302 54.0376 45.5413 54.0263 45.4536H49.5039C49.4938 45.5413 49.4863 45.6302 49.4863 45.7203H49.4888ZM54.5609 64.7591C55.8193 64.7591 56.8384 63.7387 56.8384 62.4816C56.8384 61.2246 55.818 60.2041 54.5609 60.2041C53.3039 60.2041 52.2834 61.2246 52.2834 62.4816C52.2834 63.7387 53.3039 64.7591 54.5609 64.7591ZM51.2517 62.4804C51.2517 61.2221 50.2313 60.2029 48.9742 60.2029C47.7172 60.2029 46.6967 61.2233 46.6967 62.4804C46.6967 63.7375 47.7172 64.7579 48.9742 64.7579C50.2313 64.7579 51.2517 63.7375 51.2517 62.4804ZM59.6318 56.8937C59.6318 55.6354 58.6114 54.6162 57.3543 54.6162C56.0972 54.6162 55.0768 55.6366 55.0768 56.8937C55.0768 58.1508 56.0972 59.1712 57.3543 59.1712C58.6114 59.1712 59.6318 58.1508 59.6318 56.8937ZM54.0451 56.8937C54.0451 55.6354 53.0247 54.6162 51.7676 54.6162C50.5105 54.6162 49.4901 55.6366 49.4901 56.8937C49.4901 58.1508 50.5105 59.1712 51.7676 59.1712C53.0247 59.1712 54.0451 58.1508 54.0451 56.8937ZM57.3543 76.963C56.4515 76.963 55.6753 77.4889 55.3059 78.2489H59.4027C59.0333 77.4876 58.2558 76.963 57.3543 76.963ZM51.7676 76.963C50.8648 76.963 50.0886 77.4889 49.7192 78.2489H53.816C53.4466 77.4876 52.6691 76.963 51.7676 76.963ZM60.1476 75.9325C61.406 75.9325 62.4251 74.9121 62.4251 73.655C62.4251 72.398 61.4047 71.3775 60.1476 71.3775C58.8906 71.3775 57.8701 72.398 57.8701 73.655C57.8701 74.9121 58.8906 75.9325 60.1476 75.9325ZM54.5609 75.9325C55.8193 75.9325 56.8384 74.9121 56.8384 73.655C56.8384 72.398 55.818 71.3775 54.5609 71.3775C53.3039 71.3775 52.2834 72.398 52.2834 73.655C52.2834 74.9121 53.3039 75.9325 54.5609 75.9325ZM59.6318 68.0671C59.6318 66.8088 58.6114 65.7896 57.3543 65.7896C56.0972 65.7896 55.0768 66.81 55.0768 68.0671C55.0768 69.3242 56.0972 70.3446 57.3543 70.3446C58.6114 70.3446 59.6318 69.3242 59.6318 68.0671ZM54.0451 68.0671C54.0451 66.8088 53.0247 65.7896 51.7676 65.7896C50.5105 65.7896 49.4901 66.81 49.4901 68.0671C49.4901 69.3242 50.5105 70.3446 51.7676 70.3446C53.0247 70.3446 54.0451 69.3242 54.0451 68.0671ZM43.9021 45.7203C43.9021 46.9786 44.9226 47.9978 46.1796 47.9978C47.4367 47.9978 48.4571 46.9774 48.4571 45.7203C48.4571 45.6302 48.4509 45.5413 48.4396 45.4536H43.9172C43.9071 45.5413 43.8996 45.6302 43.8996 45.7203H43.9021ZM41.1088 51.307C41.1088 52.5653 42.1292 53.5845 43.3863 53.5845C44.6434 53.5845 45.6638 52.5641 45.6638 51.307C45.6638 50.0499 44.6434 49.0295 43.3863 49.0295C42.1292 49.0295 41.1088 50.0499 41.1088 51.307ZM40.0783 51.307C40.0783 50.0487 39.0579 49.0295 37.8008 49.0295C36.5438 49.0295 35.5233 50.0499 35.5233 51.307C35.5233 52.5641 36.5438 53.5845 37.8008 53.5845C39.0579 53.5845 40.0783 52.5641 40.0783 51.307ZM38.3154 45.7203C38.3154 46.9786 39.3359 47.9978 40.5929 47.9978C41.85 47.9978 42.8704 46.9774 42.8704 45.7203C42.8704 45.6302 42.8642 45.5413 42.8529 45.4536H38.3305C38.3204 45.5413 38.3129 45.6302 38.3129 45.7203H38.3154ZM43.3875 64.7591C44.6459 64.7591 45.665 63.7387 45.665 62.4816C45.665 61.2246 44.6446 60.2041 43.3875 60.2041C42.1305 60.2041 41.11 61.2246 41.11 62.4816C41.11 63.7387 42.1305 64.7591 43.3875 64.7591ZM40.0783 62.4804C40.0783 61.2221 39.0579 60.2029 37.8008 60.2029C36.5438 60.2029 35.5233 61.2233 35.5233 62.4804C35.5233 63.7375 36.5438 64.7579 37.8008 64.7579C39.0579 64.7579 40.0783 63.7375 40.0783 62.4804ZM48.4584 56.8937C48.4584 55.6354 47.438 54.6162 46.1809 54.6162C44.9238 54.6162 43.9034 55.6366 43.9034 56.8937C43.9034 58.1508 44.9238 59.1712 46.1809 59.1712C47.438 59.1712 48.4584 58.1508 48.4584 56.8937ZM42.8717 56.8937C42.8717 55.6354 41.8513 54.6162 40.5942 54.6162C39.3371 54.6162 38.3167 55.6366 38.3167 56.8937C38.3167 58.1508 39.3371 59.1712 40.5942 59.1712C41.8513 59.1712 42.8717 58.1508 42.8717 56.8937ZM46.1809 76.963C45.2782 76.963 44.5019 77.4889 44.1325 78.2489H48.2293C47.8599 77.4876 47.0824 76.963 46.1809 76.963ZM40.5942 76.963C39.6915 76.963 38.9152 77.4889 38.5458 78.2489H42.6426C42.2732 77.4876 41.4957 76.963 40.5942 76.963ZM48.9742 75.9325C50.2326 75.9325 51.2517 74.9121 51.2517 73.655C51.2517 72.398 50.2313 71.3775 48.9742 71.3775C47.7172 71.3775 46.6967 72.398 46.6967 73.655C46.6967 74.9121 47.7172 75.9325 48.9742 75.9325ZM43.3875 75.9325C44.6459 75.9325 45.665 74.9121 45.665 73.655C45.665 72.398 44.6446 71.3775 43.3875 71.3775C42.1305 71.3775 41.11 72.398 41.11 73.655C41.11 74.9121 42.1305 75.9325 43.3875 75.9325ZM48.4584 68.0671C48.4584 66.8088 47.438 65.7896 46.1809 65.7896C44.9238 65.7896 43.9034 66.81 43.9034 68.0671C43.9034 69.3242 44.9238 70.3446 46.1809 70.3446C47.438 70.3446 48.4584 69.3242 48.4584 68.0671ZM42.8717 68.0671C42.8717 66.8088 41.8513 65.7896 40.5942 65.7896C39.3371 65.7896 38.3167 66.81 38.3167 68.0671C38.3167 69.3242 39.3371 70.3446 40.5942 70.3446C41.8513 70.3446 42.8717 69.3242 42.8717 68.0671ZM32.7287 45.7203C32.7287 46.9786 33.7492 47.9978 35.0062 47.9978C36.2633 47.9978 37.2837 46.9774 37.2837 45.7203C37.2837 45.6302 37.2775 45.5413 37.2662 45.4536H32.7463C32.7363 45.5413 32.7287 45.6302 32.7287 45.7203ZM29.9354 51.307C29.9354 52.5653 30.9558 53.5845 32.2129 53.5845C33.47 53.5845 34.4904 52.5641 34.4904 51.307C34.4904 50.0499 33.47 49.0295 32.2129 49.0295C30.9558 49.0295 29.9354 50.0499 29.9354 51.307ZM28.9049 51.307C28.9049 50.5182 28.503 49.8233 27.8945 49.4139V53.2001C28.5043 52.7907 28.9049 52.0958 28.9049 51.307ZM27.8945 47.4081C28.2989 47.7737 28.8323 47.9978 29.4208 47.9978C30.6791 47.9978 31.6983 46.9774 31.6983 45.7203C31.6983 45.6302 31.692 45.5413 31.6808 45.4536H27.8945V47.4081ZM32.2141 64.7591C33.4725 64.7591 34.4916 63.7387 34.4916 62.4816C34.4916 61.2246 33.4712 60.2041 32.2141 60.2041C30.9571 60.2041 29.9366 61.2246 29.9366 62.4816C29.9366 63.7387 30.9571 64.7591 32.2141 64.7591ZM28.9049 62.4804C28.9049 61.6916 28.503 60.9967 27.8945 60.5873V64.3735C28.5043 63.9641 28.9049 63.2692 28.9049 62.4804ZM37.285 56.8937C37.285 55.6354 36.2646 54.6162 35.0075 54.6162C33.7504 54.6162 32.73 55.6366 32.73 56.8937C32.73 58.1508 33.7504 59.1712 35.0075 59.1712C36.2646 59.1712 37.285 58.1508 37.285 56.8937ZM31.6983 56.8937C31.6983 55.6354 30.6779 54.6162 29.4208 54.6162C28.8323 54.6162 28.2989 54.8403 27.8945 55.2059V58.5815C28.2989 58.9471 28.8323 59.1712 29.4208 59.1712C30.6791 59.1712 31.6983 58.1508 31.6983 56.8937ZM35.0075 76.963C34.1048 76.963 33.3285 77.4889 32.9591 78.2489H37.0559C36.6865 77.4876 35.909 76.963 35.0075 76.963ZM29.4208 76.963C28.8323 76.963 28.2989 77.1871 27.8945 77.5527V78.2489H31.4692C31.0998 77.4876 30.3223 76.963 29.4208 76.963ZM37.8008 75.9325C39.0592 75.9325 40.0783 74.9121 40.0783 73.655C40.0783 72.398 39.0579 71.3775 37.8008 71.3775C36.5438 71.3775 35.5233 72.398 35.5233 73.655C35.5233 74.9121 36.5438 75.9325 37.8008 75.9325ZM34.4916 73.6538C34.4916 72.3955 33.4712 71.3763 32.2141 71.3763C30.9571 71.3763 29.9366 72.3967 29.9366 73.6538C29.9366 74.9109 30.9571 75.9313 32.2141 75.9313C33.4712 75.9313 34.4916 74.9109 34.4916 73.6538ZM28.9049 73.6538C28.9049 72.865 28.503 72.1701 27.8945 71.7607V75.5469C28.5043 75.1375 28.9049 74.4426 28.9049 73.6538ZM37.285 68.0671C37.285 66.8088 36.2646 65.7896 35.0075 65.7896C33.7504 65.7896 32.73 66.81 32.73 68.0671C32.73 69.3242 33.7504 70.3446 35.0075 70.3446C36.2646 70.3446 37.285 69.3242 37.285 68.0671ZM31.6983 68.0671C31.6983 66.8088 30.6779 65.7896 29.4208 65.7896C28.8323 65.7896 28.2989 66.0137 27.8945 66.3793V69.7549C28.2989 70.1205 28.8323 70.3446 29.4208 70.3446C30.6791 70.3446 31.6983 69.3242 31.6983 68.0671Z" fill="#0F332C"/>
</g>
<path d="M43.167 60.9006C43.0969 61.0633 42.9905 61.2098 42.8603 61.3275C42.6374 61.5316 42.3432 61.6581 42.0314 61.6581H37.3662C36.744 61.6581 36.2832 61.1535 36.3408 60.5312C36.3683 60.2194 36.5198 59.9377 36.744 59.7337C36.8867 59.6022 37.0582 59.5045 37.2435 59.4507C37.231 59.462 37.2197 59.472 37.2072 59.482C36.9906 59.6673 36.8441 59.9227 36.8166 60.2057C36.7615 60.7716 37.2072 61.2286 37.812 61.2286H42.3332C42.6362 61.2286 42.9204 61.1147 43.1357 60.9294C43.1458 60.9206 43.1558 60.9118 43.1658 60.9018L43.167 60.9006Z" fill="#1A473F"/>
<path d="M43.2635 60.5312C43.2522 60.6614 43.2184 60.7854 43.1671 60.9006C43.1571 60.9106 43.1471 60.9194 43.137 60.9281C42.9204 61.1134 42.6362 61.2274 42.3345 61.2274H37.8133C37.2085 61.2274 36.7641 60.7704 36.8179 60.2044C36.8442 59.9215 36.9919 59.666 37.2085 59.4807C37.2211 59.4707 37.2323 59.4607 37.2448 59.4494C37.35 59.4194 37.4615 59.4019 37.5729 59.4019H42.2393C42.8616 59.4019 43.3211 59.9064 43.2648 60.53L43.2635 60.5312Z" fill="#1C1B2B"/>
<path d="M31.7732 47.6774C31.638 48.7391 31.986 49.6043 32.6434 49.8372C32.6684 49.846 32.6596 49.8785 32.6321 49.8848C31.8809 50.0325 31.1196 50.8301 30.7302 51.8768C30.719 51.9056 30.6764 51.9031 30.6801 51.8743C30.8154 50.8113 30.4673 49.9474 29.81 49.7145C29.7849 49.7057 29.7937 49.6732 29.8212 49.6669C30.5725 49.5204 31.3337 48.7229 31.7231 47.6761C31.7344 47.6474 31.7769 47.6499 31.7732 47.6787V47.6774Z" fill="white"/>
<path d="M68.8869 42.1582C68.9057 42.9257 69.245 43.5017 69.7358 43.5956C69.7546 43.5993 69.7521 43.6231 69.7321 43.6306C69.215 43.8159 68.7617 44.4632 68.5977 45.247C68.5927 45.2696 68.5626 45.2721 68.5614 45.2508C68.5426 44.4833 68.2033 43.9073 67.7125 43.8134C67.6937 43.8097 67.6962 43.7859 67.7162 43.7784C68.2321 43.5931 68.6866 42.9457 68.8506 42.1619C68.8556 42.1394 68.8857 42.1369 68.8869 42.1582Z" fill="white"/>
<path d="M46.6253 31.0287C46.6892 32.5875 47.4054 33.7256 48.4133 33.8734C48.4521 33.8784 48.4483 33.9285 48.4083 33.9447C47.3553 34.3679 46.4463 35.7252 46.137 37.3328C46.1283 37.3779 46.0657 37.3867 46.0632 37.3428C45.9993 35.784 45.2844 34.6447 44.2752 34.4982C44.2364 34.4932 44.2402 34.4431 44.2802 34.4268C45.332 34.0036 46.2422 32.6476 46.5515 31.0387C46.5602 30.9936 46.6228 30.9849 46.6253 31.0287Z" fill="white"/>
</g>
<defs>
<clipPath id="clip0_6861_106569">
<rect width="110" height="110" fill="white"/>
</clipPath>
<clipPath id="clip1_6861_106569">
<rect width="42.0142" height="38.119" fill="white" transform="translate(29 31)"/>
</clipPath>
</defs>
</svg>
