<svg width="28" height="28" viewBox="0 0 28 28" fill="none" xmlns="http://www.w3.org/2000/svg">
<g id="vuesax/bold/profile-2user">
<g id="profile-2user">
<path id="Vector" d="M10.5002 2.33398C7.4435 2.33398 4.9585 4.81898 4.9585 7.87565C4.9585 10.874 7.3035 13.3007 10.3602 13.4057C10.4535 13.394 10.5468 13.394 10.6168 13.4057C10.6402 13.4057 10.6518 13.4057 10.6752 13.4057C10.6868 13.4057 10.6868 13.4057 10.6985 13.4057C13.6852 13.3007 16.0302 10.874 16.0418 7.87565C16.0418 4.81898 13.5568 2.33398 10.5002 2.33398Z" fill="#8C94A6"/>
<path id="Vector_2" d="M16.4266 16.5084C13.1716 14.3384 7.86329 14.3384 4.58495 16.5084C3.10329 17.5 2.28662 18.8417 2.28662 20.2767C2.28662 21.7117 3.10329 23.0417 4.57329 24.0217C6.20662 25.1184 8.35329 25.6667 10.5 25.6667C12.6466 25.6667 14.7933 25.1184 16.4266 24.0217C17.8966 23.03 18.7133 21.7 18.7133 20.2534C18.7016 18.8184 17.8966 17.4884 16.4266 16.5084Z" fill="#8C94A6"/>
<path id="Vector_3" d="M23.3214 8.56312C23.5081 10.8265 21.8981 12.8098 19.6698 13.0781C19.6581 13.0781 19.6581 13.0781 19.6464 13.0781H19.6114C19.5414 13.0781 19.4714 13.0781 19.4131 13.1015C18.2814 13.1598 17.2431 12.7981 16.4614 12.1331C17.6631 11.0598 18.3514 9.44979 18.2114 7.69979C18.1298 6.75479 17.8031 5.89146 17.3131 5.15646C17.7564 4.93479 18.2698 4.79479 18.7948 4.74812C21.0814 4.54979 23.1231 6.25312 23.3214 8.56312Z" fill="#8C94A6"/>
<path id="Vector_4" d="M25.6551 19.3542C25.5618 20.4858 24.8384 21.4658 23.6251 22.1308C22.4584 22.7725 20.9884 23.0758 19.5301 23.0408C20.3701 22.2825 20.8601 21.3375 20.9534 20.3342C21.0701 18.8875 20.3818 17.4992 19.0051 16.3908C18.2234 15.7725 17.3134 15.2825 16.3218 14.9208C18.9001 14.1742 22.1434 14.6758 24.1384 16.2858C25.2118 17.1492 25.7601 18.2342 25.6551 19.3542Z" fill="#8C94A6"/>
</g>
</g>
</svg>
