<svg width="125" height="130" viewBox="0 0 125 130" fill="none" xmlns="http://www.w3.org/2000/svg">
<g filter="url(#filter0_d_6862_18365)">
<g clip-path="url(#clip0_6862_18365)">
<rect x="20" y="21" width="80" height="80" rx="40" fill="white"/>
<g opacity="0.6" clip-path="url(#clip1_6862_18365)">
<path d="M67.1167 1.37444L72.1036 15.3984C72.4819 16.4647 73.0799 17.4397 73.8588 18.2603C74.6378 19.0808 75.5804 19.7287 76.6255 20.162C77.6707 20.5952 78.7952 20.8042 79.9263 20.7754C81.0573 20.7466 82.1697 20.4806 83.1915 19.9947L96.6342 13.6044C103.503 10.339 110.669 17.505 107.404 24.3742L101.011 37.8123C100.526 38.8338 100.26 39.9458 100.231 41.0764C100.203 42.207 100.412 43.331 100.845 44.3758C101.278 45.4206 101.925 46.3628 102.745 47.1417C103.565 47.9205 104.54 48.5187 105.605 48.8973L119.629 53.8842C126.791 56.4325 126.791 66.5671 119.629 69.1153L105.605 74.1022C104.539 74.4807 103.564 75.0788 102.744 75.8579C101.924 76.6369 101.276 77.5795 100.843 78.6246C100.41 79.6698 100.201 80.7942 100.23 81.9252C100.259 83.0561 100.525 84.1684 101.011 85.1901L107.401 98.6328C110.667 105.502 103.501 112.668 96.6314 109.403L83.1915 103.01C82.1698 102.524 81.0575 102.257 79.9266 102.229C78.7956 102.2 77.6712 102.408 76.626 102.841C75.5809 103.275 74.6383 103.922 73.8593 104.743C73.0802 105.563 72.4821 106.538 72.1036 107.604L67.1167 121.628C64.5684 128.789 54.4339 128.789 51.8856 121.628L46.8987 107.604C46.5198 106.538 45.9214 105.564 45.1425 104.745C44.3635 103.925 43.4212 103.278 42.3764 102.845C41.3317 102.412 40.2077 102.204 39.0773 102.232C37.9468 102.261 36.835 102.527 35.8136 103.012L22.3672 109.4C15.498 112.665 8.33206 105.499 11.5974 98.63L17.996 85.1901C18.4816 84.1687 18.7474 83.0569 18.7763 81.9264C18.8052 80.7959 18.5965 79.6719 18.1637 78.6271C17.731 77.5823 17.0838 76.64 16.2639 75.861C15.4441 75.0821 14.47 74.4838 13.4045 74.105L-0.624169 69.1153C-7.78543 66.5671 -7.78543 56.4325 -0.624169 53.8842L13.3998 48.8973C14.4657 48.5188 15.4402 47.9209 16.2604 47.1421C17.0807 46.3633 17.7283 45.4211 18.1615 44.3763C18.5947 43.3315 18.8038 42.2074 18.7753 41.0767C18.7468 39.946 18.4813 38.8339 17.996 37.8123L11.6011 24.3658C8.33578 17.4966 15.5017 10.3307 22.3709 13.596L35.8136 19.9947C36.835 20.4801 37.9468 20.7457 39.0773 20.7746C40.2077 20.8034 41.3317 20.5947 42.3764 20.1619C43.4212 19.7292 44.3635 19.082 45.1425 18.2623C45.9214 17.4426 46.5198 16.4685 46.8987 15.4031L51.8856 1.37444C54.4339 -5.79148 64.5684 -5.79148 67.1167 1.37444Z" fill="#D6F5EE"/>
<path d="M65.8328 11.5094L69.9789 23.1692C70.294 24.0547 70.7914 24.8643 71.4389 25.5456C72.0863 26.2269 72.8695 26.7648 73.7379 27.1246C74.6062 27.4844 75.5403 27.6581 76.4799 27.6344C77.4195 27.6107 78.3437 27.3901 79.1928 26.987L90.3699 21.6746C96.0803 18.9599 102.038 24.9177 99.3234 30.6281L94.011 41.8052C93.6073 42.6543 93.3862 43.5787 93.3622 44.5186C93.3382 45.4585 93.5117 46.393 93.8716 47.2617C94.2314 48.1303 94.7696 48.9137 95.4512 49.5613C96.1329 50.2088 96.9429 50.7061 97.8288 51.0209L109.488 55.168C115.446 57.2866 115.446 65.7118 109.488 67.8304L97.8288 71.9765C96.9428 72.2914 96.1328 72.7888 95.4512 73.4365C94.7695 74.0841 94.2314 74.8676 93.8715 75.7363C93.5117 76.605 93.3382 77.5396 93.3622 78.4795C93.3862 79.4195 93.6073 80.344 94.011 81.1931L99.3234 92.3703C102.038 98.0807 96.0803 104.038 90.3699 101.324L79.1928 96.0114C78.3436 95.6076 77.4191 95.3866 76.4792 95.3626C75.5392 95.3385 74.6047 95.5121 73.736 95.8719C72.8673 96.2317 72.0837 96.7699 71.4361 97.4515C70.7884 98.1332 70.2911 98.9432 69.9761 99.8292L65.83 111.488C63.7114 117.446 55.2862 117.446 53.1676 111.488L49.0206 99.8292C48.7058 98.9432 48.2085 98.1332 47.5609 97.4516C46.9133 96.7699 46.1299 96.2318 45.2613 95.8719C44.3927 95.5121 43.4582 95.3386 42.5183 95.3626C41.5784 95.3866 40.654 95.6076 39.8049 96.0114L28.6277 101.324C22.9173 104.038 16.9595 98.0807 19.6743 92.3703L24.9894 81.1903C25.393 80.3411 25.6139 79.4167 25.6379 78.4768C25.6618 77.5368 25.4883 76.6024 25.1285 75.7337C24.7687 74.865 24.2306 74.0816 23.549 73.4339C22.8674 72.7862 22.0575 72.2888 21.1716 71.9737L9.51181 67.8304C3.55401 65.7118 3.55401 57.2866 9.51181 55.168L21.1716 51.0209C22.0575 50.706 22.8674 50.2086 23.5489 49.561C24.2305 48.9135 24.7686 48.1301 25.1284 47.2615C25.4883 46.3929 25.6618 45.4585 25.6379 44.5186C25.6139 43.5787 25.393 42.6544 24.9894 41.8052L19.6771 30.6281C16.9623 24.9177 22.9201 18.9599 28.6305 21.6746L39.8077 26.987C40.6568 27.3906 41.5812 27.6115 42.521 27.6354C43.4609 27.6594 44.3953 27.4858 45.2639 27.126C46.1325 26.7662 46.9159 26.2281 47.5635 25.5465C48.2111 24.8649 48.7084 24.055 49.0234 23.1692L53.1704 11.5094C55.2909 5.55157 63.7142 5.55157 65.8328 11.5094Z" fill="#EAFAF6"/>
<path d="M64.8114 19.5725L68.2888 29.3518C68.5535 30.0945 68.971 30.7734 69.5144 31.3446C70.0578 31.9158 70.7151 32.3667 71.4436 32.668C72.1722 32.9694 72.9559 33.1145 73.744 33.094C74.5322 33.0736 75.3073 32.888 76.0193 32.5493L85.3931 28.0935C90.1827 25.8167 95.1798 30.8138 92.9031 35.6035L88.4473 44.9773C88.1087 45.6894 87.9232 46.4647 87.903 47.253C87.8828 48.0412 88.0283 48.825 88.33 49.5535C88.6317 50.2821 89.083 50.9392 89.6546 51.4823C90.2262 52.0255 90.9055 52.4427 91.6485 52.7068L101.428 56.1852C106.425 57.9615 106.425 65.0279 101.428 66.8052L91.6485 70.2826C90.9055 70.5469 90.2262 70.9641 89.6546 71.5074C89.0829 72.0507 88.6317 72.7078 88.33 73.4364C88.0282 74.165 87.8828 74.9489 87.903 75.7372C87.9232 76.5255 88.1086 77.3009 88.4473 78.0131L92.9031 87.3869C95.1798 92.1766 90.1827 97.1736 85.3931 94.8969L76.0193 90.4411C75.3071 90.1024 74.5317 89.917 73.7434 89.8968C72.955 89.8766 72.1712 90.022 71.4426 90.3238C70.714 90.6255 70.0569 91.0767 69.5136 91.6484C68.9703 92.22 68.5531 92.8993 68.2888 93.6423L64.8114 103.422C63.0341 108.419 55.9677 108.419 54.1913 103.422L50.713 93.6423C50.4488 92.8993 50.0317 92.22 49.4885 91.6484C48.9453 91.0768 48.2882 90.6255 47.5597 90.3238C46.8312 90.0221 46.0474 89.8766 45.2592 89.8968C44.4709 89.917 43.6956 90.1025 42.9835 90.4411L33.6097 94.8969C28.82 97.1736 23.8229 92.1766 26.0997 87.3869L30.5517 78.0168C30.8904 77.3046 31.0758 76.5293 31.096 75.7409C31.1162 74.9526 30.9708 74.1688 30.6691 73.4402C30.3674 72.7116 29.9161 72.0544 29.3445 71.5111C28.7728 70.9679 28.0936 70.5506 27.3505 70.2863L17.575 66.8089C12.5779 65.0316 12.5779 57.9652 17.575 56.1889L27.3543 52.7105C28.0969 52.446 28.7758 52.0286 29.347 51.4852C29.9182 50.9419 30.3691 50.2847 30.6704 49.5562C30.9718 48.8277 31.1169 48.0441 31.0965 47.256C31.076 46.4679 30.8905 45.6929 30.5517 44.981L26.0997 35.6072C23.8229 30.8175 28.82 25.8205 33.6097 28.0972L42.9835 32.5493C43.6956 32.8879 44.4709 33.0733 45.2592 33.0935C46.0474 33.1137 46.8312 32.9683 47.5597 32.6666C48.2882 32.3648 48.9453 31.9136 49.4885 31.3419C50.0317 30.7703 50.4488 30.0911 50.713 29.3481L54.1913 19.5688C55.9677 14.5754 63.0341 14.5754 64.8114 19.5725Z" fill="#D6F5EE"/>
<path d="M63.7536 27.9303L66.5382 35.7603C66.7497 36.3552 67.0838 36.8991 67.5188 37.3567C67.9537 37.8144 68.4799 38.1757 69.0632 38.4173C69.6466 38.6589 70.2742 38.7754 70.9054 38.7592C71.5365 38.743 72.1573 38.5946 72.7275 38.3235L80.2329 34.7558C84.0684 32.933 88.0694 36.934 86.2456 40.7695L82.678 48.2748C82.4069 48.8448 82.2584 49.4654 82.2421 50.0963C82.2257 50.7273 82.3419 51.3547 82.5831 51.938C82.8243 52.5212 83.1852 53.0474 83.6424 53.4826C84.0996 53.9177 84.643 54.2521 85.2374 54.4642L93.0674 57.2487C97.0665 58.6708 97.0665 64.3291 93.0674 65.752L85.2374 68.5366C84.6426 68.7482 84.0987 69.0822 83.641 69.5172C83.1833 69.9521 82.8219 70.4782 82.5802 71.0616C82.3386 71.6449 82.222 72.2724 82.238 72.9036C82.2541 73.5348 82.4024 74.1556 82.6733 74.7259L86.2409 82.2313C88.0647 86.0668 84.0637 90.0678 80.2283 88.244L72.7229 84.6764C72.153 84.406 71.5328 84.258 70.9022 84.2421C70.2716 84.2261 69.6447 84.3425 69.0618 84.5837C68.479 84.825 67.9532 85.1857 67.5184 85.6427C67.0835 86.0997 66.7493 86.6427 66.5372 87.2368L63.7536 95.0704C62.3307 99.0696 56.6724 99.0696 55.2503 95.0704L52.4649 87.2368C52.2533 86.6419 51.9192 86.098 51.4843 85.6403C51.0493 85.1826 50.5232 84.8212 49.9399 84.5796C49.3566 84.3379 48.729 84.2213 48.0978 84.2374C47.4666 84.2534 46.8458 84.4017 46.2755 84.6727L38.7701 88.2403C34.9347 90.0641 30.9337 86.0631 32.7565 82.2276L36.3241 74.7222C36.5953 74.152 36.7437 73.5312 36.7599 72.9C36.7761 72.2688 36.6596 71.6413 36.418 71.0579C36.1764 70.4746 35.8151 69.9484 35.3574 69.5134C34.8997 69.0785 34.3559 68.7444 33.761 68.5328L25.931 65.753C21.9319 64.33 21.9319 58.6717 25.931 57.2497L33.761 54.4651C34.3559 54.2536 34.8997 53.9195 35.3574 53.4845C35.8151 53.0496 36.1764 52.5234 36.418 51.9401C36.6596 51.3567 36.7761 50.7291 36.7599 50.098C36.7437 49.4668 36.5953 48.846 36.3241 48.2758L32.7565 40.7704C30.9337 36.9349 34.9347 32.9339 38.7701 34.7568L46.2755 38.3244C46.8457 38.5955 47.4665 38.744 48.0977 38.7601C48.7289 38.7763 49.3564 38.6598 49.9398 38.4183C50.5232 38.1767 51.0493 37.8154 51.4843 37.3577C51.9192 36.9 52.2533 36.3561 52.4649 35.7612L55.2494 27.9313C56.6714 23.9293 62.3298 23.9293 63.7536 27.9303Z" fill="#EAFAF6"/>
<path d="M63.0474 33.5009L65.3725 40.0316C65.5489 40.5278 65.8274 40.9814 66.1901 41.3632C66.5528 41.7451 66.9916 42.0465 67.478 42.2481C67.9645 42.4497 68.4879 42.547 69.0143 42.5337C69.5408 42.5203 70.0586 42.3967 70.5342 42.1707L76.7943 39.1946C79.9927 37.674 83.3296 41.0109 81.809 44.2102L78.8329 50.4703C78.6068 50.9459 78.483 51.4637 78.4696 51.9902C78.4562 52.5167 78.5534 53.0401 78.755 53.5266C78.9567 54.0132 79.2582 54.452 79.6401 54.8146C80.0219 55.1773 80.4757 55.4557 80.972 55.632L87.5027 57.9571C90.8396 59.1438 90.8396 63.8628 87.5027 65.0495L80.972 67.3746C80.4757 67.5508 80.0219 67.8293 79.6401 68.192C79.2582 68.5546 78.9567 68.9934 78.755 69.4799C78.5534 69.9665 78.4562 70.4899 78.4696 71.0164C78.483 71.5429 78.6068 72.0607 78.8329 72.5363L81.809 78.7964C83.3296 81.9947 79.9927 85.3317 76.7943 83.8111L70.5342 80.835C70.0586 80.6088 69.5408 80.4851 69.0143 80.4717C68.4878 80.4583 67.9644 80.5555 67.4779 80.7571C66.9913 80.9587 66.5526 81.2603 66.1899 81.6421C65.8272 82.024 65.5488 82.4778 65.3725 82.9741L63.0474 89.5048C61.8607 92.8417 57.1417 92.8417 55.955 89.5048L53.6299 82.9741C53.4537 82.4778 53.1752 82.024 52.8125 81.6421C52.4499 81.2603 52.0111 80.9587 51.5246 80.7571C51.038 80.5555 50.5146 80.4583 49.9881 80.4717C49.4617 80.4851 48.9439 80.6088 48.4682 80.835L42.2082 83.8111C39.0088 85.3317 35.6719 81.9947 37.1925 78.7964L40.1686 72.5363C40.3946 72.0606 40.5182 71.5429 40.5316 71.0164C40.5449 70.49 40.4476 69.9666 40.246 69.4801C40.0444 68.9936 39.743 68.5549 39.3612 68.1922C38.9794 67.8295 38.5257 67.551 38.0295 67.3746L31.4988 65.0495C28.1619 63.8628 28.1619 59.1438 31.4988 57.9571L38.0295 55.632C38.5257 55.4556 38.9794 55.1771 39.3612 54.8144C39.743 54.4517 40.0444 54.0129 40.246 53.5265C40.4476 53.04 40.5449 52.5166 40.5316 51.9902C40.5182 51.4637 40.3946 50.9459 40.1686 50.4703L37.1925 44.2102C35.6747 41.0137 39.0154 37.673 42.211 39.1936L48.471 42.1697C48.9467 42.3957 49.4644 42.5194 49.9909 42.5327C50.5173 42.5461 51.0407 42.4488 51.5272 42.2472C52.0137 42.0456 52.4524 41.7441 52.8151 41.3623C53.1778 40.9805 53.4563 40.5269 53.6327 40.0307L55.9578 33.5C57.1417 30.1639 61.8607 30.1639 63.0474 33.5009Z" fill="#D6F5EE"/>
<path d="M63.0474 33.5009L65.3725 40.0316C65.5489 40.5278 65.8274 40.9814 66.1901 41.3632C66.5528 41.7451 66.9916 42.0465 67.478 42.2481C67.9645 42.4497 68.4879 42.547 69.0143 42.5337C69.5408 42.5203 70.0586 42.3967 70.5342 42.1707L76.7943 39.1946C79.9927 37.674 83.3296 41.0109 81.809 44.2102L78.8329 50.4703C78.6068 50.9459 78.483 51.4637 78.4696 51.9902C78.4562 52.5167 78.5534 53.0401 78.755 53.5266C78.9567 54.0132 79.2582 54.452 79.6401 54.8146C80.0219 55.1773 80.4757 55.4557 80.972 55.632L87.5027 57.9571C90.8396 59.1438 90.8396 63.8628 87.5027 65.0495L80.972 67.3746C80.4757 67.5508 80.0219 67.8293 79.6401 68.192C79.2582 68.5546 78.9567 68.9934 78.755 69.4799C78.5534 69.9665 78.4562 70.4899 78.4696 71.0164C78.483 71.5429 78.6068 72.0607 78.8329 72.5363L81.809 78.7964C83.3296 81.9947 79.9927 85.3317 76.7943 83.8111L70.5342 80.835C70.0586 80.6088 69.5408 80.4851 69.0143 80.4717C68.4878 80.4583 67.9644 80.5555 67.4779 80.7571C66.9913 80.9587 66.5526 81.2603 66.1899 81.6421C65.8272 82.024 65.5488 82.4778 65.3725 82.9741L63.0474 89.5048C61.8607 92.8417 57.1417 92.8417 55.955 89.5048L53.6299 82.9741C53.4537 82.4778 53.1752 82.024 52.8125 81.6421C52.4499 81.2603 52.0111 80.9587 51.5246 80.7571C51.038 80.5555 50.5146 80.4583 49.9881 80.4717C49.4617 80.4851 48.9439 80.6088 48.4682 80.835L42.2082 83.8111C39.0088 85.3317 35.6719 81.9947 37.1925 78.7964L40.1686 72.5363C40.3946 72.0606 40.5182 71.5429 40.5316 71.0164C40.5449 70.49 40.4476 69.9666 40.246 69.4801C40.0444 68.9936 39.743 68.5549 39.3612 68.1922C38.9794 67.8295 38.5257 67.551 38.0295 67.3746L31.4988 65.0495C28.1619 63.8628 28.1619 59.1438 31.4988 57.9571L38.0295 55.632C38.5257 55.4556 38.9794 55.1771 39.3612 54.8144C39.743 54.4517 40.0444 54.0129 40.246 53.5265C40.4476 53.04 40.5449 52.5166 40.5316 51.9902C40.5182 51.4637 40.3946 50.9459 40.1686 50.4703L37.1925 44.2102C35.6747 41.0137 39.0154 37.673 42.211 39.1936L48.471 42.1697C48.9467 42.3957 49.4644 42.5194 49.9909 42.5327C50.5173 42.5461 51.0407 42.4488 51.5272 42.2472C52.0137 42.0456 52.4524 41.7441 52.8151 41.3623C53.1778 40.9805 53.4563 40.5269 53.6327 40.0307L55.9578 33.5C57.1417 30.1639 61.8607 30.1639 63.0474 33.5009Z" fill="#D6F5EE"/>
<path d="M62.1494 40.5894L63.8839 45.4665C64.0156 45.837 64.2236 46.1758 64.4945 46.4609C64.7654 46.7461 65.0931 46.9711 65.4565 47.1217C65.8198 47.2722 66.2107 47.3447 66.6039 47.3347C66.997 47.3247 67.3837 47.2322 67.7389 47.0633L72.4132 44.8415C74.8015 43.7059 77.294 46.1975 76.1585 48.5867L73.9366 53.2611C73.7677 53.6163 73.6753 54.0029 73.6653 54.3961C73.6552 54.7893 73.7278 55.1801 73.8783 55.5435C74.0288 55.9068 74.2539 56.2345 74.539 56.5054C74.8241 56.7763 75.1629 56.9844 75.5335 57.1161L80.4097 58.8506C82.9021 59.7369 82.9021 63.2608 80.4097 64.1518L75.5335 65.8817C75.1629 66.0134 74.8241 66.2214 74.539 66.4923C74.2539 66.7632 74.0288 67.0909 73.8783 67.4543C73.7278 67.8176 73.6552 68.2085 73.6653 68.6016C73.6753 68.9948 73.7677 69.3815 73.9366 69.7366L76.1585 74.411C77.294 76.7993 74.8015 79.2918 72.4132 78.1563L67.7389 75.9344C67.3837 75.7655 66.997 75.6731 66.6039 75.663C66.2107 75.653 65.8198 75.7256 65.4565 75.8761C65.0931 76.0266 64.7654 76.2517 64.4945 76.5368C64.2236 76.8219 64.0156 77.1607 63.8839 77.5313L62.1494 82.4074C61.263 84.8999 57.7391 84.8999 56.8482 82.4074L55.1136 77.5313C54.9819 77.1607 54.7739 76.8219 54.503 76.5368C54.2321 76.2517 53.9044 76.0266 53.541 75.8761C53.1777 75.7256 52.7868 75.653 52.3937 75.663C52.0005 75.6731 51.6138 75.7655 51.2587 75.9344L46.5843 78.1563C44.195 79.2918 41.7035 76.7993 42.8391 74.411L45.0609 69.7366C45.2298 69.3815 45.3222 68.9948 45.3323 68.6016C45.3423 68.2085 45.2697 67.8176 45.1192 67.4543C44.9687 67.0909 44.7436 66.7632 44.4585 66.4923C44.1734 66.2214 43.8346 66.0134 43.464 65.8817L38.5869 64.1471C36.0954 63.2608 36.0954 59.7369 38.5869 58.8459L43.464 57.1114C43.8346 56.9797 44.1734 56.7717 44.4585 56.5008C44.7436 56.2299 44.9687 55.9022 45.1192 55.5388C45.2697 55.1755 45.3423 54.7846 45.3323 54.3914C45.3222 53.9983 45.2298 53.6116 45.0609 53.2564L42.8391 48.5821C41.7118 46.1975 44.1997 43.7096 46.589 44.8415L51.2633 47.0633C51.6185 47.2322 52.0052 47.3247 52.3983 47.3347C52.7915 47.3447 53.1824 47.2722 53.5457 47.1217C53.909 46.9711 54.2367 46.7461 54.5076 46.4609C54.7785 46.1758 54.9866 45.837 55.1183 45.4665L56.8528 40.5894C57.7391 38.0978 61.263 38.0978 62.1494 40.5894Z" fill="#EAFAF6"/>
</g>
<g clip-path="url(#clip2_6862_18365)">
<path d="M42.2222 66.926C41 66.926 40 65.9261 40 64.7038V57.2964C40 56.0742 41 55.0742 42.2222 55.0742C43.4444 55.0742 44.4444 56.0742 44.4444 57.2964V64.7038C44.4445 65.9261 43.4444 66.926 42.2222 66.926Z" fill="#28A487"/>
<path d="M45.9258 69.1478C44.7036 69.1478 43.7036 68.1478 43.7036 66.9256V55.0738C43.7036 53.8515 44.7036 52.8516 45.9258 52.8516C47.148 52.8516 48.148 53.8515 48.148 55.0738V66.9256C48.148 68.1478 47.148 69.1478 45.9258 69.1478Z" fill="#FE5E02"/>
<path d="M77.7779 55.0742C79.0001 55.0742 80.0001 56.0742 80.0001 57.2964V64.7038C80.0001 65.9261 79.0001 66.926 77.7779 66.926C76.5556 66.926 75.5557 65.9261 75.5557 64.7038V57.2964C75.5556 56.0742 76.5556 55.0742 77.7779 55.0742Z" fill="#28A487"/>
<path d="M74.0733 52.8516C75.2955 52.8516 76.2955 53.8515 76.2955 55.0738V66.9256C76.2955 68.1478 75.2955 69.1478 74.0733 69.1478C72.8511 69.1478 71.8511 68.1478 71.8511 66.9256V55.0738C71.8511 53.8516 72.8511 52.8516 74.0733 52.8516Z" fill="#FE5E02"/>
<path d="M51.8516 64.7043H68.1479V57.2969H51.8516V64.7043Z" fill="#092A25"/>
<path d="M49.6294 71.3696C48.4072 71.3696 47.4072 70.3696 47.4072 69.1474V52.8511C47.4072 51.6289 48.4072 50.6289 49.6294 50.6289C50.8516 50.6289 51.8516 51.6289 51.8516 52.8511V69.1474C51.8516 70.3695 50.8516 71.3696 49.6294 71.3696Z" fill="#28A487"/>
<path d="M70.3701 50.6289C71.5924 50.6289 72.5924 51.6289 72.5924 52.8511V69.1474C72.5924 70.3696 71.5924 71.3696 70.3701 71.3696C69.1479 71.3696 68.1479 70.3696 68.1479 69.1474V52.8511C68.1479 51.6289 69.1479 50.6289 70.3701 50.6289Z" fill="#28A487"/>
<path d="M57.7779 58.0357C57.7779 57.6267 57.446 57.2949 57.0371 57.2949C56.6282 57.2949 56.2964 57.6267 56.2964 58.0357C56.2964 58.4446 56.6282 58.7764 57.0371 58.7764C57.446 58.7764 57.7779 58.4446 57.7779 58.0357Z" fill="white"/>
<path d="M60.7407 58.0357C60.7407 57.6267 60.4089 57.2949 60 57.2949C59.5911 57.2949 59.2593 57.6267 59.2593 58.0357C59.2593 58.4446 59.5911 58.7764 60 58.7764C60.4088 58.7764 60.7407 58.4446 60.7407 58.0357Z" fill="white"/>
<path d="M63.7036 58.0357C63.7036 57.6267 63.3718 57.2949 62.9629 57.2949C62.554 57.2949 62.2222 57.6267 62.2222 58.0357C62.2222 58.4446 62.554 58.7764 62.9629 58.7764C63.3718 58.7764 63.7036 58.4446 63.7036 58.0357Z" fill="white"/>
<path d="M59.2593 59.5181C59.2593 59.1092 58.9275 58.7773 58.5186 58.7773C58.1096 58.7773 57.7778 59.1092 57.7778 59.5181C57.7778 59.927 58.1096 60.2588 58.5186 60.2588C58.9275 60.2588 59.2593 59.927 59.2593 59.5181Z" fill="white"/>
<path d="M62.2222 59.5181C62.2222 59.1092 61.8903 58.7773 61.4815 58.7773C61.0726 58.7773 60.7407 59.1092 60.7407 59.5181C60.7407 59.927 61.0725 60.2588 61.4815 60.2588C61.8904 60.2588 62.2222 59.927 62.2222 59.5181Z" fill="white"/>
<path d="M57.7779 60.9985C57.7779 60.5896 57.446 60.2578 57.0371 60.2578C56.6282 60.2578 56.2964 60.5896 56.2964 60.9985C56.2964 61.4075 56.6282 61.7393 57.0371 61.7393C57.446 61.7394 57.7779 61.4075 57.7779 60.9985Z" fill="white"/>
<path d="M60.7407 60.9985C60.7407 60.5896 60.4089 60.2578 60 60.2578C59.5911 60.2578 59.2593 60.5896 59.2593 60.9985C59.2593 61.4075 59.5911 61.7393 60 61.7393C60.4088 61.7394 60.7407 61.4075 60.7407 60.9985Z" fill="white"/>
<path d="M63.7036 60.9985C63.7036 60.5896 63.3718 60.2578 62.9629 60.2578C62.554 60.2578 62.2222 60.5896 62.2222 60.9985C62.2222 61.4075 62.554 61.7393 62.9629 61.7393C63.3718 61.7393 63.7036 61.4075 63.7036 60.9985Z" fill="white"/>
<path d="M57.7779 63.9614C57.7779 63.5525 57.446 63.2207 57.0371 63.2207C56.6282 63.2207 56.2964 63.5525 56.2964 63.9614C56.2964 64.3704 56.6282 64.7022 57.0371 64.7022C57.446 64.7022 57.7779 64.3703 57.7779 63.9614Z" fill="white"/>
<path d="M60.7407 63.9614C60.7407 63.5525 60.4089 63.2207 60 63.2207C59.5911 63.2207 59.2593 63.5525 59.2593 63.9614C59.2593 64.3704 59.5911 64.7022 60 64.7022C60.4088 64.7022 60.7407 64.3703 60.7407 63.9614Z" fill="white"/>
<path d="M63.7036 63.9614C63.7036 63.5525 63.3718 63.2207 62.9629 63.2207C62.554 63.2207 62.2222 63.5525 62.2222 63.9614C62.2222 64.3704 62.554 64.7022 62.9629 64.7022C63.3718 64.7022 63.7036 64.3703 63.7036 63.9614Z" fill="white"/>
<path d="M59.2593 62.481C59.2593 62.072 58.9275 61.7402 58.5186 61.7402C58.1096 61.7402 57.7778 62.072 57.7778 62.481C57.7778 62.8899 58.1096 63.2217 58.5186 63.2217C58.9275 63.2217 59.2593 62.8898 59.2593 62.481Z" fill="white"/>
<path d="M62.2222 62.481C62.2222 62.072 61.8903 61.7402 61.4815 61.7402C61.0726 61.7402 60.7407 62.072 60.7407 62.481C60.7407 62.8899 61.0725 63.2217 61.4815 63.2217C61.8904 63.2217 62.2222 62.8898 62.2222 62.481Z" fill="white"/>
</g>
</g>
<rect x="20.5" y="21.5" width="79" height="79" rx="39.5" stroke="#84E1CB"/>
</g>
<defs>
<filter id="filter0_d_6862_18365" x="-5" y="0" width="130" height="130" filterUnits="userSpaceOnUse" color-interpolation-filters="sRGB">
<feFlood flood-opacity="0" result="BackgroundImageFix"/>
<feColorMatrix in="SourceAlpha" type="matrix" values="0 0 0 0 0 0 0 0 0 0 0 0 0 0 0 0 0 0 127 0" result="hardAlpha"/>
<feOffset dy="4"/>
<feGaussianBlur stdDeviation="12.5"/>
<feComposite in2="hardAlpha" operator="out"/>
<feColorMatrix type="matrix" values="0 0 0 0 0 0 0 0 0 0 0 0 0 0 0 0 0 0 0.02 0"/>
<feBlend mode="normal" in2="BackgroundImageFix" result="effect1_dropShadow_6862_18365"/>
<feBlend mode="normal" in="SourceGraphic" in2="effect1_dropShadow_6862_18365" result="shape"/>
</filter>
<clipPath id="clip0_6862_18365">
<rect x="20" y="21" width="80" height="80" rx="40" fill="white"/>
</clipPath>
<clipPath id="clip1_6862_18365">
<rect width="131" height="131" fill="white" transform="translate(-6 -4)"/>
</clipPath>
<clipPath id="clip2_6862_18365">
<rect width="40" height="40" fill="white" transform="translate(40 41)"/>
</clipPath>
</defs>
</svg>
