<svg width="18" height="18" viewBox="0 0 18 18" fill="none" xmlns="http://www.w3.org/2000/svg">
<path d="M16.6871 2.61991C15.7911 1.60801 14.5527 1.05078 13.2 1.05078C12.1374 1.05078 11.1434 1.48317 10.3254 2.30115C9.7797 2.84688 9.32941 3.54076 9.00004 4.33779C8.67059 3.54076 8.22038 2.84691 7.67468 2.30115C6.8567 1.48317 5.86266 1.05078 4.80006 1.05078C3.44735 1.05078 2.20897 1.60804 1.31298 2.61995C0.478547 3.56217 0 4.8491 0 6.15076C0 7.71373 0.472922 9.25629 1.40558 10.7358C2.14418 11.9073 3.17137 13.0415 4.45873 14.1069C6.64003 15.9121 8.78695 16.884 8.87727 16.9245C8.95472 16.9592 9.04528 16.9592 9.12269 16.9245C9.21305 16.884 11.3599 15.9121 13.5412 14.1069C14.8286 13.0415 15.8558 11.9073 16.5944 10.7358C17.5271 9.25629 18 7.71373 18 6.15076C18 4.8491 17.5215 3.56217 16.6871 2.61991Z" fill="#596173"/>
<path d="M5.65872 14.1068C4.37136 13.0415 3.34417 11.9073 2.60557 10.7357C1.67291 9.25625 1.19999 7.71366 1.19999 6.15072C1.19999 4.84906 1.67854 3.56213 2.5129 2.61987C3.26665 1.76864 4.2628 1.23925 5.36541 1.09258C5.17957 1.06495 4.99089 1.05078 4.80002 1.05078C3.44732 1.05078 2.20894 1.60804 1.31295 2.61995C0.478547 3.56213 0 4.84906 0 6.15072C0 7.7137 0.472922 9.25625 1.40558 10.7357C2.14418 11.9073 3.17138 13.0415 4.45873 14.1068C6.64003 15.912 8.78695 16.884 8.87727 16.9245C8.95472 16.9592 9.04528 16.9592 9.1227 16.9245C9.14692 16.9136 9.31908 16.8357 9.60001 16.6929C8.83315 16.3029 7.25523 15.4281 5.65872 14.1068Z" fill="#0A2922"/>
<path d="M3.00049 9.119H5.30724L6.67874 7.311L7.98799 10.6775L9.42199 6.75L10.7622 11.0515L12.2897 9.119H15.5005" stroke="white" stroke-width="0.8" stroke-linecap="round" stroke-linejoin="round"/>
</svg>
