<svg width="56" height="45" viewBox="0 0 56 45" fill="none" xmlns="http://www.w3.org/2000/svg">
<g id="MobileArtboard 22 1" clip-path="url(#clip0_6694_11288)">
<g id="Group">
<g id="Group_2">
<g id="Group_3">
<path id="Vector" d="M13.2029 21.0146C14.8549 20.4639 15.9812 19.5865 16.4771 19.1303C17.0361 18.6161 20.3883 15.4033 20.3883 15.4033L23.6127 14.5408L28.1111 13.4095C28.1111 13.4095 29.7449 12.7527 30.2342 12.0411C31.4881 10.2133 30.7019 8.93443 30.7019 8.93443L22.2957 9.37398L24.2397 8.21291L28.0298 6.37012L29.637 5.2671L30.7036 5.48273L34.137 5.52751L36.1291 5.37325L39.7069 5.05811H39.7102C39.8678 5.07801 44.8985 5.70167 46.806 6.74996C46.806 6.74996 46.4859 8.74203 43.8602 9.41711C41.2362 10.0922 34.9 8.24111 34.9 8.24111C34.9 8.24111 34.1984 8.57118 33.0556 8.84984C33.8965 9.1003 40.6872 11.172 44.4573 13.4991C44.4573 13.4991 44.0642 15.2158 42.1584 15.6338C41.1566 15.8544 39.7815 15.4116 35.8057 13.9138C34.5716 13.4494 33.5681 13.0712 32.7719 12.7693C31.6756 12.9169 29.3252 13.2321 28.1641 13.393L29.4927 13.4726C30.0003 13.5024 30.4946 13.6534 30.9325 13.9121L38.9107 18.6128C38.9107 18.6128 37.5788 21.2999 34.1238 20.0691C31.9808 19.3061 27.1772 16.5279 27.1772 16.5279L24.666 16.3736C24.666 16.3736 20.2854 19.4637 13.2045 21.0146H13.2029Z" fill="#7A2C00"/>
<path id="Vector_2" d="M43.3297 5.65723L43.2285 6.03375C43.0643 6.64248 43.4408 7.26448 44.0562 7.40215L45.3167 7.67584C45.5838 7.73389 45.8575 7.61447 45.9951 7.37893C46.2307 6.97587 46.3883 6.52471 46.3883 6.52471C46.3883 6.52471 44.5156 5.86124 43.3297 5.65723Z" fill="#62B8CC"/>
<path id="Vector_3" d="M44.0823 13.2542L43.7058 13.7418C43.5466 13.9475 43.2712 14.0221 43.0307 13.9243L41.7668 13.4068C41.3306 13.226 41.1631 12.6968 41.4152 12.2971L41.6109 11.9985L44.084 13.2542H44.0823Z" fill="#62B8CC"/>
<path id="Vector_4" d="M36.6533 17.2769L36.373 18.0531C36.2951 18.2704 36.3962 18.5292 36.5969 18.6237L37.6353 19.113C37.8326 19.2059 38.0682 19.1628 38.2141 19.0019C38.4248 18.7713 38.5691 18.4114 38.5691 18.4114L36.6517 17.2769H36.6533Z" fill="#BB41BF"/>
</g>
<g id="Group_4">
<path id="Vector_5" d="M33.3726 8.86816L31.2876 9.18995" stroke="#602200" stroke-width="0.497603" stroke-miterlimit="10" stroke-linecap="round"/>
<path id="Vector_6" d="M32.8236 12.4434C32.8236 12.4434 32.8054 11.1248 33.2184 10.2241" stroke="#491902" stroke-width="0.497603" stroke-miterlimit="10" stroke-linecap="round"/>
<path id="Vector_7" d="M34.8999 8.23949C34.8999 8.23949 34.2083 7.60588 34.5931 6.75" stroke="#491902" stroke-width="0.497603" stroke-miterlimit="10" stroke-linecap="round"/>
<path id="Vector_8" d="M37.6818 14.5015C37.6818 14.5015 36.8857 13.6092 37.934 12.395" stroke="#491902" stroke-width="0.497603" stroke-miterlimit="10" stroke-linecap="round"/>
<path id="Vector_9" d="M39.3289 9.28904C39.3289 9.28904 38.7799 8.52273 39.0353 7.95215" stroke="#491902" stroke-width="0.497603" stroke-miterlimit="10" stroke-linecap="round"/>
</g>
<g id="Clip path group">
<mask id="mask0_6694_11288" style="mask-type:luminance" maskUnits="userSpaceOnUse" x="13" y="5" width="34" height="17">
<g id="clippath">
<path id="Vector_10" d="M13.2029 21.0146C14.8549 20.4639 15.9812 19.5865 16.4771 19.1303C17.0361 18.6161 20.3883 15.4033 20.3883 15.4033L23.6127 14.5408L28.1111 13.4095C28.1111 13.4095 29.7449 12.7527 30.2342 12.0411C31.4881 10.2133 30.7019 8.93443 30.7019 8.93443L22.2957 9.37398L24.2397 8.21291L28.0298 6.37012L29.637 5.2671L30.7036 5.48273L34.137 5.52751L36.1291 5.37325L39.7069 5.05811H39.7102C39.8678 5.07801 44.8985 5.70167 46.806 6.74996C46.806 6.74996 46.4859 8.74203 43.8602 9.41711C41.2362 10.0922 34.9 8.24111 34.9 8.24111C34.9 8.24111 34.1984 8.57118 33.0556 8.84984C33.8965 9.1003 40.6872 11.172 44.4573 13.4991C44.4573 13.4991 44.0642 15.2158 42.1584 15.6338C41.1566 15.8544 39.7815 15.4116 35.8057 13.9138C34.5716 13.4494 33.5681 13.0712 32.7719 12.7693C31.6756 12.9169 29.3252 13.2321 28.1641 13.393L29.4927 13.4726C30.0003 13.5024 30.4946 13.6534 30.9325 13.9121L38.9107 18.6128C38.9107 18.6128 37.5788 21.2999 34.1238 20.0691C31.9808 19.3061 27.1772 16.5279 27.1772 16.5279L24.666 16.3736C24.666 16.3736 20.2854 19.4637 13.2045 21.0146H13.2029Z" fill="white"/>
</g>
</mask>
<g mask="url(#mask0_6694_11288)">
<g id="Group_5">
<path id="Vector_11" d="M44.6348 27.8145C37.9288 35.456 23.3689 31.6062 23.3689 31.6062L21.5444 30.3423C21.5444 30.3423 21.5095 30.2892 21.4482 30.1897C21.4482 30.188 21.4449 30.1847 21.4432 30.1831C21.1546 29.717 20.2937 28.264 19.486 26.2686C19.418 26.1027 19.3516 25.9319 19.2853 25.7594C19.0166 25.0577 18.7611 24.2997 18.5405 23.5002L18.1723 21.6624L17.955 20.5777C17.9301 20.372 17.9086 20.1646 17.892 19.9573C17.6365 16.9269 18.2071 13.7024 20.5873 10.9922C23.4286 7.75277 28.3864 6.98646 31.7038 9.25885C31.7237 9.27212 31.7419 9.28539 31.7618 9.29866C31.7635 9.29866 31.7651 9.30197 31.7685 9.30363C31.7701 9.30363 31.7718 9.30695 31.7751 9.30861L33.588 10.5642C35.2268 11.712 36.1457 13.3972 36.3116 15.2002C38.307 14.9183 40.3521 15.313 41.9876 16.4575C41.9909 16.4592 41.9942 16.4625 41.9975 16.4641C42.0058 16.4708 42.0158 16.4774 42.0241 16.4824C42.2811 16.6599 43.6545 17.6103 43.8121 17.7214C44.0194 17.8674 44.2168 18.0216 44.4026 18.1842H44.4059C47.1626 20.6075 47.3185 24.7642 44.6414 27.8178L44.6348 27.8145Z" fill="#112130"/>
</g>
</g>
</g>
<path id="Vector_12" d="M21.9093 38.3007C21.1861 37.5477 20.6023 36.7283 20.1279 35.8923C19.9189 35.5241 19.7315 35.1509 19.5639 34.781C18.9137 34.4111 17.4773 33.6183 15.9182 32.9216C14.3656 32.2266 12.6887 31.6229 11.5442 31.6229C8.83395 31.6229 8.02783 33.4723 8.02783 33.4723C8.13399 33.5718 8.25507 33.673 8.38611 33.7758C8.47899 33.8472 8.57685 33.9201 8.68135 33.9931C8.68135 33.9931 8.68135 33.9931 8.68301 33.9931C9.04294 34.2469 9.46259 34.5023 9.90877 34.7511C9.91872 34.7561 9.92702 34.7628 9.93697 34.7677C10.3218 34.9817 10.7232 35.1907 11.1246 35.3897C12.7783 36.2075 14.3938 36.8444 14.4784 36.8776H14.4817L18.0247 37.4647L19.9902 37.8114C19.9902 37.8114 19.9935 37.8114 19.9952 37.8114C19.9968 37.8114 19.9985 37.8114 20.0002 37.8114H20.0035L21.9441 38.3389C21.9325 38.3256 21.9192 38.314 21.9076 38.3007H21.9093ZM44.1024 28.0186C40.3969 27.8875 37.2753 28.3221 35.1157 28.7783C33.384 29.1432 32.2677 29.5197 31.9592 29.6292C31.9476 29.6341 31.936 29.6374 31.9227 29.6424C31.8896 29.654 31.8713 29.6607 31.8713 29.6607L29.6653 28.9474L29.4778 28.8861C29.4778 28.8861 29.3767 28.7865 29.1975 28.6124C28.2604 27.7051 25.215 24.7941 23.6327 23.7276C23.5049 23.6413 23.3772 23.5617 23.2528 23.4904C21.5179 22.4902 20.1693 22.8933 19.3881 23.3511C18.8988 23.638 18.6334 23.9465 18.6334 23.9465L18.9104 24.2235L19.476 24.7858L20.4878 25.7943L25.1902 30.4834C25.5501 30.8433 25.9913 31.112 26.4756 31.2663L27.7429 31.6726C26.5785 31.5383 24.2232 31.2596 23.1251 31.1286C22.4285 30.6393 21.551 30.0223 20.4712 29.2642C20.4596 29.2559 20.448 29.2477 20.4364 29.241C19.4279 28.5328 18.6102 27.9672 17.9318 27.5177C16.2897 26.4329 15.4687 26.0414 14.7455 26.0166C12.7932 25.9485 11.9871 27.5127 11.9871 27.5127C12.0883 27.6188 12.1944 27.725 12.3022 27.8311C12.3785 27.9058 12.4548 27.9821 12.5345 28.0567C13.0453 28.546 13.6126 29.0403 14.2097 29.5296L14.213 29.5329C14.2678 29.5777 14.3225 29.6225 14.3772 29.6673C15.8601 30.8698 17.5039 32.0259 18.8789 32.9448C18.5438 31.8551 18.3564 30.8416 18.2519 30.0322C18.106 28.901 18.1209 28.1645 18.1209 28.1645L18.1623 28.2674L18.6815 29.5462L19.5606 31.7124C20.0068 32.6363 20.4812 33.4988 20.9522 34.2867C21.2972 34.5023 21.566 34.6682 21.7368 34.771C21.7915 34.8042 21.8363 34.8324 21.8711 34.8523C21.6688 34.849 21.478 34.8523 21.3006 34.8573C22.6905 37.0849 23.9943 38.6258 24.4255 39.1151C24.3509 39.1466 24.3061 39.1665 24.2945 39.1732L24.4321 39.1234L24.8004 38.9891L25.8453 38.6076L26.1223 38.5064L26.3081 38.4682L30.2524 37.6654L32.4253 37.0252L32.4037 37.0202C32.4037 37.0202 32.4004 37.0202 32.3988 37.0202L29.6354 36.4612L25.6629 35.6584L25.5999 35.6452L24.7987 35.4843L24.18 35.3599H24.1734C24.1734 35.3599 23.7305 33.9235 25.3992 32.4655C26.0494 31.8982 27.7959 31.6677 27.7959 31.6677L28.6833 31.6726H28.6867L32.4336 31.6925L35.7725 31.6594C35.7725 31.6594 35.7742 31.6594 35.7758 31.6577C35.7858 31.6527 35.8107 31.6378 35.8505 31.6162C35.8588 31.6096 35.8687 31.6046 35.8787 31.5997C35.8836 31.598 35.887 31.5947 35.8919 31.593C35.8969 31.5897 35.9002 31.588 35.9052 31.5847C35.9168 31.5781 35.9301 31.5698 35.945 31.5615C35.9583 31.5549 35.9716 31.5466 35.9848 31.5383C36.0163 31.52 36.0528 31.5001 36.091 31.4786C36.1009 31.4736 36.1092 31.4686 36.1192 31.462C36.2071 31.4122 36.3099 31.3542 36.4244 31.2895C36.4443 31.2779 36.4658 31.2663 36.4874 31.2547C36.6267 31.1767 36.7827 31.0888 36.9469 30.9959C36.9767 30.9793 37.0082 30.9611 37.0381 30.9445C37.0845 30.9179 37.131 30.8931 37.1791 30.8649C37.2106 30.8466 37.2438 30.8284 37.2753 30.8101C37.2968 30.7985 37.3167 30.7869 37.34 30.7736C37.3831 30.7504 37.4262 30.7255 37.4693 30.7007C37.4909 30.689 37.5125 30.6758 37.5357 30.6642C37.5655 30.6476 37.5937 30.631 37.6236 30.6161C37.7745 30.5315 37.9288 30.4436 38.0847 30.3573C38.1179 30.3391 38.1511 30.3208 38.1826 30.3026C38.2705 30.2528 38.3584 30.2047 38.4463 30.155C38.4662 30.1433 38.4878 30.1317 38.5077 30.1218C38.5906 30.0753 38.6735 30.0289 38.7548 29.9825C38.788 29.9642 38.8195 29.946 38.8527 29.9277C38.8693 29.9178 38.8859 29.9095 38.9024 29.8995C38.9356 29.8813 38.9688 29.863 39.0003 29.8448C39.0816 29.8 39.1612 29.7552 39.2392 29.7104C39.2541 29.7021 39.2707 29.6938 39.2856 29.6839C39.3005 29.6756 39.3171 29.6673 39.332 29.6573C39.3586 29.6424 39.3851 29.6275 39.4117 29.6126C39.473 29.5777 39.5344 29.5446 39.5925 29.5114C39.5941 29.5114 39.5958 29.5097 39.5991 29.5081C39.6273 29.4915 39.6555 29.4766 39.6837 29.4616C39.6969 29.4533 39.7102 29.4467 39.7251 29.4384C39.7981 29.3969 39.8678 29.3588 39.9341 29.3223C39.9491 29.314 39.9623 29.3057 39.9773 29.2991C40.173 29.1913 40.3306 29.1034 40.4367 29.047C40.4467 29.042 40.455 29.037 40.4649 29.032C40.4732 29.0271 40.4815 29.0237 40.4898 29.0188C41.0836 28.7003 42.394 28.1297 44.1306 28.0086C44.1223 28.0086 44.114 28.0086 44.1074 28.0086L44.1024 28.0186Z" fill="#7A2C00"/>
<path id="Vector_13" d="M11.1245 35.3917L11.3169 35.0517C11.6271 34.5027 11.4164 33.806 10.8558 33.5208L9.70302 32.9419C9.45919 32.8191 9.16395 32.8656 8.9732 33.0596C8.64478 33.3914 8.37939 33.7895 8.37939 33.7895C8.37939 33.7895 10.0281 34.8975 11.1262 35.3917H11.1245Z" fill="#62B8CC"/>
<path id="Vector_14" d="M12.2875 27.8492L12.7735 27.4694C12.9792 27.3102 13.2645 27.3069 13.4735 27.4611L14.5682 28.2772C14.9447 28.5608 14.9763 29.1148 14.6329 29.4399L14.3692 29.6804L12.2859 27.8492H12.2875Z" fill="#62B8CC"/>
<path id="Vector_15" d="M20.483 25.802L20.9474 25.1203C21.0768 24.9295 21.0437 24.6525 20.8712 24.5115L19.9887 23.7784C19.8212 23.6391 19.5824 23.6225 19.3999 23.7419C19.1395 23.9128 18.9089 24.2262 18.9089 24.2262L20.483 25.802Z" fill="#BB41BF"/>
<path id="Vector_16" d="M21.5676 34.7622L23.6675 34.9695" stroke="#112130" stroke-width="0.610393" stroke-miterlimit="10" stroke-linecap="round"/>
<path id="Vector_17" d="M32.6494 29.3994C32.6494 29.3994 31.3822 29.7394 30.3887 30.4112" stroke="#112130" stroke-width="0.610393" stroke-miterlimit="10" stroke-linecap="round"/>
<path id="Vector_18" d="M22.989 31.436C22.989 31.436 22.6772 32.7182 22.0552 33.4862" stroke="#112130" stroke-width="0.610393" stroke-miterlimit="10" stroke-linecap="round"/>
<path id="Vector_19" d="M29.2888 29.1108C29.2888 29.1108 28.355 30.5207 26.688 30.8508" stroke="#112130" stroke-width="0.610393" stroke-miterlimit="10" stroke-linecap="round"/>
<path id="Vector_20" d="M24.6563 24.6812C24.6563 24.6812 25.0959 25.2667 23.4836 26.1093" stroke="#112130" stroke-width="0.610393" stroke-miterlimit="10" stroke-linecap="round"/>
<path id="Vector_21" d="M18.796 28.231C18.796 28.231 19.1162 28.8513 18.6799 29.5529" stroke="#112130" stroke-width="0.610393" stroke-miterlimit="10" stroke-linecap="round"/>
<path id="Vector_22" d="M48.6027 29.0943C43.4459 40.6238 26.8591 40.3003 26.8591 40.3003L24.5735 39.2902L25.2834 38.3597C22.3791 34.4718 16.8175 25.3407 20.732 16.5879C22.52 12.5888 26.262 10.2103 29.8332 10.4674L29.8763 10.0278L32.2333 11.0695C34.9419 12.2853 36.5591 15.0437 36.7515 18.1753C38.3753 16.8931 40.2928 16.1848 42.187 16.1998L42.7609 15.8083C42.7609 15.8083 44.8326 16.7239 45.0515 16.8218C45.3119 16.9395 45.564 17.0706 45.8046 17.2149H45.8079C49.3939 19.3778 50.6578 24.4865 48.5978 29.091L48.6027 29.0943Z" fill="#CE2521"/>
<path id="Vector_23" d="M47.2873 22.8998L17.5058 25.8207C16.834 22.5813 16.8954 19.05 18.4479 15.5784C20.6324 10.6919 25.7328 8.22379 29.8778 10.0284C29.9027 10.0384 29.9259 10.05 29.9508 10.0599C29.9541 10.0599 29.9558 10.0633 29.9591 10.0633C29.9608 10.0633 29.9641 10.0666 29.9657 10.0666C32.6661 11.2857 34.2766 14.0391 34.4691 17.1657C35.0678 16.693 35.7064 16.2982 36.3699 15.9897C38.43 15.0293 40.7206 14.8933 42.7707 15.8122C42.774 15.8139 42.779 15.8156 42.7823 15.8172C42.7939 15.8222 42.8056 15.8272 42.8172 15.8321C45.4943 17.0562 47.0949 19.7914 47.2873 22.8981V22.8998Z" fill="#DB4642"/>
<path id="Vector_24" d="M46.3465 28.0172C46.3366 28.0388 46.3283 28.062 46.3183 28.0836C46.3084 28.1068 46.2968 28.1317 46.2868 28.1549C44.0194 33.1575 39.5924 35.9142 35.3246 37.4319C29.8444 39.3825 24.6262 39.2896 24.5781 39.2896C24.5781 39.2896 24.5648 39.2763 24.5416 39.2498C24.5167 39.2232 24.4819 39.1834 24.4354 39.1304C24.4338 39.127 24.4321 39.1254 24.4288 39.1237C23.9975 38.6344 22.6938 37.0935 21.3038 34.8659C21.1877 34.6801 21.0716 34.4894 20.9555 34.2953C20.4845 33.5074 20.0101 32.6449 19.5639 31.721L18.6848 29.5548L18.1656 28.276C18.0843 28.0288 18.0081 27.7784 17.9334 27.5246C17.7709 26.9673 17.6282 26.4 17.5088 25.8228L47.2903 22.9019C47.3932 24.5589 47.0963 26.322 46.3499 28.0189L46.3465 28.0172Z" fill="#F65E53"/>
<g id="Group_6">
<path id="Vector_25" d="M23.6193 12.3073C23.4136 14.3574 21.5841 15.8535 19.534 15.6478C19.1807 15.613 18.8423 15.5284 18.5288 15.404C19.6036 13.1018 21.332 11.3552 23.2925 10.3633C23.5662 10.9505 23.689 11.6156 23.6209 12.3073H23.6193Z" fill="#FF908D"/>
<path id="Vector_26" d="M33.0989 38.1228C33.9 37.9072 34.7211 37.6518 35.5487 37.3499C34.6365 37.3068 33.7773 37.5987 33.0989 38.1228Z" fill="#FF908D"/>
<path id="Vector_27" d="M30.4414 35.9861C30.6471 33.9359 29.1509 32.1064 27.1008 31.9007C25.0507 31.6951 23.2212 33.1912 23.0155 35.2413C22.8247 37.1438 24.097 38.8539 25.9198 39.257C26.5087 39.2271 27.265 39.1707 28.1425 39.0679C29.3765 38.5603 30.2987 37.4075 30.4414 35.9861Z" fill="#FF908D"/>
<path id="Vector_28" d="M21.7931 30.5181C21.9988 28.468 20.5026 26.6385 18.4525 26.4328C18.1772 26.4046 17.9068 26.4079 17.6431 26.4394C18.2336 28.9175 19.2354 31.2081 20.2953 33.1488C21.113 32.545 21.6836 31.6112 21.7931 30.5181Z" fill="#FF908D"/>
<path id="Vector_29" d="M46.2273 24.6219C44.1771 24.4163 42.3476 25.9124 42.1419 27.9625C41.986 29.5167 42.8087 30.9448 44.1091 31.6332C44.97 30.5965 45.7214 29.4205 46.3185 28.0852C46.7929 27.0254 47.0898 25.9373 47.2241 24.8658C46.9123 24.7414 46.5789 24.6584 46.2273 24.6236V24.6219Z" fill="#FF908D"/>
<path id="Vector_30" d="M22.7072 21.4135C22.5015 23.4636 20.672 24.9598 18.6219 24.7541C18.1293 24.7043 17.6682 24.5617 17.2552 24.3444C16.9665 22.1433 17.0528 19.8378 17.7295 17.5305C18.2371 17.3464 18.7927 17.2718 19.3667 17.3298C21.4168 17.5355 22.9129 19.365 22.7072 21.4152V21.4135Z" fill="#F65E53"/>
<path id="Vector_31" d="M40.9175 23.2409C40.9076 23.3388 40.8943 23.435 40.8777 23.5312L33.7305 24.2312C33.5198 23.6971 33.4303 23.1066 33.4916 22.4962C33.6973 20.4461 35.5268 18.9499 37.577 19.1556C39.6271 19.3613 41.1232 21.1908 40.9175 23.2409Z" fill="#F65E53"/>
<path id="Vector_32" d="M40.878 23.5298C40.5379 25.429 38.7847 26.7758 36.8324 26.5801C35.3927 26.4358 34.2267 25.4903 33.7307 24.2297L40.878 23.5298Z" fill="#FF908D"/>
<path id="Vector_33" d="M47.2852 22.9008L46.698 22.9589C46.5985 22.9572 46.4973 22.9506 46.3961 22.9406C44.346 22.735 42.8498 20.9054 43.0555 18.8553C43.1434 17.9712 43.5349 17.1917 44.1138 16.6045C46.008 18.021 47.1276 20.3332 47.2868 22.9008H47.2852Z" fill="#F65E53"/>
<path id="Vector_34" d="M47.2868 22.9229C47.0944 22.9511 46.897 22.9627 46.698 22.9594L47.2852 22.9014C47.2852 22.9014 47.2852 22.9163 47.2852 22.9229H47.2868Z" fill="#F65E53"/>
<path id="Vector_35" d="M36.6648 28.2596C34.6146 28.054 32.7851 29.5501 32.5795 31.6002C32.3738 33.6503 33.8699 35.4798 35.92 35.6855C37.9702 35.8912 39.7997 34.3951 40.0053 32.3449C40.211 30.2948 38.7149 28.4653 36.6648 28.2596Z" fill="#FF908D"/>
<path id="Vector_36" d="M41.4835 15.3811C40.8217 16.7562 39.3521 17.6369 37.7465 17.476C36.8757 17.3881 36.1044 17.0083 35.5222 16.4427C37.3783 15.333 39.4947 14.9167 41.4835 15.3811Z" fill="#F65E53"/>
<path id="Vector_37" d="M30.8 24.5178L24.1587 25.1697C24.7459 23.6371 26.3034 22.6219 28.0151 22.7944C29.2044 22.9139 30.2079 23.579 30.8 24.5178Z" fill="#F65E53"/>
<path id="Vector_38" d="M31.3554 26.8805C31.1498 28.9306 29.3202 30.4268 27.2701 30.2211C25.22 30.0154 23.7239 28.1859 23.9295 26.1358C23.9627 25.7974 24.0423 25.474 24.1584 25.1704L30.7998 24.5186C31.2277 25.197 31.4417 26.0197 31.3554 26.8805Z" fill="#FF908D"/>
<path id="Vector_39" d="M31.7651 11.2368C31.0353 11.8057 30.0931 12.1076 29.0979 12.0064C27.6035 11.8571 26.4059 10.8453 25.9431 9.51509C27.2966 9.32268 28.67 9.48523 29.9505 10.0608C30.6239 10.3627 31.231 10.7608 31.7651 11.2368Z" fill="#FF908D"/>
<path id="Vector_40" d="M32.2693 17.7737C32.0636 19.8238 30.2341 21.3199 28.1839 21.1142C26.1338 20.9086 24.6377 19.079 24.8434 17.0289C25.049 14.9788 26.8786 13.4827 28.9287 13.6883C30.9788 13.894 32.4749 15.7235 32.2693 17.7737Z" fill="#F65E53"/>
</g>
<path id="Vector_41" d="M38.6917 28.7325L33.9512 26.6193C33.7306 26.5214 33.5764 26.3108 33.5482 26.0719L33.4337 25.085C33.4337 25.085 33.4304 25.0518 33.3989 25.0402C33.3674 25.0286 33.3491 25.0469 33.3442 25.0518L30.828 27.4503C30.6107 27.6576 30.2972 27.7008 30.0318 27.5598C29.7664 27.4188 29.6271 27.1351 29.6785 26.8382L30.6986 20.8653C30.7002 20.8537 30.7052 20.8272 30.6704 20.809C30.6355 20.7907 30.6173 20.809 30.609 20.8172L27.849 23.4363C27.6466 23.6287 27.3514 23.6785 27.0976 23.5657L23.135 21.7992L23.3921 21.222L27.3547 22.9885C27.3746 22.9967 27.3978 22.9934 27.4127 22.9785L30.1728 20.3595C30.3901 20.1521 30.7036 20.1106 30.9689 20.2516C31.2343 20.3926 31.372 20.6763 31.3222 20.9732L30.3022 26.9461C30.3005 26.9577 30.2955 26.9842 30.3304 27.0024C30.3652 27.0207 30.3834 27.0025 30.3917 26.9942L32.9079 24.5957C33.097 24.4149 33.369 24.3585 33.6145 24.4464C33.8617 24.536 34.0325 24.7516 34.0624 25.012L34.1768 25.999C34.1785 26.0172 34.1917 26.0338 34.2083 26.0421L38.9488 28.1552L38.6917 28.7325Z" fill="white"/>
<path id="Vector_42" d="M55.1741 34.447C55.1741 38.1575 45.8972 43.7008 40.4036 43.7008C36.1756 43.7008 31.1233 44.3012 29.0201 44.5765C28.3268 44.6678 27.6235 44.6412 26.9385 44.5019C25.5021 44.2083 22.8548 43.6095 20.2855 42.7487C18.252 42.067 15.4687 41.2044 13.329 40.5542C12.0104 40.1528 10.9356 39.8311 10.4313 39.6801C10.2306 39.6204 10.1195 39.5872 10.1195 39.5872C10.1195 39.5872 9.99012 36.877 13.543 36.877H14.4851L18.0281 37.4625L19.9936 37.8091C19.9936 37.8091 19.9969 37.8091 19.9986 37.8091C19.9986 37.8091 20.0002 37.8091 20.0019 37.8091H20.0035H20.0069L21.9475 38.3349L22.2826 38.4262L22.606 38.5141C23.1982 38.7098 23.7621 38.9271 24.263 39.1659C24.2713 39.1709 24.2796 39.1742 24.2896 39.1775C24.2896 39.1775 24.2896 39.1775 24.2912 39.1775L24.4289 39.1278L24.7971 38.9934L25.8421 38.6119L26.1191 38.5108L26.3049 38.4726L30.2492 37.6698L32.4221 37.0296L32.4005 37.0246C32.4005 37.0246 32.3972 37.0246 32.3955 37.0246L30.1961 36.5801L29.8163 36.5038L29.6322 36.4673L25.6596 35.6645L25.5966 35.6512L24.7955 35.4903L24.1768 35.3659H24.1701C24.1701 35.3659 23.7273 33.9295 25.3959 32.4715C26.0461 31.9042 27.7927 31.6737 27.7927 31.6737L28.6801 31.6787H28.6834L32.4304 31.6986L35.7693 31.6654C35.7693 31.6654 35.7709 31.6654 35.7726 31.6637C35.7825 31.6588 35.8074 31.6438 35.8472 31.6223C35.8472 31.6223 35.8472 31.6223 35.8489 31.6223C35.8572 31.6173 35.8671 31.6123 35.8771 31.6057C35.8821 31.604 35.8854 31.6007 35.8904 31.599C35.8953 31.5957 35.8986 31.5941 35.9036 31.5908C35.9152 31.5841 35.9302 31.5758 35.9434 31.5675C35.9567 31.5609 35.97 31.5526 35.9832 31.5443C36.0148 31.5261 36.0512 31.5062 36.0894 31.4846C36.0993 31.4796 36.1076 31.4746 36.1176 31.468C36.2055 31.4183 36.3083 31.3602 36.4228 31.2955C36.4427 31.2839 36.4643 31.2723 36.4858 31.2607C36.6252 31.1827 36.7811 31.0948 36.9453 31.0019C36.9751 30.9853 37.0066 30.9671 37.0365 30.9505C37.0829 30.924 37.1294 30.8991 37.1775 30.8709C37.209 30.8526 37.2422 30.8344 37.2737 30.8162C37.2953 30.8045 37.3152 30.7929 37.3384 30.7797C37.3815 30.7564 37.4246 30.7316 37.4678 30.7067C37.4893 30.6951 37.5109 30.6818 37.5341 30.6702C37.564 30.6536 37.5922 30.637 37.622 30.6221C37.773 30.5375 37.9272 30.4496 38.0831 30.3633C38.1163 30.3451 38.1495 30.3268 38.181 30.3086C38.2689 30.2588 38.3568 30.2107 38.4447 30.161C38.4646 30.1494 38.4862 30.1378 38.5061 30.1278C38.589 30.0814 38.672 30.0349 38.7532 29.9885C38.7864 29.9702 38.8179 29.952 38.8511 29.9337C38.8677 29.9238 38.8843 29.9155 38.9009 29.9055C38.934 29.8873 38.9672 29.869 38.9987 29.8508C39.08 29.806 39.1596 29.7612 39.2376 29.7164C39.2525 29.7082 39.2691 29.6999 39.284 29.6899C39.2989 29.6816 39.3155 29.6733 39.3305 29.6634C39.357 29.6484 39.3835 29.6335 39.4101 29.6186C39.4714 29.5838 39.5328 29.5506 39.5909 29.5174C39.5925 29.5174 39.5942 29.5157 39.5975 29.5141C39.6257 29.4992 39.6539 29.4826 39.6821 29.4676C39.6954 29.4594 39.7086 29.4527 39.7236 29.4444C39.7965 29.403 39.8662 29.3648 39.9326 29.3283C39.9475 29.32 39.9607 29.3117 39.9757 29.3051C40.1714 29.1973 40.329 29.1094 40.4351 29.053C40.4451 29.048 40.4534 29.043 40.4633 29.0381C40.4716 29.0331 40.4799 29.0298 40.4882 29.0248C41.082 28.7063 42.3924 28.1357 44.129 28.0146C44.4939 28.0263 44.8638 28.0462 45.2403 28.0694C45.6019 28.0926 45.9502 28.1208 46.2886 28.1507C47.234 28.2369 48.0866 28.3497 48.8546 28.489C49.7088 28.6449 50.4569 28.834 51.1104 29.058C51.1154 29.0596 51.1203 29.0613 51.1253 29.0629C51.7307 29.2703 52.2549 29.5075 52.706 29.7712C52.706 29.7712 52.7077 29.7712 52.7093 29.7728C54.5521 30.856 55.1774 32.4151 55.1774 34.442L55.1741 34.447Z" fill="#A44303"/>
<g id="Group_7">
<path id="Vector_43" d="M10.4977 39.3534L10.4297 39.6852L13.3224 40.5726C13.3224 40.5726 13.616 39.7847 12.435 39.4828C11.7384 39.3053 11.2142 39.1743 10.9008 39.098C10.7183 39.0532 10.5358 39.1693 10.4977 39.3534Z" fill="#9CE8FF"/>
<path id="Vector_44" d="M24.8564 34.7438C24.8913 34.4519 25.1567 34.2445 25.4469 34.281L27.5584 34.553C28.3612 34.6526 28.9633 35.3343 28.9633 36.1437V36.3262L24.7951 35.4935C24.7835 35.4355 24.8083 35.1369 24.8548 34.7438H24.8564Z" fill="#9CE8FF"/>
</g>
<path id="Vector_45" d="M20.9507 34.295C20.808 34.2055 20.6505 34.1059 20.4829 33.9998C20.0218 33.7062 19.4745 33.3512 18.8773 32.9532C18.5423 31.8634 18.3549 30.85 18.2504 30.0405C18.1044 28.9093 18.1193 28.1729 18.1193 28.1729L18.1608 28.2757L18.68 29.5545L19.5591 31.7208C20.0052 32.6446 20.4796 33.5072 20.9507 34.295Z" fill="#112130"/>
<path id="Vector_46" d="M24.4237 39.1217C24.3491 39.1532 24.3043 39.1731 24.2927 39.1798C24.2927 39.1798 24.2927 39.1798 24.2911 39.1798C24.2828 39.1748 24.2745 39.1715 24.2645 39.1682C23.7636 38.9293 23.2013 38.712 22.6075 38.5163L22.2841 38.4284L21.949 38.3372C21.9374 38.3239 21.9241 38.3123 21.9125 38.299C21.1893 37.546 20.6055 36.7266 20.1311 35.8906C19.9221 35.5224 19.7347 35.1492 19.5671 34.7793C19.801 34.912 19.9337 34.9916 19.9337 34.9916C19.9337 34.9916 20.2721 34.9269 20.846 34.8888C20.9853 34.8788 21.1379 34.8722 21.3021 34.8672C22.1547 36.2323 22.9741 37.3386 23.5795 38.1049C23.6027 38.1348 23.6276 38.1663 23.6508 38.1945C23.9991 38.6307 24.2711 38.9476 24.4271 39.125L24.4237 39.1217Z" fill="#112130"/>
<path id="Vector_47" d="M32.4238 37.0319L30.2509 37.6721L26.3066 38.4749L26.1208 38.5131L25.8438 38.6142L24.7989 38.9957L24.4306 39.1301L24.293 39.1798C24.3046 39.1749 24.3494 39.155 24.424 39.1218C24.2681 38.9443 23.9961 38.6275 23.6477 38.1913C23.6245 38.1614 23.6013 38.1316 23.5764 38.1017C25.1273 37.347 27.9885 36.798 29.8164 36.5044L30.1962 36.5807L32.3956 37.0252C32.3956 37.0252 32.3989 37.0252 32.4006 37.0252L32.4221 37.0302L32.4238 37.0319Z" fill="#112130"/>
<path id="Vector_48" d="M17.0112 28.2383L16.5435 28.6314" stroke="#7A2C00" stroke-width="0.0547363" stroke-miterlimit="10"/>
<g id="Clip path group_2">
<mask id="mask1_6694_11288" style="mask-type:luminance" maskUnits="userSpaceOnUse" x="17" y="9" width="33" height="32">
<g id="clippath-2">
<path id="Vector_49" d="M48.6025 29.0949C43.4456 40.6244 26.8605 40.3009 26.8605 40.3009L24.5749 39.2908C24.5749 39.2908 24.5235 39.2361 24.4306 39.1299C24.4289 39.1283 24.4272 39.1249 24.4239 39.1233C23.9927 38.634 22.689 37.0931 21.299 34.8655C21.1829 34.6797 21.0668 34.4889 20.9507 34.2949C20.4796 33.507 20.0052 32.6445 19.559 31.7206L18.6799 29.5544L18.1608 28.2755C18.0795 28.0284 18.0032 27.7779 17.9286 27.5242C16.857 23.8419 16.6165 19.6703 18.4461 15.5784C20.6305 10.6919 25.731 8.22379 29.876 10.0284C29.9009 10.0384 29.9241 10.05 29.949 10.0599C29.9506 10.0599 29.954 10.0616 29.9573 10.0633C29.9589 10.0633 29.9623 10.0649 29.9656 10.0666L32.2363 11.0701C34.2914 11.9923 35.7179 13.8019 36.3697 15.9881C38.4298 15.0277 40.7204 14.8917 42.7706 15.8106C42.7755 15.8122 42.7788 15.8139 42.7822 15.8156C42.7905 15.8189 42.7988 15.8238 42.807 15.8272C42.8104 15.8272 42.812 15.8288 42.8153 15.8305C42.817 15.8305 42.8187 15.8305 42.8203 15.8321C42.8203 15.8321 42.822 15.8321 42.8236 15.8321C43.1653 15.9831 44.8572 16.7311 45.0546 16.8191C45.315 16.9368 45.5671 17.0679 45.8076 17.2122H45.8109C49.397 19.3751 50.6609 24.4838 48.6008 29.0883L48.6025 29.0949Z" fill="white"/>
</g>
</mask>
<g mask="url(#mask1_6694_11288)">
<g id="Group_8">
<path id="Vector_50" d="M1.0715 18.7115C0.147618 15.1188 7.75265 7.44083 13.0737 6.07242C17.169 5.01916 21.9128 3.18134 23.88 2.39016C24.5285 2.12974 25.2152 1.9788 25.9152 1.94563C27.3798 1.87265 30.0917 1.79303 32.7954 1.9871C36.7762 2.27405 43.4308 2.51787 43.4308 2.51787C43.4308 2.51787 44.2303 5.11039 40.7885 5.99446C40.3241 6.11388 39.8762 6.22833 39.8762 6.22833L36.2985 6.54348L34.3064 6.69774L30.8729 6.65295L29.8064 6.43733L28.1992 7.54035L24.4091 9.38314L22.4651 10.5442L30.8713 10.1047C30.8713 10.1047 31.6575 11.3835 30.4035 13.2114C29.9142 13.9229 28.2804 14.5798 28.2804 14.5798L23.7821 15.711L20.5576 16.5735C20.5576 16.5735 17.2054 19.788 16.6465 20.3005C16.1505 20.7567 15.0243 21.6341 13.3722 22.1848C13.0156 22.2644 12.6524 22.3374 12.2825 22.4071C4.56467 23.8617 1.99704 22.3026 1.07316 18.7082L1.0715 18.7115Z" fill="#7C1515"/>
</g>
</g>
</g>
<g id="Group_9">
<path id="Vector_51" d="M0.901818 17.5382C-0.0204059 13.9455 7.58297 6.26749 12.904 4.89908C16.9993 3.84582 21.7431 2.008 23.7103 1.21682C24.3588 0.956404 25.0455 0.805464 25.7455 0.772291C27.2101 0.699309 29.922 0.619693 32.6257 0.813758C36.6065 1.10071 43.2611 1.34453 43.2611 1.34453C43.2611 1.34453 44.0606 3.93705 40.6188 4.82112L39.7066 5.05499L36.1288 5.37014L34.1367 5.5244L30.7033 5.47961L29.6367 5.26399L28.0295 6.36701L24.2394 8.2098L22.2954 9.37087L30.7016 8.93132C30.7016 8.93132 31.4878 10.2102 30.2339 12.038C29.7446 12.7496 28.1108 13.4064 28.1108 13.4064L23.6124 14.5376L20.388 15.4002C20.388 15.4002 17.0358 18.6147 16.4768 19.1272C15.9809 19.5833 14.8546 20.4608 13.2026 21.0115C12.846 21.0911 12.4827 21.1641 12.1128 21.2337C4.39499 22.6884 1.82736 21.1292 0.903477 17.5349L0.901818 17.5382Z" fill="#A44303"/>
<g id="Group_10">
<path id="Vector_52" d="M42.9514 1.66471L42.9348 1.32634L39.9111 1.18701C39.9111 1.18701 39.8232 2.02298 41.0423 2.02133C41.7605 2.02133 42.3012 2.01635 42.6247 2.01303C42.8121 2.01137 42.9597 1.8538 42.9514 1.66637V1.66471Z" fill="#9CE8FF"/>
<path id="Vector_53" d="M30.1912 9.70413C30.231 9.99439 30.0253 10.2631 29.735 10.2996L27.6219 10.5633C26.8191 10.6662 26.066 10.1569 25.8653 9.37239L25.8206 9.19491L30.0651 8.96436C30.09 9.01909 30.1398 9.31268 30.1928 9.70578L30.1912 9.70413Z" fill="#9CE8FF"/>
</g>
</g>
</g>
<path id="Vector_54" d="M43.0277 3.21858C42.6861 3.8439 41.9878 4.47254 40.6094 4.82583C40.145 4.94526 39.6971 5.05971 39.6971 5.05971L36.1194 5.37486L34.1273 5.52745L30.6938 5.48267L29.6273 5.26704L28.02 6.37006L24.23 8.21285L22.286 9.37392C22.286 9.37392 16.5934 9.05214 14.0872 10.5731C14.3194 10.4172 21.7901 5.41632 27.2338 4.18393C32.7639 2.93162 43.0294 3.21692 43.0294 3.21692L43.0277 3.21858Z" fill="#8C3200"/>
<path id="Vector_55" d="M10.7598 37.8358C11.2458 37.3133 12.0768 36.877 13.4999 36.8737C13.9793 36.8737 14.442 36.8721 14.442 36.8721L17.9883 37.4493L19.9571 37.7926L23.2745 38.6817L24.2548 39.1544L26.0843 38.4826L30.2127 37.6301L32.3839 36.9832C32.3839 36.9832 37.8211 38.6983 40.6242 37.8441C40.3605 37.9369 31.8863 40.9425 26.3082 40.7932C20.6405 40.6439 10.7614 37.8341 10.7614 37.8341L10.7598 37.8358Z" fill="#8C3200"/>
<g id="Group_11">
<g id="Group_12">
<path id="Vector_56" d="M29.6351 5.26416C29.6351 5.26416 28.6996 6.03213 26.8403 7.01738C26.1138 7.40219 25.2446 7.82018 24.2378 8.23983" stroke="#602200" stroke-width="0.497603" stroke-miterlimit="10" stroke-linecap="round"/>
<path id="Vector_57" d="M31.0021 5.47752C31.0021 5.47752 29.4214 5.40454 28.9785 4.91357" stroke="#602200" stroke-width="0.497603" stroke-miterlimit="10" stroke-linecap="round"/>
<path id="Vector_58" d="M36.0047 5.37741C36.0047 5.37741 35.1936 4.8682 35.2052 4.03223" stroke="#602200" stroke-width="0.497603" stroke-miterlimit="10" stroke-linecap="round"/>
</g>
<g id="Group_13">
<path id="Vector_59" d="M25.3028 9.12549C23.0271 9.27643 20.2803 9.53352 17.4971 9.97639" stroke="#602200" stroke-width="0.497603" stroke-miterlimit="10" stroke-linecap="round"/>
<path id="Vector_60" d="M18.8573 16.8618C18.4774 17.2002 18.0943 17.5618 17.6896 17.9599C17.0957 18.5404 16.5401 19.1425 15.9164 19.6418C15.1468 20.2107 14.2196 20.6685 13.2012 21.0151" stroke="#602200" stroke-width="0.497603" stroke-miterlimit="10" stroke-linecap="round"/>
<path id="Vector_61" d="M22.5363 10.8938C22.5363 10.8938 22.9095 10.6018 22.2925 9.37109" stroke="#602200" stroke-width="0.497603" stroke-miterlimit="10" stroke-linecap="round"/>
</g>
</g>
</g>
<g id="Group_14">
<path id="Vector_62" d="M20.1295 35.8892C20.103 36.0865 20.025 36.2989 19.8591 36.5078" stroke="#491902" stroke-width="0.497603" stroke-miterlimit="10" stroke-linecap="round"/>
<path id="Vector_63" d="M18.2501 30.0386C18.1821 30.0966 18.1091 30.153 18.0278 30.2094" stroke="#491902" stroke-width="0.497603" stroke-miterlimit="10" stroke-linecap="round"/>
<path id="Vector_64" d="M15.9033 32.8701C15.9033 32.8701 16.245 33.7492 15.8552 34.2369" stroke="#491902" stroke-width="0.497603" stroke-miterlimit="10" stroke-linecap="round"/>
<g id="Group_15">
<g id="Group_16">
<path id="Vector_65" d="M30.2591 37.6431C28.617 37.8769 27.2901 38.1921 26.3065 38.4757C26.1423 38.5238 25.9897 38.5686 25.8454 38.6151C25.4191 38.7477 25.0774 38.8688 24.8236 38.965C24.6478 39.0314 24.5134 39.0861 24.4255 39.1243" stroke="#602200" stroke-width="0.497603" stroke-miterlimit="10" stroke-linecap="round"/>
<path id="Vector_66" d="M15.6113 37.0566C15.6113 37.0566 17.6764 37.2872 19.9936 37.8064C19.9936 37.8064 19.9969 37.8064 19.9985 37.8064C19.9985 37.8064 20.0002 37.8064 20.0018 37.8064C20.0035 37.8064 20.0052 37.8064 20.0068 37.8064" stroke="#602200" stroke-width="0.497603" stroke-miterlimit="10" stroke-linecap="round"/>
<path id="Vector_67" d="M24.2649 39.1685C24.5203 39.3194 24.7426 39.4952 24.8405 39.6826" stroke="#602200" stroke-width="0.497603" stroke-miterlimit="10" stroke-linecap="round"/>
<path id="Vector_68" d="M23.5695 38.8314C23.261 38.7053 23.0205 38.6323 23.0205 38.6323" stroke="#602200" stroke-width="0.497603" stroke-miterlimit="10" stroke-linecap="round"/>
<path id="Vector_69" d="M18.1492 37.4849C18.1492 37.4849 18.8077 38.1798 18.5887 38.986" stroke="#602200" stroke-width="0.497603" stroke-miterlimit="10" stroke-linecap="round"/>
</g>
<g id="Group_17">
<path id="Vector_70" d="M29.4482 36.5181C31.0671 36.8216 32.9364 37.1318 34.9069 37.3806" stroke="#602200" stroke-width="0.497603" stroke-miterlimit="10" stroke-linecap="round"/>
<path id="Vector_71" d="M32.5663 35.4946C32.5663 35.4946 32.1334 35.6854 32.422 37.0306" stroke="#602200" stroke-width="0.497603" stroke-miterlimit="10" stroke-linecap="round"/>
</g>
</g>
<path id="Vector_72" d="M17.0112 28.2373L16.5435 28.6304" stroke="#7A2C00" stroke-width="0.0547363" stroke-miterlimit="10"/>
</g>
</g>
<defs>
<clipPath id="clip0_6694_11288">
<rect width="54.3482" height="43.9367" fill="white" transform="translate(0.825928 0.692383)"/>
</clipPath>
</defs>
</svg>
