<svg width="67" height="54" viewBox="0 0 67 54" fill="none" xmlns="http://www.w3.org/2000/svg">
<g id="MobileArtboard 22 1" clip-path="url(#clip0_7562_57249)">
<g id="Group">
<g id="Group_2">
<g id="Group_3">
<path id="Vector" d="M15.4904 24.9829C17.5011 24.3061 18.8719 23.2277 19.4755 22.6671C20.1559 22.0352 24.2359 18.0865 24.2359 18.0865L28.1605 17.0265L33.6356 15.6362C33.6356 15.6362 35.6241 14.8289 36.2197 13.9544C37.7459 11.7079 36.789 10.1362 36.789 10.1362L26.5576 10.6764L28.9237 9.24939L33.5367 6.98456L35.4929 5.62893L36.791 5.89394L40.97 5.94898L43.3946 5.75939L47.7492 5.37207H47.7533C47.9451 5.39653 54.0682 6.16303 56.3898 7.45139C56.3898 7.45139 56.0002 9.89969 52.8044 10.7294C49.6106 11.5591 41.8987 9.28405 41.8987 9.28405C41.8987 9.28405 41.0447 9.68972 39.6537 10.0322C40.6773 10.34 48.9424 12.8862 53.5312 15.7463C53.5312 15.7463 53.0527 17.8562 50.7331 18.3699C49.5137 18.641 47.8401 18.0967 43.0009 16.2559C41.4989 15.6851 40.2775 15.2203 39.3085 14.8493C37.9741 15.0307 35.1134 15.418 33.7002 15.6158L35.3173 15.7136C35.935 15.7503 36.5367 15.9358 37.0696 16.2539L46.7802 22.0311C46.7802 22.0311 45.1591 25.3336 40.9539 23.8209C38.3455 22.8832 32.499 19.4686 32.499 19.4686L29.4425 19.2791C29.4425 19.2791 24.1108 23.0769 15.4924 24.9829H15.4904Z" fill="#7A2C00"/>
<path id="Vector_2" d="M52.1587 6.10791L52.0355 6.57066C51.8357 7.31881 52.294 8.08327 53.0429 8.25247L54.5773 8.58883C54.9023 8.66017 55.2354 8.5134 55.403 8.22393C55.6896 7.72856 55.8814 7.17407 55.8814 7.17407C55.8814 7.17407 53.6022 6.35865 52.1587 6.10791Z" fill="#62B8CC"/>
<path id="Vector_3" d="M53.075 15.4436L52.6167 16.0429C52.4229 16.2957 52.0878 16.3874 51.795 16.2671L50.2567 15.6311C49.7257 15.4089 49.5218 14.7586 49.8287 14.2673L50.0669 13.9004L53.077 15.4436H53.075Z" fill="#62B8CC"/>
<path id="Vector_4" d="M44.0327 20.3896L43.6915 21.3437C43.5966 21.6107 43.7197 21.9288 43.964 22.045L45.2278 22.6463C45.468 22.7605 45.7547 22.7075 45.9324 22.5097C46.1888 22.2264 46.3644 21.784 46.3644 21.784L44.0306 20.3896H44.0327Z" fill="#BB41BF"/>
</g>
<g id="Group_4">
<path id="Vector_5" d="M40.0391 10.0508L37.5014 10.4463" stroke="#602200" stroke-width="0.610077" stroke-miterlimit="10" stroke-linecap="round"/>
<path id="Vector_6" d="M39.3708 14.4449C39.3708 14.4449 39.3486 12.8242 39.8513 11.7173" stroke="#491902" stroke-width="0.610077" stroke-miterlimit="10" stroke-linecap="round"/>
<path id="Vector_7" d="M41.8982 9.27886C41.8982 9.27886 41.0564 8.50013 41.5247 7.44824" stroke="#491902" stroke-width="0.610077" stroke-miterlimit="10" stroke-linecap="round"/>
<path id="Vector_8" d="M45.284 16.9757C45.284 16.9757 44.315 15.8789 45.5909 14.3867" stroke="#491902" stroke-width="0.610077" stroke-miterlimit="10" stroke-linecap="round"/>
<path id="Vector_9" d="M47.2886 10.5679C47.2886 10.5679 46.6204 9.62607 46.9313 8.9248" stroke="#491902" stroke-width="0.610077" stroke-miterlimit="10" stroke-linecap="round"/>
</g>
<g id="Clip path group">
<mask id="mask0_7562_57249" style="mask-type:luminance" maskUnits="userSpaceOnUse" x="15" y="5" width="42" height="20">
<g id="clippath">
<path id="Vector_10" d="M15.4904 24.9829C17.5011 24.3061 18.8719 23.2277 19.4755 22.6671C20.1559 22.0352 24.2359 18.0865 24.2359 18.0865L28.1605 17.0265L33.6356 15.6362C33.6356 15.6362 35.6241 14.8289 36.2197 13.9544C37.7459 11.7079 36.789 10.1362 36.789 10.1362L26.5576 10.6764L28.9237 9.24939L33.5367 6.98456L35.4929 5.62893L36.791 5.89394L40.97 5.94898L43.3946 5.75939L47.7492 5.37207H47.7533C47.9451 5.39653 54.0682 6.16303 56.3898 7.45139C56.3898 7.45139 56.0002 9.89969 52.8044 10.7294C49.6106 11.5591 41.8987 9.28405 41.8987 9.28405C41.8987 9.28405 41.0447 9.68972 39.6537 10.0322C40.6773 10.34 48.9424 12.8862 53.5312 15.7463C53.5312 15.7463 53.0527 17.8562 50.7331 18.3699C49.5137 18.641 47.8401 18.0967 43.0009 16.2559C41.4989 15.6851 40.2775 15.2203 39.3085 14.8493C37.9741 15.0307 35.1134 15.418 33.7002 15.6158L35.3173 15.7136C35.935 15.7503 36.5367 15.9358 37.0696 16.2539L46.7802 22.0311C46.7802 22.0311 45.1591 25.3336 40.9539 23.8209C38.3455 22.8832 32.499 19.4686 32.499 19.4686L29.4425 19.2791C29.4425 19.2791 24.1108 23.0769 15.4924 24.9829H15.4904Z" fill="white"/>
</g>
</mask>
<g mask="url(#mask0_7562_57249)">
<g id="Group_5">
<path id="Vector_11" d="M53.7471 33.3397C45.585 42.7313 27.8637 37.9998 27.8637 37.9998L25.643 36.4465C25.643 36.4465 25.6006 36.3812 25.5259 36.2589C25.5259 36.2569 25.5219 36.2528 25.5198 36.2508C25.1686 35.6779 24.1208 33.8922 23.1376 31.4398C23.0549 31.2359 22.9741 31.026 22.8933 30.8139C22.5663 29.9516 22.2554 29.02 21.9869 28.0374L21.5387 25.7787L21.2742 24.4455C21.244 24.1927 21.2177 23.9379 21.1975 23.6831C20.8866 19.9587 21.5811 15.9957 24.4781 12.6647C27.9364 8.68345 33.9707 7.74164 38.0083 10.5345C38.0326 10.5508 38.0548 10.5671 38.079 10.5834C38.081 10.5834 38.083 10.5875 38.0871 10.5895C38.0891 10.5895 38.0911 10.5936 38.0951 10.5956L40.3017 12.1388C42.2963 13.5495 43.4148 15.6206 43.6166 17.8365C46.0453 17.49 48.5345 17.9752 50.5251 19.3818C50.5291 19.3838 50.5331 19.3879 50.5372 19.3899C50.5473 19.3981 50.5594 19.4062 50.5695 19.4123C50.8824 19.6305 52.554 20.7986 52.7458 20.9351C52.9981 21.1145 53.2384 21.3041 53.4645 21.5039H53.4685C56.8238 24.4822 57.0136 29.5908 53.7552 33.3438L53.7471 33.3397Z" fill="#112130"/>
</g>
</g>
</g>
<path id="Vector_12" d="M26.0869 46.2244C25.2067 45.2989 24.4961 44.2919 23.9187 43.2644C23.6643 42.8119 23.4362 42.3532 23.2323 41.8986C22.4409 41.444 20.6926 40.4696 18.7949 39.6134C16.9053 38.7592 14.8643 38.0172 13.4713 38.0172C10.1725 38.0172 9.19135 40.2902 9.19135 40.2902C9.32055 40.4125 9.46793 40.5369 9.62741 40.6633C9.74047 40.7509 9.85958 40.8406 9.98676 40.9303C9.98676 40.9303 9.98676 40.9303 9.98878 40.9303C10.4269 41.2422 10.9376 41.5561 11.4807 41.8619C11.4928 41.868 11.5029 41.8762 11.515 41.8823C11.9834 42.1453 12.4719 42.4021 12.9605 42.6468C14.9733 43.6518 16.9396 44.4346 17.0426 44.4753H17.0466L21.3588 45.197L23.7511 45.623C23.7511 45.623 23.7552 45.623 23.7572 45.623C23.7592 45.623 23.7612 45.623 23.7633 45.623H23.7673L26.1293 46.2713C26.1152 46.255 26.099 46.2407 26.0849 46.2244H26.0869ZM53.0989 33.5874C48.5888 33.4264 44.7894 33.9605 42.1609 34.5211C40.0532 34.9696 38.6945 35.4323 38.319 35.5669C38.3049 35.573 38.2908 35.5771 38.2746 35.5832C38.2342 35.5975 38.212 35.6056 38.212 35.6056L35.527 34.729L35.2989 34.6536C35.2989 34.6536 35.1757 34.5313 34.9577 34.3172C33.817 33.2022 30.1105 29.6245 28.1845 28.3137C28.029 28.2077 27.8736 28.1099 27.7222 28.0222C25.6105 26.793 23.9692 27.2883 23.0183 27.851C22.4228 28.2036 22.0997 28.5828 22.0997 28.5828L22.4369 28.9232L23.1253 29.6143L24.3568 30.8538L30.0802 36.6167C30.5183 37.0591 31.0553 37.3893 31.6448 37.5789L33.1872 38.0784C31.7699 37.9133 28.9032 37.5708 27.5667 37.4097C26.7188 36.8084 25.6509 36.05 24.3366 35.1184C24.3225 35.1082 24.3083 35.098 24.2942 35.0899C23.0668 34.2194 22.0715 33.5243 21.2458 32.9718C19.2471 31.6386 18.2478 31.1575 17.3676 31.1269C14.9914 31.0433 14.0103 32.9657 14.0103 32.9657C14.1334 33.0962 14.2626 33.2266 14.3939 33.3571C14.4867 33.4488 14.5796 33.5426 14.6765 33.6343C15.2983 34.2357 15.9887 34.8432 16.7155 35.4446L16.7196 35.4486C16.7862 35.5037 16.8528 35.5587 16.9194 35.6138C18.7243 37.0917 20.7249 38.5126 22.3985 39.6419C21.9907 38.3026 21.7626 37.0571 21.6354 36.0622C21.4578 34.672 21.4759 33.7668 21.4759 33.7668L21.5264 33.8932L22.1583 35.465L23.2283 38.1273C23.7713 39.2628 24.3487 40.3228 24.9221 41.2911C25.342 41.5561 25.669 41.76 25.877 41.8864C25.9436 41.9272 25.9981 41.9618 26.0405 41.9863C25.7942 41.9822 25.562 41.9863 25.346 41.9924C27.0378 44.7302 28.6246 46.624 29.1495 47.2253C29.0586 47.2641 29.0041 47.2885 28.99 47.2967L29.1576 47.2355L29.6058 47.0704L30.8776 46.6015L31.2148 46.4772L31.4409 46.4303L36.2416 45.4437L38.8863 44.6568L38.8601 44.6507C38.8601 44.6507 38.856 44.6507 38.854 44.6507L35.4906 43.9637L30.6555 42.977L30.5788 42.9607L29.6037 42.763L28.8507 42.6101H28.8426C28.8426 42.6101 28.3036 40.8447 30.3345 39.0528C31.1259 38.3556 33.2518 38.0723 33.2518 38.0723L34.3318 38.0784H34.3359L38.8964 38.1028L42.9603 38.0621C42.9603 38.0621 42.9623 38.0621 42.9643 38.06C42.9765 38.0539 43.0067 38.0356 43.0552 38.0091C43.0653 38.0009 43.0774 37.9948 43.0895 37.9887C43.0956 37.9866 43.0996 37.9826 43.1057 37.9805C43.1117 37.9764 43.1158 37.9744 43.1218 37.9703C43.1359 37.9622 43.1521 37.952 43.1703 37.9418C43.1864 37.9336 43.2026 37.9234 43.2187 37.9133C43.2571 37.8908 43.3015 37.8664 43.3479 37.8399C43.36 37.8337 43.3701 37.8276 43.3822 37.8195C43.4892 37.7583 43.6144 37.687 43.7537 37.6075C43.7779 37.5932 43.8042 37.5789 43.8304 37.5647C44 37.4688 44.1898 37.3608 44.3896 37.2466C44.426 37.2263 44.4643 37.2038 44.5007 37.1834C44.5572 37.1508 44.6137 37.1203 44.6723 37.0856C44.7106 37.0632 44.751 37.0408 44.7894 37.0183C44.8156 37.0041 44.8398 36.9898 44.8681 36.9735C44.9206 36.9449 44.9731 36.9144 45.0256 36.8838C45.0518 36.8695 45.0781 36.8532 45.1063 36.8389C45.1427 36.8185 45.177 36.7982 45.2133 36.7798C45.397 36.6758 45.5848 36.5678 45.7746 36.4618C45.8149 36.4394 45.8553 36.417 45.8937 36.3945C46.0007 36.3334 46.1077 36.2743 46.2147 36.2131C46.2389 36.1988 46.2651 36.1846 46.2894 36.1723C46.3903 36.1152 46.4912 36.0582 46.5902 36.0011C46.6305 35.9787 46.6689 35.9562 46.7093 35.9338C46.7295 35.9216 46.7497 35.9114 46.7698 35.8992C46.8102 35.8767 46.8506 35.8543 46.889 35.8319C46.9879 35.7768 47.0848 35.7218 47.1797 35.6668C47.1978 35.6566 47.218 35.6464 47.2362 35.6342C47.2544 35.624 47.2745 35.6138 47.2927 35.6015C47.325 35.5832 47.3573 35.5648 47.3896 35.5465C47.4643 35.5037 47.539 35.4629 47.6097 35.4221C47.6117 35.4221 47.6137 35.4201 47.6177 35.4181C47.6521 35.3977 47.6864 35.3793 47.7207 35.361C47.7369 35.3508 47.753 35.3426 47.7712 35.3324C47.86 35.2815 47.9448 35.2346 48.0256 35.1897C48.0437 35.1796 48.0599 35.1694 48.078 35.1612C48.3163 35.0287 48.5081 34.9207 48.6373 34.8513C48.6494 34.8452 48.6595 34.8391 48.6716 34.833C48.6817 34.8269 48.6918 34.8228 48.7019 34.8167C49.4246 34.4253 51.0195 33.724 53.1332 33.5752C53.1231 33.5752 53.113 33.5752 53.1049 33.5752L53.0989 33.5874Z" fill="#7A2C00"/>
<path id="Vector_13" d="M12.9605 42.6515L13.1947 42.2336C13.5722 41.5588 13.3158 40.7026 12.6334 40.352L11.2303 39.6405C10.9336 39.4897 10.5742 39.5467 10.3421 39.7853C9.94234 40.193 9.61932 40.6822 9.61932 40.6822C9.61932 40.6822 11.626 42.044 12.9625 42.6515H12.9605Z" fill="#62B8CC"/>
<path id="Vector_14" d="M14.3758 33.3806L14.9673 32.9138C15.2177 32.7181 15.5649 32.714 15.8193 32.9036L17.1517 33.9066C17.61 34.2552 17.6483 34.936 17.2304 35.3356L16.9094 35.6312L14.3738 33.3806H14.3758Z" fill="#62B8CC"/>
<path id="Vector_15" d="M24.3512 30.8648L24.9164 30.027C25.0739 29.7925 25.0335 29.4521 24.8236 29.2788L23.7496 28.3778C23.5457 28.2066 23.2549 28.1862 23.0329 28.3329C22.7159 28.5429 22.4353 28.9282 22.4353 28.9282L24.3512 30.8648Z" fill="#BB41BF"/>
<path id="Vector_16" d="M25.6713 41.877L28.2271 42.1318" stroke="#112130" stroke-width="0.748361" stroke-miterlimit="10" stroke-linecap="round"/>
<path id="Vector_17" d="M39.1592 35.2847C39.1592 35.2847 37.6168 35.7026 36.4075 36.5282" stroke="#112130" stroke-width="0.748361" stroke-miterlimit="10" stroke-linecap="round"/>
<path id="Vector_18" d="M27.4012 37.7881C27.4012 37.7881 27.0216 39.3639 26.2646 40.3077" stroke="#112130" stroke-width="0.748361" stroke-miterlimit="10" stroke-linecap="round"/>
<path id="Vector_19" d="M35.0687 34.9297C35.0687 34.9297 33.9321 36.6625 31.9032 37.0681" stroke="#112130" stroke-width="0.748361" stroke-miterlimit="10" stroke-linecap="round"/>
<path id="Vector_20" d="M29.4306 29.4839C29.4306 29.4839 29.9656 30.2035 28.0033 31.2391" stroke="#112130" stroke-width="0.748361" stroke-miterlimit="10" stroke-linecap="round"/>
<path id="Vector_21" d="M22.2979 33.8506C22.2979 33.8506 22.6876 34.613 22.1566 35.4753" stroke="#112130" stroke-width="0.748361" stroke-miterlimit="10" stroke-linecap="round"/>
<path id="Vector_22" d="M58.5763 34.9097C52.2997 49.0797 32.1114 48.6821 32.1114 48.6821L29.3295 47.4407L30.1935 46.297C26.6585 41.5187 19.8894 30.2965 24.6538 19.539C26.8301 14.6241 31.3846 11.7008 35.7312 12.0168L35.7837 11.4766L38.6524 12.7568C41.9492 14.251 43.9175 17.6411 44.1517 21.4899C46.1281 19.9141 48.4619 19.0437 50.7674 19.062L51.4659 18.5809C51.4659 18.5809 53.9874 19.7062 54.2539 19.8265C54.5709 19.9712 54.8778 20.1322 55.1705 20.3096H55.1745C59.5392 22.9679 61.0776 29.2466 58.5702 34.9056L58.5763 34.9097Z" fill="#CE2521"/>
<path id="Vector_23" d="M56.9755 27.2978L20.7274 30.8876C19.9097 26.9063 19.9844 22.5663 21.8741 18.2996C24.5329 12.294 30.7408 9.26066 35.7858 11.4786C35.8161 11.4908 35.8444 11.5051 35.8746 11.5173C35.8787 11.5173 35.8807 11.5214 35.8847 11.5214C35.8868 11.5214 35.8908 11.5255 35.8928 11.5255C39.1795 13.0238 41.1398 16.4078 41.3739 20.2505C42.1027 19.6695 42.88 19.1843 43.6875 18.8051C46.1949 17.6248 48.9829 17.4577 51.4782 18.587C51.4822 18.5891 51.4883 18.5911 51.4923 18.5931C51.5064 18.5993 51.5206 18.6054 51.5347 18.6115C54.7931 20.1159 56.7413 23.4775 56.9755 27.2957V27.2978Z" fill="#DB4642"/>
<path id="Vector_24" d="M55.8303 33.5867C55.8182 33.6132 55.8081 33.6417 55.796 33.6682C55.7839 33.6968 55.7698 33.7274 55.7577 33.7559C52.9979 39.9042 47.6097 43.2922 42.4152 45.1575C35.745 47.5548 29.3938 47.4407 29.3352 47.4407C29.3352 47.4407 29.3191 47.4244 29.2908 47.3918C29.2605 47.3591 29.2181 47.3102 29.1616 47.245C29.1596 47.2409 29.1576 47.2389 29.1535 47.2368C28.6286 46.6355 27.0418 44.7416 25.35 42.0039C25.2087 41.7755 25.0674 41.5411 24.9261 41.3026C24.3527 40.3343 23.7754 39.2743 23.2323 38.1388L22.1623 35.4764L21.5304 33.9047C21.4315 33.601 21.3386 33.2931 21.2478 32.9812C21.0499 32.2963 20.8763 31.5991 20.731 30.8897L56.979 27.2998C57.1042 29.3363 56.7428 31.5033 55.8344 33.5887L55.8303 33.5867Z" fill="#F65E53"/>
<g id="Group_6">
<path id="Vector_25" d="M28.1685 14.2779C27.9182 16.7975 25.6914 18.6363 23.1961 18.3835C22.7661 18.3407 22.3543 18.2367 21.9727 18.0838C23.2809 15.2543 25.3845 13.1077 27.7708 11.8887C28.1039 12.6103 28.2533 13.4278 28.1705 14.2779H28.1685Z" fill="#FF908D"/>
<path id="Vector_26" d="M39.7063 46.0083C40.6814 45.7433 41.6807 45.4294 42.6881 45.0584C41.5778 45.0054 40.532 45.3642 39.7063 46.0083Z" fill="#FF908D"/>
<path id="Vector_27" d="M36.4717 43.3796C36.722 40.86 34.901 38.6115 32.4057 38.3587C29.9105 38.1059 27.6837 39.9447 27.4334 42.4643C27.2012 44.8025 28.7496 46.9043 30.9683 47.3997C31.685 47.363 32.6056 47.2936 33.6736 47.1673C35.1756 46.5435 36.298 45.1267 36.4717 43.3796Z" fill="#FF908D"/>
<path id="Vector_28" d="M25.9455 36.6608C26.1959 34.1411 24.3749 31.8926 21.8796 31.6398C21.5445 31.6052 21.2154 31.6093 20.8944 31.648C21.6131 34.6936 22.8325 37.5088 24.1225 39.8939C25.1178 39.1519 25.8123 38.0042 25.9455 36.6608Z" fill="#FF908D"/>
<path id="Vector_29" d="M55.6851 29.4139C53.1899 29.1611 50.9631 30.9999 50.7128 33.5195C50.523 35.4296 51.5243 37.1848 53.1071 38.0308C54.1549 36.7567 55.0694 35.3114 55.7962 33.6704C56.3735 32.3677 56.7349 31.0304 56.8985 29.7135C56.5189 29.5606 56.1131 29.4587 55.6851 29.4159V29.4139Z" fill="#FF908D"/>
<path id="Vector_30" d="M27.0584 25.4709C26.808 27.9905 24.5812 29.8293 22.086 29.5765C21.4864 29.5153 20.9251 29.34 20.4225 29.073C20.0712 26.3678 20.1762 23.5342 20.9998 20.6986C21.6176 20.4723 22.2939 20.3806 22.9924 20.4519C25.4877 20.7047 27.3087 22.9532 27.0584 25.4729V25.4709Z" fill="#F65E53"/>
<path id="Vector_31" d="M49.2229 27.7165C49.2108 27.8368 49.1946 27.9551 49.1744 28.0733L40.4753 28.9336C40.2189 28.2771 40.1099 27.5514 40.1846 26.8012C40.4349 24.2816 42.6617 22.4428 45.157 22.6956C47.6522 22.9484 49.4732 25.1969 49.2229 27.7165Z" fill="#F65E53"/>
<path id="Vector_32" d="M49.1743 28.0723C48.7604 30.4064 46.6265 32.0617 44.2504 31.8212C42.498 31.6438 41.0788 30.4818 40.4752 28.9325L49.1743 28.0723Z" fill="#FF908D"/>
<path id="Vector_33" d="M56.973 27.2974L56.2583 27.3688C56.1372 27.3667 56.014 27.3586 55.8909 27.3463C53.3956 27.0936 51.5746 24.845 51.825 22.3254C51.9319 21.2388 52.4084 20.2807 53.113 19.5591C55.4185 21.3 56.7812 24.1417 56.975 27.2974H56.973Z" fill="#F65E53"/>
<path id="Vector_34" d="M56.975 27.3244C56.7409 27.359 56.5006 27.3733 56.2584 27.3692L56.973 27.2979C56.973 27.2979 56.973 27.3162 56.973 27.3244H56.975Z" fill="#F65E53"/>
<path id="Vector_35" d="M44.0467 33.886C41.5514 33.6332 39.3246 35.472 39.0743 37.9917C38.8239 40.5113 40.6449 42.7598 43.1402 43.0126C45.6355 43.2654 47.8622 41.4266 48.1126 38.907C48.3629 36.3873 46.5419 34.1388 44.0467 33.886Z" fill="#FF908D"/>
<path id="Vector_36" d="M49.9116 18.0558C49.106 19.7458 47.3174 20.8283 45.3631 20.6305C44.3032 20.5225 43.3645 20.0556 42.6559 19.3605C44.915 17.9967 47.491 17.485 49.9116 18.0558Z" fill="#F65E53"/>
<path id="Vector_37" d="M36.9083 29.2855L28.8249 30.0867C29.5396 28.203 31.4352 26.9555 33.5187 27.1675C34.9662 27.3142 36.1876 28.1317 36.9083 29.2855Z" fill="#F65E53"/>
<path id="Vector_38" d="M37.5843 32.1881C37.334 34.7077 35.1072 36.5465 32.6119 36.2937C30.1167 36.0409 28.2957 33.7924 28.546 31.2727C28.5864 30.8569 28.6833 30.4594 28.8246 30.0863L36.908 29.2852C37.4289 30.1189 37.6893 31.13 37.5843 32.1881Z" fill="#FF908D"/>
<path id="Vector_39" d="M38.0829 12.9637C37.1946 13.6629 36.0479 14.0339 34.8366 13.9096C33.0177 13.7261 31.5601 12.4826 30.9968 10.8477C32.6442 10.6112 34.3158 10.811 35.8743 11.5184C36.694 11.8894 37.4329 12.3786 38.0829 12.9637Z" fill="#FF908D"/>
<path id="Vector_40" d="M38.6966 20.9998C38.4463 23.5194 36.2195 25.3582 33.7242 25.1054C31.229 24.8526 29.408 22.6041 29.6583 20.0844C29.9087 17.5648 32.1354 15.726 34.6307 15.9788C37.126 16.2316 38.947 18.4801 38.6966 20.9998Z" fill="#F65E53"/>
</g>
<path id="Vector_41" d="M46.5135 34.4671L40.7437 31.87C40.4752 31.7497 40.2875 31.4908 40.2531 31.1973L40.1138 29.9843C40.1138 29.9843 40.1098 29.9436 40.0714 29.9293C40.0331 29.915 40.0109 29.9375 40.0048 29.9436L36.9423 32.8913C36.6778 33.1461 36.2962 33.1991 35.9732 33.0259C35.6502 32.8526 35.4806 32.504 35.5432 32.1391L36.7848 24.7983C36.7868 24.784 36.7929 24.7514 36.7505 24.729C36.7081 24.7065 36.6859 24.729 36.6758 24.7392L33.3164 27.958C33.0701 28.1945 32.7108 28.2557 32.4019 28.117L27.5789 25.946L27.8918 25.2366L32.7148 27.4076C32.739 27.4178 32.7673 27.4137 32.7855 27.3954L36.1448 24.1765C36.4093 23.9217 36.7908 23.8707 37.1139 24.044C37.4369 24.2173 37.6044 24.5659 37.5439 24.9308L36.3023 32.2716C36.3003 32.2859 36.2942 32.3185 36.3366 32.3409C36.379 32.3633 36.4012 32.3409 36.4113 32.3307L39.4739 29.383C39.704 29.1608 40.0351 29.0915 40.3339 29.1995C40.6347 29.3096 40.8426 29.5746 40.879 29.8947L41.0183 31.1076C41.0203 31.13 41.0364 31.1504 41.0566 31.1606L46.8264 33.7577L46.5135 34.4671Z" fill="white"/>
<path id="Vector_42" d="M66.5748 41.4905C66.5748 46.0507 55.2835 52.8635 48.5972 52.8635C43.4512 52.8635 37.3018 53.6015 34.7419 53.9399C33.8981 54.052 33.0421 54.0194 32.2083 53.8482C30.46 53.4873 27.2379 52.7514 24.1108 51.6934C21.6357 50.8556 18.2481 49.7955 15.6438 48.9964C14.0388 48.5031 12.7306 48.1076 12.1169 47.9221C11.8726 47.8487 11.7374 47.8079 11.7374 47.8079C11.7374 47.8079 11.5799 44.4769 15.9042 44.4769H17.0509L21.3631 45.1965L23.7555 45.6226C23.7555 45.6226 23.7595 45.6226 23.7615 45.6226C23.7615 45.6226 23.7635 45.6226 23.7655 45.6226H23.7676H23.7716L26.1336 46.2688L26.5414 46.3809L26.9351 46.489C27.6558 46.7295 28.3422 46.9966 28.9519 47.2901C28.962 47.2963 28.9721 47.3003 28.9842 47.3044C28.9842 47.3044 28.9842 47.3044 28.9862 47.3044L29.1538 47.2432L29.602 47.0781L30.8738 46.6093L31.211 46.4849L31.4371 46.438L36.2379 45.4514L38.8825 44.6645L38.8563 44.6584C38.8563 44.6584 38.8523 44.6584 38.8502 44.6584L36.1733 44.112L35.711 44.0183L35.4869 43.9734L30.6518 42.9868L30.5751 42.9704L29.6 42.7727L28.8469 42.6198H28.8389C28.8389 42.6198 28.2998 40.8544 30.3308 39.0625C31.1222 38.3654 33.248 38.082 33.248 38.082L34.3281 38.0881H34.3321L38.8926 38.1126L42.9565 38.0718C42.9565 38.0718 42.9586 38.0718 42.9606 38.0698C42.9727 38.0637 43.003 38.0453 43.0514 38.0188C43.0514 38.0188 43.0514 38.0188 43.0534 38.0188C43.0635 38.0127 43.0757 38.0066 43.0878 37.9984C43.0938 37.9964 43.0979 37.9923 43.1039 37.9903C43.11 37.9862 43.114 37.9842 43.1201 37.9801C43.1342 37.9719 43.1524 37.9617 43.1685 37.9515C43.1847 37.9434 43.2008 37.9332 43.217 37.923C43.2553 37.9006 43.2997 37.8761 43.3462 37.8496C43.3583 37.8435 43.3684 37.8374 43.3805 37.8292C43.4875 37.7681 43.6127 37.6967 43.752 37.6172C43.7762 37.6029 43.8024 37.5887 43.8287 37.5744C43.9983 37.4786 44.188 37.3705 44.3879 37.2564C44.4242 37.236 44.4626 37.2136 44.4989 37.1932C44.5555 37.1606 44.612 37.13 44.6705 37.0953C44.7089 37.0729 44.7493 37.0505 44.7876 37.0281C44.8139 37.0138 44.8381 36.9995 44.8664 36.9832C44.9188 36.9547 44.9713 36.9241 45.0238 36.8935C45.0501 36.8793 45.0763 36.8629 45.1046 36.8487C45.1409 36.8283 45.1752 36.8079 45.2116 36.7896C45.3953 36.6856 45.583 36.5776 45.7728 36.4715C45.8132 36.4491 45.8536 36.4267 45.8919 36.4043C45.9989 36.3431 46.1059 36.284 46.2129 36.2228C46.2371 36.2086 46.2634 36.1943 46.2876 36.1821C46.3886 36.125 46.4895 36.0679 46.5884 36.0108C46.6288 35.9884 46.6672 35.966 46.7075 35.9436C46.7277 35.9313 46.7479 35.9211 46.7681 35.9089C46.8085 35.8865 46.8488 35.8641 46.8872 35.8416C46.9861 35.7866 47.083 35.7316 47.1779 35.6765C47.1961 35.6663 47.2163 35.6561 47.2344 35.6439C47.2526 35.6337 47.2728 35.6235 47.291 35.6113C47.3233 35.5929 47.3556 35.5746 47.3879 35.5562C47.4626 35.5134 47.5373 35.4727 47.6079 35.4319C47.6099 35.4319 47.612 35.4298 47.616 35.4278C47.6503 35.4095 47.6846 35.3891 47.719 35.3707C47.7351 35.3605 47.7513 35.3524 47.7694 35.3422C47.8583 35.2912 47.9431 35.2443 48.0238 35.1995C48.042 35.1893 48.0581 35.1791 48.0763 35.171C48.3145 35.0384 48.5063 34.9304 48.6355 34.8611C48.6476 34.855 48.6577 34.8489 48.6698 34.8427C48.6799 34.8366 48.69 34.8326 48.7001 34.8264C49.4229 34.435 51.0177 33.7338 53.1314 33.585C53.5756 33.5992 54.0258 33.6237 54.4841 33.6522C54.9242 33.6808 55.3481 33.7154 55.76 33.7521C56.9107 33.8581 57.9484 33.9967 58.8831 34.168C59.9228 34.3596 60.8333 34.592 61.6287 34.8672C61.6348 34.8692 61.6408 34.8713 61.6469 34.8733C62.3837 35.1281 63.0217 35.4197 63.5708 35.7438C63.5708 35.7438 63.5728 35.7438 63.5748 35.7458C65.8178 37.077 66.5789 38.9932 66.5789 41.4843L66.5748 41.4905Z" fill="#A44303"/>
<g id="Group_7">
<path id="Vector_43" d="M12.1976 47.5191L12.1148 47.9268L15.6356 49.0174C15.6356 49.0174 15.993 48.0491 14.5556 47.6781C13.7077 47.46 13.0697 47.299 12.6882 47.2052C12.4661 47.1501 12.244 47.2928 12.1976 47.5191Z" fill="#9CE8FF"/>
<path id="Vector_44" d="M29.6744 41.8546C29.7168 41.4959 30.0398 41.241 30.3931 41.2859L32.9631 41.6202C33.9402 41.7425 34.673 42.5804 34.673 43.5752V43.7994L29.5997 42.7761C29.5856 42.7047 29.6159 42.3378 29.6724 41.8546H29.6744Z" fill="#9CE8FF"/>
</g>
<path id="Vector_45" d="M24.9202 41.3026C24.7466 41.1925 24.5548 41.0702 24.3509 40.9397C23.7897 40.5789 23.1235 40.1427 22.3967 39.6534C21.9889 38.3141 21.7608 37.0685 21.6336 36.0737C21.4559 34.6834 21.4741 33.7783 21.4741 33.7783L21.5246 33.9047L22.1565 35.4764L23.2264 38.1388C23.7695 39.2743 24.3469 40.3343 24.9202 41.3026Z" fill="#112130"/>
<path id="Vector_46" d="M29.1476 47.2339C29.0567 47.2726 29.0022 47.2971 28.9881 47.3052C28.9881 47.3052 28.9881 47.3052 28.9861 47.3052C28.976 47.2991 28.9659 47.2951 28.9538 47.291C28.3441 46.9974 27.6597 46.7304 26.937 46.4898L26.5433 46.3818L26.1355 46.2697C26.1214 46.2534 26.1052 46.2391 26.0911 46.2228C25.2109 45.2973 24.5002 44.2902 23.9229 43.2628C23.6685 42.8102 23.4404 42.3516 23.2365 41.897C23.5211 42.0601 23.6826 42.1579 23.6826 42.1579C23.6826 42.1579 24.0945 42.0784 24.793 42.0315C24.9625 42.0193 25.1483 42.0111 25.3481 42.005C26.3858 43.6827 27.3831 45.0425 28.12 45.9843C28.1483 46.021 28.1785 46.0597 28.2068 46.0944C28.6308 46.6305 28.9619 47.0199 29.1516 47.238L29.1476 47.2339Z" fill="#112130"/>
<path id="Vector_47" d="M38.8845 44.6663L36.2399 45.4532L31.4391 46.4399L31.213 46.4868L30.8758 46.6111L29.604 47.08L29.1558 47.2451L28.9882 47.3062C29.0024 47.3001 29.0569 47.2757 29.1477 47.2349C28.9579 47.0168 28.6269 46.6274 28.2029 46.0913C28.1746 46.0546 28.1464 46.0179 28.1161 45.9812C30.0037 45.0537 33.4862 44.3789 35.7109 44.0181L36.1732 44.1118L38.8502 44.6582C38.8502 44.6582 38.8542 44.6582 38.8563 44.6582L38.8825 44.6643L38.8845 44.6663Z" fill="#112130"/>
<path id="Vector_48" d="M20.1255 33.8574L19.5562 34.3406" stroke="#7A2C00" stroke-width="0.0671085" stroke-miterlimit="10"/>
<g id="Clip path group_2">
<mask id="mask1_7562_57249" style="mask-type:luminance" maskUnits="userSpaceOnUse" x="20" y="10" width="40" height="39">
<g id="clippath-2">
<path id="Vector_49" d="M58.5758 34.9088C52.2993 49.0788 32.113 48.6812 32.113 48.6812L29.331 47.4398C29.331 47.4398 29.2684 47.3725 29.1554 47.242C29.1534 47.24 29.1513 47.2359 29.1473 47.2339C28.6224 46.6325 27.0356 44.7387 25.3438 42.0009C25.2025 41.7726 25.0612 41.5382 24.9199 41.2997C24.3465 40.3314 23.7691 39.2713 23.2261 38.1358L22.1561 35.4735L21.5242 33.9018C21.4253 33.598 21.3324 33.2902 21.2416 32.9783C19.9374 28.4527 19.6447 23.3258 21.8714 18.2967C24.5302 12.2911 30.7381 9.25773 35.7832 11.4757C35.8135 11.4879 35.8417 11.5022 35.872 11.5144C35.8741 11.5144 35.8781 11.5164 35.8821 11.5185C35.8841 11.5185 35.8882 11.5205 35.8922 11.5226L38.656 12.7559C41.1573 13.8893 42.8935 16.1134 43.6869 18.8002C46.1943 17.6199 48.9823 17.4527 51.4776 18.5821C51.4836 18.5841 51.4877 18.5861 51.4917 18.5882C51.5018 18.5922 51.5119 18.5984 51.522 18.6024C51.526 18.6024 51.5281 18.6045 51.5321 18.6065C51.5341 18.6065 51.5361 18.6065 51.5381 18.6086C51.5381 18.6086 51.5402 18.6086 51.5422 18.6086C51.9581 18.7941 54.0173 19.7135 54.2575 19.8215C54.5745 19.9662 54.8813 20.1273 55.1741 20.3046H55.1781C59.5428 22.9629 61.0812 29.2416 58.5738 34.9007L58.5758 34.9088Z" fill="white"/>
</g>
</mask>
<g mask="url(#mask1_7562_57249)">
<g id="Group_8">
<path id="Vector_50" d="M0.724545 22.1482C-0.399943 17.7327 8.85639 8.29626 15.3328 6.61446C20.3173 5.31998 26.0911 3.06126 28.4855 2.08888C29.2748 1.76882 30.1106 1.58332 30.9626 1.54254C32.7452 1.45285 36.046 1.355 39.3367 1.59351C44.1819 1.94618 52.2814 2.24584 52.2814 2.24584C52.2814 2.24584 53.2545 5.4321 49.0654 6.51865C48.5001 6.66542 47.9551 6.80608 47.9551 6.80608L43.6004 7.19341L41.1758 7.38299L36.9969 7.32795L35.6987 7.06294L33.7425 8.41857L29.1295 10.6834L26.7634 12.1104L36.9948 11.5702C36.9948 11.5702 37.9518 13.1419 36.4255 15.3884C35.83 16.2629 33.8414 17.0702 33.8414 17.0702L28.3664 18.4605L24.4418 19.5205C24.4418 19.5205 20.3617 23.4712 19.6814 24.1011C19.0777 24.6617 17.7069 25.7401 15.6962 26.4169C15.2621 26.5148 14.82 26.6045 14.3698 26.6901C4.9762 28.4779 1.85105 26.5617 0.726564 22.1441L0.724545 22.1482Z" fill="#7C1515"/>
</g>
</g>
</g>
<g id="Group_9">
<path id="Vector_51" d="M0.517882 20.7068C-0.604587 16.2913 8.64973 6.85486 15.1261 5.17305C20.1106 3.87857 25.8845 1.61986 28.2788 0.64747C29.0682 0.327417 29.904 0.141909 30.7559 0.101138C32.5385 0.0114421 35.8393 -0.0864083 39.13 0.152102C43.9752 0.504771 52.0748 0.804438 52.0748 0.804438C52.0748 0.804438 53.0478 3.99069 48.8588 5.07724L47.7484 5.36467L43.3938 5.752L40.9692 5.94158L36.7902 5.88654L35.4921 5.62153L33.5358 6.97717L28.9228 9.242L26.5568 10.669L36.7882 10.1288C36.7882 10.1288 37.7451 11.7005 36.2189 13.947C35.6233 14.8215 33.6348 15.6288 33.6348 15.6288L28.1597 17.0191L24.2351 18.0791C24.2351 18.0791 20.155 22.0298 19.4747 22.6597C18.8711 23.2203 17.5003 24.2987 15.4895 24.9755C15.0555 25.0734 14.6134 25.1631 14.1632 25.2487C4.76954 27.0365 1.64439 25.1203 0.519901 20.7027L0.517882 20.7068Z" fill="#A44303"/>
<g id="Group_10">
<path id="Vector_52" d="M51.6978 1.19892L51.6776 0.783055L47.9972 0.611816C47.9972 0.611816 47.8902 1.63925 49.3741 1.63721C50.2482 1.63721 50.9064 1.63109 51.3001 1.62701C51.5282 1.62498 51.7079 1.43131 51.6978 1.20096V1.19892Z" fill="#9CE8FF"/>
<path id="Vector_53" d="M36.167 11.0801C36.2154 11.4368 35.9651 11.7671 35.6118 11.8119L33.0398 12.1361C32.0627 12.2625 31.1461 11.6366 30.9019 10.6724L30.8474 10.4543L36.0135 10.1709C36.0438 10.2382 36.1044 10.599 36.169 11.0821L36.167 11.0801Z" fill="#9CE8FF"/>
</g>
</g>
</g>
<path id="Vector_54" d="M51.791 3.10768C51.3751 3.87621 50.5252 4.64883 48.8476 5.08304C48.2823 5.22981 47.7372 5.37047 47.7372 5.37047L43.3826 5.7578L40.958 5.94534L36.779 5.8903L35.4809 5.62529L33.5246 6.98093L28.9116 9.24576L26.5455 10.6727C26.5455 10.6727 19.6169 10.2773 16.5665 12.1466C16.8491 11.955 25.9419 5.80876 32.5677 4.29412C39.2985 2.75501 51.793 3.10564 51.793 3.10564L51.791 3.10768Z" fill="#8C3200"/>
<path id="Vector_55" d="M12.5167 45.6531C13.1082 45.011 14.1197 44.4749 15.8518 44.4708C16.4353 44.4708 16.9985 44.4688 16.9985 44.4688L21.3148 45.1782L23.7111 45.6001L27.7488 46.6928L28.9419 47.2738L31.1687 46.4482L36.1936 45.4004L38.8362 44.6053C38.8362 44.6053 45.4539 46.7132 48.8657 45.6633C48.5448 45.7775 38.2306 49.4714 31.4412 49.2879C24.5429 49.1044 12.5187 45.6511 12.5187 45.6511L12.5167 45.6531Z" fill="#8C3200"/>
<g id="Group_11">
<g id="Group_12">
<path id="Vector_56" d="M35.4907 5.62109C35.4907 5.62109 34.3521 6.56494 32.089 7.77584C31.2047 8.24879 30.1469 8.7625 28.9214 9.27825" stroke="#602200" stroke-width="0.610077" stroke-miterlimit="10" stroke-linecap="round"/>
<path id="Vector_57" d="M37.1542 5.88256C37.1542 5.88256 35.2303 5.79286 34.6912 5.18945" stroke="#602200" stroke-width="0.610077" stroke-miterlimit="10" stroke-linecap="round"/>
<path id="Vector_58" d="M43.243 5.75971C43.243 5.75971 42.2558 5.13387 42.2699 4.10645" stroke="#602200" stroke-width="0.610077" stroke-miterlimit="10" stroke-linecap="round"/>
</g>
<g id="Group_13">
<path id="Vector_59" d="M30.2177 10.3696C27.4478 10.5551 24.1046 10.8711 20.717 11.4154" stroke="#602200" stroke-width="0.610077" stroke-miterlimit="10" stroke-linecap="round"/>
<path id="Vector_60" d="M22.3723 19.877C21.91 20.2928 21.4436 20.7372 20.9511 21.2265C20.2283 21.94 19.552 22.68 18.7929 23.2936C17.8562 23.9928 16.7277 24.5554 15.4881 24.9815" stroke="#602200" stroke-width="0.610077" stroke-miterlimit="10" stroke-linecap="round"/>
<path id="Vector_61" d="M26.8501 12.5433C26.8501 12.5433 27.3043 12.1845 26.5533 10.6719" stroke="#602200" stroke-width="0.610077" stroke-miterlimit="10" stroke-linecap="round"/>
</g>
</g>
</g>
<g id="Group_14">
<path id="Vector_62" d="M23.9205 43.2563C23.8882 43.4989 23.7933 43.7599 23.5914 44.0167" stroke="#491902" stroke-width="0.610077" stroke-miterlimit="10" stroke-linecap="round"/>
<path id="Vector_63" d="M21.6325 36.0684C21.5499 36.1395 21.4613 36.2087 21.3626 36.2778" stroke="#491902" stroke-width="0.610077" stroke-miterlimit="10" stroke-linecap="round"/>
<path id="Vector_64" d="M18.7768 39.5488C18.7768 39.5488 19.1927 40.6293 18.7183 41.2286" stroke="#491902" stroke-width="0.610077" stroke-miterlimit="10" stroke-linecap="round"/>
<g id="Group_15">
<g id="Group_16">
<path id="Vector_65" d="M36.2496 45.4136C34.2509 45.701 32.6359 46.0883 31.4387 46.4369C31.2388 46.496 31.0531 46.5511 30.8775 46.6082C30.3586 46.7712 29.9428 46.9201 29.6339 47.0383C29.4199 47.1198 29.2564 47.1871 29.1494 47.234" stroke="#602200" stroke-width="0.610077" stroke-miterlimit="10" stroke-linecap="round"/>
<path id="Vector_66" d="M18.4213 44.6929C18.4213 44.6929 20.9348 44.9762 23.7551 45.6143C23.7551 45.6143 23.7591 45.6143 23.7611 45.6143C23.7611 45.6143 23.7631 45.6143 23.7652 45.6143C23.7672 45.6143 23.7692 45.6143 23.7712 45.6143" stroke="#602200" stroke-width="0.610077" stroke-miterlimit="10" stroke-linecap="round"/>
<path id="Vector_67" d="M28.9537 47.2876C29.2646 47.4731 29.5352 47.6892 29.6543 47.9195" stroke="#602200" stroke-width="0.610077" stroke-miterlimit="10" stroke-linecap="round"/>
<path id="Vector_68" d="M28.1075 46.8745C27.732 46.7196 27.4393 46.6299 27.4393 46.6299" stroke="#602200" stroke-width="0.610077" stroke-miterlimit="10" stroke-linecap="round"/>
<path id="Vector_69" d="M21.5099 45.2178C21.5099 45.2178 22.3114 46.0719 22.0449 47.0627" stroke="#602200" stroke-width="0.610077" stroke-miterlimit="10" stroke-linecap="round"/>
</g>
<g id="Group_17">
<path id="Vector_70" d="M35.2627 44.0288C37.2331 44.4019 39.5083 44.7831 41.9067 45.0889" stroke="#602200" stroke-width="0.610077" stroke-miterlimit="10" stroke-linecap="round"/>
<path id="Vector_71" d="M39.0579 42.7729C39.0579 42.7729 38.5309 43.0074 38.8822 44.6606" stroke="#602200" stroke-width="0.610077" stroke-miterlimit="10" stroke-linecap="round"/>
</g>
</g>
<path id="Vector_72" d="M20.1253 33.8535L19.556 34.3367" stroke="#7A2C00" stroke-width="0.0671085" stroke-miterlimit="10"/>
</g>
</g>
<defs>
<clipPath id="clip0_7562_57249">
<rect width="66.149" height="53.9992" fill="white" transform="translate(0.425537 0.000976562)"/>
</clipPath>
</defs>
</svg>
