<svg width="20" height="20" viewBox="0 0 20 20" fill="none" xmlns="http://www.w3.org/2000/svg">
<g id="hint-i-solid-svgrepo-com 1" clip-path="url(#clip0_2540_49390)">
<g id="Layer 2">
<g id="Layer 7">
<g id="Group">
<path id="Vector" d="M11.3337 14.5L9.45867 14.6667C9.45867 14.6667 10.3753 11.375 11.042 9.16668C11.1333 8.91685 11.1651 8.64915 11.1347 8.38489C11.1042 8.12063 11.0126 7.86713 10.8669 7.64457C10.7212 7.422 10.5256 7.23653 10.2956 7.10293C10.0655 6.96933 9.8075 6.89129 9.542 6.87502C9.32978 6.87403 9.11977 6.91809 8.92584 7.00428C8.73191 7.09047 8.55848 7.21683 8.417 7.37502L6.75034 8.75002C6.70452 8.79299 6.67381 8.8496 6.66275 8.91143C6.6517 8.97326 6.66091 9.03701 6.689 9.09319C6.71709 9.14936 6.76256 9.19498 6.81866 9.22323C6.87475 9.25149 6.93847 9.26088 7.00033 9.25002L8.87533 9.08335L7.292 14.5833C7.20067 14.8332 7.16895 15.1009 7.19935 15.3651C7.22976 15.6294 7.32145 15.8829 7.46712 16.1055C7.6128 16.328 7.80844 16.5135 8.03845 16.6471C8.26847 16.7807 8.5265 16.8587 8.792 16.875C9.00422 16.876 9.21423 16.8319 9.40816 16.7457C9.60209 16.6596 9.77552 16.5332 9.917 16.375L11.5837 15C11.6295 14.957 11.6602 14.9004 11.6712 14.8386C11.6823 14.7768 11.6731 14.713 11.645 14.6568C11.6169 14.6007 11.5714 14.5551 11.5153 14.5268C11.4593 14.4985 11.3955 14.4891 11.3337 14.5Z" fill="#FE5E02"/>
<path id="Vector_2" d="M10.834 5.83398C11.5243 5.83398 12.084 5.27434 12.084 4.58398C12.084 3.89363 11.5243 3.33398 10.834 3.33398C10.1436 3.33398 9.58398 3.89363 9.58398 4.58398C9.58398 5.27434 10.1436 5.83398 10.834 5.83398Z" fill="#FE7E34"/>
</g>
</g>
</g>
</g>
<defs>
<clipPath id="clip0_2540_49390">
<rect width="20" height="20" fill="white"/>
</clipPath>
</defs>
</svg>
