<svg width="24" height="24" viewBox="0 0 24 24" fill="none" xmlns="http://www.w3.org/2000/svg">
<g id="hospital-svgrepo-com (1) 1" clip-path="url(#clip0_6862_8534)">
<path id="Vector" d="M22.6459 9.75586H6.98684C6.61405 9.75586 6.31184 10.0581 6.31184 10.4309V14.1877H1.59688C1.22408 14.1877 0.921875 14.49 0.921875 14.8627V22.6235C0.921875 22.9963 1.22408 23.2985 1.59688 23.2985H22.6459C23.0187 23.2985 23.3209 22.9963 23.3209 22.6235V10.4309C23.3209 10.0581 23.0186 9.75586 22.6459 9.75586Z" fill="#FFBF99"/>
<path id="Vector_2" d="M23.3784 8.85938H10.0642C9.97467 8.85938 9.88883 8.89493 9.82554 8.95823C9.76224 9.02152 9.72668 9.10736 9.72668 9.19687V9.99328C9.72668 10.099 9.76869 10.2004 9.84345 10.2752C9.91822 10.3499 10.0196 10.392 10.1254 10.392H23.3172C23.423 10.392 23.5244 10.3499 23.5991 10.2752C23.6739 10.2004 23.7159 10.099 23.7159 9.99328V9.19687C23.7159 9.10736 23.6803 9.02152 23.617 8.95822C23.5537 8.89493 23.4679 8.85937 23.3784 8.85938Z" fill="#680031"/>
<path id="Vector_3" d="M0.864844 13.1211H14.1791C14.2686 13.1211 14.3544 13.1567 14.4177 13.2199C14.481 13.2832 14.5166 13.3691 14.5166 13.4586V14.255C14.5166 14.3607 14.4746 14.4621 14.3998 14.5369C14.325 14.6117 14.2236 14.6537 14.1179 14.6537H0.926016C0.820281 14.6537 0.718878 14.6117 0.644112 14.5369C0.569347 14.4621 0.527344 14.3607 0.527344 14.255V13.4586C0.527344 13.3691 0.562902 13.2832 0.626195 13.2199C0.689489 13.1567 0.775333 13.1211 0.864844 13.1211Z" fill="#680031"/>
<path id="Vector_4" d="M14.832 1.40625H2.75157C2.55647 1.40625 2.39832 1.59347 2.39832 1.82437V22.8786C2.39832 23.1095 2.55647 23.2967 2.75157 23.2967H14.832C15.0271 23.2967 15.1852 23.1095 15.1852 22.8786V1.82437C15.1852 1.59347 15.0271 1.40625 14.832 1.40625Z" fill="#CFDBE2"/>
<path id="Vector_5" d="M11.0119 5.32258H9.45844V3.76914C9.45844 3.67963 9.42288 3.59379 9.35959 3.53049C9.29629 3.4672 9.21045 3.43164 9.12094 3.43164H8.46281C8.3733 3.43164 8.28746 3.4672 8.22416 3.53049C8.16087 3.59379 8.12531 3.67963 8.12531 3.76914V5.32258H6.57188C6.48237 5.32258 6.39652 5.35814 6.33323 5.42143C6.26993 5.48472 6.23438 5.57057 6.23438 5.66008V6.3182C6.23438 6.40771 6.26993 6.49356 6.33323 6.55685C6.39652 6.62015 6.48237 6.6557 6.57188 6.6557H8.12531V8.20914C8.12531 8.29865 8.16087 8.3845 8.22416 8.44779C8.28746 8.51108 8.3733 8.54664 8.46281 8.54664H9.12094C9.21045 8.54664 9.29629 8.51108 9.35959 8.44779C9.42288 8.3845 9.45844 8.29865 9.45844 8.20914V6.6557H11.0119C11.1014 6.6557 11.1872 6.62015 11.2505 6.55685C11.3138 6.49356 11.3494 6.40771 11.3494 6.3182V5.66008C11.3494 5.57057 11.3138 5.48472 11.2505 5.42143C11.1872 5.35814 11.1014 5.32258 11.0119 5.32258Z" fill="#F04438"/>
<path id="Vector_6" d="M21.745 17.2676H16.7867C16.6972 17.2676 16.6113 17.232 16.548 17.1687C16.4847 17.1054 16.4492 17.0196 16.4492 16.9301V14.9412C16.4492 14.8517 16.4847 14.7659 16.548 14.7026C16.6113 14.6393 16.6972 14.6037 16.7867 14.6037H21.7451C21.8346 14.6037 21.9204 14.6393 21.9837 14.7026C22.047 14.7659 22.0826 14.8517 22.0826 14.9412V16.9301C22.0826 17.0196 22.047 17.1055 21.9837 17.1687C21.9204 17.232 21.8346 17.2676 21.745 17.2676ZM22.1406 21.1098V19.121C22.1406 19.0315 22.1051 18.9456 22.0418 18.8823C21.9785 18.819 21.8926 18.7835 21.8031 18.7835H16.7286C16.6391 18.7835 16.5533 18.819 16.49 18.8823C16.4267 18.9456 16.3911 19.0315 16.3911 19.121V21.1098C16.3911 21.1994 16.4267 21.2852 16.49 21.3485C16.5533 21.4118 16.6391 21.4473 16.7286 21.4473H21.8031C21.8926 21.4473 21.9785 21.4118 22.0418 21.3485C22.1051 21.2852 22.1406 21.1994 22.1406 21.1098ZM22.1406 12.6175V11.9605C22.1406 11.871 22.1051 11.7852 22.0418 11.7219C21.9785 11.6586 21.8926 11.623 21.8031 11.623H16.7286C16.6391 11.623 16.5533 11.6586 16.49 11.7219C16.4267 11.7852 16.3911 11.871 16.3911 11.9605V12.6175C16.3911 12.707 16.4267 12.7929 16.49 12.8561C16.5533 12.9194 16.6391 12.955 16.7286 12.955H21.8031C21.8926 12.955 21.9785 12.9194 22.0418 12.8561C22.1051 12.7929 22.1406 12.707 22.1406 12.6175Z" fill="white"/>
<path id="Vector_7" d="M4.72705 19.7402H12.8564V23.2978H4.72705V19.7402Z" fill="#2B3B47"/>
<path id="Vector_8" d="M9.63941 17.2683H7.96551C7.876 17.2683 7.79015 17.2327 7.72686 17.1694C7.66357 17.1061 7.62801 17.0203 7.62801 16.9308V14.8278C7.62801 14.7383 7.66357 14.6525 7.72686 14.5892C7.79015 14.5259 7.876 14.4903 7.96551 14.4903H9.63941C9.72893 14.4903 9.81477 14.5259 9.87806 14.5892C9.94136 14.6525 9.97691 14.7383 9.97691 14.8278V16.9308C9.97691 17.0203 9.94136 17.1061 9.87806 17.1694C9.81477 17.2327 9.72893 17.2683 9.63941 17.2683ZM13.6313 16.9308V14.8278C13.6313 14.7383 13.5958 14.6525 13.5325 14.5892C13.4692 14.5259 13.3833 14.4903 13.2938 14.4903H11.6199C11.5304 14.4903 11.4446 14.5259 11.3813 14.5892C11.318 14.6525 11.2824 14.7383 11.2824 14.8278V16.9308C11.2824 17.0203 11.318 17.1061 11.3813 17.1694C11.4446 17.2327 11.5304 17.2683 11.6199 17.2683H13.2938C13.3833 17.2683 13.4692 17.2327 13.5325 17.1694C13.5958 17.1061 13.6313 17.0203 13.6313 16.9308ZM6.32254 16.9308V14.8278C6.32254 14.7383 6.28698 14.6525 6.22369 14.5892C6.16039 14.5259 6.07455 14.4903 5.98504 14.4903H4.31113C4.22162 14.4903 4.13578 14.5259 4.07248 14.5892C4.00919 14.6525 3.97363 14.7383 3.97363 14.8278V16.9308C3.97363 17.0203 4.00919 17.1061 4.07248 17.1694C4.13578 17.2327 4.22162 17.2683 4.31113 17.2683H5.98504C6.07455 17.2683 6.16039 17.2327 6.22369 17.1694C6.28698 17.1061 6.32254 17.0203 6.32254 16.9308ZM5.39563 12.6182V10.5152C5.39563 10.4709 5.3869 10.427 5.36994 10.3861C5.35298 10.3451 5.32812 10.3079 5.29678 10.2766C5.26544 10.2452 5.22824 10.2204 5.18729 10.2034C5.14634 10.1865 5.10245 10.1777 5.05813 10.1777H4.31113C4.26681 10.1777 4.22292 10.1865 4.18198 10.2034C4.14103 10.2204 4.10382 10.2452 4.07248 10.2766C4.04114 10.3079 4.01628 10.3451 3.99932 10.3861C3.98236 10.427 3.97363 10.4709 3.97363 10.5152V12.6182C3.97363 12.6625 3.98236 12.7064 3.99932 12.7473C4.01628 12.7883 4.04114 12.8255 4.07248 12.8568C4.10382 12.8882 4.14103 12.913 4.18198 12.93C4.22292 12.947 4.26681 12.9557 4.31113 12.9557H5.05813C5.14764 12.9557 5.23349 12.9201 5.29678 12.8568C5.36008 12.7935 5.39563 12.7077 5.39563 12.6182ZM8.14087 12.6182V10.5152C8.14087 10.4257 8.10531 10.3399 8.04202 10.2766C7.97872 10.2133 7.89288 10.1777 7.80337 10.1777H7.05637C6.96686 10.1777 6.88101 10.2133 6.81772 10.2766C6.75443 10.3399 6.71887 10.4257 6.71887 10.5152V12.6182C6.71887 12.7077 6.75443 12.7935 6.81772 12.8568C6.88101 12.9201 6.96686 12.9557 7.05637 12.9557H7.80337C7.89288 12.9557 7.97872 12.9201 8.04202 12.8568C8.10531 12.7935 8.14087 12.7077 8.14087 12.6182ZM10.8861 12.6182V10.5152C10.8861 10.4257 10.8505 10.3399 10.7873 10.2766C10.724 10.2133 10.6381 10.1777 10.5486 10.1777H9.8016C9.71209 10.1777 9.62625 10.2133 9.56295 10.2766C9.49966 10.3399 9.4641 10.4257 9.4641 10.5152V12.6182C9.4641 12.7077 9.49966 12.7935 9.56295 12.8568C9.62625 12.9201 9.71209 12.9557 9.8016 12.9557H10.5486C10.6381 12.9557 10.724 12.9201 10.7873 12.8568C10.8505 12.7935 10.8861 12.7077 10.8861 12.6182ZM13.6313 12.6182V10.5152C13.6313 10.4257 13.5958 10.3399 13.5325 10.2766C13.4692 10.2133 13.3833 10.1777 13.2938 10.1777H12.5468C12.4573 10.1777 12.3715 10.2133 12.3082 10.2766C12.2449 10.3399 12.2093 10.4257 12.2093 10.5152V12.6182C12.2093 12.7077 12.2449 12.7935 12.3082 12.8568C12.3715 12.9201 12.4573 12.9557 12.5468 12.9557H13.2938C13.3833 12.9557 13.4692 12.9201 13.5325 12.8568C13.5958 12.7935 13.6313 12.7077 13.6313 12.6182Z" fill="white"/>
<path id="Vector_9" d="M12.8564 20.1148H4.72705V19.7295C4.72705 19.4744 4.93386 19.2676 5.18896 19.2676H12.3945C12.6496 19.2676 12.8564 19.4744 12.8564 19.7295L12.8564 20.1148Z" fill="#67747C"/>
<path id="Vector_10" d="M15.4594 0.939453H2.14512C2.05561 0.939453 1.96976 0.975011 1.90647 1.0383C1.84318 1.1016 1.80762 1.18744 1.80762 1.27695V2.07336C1.80762 2.17909 1.84962 2.2805 1.92439 2.35526C1.99915 2.43003 2.10055 2.47203 2.20629 2.47203H15.3982C15.5039 2.47203 15.6053 2.43003 15.6801 2.35526C15.7548 2.2805 15.7968 2.17909 15.7968 2.07336V1.27695C15.7968 1.18744 15.7613 1.1016 15.698 1.0383C15.6347 0.975011 15.5489 0.939453 15.4594 0.939453Z" fill="#680031"/>
</g>
<defs>
<clipPath id="clip0_6862_8534">
<rect width="24" height="24" fill="white"/>
</clipPath>
</defs>
</svg>
