<svg width="36" height="37" viewBox="0 0 36 37" fill="none" xmlns="http://www.w3.org/2000/svg">
<g id="settings-gear-svgrepo-com (1) 1" clip-path="url(#clip0_2701_71500)">
<path id="Vector" d="M24.1372 10.6039C23.9127 9.70579 23.5385 8.80764 23.0894 7.98442L23.9875 5.8888L20.844 2.82018L18.7484 3.71832C17.9251 3.26929 17.1018 2.89503 16.1289 2.67048L15.3805 0.5H10.9647L10.1414 2.67048C9.24321 2.89503 8.34507 3.26921 7.52185 3.71832L5.42615 2.82018L2.35753 5.8888L3.25568 7.98442C2.80664 8.80771 2.43238 9.63101 2.20783 10.6039L0.0373535 11.4272V15.843L2.20783 16.6663C2.43238 17.5645 2.80657 18.4626 3.25568 19.2858L2.35753 21.3815L5.501 24.4501L7.59663 23.5519C8.41992 24.001 9.24321 24.3752 10.2161 24.5998L11.0394 26.7703H15.3804L16.2037 24.5998C17.1018 24.3752 18 24.001 18.8232 23.5519L20.9188 24.4501L24.0623 21.3815L23.1641 19.2858C23.6132 18.4625 23.9874 17.6392 24.212 16.6663L26.3825 15.843V11.4272L24.1372 10.6039ZM13.1351 18.9865C10.1414 18.9865 7.74633 16.5915 7.74633 13.5977C7.74633 10.6039 10.1414 8.2089 13.1351 8.2089C16.1289 8.2089 18.5239 10.6039 18.5239 13.5977C18.5239 16.5915 16.1289 18.9865 13.1351 18.9865Z" fill="#6FD9BB"/>
<g id="Group">
<path id="Vector_2" d="M16.9521 17.4153C14.8565 19.511 11.4884 19.511 9.39282 17.4153L7.4469 19.3613C10.5904 22.5047 15.7546 22.5047 18.898 19.3613C22.0414 16.2178 22.0415 11.1284 18.898 7.91016L16.9521 9.85608C19.0478 11.9517 19.0478 15.3197 16.9521 17.4153Z" fill="#28A487"/>
<path id="Vector_3" d="M7.44696 7.91034C4.30349 11.0538 4.30349 16.1432 7.44696 19.3615L9.39288 17.4155C7.29726 15.3199 7.29726 11.9519 9.39288 9.85626C11.4885 7.76064 14.8565 7.76064 16.9522 9.85626L18.8981 7.91034C15.7547 4.76687 10.5904 4.76687 7.44696 7.91034Z" fill="#28A487"/>
</g>
<path id="Vector_4" d="M25.4096 31.1859C25.4844 30.7368 25.4844 30.3626 25.4096 29.9136L26.158 29.1651L25.4096 27.294H24.3617C24.1372 26.9946 23.763 26.6953 23.4636 26.3959V25.3481L21.5925 24.5996L20.8441 25.3481C20.3951 25.2732 20.0208 25.2732 19.5718 25.3481L18.8233 24.5996L16.9522 25.3481V26.3959C16.6528 26.6205 16.3535 26.9946 16.0541 27.294H15.0063L14.2578 29.1651L15.0063 29.9136C14.9314 30.3626 14.9314 30.7368 15.0063 31.1859L14.2578 31.9343L15.0063 33.8054H16.0541C16.2787 34.1048 16.6528 34.4041 16.9522 34.7035V35.7514L18.8233 36.4998L19.5718 35.7514C20.0208 35.8262 20.3951 35.8262 20.8441 35.7514L21.5925 36.4998L23.4636 35.7514V34.7035C23.763 34.479 24.0623 34.1048 24.3617 33.8054H25.4096L26.158 31.9343L25.4096 31.1859ZM19.4221 32.7576C18.1497 32.2337 17.551 30.8117 18.0749 29.6141C18.5988 28.3418 20.0208 27.7431 21.2183 28.267C22.4907 28.7909 23.0894 30.2129 22.5655 31.4104C22.0416 32.6828 20.6195 33.2815 19.4221 32.7576Z" fill="#680031"/>
<path id="Vector_5" d="M35.214 21.3812C35.2889 20.9322 35.2889 20.5579 35.214 20.1089L35.9625 19.3604L35.214 17.4894H34.1662C33.9416 17.19 33.5674 16.8906 33.268 16.5912V15.5434L31.397 14.7949L30.6485 15.5434C30.1995 15.4685 29.8252 15.4685 29.3762 15.5434L28.6278 14.7949L26.7567 15.5434V16.5912C26.4573 16.8158 26.158 17.19 25.8585 17.4894H24.8107L24.0623 19.3604L24.8107 20.1089C24.7358 20.5579 24.7358 20.9322 24.8107 21.3812L24.0623 22.1296L24.8107 24.0007H25.8585C26.0831 24.3001 26.4573 24.5994 26.7567 24.8989V25.9467L28.6278 26.6951L29.3762 25.9467C29.8252 26.0216 30.1995 26.0216 30.6485 25.9467L31.397 26.6951L33.268 25.9467V24.8989C33.5674 24.6743 33.8668 24.3001 34.1662 24.0007H35.214L35.9625 22.1296L35.214 21.3812ZM29.1517 23.0277C27.8794 22.5038 27.2807 21.0818 27.8045 19.8842C28.3284 18.6119 29.7505 18.0132 30.948 18.5371C32.2203 19.0609 32.8191 20.483 32.2952 21.6805C31.8461 22.9529 30.4241 23.5517 29.1517 23.0277Z" fill="#FE5E02"/>
</g>
<defs>
<clipPath id="clip0_2701_71500">
<rect width="36" height="36" fill="white" transform="translate(0 0.5)"/>
</clipPath>
</defs>
</svg>
