<svg width="90" height="100" viewBox="0 0 90 100" fill="none" xmlns="http://www.w3.org/2000/svg">
<path d="M77.3533 72.6171V41.1772C77.3533 23.3091 62.8684 8.82422 45.0004 8.82422C27.1324 8.82422 12.6475 23.3091 12.6475 41.1772V72.6171H18.5298C26.4307 72.6171 35.2542 72.6171 45.0004 72.6171C54.7466 72.6171 63.5701 72.6171 71.471 72.6171H77.3533Z" fill="#FFCCE4"/>
<path d="M78.8237 67.6484C84.509 67.6484 89.1179 72.2573 89.1179 77.9426C89.1179 83.6278 84.509 88.2367 78.8237 88.2367H11.1767C5.4914 88.2367 0.882568 83.6278 0.882568 77.9426C0.882568 72.2573 5.4914 67.6484 11.1767 67.6484H78.8237Z" fill="#CC005F"/>
<path d="M27.3533 82.3529C27.3533 92.0991 35.2542 100 45.0004 100C54.7466 100 62.6475 92.0991 62.6475 82.3529H27.3533Z" fill="#FF99C9"/>
<path d="M39.1178 14.8906L50.8825 14.8906H56.7649V10.2941C56.7649 4.60886 52.1561 3.05176e-05 46.4708 3.05176e-05H43.5296C37.8443 3.05176e-05 33.2355 4.60886 33.2355 10.2941V14.8906L39.1178 14.8906Z" fill="#FF99C9"/>
<path d="M71.4708 8.82422C63.3489 8.82422 56.7649 15.4083 56.7649 23.5301C56.7649 31.6519 63.3489 38.236 71.4708 38.236C79.5926 38.236 86.1767 31.6519 86.1767 23.5301C86.1767 15.4083 79.5926 8.82422 71.4708 8.82422Z" fill="#F04438"/>
</svg>
