<svg width="28" height="28" viewBox="0 0 28 28" fill="none" xmlns="http://www.w3.org/2000/svg">
<g id="wish-list-checklist-svgrepo-com 1">
<g id="_x30_18_Wishlist">
<g id="Group">
<g id="Group_2">
<g id="Group_3">
<g id="Group_4">
<path id="Vector" d="M24.1552 4.15961V26.5707C24.1552 27.24 23.6151 27.7801 22.9458 27.7801H5.02631C4.35699 27.7801 3.81689 27.24 3.81689 26.5707V4.15961C3.81689 3.49029 4.35699 2.9502 5.02631 2.9502H22.9458C23.6151 2.9502 24.1552 3.49023 24.1552 4.15961Z" fill="#6FD9BB"/>
</g>
</g>
<g id="Group_5">
<g id="Group_6">
<path id="Vector_2" d="M6.47379 27.7825H5.02457C4.35777 27.7825 3.81543 27.2402 3.81543 26.5734V4.15939C3.81543 3.49259 4.35777 2.9502 5.02457 2.9502H6.47379C5.8025 2.9502 5.26454 3.49253 5.26454 4.15939V26.5733C5.26448 27.2402 5.8025 27.7825 6.47379 27.7825Z" fill="#6FD9BB"/>
</g>
</g>
<g id="Group_7">
<g id="Group_8">
<path id="Vector_3" d="M24.1549 4.15939V26.5733C24.1549 27.2401 23.6126 27.7825 22.9458 27.7825H21.4966C22.1679 27.7825 22.7058 27.2401 22.7058 26.5733V4.15939C22.7058 3.49259 22.1678 2.9502 21.4966 2.9502H22.9458C23.6126 2.9502 24.1549 3.49253 24.1549 4.15939Z" fill="#6FD9BB"/>
</g>
</g>
<path id="Vector_4" d="M22.3428 4.76172H5.62744V25.9691H22.3428V4.76172Z" fill="#28A487"/>
<g id="Group_9">
<path id="Vector_5" d="M19.1511 2.67444V5.01014C19.1511 5.30556 18.911 5.54564 18.6156 5.54564H9.41587C9.12045 5.54564 8.88037 5.30562 8.88037 5.01014V2.67444C8.88037 2.37902 9.12039 2.13899 9.41587 2.13899H9.61439C10.773 2.13899 11.8347 1.60349 12.6517 0.786516C13.0026 0.435695 13.4826 0.21875 14.0135 0.21875C14.5489 0.21875 15.029 0.431102 15.3752 0.781922C16.1969 1.60355 17.2586 2.13905 18.4172 2.13905H18.6157C18.911 2.13899 19.1511 2.37896 19.1511 2.67444Z" fill="#145244"/>
</g>
<g id="Group_10">
<path id="Vector_6" d="M10.6749 2.14061H10.7614V1.95801C10.3934 2.07356 10.0093 2.14061 9.61237 2.14061H9.41681C9.11898 2.14061 8.87891 2.38069 8.87891 2.67409V5.00793C8.87891 5.30576 9.11898 5.54584 9.41681 5.54584H10.6749C10.3816 5.54584 10.1415 5.30576 10.1415 5.00793V2.67409C10.1414 2.38069 10.3815 2.14061 10.6749 2.14061Z" fill="#145244"/>
</g>
<g id="Group_11">
<path id="Vector_7" d="M17.3551 2.14061H17.2686V1.95801C17.6366 2.07356 18.0207 2.14061 18.4176 2.14061H18.6132C18.911 2.14061 19.1511 2.38069 19.1511 2.67409V5.00793C19.1511 5.30576 18.911 5.54584 18.6132 5.54584H17.3551C17.6484 5.54584 17.8885 5.30576 17.8885 5.00793V2.67409C17.8885 2.38069 17.6485 2.14061 17.3551 2.14061Z" fill="#145244"/>
</g>
<g id="Group_12">
<path id="Vector_8" d="M15.274 3.04866C15.274 3.74248 14.7112 4.30532 14.0126 4.30532C13.3187 4.30532 12.7559 3.74248 12.7559 3.04866C12.7559 2.35484 13.3187 1.79199 14.0126 1.79199C14.7112 1.79205 15.274 2.35484 15.274 3.04866Z" fill="white"/>
<path id="Vector_9" d="M14.0127 4.52418C13.199 4.52418 12.5371 3.86235 12.5371 3.0486C12.5371 2.23507 13.1989 1.57324 14.0127 1.57324C14.829 1.57324 15.4929 2.23507 15.4929 3.0486C15.493 3.86235 14.829 4.52418 14.0127 4.52418ZM14.0127 2.01085C13.4404 2.01085 12.9747 2.47635 12.9747 3.04866C12.9747 3.62096 13.4404 4.08668 14.0127 4.08668C14.5876 4.08668 15.0554 3.62096 15.0554 3.04866C15.0554 2.47635 14.5876 2.01085 14.0127 2.01085Z" fill="white"/>
</g>
</g>
<g id="Group_13">
<g id="Group_14">
<g id="Group_15">
<g id="Group_16">
<path id="Vector_10" d="M20.1209 23.7686H13.083C12.9621 23.7686 12.8643 23.6707 12.8643 23.5498C12.8643 23.4289 12.9621 23.3311 13.083 23.3311H20.1209C20.2418 23.3311 20.3396 23.4289 20.3396 23.5498C20.3396 23.6708 20.2418 23.7686 20.1209 23.7686Z" fill="white"/>
</g>
<g id="Group_17">
<path id="Vector_11" d="M16.6445 22.2383H13.083C12.9621 22.2383 12.8643 22.1404 12.8643 22.0195C12.8643 21.8986 12.9621 21.8008 13.083 21.8008H16.6445C16.7654 21.8008 16.8632 21.8986 16.8632 22.0195C16.8632 22.1404 16.7654 22.2383 16.6445 22.2383Z" fill="white"/>
</g>
</g>
<g id="Group_18">
<path id="Vector_12" d="M10.8601 21.965V23.6045C10.8601 23.9816 10.5544 24.2873 10.1774 24.2873H8.53336C8.15629 24.2873 7.85059 23.9816 7.85059 23.6045V21.965C7.85059 21.5879 8.15629 21.2822 8.53336 21.2822H10.1774C10.5544 21.2822 10.8601 21.5879 10.8601 21.965Z" fill="#FE5E02"/>
</g>
<g id="Group_19">
<path id="Vector_13" d="M10.8616 21.9634V23.6038C10.8616 23.9816 10.5549 24.2883 10.177 24.2883H8.5322C8.15431 24.2883 7.85205 23.9816 7.85205 23.6038V23.2392H9.12796C9.50575 23.2392 9.81249 22.9325 9.81249 22.5546V21.2832H10.177C10.5549 21.2832 10.8616 21.5899 10.8616 21.9634Z" fill="#FE5E02"/>
</g>
<g id="Group_20">
<path id="Vector_14" d="M10.1773 24.5062H8.53336C8.03625 24.5062 7.63184 24.1018 7.63184 23.6046V21.965C7.63184 21.4679 8.03625 21.0635 8.53336 21.0635H10.1773C10.6744 21.0635 11.0788 21.4679 11.0788 21.965V23.6046C11.0788 24.1018 10.6744 24.5062 10.1773 24.5062ZM8.53336 21.5011C8.27742 21.5011 8.06934 21.7092 8.06934 21.9651V23.6047C8.06934 23.8607 8.27742 24.0688 8.53336 24.0688H10.1773C10.4332 24.0688 10.6413 23.8607 10.6413 23.6047V21.9651C10.6413 21.7092 10.4332 21.5011 10.1773 21.5011H8.53336Z" fill="white"/>
</g>
</g>
<g id="Group_21">
<g id="Group_22">
<g id="Group_23">
<path id="Vector_15" d="M20.1209 19.083H13.083C12.9621 19.083 12.8643 18.9852 12.8643 18.8643C12.8643 18.7433 12.9621 18.6455 13.083 18.6455H20.1209C20.2418 18.6455 20.3396 18.7433 20.3396 18.8643C20.3396 18.9852 20.2418 19.083 20.1209 19.083Z" fill="white"/>
</g>
<g id="Group_24">
<path id="Vector_16" d="M16.6445 17.5527H13.083C12.9621 17.5527 12.8643 17.4549 12.8643 17.334C12.8643 17.2131 12.9621 17.1152 13.083 17.1152H16.6445C16.7654 17.1152 16.8632 17.2131 16.8632 17.334C16.8632 17.4548 16.7654 17.5527 16.6445 17.5527Z" fill="white"/>
</g>
</g>
<g id="Group_25">
<path id="Vector_17" d="M10.8601 17.2795V18.919C10.8601 19.2961 10.5544 19.6018 10.1774 19.6018H8.53336C8.15629 19.6018 7.85059 19.2961 7.85059 18.919V17.2795C7.85059 16.9024 8.15629 16.5967 8.53336 16.5967H10.1774C10.5544 16.5967 10.8601 16.9024 10.8601 17.2795Z" fill="#FE5E02"/>
</g>
<g id="Group_26">
<path id="Vector_18" d="M10.8616 17.2779V18.9182C10.8616 19.296 10.5549 19.6028 10.177 19.6028H8.5322C8.15431 19.6028 7.85205 19.296 7.85205 18.9182V18.5537H9.12796C9.50575 18.5537 9.81249 18.2469 9.81249 17.8691V16.5977H10.177C10.5549 16.5977 10.8616 16.9045 10.8616 17.2779Z" fill="#FE5E02"/>
</g>
<g id="Group_27">
<path id="Vector_19" d="M10.1773 19.8206H8.53336C8.03625 19.8206 7.63184 19.4162 7.63184 18.9191V17.2795C7.63184 16.7823 8.03625 16.3779 8.53336 16.3779H10.1773C10.6744 16.3779 11.0788 16.7823 11.0788 17.2795V18.9191C11.0788 19.4162 10.6744 19.8206 10.1773 19.8206ZM8.53336 16.8155C8.27742 16.8155 8.06934 17.0236 8.06934 17.2795V18.9191C8.06934 19.1751 8.27742 19.3832 8.53336 19.3832H10.1773C10.4332 19.3832 10.6413 19.1751 10.6413 18.9191V17.2795C10.6413 17.0236 10.4332 16.8155 10.1773 16.8155H8.53336Z" fill="white"/>
</g>
</g>
<g id="Group_28">
<g id="Group_29">
<g id="Group_30">
<path id="Vector_20" d="M20.1209 14.3984H13.083C12.9621 14.3984 12.8643 14.3006 12.8643 14.1797C12.8643 14.0588 12.9621 13.9609 13.083 13.9609H20.1209C20.2418 13.9609 20.3396 14.0588 20.3396 14.1797C20.3396 14.3006 20.2418 14.3984 20.1209 14.3984Z" fill="white"/>
</g>
<g id="Group_31">
<path id="Vector_21" d="M16.6445 12.8682H13.083C12.9621 12.8682 12.8643 12.7703 12.8643 12.6494C12.8643 12.5285 12.9621 12.4307 13.083 12.4307H16.6445C16.7654 12.4307 16.8632 12.5285 16.8632 12.6494C16.8632 12.7703 16.7654 12.8682 16.6445 12.8682Z" fill="white"/>
</g>
</g>
<g id="Group_32">
<path id="Vector_22" d="M10.8601 12.5949V14.2344C10.8601 14.6115 10.5544 14.9172 10.1774 14.9172H8.53336C8.15629 14.9172 7.85059 14.6115 7.85059 14.2344V12.5949C7.85059 12.2178 8.15629 11.9121 8.53336 11.9121H10.1774C10.5544 11.9121 10.8601 12.2178 10.8601 12.5949Z" fill="#FE5E02"/>
</g>
<g id="Group_33">
<path id="Vector_23" d="M10.8616 12.5933V14.2336C10.8616 14.6115 10.5549 14.9182 10.177 14.9182H8.5322C8.15431 14.9182 7.85205 14.6115 7.85205 14.2336V13.8691H9.12796C9.50575 13.8691 9.81249 13.5624 9.81249 13.1845V11.9131H10.177C10.5549 11.9131 10.8616 12.2199 10.8616 12.5933Z" fill="#FE5E02"/>
</g>
<g id="Group_34">
<path id="Vector_24" d="M10.1773 15.136H8.53336C8.03625 15.136 7.63184 14.7314 7.63184 14.2343V12.5949C7.63184 12.0978 8.03625 11.6934 8.53336 11.6934H10.1773C10.6744 11.6934 11.0788 12.0978 11.0788 12.5949V14.2343C11.0788 14.7314 10.6744 15.136 10.1773 15.136ZM8.53336 12.1309C8.27742 12.1309 8.06934 12.3389 8.06934 12.5949V14.2343C8.06934 14.4902 8.27742 14.6985 8.53336 14.6985H10.1773C10.4332 14.6985 10.6413 14.4902 10.6413 14.2343V12.5949C10.6413 12.3389 10.4332 12.1309 10.1773 12.1309H8.53336Z" fill="white"/>
</g>
</g>
<g id="Group_35">
<g id="Group_36">
<g id="Group_37">
<path id="Vector_25" d="M20.1209 9.71191H13.083C12.9621 9.71191 12.8643 9.61408 12.8643 9.49316C12.8643 9.37225 12.9621 9.27441 13.083 9.27441H20.1209C20.2418 9.27441 20.3396 9.37225 20.3396 9.49316C20.3396 9.61408 20.2418 9.71191 20.1209 9.71191Z" fill="white"/>
</g>
<g id="Group_38">
<path id="Vector_26" d="M16.6445 8.18164H13.083C12.9621 8.18164 12.8643 8.0838 12.8643 7.96289C12.8643 7.84198 12.9621 7.74414 13.083 7.74414H16.6445C16.7654 7.74414 16.8632 7.84198 16.8632 7.96289C16.8632 8.0838 16.7654 8.18164 16.6445 8.18164Z" fill="white"/>
</g>
</g>
<g id="Group_39">
<path id="Vector_27" d="M10.8601 7.90836V9.54789C10.8601 9.92496 10.5544 10.2307 10.1774 10.2307H8.53336C8.15629 10.2307 7.85059 9.92496 7.85059 9.54789V7.90836C7.85059 7.53129 8.15629 7.22559 8.53336 7.22559H10.1774C10.5544 7.22559 10.8601 7.53129 10.8601 7.90836Z" fill="#FE5E02"/>
</g>
<g id="Group_40">
<path id="Vector_28" d="M10.8616 7.90677V9.54712C10.8616 9.92495 10.5549 10.2317 10.177 10.2317H8.5322C8.15431 10.2317 7.85205 9.92495 7.85205 9.54712V9.18257H9.12796C9.50575 9.18257 9.81249 8.87583 9.81249 8.49799V7.22656H10.177C10.5549 7.22662 10.8616 7.53336 10.8616 7.90677Z" fill="#FE5E02"/>
</g>
<g id="Group_41">
<path id="Vector_29" d="M10.1773 10.4495H8.53336C8.03625 10.4495 7.63184 10.0451 7.63184 9.548V7.90836C7.63184 7.41125 8.03625 7.00684 8.53336 7.00684H10.1773C10.6744 7.00684 11.0788 7.41125 11.0788 7.90836V9.548C11.0788 10.0451 10.6744 10.4495 10.1773 10.4495ZM8.53336 7.44439C8.27742 7.44439 8.06934 7.65248 8.06934 7.90841V9.54805C8.06934 9.80399 8.27742 10.0121 8.53336 10.0121H10.1773C10.4332 10.0121 10.6413 9.80399 10.6413 9.54805V7.90841C10.6413 7.65248 10.4332 7.44439 10.1773 7.44439H8.53336Z" fill="white"/>
</g>
</g>
</g>
</g>
</g>
<path id="Vector_30" d="M9.31452 9.4498L8.75 8.88529L8.99516 8.64013L9.31452 8.95626L10.2242 8.0498L10.4694 8.29497L9.31452 9.4498Z" fill="white"/>
<path id="Vector_31" d="M9.31452 13.9996L8.75 13.4351L8.99516 13.1899L9.31452 13.5061L10.2242 12.5996L10.4694 12.8448L9.31452 13.9996Z" fill="white"/>
</g>
</svg>
