<svg width="25" height="24" viewBox="0 0 25 24" fill="none" xmlns="http://www.w3.org/2000/svg">
<g clip-path="url(#clip0_5079_9315)">
<path d="M23.8407 17.9093L23.846 17.904C21.6534 16.1216 19.031 14.8526 16.1619 14.2582C17.1402 13.3046 17.75 11.9745 17.75 10.5C18.3714 10.5 18.875 9.99638 18.875 9.375V8.625C18.875 8.29275 18.7284 7.99762 18.5 7.79175V4.5C18.5 2.01487 16.4851 0 14 0H11C8.51488 0 6.5 2.01487 6.5 4.5V7.79175C6.27163 7.99762 6.125 8.29275 6.125 8.625V9.375C6.125 9.99638 6.62862 10.5 7.25 10.5C7.25 11.9745 7.85975 13.3046 8.8385 14.2582C5.969 14.853 3.34625 16.1216 1.154 17.904L1.15925 17.9093C0.752 18.3165 0.5 18.879 0.5 19.5V22.5C0.5 23.3291 1.17088 24 2 24H23C23.8291 24 24.5 23.3291 24.5 22.5V19.5C24.5 18.879 24.248 18.3165 23.8407 17.9093ZM8 10.5V10.125C8 9.91763 7.83238 9.75 7.625 9.75H7.25C7.04262 9.75 6.875 9.58237 6.875 9.375V8.625C6.875 8.41763 7.04262 8.25 7.25 8.25H7.625C7.83238 8.25 8 8.08237 8 7.875V7.5V7.125C8 6.29663 8.67163 5.625 9.5 5.625C10.283 5.625 10.9722 5.2245 11.375 4.61737C11.7778 5.2245 12.467 5.625 13.25 5.625H15.5C16.3284 5.625 17 6.29663 17 7.125V7.5V7.875C17 8.08237 17.1676 8.25 17.375 8.25H17.75C17.9574 8.25 18.125 8.41763 18.125 8.625V9.375C18.125 9.58237 17.9574 9.75 17.75 9.75H17.375C17.1676 9.75 17 9.91763 17 10.125V10.5C17 12.9851 14.9851 15 12.5 15C10.0149 15 8 12.9851 8 10.5ZM9.60687 14.8793C10.4368 15.4286 11.4301 15.75 12.5 15.75C13.5699 15.75 14.5632 15.4286 15.3931 14.8793C16.0156 14.9846 16.6295 15.1155 17.2276 15.2858C16.0081 16.4936 14.3416 17.25 12.4899 17.25C10.6404 17.25 8.97575 16.4959 7.757 15.2902C8.36 15.1181 8.97875 14.9854 9.60687 14.8793Z" fill="#667085"/>
</g>
<defs>
<clipPath id="clip0_5079_9315">
<rect width="24" height="24" fill="white" transform="translate(0.5)"/>
</clipPath>
</defs>
</svg>
