<svg width="20" height="20" viewBox="0 0 20 20" fill="none" xmlns="http://www.w3.org/2000/svg">
<g id="vuesax/linear/profile-add">
<g id="profile-add">
<path id="Vector" d="M15.4167 16.25H12.0834" stroke="#28A487" stroke-width="1.5" stroke-linecap="round" stroke-linejoin="round"/>
<path id="Vector_2" d="M13.75 17.9173V14.584" stroke="#28A487" stroke-width="1.5" stroke-linecap="round" stroke-linejoin="round"/>
<path id="Vector_3" d="M10.1333 9.05768C10.05 9.04935 9.94996 9.04935 9.85829 9.05768C7.87496 8.99102 6.29996 7.36602 6.29996 5.36602C6.29162 3.32435 7.94996 1.66602 9.99162 1.66602C12.0333 1.66602 13.6916 3.32435 13.6916 5.36602C13.6916 7.36602 12.1083 8.99102 10.1333 9.05768Z" stroke="#28A487" stroke-width="1.5" stroke-linecap="round" stroke-linejoin="round"/>
<path id="Vector_4" d="M9.9917 18.1741C8.47503 18.1741 6.9667 17.7908 5.8167 17.0241C3.80003 15.6741 3.80003 13.4741 5.8167 12.1324C8.10837 10.5991 11.8667 10.5991 14.1584 12.1324" stroke="#28A487" stroke-width="1.5" stroke-linecap="round" stroke-linejoin="round"/>
</g>
</g>
</svg>
