<svg width="46" height="46" viewBox="0 0 46 46" fill="none" xmlns="http://www.w3.org/2000/svg">
<path d="M42.4187 3.11848L45.3119 11.2545C45.5313 11.8731 45.8783 12.4388 46.3302 12.9148C46.7821 13.3909 47.3289 13.7668 47.9353 14.0181C48.5416 14.2695 49.194 14.3907 49.8502 14.374C50.5064 14.3573 51.1517 14.203 51.7445 13.9211L59.5433 10.2137C63.5286 8.31932 67.6859 12.4766 65.7915 16.4618L62.0825 24.258C61.8009 24.8506 61.6469 25.4957 61.6303 26.1517C61.6137 26.8076 61.7349 27.4597 61.9861 28.0658C62.2373 28.672 62.613 29.2186 63.0887 29.6705C63.5644 30.1223 64.1297 30.4693 64.748 30.689L72.884 33.5821C77.0386 35.0605 77.0386 40.9401 72.884 42.4185L64.748 45.3117C64.1294 45.5313 63.5639 45.8783 63.088 46.3302C62.612 46.7822 62.2363 47.329 61.985 47.9354C61.7338 48.5417 61.6126 49.1941 61.6294 49.8502C61.6462 50.5063 61.8006 51.1516 62.0825 51.7443L65.7899 59.5432C67.6843 63.5284 63.5269 67.6857 59.5417 65.7913L51.7445 62.0823C51.1518 61.8004 50.5065 61.6461 49.8504 61.6293C49.1943 61.6125 48.5419 61.7336 47.9356 61.9849C47.3292 62.2361 46.7824 62.6119 46.3304 63.0878C45.8785 63.5637 45.5315 64.1293 45.3119 64.7478L42.4187 72.8838C40.9403 77.0385 35.0607 77.0385 33.5823 72.8838L30.6892 64.7478C30.4693 64.1297 30.1222 63.5646 29.6703 63.089C29.2184 62.6134 28.6717 62.238 28.0656 61.9869C27.4594 61.7359 26.8074 61.6148 26.1516 61.6315C25.4957 61.6482 24.8507 61.8024 24.2582 62.084L16.4572 65.7897C12.472 67.6841 8.31464 63.5268 10.209 59.5415L13.9212 51.7443C14.2029 51.1518 14.3571 50.5068 14.3739 49.8509C14.3906 49.195 14.2696 48.543 14.0185 47.9368C13.7674 47.3307 13.392 46.784 12.9163 46.3321C12.4407 45.8802 11.8756 45.5331 11.2574 45.3133L3.11866 42.4185C-1.03597 40.9401 -1.03597 35.0605 3.11866 33.5821L11.2547 30.689C11.8731 30.4694 12.4384 30.1225 12.9143 29.6707C13.3902 29.2189 13.7659 28.6723 14.0172 28.0661C14.2686 27.46 14.3899 26.8078 14.3733 26.1519C14.3568 25.4959 14.2028 24.8507 13.9212 24.258L10.2112 16.457C8.3168 12.4718 12.4741 8.31446 16.4593 10.2089L24.2582 13.9211C24.8507 14.2027 25.4957 14.3568 26.1516 14.3735C26.8074 14.3902 27.4594 14.2691 28.0656 14.0181C28.6717 13.767 29.2184 13.3916 29.6703 12.916C30.1222 12.4404 30.4693 11.8753 30.6892 11.2572L33.5823 3.11848C35.0607 -1.03884 40.9403 -1.03884 42.4187 3.11848Z" fill="#D3EBF8"/>
<path d="M41.6741 8.99858L44.0795 15.7631C44.2623 16.2768 44.5508 16.7465 44.9265 17.1417C45.3021 17.537 45.7565 17.8491 46.2602 18.0578C46.764 18.2666 47.3059 18.3673 47.851 18.3535C48.3961 18.3398 48.9323 18.2118 49.4249 17.978L55.9094 14.896C59.2223 13.321 62.6787 16.7774 61.1037 20.0904L58.0217 26.5748C57.7875 27.0674 57.6593 27.6037 57.6454 28.149C57.6314 28.6943 57.7321 29.2364 57.9409 29.7404C58.1496 30.2443 58.4618 30.6988 58.8573 31.0745C59.2528 31.4502 59.7227 31.7387 60.2366 31.9213L67.0006 34.3272C70.457 35.5564 70.457 40.4442 67.0006 41.6734L60.2366 44.0787C59.7227 44.2615 59.2527 44.55 58.8573 44.9257C58.4618 45.3015 58.1496 45.756 57.9408 46.26C57.7321 46.764 57.6314 47.3062 57.6453 47.8515C57.6593 48.3968 57.7875 48.9331 58.0217 49.4258L61.1037 55.9102C62.6787 59.2232 59.2223 62.6796 55.9094 61.1046L49.4249 58.0226C48.9323 57.7884 48.3959 57.6602 47.8506 57.6462C47.3053 57.6323 46.7631 57.733 46.2591 57.9417C45.7551 58.1505 45.3006 58.4627 44.9249 58.8582C44.5491 59.2536 44.2606 59.7235 44.0779 60.2375L41.6725 67.0015C40.4434 70.4579 35.5555 70.4579 34.3263 67.0015L31.9204 60.2375C31.7378 59.7236 31.4493 59.2537 31.0736 58.8582C30.6979 58.4627 30.2434 58.1505 29.7395 57.9417C29.2355 57.733 28.6934 57.6323 28.1481 57.6462C27.6028 57.6602 27.0665 57.7884 26.5739 58.0226L20.0895 61.1046C16.7766 62.6796 13.3201 59.2232 14.8951 55.9102L17.9787 49.4242C18.2128 48.9315 18.341 48.3952 18.3549 47.8499C18.3688 47.3046 18.2681 46.7624 18.0594 46.2585C17.8506 45.7545 17.5384 45.3 17.143 44.9242C16.7476 44.5485 16.2777 44.2599 15.7638 44.0771L8.99931 41.6734C5.54287 40.4442 5.54287 35.5564 8.99931 34.3272L15.7638 31.9213C16.2777 31.7386 16.7476 31.4501 17.143 31.0744C17.5384 30.6987 17.8506 30.2442 18.0593 29.7403C18.2681 29.2363 18.3688 28.6942 18.3549 28.149C18.341 27.6037 18.2128 27.0674 17.9787 26.5748L14.8967 20.0904C13.3217 16.7774 16.7782 13.321 20.0911 14.896L26.5755 17.978C27.0682 18.2121 27.6044 18.3403 28.1497 18.3542C28.695 18.368 29.2371 18.2674 29.741 18.0586C30.2449 17.8499 30.6994 17.5377 31.0751 17.1423C31.4508 16.7468 31.7393 16.277 31.9221 15.7631L34.328 8.99858C35.5582 5.54214 40.445 5.54214 41.6741 8.99858Z" fill="#1F92D0"/>
<path d="M41.0813 13.6765L43.0988 19.35C43.2523 19.7809 43.4945 20.1747 43.8098 20.5061C44.1251 20.8375 44.5064 21.0991 44.929 21.2739C45.3517 21.4488 45.8064 21.533 46.2636 21.5211C46.7209 21.5092 47.1706 21.4016 47.5836 21.205L53.0218 18.62C55.8006 17.2991 58.6997 20.1982 57.3788 22.977L54.7938 28.4152C54.5973 28.8283 54.4897 29.2781 54.478 29.7354C54.4663 30.1927 54.5507 30.6474 54.7257 31.0701C54.9008 31.4928 55.1626 31.874 55.4942 32.1891C55.8258 32.5042 56.2199 32.7462 56.6509 32.8995L62.3244 34.9175C65.2235 35.948 65.2235 40.0476 62.3244 41.0787L56.6509 43.0961C56.2199 43.2495 55.8258 43.4915 55.4942 43.8067C55.1625 44.1219 54.9007 44.5031 54.7257 44.9258C54.5506 45.3485 54.4663 45.8033 54.478 46.2606C54.4897 46.718 54.5973 47.1678 54.7938 47.581L57.3788 53.0192C58.6997 55.798 55.8006 58.697 53.0218 57.3762L47.5836 54.7911C47.1704 54.5947 46.7206 54.4871 46.2633 54.4754C45.8059 54.4636 45.3512 54.548 44.9285 54.7231C44.5058 54.8981 44.1245 55.1599 43.8093 55.4915C43.4941 55.8232 43.2521 56.2173 43.0988 56.6483L41.0813 62.3218C40.0502 65.2209 35.9506 65.2209 34.9201 62.3218L32.9021 56.6483C32.7489 56.2173 32.5068 55.8232 32.1917 55.4916C31.8766 55.1599 31.4954 54.8981 31.0727 54.7231C30.6501 54.548 30.1954 54.4637 29.738 54.4754C29.2807 54.4871 28.831 54.5947 28.4178 54.7911L22.9796 57.3762C20.2008 58.697 17.3018 55.798 18.6226 53.0192L21.2055 47.5831C21.402 47.17 21.5095 46.7201 21.5213 46.2628C21.533 45.8054 21.4486 45.3507 21.2736 44.928C21.0985 44.5053 20.8367 44.124 20.5051 43.8089C20.1735 43.4937 19.7794 43.2516 19.3483 43.0983L13.677 41.0809C10.7779 40.0498 10.7779 35.9502 13.677 34.9196L19.3505 32.9017C19.7813 32.7482 20.1752 32.506 20.5066 32.1908C20.838 31.8756 21.0995 31.4943 21.2744 31.0717C21.4492 30.649 21.5334 30.1944 21.5215 29.7372C21.5097 29.28 21.402 28.8304 21.2055 28.4174L18.6226 22.9791C17.3018 20.2004 20.2008 17.3013 22.9796 18.6221L28.4178 21.205C28.831 21.4015 29.2807 21.5091 29.738 21.5208C30.1954 21.5325 30.6501 21.4481 31.0727 21.2731C31.4954 21.098 31.8766 20.8362 32.1917 20.5046C32.5068 20.173 32.7489 19.7789 32.9021 19.3479L34.9201 13.6744C35.9506 10.7775 40.0502 10.7775 41.0813 13.6765Z" fill="#D3EBF8"/>
<path d="M40.4679 18.5245L42.0834 23.0671C42.2061 23.4122 42.3999 23.7278 42.6523 23.9933C42.9046 24.2588 43.2098 24.4684 43.5483 24.6086C43.8867 24.7487 44.2508 24.8163 44.617 24.8069C44.9832 24.7975 45.3433 24.7114 45.6741 24.5541L50.0284 22.4844C52.2536 21.4268 54.5748 23.748 53.5167 25.9732L51.4469 30.3274C51.2896 30.6581 51.2035 31.0181 51.194 31.3842C51.1845 31.7502 51.2519 32.1142 51.3919 32.4526C51.5318 32.791 51.7412 33.0963 52.0064 33.3487C52.2716 33.6012 52.5869 33.7952 52.9318 33.9182L57.4744 35.5337C59.7945 36.3587 59.7945 39.6414 57.4744 40.4669L52.9318 42.0823C52.5867 42.2051 52.2711 42.3989 52.0056 42.6512C51.74 42.9036 51.5304 43.2088 51.3902 43.5472C51.25 43.8856 51.1824 44.2497 51.1917 44.6159C51.201 44.9821 51.287 45.3423 51.4442 45.6731L53.514 50.0274C54.5721 52.2525 52.2509 54.5737 50.0257 53.5157L45.6714 51.4459C45.3408 51.289 44.981 51.2032 44.6151 51.1939C44.2493 51.1847 43.8856 51.2522 43.5475 51.3922C43.2093 51.5321 42.9043 51.7414 42.652 52.0065C42.3997 52.2716 42.2058 52.5867 42.0828 52.9313L40.4679 57.476C39.6424 59.7962 36.3597 59.7962 35.5347 57.476L33.9187 52.9313C33.7959 52.5862 33.6021 52.2707 33.3498 52.0051C33.0975 51.7396 32.7922 51.5299 32.4538 51.3897C32.1154 51.2495 31.7513 51.1819 31.3851 51.1912C31.0189 51.2005 30.6588 51.2865 30.3279 51.4437L25.9737 53.5135C23.7485 54.5716 21.4273 52.2504 22.4848 50.0252L24.5546 45.671C24.7119 45.3401 24.798 44.98 24.8074 44.6138C24.8168 44.2476 24.7492 43.8835 24.6091 43.5451C24.4689 43.2067 24.2593 42.9014 23.9938 42.6491C23.7282 42.3967 23.4127 42.2029 23.0676 42.0802L18.525 40.4674C16.2049 39.6419 16.2049 36.3592 18.525 35.5342L23.0676 33.9188C23.4127 33.796 23.7282 33.6022 23.9938 33.3499C24.2593 33.0975 24.4689 32.7923 24.6091 32.4538C24.7492 32.1154 24.8168 31.7513 24.8074 31.3851C24.798 31.0189 24.7119 30.6588 24.5546 30.328L22.4848 25.9737C21.4273 23.7486 23.7485 21.4274 25.9737 22.4849L30.3279 24.5547C30.6587 24.712 31.0189 24.7981 31.3851 24.8075C31.7513 24.8168 32.1153 24.7493 32.4538 24.6091C32.7922 24.469 33.0975 24.2593 33.3498 23.9938C33.6021 23.7283 33.796 23.4128 33.9187 23.0676L35.5341 18.5251C36.3591 16.2033 39.6418 16.2033 40.4679 18.5245Z" fill="#1F92D0"/>
<path d="M40.0582 21.7567L41.4071 25.5455C41.5094 25.8334 41.671 26.0966 41.8814 26.3181C42.0918 26.5396 42.3464 26.7145 42.6286 26.8314C42.9109 26.9484 43.2145 27.0048 43.5199 26.9971C43.8253 26.9894 44.1257 26.9176 44.4017 26.7865L48.0335 25.0599C49.889 24.1777 51.825 26.1137 50.9428 27.9698L49.2162 31.6016C49.085 31.8775 49.0132 32.1779 49.0054 32.4833C48.9976 32.7888 49.054 33.0925 49.171 33.3747C49.288 33.657 49.4629 33.9115 49.6845 34.1219C49.906 34.3323 50.1693 34.4939 50.4572 34.5961L54.246 35.945C56.1819 36.6335 56.1819 39.3713 54.246 40.0597L50.4572 41.4086C50.1693 41.5109 49.906 41.6724 49.6845 41.8828C49.4629 42.0932 49.288 42.3478 49.171 42.6301C49.054 42.9123 48.9976 43.216 49.0054 43.5214C49.0132 43.8269 49.085 44.1273 49.2162 44.4032L50.9428 48.035C51.825 49.8906 49.889 51.8265 48.0335 50.9443L44.4017 49.2177C44.1257 49.0865 43.8253 49.0147 43.5199 49.0069C43.2145 48.9992 42.9108 49.0556 42.6285 49.1726C42.3463 49.2895 42.0917 49.4644 41.8813 49.686C41.6709 49.9075 41.5094 50.1708 41.4071 50.4587L40.0582 54.2475C39.3697 56.1835 36.632 56.1835 35.9435 54.2475L34.5946 50.4587C34.4923 50.1708 34.3308 49.9075 34.1204 49.686C33.91 49.4644 33.6554 49.2895 33.3732 49.1726C33.0909 49.0556 32.7872 48.9992 32.4818 49.0069C32.1764 49.0147 31.876 49.0865 31.6 49.2177L27.9682 50.9443C26.1121 51.8265 24.1762 49.8906 25.0584 48.035L26.785 44.4032C26.9161 44.1273 26.9878 43.8269 26.9956 43.5215C27.0033 43.216 26.9469 42.9124 26.8299 42.6302C26.7129 42.3479 26.5381 42.0934 26.3166 41.883C26.0951 41.6726 25.8319 41.511 25.544 41.4086L21.7552 40.0597C19.8192 39.3713 19.8192 36.6335 21.7552 35.945L25.544 34.5961C25.8319 34.4938 26.0951 34.3322 26.3166 34.1218C26.5381 33.9114 26.7129 33.6568 26.8299 33.3746C26.9469 33.0924 27.0033 32.7887 26.9956 32.4833C26.9878 32.1779 26.9161 31.8775 26.785 31.6016L25.0584 27.9698C24.1778 26.1153 26.1159 24.1772 27.9699 25.0594L31.6016 26.786C31.8776 26.9171 32.178 26.9888 32.4834 26.9966C32.7888 27.0043 33.0925 26.9479 33.3747 26.8309C33.6569 26.7139 33.9115 26.5391 34.1219 26.3175C34.3323 26.096 34.4939 25.8328 34.5962 25.545L35.9451 21.7562C36.632 19.8208 39.3697 19.8208 40.0582 21.7567Z" fill="#FFC6FF"/>
<path d="M40.0582 21.7567L41.4071 25.5455C41.5094 25.8334 41.671 26.0966 41.8814 26.3181C42.0918 26.5396 42.3464 26.7145 42.6286 26.8314C42.9109 26.9484 43.2145 27.0048 43.5199 26.9971C43.8253 26.9894 44.1257 26.9176 44.4017 26.7865L48.0335 25.0599C49.889 24.1777 51.825 26.1137 50.9428 27.9698L49.2162 31.6016C49.085 31.8775 49.0132 32.1779 49.0054 32.4833C48.9976 32.7888 49.054 33.0925 49.171 33.3747C49.288 33.657 49.4629 33.9115 49.6845 34.1219C49.906 34.3323 50.1693 34.4939 50.4572 34.5961L54.246 35.945C56.1819 36.6335 56.1819 39.3713 54.246 40.0597L50.4572 41.4086C50.1693 41.5109 49.906 41.6724 49.6845 41.8828C49.4629 42.0932 49.288 42.3478 49.171 42.6301C49.054 42.9123 48.9976 43.216 49.0054 43.5214C49.0132 43.8269 49.085 44.1273 49.2162 44.4032L50.9428 48.035C51.825 49.8906 49.889 51.8265 48.0335 50.9443L44.4017 49.2177C44.1257 49.0865 43.8253 49.0147 43.5199 49.0069C43.2145 48.9992 42.9108 49.0556 42.6285 49.1726C42.3463 49.2895 42.0917 49.4644 41.8813 49.686C41.6709 49.9075 41.5094 50.1708 41.4071 50.4587L40.0582 54.2475C39.3697 56.1835 36.632 56.1835 35.9435 54.2475L34.5946 50.4587C34.4923 50.1708 34.3308 49.9075 34.1204 49.686C33.91 49.4644 33.6554 49.2895 33.3732 49.1726C33.0909 49.0556 32.7872 48.9992 32.4818 49.0069C32.1764 49.0147 31.876 49.0865 31.6 49.2177L27.9682 50.9443C26.1121 51.8265 24.1762 49.8906 25.0584 48.035L26.785 44.4032C26.9161 44.1273 26.9878 43.8269 26.9956 43.5215C27.0033 43.216 26.9469 42.9124 26.8299 42.6302C26.7129 42.3479 26.5381 42.0934 26.3166 41.883C26.0951 41.6726 25.8319 41.511 25.544 41.4086L21.7552 40.0597C19.8192 39.3713 19.8192 36.6335 21.7552 35.945L25.544 34.5961C25.8319 34.4938 26.0951 34.3322 26.3166 34.1218C26.5381 33.9114 26.7129 33.6568 26.8299 33.3746C26.9469 33.0924 27.0033 32.7887 26.9956 32.4833C26.9878 32.1779 26.9161 31.8775 26.785 31.6016L25.0584 27.9698C24.1778 26.1153 26.1159 24.1772 27.9699 25.0594L31.6016 26.786C31.8776 26.9171 32.178 26.9888 32.4834 26.9966C32.7888 27.0043 33.0925 26.9479 33.3747 26.8309C33.6569 26.7139 33.9115 26.5391 34.1219 26.3175C34.3323 26.096 34.4939 25.8328 34.5962 25.545L35.9451 21.7562C36.632 19.8208 39.3697 19.8208 40.0582 21.7567Z" fill="#D3EBF8"/>
<path d="M39.5371 25.8698L40.5434 28.6992C40.6198 28.9142 40.7405 29.1108 40.8977 29.2762C41.0548 29.4416 41.245 29.5722 41.4558 29.6595C41.6665 29.7468 41.8933 29.7889 42.1214 29.7831C42.3495 29.7772 42.5738 29.7236 42.7799 29.6256L45.4917 28.3366C46.8773 27.6778 48.3233 29.1233 47.6645 30.5095L46.3755 33.2213C46.2776 33.4274 46.2239 33.6517 46.2181 33.8798C46.2123 34.1079 46.2544 34.3346 46.3417 34.5454C46.429 34.7562 46.5596 34.9463 46.725 35.1035C46.8904 35.2607 47.087 35.3813 47.302 35.4578L50.1309 36.4641C51.5769 36.9783 51.5769 39.0227 50.1309 39.5396L47.302 40.5431C47.087 40.6196 46.8904 40.7403 46.725 40.8974C46.5596 41.0546 46.429 41.2447 46.3417 41.4555C46.2544 41.6663 46.2123 41.8931 46.2181 42.1212C46.2239 42.3492 46.2776 42.5736 46.3755 42.7796L47.6645 45.4915C48.3233 46.8771 46.8773 48.3231 45.4917 47.6643L42.7799 46.3753C42.5738 46.2773 42.3495 46.2237 42.1214 46.2178C41.8933 46.212 41.6665 46.2541 41.4558 46.3414C41.245 46.4288 41.0548 46.5593 40.8977 46.7248C40.7405 46.8902 40.6198 47.0867 40.5434 47.3017L39.5371 50.1306C39.0229 51.5766 36.9785 51.5766 36.4616 50.1306L35.4553 47.3017C35.3789 47.0867 35.2582 46.8902 35.1011 46.7248C34.9439 46.5593 34.7538 46.4288 34.543 46.3414C34.3322 46.2541 34.1054 46.212 33.8773 46.2178C33.6492 46.2237 33.4249 46.2773 33.2189 46.3753L30.507 47.6643C29.1209 48.3231 27.6754 46.8771 28.3342 45.4915L29.6232 42.7796C29.7212 42.5736 29.7748 42.3492 29.7806 42.1212C29.7865 41.8931 29.7444 41.6663 29.657 41.4555C29.5697 41.2447 29.4391 41.0546 29.2737 40.8974C29.1083 40.7403 28.9118 40.6196 28.6968 40.5431L25.8673 39.5369C24.4218 39.0227 24.4218 36.9783 25.8673 36.4614L28.6968 35.4551C28.9118 35.3786 29.1083 35.258 29.2737 35.1008C29.4391 34.9436 29.5697 34.7535 29.657 34.5427C29.7444 34.3319 29.7865 34.1052 29.7806 33.8771C29.7748 33.649 29.7212 33.4247 29.6232 33.2186L28.3342 30.5068C27.6802 29.1233 29.1236 27.68 30.5097 28.3366L33.2215 29.6256C33.4276 29.7236 33.6519 29.7772 33.88 29.7831C34.1081 29.7889 34.3349 29.7468 34.5457 29.6595C34.7565 29.5722 34.9466 29.4416 35.1038 29.2762C35.2609 29.1108 35.3816 28.9142 35.458 28.6992L36.4643 25.8698C36.9785 24.4243 39.0229 24.4243 39.5371 25.8698Z" fill="#1F92D0"/>
</svg>
