<svg width="16" height="16" viewBox="0 0 16 16" fill="none" xmlns="http://www.w3.org/2000/svg">
<g id="money-svgrepo-com 1" clip-path="url(#clip0_6862_14521)">
<g id="Group">
<g id="Group_2">
<path id="Vector" d="M14 2H2C0.895431 2 0 2.89543 0 4V9.33333C0 10.4379 0.895431 11.3333 2 11.3333H14C15.1046 11.3333 16 10.4379 16 9.33333V4C16 2.89543 15.1046 2 14 2Z" fill="#28A487"/>
<path id="Vector_2" d="M14 2.66602H2C0.895431 2.66602 0 3.56145 0 4.66601V9.99935C0 11.1039 0.895431 11.9993 2 11.9993H14C15.1046 11.9993 16 11.1039 16 9.99935V4.66602C16 3.56145 15.1046 2.66602 14 2.66602Z" fill="#28A487"/>
<path id="Vector_3" d="M5.33329 3.33398C4.22872 3.33398 3.36946 4.34309 2.61622 5.151C2.41495 5.36688 2.17834 5.54951 1.91562 5.68947C1.28196 6.02705 0.666626 6.58268 0.666626 7.30066C0.666626 8.01863 1.28261 8.57349 1.91501 8.91343C2.19367 9.06323 2.44298 9.26209 2.65193 9.4996C3.38151 10.3289 4.22872 11.334 5.33329 11.334H12.6C12.6368 11.334 12.6666 11.3041 12.6666 11.2673C12.6666 10.2501 13.241 9.36115 14.0843 8.91186C14.718 8.57427 15.3333 8.01863 15.3333 7.30066C15.3333 6.58268 14.718 6.02705 14.0843 5.68946C13.8216 5.5495 13.585 5.36687 13.3837 5.15099C12.6305 4.34309 11.7712 3.33398 10.6666 3.33398H5.33329Z" fill="#ECF0F1"/>
<path id="Vector_4" d="M10.6667 7.33333C10.6667 9.174 9.47271 10.6667 8.00004 10.6667C6.52731 10.6667 5.33337 9.174 5.33337 7.33333C5.33337 5.4924 6.52731 4 8.00004 4C9.47271 4 10.6667 5.4924 10.6667 7.33333Z" fill="#28A487"/>
</g>
<path id="Vector_5" d="M6.85388 5.80062L8.50188 5.33398H8.66655V8.66732C8.66655 8.86732 8.68122 9.00063 8.71122 9.0673C8.74455 9.13397 8.81121 9.13394 8.91121 9.2006H9.52055V9.33398H6.97388V9.2006H7.59322C7.68588 9.13394 7.75122 9.13397 7.78788 9.0673C7.82455 9.00063 7.84255 8.86732 7.84255 8.66732V6.53394C7.84255 6.2006 7.82588 6.06733 7.79255 5.934C7.76922 5.86733 7.72588 5.86729 7.66255 5.80062H7.44322C7.31988 5.80062 7.14855 5.8006 6.92855 5.86727L6.85388 5.80062Z" fill="#ECF0F1"/>
<g id="Group_3">
<g id="Group_4">
<path id="Vector_6" d="M2.66685 12.6484C2.08352 12.6484 1.57219 12.7832 1.2082 12.9818H0.66687V13.1692V13.2734V13.3151V13.3568V13.6485C0.66687 14.2008 1.56219 14.6485 2.66685 14.6485C3.77151 14.6485 4.66683 14.2008 4.66683 13.6485V13.3568V13.3151V13.2734V13.1692V12.9818H4.1255C3.76151 12.7832 3.25018 12.6484 2.66685 12.6484Z" fill="#FE5E02"/>
<path id="Vector_7" d="M4.66671 12.9727C4.66671 13.5249 3.77138 13.9727 2.66673 13.9727C1.56207 13.9727 0.666748 13.5249 0.666748 12.9727C0.666748 12.4204 1.56207 11.9727 2.66673 11.9727C3.77138 11.9727 4.66671 12.4204 4.66671 12.9727Z" fill="#FE9E67"/>
</g>
<g id="Group_5">
<g id="Group_6">
<path id="Vector_8" d="M2.66697 11.3164C2.08364 11.3164 1.57232 11.4511 1.20832 11.6497H0.666992V11.8372V11.9414V11.9831V12.0248V12.3164C0.666992 12.8688 1.56232 13.3164 2.66697 13.3164C3.77163 13.3164 4.66695 12.8688 4.66695 12.3164V12.0248V11.9831V11.9414V11.8372V11.6497H4.12562C3.76163 11.4511 3.2503 11.3164 2.66697 11.3164Z" fill="#FE5E02"/>
<path id="Vector_9" d="M4.66671 11.6406C4.66671 12.1929 3.77138 12.6407 2.66673 12.6407C1.56207 12.6407 0.666748 12.1929 0.666748 11.6406C0.666748 11.0884 1.56207 10.6406 2.66673 10.6406C3.77138 10.6406 4.66671 11.0884 4.66671 11.6406Z" fill="#FE9E67"/>
</g>
<g id="Group_7">
<path id="Vector_10" d="M2.66685 9.98242C2.08352 9.98242 1.57219 10.1172 1.2082 10.3158H0.66687V10.5032V10.6074V10.6491V10.6908V10.9824C0.66687 11.5348 1.56219 11.9825 2.66685 11.9825C3.77151 11.9825 4.66683 11.5348 4.66683 10.9824V10.6908V10.6491V10.6074V10.5032V10.3158H4.1255C3.76151 10.1172 3.25018 9.98242 2.66685 9.98242Z" fill="#FE5E02"/>
<path id="Vector_11" d="M4.66671 10.3067C4.66671 10.8589 3.77138 11.3067 2.66673 11.3067C1.56207 11.3067 0.666748 10.8589 0.666748 10.3067C0.666748 9.75438 1.56207 9.30664 2.66673 9.30664C3.77138 9.30664 4.66671 9.75438 4.66671 10.3067Z" fill="#FE9E67"/>
</g>
<g id="Group_8">
<path id="Vector_12" d="M2.66685 8.65039C2.08352 8.65039 1.57219 8.78513 1.2082 8.98373H0.66687V9.1712V9.2754V9.31707V9.35874V9.65041C0.66687 10.2028 1.56219 10.6504 2.66685 10.6504C3.77151 10.6504 4.66683 10.2028 4.66683 9.65041V9.35874V9.31707V9.2754V9.1712V8.98373H4.1255C3.76151 8.78513 3.25018 8.65039 2.66685 8.65039Z" fill="#FE5E02"/>
<path id="Vector_13" d="M4.66671 8.97463C4.66671 9.5269 3.77138 9.97464 2.66673 9.97464C1.56207 9.97464 0.666748 9.5269 0.666748 8.97463C0.666748 8.42235 1.56207 7.97461 2.66673 7.97461C3.77138 7.97461 4.66671 8.42235 4.66671 8.97463Z" fill="#FE9E67"/>
</g>
<g id="Group_9">
<path id="Vector_14" d="M7.33311 12.6484C6.74978 12.6484 6.23845 12.7832 5.87446 12.9818H5.33313V13.1692V13.2734V13.3151V13.3568V13.6485C5.33313 14.2008 6.22845 14.6485 7.33311 14.6485C8.43777 14.6485 9.33309 14.2008 9.33309 13.6485V13.3568V13.3151V13.2734V13.1692V12.9818H8.79176C8.42777 12.7832 7.91644 12.6484 7.33311 12.6484Z" fill="#FE5E02"/>
<path id="Vector_15" d="M9.33297 12.9727C9.33297 13.5249 8.43764 13.9727 7.33299 13.9727C6.22833 13.9727 5.33301 13.5249 5.33301 12.9727C5.33301 12.4204 6.22833 11.9727 7.33299 11.9727C8.43764 11.9727 9.33297 12.4204 9.33297 12.9727Z" fill="#FE9E67"/>
</g>
<g id="Group_10">
<path id="Vector_16" d="M8.66661 11.9844C8.08328 11.9844 7.57195 12.1191 7.20795 12.3177H6.66663V12.5052V12.6094V12.6511V12.6927V12.9844C6.66663 13.5367 7.56195 13.9844 8.66661 13.9844C9.77126 13.9844 10.6666 13.5367 10.6666 12.9844V12.6927V12.6511V12.6094V12.5052V12.3177H10.1253C9.76126 12.1191 9.24993 11.9844 8.66661 11.9844Z" fill="#FE5E02"/>
<path id="Vector_17" d="M10.6663 12.3086C10.6663 12.8609 9.77102 13.3086 8.66636 13.3086C7.56171 13.3086 6.66638 12.8609 6.66638 12.3086C6.66638 11.7563 7.56171 11.3086 8.66636 11.3086C9.77102 11.3086 10.6663 11.7563 10.6663 12.3086Z" fill="#FE9E67"/>
</g>
<g id="Group_11">
<path id="Vector_18" d="M2.66697 7.31641C2.08364 7.31641 1.57232 7.45114 1.20832 7.64975H0.666992V7.83722V7.94142V7.98308V8.02475V8.31642C0.666992 8.86877 1.56232 9.31644 2.66697 9.31644C3.77163 9.31644 4.66695 8.86877 4.66695 8.31642V8.02475V7.98308V7.94142V7.83722V7.64975H4.12562C3.76163 7.45114 3.2503 7.31641 2.66697 7.31641Z" fill="#FE5E02"/>
<path id="Vector_19" d="M4.66671 7.64064C4.66671 8.19292 3.77138 8.64066 2.66673 8.64066C1.56207 8.64066 0.666748 8.19292 0.666748 7.64064C0.666748 7.08837 1.56207 6.64062 2.66673 6.64062C3.77138 6.64062 4.66671 7.08837 4.66671 7.64064Z" fill="#FE9E67"/>
</g>
</g>
</g>
</g>
</g>
<defs>
<clipPath id="clip0_6862_14521">
<rect width="16" height="16" fill="white"/>
</clipPath>
</defs>
</svg>
