<svg width="25" height="24" viewBox="0 0 25 24" fill="none" xmlns="http://www.w3.org/2000/svg">
<path d="M19.1699 2H17.2699C15.0899 2 13.9399 3.15 13.9399 5.33V7.23C13.9399 9.41 15.0899 10.56 17.2699 10.56H19.1699C21.3499 10.56 22.4999 9.41 22.4999 7.23V5.33C22.4999 3.15 21.3499 2 19.1699 2Z" fill="#8C94A6"/>
<path d="M7.74 13.4302H5.84C3.65 13.4302 2.5 14.5802 2.5 16.7602V18.6602C2.5 20.8502 3.65 22.0002 5.83 22.0002H7.73C9.91 22.0002 11.06 20.8502 11.06 18.6702V16.7702C11.07 14.5802 9.92 13.4302 7.74 13.4302Z" fill="#8C94A6"/>
<path d="M6.79 10.58C9.1593 10.58 11.08 8.6593 11.08 6.29C11.08 3.9207 9.1593 2 6.79 2C4.4207 2 2.5 3.9207 2.5 6.29C2.5 8.6593 4.4207 10.58 6.79 10.58Z" fill="#8C94A6"/>
<path d="M18.2099 21.9999C20.5792 21.9999 22.4999 20.0792 22.4999 17.7099C22.4999 15.3406 20.5792 13.4199 18.2099 13.4199C15.8406 13.4199 13.9199 15.3406 13.9199 17.7099C13.9199 20.0792 15.8406 21.9999 18.2099 21.9999Z" fill="#8C94A6"/>
</svg>
