<svg width="28" height="28" viewBox="0 0 28 28" fill="none" xmlns="http://www.w3.org/2000/svg">
<rect width="28" height="28" rx="14" fill="#E2E4E9"/>
<g clip-path="url(#clip0_4303_229808)">
<path d="M22 14.8234C22 13.7421 21.1335 12.8636 20.059 12.8339C19.9808 12.7116 19.8702 12.6139 19.7399 12.5487C19.9125 9.97294 17.6701 7.27752 14.8772 6.93626C14.5169 6.87368 14.3543 6.88361 14.0008 6.85938C9.87838 6.97876 8.10314 10.4445 8.25901 12.5505C8.12973 12.6157 8.02075 12.7126 7.94307 12.8336C6.86754 12.8623 6 13.7413 6 14.8234C6 15.9052 6.86754 16.7842 7.9431 16.8129C8.08541 17.0355 8.33361 17.1841 8.6172 17.1841C9.05931 17.1841 9.418 16.8257 9.418 16.3833V13.2633C9.418 12.9932 9.28351 12.7554 9.07862 12.6105C9.42424 10.6677 11.1901 8.50687 14.0008 8.46101C14.1707 8.47323 14.5367 8.47034 14.6911 8.5113C16.0893 8.64035 18.4354 10.0107 18.9208 12.6126C18.7175 12.7578 18.5841 12.9945 18.5841 13.2633V16.3833C18.5841 16.7196 18.7916 17.0061 19.085 17.125V17.4646C19.085 18.3514 18.4861 19.1296 17.6289 19.3569L15.2103 19.9974C15.08 19.8245 14.8824 19.7057 14.6483 19.7057C14.2526 19.7057 13.9314 20.0268 13.9314 20.4226C13.9314 20.8188 14.2526 21.1394 14.6483 21.1394C15.0127 21.1394 15.3005 20.8647 15.3469 20.5135L17.7656 19.873C18.8567 19.5837 19.619 18.6997 19.619 17.1453C19.8025 17.089 19.9579 16.9712 20.059 16.8126C21.1335 16.7829 22 15.9044 22 14.8234Z" fill="#051513"/>
</g>
<defs>
<clipPath id="clip0_4303_229808">
<rect width="16" height="16" fill="white" transform="translate(6 6)"/>
</clipPath>
</defs>
</svg>
