<svg width="36" height="37" viewBox="0 0 36 37" fill="none" xmlns="http://www.w3.org/2000/svg">
<g id="notes-note-svgrepo-com (1) 1" clip-path="url(#clip0_2701_71473)">
<g id="Group">
<g id="Group_2">
<path id="Vector" d="M6.74934 7.77725L13.0788 7.22375L2.35286 6.28516L0 33.1823L9.0411 33.9735L6.74934 7.77725Z" fill="#28A487"/>
<path id="Vector_2" d="M13.0787 34.3275L26.8968 35.5366L27.1103 33.0996L13.0787 34.3275Z" fill="#28A487"/>
</g>
<path id="Vector_3" d="M33.6465 5.42383L28.6985 5.85646C28.2272 7.04769 27.0721 7.89235 25.7143 7.89235C24.5566 7.89235 23.5505 7.27522 22.9841 6.35659L6.74951 7.77732L9.10237 34.6743L36 32.3209L33.6465 5.42383Z" fill="#EAFAF6"/>
<g id="Group_3">
<path id="Vector_4" d="M27.755 15.685C27.7737 15.685 27.7929 15.6844 27.8116 15.6824L29.7325 15.514C30.0867 15.4838 30.3477 15.1714 30.3169 14.8178C30.286 14.4649 29.9722 14.1994 29.6206 14.2334L27.6998 14.4018C27.3455 14.4327 27.0845 14.7444 27.1154 15.098C27.145 15.4324 27.4253 15.685 27.755 15.685Z" fill="#FE5E02"/>
<path id="Vector_5" d="M20.7106 16.3009C20.7292 16.3009 20.7485 16.3003 20.7672 16.2983L25.2498 15.9062C25.6034 15.8753 25.865 15.5636 25.8342 15.21C25.8027 14.8564 25.4896 14.5941 25.1379 14.6256L20.6553 15.0177C20.3011 15.0486 20.0401 15.3604 20.071 15.714C20.1005 16.0483 20.3808 16.3009 20.7106 16.3009Z" fill="#FE5E02"/>
<path id="Vector_6" d="M12.4414 17.0275L18.2052 16.5235C18.5595 16.4926 18.8205 16.1809 18.7896 15.8273C18.7587 15.4737 18.4399 15.2108 18.0934 15.2429L12.3295 15.7469C11.9753 15.7778 11.7143 16.0895 11.7452 16.4431C11.7748 16.7774 12.055 17.03 12.3848 17.03C12.4034 17.03 12.4227 17.0294 12.4414 17.0275Z" fill="#FE5E02"/>
<path id="Vector_7" d="M25.4742 18.4691C25.1199 18.4999 24.8589 18.8117 24.8898 19.1653C24.9194 19.5002 25.1997 19.7522 25.5294 19.7522C25.5481 19.7522 25.5673 19.7516 25.586 19.7496L30.0687 19.3575C30.4229 19.3266 30.6839 19.0148 30.6537 18.6612C30.6222 18.3076 30.3091 18.0447 29.9574 18.0769L25.4742 18.4691Z" fill="#FE5E02"/>
<path id="Vector_8" d="M21.7439 20.0844C22.0981 20.0536 22.3591 19.7418 22.3282 19.3882C22.2967 19.0346 21.9817 18.7691 21.632 18.8038L17.1494 19.196C16.7952 19.2268 16.5342 19.5386 16.5644 19.8922C16.594 20.2271 16.8749 20.4791 17.204 20.4791C17.2233 20.4791 17.2419 20.4785 17.2606 20.4765L21.7439 20.0844Z" fill="#FE5E02"/>
<path id="Vector_9" d="M12.7779 20.8692L14.6988 20.7008C15.053 20.67 15.314 20.3582 15.2832 20.0046C15.2529 19.651 14.9438 19.3907 14.5869 19.4203L12.6661 19.5886C12.3118 19.6195 12.0508 19.9313 12.0817 20.2849C12.1113 20.6191 12.3916 20.8718 12.7213 20.8718C12.74 20.8718 12.7593 20.8711 12.7779 20.8692Z" fill="#FE5E02"/>
<path id="Vector_10" d="M29.0118 22.031C28.6582 22.0618 28.3966 22.3736 28.4281 22.7278C28.4577 23.0621 28.738 23.3141 29.0677 23.3141C29.0864 23.3141 29.1056 23.3134 29.125 23.3115L30.4056 23.199C30.7592 23.1687 31.0208 22.8563 30.9893 22.5021C30.9578 22.1499 30.6582 21.8882 30.2924 21.9184L29.0118 22.031Z" fill="#FE5E02"/>
<path id="Vector_11" d="M20.0463 22.8142C19.6921 22.8451 19.4311 23.1568 19.462 23.5104C19.4908 23.8453 19.7718 24.0973 20.1016 24.0973C20.1202 24.0973 20.1395 24.0967 20.1582 24.0947L26.5629 23.5348C26.9172 23.504 27.1782 23.1922 27.1473 22.8386C27.1164 22.485 26.8021 22.2247 26.4511 22.2542L20.0463 22.8142Z" fill="#FE5E02"/>
<path id="Vector_12" d="M16.2044 23.1511L13.0023 23.4314C12.6481 23.4616 12.3871 23.774 12.4173 24.1276C12.4462 24.4619 12.7278 24.7145 13.0569 24.7145C13.0762 24.7145 13.0948 24.7139 13.1135 24.7119L16.3163 24.4316C16.6705 24.4008 16.9315 24.089 16.9006 23.7354C16.8704 23.3819 16.5586 23.119 16.2044 23.1511Z" fill="#FE5E02"/>
<path id="Vector_13" d="M30.6296 25.7608L24.2255 26.3214C23.8713 26.3522 23.6103 26.664 23.6412 27.0176C23.6708 27.3525 23.951 27.6045 24.2808 27.6045C24.2994 27.6045 24.3187 27.6039 24.3374 27.6019L30.7415 27.0413C31.0957 27.0104 31.3567 26.6987 31.3259 26.3451C31.2944 25.9916 30.9832 25.7267 30.6296 25.7608Z" fill="#FE5E02"/>
<path id="Vector_14" d="M20.3829 26.6568L17.8218 26.8811C17.4675 26.9114 17.2065 27.2238 17.2368 27.5774C17.2664 27.9116 17.5473 28.1643 17.877 28.1643C17.8957 28.1643 17.9143 28.1636 17.9329 28.1617L20.4947 27.9373C20.8489 27.9064 21.1099 27.5947 21.079 27.2411C21.0482 26.8875 20.7396 26.6259 20.3829 26.6568Z" fill="#FE5E02"/>
<path id="Vector_15" d="M15.2595 27.1061L13.3387 27.2745C12.9844 27.3053 12.7234 27.6171 12.7543 27.9707C12.7832 28.305 13.0642 28.5576 13.3939 28.5576C13.4126 28.5576 13.4312 28.557 13.4505 28.555L15.3714 28.3866C15.7256 28.3557 15.9866 28.044 15.9558 27.6904C15.9249 27.3369 15.606 27.0746 15.2595 27.1061Z" fill="#FE5E02"/>
</g>
<path id="Vector_16" d="M19.9283 11.1072C19.7637 11.1072 19.5992 11.0442 19.4738 10.9189C19.2224 10.6675 19.2224 10.2612 19.4738 10.0099L22.987 6.49664C23.2378 6.24591 23.6447 6.24591 23.896 6.49664C24.1468 6.74801 24.1468 7.15491 23.896 7.40564L20.3828 10.9189C20.2574 11.0442 20.0928 11.1072 19.9283 11.1072Z" fill="#0A2922"/>
<path id="Vector_17" d="M28.9283 4.6791C28.9283 2.90421 27.4889 1.46484 25.714 1.46484C23.9391 1.46484 22.4998 2.90421 22.4998 4.6791C22.4998 6.45399 23.9391 7.89335 25.714 7.89335C27.4889 7.89335 28.9283 6.45399 28.9283 4.6791Z" fill="#1A473F"/>
</g>
</g>
<defs>
<clipPath id="clip0_2701_71473">
<rect width="36" height="36" fill="white" transform="translate(0 0.5)"/>
</clipPath>
</defs>
</svg>
