<svg width="36" height="37" viewBox="0 0 36 37" fill="none" xmlns="http://www.w3.org/2000/svg">
<g clip-path="url(#clip0_5417_2929)">
<path d="M29.4344 14.4402C28.908 14.1894 28.3596 13.9779 27.7932 13.8087C27.2612 13.6497 26.713 13.5284 26.1519 13.4479C25.6155 13.371 25.0678 13.3301 24.5106 13.3301C23.9196 13.3301 23.3389 13.3749 22.7718 13.4615C22.5449 13.4961 22.3202 13.5374 22.0978 13.5852C21.9867 13.609 21.8761 13.6345 21.7662 13.6615C21.3264 13.7699 20.8965 13.9035 20.4781 14.061C20.2689 14.1397 20.0626 14.2244 19.8594 14.3149C19.453 14.4956 19.0589 14.6994 18.6788 14.9245C18.3938 15.0932 18.1166 15.274 17.8481 15.466C17.6691 15.594 17.4938 15.727 17.3225 15.8648C17.237 15.9337 17.1522 16.0038 17.0688 16.0751C16.818 16.2889 16.5766 16.5134 16.3451 16.7477C15.9593 17.1381 15.601 17.556 15.2737 17.998C15.0121 18.3513 14.7699 18.7196 14.5494 19.102C14.4758 19.2295 14.4047 19.3585 14.3361 19.489C14.2654 19.6232 14.1968 19.7584 14.1315 19.8957C13.9531 20.2701 13.7958 20.656 13.6582 21.0512C13.6023 21.2118 13.5489 21.3734 13.5 21.5369C13.4603 21.67 13.4229 21.8039 13.3879 21.939C13.283 22.344 13.1997 22.7576 13.1391 23.1783C13.0623 23.7146 13.0215 24.2626 13.0215 24.8196C13.0215 25.4908 13.0796 26.1486 13.1907 26.7884C13.3019 27.4282 13.4661 28.0501 13.6786 28.6493C13.7794 28.9337 13.891 29.2131 14.0129 29.4868C14.1348 29.7606 14.2672 30.0286 14.4095 30.2906C14.5669 30.58 14.7366 30.862 14.9176 31.1358C15.0986 31.4096 15.2909 31.6751 15.4939 31.9319C17.5998 34.5961 20.8589 36.3088 24.5107 36.3088C30.8459 36.3088 35.9999 31.1547 35.9999 24.8195C35.9997 20.2452 33.3126 16.2873 29.4344 14.4402Z" fill="#8C94A6"/>
<path d="M12.5836 0.691406C8.7975 0.691406 5.71729 3.77163 5.71729 7.55771C5.71729 11.3437 8.7975 14.4238 12.5836 14.4238C16.3697 14.4238 19.4498 11.3437 19.4498 7.55771C19.4498 3.77163 16.3697 0.691406 12.5836 0.691406Z" fill="#667085"/>
<path d="M1.64143 31.9316H15.4938C15.0878 31.418 14.7244 30.8691 14.4095 30.2903C14.1248 29.7665 13.8801 29.2178 13.6785 28.649C13.2535 27.4506 13.0213 26.1617 13.0213 24.8193C13.0213 24.2622 13.062 23.7143 13.1389 23.178C13.2196 22.6171 13.3409 22.0687 13.4997 21.5367C13.5487 21.373 13.6022 21.2114 13.6579 21.051C13.7955 20.6558 13.9528 20.2698 14.1312 19.8954C14.1965 19.7583 14.2652 19.623 14.3358 19.4888C14.6104 18.9667 14.9247 18.4688 15.2734 17.9978C14.3933 17.806 13.493 17.707 12.5834 17.707C5.64491 17.7068 0 23.3517 0 30.2902C0.000140624 31.1967 0.734969 31.9316 1.64143 31.9316Z" fill="#667085"/>
<path d="M27.793 23.1791H26.1517V21.5378C26.1517 20.6313 25.4168 19.8965 24.5104 19.8965C23.604 19.8965 22.8691 20.6314 22.8691 21.5378V23.1791H21.2277C20.3213 23.1791 19.5864 23.914 19.5864 24.8203C19.5864 25.7269 20.3213 26.4616 21.2277 26.4616H22.869V28.1029C22.869 29.0095 23.6039 29.7442 24.5103 29.7442C25.4166 29.7442 26.1516 29.0095 26.1516 28.1029V26.4616H27.7929C28.6992 26.4616 29.4342 25.7269 29.4342 24.8203C29.4344 23.914 28.6993 23.1791 27.793 23.1791Z" fill="white"/>
<path d="M5.71729 7.55771C5.71729 11.3436 8.79751 14.4238 12.5834 14.4238V0.691406C8.79751 0.691406 5.71729 3.77163 5.71729 7.55771Z" fill="#667085"/>
<path d="M0 30.2905C0 31.197 0.734899 31.9318 1.64129 31.9318H12.5834V17.707C5.64491 17.7071 0 23.352 0 30.2905Z" fill="#667085"/>
</g>
<defs>
<clipPath id="clip0_5417_2929">
<rect width="36" height="36" fill="white" transform="translate(0 0.5)"/>
</clipPath>
</defs>
</svg>
