<svg width="20" height="20" viewBox="0 0 20 20" fill="none"
    xmlns="http://www.w3.org/2000/svg">
    <path d="M16.6666 6.87484V14.9998C16.6666 17.4998 15.1749 18.3332 13.3333 18.3332H6.66659C4.82492 18.3332 3.33325 17.4998 3.33325 14.9998V6.87484C3.33325 4.1665 4.82492 3.5415 6.66659 3.5415C6.66659 4.05817 6.8749 4.52483 7.21656 4.8665C7.55823 5.20817 8.02492 5.4165 8.54159 5.4165H11.4583C12.4916 5.4165 13.3333 4.57484 13.3333 3.5415C15.1749 3.5415 16.6666 4.1665 16.6666 6.87484Z" stroke="#28A487" stroke-width="1.5" stroke-linecap="round" stroke-linejoin="round"/>
    <path d="M13.3334 3.5415C13.3334 4.57484 12.4917 5.4165 11.4584 5.4165H8.54175C8.02508 5.4165 7.55839 5.20817 7.21673 4.8665C6.87506 4.52483 6.66675 4.05817 6.66675 3.5415C6.66675 2.50817 7.50841 1.6665 8.54175 1.6665H11.4584C11.9751 1.6665 12.4418 1.87484 12.7834 2.21651C13.1251 2.55817 13.3334 3.02484 13.3334 3.5415Z" stroke="#28A487" stroke-width="1.5" stroke-linecap="round" stroke-linejoin="round"/>
    <path d="M6.66675 10.8335H10.0001" stroke="#28A487" stroke-width="1.5" stroke-linecap="round" stroke-linejoin="round"/>
    <path d="M6.66675 14.1665H13.3334" stroke="#28A487" stroke-width="1.5" stroke-linecap="round" stroke-linejoin="round"/>
</svg>
