<svg width="20" height="20" viewBox="0 0 20 20" fill="none" xmlns="http://www.w3.org/2000/svg">
<g clip-path="url(#clip0_6862_14457)">
<path d="M10 20C7.325 20 4.81262 18.9609 2.92594 17.0741C1.03906 15.1874 0 12.675 0 10C0 7.32477 1.03906 4.81262 2.92594 2.92594C4.81266 1.03906 7.3248 0 10 0C12.675 0 15.1874 1.03906 17.0741 2.92594C18.9609 4.81262 20 7.325 20 10C20 12.6752 18.9609 15.1874 17.0741 17.0741C15.1874 18.9609 12.6752 20 10 20Z" fill="#F04438"/>
<path d="M17.0741 17.0741C18.9609 15.1874 20 12.6752 20 10C20 7.325 18.9609 4.81262 17.0741 2.92594C15.1874 1.03906 12.675 0 10 0V20C12.6752 20 15.1874 18.9609 17.0741 17.0741Z" fill="#F04438"/>
<path d="M15.0759 4.92361C14.821 4.66869 14.408 4.66869 14.1531 4.92361L12.7361 6.34061C11.9516 5.75213 11.001 5.43361 10 5.43361C8.77809 5.43361 7.63094 5.90795 6.76973 6.76916C5.14531 8.39377 5.00273 10.9472 6.34145 12.7352L4.9241 14.1525C4.66918 14.4072 4.66918 14.8206 4.9241 15.0753C5.05156 15.2028 5.21855 15.2665 5.38551 15.2665C5.55246 15.2665 5.71945 15.2028 5.84691 15.0753L7.26391 13.6583C8.0484 14.2468 8.99902 14.5653 10 14.5653C11.2219 14.5653 12.3691 14.091 13.2303 13.2298C14.8547 11.6052 14.9973 9.05174 13.6586 7.26377L15.0759 5.84643C15.3308 5.59178 15.3308 5.17838 15.0759 4.92361ZM7.69254 7.69209C8.30734 7.07752 9.12668 6.73889 10 6.73889C10.6506 6.73889 11.2712 6.92709 11.7996 7.27705L7.27762 11.7992C6.4402 10.5328 6.57848 8.80639 7.69254 7.69209ZM12.3075 12.307C11.6927 12.9216 10.8733 13.2602 10 13.2602C9.34937 13.2602 8.72883 13.072 8.20035 12.7221L12.7224 8.20002C13.5598 9.46631 13.4216 11.1927 12.3075 12.307Z" fill="white"/>
<path d="M15.0759 4.92361C14.821 4.66869 14.408 4.66869 14.1531 4.92361L12.7361 6.34061C11.9516 5.75213 11.001 5.43361 10 5.43361V6.73881C10.6506 6.73881 11.2712 6.92701 11.7996 7.27697L10 9.0767V10.9223L12.7224 8.1999C13.5598 9.46623 13.4216 11.1927 12.3075 12.307C11.6927 12.9215 10.8734 13.2602 10 13.2602V14.5654C11.222 14.5654 12.3691 14.091 13.2303 13.2298C14.8547 11.6052 14.9973 9.05178 13.6586 7.26381L15.0759 5.84646C15.3308 5.59178 15.3308 5.17838 15.0759 4.92361Z" fill="white"/>
</g>
<defs>
<clipPath id="clip0_6862_14457">
<rect width="20" height="20" fill="white"/>
</clipPath>
</defs>
</svg>
