<svg width="68" height="68" viewBox="0 0 68 68" fill="none" xmlns="http://www.w3.org/2000/svg">
<g clip-path="url(#clip0_6724_13166)">
<path d="M100 50C100 54.3323 96.2595 58.1151 95.1915 62.1109C94.0865 66.2452 95.4018 71.3855 93.3075 75.0052C91.1831 78.6768 86.0536 80.0952 83.0738 83.0748C80.0942 86.0544 78.676 91.1837 75.0046 93.3079C71.3851 95.402 66.245 94.0865 62.1109 95.1915C58.1153 96.2595 54.3325 100 50 100C45.6677 100 41.8849 96.2595 37.8891 95.1915C33.7548 94.0865 28.6145 95.4018 24.9948 93.3075C21.3232 91.1831 19.9048 86.0536 16.9252 83.0738C13.9456 80.0942 8.81633 78.676 6.69214 75.0046C4.59798 71.3851 5.91351 66.245 4.80847 62.1109C3.74052 58.1153 0 54.3325 0 50C0 45.6677 3.74052 41.8849 4.80847 37.8891C5.91351 33.7548 4.59819 28.6145 6.69254 24.9948C8.81694 21.3232 13.9464 19.9048 16.9262 16.9252C19.9058 13.9456 21.324 8.81633 24.9954 6.69214C28.6149 4.59798 33.755 5.91351 37.8891 4.80847C41.8847 3.74052 45.6675 0 50 0C54.3323 0 58.1151 3.74052 62.1109 4.80847C66.2452 5.91351 71.3855 4.59819 75.0052 6.69254C78.6768 8.81694 80.0952 13.9464 83.0748 16.9262C86.0544 19.9058 91.1837 21.324 93.3079 24.9954C95.402 28.6149 94.0865 33.755 95.1915 37.8891C96.2595 41.8847 100 45.6675 100 50Z" fill="#FE5E02"/>
<path d="M16.9256 16.9258C13.9458 19.9052 8.81673 21.3236 6.69234 24.9949C4.59798 28.6147 5.91351 33.755 4.80847 37.8893C3.74052 41.8851 0 45.6677 0 50.0002C0 54.3324 3.74052 58.1153 4.80847 62.1111C5.91351 66.2451 4.59798 71.3853 6.69214 75.0048C8.81633 78.6762 13.9458 80.0943 16.9252 83.074C19.9048 86.0538 21.3232 91.1832 24.9948 93.3076C28.6145 95.402 33.7548 94.0867 37.8891 95.1917C41.8849 96.2597 45.6677 100 50 100C54.3325 100 58.1153 96.2597 62.1109 95.1917C66.245 94.0867 71.3851 95.4022 75.0046 93.308C78.676 91.1838 80.0942 86.0544 83.0738 83.075L83.0742 83.0746L16.9256 16.9258Z" fill="#FE5E02"/>
<path d="M50 85.4839C69.5972 85.4839 85.4839 69.5972 85.4839 50C85.4839 30.4028 69.5972 14.5161 50 14.5161C30.4028 14.5161 14.5161 30.4028 14.5161 50C14.5161 69.5972 30.4028 85.4839 50 85.4839Z" fill="#FFEB3B"/>
<path d="M50 85.484C59.7986 85.484 68.6695 81.5122 75.0909 75.091L24.9091 24.9092C18.4879 31.3306 14.5161 40.2015 14.5161 50.0001C14.5161 69.5973 30.4028 85.484 50 85.484Z" fill="#FFEB3B"/>
<path d="M49.9999 80.6453C66.9248 80.6453 80.6451 66.925 80.6451 50.0001C80.6451 33.0753 66.9248 19.355 49.9999 19.355C33.075 19.355 19.3547 33.0753 19.3547 50.0001C19.3547 66.925 33.075 80.6453 49.9999 80.6453Z" fill="#FE5E02"/>
<path d="M28.3305 28.3306C22.785 33.8761 19.3547 41.5374 19.3547 49.9999C19.3547 66.9247 33.0751 80.6451 49.9999 80.6451C58.4624 80.6451 66.1237 77.2148 71.6693 71.6693L28.3305 28.3306Z" fill="#FE5E02"/>
<path d="M35.4838 66.9356C34.8649 66.9356 34.2457 66.6993 33.7733 66.2268C32.8282 65.2824 32.8282 63.7499 33.7733 62.8056L62.8056 33.7733C63.7507 32.8282 65.2816 32.8282 66.2267 33.7733C67.1719 34.7177 67.1719 36.2501 66.2267 37.1945L37.1945 66.2268C36.7219 66.6993 36.1028 66.9356 35.4838 66.9356Z" fill="white"/>
<path d="M40.3226 49.1936C35.4319 49.1936 31.4517 45.2142 31.4517 40.3226C31.4517 35.4311 35.4319 31.4517 40.3226 31.4517C45.2134 31.4517 49.1936 35.4311 49.1936 40.3226C49.1936 45.2142 45.2134 49.1936 40.3226 49.1936ZM40.3226 36.2904C38.0986 36.2904 36.2904 38.0994 36.2904 40.3226C36.2904 42.5458 38.0986 44.3549 40.3226 44.3549C42.5466 44.3549 44.3549 42.5458 44.3549 40.3226C44.3549 38.0994 42.5466 36.2904 40.3226 36.2904Z" fill="white"/>
<path d="M59.6774 68.5486C54.7866 68.5486 50.8064 64.5691 50.8064 59.6776C50.8064 54.7861 54.7866 50.8066 59.6774 50.8066C64.5681 50.8066 68.5483 54.7861 68.5483 59.6776C68.5483 64.5691 64.5681 68.5486 59.6774 68.5486ZM59.6774 55.6454C57.4534 55.6454 55.6451 57.4544 55.6451 59.6776C55.6451 61.9008 57.4534 63.7099 59.6774 63.7099C61.9014 63.7099 63.7096 61.9008 63.7096 59.6776C63.7096 57.4544 61.9014 55.6454 59.6774 55.6454Z" fill="white"/>
</g>
<defs>
<clipPath id="clip0_6724_13166">
<rect width="100" height="100" fill="white"/>
</clipPath>
</defs>
</svg>
