<svg width="32" height="32" viewBox="0 0 32 32" fill="none" xmlns="http://www.w3.org/2000/svg">
<g id="high-priority-svgrepo-com 1">
<path id="Vector" d="M14.1333 29.8666L2.13325 17.8666C1.06659 16.7999 1.06659 15.1333 2.13325 14.0666L14.1333 2.0666C15.1999 0.999935 16.8666 0.999935 17.9333 2.0666L29.9333 14.0666C30.9999 15.1333 30.9999 16.7999 29.9333 17.8666L17.9333 29.8666C16.8666 30.9333 15.1333 30.9333 14.1333 29.8666Z" fill="#FE5E02"/>
<path id="Vector_2" d="M14.3999 21.7998C14.3999 21.5998 14.4666 21.3998 14.5332 21.1998C14.5999 20.9998 14.7332 20.8665 14.8666 20.7332C14.9999 20.5998 15.1999 20.4665 15.3999 20.3998C15.5999 20.3332 15.7999 20.2665 16.0666 20.2665C16.3332 20.2665 16.5332 20.3332 16.7332 20.3998C16.9332 20.4665 17.1332 20.5998 17.2666 20.7332C17.3999 20.8665 17.5332 20.9998 17.5999 21.1998C17.6666 21.3998 17.7332 21.5998 17.7332 21.7998C17.7332 21.9998 17.6666 22.1998 17.5999 22.3998C17.5332 22.5998 17.3999 22.7332 17.2666 22.8665C17.1332 22.9998 16.9332 23.1332 16.7332 23.1998C16.5332 23.2665 16.3332 23.3332 16.0666 23.3332C15.7999 23.3332 15.5999 23.2665 15.3999 23.1998C15.1999 23.1332 15.0666 22.9998 14.8666 22.8665C14.7332 22.7332 14.5999 22.5998 14.5332 22.3998C14.4666 22.1998 14.3999 22.0665 14.3999 21.7998ZM17.1999 18.7332H14.7999L14.4666 8.6665H17.5332L17.1999 18.7332Z" fill="white"/>
</g>
</svg>
