<svg width="20" height="20" viewBox="0 0 20 20" fill="none" xmlns="http://www.w3.org/2000/svg">
<path d="M17.5 18.334H2.5C2.15833 18.334 1.875 18.0507 1.875 17.709C1.875 17.3673 2.15833 17.084 2.5 17.084H17.5C17.8417 17.084 18.125 17.3673 18.125 17.709C18.125 18.0507 17.8417 18.334 17.5 18.334Z" fill="#FE5E02"/>
<path d="M15.85 2.90005C14.2333 1.28338 12.65 1.24172 10.9916 2.90005L9.98331 3.90838C9.89998 3.99172 9.86665 4.12505 9.89998 4.24172C10.5333 6.45005 12.3 8.21672 14.5083 8.85005C14.5416 8.85838 14.575 8.86672 14.6083 8.86672C14.7 8.86672 14.7833 8.83338 14.85 8.76672L15.85 7.75838C16.675 6.94172 17.075 6.15005 17.075 5.35005C17.0833 4.52505 16.6833 3.72505 15.85 2.90005Z" fill="#FE5E02"/>
<path d="M13.0084 9.60768C12.7668 9.49101 12.5334 9.37435 12.3084 9.24102C12.1251 9.13268 11.9501 9.01602 11.7751 8.89102C11.6334 8.79935 11.4668 8.66602 11.3084 8.53268C11.2918 8.52435 11.2334 8.47435 11.1668 8.40768C10.8918 8.17435 10.5834 7.87435 10.3084 7.54102C10.2834 7.52435 10.2418 7.46602 10.1834 7.39102C10.1001 7.29102 9.95844 7.12435 9.83344 6.93268C9.73344 6.80768 9.61677 6.62435 9.50844 6.44102C9.3751 6.21602 9.25844 5.99102 9.14177 5.75768C8.9888 5.4299 8.55859 5.33253 8.30282 5.5883L3.61677 10.2743C3.50844 10.3827 3.40844 10.591 3.38344 10.7327L2.93344 13.9243C2.8501 14.491 3.00844 15.0243 3.35844 15.3827C3.65844 15.6743 4.0751 15.8327 4.5251 15.8327C4.6251 15.8327 4.7251 15.8243 4.8251 15.8077L8.0251 15.3577C8.1751 15.3327 8.38344 15.2327 8.48344 15.1243L13.1772 10.4306C13.4279 10.1799 13.3337 9.74863 13.0084 9.60768Z" fill="#FE5E02"/>
</svg>
