<svg width="77" height="64" viewBox="0 0 77 64" fill="none" xmlns="http://www.w3.org/2000/svg">
<g clip-path="url(#clip0_7801_36612)">
<path d="M66.9766 4.92315L71.5447 17.7695C71.8913 18.7463 72.439 19.6394 73.1526 20.3911C73.8661 21.1427 74.7295 21.7362 75.6869 22.1331C76.6444 22.53 77.6744 22.7214 78.7105 22.695C79.7466 22.6686 80.7656 22.425 81.7015 21.9798L94.0155 16.1262C100.308 13.135 106.872 19.6992 103.881 25.9916L98.0247 38.3013C97.5801 39.237 97.3368 40.2557 97.3106 41.2913C97.2844 42.327 97.4758 43.3566 97.8725 44.3137C98.2691 45.2707 98.8622 46.1339 99.6134 46.8473C100.365 47.5608 101.257 48.1087 102.233 48.4556L115.08 53.0237C121.64 55.358 121.64 64.6416 115.08 66.9759L102.233 71.544C101.257 71.8907 100.364 72.4386 99.6123 73.1522C98.8608 73.8659 98.2675 74.7293 97.8708 75.6867C97.4741 76.6441 97.2828 77.6741 97.3093 78.7101C97.3358 79.7461 97.5795 80.765 98.0247 81.7008L103.878 94.0148C106.87 100.307 100.305 106.871 94.0129 103.88L81.7015 98.024C80.7657 97.5788 79.7468 97.3351 78.7108 97.3086C77.6748 97.2821 76.6448 97.4734 75.6874 97.8701C74.73 98.2668 73.8666 98.8601 73.1529 99.6115C72.4393 100.363 71.8914 101.256 71.5447 102.233L66.9766 115.079C64.6423 121.639 55.3587 121.639 53.0244 115.079L48.4563 102.233C48.1091 101.257 47.5611 100.364 46.8475 99.6134C46.1339 98.8625 45.2707 98.2697 44.3137 97.8733C43.3567 97.4769 42.3271 97.2857 41.2916 97.3121C40.2561 97.3385 39.2376 97.5819 38.302 98.0265L25.9847 103.878C19.6922 106.869 13.128 100.305 16.1192 94.0122L21.9805 81.7008C22.4253 80.7652 22.6688 79.7468 22.6953 78.7112C22.7217 77.6756 22.5306 76.646 22.1341 75.689C21.7377 74.7319 21.1449 73.8687 20.3939 73.1551C19.6429 72.4416 18.7506 71.8936 17.7745 71.5465L4.92386 66.9759C-1.63608 64.6416 -1.63608 55.358 4.92386 53.0237L17.7703 48.4556C18.7466 48.1089 19.6393 47.5611 20.3907 46.8477C21.142 46.1343 21.7353 45.2712 22.1321 44.3141C22.529 43.3571 22.7205 42.3274 22.6944 41.2916C22.6683 40.2559 22.4251 39.2371 21.9805 38.3013L16.1226 25.9839C13.1314 19.6915 19.6956 13.1273 25.9881 16.1185L38.302 21.9798C39.2376 22.4245 40.2561 22.6679 41.2916 22.6943C42.3271 22.7206 43.3567 22.5295 44.3137 22.133C45.2707 21.7366 46.1339 21.1438 46.8475 20.3929C47.5611 19.642 48.1091 18.7498 48.4563 17.7738L53.0244 4.92315C55.3587 -1.64105 64.6423 -1.64105 66.9766 4.92315Z" fill="#FFBF99"/>
<path d="M65.8002 14.2064L69.5981 24.8872C69.8868 25.6983 70.3424 26.4399 70.9355 27.064C71.5286 27.6882 72.246 28.1809 73.0414 28.5105C73.8368 28.8401 74.6925 28.9991 75.5532 28.9774C76.4139 28.9557 77.2605 28.7537 78.0383 28.3844L88.2769 23.5181C93.5078 21.0313 98.9653 26.4888 96.4785 31.7198L91.6122 41.9584C91.2424 42.7362 91.0399 43.583 91.0179 44.4439C90.9959 45.3049 91.1549 46.1609 91.4845 46.9566C91.8141 47.7523 92.3071 48.4699 92.9315 49.0631C93.5559 49.6563 94.2979 50.1118 95.1094 50.4002L105.789 54.199C111.247 56.1398 111.247 63.8575 105.789 65.7982L95.1094 69.5961C94.2979 69.8847 93.5559 70.3403 92.9315 70.9335C92.3071 71.5268 91.8141 72.2445 91.4845 73.0403C91.1548 73.836 90.9959 74.6921 91.0179 75.5531C91.0399 76.4142 91.2424 77.261 91.6122 78.0389L96.4785 88.2775C98.9653 93.5084 93.5078 98.9659 88.2769 96.4791L78.0383 91.6128C77.2604 91.243 76.4136 91.0405 75.5525 91.0185C74.6915 90.9965 73.8354 91.1555 73.0397 91.4851C72.2439 91.8147 71.5262 92.3077 70.9329 92.9321C70.3397 93.5565 69.884 94.2985 69.5955 95.1101L65.7976 105.79C63.8569 111.247 56.1391 111.247 54.1984 105.79L50.3996 95.1101C50.1112 94.2985 49.6557 93.5565 49.0625 92.9321C48.4693 92.3077 47.7517 91.8147 46.956 91.4851C46.1603 91.1555 45.3043 90.9965 44.4433 91.0185C43.5823 91.0405 42.7356 91.243 41.9578 91.6128L31.7192 96.4791C26.4882 98.9659 21.0307 93.5084 23.5175 88.2775L28.3864 78.0363C28.7561 77.2584 28.9584 76.4116 28.9804 75.5506C29.0023 74.6896 28.8433 73.8336 28.5137 73.0379C28.1841 72.2422 27.6912 71.5245 27.0669 70.9312C26.4425 70.3379 25.7006 69.8822 24.8891 69.5936L14.2084 65.7982C8.75085 63.8575 8.75085 56.1398 14.2084 54.199L24.8891 50.4002C25.7006 50.1117 26.4425 49.6561 27.0668 49.0629C27.6912 48.4697 28.1841 47.7521 28.5137 46.9565C28.8433 46.1608 29.0023 45.3048 28.9803 44.4439C28.9584 43.583 28.7561 42.7362 28.3864 41.9584L23.5201 31.7198C21.0333 26.4888 26.4908 21.0313 31.7217 23.5181L41.9603 28.3844C42.7382 28.7541 43.5849 28.9565 44.4459 28.9784C45.3068 29.0003 46.1628 28.8414 46.9584 28.5117C47.754 28.1821 48.4717 27.6892 49.0649 27.0649C49.6581 26.4405 50.1137 25.6987 50.4022 24.8872L54.201 14.2064C56.1434 8.7489 63.8594 8.7489 65.8002 14.2064Z" fill="#FFEFE6"/>
<path d="M64.8633 21.5937L68.0487 30.5518C68.2911 31.2322 68.6736 31.854 69.1714 32.3773C69.6692 32.9006 70.2712 33.3136 70.9386 33.5896C71.606 33.8656 72.3239 33.9986 73.0459 33.9798C73.7678 33.9611 74.4779 33.7911 75.13 33.4808L83.7167 29.3992C88.1042 27.3136 92.6817 31.8911 90.5961 36.2786L86.5145 44.8653C86.2043 45.5176 86.0344 46.2278 86.0159 46.9499C85.9974 47.6719 86.1307 48.3899 86.407 49.0572C86.6834 49.7246 87.0968 50.3265 87.6204 50.8241C88.1441 51.3216 88.7663 51.7038 89.4469 51.9457L98.405 55.132C102.982 56.7592 102.982 63.2323 98.405 64.8603L89.4469 68.0457C88.7663 68.2878 88.144 68.67 87.6204 69.1676C87.0967 69.6653 86.6834 70.2673 86.407 70.9347C86.1306 71.6021 85.9974 72.3201 86.0159 73.0423C86.0344 73.7644 86.2043 74.4747 86.5145 75.127L90.5961 83.7137C92.6817 88.1012 88.1042 92.6787 83.7167 90.5931L75.13 86.5115C74.4776 86.2013 73.7674 86.0314 73.0453 86.0129C72.3231 85.9944 71.6051 86.1276 70.9377 86.404C70.2703 86.6804 69.6683 87.0938 69.1706 87.6174C68.673 88.141 68.2908 88.7633 68.0487 89.4439L64.8633 98.402C63.2352 102.98 56.7622 102.98 55.135 98.402L51.9487 89.4439C51.7068 88.7633 51.3246 88.1411 50.8271 87.6174C50.3295 87.0938 49.7276 86.6804 49.0602 86.4041C48.3929 86.1277 47.6749 85.9944 46.9528 86.0129C46.2307 86.0314 45.5206 86.2013 44.8683 86.5115L36.2816 90.5931C31.8941 92.6787 27.3166 88.1012 29.4021 83.7137L33.4804 75.1304C33.7906 74.4781 33.9605 73.7678 33.979 73.0457C33.9975 72.3235 33.8643 71.6055 33.5879 70.9381C33.3115 70.2707 32.8981 69.6687 32.3745 69.1711C31.8509 68.6734 31.2286 68.2912 30.548 68.0491L21.5933 64.8637C17.0158 63.2357 17.0158 56.7626 21.5933 55.1354L30.5514 51.9492C31.2317 51.7068 31.8536 51.3244 32.3768 50.8267C32.9001 50.329 33.3131 49.727 33.5891 49.0597C33.8652 48.3924 33.9981 47.6746 33.9794 46.9527C33.9607 46.2307 33.7907 45.5208 33.4804 44.8687L29.4021 36.282C27.3166 31.8945 31.8941 27.317 36.2816 29.4026L44.8683 33.4808C45.5206 33.791 46.2307 33.9609 46.9528 33.9794C47.6749 33.9979 48.3929 33.8646 49.0602 33.5883C49.7276 33.3119 50.3295 32.8985 50.8271 32.3749C51.3246 31.8512 51.7068 31.229 51.9487 30.5484L55.135 21.5903C56.7622 17.0162 63.2352 17.0162 64.8633 21.5937Z" fill="#FFBF99"/>
<path d="M63.8962 29.2487L66.4469 36.4212C66.6407 36.9661 66.9467 37.4643 67.3451 37.8836C67.7436 38.3028 68.2255 38.6338 68.7599 38.8551C69.2943 39.0764 69.8692 39.1831 70.4473 39.1683C71.0255 39.1535 71.5942 39.0175 72.1165 38.7691L78.9917 35.5011C82.5051 33.8313 86.1701 37.4963 84.4995 41.0097L81.2314 47.8849C80.9831 48.407 80.8471 48.9754 80.8321 49.5534C80.8172 50.1314 80.9236 50.7061 81.1445 51.2404C81.3655 51.7747 81.696 52.2567 82.1148 52.6553C82.5337 53.0539 83.0314 53.3603 83.576 53.5545L90.7485 56.1052C94.4118 57.4079 94.4118 62.5911 90.7485 63.8945L83.576 66.4452C83.031 66.6391 82.5328 66.9451 82.1136 67.3435C81.6943 67.7419 81.3633 68.2239 81.1419 68.7582C80.9205 69.2926 80.8137 69.8674 80.8284 70.4456C80.8431 71.0238 80.979 71.5925 81.2272 72.1149L84.4952 78.99C86.1659 82.5034 82.5008 86.1685 78.9874 84.4978L72.1123 81.2298C71.5902 80.9821 71.0221 80.8466 70.4444 80.8319C69.8668 80.8173 69.2925 80.924 68.7586 81.1449C68.2247 81.3659 67.7431 81.6964 67.3447 82.115C66.9464 82.5336 66.6403 83.031 66.446 83.5752L63.8962 90.7511C62.5927 94.4144 57.4095 94.4144 56.1069 90.7511L53.5553 83.5752C53.3615 83.0303 53.0555 82.532 52.657 82.1128C52.2586 81.6935 51.7767 81.3625 51.2423 81.1411C50.708 80.9198 50.1331 80.813 49.5549 80.8276C48.9767 80.8423 48.4081 80.9782 47.8856 81.2264L41.0105 84.4944C37.4971 86.1651 33.832 82.5 35.5018 78.9866L38.7699 72.1115C39.0183 71.5891 39.1542 71.0205 39.1691 70.4423C39.1839 69.8641 39.0772 69.2892 38.8559 68.7549C38.6346 68.2205 38.3036 67.7385 37.8843 67.3401C37.4651 66.9417 36.9669 66.6356 36.4219 66.4418L29.2495 63.8954C25.5861 62.5919 25.5861 57.4087 29.2495 56.1061L36.4219 53.5554C36.9669 53.3616 37.4651 53.0556 37.8843 52.6571C38.3036 52.2587 38.6346 51.7767 38.8559 51.2423C39.0772 50.708 39.1839 50.1331 39.1691 49.5549C39.1542 48.9767 39.0183 48.4081 38.7699 47.8857L35.5018 41.0106C33.832 37.4972 37.4971 33.8321 41.0105 35.5019L47.8856 38.77C48.408 39.0183 48.9766 39.1543 49.5548 39.1691C50.133 39.1839 50.7079 39.0772 51.2423 38.8559C51.7766 38.6346 52.2586 38.3037 52.657 37.8844C53.0555 37.4652 53.3615 36.967 53.5553 36.422L56.106 29.2495C57.4086 25.5836 62.5918 25.5836 63.8962 29.2487Z" fill="#FFEFE6"/>
<path d="M63.2487 34.3513L65.3786 40.3336C65.5401 40.7881 65.7953 41.2037 66.1275 41.5534C66.4597 41.9032 66.8616 42.1793 67.3073 42.364C67.7529 42.5487 68.2323 42.6378 68.7146 42.6256C69.1968 42.6133 69.6711 42.5001 70.1068 42.2931L75.8412 39.5668C78.7711 38.1739 81.8278 41.2307 80.4349 44.1614L77.7087 49.8958C77.5015 50.3315 77.3881 50.8058 77.3759 51.2881C77.3636 51.7703 77.4527 52.2498 77.6374 52.6955C77.8221 53.1411 78.0982 53.5431 78.4481 53.8753C78.7979 54.2075 79.2135 54.4626 79.6681 54.624L85.6505 56.7539C88.7072 57.841 88.7072 62.1637 85.6505 63.2508L79.6681 65.3806C79.2135 65.5421 78.7979 65.7971 78.4481 66.1294C78.0982 66.4616 77.8221 66.8635 77.6374 67.3092C77.4527 67.7549 77.3636 68.2343 77.3759 68.7166C77.3881 69.1989 77.5015 69.6732 77.7087 70.1089L80.4349 75.8433C81.8278 78.7731 78.7711 81.8299 75.8412 80.437L70.1068 77.7108C69.6711 77.5036 69.1968 77.3902 68.7145 77.3779C68.2323 77.3657 67.7528 77.4547 67.3071 77.6394C66.8615 77.8241 66.4595 78.1003 66.1273 78.4501C65.7951 78.7999 65.54 79.2156 65.3786 79.6702L63.2487 85.6525C62.1616 88.7093 57.8389 88.7093 56.7518 85.6525L54.622 79.6702C54.4605 79.2156 54.2054 78.7999 53.8732 78.4501C53.541 78.1003 53.1391 77.8241 52.6934 77.6394C52.2477 77.4547 51.7683 77.3657 51.286 77.3779C50.8037 77.3902 50.3294 77.5036 49.8937 77.7108L44.1593 80.437C41.2286 81.8299 38.1719 78.7731 39.5648 75.8433L42.291 70.1089C42.498 69.6732 42.6113 69.1989 42.6235 68.7166C42.6357 68.2344 42.5466 67.755 42.3619 67.3093C42.1773 66.8637 41.9011 66.4618 41.5514 66.1296C41.2016 65.7973 40.7861 65.5422 40.3315 65.3806L34.3492 63.2508C31.2925 62.1637 31.2925 57.841 34.3492 56.7539L40.3315 54.624C40.7861 54.4625 41.2016 54.2073 41.5514 53.8751C41.9011 53.5429 42.1773 53.1409 42.3619 52.6953C42.5466 52.2497 42.6357 51.7702 42.6235 51.288C42.6113 50.8058 42.498 50.3315 42.291 49.8958L39.5648 44.1614C38.1744 41.2332 41.2346 38.1731 44.1619 39.566L49.8963 42.2922C50.332 42.4992 50.8063 42.6125 51.2885 42.6247C51.7707 42.6369 52.2502 42.5478 52.6958 42.3631C53.1414 42.1785 53.5434 41.9023 53.8756 41.5526C54.2078 41.2028 54.463 40.7873 54.6245 40.3327L56.7544 34.3504C57.8389 31.2945 62.1616 31.2945 63.2487 34.3513Z" fill="#FFBF99"/>
<path d="M63.2487 34.3513L65.3786 40.3336C65.5401 40.7881 65.7953 41.2037 66.1275 41.5534C66.4597 41.9032 66.8616 42.1793 67.3073 42.364C67.7529 42.5487 68.2323 42.6378 68.7146 42.6256C69.1968 42.6133 69.6711 42.5001 70.1068 42.2931L75.8412 39.5668C78.7711 38.1739 81.8278 41.2307 80.4349 44.1614L77.7087 49.8958C77.5015 50.3315 77.3881 50.8058 77.3759 51.2881C77.3636 51.7703 77.4527 52.2498 77.6374 52.6955C77.8221 53.1411 78.0982 53.5431 78.4481 53.8753C78.7979 54.2075 79.2135 54.4626 79.6681 54.624L85.6505 56.7539C88.7072 57.841 88.7072 62.1637 85.6505 63.2508L79.6681 65.3806C79.2135 65.5421 78.7979 65.7971 78.4481 66.1294C78.0982 66.4616 77.8221 66.8635 77.6374 67.3092C77.4527 67.7549 77.3636 68.2343 77.3759 68.7166C77.3881 69.1989 77.5015 69.6732 77.7087 70.1089L80.4349 75.8433C81.8278 78.7731 78.7711 81.8299 75.8412 80.437L70.1068 77.7108C69.6711 77.5036 69.1968 77.3902 68.7145 77.3779C68.2323 77.3657 67.7528 77.4547 67.3071 77.6394C66.8615 77.8241 66.4595 78.1003 66.1273 78.4501C65.7951 78.7999 65.54 79.2156 65.3786 79.6702L63.2487 85.6525C62.1616 88.7093 57.8389 88.7093 56.7518 85.6525L54.622 79.6702C54.4605 79.2156 54.2054 78.7999 53.8732 78.4501C53.541 78.1003 53.1391 77.8241 52.6934 77.6394C52.2477 77.4547 51.7683 77.3657 51.286 77.3779C50.8037 77.3902 50.3294 77.5036 49.8937 77.7108L44.1593 80.437C41.2286 81.8299 38.1719 78.7731 39.5648 75.8433L42.291 70.1089C42.498 69.6732 42.6113 69.1989 42.6235 68.7166C42.6357 68.2344 42.5466 67.755 42.3619 67.3093C42.1773 66.8637 41.9011 66.4618 41.5514 66.1296C41.2016 65.7973 40.7861 65.5422 40.3315 65.3806L34.3492 63.2508C31.2925 62.1637 31.2925 57.841 34.3492 56.7539L40.3315 54.624C40.7861 54.4625 41.2016 54.2073 41.5514 53.8751C41.9011 53.5429 42.1773 53.1409 42.3619 52.6953C42.5466 52.2497 42.6357 51.7702 42.6235 51.288C42.6113 50.8058 42.498 50.3315 42.291 49.8958L39.5648 44.1614C38.1744 41.2332 41.2346 38.1731 44.1619 39.566L49.8963 42.2922C50.332 42.4992 50.8063 42.6125 51.2885 42.6247C51.7707 42.6369 52.2502 42.5478 52.6958 42.3631C53.1414 42.1785 53.5434 41.9023 53.8756 41.5526C54.2078 41.2028 54.463 40.7873 54.6245 40.3327L56.7544 34.3504C57.8389 31.2945 62.1616 31.2945 63.2487 34.3513Z" fill="#FFBF99"/>
<path d="M62.4265 40.8446L64.0154 45.3121C64.1361 45.6516 64.3266 45.9619 64.5748 46.2231C64.8229 46.4843 65.1231 46.6905 65.4559 46.8283C65.7888 46.9662 66.1468 47.0327 66.507 47.0235C66.8671 47.0143 67.2213 46.9296 67.5467 46.7749L71.8285 44.7396C74.0163 43.6994 76.2995 45.9818 75.2593 48.1704L73.224 52.4523C73.0693 52.7776 72.9846 53.1318 72.9754 53.492C72.9662 53.8521 73.0327 54.2102 73.1706 54.543C73.3085 54.8758 73.5146 55.176 73.7758 55.4242C74.037 55.6723 74.3473 55.8629 74.6868 55.9835L79.1535 57.5724C81.4367 58.3843 81.4367 61.6123 79.1535 62.4285L74.6868 64.0131C74.3473 64.1337 74.037 64.3243 73.7758 64.5725C73.5146 64.8206 73.3085 65.1208 73.1706 65.4536C73.0327 65.7865 72.9662 66.1445 72.9754 66.5047C72.9846 66.8648 73.0693 67.219 73.224 67.5444L75.2593 71.8262C76.2995 74.014 74.0163 76.2972 71.8285 75.257L67.5467 73.2217C67.2213 73.067 66.8671 72.9823 66.507 72.9731C66.1468 72.9639 65.7888 73.0304 65.4559 73.1683C65.1231 73.3061 64.8229 73.5123 64.5748 73.7735C64.3266 74.0347 64.1361 74.345 64.0154 74.6845L62.4265 79.1512C61.6146 81.4344 58.3866 81.4344 57.5705 79.1512L55.9816 74.6845C55.8609 74.345 55.6703 74.0347 55.4222 73.7735C55.1741 73.5123 54.8739 73.3061 54.541 73.1683C54.2082 73.0304 53.8501 72.9639 53.49 72.9731C53.1299 72.9823 52.7757 73.067 52.4503 73.2217L48.1685 75.257C45.9798 76.2972 43.6975 74.014 44.7377 71.8262L46.773 67.5444C46.9277 67.219 47.0123 66.8648 47.0215 66.5047C47.0307 66.1445 46.9643 65.7865 46.8264 65.4536C46.6885 65.1208 46.4823 64.8206 46.2212 64.5725C45.96 64.3243 45.6496 64.1337 45.3102 64.0131L40.8426 62.4242C38.5603 61.6123 38.5603 58.3843 40.8426 57.5681L45.3102 55.9793C45.6496 55.8586 45.96 55.668 46.2212 55.4199C46.4823 55.1718 46.6885 54.8716 46.8264 54.5387C46.9643 54.2059 47.0307 53.8478 47.0215 53.4877C47.0123 53.1276 46.9277 52.7734 46.773 52.448L44.7377 48.1661C43.7051 45.9818 45.9841 43.7028 48.1727 44.7396L52.4546 46.7749C52.7799 46.9296 53.1341 47.0143 53.4943 47.0235C53.8544 47.0327 54.2125 46.9662 54.5453 46.8283C54.8781 46.6905 55.1783 46.4843 55.4265 46.2231C55.6746 45.9619 55.8652 45.6516 55.9859 45.3121L57.5747 40.8446C58.3866 38.5622 61.6146 38.5622 62.4265 40.8446Z" fill="#FFEFE6"/>
</g>
<defs>
<clipPath id="clip0_7801_36612">
<rect width="120" height="120" fill="white"/>
</clipPath>
</defs>
</svg>
