<svg width="28" height="28" viewBox="0 0 28 28" fill="none" xmlns="http://www.w3.org/2000/svg">
<g clip-path="url(#clip0_7607_30658)">
<path d="M20.86 15.682V27.9999H7.49609V12H17.178L18.893 13.715L20.86 15.682Z" fill="#B12A27"/>
<path d="M13.5538 13.0713H7.14453V15.939H13.5538V13.0713Z" fill="#F2F2F2"/>
<path d="M9.44081 14.0107C9.41253 13.9424 9.37484 13.8812 9.32303 13.8294C9.27122 13.7775 9.20759 13.7351 9.13456 13.7069C9.05919 13.6762 8.97438 13.6621 8.88016 13.6621H8.17578V15.4807H8.5315V14.7952H8.88016C8.97438 14.7952 9.05919 14.781 9.13456 14.7504C9.20759 14.7221 9.27119 14.6798 9.32303 14.6279C9.37487 14.5761 9.41256 14.5172 9.44081 14.4465C9.46672 14.3782 9.48088 14.3052 9.48088 14.2298C9.48084 14.1521 9.46672 14.079 9.44081 14.0107ZM9.05681 14.4088C9.00969 14.4536 8.94375 14.4771 8.86366 14.4771H8.5315V13.9777H8.86366C8.94375 13.9777 9.00972 14.0013 9.05681 14.0484C9.10156 14.0931 9.12512 14.1544 9.12512 14.2298C9.12516 14.3028 9.10159 14.3641 9.05681 14.4088Z" fill="#B12A27"/>
<path d="M11.1411 14.3665C11.1387 14.3029 11.1363 14.2463 11.1293 14.1945C11.1222 14.1426 11.1104 14.0955 11.0939 14.0508C11.0774 14.0084 11.0563 13.966 11.028 13.9283C10.9644 13.8364 10.8866 13.7681 10.7995 13.7257C10.7099 13.6833 10.6039 13.6621 10.4791 13.6621H9.82422V15.4807H10.4791C10.6039 15.4807 10.7099 15.4595 10.7995 15.4171C10.8866 15.3747 10.9644 15.3064 11.028 15.2145C11.0563 15.1768 11.0774 15.1344 11.0939 15.092C11.1104 15.0473 11.1222 15.0001 11.1293 14.9483C11.1363 14.8965 11.1387 14.84 11.1411 14.7764C11.1434 14.7151 11.1434 14.6468 11.1434 14.5714C11.1434 14.496 11.1434 14.4277 11.1411 14.3665ZM10.7853 14.7552C10.7853 14.8094 10.7806 14.8518 10.7759 14.8895C10.7712 14.9248 10.7641 14.9578 10.7547 14.9813C10.7453 15.0072 10.7312 15.0308 10.7147 15.052C10.6558 15.1274 10.5663 15.1627 10.4485 15.1627H10.1776V13.9778H10.4485C10.5663 13.9778 10.6558 14.0155 10.7147 14.0908C10.7312 14.112 10.7453 14.1332 10.7547 14.1591C10.7641 14.185 10.7712 14.2157 10.7759 14.2534C10.7806 14.2887 10.7853 14.3335 10.7853 14.3853C10.7877 14.4371 10.7877 14.5007 10.7877 14.5714C10.7877 14.6421 10.7877 14.7033 10.7853 14.7552Z" fill="#B12A27"/>
<path d="M12.66 13.9778V13.6621H11.4609V15.4807H11.8167V14.7434H12.5352V14.4254H11.8167V13.9778H12.66Z" fill="#B12A27"/>
<path d="M9.44081 14.0107C9.41253 13.9424 9.37484 13.8812 9.32303 13.8294C9.27122 13.7775 9.20759 13.7351 9.13456 13.7069C9.05919 13.6762 8.97438 13.6621 8.88016 13.6621H8.17578V15.4807H8.5315V14.7952H8.88016C8.97438 14.7952 9.05919 14.781 9.13456 14.7504C9.20759 14.7221 9.27119 14.6798 9.32303 14.6279C9.37487 14.5761 9.41256 14.5172 9.44081 14.4465C9.46672 14.3782 9.48088 14.3052 9.48088 14.2298C9.48084 14.1521 9.46672 14.079 9.44081 14.0107ZM9.05681 14.4088C9.00969 14.4536 8.94375 14.4771 8.86366 14.4771H8.5315V13.9777H8.86366C8.94375 13.9777 9.00972 14.0013 9.05681 14.0484C9.10156 14.0931 9.12512 14.1544 9.12512 14.2298C9.12516 14.3028 9.10159 14.3641 9.05681 14.4088Z" fill="#B12A27"/>
<path opacity="0.08" d="M20.86 15.6828V28.0008H7.49609V25.1127L13.7434 18.8654L14.1132 18.4955L14.3182 18.2906L14.6598 17.949L15.065 17.5438L18.893 13.7158L20.86 15.6828Z" fill="#040000"/>
<path d="M20.8582 15.6824H17.1758V12L20.8582 15.6824Z" fill="#771B1B"/>
<path d="M18.9539 23.5841C18.8761 23.4475 18.7701 23.3179 18.6382 23.2001C18.5299 23.1012 18.4027 23.0093 18.2589 22.9245C17.6794 22.583 16.8526 22.418 15.7289 22.418H15.6159C15.5546 22.3615 15.491 22.305 15.425 22.2461C14.9987 21.8621 14.6594 21.4451 14.3956 20.9811C14.9139 19.8385 15.1612 18.8209 15.1306 17.954C15.1259 17.8079 15.1047 17.6713 15.067 17.5441C15.0104 17.3391 14.9162 17.1577 14.7843 17.0093C14.7819 17.007 14.7819 17.007 14.7796 17.0046C14.5699 16.769 14.2778 16.6348 13.981 16.6348C13.6818 16.6348 13.4062 16.7643 13.2059 17.0023C13.0081 17.2378 12.9021 17.5606 12.8974 17.9398C12.8903 18.5193 12.9374 19.0682 13.0364 19.5747C13.0458 19.6147 13.0529 19.6548 13.0623 19.6948C13.1612 20.1542 13.3073 20.59 13.4957 20.9951C13.2743 21.4451 13.0505 21.8338 12.895 22.0976C12.7772 22.2979 12.6476 22.5075 12.5134 22.7172C11.908 22.8255 11.3944 22.9575 10.9468 23.1224C10.3414 23.3415 9.85614 23.6241 9.50748 23.961C9.28133 24.1777 9.1282 24.4086 9.05283 24.6489C8.97273 24.8962 8.97745 25.1435 9.06695 25.365C9.14939 25.5699 9.29779 25.7419 9.4957 25.8597C9.54282 25.888 9.59229 25.9115 9.64411 25.9327C9.79489 25.994 9.95976 26.0269 10.1317 26.0269C10.5299 26.0269 10.9397 25.855 11.286 25.5464C11.9315 24.9692 12.5981 24.0411 12.9915 23.4545C13.3143 23.405 13.6653 23.3626 14.061 23.3202C14.5275 23.2731 14.9397 23.2448 15.3143 23.2307C15.4297 23.3343 15.5404 23.4333 15.6464 23.5275C16.2354 24.0528 16.6829 24.4321 17.0881 24.6983C17.0881 24.7006 17.0905 24.7006 17.0929 24.7006C17.253 24.8066 17.4062 24.8938 17.5593 24.9645C17.7313 25.0445 17.9056 25.087 18.0846 25.087C18.3108 25.087 18.5228 25.0186 18.6994 24.8938C18.8785 24.7642 19.008 24.5781 19.0669 24.3685C19.1353 24.1165 19.0952 23.8362 18.9539 23.5841ZM13.7454 18.8656C13.7124 18.5735 13.6983 18.2696 13.703 17.9493C13.7077 17.6454 13.8184 17.4404 13.981 17.4404C14.1035 17.4404 14.233 17.5511 14.2919 17.7631C14.3084 17.8267 14.3202 17.8998 14.3225 17.9822C14.3273 18.0811 14.3249 18.1848 14.3202 18.2908C14.3061 18.59 14.2542 18.908 14.1647 19.2496C14.1105 19.4687 14.0399 19.6972 13.9527 19.9351C13.8538 19.6006 13.7831 19.2449 13.7454 18.8656ZM9.81611 25.0658C9.77604 24.9669 9.82082 24.7761 10.0658 24.5405C10.4404 24.1825 11.0269 23.8998 11.8444 23.6854C11.6889 23.8974 11.5358 24.0906 11.3874 24.2672C11.1612 24.5405 10.9445 24.7714 10.749 24.9457C10.5817 25.0964 10.398 25.1907 10.2237 25.2142C10.193 25.219 10.1624 25.2213 10.1318 25.2213C9.97864 25.2213 9.85379 25.1601 9.81611 25.0658ZM13.5805 22.5617L13.597 22.5358L13.5711 22.5405C13.5758 22.5288 13.5829 22.517 13.5899 22.5076C13.6889 22.3403 13.8137 22.126 13.948 21.8786L13.9598 21.9045L13.9904 21.8409C14.0894 21.9823 14.1977 22.1213 14.3108 22.2555C14.365 22.3191 14.4215 22.3804 14.478 22.4416L14.4404 22.444L14.4733 22.4746C14.3767 22.4816 14.2754 22.4911 14.1741 22.5005C14.1105 22.5075 14.0446 22.5123 13.9786 22.5193C13.842 22.5335 13.7077 22.5476 13.5805 22.5617ZM17.5452 24.0317C17.2648 23.8526 16.9515 23.6006 16.5652 23.2637C17.1141 23.3202 17.5452 23.4404 17.8514 23.6194C17.9857 23.6972 18.087 23.7773 18.1553 23.855C18.2684 23.9751 18.3084 24.0835 18.2872 24.1565C18.2684 24.2295 18.1859 24.279 18.0846 24.279C18.0257 24.279 17.9645 24.2649 17.9009 24.2343C17.7925 24.1825 17.6794 24.1188 17.5593 24.0411C17.5546 24.0411 17.5499 24.0364 17.5452 24.0317Z" fill="#F2F2F2"/>
</g>
<rect x="12" width="16" height="16" rx="8" fill="#D6F5EE"/>
<path d="M24.625 6.57484C23.47 4.75984 21.78 3.71484 20 3.71484C19.11 3.71484 18.245 3.97484 17.455 4.45984C16.665 4.94984 15.955 5.66484 15.375 6.57484C14.875 7.35984 14.875 8.63484 15.375 9.41984C16.53 11.2398 18.22 12.2798 20 12.2798C20.89 12.2798 21.755 12.0198 22.545 11.5348C23.335 11.0448 24.045 10.3298 24.625 9.41984C25.125 8.63984 25.125 7.35984 24.625 6.57484ZM20 10.0198C18.88 10.0198 17.98 9.11484 17.98 7.99984C17.98 6.88484 18.88 5.97984 20 5.97984C21.12 5.97984 22.02 6.88484 22.02 7.99984C22.02 9.11484 21.12 10.0198 20 10.0198Z" fill="#28A487"/>
<path d="M19.9992 6.57031C19.2142 6.57031 18.5742 7.21031 18.5742 8.00031C18.5742 8.78531 19.2142 9.42531 19.9992 9.42531C20.7842 9.42531 21.4292 8.78531 21.4292 8.00031C21.4292 7.21531 20.7842 6.57031 19.9992 6.57031Z" fill="#28A487"/>
<defs>
<clipPath id="clip0_7607_30658">
<rect width="16" height="16" fill="white" transform="translate(6 12)"/>
</clipPath>
</defs>
</svg>
