<svg width="32" height="32" viewBox="0 0 32 32" fill="none" xmlns="http://www.w3.org/2000/svg">
<g id="pdf-file-svgrepo-com 2" clip-path="url(#clip0_4722_251629)">
<g id="Group">
<path id="Vector" d="M29.716 7.36394V31.9999H2.98828V0H22.3522L25.782 3.42994L29.716 7.36394Z" fill="#B12A27"/>
<path id="Vector_2" d="M15.1037 2.14355H2.28516V7.87906H15.1037V2.14355Z" fill="#F2F2F2"/>
<g id="Group_2">
<g id="Group_3">
<path id="Vector_3" d="M6.88163 4.02245C6.82506 3.88582 6.74969 3.76332 6.64606 3.6597C6.54244 3.55607 6.41519 3.47126 6.26912 3.4147C6.11837 3.35345 5.94875 3.3252 5.76031 3.3252H4.35156V6.96238H5.063V5.59132H5.76031C5.94875 5.59132 6.11837 5.56307 6.26912 5.50182C6.41519 5.44526 6.54237 5.36051 6.64606 5.25682C6.74975 5.1532 6.82513 5.03538 6.88163 4.89407C6.93344 4.75745 6.96175 4.61138 6.96175 4.46063C6.96169 4.30513 6.93344 4.15907 6.88163 4.02245ZM6.11363 4.81863C6.01938 4.90813 5.8875 4.95526 5.72731 4.95526H5.063V3.95645H5.72731C5.8875 3.95645 6.01944 4.00357 6.11363 4.09776C6.20312 4.18726 6.25025 4.30976 6.25025 4.46051C6.25031 4.60663 6.20319 4.72913 6.11363 4.81863Z" fill="#B12A27"/>
<path id="Vector_4" d="M10.2821 4.73388C10.2774 4.6067 10.2727 4.49363 10.2586 4.38995C10.2444 4.28626 10.2209 4.19207 10.1879 4.10257C10.1549 4.01776 10.1125 3.93295 10.0559 3.85757C9.92875 3.67382 9.77325 3.5372 9.59894 3.45238C9.41988 3.36757 9.20788 3.3252 8.95819 3.3252H7.64844V6.96238H8.95819C9.20788 6.96238 9.41988 6.92001 9.59894 6.8352C9.77325 6.75038 9.92875 6.61376 10.0559 6.43001C10.1125 6.35463 10.1549 6.26982 10.1879 6.18501C10.2209 6.09551 10.2444 6.00126 10.2586 5.89763C10.2727 5.79401 10.2774 5.68088 10.2821 5.5537C10.2868 5.4312 10.2868 5.29457 10.2868 5.14382C10.2868 4.99307 10.2868 4.85638 10.2821 4.73388ZM9.57069 5.51132C9.57069 5.6197 9.56125 5.70451 9.55181 5.77988C9.54238 5.85057 9.52825 5.91651 9.50944 5.96363C9.49063 6.01544 9.46231 6.06257 9.42938 6.10495C9.31156 6.2557 9.13256 6.32638 8.897 6.32638H8.35519V3.95651H8.897C9.13256 3.95651 9.31163 4.03188 9.42938 4.18263C9.46238 4.22501 9.49063 4.26745 9.50944 4.31926C9.52825 4.37107 9.54244 4.43232 9.55181 4.5077C9.56125 4.57838 9.57069 4.66788 9.57069 4.77151C9.57538 4.8752 9.57538 5.00238 9.57538 5.1437C9.57544 5.28513 9.57544 5.40763 9.57069 5.51132Z" fill="#B12A27"/>
<path id="Vector_5" d="M13.3239 3.95651V3.3252H10.9258V6.96238H11.6372V5.48776H13.0742V4.8517H11.6372V3.95651H13.3239Z" fill="#B12A27"/>
</g>
<g id="Group_4">
<path id="Vector_6" d="M6.88163 4.02245C6.82506 3.88582 6.74969 3.76332 6.64606 3.6597C6.54244 3.55607 6.41519 3.47126 6.26912 3.4147C6.11837 3.35345 5.94875 3.3252 5.76031 3.3252H4.35156V6.96238H5.063V5.59132H5.76031C5.94875 5.59132 6.11837 5.56307 6.26912 5.50182C6.41519 5.44526 6.54237 5.36051 6.64606 5.25682C6.74975 5.1532 6.82513 5.03538 6.88163 4.89407C6.93344 4.75745 6.96175 4.61138 6.96175 4.46063C6.96169 4.30513 6.93344 4.15907 6.88163 4.02245ZM6.11363 4.81863C6.01938 4.90813 5.8875 4.95526 5.72731 4.95526H5.063V3.95645H5.72731C5.8875 3.95645 6.01944 4.00357 6.11363 4.09776C6.20312 4.18726 6.25025 4.30976 6.25025 4.46051C6.25031 4.60663 6.20319 4.72913 6.11363 4.81863Z" fill="#B12A27"/>
</g>
</g>
<path id="Vector_7" opacity="0.08" d="M29.716 7.36515V32.0011H2.98828V26.2249L15.4829 13.7303L16.2226 12.9906L16.6325 12.5807L17.3157 11.8975L18.126 11.0872L25.782 3.43115L29.716 7.36515Z" fill="#040000"/>
<path id="Vector_8" d="M29.7163 7.36475H22.3516V0L29.7163 7.36475Z" fill="#771B1B"/>
<g id="Group_5">
<path id="Vector_9" d="M25.9 23.1672C25.7445 22.894 25.5325 22.6349 25.2687 22.3993C25.052 22.2014 24.7975 22.0177 24.5101 21.8481C23.3511 21.1649 21.6974 20.8351 19.45 20.8351H19.2239C19.1014 20.7221 18.9742 20.609 18.8423 20.4912C17.9895 19.7232 17.3111 18.8893 16.7834 17.9612C17.8199 15.6761 18.3146 13.6408 18.2533 11.907C18.2439 11.6149 18.2015 11.3416 18.1262 11.0872C18.0131 10.6773 17.8247 10.3145 17.5608 10.0177C17.5561 10.013 17.5561 10.013 17.5513 10.0082C17.132 9.53712 16.5478 9.26855 15.9542 9.26855C15.3558 9.26855 14.8046 9.52768 14.4041 10.0036C14.0083 10.4747 13.7963 11.1202 13.7869 11.8787C13.7728 13.0377 13.867 14.1354 14.0649 15.1484C14.0837 15.2285 14.0979 15.3086 14.1167 15.3886C14.3146 16.3074 14.6067 17.1789 14.9836 17.9893C14.5407 18.8892 14.0932 19.6666 13.7822 20.1942C13.5466 20.5947 13.2875 21.0141 13.0189 21.4334C11.8081 21.6501 10.781 21.9139 9.88584 22.2437C8.67502 22.6819 7.70446 23.2472 7.00715 23.921C6.55484 24.3544 6.24859 24.8162 6.09784 25.2967C5.93765 25.7914 5.94709 26.2861 6.12609 26.729C6.29096 27.1389 6.58778 27.4828 6.98359 27.7184C7.07784 27.7749 7.17678 27.822 7.2804 27.8644C7.58196 27.9869 7.91171 28.0529 8.25565 28.0529C9.0519 28.0529 9.87165 27.7089 10.5642 27.0917C11.8552 25.9374 13.1885 24.0812 13.9753 22.908C14.6207 22.8091 15.3227 22.7242 16.1143 22.6394C17.0471 22.5452 17.8717 22.4887 18.6208 22.4604C18.8517 22.6677 19.0731 22.8656 19.2851 23.054C20.463 24.1046 21.3581 24.8632 22.1685 25.3956C22.1685 25.4002 22.1732 25.4002 22.1779 25.4002C22.4983 25.6122 22.8045 25.7866 23.1108 25.9279C23.4547 26.0881 23.8033 26.1729 24.1614 26.1729C24.6137 26.1729 25.0377 26.0363 25.3911 25.7866C25.7492 25.5275 26.0083 25.1553 26.1261 24.736C26.2627 24.232 26.1827 23.6714 25.9 23.1672ZM15.483 13.7303C15.4171 13.1461 15.3888 12.5383 15.3982 11.8976C15.4077 11.2898 15.6291 10.8799 15.9542 10.8799C16.1992 10.8799 16.4583 11.1013 16.576 11.5253C16.609 11.6525 16.6326 11.7986 16.6373 11.9634C16.6467 12.1613 16.642 12.3686 16.6326 12.5806C16.6043 13.179 16.5006 13.815 16.3216 14.4982C16.2133 14.9364 16.072 15.3934 15.8977 15.8692C15.6998 15.2002 15.5584 14.4888 15.483 13.7303ZM7.6244 26.1307C7.54428 25.9328 7.63384 25.5512 8.12384 25.0801C8.87296 24.3639 10.0461 23.7986 11.681 23.3698C11.37 23.7938 11.0638 24.1802 10.767 24.5335C10.3147 25.08 9.88121 25.5417 9.49015 25.8904C9.15565 26.1919 8.78815 26.3804 8.43953 26.4275C8.37828 26.4369 8.31703 26.4416 8.25578 26.4416C7.94946 26.4417 7.69978 26.3192 7.6244 26.1307ZM15.1532 21.1225L15.1862 21.0707L15.1344 21.0801C15.1438 21.0566 15.158 21.033 15.1721 21.0142C15.37 20.6797 15.6197 20.2509 15.8882 19.7562L15.9118 19.8081L15.973 19.6809C16.1709 19.9636 16.3877 20.2416 16.6138 20.5101C16.7221 20.6372 16.8352 20.7597 16.9483 20.8822L16.8729 20.8869L16.9388 20.9482C16.7456 20.9623 16.5431 20.9812 16.3405 21C16.2133 21.0141 16.0813 21.0236 15.9494 21.0377C15.6762 21.0659 15.4076 21.0942 15.1532 21.1225ZM23.0825 24.0624C22.5218 23.7043 21.8953 23.2002 21.1226 22.5264C22.2203 22.6395 23.0825 22.8798 23.695 23.2379C23.9636 23.3934 24.1662 23.5536 24.3028 23.709C24.5289 23.9492 24.609 24.166 24.5666 24.3121C24.5289 24.4581 24.364 24.5571 24.1614 24.5571C24.0436 24.5571 23.9212 24.5288 23.7939 24.4676C23.5772 24.3639 23.351 24.2367 23.1108 24.0812C23.1013 24.0812 23.092 24.0718 23.0825 24.0624Z" fill="#F2F2F2"/>
</g>
</g>
</g>
<defs>
<clipPath id="clip0_4722_251629">
<rect width="32" height="32" fill="white"/>
</clipPath>
</defs>
</svg>
