<svg width="24" height="24" viewBox="0 0 24 24" fill="none" xmlns="http://www.w3.org/2000/svg">
<g id="health-clinic-pharmacy-svgrepo-com 1">
<path id="Vector" d="M19.3703 13.7388L12.1987 8.98633L8.77521 14.1167C7.17503 16.618 7.60596 20.4453 9.10657 21.4052C10.6077 22.3651 14.653 21.1152 16.2527 18.6138L19.3703 13.7388Z" fill="#FE5E02"/>
<path id="Vector_2" d="M21.9772 8.86217C23.5768 6.36083 22.6358 3.55465 21.1352 2.59479C19.6341 1.63489 16.0993 2.88481 14.4997 5.38615L11.6631 9.78781L18.5486 14.1911L21.9772 8.86217Z" fill="#1F92D0"/>
<path id="Vector_3" d="M16.5333 19.7723L19.6509 14.8972L18.8737 12.1211L14.7218 18.6138C13.1221 21.1151 10.6085 22.3651 9.10742 21.4052C11.6093 23.0048 14.9337 22.2736 16.5333 19.7723Z" fill="#FE5E02"/>
<path id="Vector_4" d="M9.28658 15.1364L13.5663 8.44336L10.5921 9.10289L7.47453 13.9779C5.87487 16.4793 6.60603 19.8042 9.10737 21.4038C7.60676 20.4439 7.68641 17.6378 9.28658 15.1364Z" fill="#E4F2FF"/>
<path id="Vector_5" d="M22.768 10.0216C24.3677 7.52025 23.6365 4.19536 21.1352 2.5957C22.6358 3.55561 22.5556 6.36173 20.956 8.86308L17.8389 13.7381L19.6504 14.8966L22.768 10.0216Z" fill="#1F92D0"/>
<path id="Vector_6" d="M15.5209 5.38698C17.1206 2.88564 19.6342 1.63572 21.1353 2.59562C18.6334 0.995968 15.3091 1.72712 13.7094 4.22847L10.5918 9.10352L12.4033 10.262L15.5209 5.38698Z" fill="#1F92D0"/>
<path id="Vector_7" d="M13.1281 10.2612L5.95645 15.0137L2.53298 9.88334C0.932855 7.382 1.36378 3.5547 2.86439 2.59479C4.36551 1.63489 8.41082 2.88481 10.0105 5.38615L13.1281 10.2612Z" fill="#FE5E02"/>
<path id="Vector_8" d="M15.735 15.1375C17.3346 17.6389 16.3936 20.445 14.893 21.4049C13.3919 22.3648 9.85715 21.1149 8.25749 18.6135L5.4209 14.2118L12.3064 9.80859L15.735 15.1375Z" fill="#1F92D0"/>
<path id="Vector_9" d="M10.2911 4.22847L13.4087 9.10351L12.6315 11.8796L8.47959 5.38698C6.87994 2.88564 4.36631 1.63572 2.86523 2.59562C5.36705 0.995968 8.69147 1.72712 10.2911 4.22847Z" fill="#FE5E02"/>
<path id="Vector_10" d="M3.04439 8.86308L7.32412 15.5561L4.34995 14.8966L1.23234 10.0216C-0.367313 7.52025 0.363843 4.19536 2.86519 2.5957C1.36458 3.55561 1.44422 6.36173 3.04439 8.86308Z" fill="#FE5E02"/>
<path id="Vector_11" d="M16.5258 13.9786C18.1255 16.4799 17.3943 19.8048 14.893 21.4045C16.3936 20.4445 16.3134 17.6384 14.7138 15.1371L11.5967 10.262L13.4082 9.10352L16.5258 13.9786Z" fill="#1F92D0"/>
<path id="Vector_12" d="M9.27875 18.6133C10.8784 21.1147 13.392 22.3646 14.8931 21.4047C12.3912 23.0043 9.06687 22.2732 7.46722 19.7718L4.34961 14.8968L6.16114 13.7383L9.27875 18.6133Z" fill="#1F92D0"/>
<g id="Group">
<path id="Vector_13" d="M13.7308 8.89739L10.6133 4.02239C9.54927 2.35856 7.73356 1.36523 5.75623 1.36523C4.65852 1.36523 3.58733 1.6792 2.6585 2.2732C1.36245 3.10191 0.466766 4.38581 0.136391 5.88825C-0.193984 7.39073 0.080469 8.93194 0.909313 10.2279L4.02669 15.1028L7.1442 19.9778C8.20822 21.6416 10.0239 22.635 12.0013 22.635C13.0988 22.635 14.1702 22.321 15.099 21.727C16.395 20.8982 17.2907 19.6144 17.621 18.1119C17.9514 16.6094 17.677 15.0682 16.8481 13.7722L13.7308 8.89739ZM0.884375 6.05273C1.17083 4.75003 1.94741 3.63694 3.07109 2.91834C3.8765 2.40333 4.805 2.13108 5.75619 2.13108C7.47097 2.13108 9.0455 2.99231 9.96805 4.43498L12.8792 8.98734L4.46572 14.3677L1.55455 9.8153C0.835953 8.69166 0.597969 7.35539 0.884375 6.05273ZM16.8732 17.9475C16.5867 19.2502 15.8101 20.3633 14.6864 21.0818C13.881 21.5969 12.9525 21.8692 12.0013 21.8691C10.2866 21.8691 8.71203 21.0078 7.78948 19.5653L4.87831 15.0129L13.2918 9.63248L16.203 14.1848C16.9215 15.3086 17.1595 16.6448 16.8732 17.9475Z" fill="white"/>
<path id="Vector_14" d="M4.49217 12.9881C4.5653 13.1024 4.6889 13.1648 4.81509 13.1648C4.88569 13.1648 4.95712 13.1453 5.02106 13.1044C5.19919 12.9905 5.25126 12.7537 5.13731 12.5755L2.84498 8.99082C2.3468 8.2118 2.18184 7.28546 2.3804 6.38241C2.57897 5.47927 3.11733 4.70766 3.89625 4.20947C4.07437 4.09557 4.12645 3.85871 4.0125 3.68058C3.89855 3.50241 3.66178 3.45033 3.48361 3.56429C2.53228 4.17263 1.87486 5.1151 1.63233 6.21793C1.38984 7.3208 1.59131 8.45208 2.1997 9.40341L4.49217 12.9881Z" fill="white"/>
<path id="Vector_15" d="M12.0015 20.3372C10.8117 20.3372 9.71959 19.74 9.07993 18.7398L6.78755 15.1552C6.6736 14.977 6.43684 14.925 6.25866 15.0389C6.08054 15.1528 6.02846 15.3896 6.14241 15.5678L8.43479 19.1524C9.21582 20.3739 10.5492 21.103 12.0015 21.103C12.213 21.103 12.3844 20.9316 12.3844 20.7201C12.3844 20.5086 12.213 20.3372 12.0015 20.3372Z" fill="white"/>
<path id="Vector_16" d="M15.0292 14.4803C14.851 14.5942 14.799 14.8311 14.9129 15.0092C15.4111 15.7882 15.5761 16.7146 15.3775 17.6176C15.3321 17.8241 15.4627 18.0284 15.6693 18.0738C15.697 18.0799 15.7247 18.0828 15.7518 18.0828C15.9277 18.0828 16.0862 17.9609 16.1255 17.782C16.368 16.6791 16.1665 15.5478 15.5581 14.5965C15.4442 14.4184 15.2074 14.3664 15.0292 14.4803Z" fill="white"/>
<path id="Vector_17" d="M14.9999 5.43663C15.1261 5.43663 15.2498 5.37423 15.3228 5.25991C15.9618 4.26081 17.0543 3.66428 18.2453 3.66428C18.9045 3.66428 19.5473 3.85248 20.1041 4.20855C20.2822 4.32245 20.5191 4.27042 20.633 4.09225C20.7469 3.91408 20.6948 3.67727 20.5167 3.56336C19.8365 3.12841 19.051 2.89844 18.2453 2.89844C16.7917 2.89844 15.458 3.62697 14.6775 4.84731C14.5636 5.02544 14.6157 5.26225 14.7938 5.3762C14.8578 5.41712 14.9293 5.43663 14.9999 5.43663Z" fill="white"/>
</g>
</g>
</svg>
