<svg width="28" height="28" viewBox="0 0 28 28" fill="none" xmlns="http://www.w3.org/2000/svg">
<g id="notification-svgrepo-com (1) 1">
<g id="icons">
<g id="ui-gambling-website-lined-icnos-casinoshunter">
<g id="4">
<g id="notification">
<path id="Path" d="M23.0586 20.3327V11.5295C23.0586 6.52648 19.0028 2.4707 13.9997 2.4707C8.99669 2.4707 4.94092 6.52648 4.94092 11.5295V20.3327H6.58798C8.80022 20.3327 11.2708 20.3327 13.9997 20.3327C16.7287 20.3327 19.1993 20.3327 21.4115 20.3327H23.0586Z" fill="#FFCCE4"/>
<path id="Path_2" d="M23.4705 18.9414C25.0624 18.9414 26.3529 20.2319 26.3529 21.8238C26.3529 23.4156 25.0624 24.7061 23.4705 24.7061H4.52933C2.93745 24.7061 1.64697 23.4156 1.64697 21.8238C1.64697 20.2319 2.93745 18.9414 4.52933 18.9414H23.4705Z" fill="#CC005F"/>
<path id="Oval" d="M9.05857 23.0588C9.05857 25.7878 11.2708 28 13.9997 28C16.7287 28 18.9409 25.7878 18.9409 23.0588H9.05857Z" fill="#FF99C9"/>
<path id="Rectangle-Copy-11" d="M12.3528 4.16895L15.6469 4.16895H17.2939V2.88193C17.2939 1.29005 16.0035 -0.000421047 14.4116 -0.000421047L13.5881 -0.000421047C11.9962 -0.000421047 10.7057 1.29005 10.7057 2.88193V4.16895H12.3528Z" fill="#FF99C9"/>
<path id="Path_3" d="M21.4116 2.4707C19.1375 2.4707 17.2939 4.31424 17.2939 6.58835C17.2939 8.86246 19.1375 10.706 21.4116 10.706C23.6857 10.706 25.5292 8.86246 25.5292 6.58835C25.5292 4.31424 23.6857 2.4707 21.4116 2.4707Z" fill="#F04438"/>
</g>
</g>
</g>
</g>
</g>
</svg>
