<svg width="16" height="16" viewBox="0 0 16 16" fill="none" xmlns="http://www.w3.org/2000/svg">
<g clip-path="url(#clip0_2662_36821)">
<path d="M14.833 2.32838C14.0365 1.42891 12.9357 0.933594 11.7333 0.933594C10.7888 0.933594 9.90522 1.31794 9.17813 2.04503C8.69306 2.53013 8.29281 3.14691 8.00003 3.85538C7.70719 3.14691 7.307 2.53016 6.82194 2.04503C6.09484 1.31794 5.21125 0.933594 4.26672 0.933594C3.06431 0.933594 1.96353 1.42894 1.16709 2.32841C0.425375 3.16594 0 4.30988 0 5.46691C0 6.85622 0.420375 8.22738 1.24941 9.54247C1.90594 10.5838 2.819 11.592 3.96331 12.539C5.90225 14.1436 7.81063 15.0076 7.89091 15.0436C7.95975 15.0744 8.04025 15.0744 8.10906 15.0436C8.18937 15.0076 10.0977 14.1436 12.0367 12.539C13.181 11.592 14.094 10.5838 14.7506 9.54247C15.5796 8.22738 16 6.85622 16 5.46691C16 4.30988 15.5746 3.16594 14.833 2.32838Z" fill="#FF3392"/>
<path d="M5.02997 12.539C3.88566 11.592 2.97259 10.5838 2.31606 9.54244C1.48703 8.22734 1.06666 6.85616 1.06666 5.46687C1.06666 4.30984 1.49203 3.16591 2.23369 2.32834C2.90369 1.57169 3.78916 1.10112 4.76925 0.97075C4.60406 0.946187 4.43634 0.933594 4.26669 0.933594C3.06428 0.933594 1.9635 1.42894 1.16706 2.32841C0.425375 3.16591 0 4.30984 0 5.46687C0 6.85619 0.420375 8.22734 1.24941 9.54244C1.90594 10.5838 2.819 11.592 3.96331 12.539C5.90225 14.1436 7.81063 15.0076 7.89091 15.0435C7.95975 15.0744 8.04025 15.0744 8.10906 15.0435C8.13059 15.0339 8.28363 14.9647 8.53334 14.8377C7.85169 14.491 6.44909 13.7134 5.02997 12.539Z" fill="#CC005F"/>
<path d="M2.66699 8.10578H4.71744L5.93655 6.49867L7.10033 9.49111L8.37499 6L9.56633 9.82356L10.9241 8.10578H13.7781" stroke="white" stroke-width="0.64" stroke-linecap="round" stroke-linejoin="round"/>
</g>
<defs>
<clipPath id="clip0_2662_36821">
<rect width="16" height="16" fill="white"/>
</clipPath>
</defs>
</svg>
