<svg width="20" height="20" viewBox="0 0 20 20" fill="none" xmlns="http://www.w3.org/2000/svg">
<g id="vuesax/bold/hospital">
<g id="hospital">
<path id="Vector" d="M18.3327 17.709H1.66602C1.32435 17.709 1.04102 17.9923 1.04102 18.334C1.04102 18.6757 1.32435 18.959 1.66602 18.959H18.3327C18.6743 18.959 18.9577 18.6757 18.9577 18.334C18.9577 17.9923 18.6743 17.709 18.3327 17.709Z" fill="#E6398A"/>
<path id="Vector_2" d="M14.1667 1.66602H5.83333C3.33333 1.66602 2.5 3.15768 2.5 4.99935V18.3327H7.5V13.2827C7.5 12.8493 7.85 12.4993 8.28333 12.4993H11.725C12.15 12.4993 12.5083 12.8493 12.5083 13.2827V18.3327H17.5083V4.99935C17.5 3.15768 16.6667 1.66602 14.1667 1.66602ZM12.0833 7.70768H10.625V9.16602C10.625 9.50768 10.3417 9.79102 10 9.79102C9.65833 9.79102 9.375 9.50768 9.375 9.16602V7.70768H7.91667C7.575 7.70768 7.29167 7.42435 7.29167 7.08268C7.29167 6.74102 7.575 6.45768 7.91667 6.45768H9.375V4.99935C9.375 4.65768 9.65833 4.37435 10 4.37435C10.3417 4.37435 10.625 4.65768 10.625 4.99935V6.45768H12.0833C12.425 6.45768 12.7083 6.74102 12.7083 7.08268C12.7083 7.42435 12.425 7.70768 12.0833 7.70768Z" fill="#E6398A"/>
</g>
</g>
</svg>
