<svg width="24" height="24" viewBox="0 0 24 24" fill="none" xmlns="http://www.w3.org/2000/svg">
<g id="upward-svgrepo-com 1" clip-path="url(#clip0_7111_23534)">
<g id="Group">
<g id="Group_2">
<path id="Vector" d="M1.99341 1.87193C8.64471 5.82967 8.8386 11.0677 8.64871 13.0066H3.50458C3.09982 13.0066 2.73499 13.2495 2.58107 13.6233C2.42618 13.9971 2.51212 14.4268 2.79794 14.7127L11.7929 23.7077C12.1827 24.0974 12.8154 24.0974 13.2062 23.7077L22.2011 14.7127C22.4869 14.4269 22.5729 13.9971 22.418 13.6233C22.2631 13.2496 21.8983 13.0067 21.4945 13.0067H17.4927C17.2558 7.2609 13.372 2.24673 7.80417 0.640644C5.86927 0.081974 4.24318 -1.14441e-05 3.28571 -1.14441e-05C3.03385 -1.14441e-05 2.82898 0.00599098 2.67604 0.0099926L2.50514 0.0139942C2.05539 0.0139942 1.66059 0.313826 1.54167 0.747566C1.42176 1.18228 1.60667 1.64203 1.99341 1.87193Z" fill="#FE5E02"/>
</g>
</g>
</g>
<defs>
<clipPath id="clip0_7111_23534">
<rect width="24" height="24" fill="white" transform="matrix(-1 0 0 -1 24 24)"/>
</clipPath>
</defs>
</svg>
