<svg width="36" height="37" viewBox="0 0 36 37" fill="none" xmlns="http://www.w3.org/2000/svg">
<g id="great-svgrepo-com 1" clip-path="url(#clip0_2701_71459)">
<g id="Group">
<path id="Vector" d="M36.9569 23.2992H16.3229C16.1948 23.2992 16.072 23.2483 15.9814 23.1578C15.8908 23.0672 15.84 22.9443 15.84 22.8163V2.18218C15.84 2.05409 15.8908 1.93125 15.9814 1.84068C16.072 1.7501 16.1948 1.69922 16.3229 1.69922H28.1749L37.4399 10.9642V22.8162C37.4399 22.8796 37.4274 22.9424 37.4032 23.001C37.3789 23.0596 37.3433 23.1129 37.2985 23.1577C37.2536 23.2026 37.2004 23.2382 37.1418 23.2624C37.0832 23.2867 37.0204 23.2992 36.9569 23.2992Z" fill="#EAECF0"/>
<path id="Vector_2" d="M25.5468 7.15387H19.1349C18.7721 7.15387 18.4779 6.85971 18.4779 6.49686C18.4779 6.134 18.7721 5.83984 19.1349 5.83984H25.5468C25.9097 5.83984 26.2038 6.134 26.2038 6.49686C26.2038 6.85971 25.9097 7.15387 25.5468 7.15387ZM26.2038 10.7973C26.2038 10.4344 25.9097 10.1403 25.5468 10.1403H19.1349C18.7721 10.1403 18.4779 10.4344 18.4779 10.7973C18.4779 11.1601 18.7721 11.4543 19.1349 11.4543H25.5468C25.9097 11.4542 26.2038 11.1601 26.2038 10.7973ZM26.2038 15.0977C26.2038 14.7349 25.9097 14.4407 25.5468 14.4407H19.1349C18.7721 14.4407 18.4779 14.7348 18.4779 15.0977C18.4779 15.4605 18.7721 15.7547 19.1349 15.7547H25.5468C25.9097 15.7546 26.2038 15.4605 26.2038 15.0977ZM31.7547 19.398C31.7547 19.0352 31.4606 18.741 31.0977 18.741H19.1349C18.7721 18.741 18.4779 19.0352 18.4779 19.398C18.4779 19.7609 18.7721 20.0551 19.1349 20.0551H31.0977C31.4606 20.055 31.7547 19.7608 31.7547 19.398ZM33.9679 15.0977C33.9679 14.7349 33.6737 14.4407 33.3108 14.4407H28.8846C28.5218 14.4407 28.2276 14.7348 28.2276 15.0977C28.2276 15.4605 28.5217 15.7547 28.8846 15.7547H33.3108C33.6737 15.7546 33.9679 15.4605 33.9679 15.0977Z" fill="#FE5E02"/>
<path id="Vector_3" d="M28.1749 1.69922L37.4399 10.9642H30.1443C29.0566 10.9642 28.1749 10.0825 28.1749 8.99489V1.69922Z" fill="#D0D5DD"/>
</g>
<g id="Group_2">
<path id="Vector_4" d="M21.8767 34.2169H11.5068C10.4719 34.2169 8.9895 32.9023 8.9895 31.9838V22.8285C8.98959 22.7286 9.01627 22.6305 9.0668 22.5443C9.11733 22.4581 9.1899 22.3869 9.27704 22.3381C11.3455 21.1814 12.3923 19.1284 13.4842 15.98V12.9634C13.4842 12.8613 13.5116 12.7615 13.5643 12.6737C13.9056 12.1053 14.4828 11.7793 15.1478 11.7793C15.9664 11.7793 16.7961 12.2556 17.4248 13.0862C18.5551 14.5809 18.8349 16.9303 18.2203 19.6089H22.9543C24.0068 19.6089 26.4 20.693 26.4 22.4773C26.4 23.0666 26.3309 23.9632 25.9567 24.4866C26.2519 25.3107 26.3079 26.6451 25.4036 27.5855C25.4782 29.1723 25.0777 30.3256 24.2361 30.9566C24.2219 31.7961 23.8344 32.8232 23.2539 33.4882C22.8381 33.9645 22.3619 34.2169 21.8767 34.2169Z" fill="#D6F5EE"/>
<path id="Vector_5" d="M8.14236 35.341H1.97084C0.884461 35.341 0 34.4577 0 33.3713V21.5791C0 20.4927 0.884461 19.6094 1.97084 19.6094H8.14233C9.22874 19.6094 10.1132 20.4927 10.1132 21.5791V33.3713C10.1132 34.4577 9.22877 35.341 8.14236 35.341Z" fill="#28A487"/>
</g>
</g>
<defs>
<clipPath id="clip0_2701_71459">
<rect width="36" height="36" fill="white" transform="translate(0 0.5)"/>
</clipPath>
</defs>
</svg>
