<svg width="20" height="12" viewBox="0 0 20 12" fill="none" xmlns="http://www.w3.org/2000/svg">
<g id="Layer 1">
<path id="Vector" d="M14.509 6.02398C14.1697 5.6504 13.6962 5.15641 12.969 4.46971C13.3219 4.25557 13.6576 4.07164 13.974 3.91348L14.2879 3.76189C15.1889 3.3422 15.9132 3.13555 16.407 3.0337C16.6542 2.98269 16.844 2.95789 16.9695 2.94582C16.9858 2.94426 17.001 2.9429 17.0151 2.94174C18.4275 3.88771 19.124 4.78755 19.3879 5.52356C19.6524 6.26135 19.4961 6.86309 19.1427 7.28865C18.4082 8.17301 16.6897 8.42443 15.46 7.10609C15.3069 6.94119 15.1729 6.78537 15.0235 6.61115L15.0107 6.59623C14.8654 6.42671 14.7063 6.24116 14.509 6.02398Z" stroke="#28A487" stroke-width="0.960541"/>
<path id="Vector_2" d="M12.3135 3.74952L12.3156 3.74819C12.7515 3.47548 13.1651 3.2476 13.553 3.0538L13.5587 3.05094L13.5588 3.05098L13.8785 2.89654L13.9844 3.11576L13.982 3.0934L13.8858 2.88717C14.6293 2.54033 15.27 2.32438 15.7825 2.18993C15.7366 2.16626 15.6904 2.14316 15.6437 2.12063L15.6182 2.10831L15.5944 2.09308C15.4224 1.98337 15.1017 1.84566 14.7905 1.72683C14.6417 1.67 14.5055 1.62139 14.4065 1.58698C14.3731 1.57534 14.3439 1.56536 14.3201 1.55728H14.3137L14.2439 1.53556C13.0072 1.15045 11.7129 0.935181 10.4043 0.897313C9.59291 0.903591 8.78479 0.98867 7.99391 1.151L7.93482 1.16372L7.92824 1.16513L7.92823 1.16509C7.44117 1.26281 6.87101 1.46918 6.40853 1.65944C6.18041 1.75328 5.98444 1.84071 5.84581 1.90454C5.77657 1.93641 5.72185 1.9623 5.68482 1.98004L5.64299 2.00022L5.6328 2.0052L5.63053 2.00632L5.63018 2.00649L5.63011 2.00652L5.63011 2.00652L5.63008 2.00654L5.62384 2.00962L5.62382 2.00958C4.93169 2.33928 4.27848 2.73035 3.67379 3.17669L3.64824 3.19632L3.64762 3.1968C3.43511 3.35956 2.01081 4.48523 1.03246 6.0162V6.03074L0.954002 6.14772L0.848406 6.35775C0.839129 6.3762 0.829348 6.39447 0.822971 6.40638C0.822012 6.40817 0.82113 6.40982 0.820339 6.4113C0.812998 6.42505 0.809452 6.43192 0.806873 6.43729C0.799066 6.45352 0.792179 6.46756 0.785798 6.48057C0.775378 6.50181 0.766308 6.5203 0.756784 6.5411L12.3135 3.74952ZM12.3135 3.74952L12.13 3.86565M12.3135 3.74952L13.7676 3.48345C13.3924 3.67089 12.9923 3.89134 12.5704 4.15535M15.8527 1.68819C16.0704 1.79336 16.2809 1.91015 16.4831 2.03792L15.8527 1.68819ZM15.8527 1.68819C15.4161 1.40966 14.3984 1.07701 14.3984 1.07701L15.8527 1.68819ZM12.5704 4.15535L12.5703 4.15534L12.5704 4.15535ZM12.5704 4.15535L12.3659 4.28471L12.1872 3.83893C12.1678 3.84671 12.1487 3.85561 12.13 3.86565M12.13 3.86565C12.1139 3.87428 12.0982 3.88374 12.0828 3.89405M12.13 3.86565L12.0828 3.89405M12.0828 3.89405C11.1588 4.47563 10.3576 5.20705 9.72063 6.05375C9.24703 6.65576 8.83902 7.2837 8.45782 7.87038L8.43234 7.90959C8.03802 8.51639 7.6744 9.07262 7.2783 9.55308C6.5034 10.493 5.64183 11.1003 4.27985 11.1003C2.13731 11.1003 0.480536 9.59729 0.480539 7.80922L0.480533 7.80753C0.479008 7.37464 0.57234 6.9444 0.756732 6.54121L12.0828 3.89405ZM14.1856 3.27777C15.1166 2.85281 15.8675 2.64564 16.3814 2.54463L14.0582 3.17995V2.84873H14.0874L14.1856 3.27777Z" stroke="#28A487" stroke-width="0.960541"/>
</g>
</svg>
