<svg width="20" height="20" viewBox="0 0 20 20" fill="none" xmlns="http://www.w3.org/2000/svg">
<g id="vuesax/linear/receipt-item">
<path id="Vector" d="M18.3334 4.99935V7.01601C18.3334 8.33268 17.5 9.16602 16.1834 9.16602H13.3334V3.34101C13.3334 2.41601 14.0917 1.66602 15.0167 1.66602C15.925 1.67435 16.7584 2.04101 17.3584 2.64101C17.9584 3.24935 18.3334 4.08268 18.3334 4.99935Z" stroke="#28A487" stroke-width="1.5" stroke-miterlimit="10" stroke-linecap="round" stroke-linejoin="round"/>
<path id="Vector_2" d="M1.66663 5.83268V17.4993C1.66663 18.191 2.44996 18.5827 2.99996 18.166L4.42496 17.0993C4.75829 16.8493 5.22496 16.8827 5.52496 17.1827L6.90829 18.5744C7.23329 18.8994 7.76663 18.8994 8.09163 18.5744L9.49163 17.1744C9.78329 16.8827 10.25 16.8493 10.575 17.0993L12 18.166C12.55 18.5744 13.3333 18.1827 13.3333 17.4993V3.33268C13.3333 2.41602 14.0833 1.66602 15 1.66602H5.83329H4.99996C2.49996 1.66602 1.66663 3.15768 1.66663 4.99935V5.83268Z" stroke="#28A487" stroke-width="1.5" stroke-miterlimit="10" stroke-linecap="round" stroke-linejoin="round"/>
<path id="Vector_3" d="M7.5 10.8418H10" stroke="#28A487" stroke-width="1.5" stroke-linecap="round" stroke-linejoin="round"/>
<path id="Vector_4" d="M7.5 7.50781H10" stroke="#28A487" stroke-width="1.5" stroke-linecap="round" stroke-linejoin="round"/>
<path id="Vector_5" d="M4.99634 10.834H5.00382" stroke="#28A487" stroke-width="2" stroke-linecap="round" stroke-linejoin="round"/>
<path id="Vector_6" d="M4.99634 7.5H5.00382" stroke="#28A487" stroke-width="2" stroke-linecap="round" stroke-linejoin="round"/>
</g>
</svg>
