<svg width="25" height="24" viewBox="0 0 25 24" fill="none" xmlns="http://www.w3.org/2000/svg">
<path fill-rule="evenodd" clip-rule="evenodd" d="M14.75 1.25634C14.6881 1.25213 14.6258 1.25 14.5633 1.25H8.5C5.87665 1.25 3.75 3.37665 3.75 6V18C3.75 20.6234 5.87665 22.75 8.5 22.75H16.5C19.1234 22.75 21.25 20.6234 21.25 18V8.75H17.5C15.9812 8.75 14.75 7.51878 14.75 6V1.25634ZM7.75 12C7.75 11.5858 8.08579 11.25 8.5 11.25H16.5C16.9142 11.25 17.25 11.5858 17.25 12C17.25 12.4142 16.9142 12.75 16.5 12.75H8.5C8.08579 12.75 7.75 12.4142 7.75 12ZM8.5 16.25C8.08579 16.25 7.75 16.5858 7.75 17C7.75 17.4142 8.08579 17.75 8.5 17.75H12.5C12.9142 17.75 13.25 17.4142 13.25 17C13.25 16.5858 12.9142 16.25 12.5 16.25H8.5Z" fill="#8C94A6"/>
<path d="M20.8215 7.25C20.7584 7.15059 20.6887 7.0549 20.6126 6.96359L16.6759 2.23949C16.548 2.08601 16.405 1.94837 16.25 1.82802V6C16.25 6.69036 16.8096 7.25 17.5 7.25H20.8215Z" fill="#8C94A6"/>
</svg>
