<svg width="24" height="24" viewBox="0 0 24 24" fill="none" xmlns="http://www.w3.org/2000/svg">
<g id="power-button-svgrepo-com 1" clip-path="url(#clip0_7117_23851)">
<path id="Vector" d="M20.2702 8.37224C19.1617 6.75036 17.6227 5.49875 15.8197 4.75269C15.5549 4.64314 15.2521 4.673 15.0138 4.83219C14.7756 4.99147 14.6317 5.25908 14.6317 5.54563V7.346C14.6317 7.66447 14.809 7.95679 15.0908 8.10519C17.2956 9.26657 18.6658 11.5262 18.6658 14.0023C18.6658 17.6681 15.6802 20.6504 12.01 20.6504C8.33316 20.6504 5.34188 17.6681 5.34188 14.0023C5.34188 11.5746 6.67027 9.33609 8.81007 8.16041C9.08448 8.00966 9.25416 7.72138 9.25416 7.40835V5.59386C9.25416 5.30525 9.10993 5.03595 8.86894 4.87723C8.62791 4.71847 8.3236 4.69147 8.05847 4.80556C4.371 6.39078 1.98853 10.0008 1.98853 14.0022C1.98853 19.5148 6.4771 23.9996 11.9941 23.9996C17.5176 23.9996 22.0114 19.5148 22.0114 14.0022C22.0114 11.9857 21.4093 10.0388 20.2702 8.37224Z" fill="#FE5E02"/>
<path id="Vector_2" d="M12.01 20.649C8.33307 20.649 5.34178 17.673 5.34178 14.0073C5.34178 11.5795 6.67018 9.3378 8.80998 8.16222C9.08438 8.01147 9.25407 7.72 9.25407 7.40697V5.59248C9.25407 5.30387 9.10984 5.03458 8.86885 4.87586C8.62787 4.71714 8.32351 4.69009 8.05838 4.80419C4.37095 6.38945 1.98853 9.9994 1.98853 14.0009C1.98853 19.5134 6.4771 23.9983 11.9941 23.9983L12.01 20.649Z" fill="#FE5E02"/>
<path id="Vector_3" d="M12.0001 11.9238C12.8909 11.9238 13.6019 11.2016 13.6019 10.3108V1.61297C13.6019 0.722205 12.8909 0 12.0001 0C11.1094 0 10.3983 0.722111 10.3983 1.61297V10.3108C10.3983 11.2016 11.1093 11.9238 12.0001 11.9238Z" fill="#FE5E02"/>
<path id="Vector_4" d="M12.0001 11.9238V0C11.1094 0 10.3983 0.722111 10.3983 1.61297V10.3108C10.3983 11.2016 11.1093 11.9238 12.0001 11.9238Z" fill="#FE5E02"/>
</g>
<defs>
<clipPath id="clip0_7117_23851">
<rect width="24" height="24" fill="white"/>
</clipPath>
</defs>
</svg>
