<svg width="17" height="16" viewBox="0 0 17 16" fill="none" xmlns="http://www.w3.org/2000/svg">
<g clip-path="url(#clip0_2662_61136)">
<path d="M15.333 2.32838C14.5365 1.42891 13.4357 0.933594 12.2333 0.933594C11.2888 0.933594 10.4052 1.31794 9.67813 2.04503C9.19306 2.53013 8.79281 3.14691 8.50003 3.85538C8.20719 3.14691 7.807 2.53016 7.32194 2.04503C6.59484 1.31794 5.71125 0.933594 4.76672 0.933594C3.56431 0.933594 2.46353 1.42894 1.66709 2.32841C0.925375 3.16594 0.5 4.30988 0.5 5.46691C0.5 6.85622 0.920375 8.22738 1.74941 9.54247C2.40594 10.5838 3.319 11.592 4.46331 12.539C6.40225 14.1436 8.31063 15.0076 8.39091 15.0436C8.45975 15.0744 8.54025 15.0744 8.60906 15.0436C8.68937 15.0076 10.5977 14.1436 12.5367 12.539C13.681 11.592 14.594 10.5838 15.2506 9.54247C16.0796 8.22738 16.5 6.85622 16.5 5.46691C16.5 4.30988 16.0746 3.16594 15.333 2.32838Z" fill="#6F56DC"/>
<path d="M5.52997 12.539C4.38566 11.592 3.47259 10.5838 2.81606 9.54244C1.98703 8.22734 1.56666 6.85616 1.56666 5.46687C1.56666 4.30984 1.99203 3.16591 2.73369 2.32834C3.40369 1.57169 4.28916 1.10112 5.26925 0.97075C5.10406 0.946187 4.93634 0.933594 4.76669 0.933594C3.56428 0.933594 2.4635 1.42894 1.66706 2.32841C0.925375 3.16591 0.5 4.30984 0.5 5.46687C0.5 6.85619 0.920375 8.22734 1.74941 9.54244C2.40594 10.5838 3.319 11.592 4.46331 12.539C6.40225 14.1436 8.31063 15.0076 8.39091 15.0435C8.45975 15.0744 8.54025 15.0744 8.60906 15.0435C8.63059 15.0339 8.78363 14.9647 9.03334 14.8377C8.35169 14.491 6.94909 13.7134 5.52997 12.539Z" fill="#3C23A9"/>
<path d="M3.16699 8.10578H5.21744L6.43655 6.49867L7.60033 9.49111L8.87499 6L10.0663 9.82356L11.4241 8.10578H14.2781" stroke="white" stroke-width="0.64" stroke-linecap="round" stroke-linejoin="round"/>
</g>
<defs>
<clipPath id="clip0_2662_61136">
<rect width="16" height="16" fill="white" transform="translate(0.5)"/>
</clipPath>
</defs>
</svg>
