<svg width="20" height="21" viewBox="0 0 20 21" fill="none" xmlns="http://www.w3.org/2000/svg">
<g id="vuesax/linear/empty-wallet">
<g id="Group">
<path id="Vector" d="M15.033 11.7923C14.683 12.134 14.483 12.6256 14.533 13.1506C14.608 14.0506 15.433 14.709 16.333 14.709H17.9163V15.7006C17.9163 17.4256 16.508 18.834 14.783 18.834H5.21634C3.49134 18.834 2.08301 17.4256 2.08301 15.7006V10.0923C2.08301 8.36733 3.49134 6.95898 5.21634 6.95898H14.783C16.508 6.95898 17.9163 8.36733 17.9163 10.0923V11.2923H16.233C15.7663 11.2923 15.3413 11.4756 15.033 11.7923Z" stroke="#6F56DC" stroke-width="1.5" stroke-linecap="round" stroke-linejoin="round"/>
<path id="Vector_2" d="M2.08301 10.8421V7.03379C2.08301 6.04212 2.69134 5.15875 3.61634 4.80875L10.233 2.30875C11.2663 1.91708 12.3747 2.68377 12.3747 3.79211V6.95876" stroke="#6F56DC" stroke-width="1.5" stroke-linecap="round" stroke-linejoin="round"/>
</g>
<path id="Vector_3" d="M18.7987 12.141V13.8577C18.7987 14.316 18.432 14.691 17.9654 14.7077H16.332C15.432 14.7077 14.607 14.0493 14.532 13.1493C14.482 12.6243 14.682 12.1327 15.032 11.791C15.3404 11.4743 15.7654 11.291 16.232 11.291H17.9654C18.432 11.3077 18.7987 11.6826 18.7987 12.141Z" stroke="#6F56DC" stroke-width="1.5" stroke-linecap="round" stroke-linejoin="round"/>
<path id="Vector_4" d="M5.83301 10.5H11.6663" stroke="#6F56DC" stroke-width="1.5" stroke-linecap="round" stroke-linejoin="round"/>
</g>
</svg>
