<svg width="25" height="24" viewBox="0 0 25 24" fill="none" xmlns="http://www.w3.org/2000/svg">
<path d="M12.5 16.5758V23.2508H1.25V14.4439C1.97 13.5439 3.13438 12.942 4.41125 12.6383C5.18938 12.4545 6.0125 12.3477 6.86 12.3477C7.0925 12.3477 7.32687 12.3552 7.56312 12.3739C7.89125 12.3964 8.21937 12.4358 8.55125 12.492C10.7787 12.8764 12.5 14.2733 12.5 16.5758Z" fill="#596173"/>
<path d="M6.77393 13.8991C6.0483 13.8991 5.46143 13.3122 5.46143 12.5866V11.3828H8.08643V12.5866C8.08643 13.3122 7.49768 13.8991 6.77393 13.8991Z" fill="#8C94A6"/>
<path d="M1.25 18V23.25H2.75V18H1.25Z" fill="#A8AFBD"/>
<path d="M10.1524 6.51562H3.39301C2.66363 6.51562 2.06738 7.15125 2.06738 7.9275C2.06738 8.70375 2.66363 9.33937 3.39301 9.33937H10.1524C10.8818 9.33937 11.478 8.70375 11.478 7.9275C11.478 7.15125 10.8818 6.51562 10.1524 6.51562Z" fill="#596173"/>
<path d="M6.77355 1.51953C4.62105 1.51953 2.62793 3.82203 2.62793 7.13328C2.62793 10.4277 4.68105 12.057 6.77355 12.057C8.86605 12.057 10.9192 10.4277 10.9192 7.13328C10.9192 3.82203 8.92605 1.51953 6.77355 1.51953Z" fill="#A8AFBD"/>
<path d="M6.78892 0.789062H6.78704H6.78517C1.20892 0.819062 2.35079 7.18844 2.35079 7.18844C2.35079 7.18844 2.60017 7.84469 2.71454 8.13531C2.73142 8.17656 2.79142 8.17281 2.80079 8.12781C2.92079 7.59531 3.34829 5.70719 3.56392 5.13344C3.69142 4.79594 4.04204 4.59906 4.39829 4.66281C4.94392 4.76219 5.81579 4.88406 6.77579 4.88406H6.79829C7.75829 4.88406 8.62829 4.76219 9.17579 4.66281C9.53204 4.59906 9.88267 4.79594 10.0102 5.13344C10.2258 5.70531 10.6514 7.58219 10.7714 8.12219C10.7808 8.16719 10.8427 8.17094 10.8595 8.12781L11.2252 7.18656C11.2233 7.18844 12.3652 0.819062 6.78892 0.789062Z" fill="#596173"/>
<path d="M11.2233 7.18844C11.2233 7.18844 12.3652 0.819062 6.78895 0.789062H6.78708H6.7852C6.69895 0.789062 6.6127 0.790938 6.5302 0.794688C6.36333 0.802188 6.20395 0.815313 6.0502 0.832188H6.04645C6.0352 0.834063 6.02583 0.835938 6.01458 0.835938C1.3177 1.42844 2.35083 7.18844 2.35083 7.18844L2.71645 8.13156C2.73333 8.17281 2.79333 8.16906 2.8027 8.12594C2.9227 7.58781 3.3502 5.70719 3.56583 5.13531C3.69333 4.79781 4.04395 4.60094 4.4002 4.66469C4.94583 4.76406 5.8177 4.88594 6.7777 4.88594H6.8002C7.7602 4.88594 8.6302 4.76406 9.1777 4.66469C9.53395 4.60094 9.88458 4.79781 10.0121 5.13531C10.2277 5.71094 10.6571 7.60094 10.7752 8.13156C10.7846 8.17469 10.8446 8.18031 10.8615 8.13719C10.9721 7.84656 11.2233 7.18844 11.2233 7.18844Z" fill="#596173"/>
<path d="M18.0783 0.789062C13.0139 0.789062 13.0552 5.47094 13.0552 5.54594C13.0552 8.57781 13.2877 12.8622 14.5008 14.5478C14.9827 15.2153 15.9127 15.2528 15.9127 15.2528L18.0089 15.2491L20.1052 15.2528C20.1052 15.2528 21.0352 15.2153 21.5171 14.5478C22.7302 12.8622 22.9627 8.57781 22.9627 5.54594C22.9608 5.47094 23.1427 0.789062 18.0783 0.789062Z" fill="#596173"/>
<path d="M18.0783 0.789062C13.0139 0.789062 13.0552 5.47094 13.0552 5.54594C13.0552 8.57781 13.2877 12.8622 14.5008 14.5478C14.9827 15.2153 15.9127 15.2528 15.9127 15.2528L18.0089 15.2491L20.1052 15.2528C20.1052 15.2528 21.0352 15.2153 21.5171 14.5478C22.7302 12.8622 22.9627 8.57781 22.9627 5.54594C22.9608 5.47094 23.1427 0.789062 18.0783 0.789062Z" fill="#596173"/>
<path d="M23.75 14.4439V23.2508H12.5V16.5758C12.5 14.2902 14.1969 12.897 16.4 12.5014C16.4169 12.4977 16.4319 12.4939 16.4487 12.492C16.5425 12.4752 16.6381 12.462 16.7319 12.4489C16.8238 12.4358 16.9156 12.4227 17.0075 12.4133C17.0994 12.402 17.1913 12.3927 17.2831 12.3852C17.2888 12.3852 17.2944 12.3852 17.3 12.3833L17.5625 12.3664C17.7556 12.3533 17.9488 12.3477 18.1381 12.3477C18.9875 12.3477 19.8106 12.4545 20.5887 12.6383C21.8656 12.942 23.03 13.5439 23.75 14.4439Z" fill="#596173"/>
<path d="M18.0088 13.9069C17.2832 13.9069 16.6963 13.32 16.6963 12.5944V11.3906H19.3213V12.5944C19.3213 13.32 18.7344 13.9069 18.0088 13.9069Z" fill="#8C94A6"/>
<path d="M22.25 18V23.25H23.75V18H22.25Z" fill="#A8AFBD"/>
<path d="M17.977 2.22266C15.847 2.22266 13.8745 3.80703 13.8745 7.16516C13.8745 9.86328 15.5451 11.4589 17.0001 11.9727C17.347 12.0945 17.6808 12.1564 17.9789 12.1564C18.2733 12.1564 18.607 12.0945 18.9501 11.9745C20.4051 11.4627 22.0814 9.86516 22.0814 7.16516C22.0795 3.80516 20.107 2.22266 17.977 2.22266Z" fill="#A8AFBD"/>
<path d="M18.0783 0.789062C13.0139 0.789062 13.0552 5.47094 13.0552 5.54594C13.0552 6.50406 13.0777 7.58594 13.1489 8.67344L14.6039 11.5853C14.6039 11.5853 14.3527 9.30344 14.3246 7.75656C14.3208 7.55781 14.2871 7.05906 14.3827 6.62406C14.5308 6.25656 14.7258 5.97156 14.9771 5.91531C17.7371 5.29469 19.3008 3.83031 19.3008 3.83031C19.7077 4.71719 20.9771 5.58344 21.4346 5.91156C21.5639 6.00531 21.6614 6.30719 21.7346 6.68219C21.7739 7.07031 21.7589 7.49594 21.7552 7.74531L21.3783 11.5778L22.8689 8.67531C22.8689 8.66969 22.8708 8.66219 22.8727 8.65656C22.9421 7.57656 22.9646 6.50031 22.9646 5.54781C22.9608 5.47094 23.1427 0.789062 18.0783 0.789062Z" fill="#596173"/>
<path d="M18.0783 0.789062C13.0139 0.789062 13.0552 5.47094 13.0552 5.54594C13.0552 6.50406 13.0777 7.58594 13.1489 8.67344L13.9777 8.67156C13.9702 8.31156 14.2233 6.08219 14.9752 5.91344C17.7352 5.29281 19.2989 3.82844 19.2989 3.82844C19.7058 4.71531 20.9752 5.58156 21.4327 5.90969C21.8077 6.17969 21.9221 8.20094 21.9146 8.67344H22.8652C22.8652 8.66781 22.8671 8.66031 22.8689 8.65469C22.9383 7.57469 22.9608 6.49844 22.9608 5.54594C22.9608 5.47094 23.1427 0.789062 18.0783 0.789062Z" fill="#596173"/>
<path opacity="0.4" d="M17.5625 12.3672V23.2516H7.4375V12.3728C7.47875 12.3728 7.52187 12.3747 7.56312 12.3747C7.89125 12.3972 8.21937 12.4366 8.55125 12.4928C10.7787 12.8772 12.5 14.2741 12.5 16.5766C12.5 14.2909 14.1969 12.8978 16.4 12.5022C16.4188 12.4984 16.4375 12.4966 16.4562 12.4928C16.5481 12.4778 16.64 12.4628 16.7319 12.4497C16.8237 12.4366 16.9156 12.4234 17.0075 12.4141C17.0994 12.4028 17.1913 12.3934 17.2831 12.3859C17.2888 12.3859 17.2944 12.3859 17.3 12.3841L17.5625 12.3672Z" fill="#596173"/>
<path d="M11.9226 22.87C11.9226 21.025 9.57695 20.4062 8.75945 20.4062H7.0007C6.18508 20.4062 3.8357 21.025 3.8357 22.87C3.8357 22.87 3.83383 23.0181 3.83008 23.2488H11.9282C11.9245 23.0575 11.9226 22.87 11.9226 22.87Z" fill="#8C94A6"/>
<path d="M7.87836 21.8053C7.39086 21.8053 7.02148 21.4453 7.02148 21.0009V20.5547H8.80836V21.0009C8.81023 21.4453 8.36773 21.8053 7.87836 21.8053Z" fill="#8C94A6"/>
<path d="M4.4036 20.8262L4.51985 20.2787L3.50922 20.5318C3.50922 20.5318 3.43797 19.5568 4.30797 18.9943C5.26235 18.3775 6.35922 19.0356 6.35922 19.0356C6.35922 19.0356 6.25047 19.7725 5.59797 20.4043C5.15735 20.83 4.4036 20.8262 4.4036 20.8262Z" fill="#596173"/>
<path d="M11.3599 20.8262L11.2437 20.2787L12.2543 20.5318C12.2543 20.5318 12.3255 19.5568 11.4555 18.9943C10.5012 18.3775 9.4043 19.0356 9.4043 19.0356C9.4043 19.0356 9.51305 19.7725 10.1655 20.4043C10.6062 20.83 11.3599 20.8262 11.3599 20.8262Z" fill="#596173"/>
<path d="M11.3599 20.8262L11.2437 20.2787L12.2543 20.5318C12.2543 20.5318 12.3255 19.5568 11.4555 18.9943C10.5012 18.3775 9.4043 19.0356 9.4043 19.0356C9.4043 19.0356 9.51305 19.7725 10.1655 20.4043C10.6062 20.83 11.3599 20.8262 11.3599 20.8262Z" fill="#424957"/>
<path d="M4.37772 20.8262L4.49397 20.2787L3.48334 20.5318C3.48334 20.5318 3.41209 19.5568 4.28209 18.9943C5.23647 18.3775 6.33335 19.0356 6.33335 19.0356C6.33335 19.0356 6.22459 19.7725 5.57209 20.4043C5.13147 20.83 4.37772 20.8262 4.37772 20.8262Z" fill="#424957"/>
<path d="M10.6829 16.7266H5.15357C4.55732 16.7266 4.06982 17.1953 4.06982 17.7691C4.06982 18.3428 4.55732 18.8116 5.15357 18.8116H10.6811C11.2773 18.8116 11.6917 18.3428 11.6917 17.7691C11.6917 17.1953 11.2792 16.7266 10.6829 16.7266Z" fill="#596173"/>
<path d="M7.87982 12.4258C6.13045 12.4258 4.58545 14.2633 4.58545 16.907C4.58545 19.5358 6.43607 20.837 7.87982 20.837C9.32357 20.837 11.1742 19.5377 11.1742 16.907C11.1742 14.2614 9.62732 12.4258 7.87982 12.4258Z" fill="#A8AFBD"/>
<path d="M10.7995 13.1086C10.3626 12.653 9.94448 12.4861 9.90323 12.4805C9.39511 12.248 8.74073 12.0586 7.89323 12.0586C4.16573 12.0586 3.91261 15.0961 4.06261 16.433C4.19386 17.6123 4.88198 17.903 4.88198 17.903L4.76948 16.5698C4.76948 16.5698 6.10261 16.1611 6.83948 15.6642C7.56511 15.1748 7.86698 14.8411 7.86698 14.8411C7.86698 14.8411 8.09198 15.0811 8.88698 15.6548C9.71198 16.2511 10.957 16.5773 10.957 16.5773L10.8614 17.903C10.8614 17.903 11.5832 17.6142 11.6864 16.433C11.8176 14.9536 11.6414 14.0686 10.7995 13.1086Z" fill="#424957"/>
<path d="M10.7995 13.1086C10.3626 12.653 9.94448 12.4861 9.90323 12.4805C9.39511 12.248 8.74073 12.0586 7.89323 12.0586C4.16573 12.0586 3.91261 15.0961 4.06261 16.433C4.19386 17.6123 4.88198 17.903 4.88198 17.903L4.76948 16.5698C4.76948 16.5698 6.10261 16.1611 6.83948 15.6642C7.56511 15.1748 7.86698 14.8411 7.86698 14.8411C7.86698 14.8411 8.09198 15.0811 8.88698 15.6548C9.71198 16.2511 10.957 16.5773 10.957 16.5773L10.8614 17.903C10.8614 17.903 11.5832 17.6142 11.6864 16.433C11.8176 14.9536 11.6414 14.0686 10.7995 13.1086Z" fill="#424957"/>
<path d="M21.1682 22.8661C21.1682 21.0211 18.8226 20.4023 18.0051 20.4023H16.2463C15.4307 20.4023 13.0813 21.0211 13.0813 22.8661C13.0813 22.8661 13.0794 23.0142 13.0757 23.2448H21.1719L21.1682 22.8661Z" fill="#8C94A6"/>
<path d="M17.1255 21.8044C16.8922 21.8044 16.6686 21.7117 16.5037 21.5468C16.3387 21.3819 16.2461 21.1582 16.2461 20.925V20.25H18.0067V20.925C18.006 21.1583 17.9128 21.3818 17.7477 21.5467C17.5825 21.7115 17.3588 21.8041 17.1255 21.8044Z" fill="#8C94A6"/>
<path d="M19.8877 16.7227H14.3621C13.7658 16.7227 13.2783 17.1914 13.2783 17.7652C13.2783 18.3389 13.7658 18.8077 14.3621 18.8077H19.8877C20.4839 18.8077 20.9714 18.3389 20.9714 17.7652C20.9714 17.1914 20.4839 16.7227 19.8877 16.7227Z" fill="#596173"/>
<path d="M17.1258 12.4219C15.3764 12.4219 13.7583 14.2594 13.7583 16.9013C13.7583 19.53 15.4271 20.8313 17.1258 20.8313C18.8246 20.8313 20.4933 19.5319 20.4933 16.9013C20.4933 14.2594 18.8733 12.4219 17.1258 12.4219Z" fill="#A8AFBD"/>
<path d="M17.1443 12.0273C13.4075 12.0273 13.1468 15.0798 13.2987 16.4148C13.4318 17.5942 14.0468 17.8848 14.0468 17.8848C14.0468 17.8848 13.9268 16.8555 14.1218 16.1092C14.2775 15.5167 14.6468 15.078 14.6468 15.078C14.6468 15.078 15.3218 15.663 16.5781 16.0436C17.1837 16.2273 17.96 16.1355 17.96 16.1355L17.525 15.3667C17.525 15.3667 18.2375 15.8898 18.68 15.9892C19.2481 16.1167 19.6643 16.0623 19.6643 16.0623L19.4562 15.2505C19.4562 15.2505 19.8181 15.4867 20.0881 16.1336C20.3581 16.7805 20.1912 17.8848 20.1912 17.8848C20.1912 17.8848 20.84 17.5961 20.945 16.4148C21.0762 14.9336 20.8662 12.0273 17.1443 12.0273Z" fill="#596173"/>
<path d="M17.1443 12.0273C13.4075 12.0273 13.1468 15.0798 13.2987 16.4148C13.4318 17.5942 14.0468 17.8848 14.0468 17.8848C14.0468 17.8848 13.9268 16.8555 14.1218 16.1092C14.2775 15.5167 14.6468 15.078 14.6468 15.078C14.6468 15.078 15.3218 15.663 16.5781 16.0436C17.1837 16.2273 17.96 16.1355 17.96 16.1355L17.525 15.3667C17.525 15.3667 18.2375 15.8898 18.68 15.9892C19.2481 16.1167 19.6643 16.0623 19.6643 16.0623L19.4562 15.2505C19.4562 15.2505 19.8181 15.4867 20.0881 16.1336C20.3581 16.7805 20.1912 17.8848 20.1912 17.8848C20.1912 17.8848 20.84 17.5961 20.945 16.4148C21.0762 14.9336 20.8662 12.0273 17.1443 12.0273Z" fill="#424957"/>
</svg>
