<svg width="16" height="17" viewBox="0 0 16 17" fill="none" xmlns="http://www.w3.org/2000/svg">
<g id="vuesax/linear/receipt-item">
<path id="Vector" d="M14.666 4.50065V6.11398C14.666 7.16732 13.9993 7.83398 12.946 7.83398H10.666V3.17398C10.666 2.43398 11.2727 1.83398 12.0127 1.83398C12.7393 1.84065 13.406 2.13398 13.886 2.61398C14.366 3.10065 14.666 3.76732 14.666 4.50065Z" stroke="#28A487" stroke-miterlimit="10" stroke-linecap="round" stroke-linejoin="round"/>
<path id="Vector_2" d="M1.33398 5.16732V14.5007C1.33398 15.054 1.96065 15.3673 2.40065 15.034L3.54065 14.1806C3.80732 13.9806 4.18065 14.0073 4.42065 14.2473L5.52732 15.3607C5.78732 15.6207 6.21398 15.6207 6.47398 15.3607L7.59398 14.2407C7.82732 14.0073 8.20065 13.9806 8.46065 14.1806L9.60065 15.034C10.0407 15.3607 10.6673 15.0473 10.6673 14.5007V3.16732C10.6673 2.43398 11.2673 1.83398 12.0007 1.83398H4.66732H4.00065C2.00065 1.83398 1.33398 3.02732 1.33398 4.50065V5.16732Z" stroke="#28A487" stroke-miterlimit="10" stroke-linecap="round" stroke-linejoin="round"/>
<path id="Vector_3" d="M6 9.17383H8" stroke="#28A487" stroke-linecap="round" stroke-linejoin="round"/>
<path id="Vector_4" d="M6 6.50586H8" stroke="#28A487" stroke-linecap="round" stroke-linejoin="round"/>
<path id="Vector_5" d="M3.99609 9.16602H4.00208" stroke="#28A487" stroke-width="1.5" stroke-linecap="round" stroke-linejoin="round"/>
<path id="Vector_6" d="M3.99609 6.5H4.00208" stroke="#28A487" stroke-width="1.5" stroke-linecap="round" stroke-linejoin="round"/>
</g>
</svg>
