<svg width="28" height="28" viewBox="0 0 28 28" fill="none" xmlns="http://www.w3.org/2000/svg">
<g id="replay-svgrepo-com 1">
<path id="Vector" d="M10.6959 4.27441H13.7183C19.9761 4.27441 25.2646 9.32199 25.2646 15.2971C25.2646 21.3371 20.3007 26.2505 14.2 26.2505C7.7707 26.2505 2.73535 20.958 2.73535 14.2021C2.73535 13.9133 2.97007 13.6796 3.25786 13.6796H6.35205C6.64195 13.6796 6.87459 13.9133 6.87459 14.2021C6.87459 20.1844 10.6587 22.3163 14.2 22.3163C17.8892 22.3163 21.1253 18.9476 21.1253 15.1084C21.1253 11.5018 17.7331 8.45454 13.7183 8.45454L10.8047 8.3663L10.6959 4.27441Z" fill="#28A487"/>
<path id="Vector_2" d="M11.1532 8.45402V10.567C11.1532 10.7568 11.0512 10.9298 10.8858 11.0227C10.7214 11.1156 10.5195 11.1104 10.3582 11.0124L3.50841 6.80894C3.35228 6.71302 3.2583 6.54456 3.2583 6.36097C3.26043 6.17829 3.35633 6.00889 3.5135 5.91494L10.3633 1.82461C10.5245 1.72776 10.7266 1.72462 10.8889 1.81857C11.0532 1.91039 11.1532 2.08386 11.1532 2.27272V8.45402Z" fill="#28A487"/>
<path id="Vector_3" d="M12.0235 8.40232L13.1371 4.27344H11.1531V8.37596L12.0235 8.40232Z" fill="#1E7B65"/>
</g>
</svg>
