<svg width="150" height="150" viewBox="0 0 150 150" fill="none" xmlns="http://www.w3.org/2000/svg">
<path d="M56.9427 9.00234C55.1165 10.5587 54.2033 11.3369 53.228 11.9906C50.9922 13.4891 48.4813 14.5291 45.8408 15.0504C44.6888 15.2779 43.4927 15.3733 41.1006 15.5642C35.0903 16.0438 32.085 16.2836 29.5778 17.1692C23.7788 19.2175 19.2175 23.7788 17.1692 29.5778C16.2836 32.085 16.0439 35.0902 15.5642 41.1005C15.3734 43.4927 15.2779 44.6888 15.0504 45.8408C14.5291 48.4813 13.4891 50.9922 11.9906 53.228C11.3369 54.2033 10.5586 55.1165 9.00212 56.9429C5.09132 61.5322 3.13577 63.8265 1.98917 66.2258C-0.663056 71.775 -0.663056 78.225 1.98917 83.7743C3.13584 86.1735 5.09124 88.4678 9.00204 93.057C10.5582 94.8833 11.3369 95.7968 11.9906 96.7718C13.4891 99.0075 14.5291 101.519 15.0504 104.159C15.2779 105.311 15.3733 106.508 15.5642 108.899C16.0438 114.91 16.2836 117.915 17.1692 120.422C19.2175 126.221 23.7788 130.783 29.5778 132.831C32.0849 133.716 35.09 133.956 41.1 134.436C43.4921 134.627 44.6888 134.723 45.8408 134.95C48.4813 135.471 50.9922 136.511 53.228 138.01C54.2033 138.663 55.1165 139.442 56.943 140.998C61.5323 144.909 63.8265 146.864 66.2258 148.011C71.775 150.663 78.225 150.663 83.7743 148.011C86.1735 146.864 88.4678 144.909 93.057 140.998C94.8833 139.442 95.7968 138.663 96.7718 138.01C99.0075 136.511 101.519 135.471 104.159 134.95C105.311 134.723 106.508 134.627 108.899 134.436C114.909 133.956 117.915 133.716 120.422 132.831C126.221 130.783 130.783 126.221 132.831 120.422C133.716 117.915 133.956 114.91 134.436 108.9C134.627 106.508 134.723 105.311 134.95 104.159C135.471 101.519 136.511 99.0075 138.01 96.7718C138.663 95.7968 139.442 94.8833 140.998 93.057C144.909 88.4678 146.864 86.1735 148.011 83.7743C150.663 78.225 150.663 71.775 148.011 66.2258C146.864 63.8265 144.909 61.5323 140.998 56.943C139.442 55.1165 138.663 54.2033 138.01 53.228C136.511 50.9922 135.471 48.4813 134.95 45.8408C134.723 44.6888 134.627 43.4927 134.436 41.1006C133.956 35.0906 133.716 32.0849 132.831 29.5778C130.783 23.7788 126.221 19.2175 120.422 17.1692C117.915 16.2836 114.91 16.0439 108.899 15.5642C106.508 15.3734 105.311 15.2779 104.159 15.0504C101.519 14.5291 99.0075 13.4891 96.7718 11.9906C95.7968 11.3369 94.8833 10.5586 93.057 9.00204C88.4678 5.09124 86.1735 3.13584 83.7743 1.98917C78.225 -0.663056 71.775 -0.663056 66.2258 1.98917C63.8265 3.13577 61.532 5.09154 56.9427 9.00234Z" fill="#28A487"/>
</svg>
