<svg width="20" height="20" viewBox="0 0 20 20" fill="none" xmlns="http://www.w3.org/2000/svg">
<g id="vuesax/bold/car">
<g id="car">
<path id="Vector" d="M18.125 6.66673C18.125 7.0084 17.8417 7.29173 17.5 7.29173H2.5C2.15833 7.29173 1.875 7.0084 1.875 6.66673C1.875 6.32507 2.15833 6.04173 2.5 6.04173H3.35L3.66667 4.5334C3.96667 3.07507 4.59167 1.7334 7.075 1.7334H12.925C15.4083 1.7334 16.0333 3.07507 16.3333 4.5334L16.65 6.04173H17.5C17.8417 6.04173 18.125 6.32507 18.125 6.66673Z" fill="#28A487"/>
<path id="Vector_2" d="M18.482 11.3832C18.357 10.0082 17.9904 8.5415 15.3154 8.5415H4.68202C2.00702 8.5415 1.64869 10.0082 1.51535 11.3832L1.04869 16.4582C0.990355 17.0915 1.19869 17.7248 1.63202 18.1998C2.07369 18.6832 2.69869 18.9582 3.36535 18.9582H4.93202C6.28202 18.9582 6.54035 18.1832 6.70702 17.6748L6.87369 17.1748C7.06535 16.5998 7.11535 16.4582 7.86535 16.4582H12.132C12.882 16.4582 12.907 16.5415 13.1237 17.1748L13.2904 17.6748C13.457 18.1832 13.7154 18.9582 15.0654 18.9582H16.632C17.2904 18.9582 17.9237 18.6832 18.3654 18.1998C18.7987 17.7248 19.007 17.0915 18.9487 16.4582L18.482 11.3832ZM7.49869 13.1248H4.99869C4.65702 13.1248 4.37369 12.8415 4.37369 12.4998C4.37369 12.1582 4.65702 11.8748 4.99869 11.8748H7.49869C7.84035 11.8748 8.12369 12.1582 8.12369 12.4998C8.12369 12.8415 7.84035 13.1248 7.49869 13.1248ZM14.9987 13.1248H12.4987C12.157 13.1248 11.8737 12.8415 11.8737 12.4998C11.8737 12.1582 12.157 11.8748 12.4987 11.8748H14.9987C15.3404 11.8748 15.6237 12.1582 15.6237 12.4998C15.6237 12.8415 15.3404 13.1248 14.9987 13.1248Z" fill="#28A487"/>
</g>
</g>
</svg>
