<svg width="32" height="32" viewBox="0 0 32 32" fill="none" xmlns="http://www.w3.org/2000/svg">
<path d="M16 2.66602C12.5066 2.66602 9.66663 5.50602 9.66663 8.99935C9.66663 12.426 12.3466 15.1993 15.84 15.3193C15.9466 15.306 16.0533 15.306 16.1333 15.3193C16.16 15.3193 16.1733 15.3193 16.2 15.3193C16.2133 15.3193 16.2133 15.3193 16.2266 15.3193C19.64 15.1993 22.32 12.426 22.3333 8.99935C22.3333 5.50602 19.4933 2.66602 16 2.66602Z" fill="#1F92D0"/>
<path d="M22.7733 18.8659C19.0533 16.3859 12.9866 16.3859 9.23995 18.8659C7.54661 19.9992 6.61328 21.5325 6.61328 23.1725C6.61328 24.8125 7.54661 26.3325 9.22661 27.4525C11.0933 28.7059 13.5466 29.3325 15.9999 29.3325C18.4533 29.3325 20.9066 28.7059 22.7733 27.4525C24.4533 26.3192 25.3866 24.7992 25.3866 23.1459C25.3733 21.5059 24.4533 19.9859 22.7733 18.8659Z" fill="#1F92D0"/>
</svg>
