<svg width="28" height="28" viewBox="0 0 28 28" fill="none" xmlns="http://www.w3.org/2000/svg">
<g id="user-scan-svgrepo-com 1">
<path id="Vector" d="M14 14C15.933 14 17.5 12.433 17.5 10.5C17.5 8.567 15.933 7 14 7C12.067 7 10.5 8.567 10.5 10.5C10.5 12.433 12.067 14 14 14Z" fill="#CB4B01"/>
<path id="Vector_2" fill-rule="evenodd" clip-rule="evenodd" d="M20.3604 18.5591C20.4274 18.6801 20.393 18.8311 20.2822 18.9139C18.5304 20.2237 16.3561 20.9993 14.0006 20.9993C11.645 20.9993 9.47059 20.2236 7.71886 18.9138C7.60805 18.831 7.57359 18.6801 7.6406 18.559C8.74912 16.5561 11.18 15.166 14.0005 15.166C16.821 15.166 19.2519 16.5561 20.3604 18.5591Z" fill="#28A487"/>
<path id="Vector_3" d="M20.417 4.08398H20.6503C22.7402 4.08398 23.7852 4.08398 24.4344 4.73323C25.0837 5.38247 25.0837 6.42742 25.0837 8.51732V8.75065" stroke="#1A473F" stroke-width="1.16667" stroke-linecap="round"/>
<path id="Vector_4" d="M20.417 23.9167H20.6503C22.7402 23.9167 23.7852 23.9167 24.4344 23.2674C25.0837 22.6182 25.0837 21.5732 25.0837 19.4833V19.25" stroke="#1A473F" stroke-width="1.16667" stroke-linecap="round"/>
<path id="Vector_5" d="M7.58366 4.08398H7.35033C5.26043 4.08398 4.21548 4.08398 3.56624 4.73323C2.91699 5.38247 2.91699 6.42742 2.91699 8.51732V8.75065" stroke="#1A473F" stroke-width="1.16667" stroke-linecap="round"/>
<path id="Vector_6" d="M7.58366 23.9167H7.35033C5.26043 23.9167 4.21548 23.9167 3.56624 23.2674C2.91699 22.6182 2.91699 21.5732 2.91699 19.4833V19.25" stroke="#1A473F" stroke-width="1.16667" stroke-linecap="round"/>
</g>
</svg>
