<svg width="24" height="24" viewBox="0 0 24 24" fill="none" xmlns="http://www.w3.org/2000/svg">
<rect width="24" height="24" rx="12" fill="#28A487"/>
<g clip-path="url(#clip0_4656_255601)">
<path d="M17.8367 17.908C13.9568 15.5994 13.8437 12.5438 13.9544 11.4128H16.9552C17.1913 11.4128 17.4041 11.2711 17.4939 11.0531C17.5842 10.835 17.5341 10.5843 17.3674 10.4176L12.1203 5.17052C11.8929 4.94316 11.5239 4.94316 11.2959 5.17052L6.04886 10.4176C5.88213 10.5843 5.83197 10.835 5.92236 11.053C6.01271 11.2711 6.22553 11.4128 6.46107 11.4128H8.79542C8.9336 14.7645 11.1992 17.6894 14.4471 18.6263C15.5758 18.9522 16.5243 19 17.0828 19C17.2298 19 17.3493 18.9965 17.4385 18.9942L17.5382 18.9918C17.8005 18.9918 18.0308 18.8169 18.1002 18.5639C18.1701 18.3103 18.0623 18.0421 17.8367 17.908Z" fill="white"/>
</g>
<defs>
<clipPath id="clip0_4656_255601">
<rect width="14" height="14" fill="white" transform="translate(5 5)"/>
</clipPath>
</defs>
</svg>
