<svg width="12" height="12" viewBox="0 0 12 12" fill="none" xmlns="http://www.w3.org/2000/svg">
<g id="vuesax/linear/gallery">
<g id="gallery">
<path id="Vector" d="M4.5 11H7.5C10 11 11 10 11 7.5V4.5C11 2 10 1 7.5 1H4.5C2 1 1 2 1 4.5V7.5C1 10 2 11 4.5 11Z" stroke="#FE5E02" stroke-linecap="round" stroke-linejoin="round"/>
<path id="Vector_2" d="M4.5 5C5.05228 5 5.5 4.55228 5.5 4C5.5 3.44772 5.05228 3 4.5 3C3.94772 3 3.5 3.44772 3.5 4C3.5 4.55228 3.94772 5 4.5 5Z" stroke="#FE5E02" stroke-linecap="round" stroke-linejoin="round"/>
<path id="Vector_3" d="M1.33594 9.47625L3.80094 7.82125C4.19594 7.55625 4.76594 7.58625 5.12094 7.89125L5.28594 8.03625C5.67594 8.37125 6.30594 8.37125 6.69594 8.03625L8.77594 6.25125C9.16594 5.91625 9.79594 5.91625 10.1859 6.25125L11.0009 6.95125" stroke="#FE5E02" stroke-linecap="round" stroke-linejoin="round"/>
</g>
</g>
</svg>
