<svg width="16" height="16" viewBox="0 0 16 16" fill="none" xmlns="http://www.w3.org/2000/svg">
<g id="24-hours-support-svgrepo-com 1" clip-path="url(#clip0_6862_31070)">
<g id="Group">
<path id="Vector" d="M16 8.82337C16 7.74207 15.1335 6.86358 14.059 6.83391C13.9808 6.71164 13.8702 6.61391 13.7399 6.54871C13.9125 3.97294 11.6701 1.27752 8.8772 0.936256C8.51693 0.873677 8.35427 0.883614 8.00079 0.859375C3.87838 0.978758 2.10314 4.4445 2.25901 6.55052C2.12973 6.61572 2.02075 6.71264 1.94307 6.83364C0.867543 6.86227 0 7.7413 0 8.82337C0 9.9052 0.867543 10.7842 1.9431 10.8129C2.08541 11.0355 2.33361 11.1841 2.6172 11.1841C3.05931 11.1841 3.418 10.8257 3.418 10.3833V7.26326C3.418 6.99317 3.28351 6.75545 3.07862 6.61048C3.42424 4.66765 5.19008 2.50687 8.00076 2.46101C8.17073 2.47323 8.5367 2.47034 8.69107 2.5113C10.0893 2.64035 12.4354 4.01074 12.9208 6.61256C12.7175 6.75776 12.5841 6.99448 12.5841 7.26326V10.3833C12.5841 10.7196 12.7916 11.0061 13.085 11.125V11.4646C13.085 12.3514 12.4861 13.1296 11.6289 13.3569L9.2103 13.9974C9.07997 13.8245 8.8824 13.7057 8.6483 13.7057C8.25258 13.7057 7.93143 14.0268 7.93143 14.4226C7.93143 14.8188 8.25261 15.1394 8.6483 15.1394C9.01273 15.1394 9.30054 14.8647 9.34694 14.5135L11.7656 13.873C12.8567 13.5837 13.619 12.6997 13.619 11.1453C13.8025 11.089 13.9579 10.9712 14.059 10.8126C15.1335 10.7829 16 9.9044 16 8.82337Z" fill="#051513"/>
</g>
</g>
<defs>
<clipPath id="clip0_6862_31070">
<rect width="16" height="16" fill="white"/>
</clipPath>
</defs>
</svg>
