<svg width="130" height="130" viewBox="0 0 130 130" fill="none" xmlns="http://www.w3.org/2000/svg">
<g filter="url(#filter0_d_6862_18334)">
<g clip-path="url(#clip0_6862_18334)">
<rect x="25" y="21" width="80" height="80" rx="40" fill="white"/>
<g opacity="0.6" clip-path="url(#clip1_6862_18334)">
<path d="M72.1167 1.37444L77.1036 15.3984C77.4819 16.4647 78.0799 17.4397 78.8588 18.2603C79.6378 19.0808 80.5804 19.7287 81.6255 20.162C82.6707 20.5952 83.7952 20.8042 84.9263 20.7754C86.0573 20.7466 87.1697 20.4806 88.1915 19.9947L101.634 13.6044C108.503 10.339 115.669 17.505 112.404 24.3742L106.011 37.8123C105.526 38.8338 105.26 39.9458 105.231 41.0764C105.203 42.207 105.412 43.331 105.845 44.3758C106.278 45.4206 106.925 46.3628 107.745 47.1417C108.565 47.9205 109.54 48.5187 110.605 48.8973L124.629 53.8842C131.791 56.4325 131.791 66.5671 124.629 69.1153L110.605 74.1022C109.539 74.4807 108.564 75.0788 107.744 75.8579C106.924 76.6369 106.276 77.5795 105.843 78.6246C105.41 79.6698 105.201 80.7942 105.23 81.9252C105.259 83.0561 105.525 84.1684 106.011 85.1901L112.401 98.6328C115.667 105.502 108.501 112.668 101.631 109.403L88.1915 103.01C87.1698 102.524 86.0575 102.257 84.9266 102.229C83.7956 102.2 82.6712 102.408 81.626 102.841C80.5809 103.275 79.6383 103.922 78.8593 104.743C78.0802 105.563 77.4821 106.538 77.1036 107.604L72.1167 121.628C69.5684 128.789 59.4339 128.789 56.8856 121.628L51.8987 107.604C51.5198 106.538 50.9214 105.564 50.1425 104.745C49.3635 103.925 48.4212 103.278 47.3764 102.845C46.3317 102.412 45.2077 102.204 44.0773 102.232C42.9468 102.261 41.835 102.527 40.8136 103.012L27.3672 109.4C20.498 112.665 13.3321 105.499 16.5974 98.63L22.996 85.1901C23.4816 84.1687 23.7474 83.0569 23.7763 81.9264C23.8052 80.7959 23.5965 79.6719 23.1637 78.6271C22.731 77.5823 22.0838 76.64 21.2639 75.861C20.4441 75.0821 19.47 74.4838 18.4045 74.105L4.37583 69.1153C-2.78543 66.5671 -2.78543 56.4325 4.37583 53.8842L18.3998 48.8973C19.4657 48.5188 20.4402 47.9209 21.2604 47.1421C22.0807 46.3633 22.7283 45.4211 23.1615 44.3763C23.5947 43.3315 23.8038 42.2074 23.7753 41.0767C23.7468 39.946 23.4813 38.8339 22.996 37.8123L16.6011 24.3658C13.3358 17.4966 20.5017 10.3307 27.3709 13.596L40.8136 19.9947C41.835 20.4801 42.9468 20.7457 44.0773 20.7746C45.2077 20.8034 46.3317 20.5947 47.3764 20.1619C48.4212 19.7292 49.3635 19.082 50.1425 18.2623C50.9214 17.4426 51.5198 16.4685 51.8987 15.4031L56.8856 1.37444C59.4339 -5.79148 69.5684 -5.79148 72.1167 1.37444Z" fill="#FFDFCC"/>
<path d="M70.8328 11.5094L74.9789 23.1692C75.294 24.0547 75.7914 24.8643 76.4389 25.5456C77.0863 26.2269 77.8695 26.7648 78.7379 27.1246C79.6062 27.4844 80.5403 27.6581 81.4799 27.6344C82.4195 27.6107 83.3437 27.3901 84.1928 26.987L95.3699 21.6746C101.08 18.9599 107.038 24.9177 104.323 30.6281L99.011 41.8052C98.6073 42.6543 98.3862 43.5787 98.3622 44.5186C98.3382 45.4585 98.5117 46.393 98.8716 47.2617C99.2314 48.1303 99.7696 48.9137 100.451 49.5613C101.133 50.2088 101.943 50.7061 102.829 51.0209L114.488 55.168C120.446 57.2866 120.446 65.7118 114.488 67.8304L102.829 71.9765C101.943 72.2914 101.133 72.7888 100.451 73.4365C99.7695 74.0841 99.2314 74.8676 98.8715 75.7363C98.5117 76.605 98.3382 77.5396 98.3622 78.4795C98.3862 79.4195 98.6073 80.344 99.011 81.1931L104.323 92.3703C107.038 98.0807 101.08 104.038 95.3699 101.324L84.1928 96.0114C83.3436 95.6076 82.4191 95.3866 81.4792 95.3626C80.5392 95.3385 79.6047 95.5121 78.736 95.8719C77.8673 96.2317 77.0837 96.7699 76.4361 97.4515C75.7884 98.1332 75.2911 98.9432 74.9761 99.8292L70.83 111.488C68.7114 117.446 60.2862 117.446 58.1676 111.488L54.0206 99.8292C53.7058 98.9432 53.2085 98.1332 52.5609 97.4516C51.9133 96.7699 51.1299 96.2318 50.2613 95.8719C49.3927 95.5121 48.4582 95.3386 47.5183 95.3626C46.5784 95.3866 45.654 95.6076 44.8049 96.0114L33.6277 101.324C27.9173 104.038 21.9595 98.0807 24.6743 92.3703L29.9894 81.1903C30.393 80.3411 30.6139 79.4167 30.6379 78.4768C30.6618 77.5368 30.4883 76.6024 30.1285 75.7337C29.7687 74.865 29.2306 74.0816 28.549 73.4339C27.8674 72.7862 27.0575 72.2888 26.1716 71.9737L14.5118 67.8304C8.55401 65.7118 8.55401 57.2866 14.5118 55.168L26.1716 51.0209C27.0575 50.706 27.8674 50.2086 28.5489 49.561C29.2305 48.9135 29.7686 48.1301 30.1284 47.2615C30.4883 46.3929 30.6618 45.4585 30.6379 44.5186C30.6139 43.5787 30.393 42.6544 29.9894 41.8052L24.6771 30.6281C21.9623 24.9177 27.9201 18.9599 33.6305 21.6746L44.8077 26.987C45.6568 27.3906 46.5812 27.6115 47.521 27.6354C48.4609 27.6594 49.3953 27.4858 50.2639 27.126C51.1325 26.7662 51.9159 26.2281 52.5635 25.5465C53.2111 24.8649 53.7084 24.055 54.0234 23.1692L58.1704 11.5094C60.2909 5.55157 68.7142 5.55157 70.8328 11.5094Z" fill="#FFEFE6"/>
<path d="M69.8114 19.5725L73.2888 29.3518C73.5535 30.0945 73.971 30.7734 74.5144 31.3446C75.0578 31.9158 75.7151 32.3667 76.4436 32.668C77.1722 32.9694 77.9559 33.1145 78.744 33.094C79.5322 33.0736 80.3073 32.888 81.0193 32.5493L90.3931 28.0935C95.1827 25.8167 100.18 30.8138 97.9031 35.6035L93.4473 44.9773C93.1087 45.6894 92.9232 46.4647 92.903 47.253C92.8828 48.0412 93.0283 48.825 93.33 49.5535C93.6317 50.2821 94.083 50.9392 94.6546 51.4823C95.2262 52.0255 95.9055 52.4427 96.6485 52.7068L106.428 56.1852C111.425 57.9615 111.425 65.0279 106.428 66.8052L96.6485 70.2826C95.9055 70.5469 95.2262 70.9641 94.6546 71.5074C94.0829 72.0507 93.6317 72.7078 93.33 73.4364C93.0282 74.165 92.8828 74.9489 92.903 75.7372C92.9232 76.5255 93.1086 77.3009 93.4473 78.0131L97.9031 87.3869C100.18 92.1766 95.1827 97.1736 90.3931 94.8969L81.0193 90.4411C80.3071 90.1024 79.5317 89.917 78.7434 89.8968C77.955 89.8766 77.1712 90.022 76.4426 90.3238C75.714 90.6255 75.0569 91.0767 74.5136 91.6484C73.9703 92.22 73.5531 92.8993 73.2888 93.6423L69.8114 103.422C68.0341 108.419 60.9677 108.419 59.1913 103.422L55.713 93.6423C55.4488 92.8993 55.0317 92.22 54.4885 91.6484C53.9453 91.0768 53.2882 90.6255 52.5597 90.3238C51.8312 90.0221 51.0474 89.8766 50.2592 89.8968C49.4709 89.917 48.6956 90.1025 47.9835 90.4411L38.6097 94.8969C33.82 97.1736 28.8229 92.1766 31.0997 87.3869L35.5517 78.0168C35.8904 77.3046 36.0758 76.5293 36.096 75.7409C36.1162 74.9526 35.9708 74.1688 35.6691 73.4402C35.3674 72.7116 34.9161 72.0544 34.3445 71.5111C33.7728 70.9679 33.0936 70.5506 32.3505 70.2863L22.575 66.8089C17.5779 65.0316 17.5779 57.9652 22.575 56.1889L32.3543 52.7105C33.0969 52.446 33.7758 52.0286 34.347 51.4852C34.9182 50.9419 35.3691 50.2847 35.6704 49.5562C35.9718 48.8277 36.1169 48.0441 36.0965 47.256C36.076 46.4679 35.8905 45.6929 35.5517 44.981L31.0997 35.6072C28.8229 30.8175 33.82 25.8205 38.6097 28.0972L47.9835 32.5493C48.6956 32.8879 49.4709 33.0733 50.2592 33.0935C51.0474 33.1137 51.8312 32.9683 52.5597 32.6666C53.2882 32.3648 53.9453 31.9136 54.4885 31.3419C55.0317 30.7703 55.4488 30.0911 55.713 29.3481L59.1913 19.5688C60.9677 14.5754 68.0341 14.5754 69.8114 19.5725Z" fill="#FFDFCC"/>
<path d="M68.7536 27.9303L71.5382 35.7603C71.7497 36.3552 72.0838 36.8991 72.5188 37.3567C72.9537 37.8144 73.4799 38.1757 74.0632 38.4173C74.6466 38.6589 75.2742 38.7754 75.9054 38.7592C76.5365 38.743 77.1573 38.5946 77.7275 38.3235L85.2329 34.7558C89.0684 32.933 93.0694 36.934 91.2456 40.7695L87.678 48.2748C87.4069 48.8448 87.2584 49.4654 87.2421 50.0963C87.2257 50.7273 87.3419 51.3547 87.5831 51.938C87.8243 52.5212 88.1852 53.0474 88.6424 53.4826C89.0996 53.9177 89.643 54.2521 90.2374 54.4642L98.0674 57.2487C102.067 58.6708 102.067 64.3291 98.0674 65.752L90.2374 68.5366C89.6426 68.7482 89.0987 69.0822 88.641 69.5172C88.1833 69.9521 87.8219 70.4782 87.5802 71.0616C87.3386 71.6449 87.222 72.2724 87.238 72.9036C87.2541 73.5348 87.4024 74.1556 87.6733 74.7259L91.2409 82.2313C93.0647 86.0668 89.0637 90.0678 85.2283 88.244L77.7229 84.6764C77.153 84.406 76.5328 84.258 75.9022 84.2421C75.2716 84.2261 74.6447 84.3425 74.0618 84.5837C73.479 84.825 72.9532 85.1857 72.5184 85.6427C72.0835 86.0997 71.7493 86.6427 71.5372 87.2368L68.7536 95.0704C67.3307 99.0696 61.6724 99.0696 60.2503 95.0704L57.4649 87.2368C57.2533 86.6419 56.9192 86.098 56.4843 85.6403C56.0493 85.1826 55.5232 84.8212 54.9399 84.5796C54.3566 84.3379 53.729 84.2213 53.0978 84.2374C52.4666 84.2534 51.8458 84.4017 51.2755 84.6727L43.7701 88.2403C39.9347 90.0641 35.9337 86.0631 37.7565 82.2276L41.3241 74.7222C41.5953 74.152 41.7437 73.5312 41.7599 72.9C41.7761 72.2688 41.6596 71.6413 41.418 71.0579C41.1764 70.4746 40.8151 69.9484 40.3574 69.5134C39.8997 69.0785 39.3559 68.7444 38.761 68.5328L30.931 65.753C26.9319 64.33 26.9319 58.6717 30.931 57.2497L38.761 54.4651C39.3559 54.2536 39.8997 53.9195 40.3574 53.4845C40.8151 53.0496 41.1764 52.5234 41.418 51.9401C41.6596 51.3567 41.7761 50.7291 41.7599 50.098C41.7437 49.4668 41.5953 48.846 41.3241 48.2758L37.7565 40.7704C35.9337 36.9349 39.9347 32.9339 43.7701 34.7568L51.2755 38.3244C51.8457 38.5955 52.4665 38.744 53.0977 38.7601C53.7289 38.7763 54.3564 38.6598 54.9398 38.4183C55.5232 38.1767 56.0493 37.8154 56.4843 37.3577C56.9192 36.9 57.2533 36.3561 57.4649 35.7612L60.2494 27.9313C61.6714 23.9293 67.3298 23.9293 68.7536 27.9303Z" fill="#FFEFE6"/>
<path d="M68.0474 33.5009L70.3725 40.0316C70.5489 40.5278 70.8274 40.9814 71.1901 41.3632C71.5528 41.7451 71.9916 42.0465 72.478 42.2481C72.9645 42.4497 73.4879 42.547 74.0143 42.5337C74.5408 42.5203 75.0586 42.3967 75.5342 42.1707L81.7943 39.1946C84.9927 37.674 88.3296 41.0109 86.809 44.2102L83.8329 50.4703C83.6068 50.9459 83.483 51.4637 83.4696 51.9902C83.4562 52.5167 83.5534 53.0401 83.755 53.5266C83.9567 54.0132 84.2582 54.452 84.6401 54.8146C85.0219 55.1773 85.4757 55.4557 85.972 55.632L92.5027 57.9571C95.8396 59.1438 95.8396 63.8628 92.5027 65.0495L85.972 67.3746C85.4757 67.5508 85.0219 67.8293 84.6401 68.192C84.2582 68.5546 83.9567 68.9934 83.755 69.4799C83.5534 69.9665 83.4562 70.4899 83.4696 71.0164C83.483 71.5429 83.6068 72.0607 83.8329 72.5363L86.809 78.7964C88.3296 81.9947 84.9927 85.3317 81.7943 83.8111L75.5342 80.835C75.0586 80.6088 74.5408 80.4851 74.0143 80.4717C73.4878 80.4583 72.9644 80.5555 72.4779 80.7571C71.9913 80.9587 71.5526 81.2603 71.1899 81.6421C70.8272 82.024 70.5488 82.4778 70.3725 82.9741L68.0474 89.5048C66.8607 92.8417 62.1417 92.8417 60.955 89.5048L58.6299 82.9741C58.4537 82.4778 58.1752 82.024 57.8125 81.6421C57.4499 81.2603 57.0111 80.9587 56.5246 80.7571C56.038 80.5555 55.5146 80.4583 54.9881 80.4717C54.4617 80.4851 53.9439 80.6088 53.4682 80.835L47.2082 83.8111C44.0088 85.3317 40.6719 81.9947 42.1925 78.7964L45.1686 72.5363C45.3946 72.0606 45.5182 71.5429 45.5316 71.0164C45.5449 70.49 45.4476 69.9666 45.246 69.4801C45.0444 68.9936 44.743 68.5549 44.3612 68.1922C43.9794 67.8295 43.5257 67.551 43.0295 67.3746L36.4988 65.0495C33.1619 63.8628 33.1619 59.1438 36.4988 57.9571L43.0295 55.632C43.5257 55.4556 43.9794 55.1771 44.3612 54.8144C44.743 54.4517 45.0444 54.0129 45.246 53.5265C45.4476 53.04 45.5449 52.5166 45.5316 51.9902C45.5182 51.4637 45.3946 50.9459 45.1686 50.4703L42.1925 44.2102C40.6747 41.0137 44.0154 37.673 47.211 39.1936L53.471 42.1697C53.9467 42.3957 54.4644 42.5194 54.9909 42.5327C55.5173 42.5461 56.0407 42.4488 56.5272 42.2472C57.0137 42.0456 57.4524 41.7441 57.8151 41.3623C58.1778 40.9805 58.4563 40.5269 58.6327 40.0307L60.9578 33.5C62.1417 30.1639 66.8607 30.1639 68.0474 33.5009Z" fill="#FFDFCC"/>
<path d="M68.0474 33.5009L70.3725 40.0316C70.5489 40.5278 70.8274 40.9814 71.1901 41.3632C71.5528 41.7451 71.9916 42.0465 72.478 42.2481C72.9645 42.4497 73.4879 42.547 74.0143 42.5337C74.5408 42.5203 75.0586 42.3967 75.5342 42.1707L81.7943 39.1946C84.9927 37.674 88.3296 41.0109 86.809 44.2102L83.8329 50.4703C83.6068 50.9459 83.483 51.4637 83.4696 51.9902C83.4562 52.5167 83.5534 53.0401 83.755 53.5266C83.9567 54.0132 84.2582 54.452 84.6401 54.8146C85.0219 55.1773 85.4757 55.4557 85.972 55.632L92.5027 57.9571C95.8396 59.1438 95.8396 63.8628 92.5027 65.0495L85.972 67.3746C85.4757 67.5508 85.0219 67.8293 84.6401 68.192C84.2582 68.5546 83.9567 68.9934 83.755 69.4799C83.5534 69.9665 83.4562 70.4899 83.4696 71.0164C83.483 71.5429 83.6068 72.0607 83.8329 72.5363L86.809 78.7964C88.3296 81.9947 84.9927 85.3317 81.7943 83.8111L75.5342 80.835C75.0586 80.6088 74.5408 80.4851 74.0143 80.4717C73.4878 80.4583 72.9644 80.5555 72.4779 80.7571C71.9913 80.9587 71.5526 81.2603 71.1899 81.6421C70.8272 82.024 70.5488 82.4778 70.3725 82.9741L68.0474 89.5048C66.8607 92.8417 62.1417 92.8417 60.955 89.5048L58.6299 82.9741C58.4537 82.4778 58.1752 82.024 57.8125 81.6421C57.4499 81.2603 57.0111 80.9587 56.5246 80.7571C56.038 80.5555 55.5146 80.4583 54.9881 80.4717C54.4617 80.4851 53.9439 80.6088 53.4682 80.835L47.2082 83.8111C44.0088 85.3317 40.6719 81.9947 42.1925 78.7964L45.1686 72.5363C45.3946 72.0606 45.5182 71.5429 45.5316 71.0164C45.5449 70.49 45.4476 69.9666 45.246 69.4801C45.0444 68.9936 44.743 68.5549 44.3612 68.1922C43.9794 67.8295 43.5257 67.551 43.0295 67.3746L36.4988 65.0495C33.1619 63.8628 33.1619 59.1438 36.4988 57.9571L43.0295 55.632C43.5257 55.4556 43.9794 55.1771 44.3612 54.8144C44.743 54.4517 45.0444 54.0129 45.246 53.5265C45.4476 53.04 45.5449 52.5166 45.5316 51.9902C45.5182 51.4637 45.3946 50.9459 45.1686 50.4703L42.1925 44.2102C40.6747 41.0137 44.0154 37.673 47.211 39.1936L53.471 42.1697C53.9467 42.3957 54.4644 42.5194 54.9909 42.5327C55.5173 42.5461 56.0407 42.4488 56.5272 42.2472C57.0137 42.0456 57.4524 41.7441 57.8151 41.3623C58.1778 40.9805 58.4563 40.5269 58.6327 40.0307L60.9578 33.5C62.1417 30.1639 66.8607 30.1639 68.0474 33.5009Z" fill="#FFDFCC"/>
<path d="M67.1494 40.5894L68.8839 45.4665C69.0156 45.837 69.2236 46.1758 69.4945 46.4609C69.7654 46.7461 70.0931 46.9711 70.4565 47.1217C70.8198 47.2722 71.2107 47.3447 71.6039 47.3347C71.997 47.3247 72.3837 47.2322 72.7389 47.0633L77.4132 44.8415C79.8015 43.7059 82.294 46.1975 81.1585 48.5867L78.9366 53.2611C78.7677 53.6163 78.6753 54.0029 78.6653 54.3961C78.6552 54.7893 78.7278 55.1801 78.8783 55.5435C79.0288 55.9068 79.2539 56.2345 79.539 56.5054C79.8241 56.7763 80.1629 56.9844 80.5335 57.1161L85.4097 58.8506C87.9021 59.7369 87.9021 63.2608 85.4097 64.1518L80.5335 65.8817C80.1629 66.0134 79.8241 66.2214 79.539 66.4923C79.2539 66.7632 79.0288 67.0909 78.8783 67.4543C78.7278 67.8176 78.6552 68.2085 78.6653 68.6016C78.6753 68.9948 78.7677 69.3815 78.9366 69.7366L81.1585 74.411C82.294 76.7993 79.8015 79.2918 77.4132 78.1563L72.7389 75.9344C72.3837 75.7655 71.997 75.6731 71.6039 75.663C71.2107 75.653 70.8198 75.7256 70.4565 75.8761C70.0931 76.0266 69.7654 76.2517 69.4945 76.5368C69.2236 76.8219 69.0156 77.1607 68.8839 77.5313L67.1494 82.4074C66.263 84.8999 62.7391 84.8999 61.8482 82.4074L60.1136 77.5313C59.9819 77.1607 59.7739 76.8219 59.503 76.5368C59.2321 76.2517 58.9044 76.0266 58.541 75.8761C58.1777 75.7256 57.7868 75.653 57.3937 75.663C57.0005 75.6731 56.6138 75.7655 56.2587 75.9344L51.5843 78.1563C49.195 79.2918 46.7035 76.7993 47.8391 74.411L50.0609 69.7366C50.2298 69.3815 50.3222 68.9948 50.3323 68.6016C50.3423 68.2085 50.2697 67.8176 50.1192 67.4543C49.9687 67.0909 49.7436 66.7632 49.4585 66.4923C49.1734 66.2214 48.8346 66.0134 48.464 65.8817L43.5869 64.1471C41.0954 63.2608 41.0954 59.7369 43.5869 58.8459L48.464 57.1114C48.8346 56.9797 49.1734 56.7717 49.4585 56.5008C49.7436 56.2299 49.9687 55.9022 50.1192 55.5388C50.2697 55.1755 50.3423 54.7846 50.3323 54.3914C50.3222 53.9983 50.2298 53.6116 50.0609 53.2564L47.8391 48.5821C46.7118 46.1975 49.1997 43.7096 51.589 44.8415L56.2633 47.0633C56.6185 47.2322 57.0052 47.3247 57.3983 47.3347C57.7915 47.3447 58.1824 47.2722 58.5457 47.1217C58.909 46.9711 59.2367 46.7461 59.5076 46.4609C59.7785 46.1758 59.9866 45.837 60.1183 45.4665L61.8528 40.5894C62.7391 38.0978 66.263 38.0978 67.1494 40.5894Z" fill="#FFEFE6"/>
</g>
<path d="M79.0063 61.3943C78.95 61.3662 78.8937 61.3381 78.8375 61.3381H77.4594C77.4594 61.3381 79.3438 63.4475 79.3438 64.3475C79.3438 68.7068 73.2969 72.2506 65.8438 72.2506C58.3906 72.2506 52.3438 68.7068 52.3438 64.3475C52.3438 63.4475 52.5969 62.5756 53.1031 61.76C53.2156 61.5631 53.0469 61.31 52.8219 61.3381H51.4438C51.4438 61.3381 48.9688 65.3318 48.9688 67.7225C48.9688 73.3475 56.5344 77.8756 65.8438 77.8756C75.1531 77.8756 82.7188 73.3475 82.7188 67.7225C82.7188 65.3318 81.3406 63.1381 79.0063 61.3943Z" fill="#1A473F"/>
<path d="M62.3001 66.5977H63.6782C63.7345 66.5977 63.7907 66.5977 63.8751 66.5414C65.7314 65.2758 70.5126 61.2258 67.672 54.9258C65.647 50.3977 66.3782 46.2633 66.8564 44.4914C66.9126 44.2945 66.7439 44.0977 66.5751 44.0977H65.1689C65.1689 44.0977 60.4439 49.9758 62.6939 55.882C64.4939 60.6914 62.3001 66.5977 62.3001 66.5977Z" fill="#1A473F"/>
<path d="M54.1156 66.5965C54.1156 66.5965 55.2969 66.5684 55.4938 66.5684C55.55 66.5684 55.6344 66.5684 55.6906 66.5121C57.35 65.3871 61.625 61.7871 59.0938 56.134C57.2656 52.084 57.9125 48.3715 58.3625 46.7965C58.4188 46.6277 58.2781 46.459 58.1375 46.459H56.7313C56.7313 46.459 52.625 51.7465 54.6219 57.0059C56.225 61.309 54.1156 66.5965 54.1156 66.5965Z" fill="#1A473F"/>
<path d="M77.6 61.393C77.3469 61.2243 77.0375 61.5055 77.1781 61.7586C77.6562 62.5743 77.9375 63.4461 77.9375 64.3461C77.9375 68.7055 71.8906 72.2493 64.4375 72.2493C56.9844 72.2493 50.9375 68.7055 50.9375 64.3461C50.9375 63.4461 51.1906 62.5743 51.6969 61.7586C51.8375 61.5055 51.5281 61.2243 51.275 61.393C48.9688 63.1368 47.5625 65.3305 47.5625 67.7211C47.5625 73.3461 55.1281 77.8743 64.4375 77.8743C73.7469 77.8743 81.3125 73.3461 81.3125 67.7211C81.3125 65.3305 79.9344 63.1368 77.6 61.393Z" fill="#28A487"/>
<path d="M61.9905 66.2311C61.9342 66.4842 62.2155 66.7092 62.4405 66.5686C64.2967 65.303 69.078 61.253 66.2374 54.953C64.2124 50.4248 64.9436 46.2905 65.4217 44.5186C65.5061 44.2373 65.1686 44.0123 64.9436 44.2092C63.1436 45.728 59.0374 50.0311 61.2592 55.9373C63.0874 60.6905 62.4124 64.628 61.9905 66.2311Z" fill="#28A487"/>
<path d="M53.8625 66.2598C53.8063 66.4848 54.0594 66.6817 54.2844 66.541C55.9438 65.3879 60.2469 61.7879 57.6875 56.1348C55.8594 52.0848 56.5063 48.3723 56.9563 46.7973C57.0125 46.5442 56.7313 46.3473 56.5344 46.516C54.9032 47.8942 51.2188 51.7473 53.2157 57.0067C54.8469 61.3098 54.2282 64.8535 53.8625 66.2598Z" fill="#28A487"/>
<path d="M70.6814 66.5965C70.6814 66.5965 71.8908 66.5684 72.0314 66.5965C72.0877 66.5965 72.1721 66.5965 72.2283 66.5402C73.8877 65.3871 78.1908 61.7871 75.6314 56.134C73.8033 52.084 74.4502 48.3715 74.9002 46.7965C74.9564 46.6277 74.8158 46.459 74.6752 46.459H73.2689C73.2689 46.459 69.1908 51.7184 71.1877 57.0059C72.7908 61.309 70.6814 66.5965 70.6814 66.5965Z" fill="#1A473F"/>
<path d="M70.3998 66.2598C70.3435 66.4848 70.5967 66.6817 70.8217 66.541C72.481 65.3879 76.7842 61.7879 74.2248 56.1348C72.3967 52.0848 73.0435 48.3723 73.4935 46.7973C73.5498 46.5442 73.2685 46.3473 73.0717 46.516C71.4685 47.8942 67.756 51.7473 69.781 57.0067C71.3842 61.3098 70.7935 64.8535 70.3998 66.2598Z" fill="#28A487"/>
<path d="M54.8806 56.3092C54.6275 56.222 54.4053 56.0083 54.2788 55.7467C53.8428 54.8411 53.601 53.927 53.6656 52.9145C53.7078 52.2114 53.8091 51.4829 54.1044 50.8136C54.2506 50.507 54.6669 49.5592 55.1141 49.6829C55.2547 49.7139 55.3644 49.8573 55.3897 49.9979C55.4403 50.2511 55.2406 50.4451 55.1225 50.6392C54.7231 51.3029 54.695 52.2058 54.8413 52.9483C55.0044 53.7779 56.4219 55.1758 55.7413 56.0195C55.4797 56.3458 55.1619 56.4076 54.8806 56.3092Z" fill="#FE5E02"/>
<path d="M71.2888 56.3092C71.0357 56.222 70.8135 56.0083 70.687 55.7467C70.251 54.8411 70.0092 53.927 70.0738 52.9145C70.116 52.2114 70.2173 51.4829 70.5126 50.8136C70.6588 50.507 71.0751 49.5592 71.5223 49.6829C71.6629 49.7139 71.7726 49.8573 71.7979 49.9979C71.8485 50.2511 71.6488 50.4451 71.5307 50.6392C71.1313 51.3029 71.1032 52.2058 71.2495 52.9483C71.4126 53.7779 72.8301 55.1758 72.1495 56.0195C71.8879 56.3458 71.5673 56.4076 71.2888 56.3092Z" fill="#FE5E02"/>
<path d="M62.8962 55.0427C62.8596 55.0427 62.823 55.0399 62.7809 55.0343C61.833 54.8993 61.6784 52.4974 61.7205 51.7915C61.7627 51.0883 61.864 50.3599 62.1593 49.6905C62.3055 49.384 62.7218 48.4362 63.169 48.5599C63.3096 48.5908 63.4193 48.7343 63.4446 48.8749C63.4952 49.128 63.2955 49.3221 63.1774 49.5162C62.7359 50.253 62.7105 51.2037 62.8709 52.0249C62.9693 52.5199 64.0577 55.0652 62.8962 55.0427Z" fill="#FE5E02"/>
<path d="M51.0669 71.5783C50.8448 71.972 50.9854 72.4755 51.3482 72.7427C52.5379 73.6174 56.6751 76.3258 62.6938 76.6661C69.8882 77.0711 73.1198 74.987 73.1198 74.987C73.1198 74.987 73.6119 74.8042 73.4151 74.4864C73.2182 74.1686 72.5432 74.5145 72.5432 74.5145C72.5432 74.5145 65.5401 76.2892 60.1063 74.8577C54.3801 73.3474 53.1257 72.0592 52.5379 71.5333C52.2707 71.2942 51.9051 71.1733 51.5535 71.238C51.3904 71.2689 51.2357 71.3392 51.1288 71.4827L51.0669 71.5783Z" fill="#FE5E02"/>
</g>
<rect x="25.6173" y="21.6173" width="78.7654" height="78.7654" rx="39.3827" stroke="#FE9E67" stroke-width="1.23457"/>
</g>
<defs>
<filter id="filter0_d_6862_18334" x="0" y="0" width="130" height="130" filterUnits="userSpaceOnUse" color-interpolation-filters="sRGB">
<feFlood flood-opacity="0" result="BackgroundImageFix"/>
<feColorMatrix in="SourceAlpha" type="matrix" values="0 0 0 0 0 0 0 0 0 0 0 0 0 0 0 0 0 0 127 0" result="hardAlpha"/>
<feOffset dy="4"/>
<feGaussianBlur stdDeviation="12.5"/>
<feComposite in2="hardAlpha" operator="out"/>
<feColorMatrix type="matrix" values="0 0 0 0 0 0 0 0 0 0 0 0 0 0 0 0 0 0 0.02 0"/>
<feBlend mode="normal" in2="BackgroundImageFix" result="effect1_dropShadow_6862_18334"/>
<feBlend mode="normal" in="SourceGraphic" in2="effect1_dropShadow_6862_18334" result="shape"/>
</filter>
<clipPath id="clip0_6862_18334">
<rect x="25" y="21" width="80" height="80" rx="40" fill="white"/>
</clipPath>
<clipPath id="clip1_6862_18334">
<rect width="131" height="131" fill="white" transform="translate(-1 -4)"/>
</clipPath>
</defs>
</svg>
