<svg width="12" height="12" viewBox="0 0 12 12" fill="none" xmlns="http://www.w3.org/2000/svg">
<path id="Vector" d="M11.9104 6.09956C7.16444 6.49653 6.49149 7.16444 6.09956 11.9104C6.09679 11.9351 6.08504 11.9578 6.06656 11.9743C6.04808 11.9909 6.02416 12 5.99937 12C5.97458 12 5.95066 11.9909 5.93218 11.9743C5.9137 11.9578 5.90195 11.9351 5.89918 11.9104C5.50221 7.16444 4.83556 6.49149 0.0895635 6.09956C0.0649287 6.09679 0.0421767 6.08504 0.025655 6.06656C0.00913322 6.04808 0 6.02416 0 5.99937C0 5.97458 0.00913322 5.95066 0.025655 5.93218C0.0421767 5.9137 0.0649287 5.90195 0.0895635 5.89918C4.83556 5.50221 5.50851 4.83556 5.89918 0.0895635C5.90195 0.0649287 5.9137 0.0421767 5.93218 0.025655C5.95066 0.00913322 5.97458 0 5.99937 0C6.02416 0 6.04808 0.00913322 6.06656 0.025655C6.08504 0.0421767 6.09679 0.0649287 6.09956 0.0895635C6.49653 4.83556 7.16444 5.50851 11.9104 5.89918C11.9351 5.90195 11.9578 5.9137 11.9743 5.93218C11.9909 5.95066 12 5.97458 12 5.99937C12 6.02416 11.9909 6.04808 11.9743 6.06656C11.9578 6.08504 11.9351 6.09679 11.9104 6.09956Z" fill="white"/>
</svg>
