<svg width="14" height="14" viewBox="0 0 14 14" fill="none" xmlns="http://www.w3.org/2000/svg">
<g id="vuesax/bold/star">
<g id="star">
<path id="Vector" d="M3.34878 9.33268C3.41295 9.04685 3.29628 8.63852 3.09211 8.43435L1.67461 7.01685C1.23128 6.57352 1.05628 6.10102 1.18461 5.69268C1.31878 5.28435 1.73295 5.00435 2.35128 4.89935L4.17128 4.59602C4.43378 4.54935 4.75461 4.31602 4.87711 4.07685L5.88045 2.06435C6.17211 1.48685 6.56878 1.16602 7.00045 1.16602C7.43211 1.16602 7.82878 1.48685 8.12045 2.06435L9.12378 4.07685C9.19961 4.22852 9.35711 4.37435 9.52628 4.47352L3.24378 10.756C3.16211 10.8377 3.02211 10.7618 3.04545 10.6452L3.34878 9.33268Z" fill="#FE5E02"/>
<path id="Vector_2" d="M10.9088 8.43413C10.6988 8.64413 10.5821 9.04663 10.6521 9.33246L11.0546 11.0883C11.2238 11.8175 11.1188 12.3658 10.7571 12.6283C10.6113 12.7333 10.4363 12.7858 10.2321 12.7858C9.93462 12.7858 9.58462 12.675 9.19962 12.4475L7.49046 11.4325C7.22212 11.275 6.77879 11.275 6.51046 11.4325L4.80129 12.4475C4.15379 12.8266 3.59962 12.8908 3.24379 12.6283C3.10962 12.5291 3.01046 12.395 2.94629 12.22L10.0396 5.12663C10.308 4.85829 10.6871 4.73579 11.0546 4.79996L11.6438 4.89913C12.2621 5.00413 12.6763 5.28413 12.8105 5.69246C12.9388 6.10079 12.7638 6.57329 12.3205 7.01663L10.9088 8.43413Z" fill="#FE5E02"/>
</g>
</g>
</svg>
