<svg width="24" height="24" viewBox="0 0 24 24" fill="none" xmlns="http://www.w3.org/2000/svg">
<g clip-path="url(#clip0_7086_10722)">
<path d="M22.0001 8.37891H6.61523C5.51066 8.37891 4.61523 9.27434 4.61523 10.3789V18.2578C4.61523 19.3624 5.51066 20.2578 6.61523 20.2578H22.0001C23.1046 20.2578 24.0001 19.3624 24.0001 18.2578V10.3789C24.0001 9.27434 23.1046 8.37891 22.0001 8.37891Z" fill="#FE9E67"/>
<path d="M19.6919 6.07227H4.30713C3.20256 6.07227 2.30713 6.96769 2.30713 8.07226V15.9512C2.30713 17.0557 3.20256 17.9512 4.30713 17.9512H19.6919C20.7965 17.9512 21.6919 17.0557 21.6919 15.9512V8.07227C21.6919 6.9677 20.7965 6.07227 19.6919 6.07227Z" fill="#FE7E34"/>
<path d="M17.3848 3.74023H2C0.895431 3.74023 0 4.63566 0 5.74023V13.6191C0 14.7237 0.89543 15.6191 2 15.6191H17.3848C18.4894 15.6191 19.3848 14.7237 19.3848 13.6191V5.74023C19.3848 4.63566 18.4894 3.74023 17.3848 3.74023Z" fill="#FFBF99"/>
<path d="M5.43965 9.55021C6.1606 9.55021 6.74503 8.96577 6.74503 8.24483C6.74503 7.52389 6.1606 6.93945 5.43965 6.93945C4.71871 6.93945 4.13428 7.52389 4.13428 8.24483C4.13428 8.96577 4.71871 9.55021 5.43965 9.55021Z" fill="#FE5E02"/>
<path d="M5.43986 10.4297C4.19237 10.4297 3.14265 11.2739 2.8291 12.422H8.05061C7.73706 11.2739 6.68734 10.4297 5.43986 10.4297Z" fill="white"/>
<path d="M13.6485 7.91866H10.8793C10.5188 7.91866 10.2266 7.62639 10.2266 7.26597C10.2266 6.90555 10.5188 6.61328 10.8793 6.61328H13.6485C14.009 6.61328 14.3012 6.90555 14.3012 7.26597C14.3012 7.62639 14.009 7.91866 13.6485 7.91866Z" fill="white"/>
<path d="M16.4178 10.3327H10.8793C10.5188 10.3327 10.2266 10.0405 10.2266 9.68003C10.2266 9.31961 10.5188 9.02734 10.8793 9.02734H16.4178C16.7782 9.02734 17.0705 9.31961 17.0705 9.68003C17.0705 10.0405 16.7782 10.3327 16.4178 10.3327Z" fill="white"/>
<path d="M16.4178 12.7487H10.8793C10.5188 12.7487 10.2266 12.4565 10.2266 12.096C10.2266 11.7356 10.5188 11.4434 10.8793 11.4434H16.4178C16.7782 11.4434 17.0705 11.7356 17.0705 12.096C17.0705 12.4565 16.7782 12.7487 16.4178 12.7487Z" fill="white"/>
</g>
<defs>
<clipPath id="clip0_7086_10722">
<rect width="24" height="24" fill="white"/>
</clipPath>
</defs>
</svg>
