<svg width="25" height="24" viewBox="0 0 25 24" fill="none" xmlns="http://www.w3.org/2000/svg">
<path fill-rule="evenodd" clip-rule="evenodd" d="M7.5 2.25C4.32436 2.25 1.75 4.82436 1.75 8V20.9194C1.75 22.3868 3.44738 23.2026 4.59322 22.2859L7.42069 20.0239C7.64233 19.8466 7.91772 19.75 8.20156 19.75H17.5C20.6756 19.75 23.25 17.1756 23.25 14V8C23.25 4.82436 20.6756 2.25 17.5 2.25H7.5ZM7.5498 12.2998C8.24016 12.2998 8.7998 11.7402 8.7998 11.0498C8.7998 10.3594 8.24016 9.7998 7.5498 9.7998C6.85945 9.7998 6.2998 10.3594 6.2998 11.0498C6.2998 11.7402 6.85945 12.2998 7.5498 12.2998ZM13.7998 11.0498C13.7998 11.7402 13.2402 12.2998 12.5498 12.2998C11.8594 12.2998 11.2998 11.7402 11.2998 11.0498C11.2998 10.3594 11.8594 9.7998 12.5498 9.7998C13.2402 9.7998 13.7998 10.3594 13.7998 11.0498ZM17.5498 12.2998C18.2402 12.2998 18.7998 11.7402 18.7998 11.0498C18.7998 10.3594 18.2402 9.7998 17.5498 9.7998C16.8594 9.7998 16.2998 10.3594 16.2998 11.0498C16.2998 11.7402 16.8594 12.2998 17.5498 12.2998Z" fill="#8C94A6"/>
</svg>
