<svg width="46" height="46" viewBox="0 0 46 46" fill="none" xmlns="http://www.w3.org/2000/svg">
<path d="M42.4186 3.11848L45.3117 11.2545C45.5312 11.8731 45.8781 12.4388 46.3301 12.9148C46.782 13.3909 47.3288 13.7668 47.9352 14.0181C48.5415 14.2695 49.1939 14.3907 49.8501 14.374C50.5063 14.3573 51.1516 14.203 51.7444 13.9211L59.5432 10.2137C63.5284 8.31932 67.6858 12.4766 65.7914 16.4618L62.0824 24.258C61.8008 24.8506 61.6468 25.4957 61.6302 26.1517C61.6135 26.8076 61.7348 27.4597 61.986 28.0658C62.2372 28.672 62.6128 29.2186 63.0886 29.6705C63.5643 30.1223 64.1296 30.4693 64.7478 30.689L72.8839 33.5821C77.0385 35.0605 77.0385 40.9401 72.8839 42.4185L64.7478 45.3117C64.1293 45.5313 63.5638 45.8783 63.0879 46.3302C62.6119 46.7822 62.2362 47.329 61.9849 47.9354C61.7337 48.5417 61.6125 49.1941 61.6293 49.8502C61.6461 50.5063 61.8005 51.1516 62.0824 51.7443L65.7897 59.5432C67.6841 63.5284 63.5268 67.6857 59.5416 65.7913L51.7444 62.0823C51.1517 61.8004 50.5064 61.6461 49.8503 61.6293C49.1941 61.6125 48.5418 61.7336 47.9355 61.9849C47.3291 62.2361 46.7823 62.6119 46.3303 63.0878C45.8783 63.5637 45.5313 64.1293 45.3117 64.7478L42.4186 72.8838C40.9402 77.0385 35.0606 77.0385 33.5822 72.8838L30.6891 64.7478C30.4692 64.1297 30.1221 63.5646 29.6702 63.089C29.2182 62.6134 28.6716 62.238 28.0654 61.9869C27.4593 61.7359 26.8073 61.6148 26.1514 61.6315C25.4956 61.6482 24.8506 61.8024 24.258 62.084L16.457 65.7897C12.4718 67.6841 8.31452 63.5268 10.2089 59.5415L13.9211 51.7443C14.2028 51.1518 14.357 50.5068 14.3738 49.8509C14.3905 49.195 14.2695 48.543 14.0184 47.9368C13.7673 47.3307 13.3918 46.784 12.9162 46.3321C12.4406 45.8802 11.8755 45.5331 11.2573 45.3133L3.11853 42.4185C-1.03609 40.9401 -1.03609 35.0605 3.11853 33.5821L11.2546 30.689C11.8729 30.4694 12.4383 30.1225 12.9142 29.6707C13.39 29.2189 13.7658 28.6723 14.0171 28.0661C14.2684 27.46 14.3897 26.8078 14.3732 26.1519C14.3567 25.4959 14.2027 24.8507 13.9211 24.258L10.2111 16.457C8.31667 12.4718 12.474 8.31446 16.4592 10.2089L24.258 13.9211C24.8506 14.2027 25.4956 14.3568 26.1514 14.3735C26.8073 14.3902 27.4593 14.2691 28.0654 14.0181C28.6716 13.767 29.2182 13.3916 29.6702 12.916C30.1221 12.4404 30.4692 11.8753 30.6891 11.2572L33.5822 3.11848C35.0606 -1.03884 40.9402 -1.03884 42.4186 3.11848Z" fill="#FFE5CC"/>
<path d="M41.674 8.99858L44.0793 15.7631C44.2622 16.2768 44.5507 16.7465 44.9263 17.1417C45.302 17.537 45.7563 17.8491 46.2601 18.0578C46.7639 18.2666 47.3058 18.3673 47.8509 18.3535C48.396 18.3398 48.9322 18.2118 49.4248 17.978L55.9092 14.896C59.2222 13.321 62.6786 16.7774 61.1036 20.0904L58.0216 26.5748C57.7874 27.0674 57.6592 27.6037 57.6452 28.149C57.6313 28.6943 57.732 29.2364 57.9407 29.7404C58.1495 30.2443 58.4617 30.6988 58.8572 31.0745C59.2526 31.4502 59.7226 31.7387 60.2365 31.9213L67.0005 34.3272C70.4569 35.5564 70.4569 40.4442 67.0005 41.6734L60.2365 44.0787C59.7225 44.2615 59.2526 44.55 58.8571 44.9257C58.4617 45.3015 58.1495 45.756 57.9407 46.26C57.7319 46.764 57.6313 47.3062 57.6452 47.8515C57.6592 48.3968 57.7874 48.9331 58.0216 49.4258L61.1036 55.9102C62.6786 59.2232 59.2222 62.6796 55.9092 61.1046L49.4248 58.0226C48.9321 57.7884 48.3958 57.6602 47.8505 57.6462C47.3052 57.6323 46.763 57.733 46.259 57.9417C45.755 58.1505 45.3005 58.4627 44.9247 58.8582C44.549 59.2536 44.2604 59.7235 44.0777 60.2375L41.6724 67.0015C40.4432 70.4579 35.5553 70.4579 34.3262 67.0015L31.9203 60.2375C31.7377 59.7236 31.4492 59.2537 31.0735 58.8582C30.6978 58.4627 30.2433 58.1505 29.7393 57.9417C29.2354 57.733 28.6933 57.6323 28.148 57.6462C27.6027 57.6602 27.0664 57.7884 26.5738 58.0226L20.0893 61.1046C16.7764 62.6796 13.32 59.2232 14.895 55.9102L17.9786 49.4242C18.2127 48.9315 18.3409 48.3952 18.3548 47.8499C18.3687 47.3046 18.268 46.7624 18.0592 46.2585C17.8505 45.7545 17.5383 45.3 17.1429 44.9242C16.7475 44.5485 16.2776 44.2599 15.7637 44.0771L8.99919 41.6734C5.54275 40.4442 5.54275 35.5564 8.99919 34.3272L15.7637 31.9213C16.2776 31.7386 16.7475 31.4501 17.1429 31.0744C17.5383 30.6987 17.8505 30.2442 18.0592 29.7403C18.268 29.2363 18.3687 28.6942 18.3548 28.149C18.3409 27.6037 18.2127 27.0674 17.9786 26.5748L14.8966 20.0904C13.3216 16.7774 16.778 13.321 20.091 14.896L26.5754 17.978C27.068 18.2121 27.6043 18.3403 28.1496 18.3542C28.6948 18.368 29.237 18.2674 29.7409 18.0586C30.2448 17.8499 30.6993 17.5377 31.075 17.1423C31.4507 16.7468 31.7392 16.277 31.9219 15.7631L34.3278 8.99858C35.558 5.54214 40.4449 5.54214 41.674 8.99858Z" fill="#FF9532"/>
<path d="M41.0813 13.6765L43.0988 19.35C43.2523 19.7809 43.4945 20.1747 43.8098 20.5061C44.1251 20.8375 44.5064 21.0991 44.929 21.2739C45.3517 21.4488 45.8064 21.533 46.2636 21.5211C46.7209 21.5092 47.1706 21.4016 47.5836 21.205L53.0218 18.62C55.8006 17.2991 58.6997 20.1982 57.3788 22.977L54.7938 28.4152C54.5973 28.8283 54.4897 29.2781 54.478 29.7354C54.4663 30.1927 54.5507 30.6474 54.7257 31.0701C54.9008 31.4928 55.1626 31.874 55.4942 32.1891C55.8258 32.5042 56.2199 32.7462 56.6509 32.8995L62.3244 34.9175C65.2235 35.948 65.2235 40.0476 62.3244 41.0787L56.6509 43.0961C56.2199 43.2495 55.8258 43.4915 55.4942 43.8067C55.1625 44.1219 54.9007 44.5031 54.7257 44.9258C54.5506 45.3485 54.4663 45.8033 54.478 46.2606C54.4897 46.718 54.5973 47.1678 54.7938 47.581L57.3788 53.0192C58.6997 55.798 55.8006 58.697 53.0218 57.3762L47.5836 54.7911C47.1704 54.5947 46.7206 54.4871 46.2633 54.4754C45.8059 54.4636 45.3512 54.548 44.9285 54.7231C44.5058 54.8981 44.1245 55.1599 43.8093 55.4915C43.4941 55.8232 43.2521 56.2173 43.0988 56.6483L41.0813 62.3218C40.0502 65.2209 35.9506 65.2209 34.9201 62.3218L32.9021 56.6483C32.7489 56.2173 32.5068 55.8232 32.1917 55.4916C31.8766 55.1599 31.4954 54.8981 31.0727 54.7231C30.6501 54.548 30.1954 54.4637 29.738 54.4754C29.2807 54.4871 28.831 54.5947 28.4178 54.7911L22.9796 57.3762C20.2008 58.697 17.3018 55.798 18.6226 53.0192L21.2055 47.5831C21.402 47.17 21.5095 46.7201 21.5213 46.2628C21.533 45.8054 21.4486 45.3507 21.2736 44.928C21.0985 44.5053 20.8367 44.124 20.5051 43.8089C20.1735 43.4937 19.7794 43.2516 19.3483 43.0983L13.677 41.0809C10.7779 40.0498 10.7779 35.9502 13.677 34.9196L19.3505 32.9017C19.7813 32.7482 20.1752 32.506 20.5066 32.1908C20.838 31.8756 21.0995 31.4943 21.2744 31.0717C21.4492 30.649 21.5334 30.1944 21.5215 29.7372C21.5097 29.28 21.402 28.8304 21.2055 28.4174L18.6226 22.9791C17.3018 20.2004 20.2008 17.3013 22.9796 18.6221L28.4178 21.205C28.831 21.4015 29.2807 21.5091 29.738 21.5208C30.1954 21.5325 30.6501 21.4481 31.0727 21.2731C31.4954 21.098 31.8766 20.8362 32.1917 20.5046C32.5068 20.173 32.7489 19.7789 32.9021 19.3479L34.9201 13.6744C35.9506 10.7775 40.0502 10.7775 41.0813 13.6765Z" fill="#FFE5CC"/>
<path d="M40.4677 18.5245L42.0831 23.0671C42.2059 23.4122 42.3997 23.7278 42.652 23.9933C42.9043 24.2588 43.2096 24.4684 43.548 24.6086C43.8865 24.7487 44.2506 24.8163 44.6167 24.8069C44.9829 24.7975 45.3431 24.7114 45.6739 24.5541L50.0282 22.4844C52.2533 21.4268 54.5745 23.748 53.5164 25.9732L51.4467 30.3274C51.2894 30.6581 51.2033 31.0181 51.1938 31.3842C51.1843 31.7502 51.2517 32.1142 51.3916 32.4526C51.5316 32.791 51.7409 33.0963 52.0062 33.3487C52.2714 33.6012 52.5867 33.7952 52.9315 33.9182L57.4741 35.5337C59.7942 36.3587 59.7942 39.6414 57.4741 40.4669L52.9315 42.0823C52.5864 42.2051 52.2709 42.3989 52.0053 42.6512C51.7398 42.9036 51.5302 43.2088 51.39 43.5472C51.2498 43.8856 51.1821 44.2497 51.1914 44.6159C51.2007 44.9821 51.2868 45.3423 51.444 45.6731L53.5137 50.0274C54.5718 52.2525 52.2506 54.5737 50.0255 53.5157L45.6712 51.4459C45.3406 51.289 44.9807 51.2032 44.6149 51.1939C44.2491 51.1847 43.8853 51.2522 43.5472 51.3922C43.2091 51.5321 42.904 51.7414 42.6518 52.0065C42.3995 52.2716 42.2056 52.5867 42.0826 52.9313L40.4677 57.476C39.6421 59.7962 36.3594 59.7962 35.5344 57.476L33.9185 52.9313C33.7957 52.5862 33.6019 52.2707 33.3496 52.0051C33.0972 51.7396 32.792 51.5299 32.4536 51.3897C32.1151 51.2495 31.7511 51.1819 31.3849 51.1912C31.0187 51.2005 30.6585 51.2865 30.3277 51.4437L25.9734 53.5135C23.7483 54.5716 21.4271 52.2504 22.4846 50.0252L24.5544 45.671C24.7117 45.3401 24.7978 44.98 24.8072 44.6138C24.8165 44.2476 24.749 43.8835 24.6088 43.5451C24.4687 43.2067 24.259 42.9014 23.9935 42.6491C23.728 42.3967 23.4125 42.2029 23.0673 42.0802L18.5248 40.4674C16.2046 39.6419 16.2046 36.3592 18.5248 35.5342L23.0673 33.9188C23.4125 33.796 23.728 33.6022 23.9935 33.3499C24.259 33.0975 24.4687 32.7923 24.6088 32.4538C24.749 32.1154 24.8165 31.7513 24.8072 31.3851C24.7978 31.0189 24.7117 30.6588 24.5544 30.328L22.4846 25.9737C21.4271 23.7486 23.7483 21.4274 25.9734 22.4849L30.3277 24.5547C30.6585 24.712 31.0186 24.7981 31.3848 24.8075C31.751 24.8168 32.1151 24.7493 32.4535 24.6091C32.792 24.469 33.0972 24.2593 33.3496 23.9938C33.6019 23.7283 33.7957 23.4128 33.9185 23.0676L35.5339 18.5251C36.3589 16.2033 39.6416 16.2033 40.4677 18.5245Z" fill="#FF9532"/>
<path d="M40.058 21.7567L41.4069 25.5455C41.5092 25.8334 41.6708 26.0966 41.8812 26.3181C42.0916 26.5396 42.3462 26.7145 42.6284 26.8314C42.9106 26.9484 43.2143 27.0048 43.5197 26.9971C43.8251 26.9894 44.1255 26.9176 44.4014 26.7865L48.0332 25.0599C49.8888 24.1777 51.8247 26.1137 50.9425 27.9698L49.2159 31.6016C49.0847 31.8775 49.0129 32.1779 49.0052 32.4833C48.9974 32.7888 49.0538 33.0925 49.1708 33.3747C49.2877 33.657 49.4627 33.9115 49.6842 34.1219C49.9058 34.3323 50.169 34.4939 50.4569 34.5961L54.2457 35.945C56.1817 36.6335 56.1817 39.3713 54.2457 40.0597L50.4569 41.4086C50.169 41.5109 49.9058 41.6724 49.6842 41.8828C49.4627 42.0932 49.2877 42.3478 49.1708 42.6301C49.0538 42.9123 48.9974 43.216 49.0052 43.5214C49.0129 43.8269 49.0847 44.1273 49.2159 44.4032L50.9425 48.035C51.8247 49.8906 49.8888 51.8265 48.0332 50.9443L44.4014 49.2177C44.1255 49.0865 43.8251 49.0147 43.5197 49.0069C43.2142 48.9992 42.9105 49.0556 42.6283 49.1726C42.346 49.2895 42.0915 49.4644 41.8811 49.686C41.6707 49.9075 41.5091 50.1708 41.4069 50.4587L40.058 54.2475C39.3695 56.1835 36.6317 56.1835 35.9433 54.2475L34.5944 50.4587C34.4921 50.1708 34.3306 49.9075 34.1202 49.686C33.9098 49.4644 33.6552 49.2895 33.3729 49.1726C33.0907 49.0556 32.787 48.9992 32.4816 49.0069C32.1761 49.0147 31.8757 49.0865 31.5998 49.2177L27.968 50.9443C26.1119 51.8265 24.176 49.8906 25.0581 48.035L26.7847 44.4032C26.9158 44.1273 26.9876 43.8269 26.9953 43.5215C27.0031 43.216 26.9466 42.9124 26.8297 42.6302C26.7127 42.3479 26.5378 42.0934 26.3163 41.883C26.0948 41.6726 25.8316 41.511 25.5437 41.4086L21.7549 40.0597C19.819 39.3713 19.819 36.6335 21.7549 35.945L25.5437 34.5961C25.8316 34.4938 26.0948 34.3322 26.3163 34.1218C26.5378 33.9114 26.7127 33.6568 26.8297 33.3746C26.9466 33.0924 27.0031 32.7887 26.9953 32.4833C26.9876 32.1779 26.9158 31.8775 26.7847 31.6016L25.0581 27.9698C24.1776 26.1153 26.1157 24.1772 27.9696 25.0594L31.6014 26.786C31.8774 26.9171 32.1777 26.9888 32.4832 26.9966C32.7886 27.0043 33.0922 26.9479 33.3745 26.8309C33.6567 26.7139 33.9112 26.5391 34.1217 26.3175C34.3321 26.096 34.4937 25.8328 34.596 25.545L35.9449 21.7562C36.6317 19.8208 39.3695 19.8208 40.058 21.7567Z" fill="#FFC6FF"/>
<path d="M40.058 21.7567L41.4069 25.5455C41.5092 25.8334 41.6708 26.0966 41.8812 26.3181C42.0916 26.5396 42.3462 26.7145 42.6284 26.8314C42.9106 26.9484 43.2143 27.0048 43.5197 26.9971C43.8251 26.9894 44.1255 26.9176 44.4014 26.7865L48.0332 25.0599C49.8888 24.1777 51.8247 26.1137 50.9425 27.9698L49.2159 31.6016C49.0847 31.8775 49.0129 32.1779 49.0052 32.4833C48.9974 32.7888 49.0538 33.0925 49.1708 33.3747C49.2877 33.657 49.4627 33.9115 49.6842 34.1219C49.9058 34.3323 50.169 34.4939 50.4569 34.5961L54.2457 35.945C56.1817 36.6335 56.1817 39.3713 54.2457 40.0597L50.4569 41.4086C50.169 41.5109 49.9058 41.6724 49.6842 41.8828C49.4627 42.0932 49.2877 42.3478 49.1708 42.6301C49.0538 42.9123 48.9974 43.216 49.0052 43.5214C49.0129 43.8269 49.0847 44.1273 49.2159 44.4032L50.9425 48.035C51.8247 49.8906 49.8888 51.8265 48.0332 50.9443L44.4014 49.2177C44.1255 49.0865 43.8251 49.0147 43.5197 49.0069C43.2142 48.9992 42.9105 49.0556 42.6283 49.1726C42.346 49.2895 42.0915 49.4644 41.8811 49.686C41.6707 49.9075 41.5091 50.1708 41.4069 50.4587L40.058 54.2475C39.3695 56.1835 36.6317 56.1835 35.9433 54.2475L34.5944 50.4587C34.4921 50.1708 34.3306 49.9075 34.1202 49.686C33.9098 49.4644 33.6552 49.2895 33.3729 49.1726C33.0907 49.0556 32.787 48.9992 32.4816 49.0069C32.1761 49.0147 31.8757 49.0865 31.5998 49.2177L27.968 50.9443C26.1119 51.8265 24.176 49.8906 25.0581 48.035L26.7847 44.4032C26.9158 44.1273 26.9876 43.8269 26.9953 43.5215C27.0031 43.216 26.9466 42.9124 26.8297 42.6302C26.7127 42.3479 26.5378 42.0934 26.3163 41.883C26.0948 41.6726 25.8316 41.511 25.5437 41.4086L21.7549 40.0597C19.819 39.3713 19.819 36.6335 21.7549 35.945L25.5437 34.5961C25.8316 34.4938 26.0948 34.3322 26.3163 34.1218C26.5378 33.9114 26.7127 33.6568 26.8297 33.3746C26.9466 33.0924 27.0031 32.7887 26.9953 32.4833C26.9876 32.1779 26.9158 31.8775 26.7847 31.6016L25.0581 27.9698C24.1776 26.1153 26.1157 24.1772 27.9696 25.0594L31.6014 26.786C31.8774 26.9171 32.1777 26.9888 32.4832 26.9966C32.7886 27.0043 33.0922 26.9479 33.3745 26.8309C33.6567 26.7139 33.9112 26.5391 34.1217 26.3175C34.3321 26.096 34.4937 25.8328 34.596 25.545L35.9449 21.7562C36.6317 19.8208 39.3695 19.8208 40.058 21.7567Z" fill="#FFE5CC"/>
<path d="M39.537 25.8698L40.5433 28.6992C40.6197 28.9142 40.7404 29.1108 40.8976 29.2762C41.0547 29.4416 41.2448 29.5722 41.4556 29.6595C41.6664 29.7468 41.8932 29.7889 42.1213 29.7831C42.3494 29.7772 42.5737 29.7236 42.7798 29.6256L45.4916 28.3366C46.8772 27.6778 48.3232 29.1233 47.6644 30.5095L46.3754 33.2213C46.2774 33.4274 46.2238 33.6517 46.218 33.8798C46.2122 34.1079 46.2543 34.3346 46.3416 34.5454C46.4289 34.7562 46.5595 34.9463 46.7249 35.1035C46.8903 35.2607 47.0868 35.3813 47.3018 35.4578L50.1308 36.4641C51.5768 36.9783 51.5768 39.0227 50.1308 39.5396L47.3018 40.5431C47.0868 40.6196 46.8903 40.7403 46.7249 40.8974C46.5595 41.0546 46.4289 41.2447 46.3416 41.4555C46.2543 41.6663 46.2122 41.8931 46.218 42.1212C46.2238 42.3492 46.2774 42.5736 46.3754 42.7796L47.6644 45.4915C48.3232 46.8771 46.8772 48.3231 45.4916 47.6643L42.7798 46.3753C42.5737 46.2773 42.3494 46.2237 42.1213 46.2178C41.8932 46.212 41.6664 46.2541 41.4556 46.3414C41.2448 46.4288 41.0547 46.5593 40.8976 46.7248C40.7404 46.8902 40.6197 47.0867 40.5433 47.3017L39.537 50.1306C39.0228 51.5766 36.9784 51.5766 36.4615 50.1306L35.4552 47.3017C35.3788 47.0867 35.2581 46.8902 35.1009 46.7248C34.9438 46.5593 34.7537 46.4288 34.5429 46.3414C34.3321 46.2541 34.1053 46.212 33.8772 46.2178C33.6491 46.2237 33.4248 46.2773 33.2187 46.3753L30.5069 47.6643C29.1208 48.3231 27.6753 46.8771 28.3341 45.4915L29.6231 42.7796C29.7211 42.5736 29.7747 42.3492 29.7805 42.1212C29.7863 41.8931 29.7442 41.6663 29.6569 41.4555C29.5696 41.2447 29.439 41.0546 29.2736 40.8974C29.1082 40.7403 28.9116 40.6196 28.6967 40.5431L25.8672 39.5369C24.4217 39.0227 24.4217 36.9783 25.8672 36.4614L28.6967 35.4551C28.9116 35.3786 29.1082 35.258 29.2736 35.1008C29.439 34.9436 29.5696 34.7535 29.6569 34.5427C29.7442 34.3319 29.7863 34.1052 29.7805 33.8771C29.7747 33.649 29.7211 33.4247 29.6231 33.2186L28.3341 30.5068C27.6801 29.1233 29.1235 27.68 30.5096 28.3366L33.2214 29.6256C33.4275 29.7236 33.6518 29.7772 33.8799 29.7831C34.108 29.7889 34.3348 29.7468 34.5456 29.6595C34.7564 29.5722 34.9465 29.4416 35.1036 29.2762C35.2608 29.1108 35.3815 28.9142 35.4579 28.6992L36.4642 25.8698C36.9784 24.4243 39.0228 24.4243 39.537 25.8698Z" fill="#FF9532"/>
</svg>
