<svg width="36" height="36" viewBox="0 0 36 36" fill="none" xmlns="http://www.w3.org/2000/svg">
<g opacity="0.1">
<path d="M12.3789 21.1157H42.5318L42.5328 21.1147C42.4476 21.0378 42.3676 20.9558 42.2918 20.8705C41.9655 20.501 41.7234 20.0589 41.5897 19.5726L41.0097 17.4684C40.1254 14.2536 37.2023 12.0273 33.8696 12.0273H21.3643C18.8664 12.0273 16.5663 13.1494 15.0285 14.9863C14.3759 15.7642 13.8611 16.6715 13.5263 17.6768L12.7252 20.0768L12.7242 20.0789L12.3789 21.1157Z" fill="#F1F2F4"/>
<path d="M24.0717 20.7998H30.7665L24.2864 11.7113L24.2643 11.6797L24.2632 11.7113L24.0717 20.7998Z" fill="white"/>
<path d="M12.7032 20.8013H19.3979L15.0284 14.6719C14.3759 15.4498 13.8611 16.3571 13.5263 17.3624L12.7252 19.7624L12.7242 19.7645L12.7032 20.8013Z" fill="white"/>
<path d="M33.8696 13.1211V20.8012H39.3455L33.8696 13.1211Z" fill="white"/>
<path d="M11.0138 23.9618L11.6022 20.6608C11.6085 20.624 11.618 20.5861 11.6307 20.5503L12.7781 17.1113C14.0107 13.4093 17.4623 10.9219 21.3644 10.9219H33.8697C34.6192 10.9219 35.3508 11.025 36.0487 11.2187C38.7761 11.9755 40.995 14.1198 41.7708 16.943L42.3508 19.0472C42.4509 19.4093 43.3225 20.8262 43.3203 20.8535L43.2203 23.7767L43.2118 24.023C43.1971 24.4472 42.8498 24.784 42.4256 24.7851L39.4824 24.7956H39.4813L11.7938 24.8903H11.7906C11.558 24.8903 11.3358 24.7872 11.1864 24.6093C11.0358 24.4292 10.9727 24.1924 11.0138 23.9618ZM39.0823 23.2166L41.6592 23.2082L41.7308 21.1114C41.7213 21.1009 41.7118 21.0903 41.7013 21.0788C41.7013 21.0788 41.7003 21.0777 41.7003 21.0767C41.293 20.6156 40.9918 20.0588 40.8287 19.4662L40.2487 17.3619C39.7077 15.3967 38.3023 13.8387 36.5128 13.0545C35.697 12.6977 34.8002 12.5008 33.8697 12.5008H21.3643C18.1422 12.5008 15.2937 14.5545 14.2748 17.6103L13.1463 20.9956L12.7337 23.3082L39.0823 23.2166Z" fill="#FE5E02"/>
<path d="M1.57779 25.3237L2.48623 30.4164L2.93257 32.9164H44.295C44.9687 32.9164 45.5139 32.3712 45.5139 31.6975V24.4353C45.5139 23.1111 44.716 21.9174 43.4929 21.4111C43.1349 21.2637 42.8118 21.0543 42.5329 20.7985L42.5318 20.7995H34.6507V11.75H33.0718V20.7995H25.0465V11.9184H23.4676V20.7995H12.3791L4.64539 21.3721C2.65367 21.5195 1.22623 23.3574 1.57779 25.3237Z" fill="#FE5E02"/>
<path d="M4.25231 27.9946C4.29843 27.9946 4.34503 27.9905 4.39199 27.9822C4.82128 27.9056 5.10703 27.4954 5.03043 27.0661L4.62084 24.772C4.54425 24.3427 4.13428 24.0568 3.70481 24.1335C3.27553 24.2101 2.98978 24.6203 3.06637 25.0496L3.47596 27.3437C3.54431 27.7259 3.87703 27.9946 4.25231 27.9946Z" fill="white"/>
<path d="M2.48623 30.418L2.93258 32.918H44.295C44.9687 32.918 45.5139 32.3728 45.5139 31.6991V30.418H2.48623Z" fill="#983801"/>
<path d="M1.86515 31.1805H6.03243C6.46846 31.1805 6.8219 30.8271 6.8219 30.391C6.8219 29.955 6.46846 29.6016 6.03243 29.6016H1.86515C1.42912 29.6016 1.07568 29.955 1.07568 30.391C1.07568 30.8271 1.42912 31.1805 1.86515 31.1805Z" fill="#FCFCFD"/>
<path d="M7.47492 26.6261C7.06795 26.6261 6.73804 26.2962 6.73804 25.8892C6.73804 25.4823 7.06795 25.1523 7.47492 25.1523C7.88188 25.1523 8.21179 25.4823 8.21179 25.8892C8.21179 26.2962 7.88188 26.6261 7.47492 26.6261Z" fill="white"/>
<path d="M5.34417 32.4728C5.33723 32.3658 5.33376 32.2576 5.33376 32.1494C5.33376 29.4025 7.5606 27.1758 10.3074 27.1758C13.0554 27.1758 15.2822 29.4026 15.2822 32.1494C15.2822 32.2576 15.2788 32.3659 15.2718 32.4728C15.1053 35.0696 12.9472 37.1243 10.3075 37.1243C7.6687 37.1243 5.51048 35.0697 5.34417 32.4728Z" fill="#CB4B01"/>
<path d="M10.3077 34.1905C11.433 34.1905 12.3483 33.2751 12.3483 32.1499C12.3483 31.0247 11.4329 30.1094 10.3077 30.1094C9.18261 30.1094 8.26723 31.0247 8.26723 32.1499C8.26723 33.2751 9.18261 34.1905 10.3077 34.1905Z" fill="#FCFCFD"/>
<path d="M10.3077 34.5987C11.6574 34.5987 12.7555 33.5006 12.7555 32.1508C12.7555 30.8011 11.6574 29.7031 10.3077 29.7031C8.95796 29.7031 7.86006 30.8011 7.86006 32.1508C7.86006 33.5006 8.95806 34.5987 10.3077 34.5987ZM10.3077 30.5175C11.2083 30.5175 11.9411 31.2503 11.9411 32.1509C11.9411 33.0516 11.2083 33.7843 10.3077 33.7843C9.40712 33.7843 8.67437 33.0516 8.67437 32.1509C8.67437 31.2502 9.40712 30.5175 10.3077 30.5175Z" fill="#983801"/>
<path d="M32.7127 32.4728C32.7058 32.3658 32.7023 32.2576 32.7023 32.1494C32.7023 29.4025 34.9291 27.1758 37.6759 27.1758C40.4239 27.1758 42.6508 29.4026 42.6508 32.1494C42.6508 32.2576 42.6473 32.3659 42.6404 32.4728C42.4739 35.0696 40.3158 37.1243 37.676 37.1243C35.0373 37.1243 32.8791 35.0697 32.7127 32.4728Z" fill="#CB4B01"/>
<path d="M37.6764 34.1905C38.8016 34.1905 39.7169 33.2751 39.7169 32.1499C39.7169 31.0247 38.8015 30.1094 37.6764 30.1094C36.5513 30.1094 35.6359 31.0247 35.6359 32.1499C35.6359 33.2751 36.5513 34.1905 37.6764 34.1905Z" fill="#FCFCFD"/>
<path d="M37.6763 34.5987C39.0261 34.5987 40.1241 33.5006 40.1241 32.1508C40.1241 30.8011 39.0261 29.7031 37.6763 29.7031C36.3266 29.7031 35.2287 30.8011 35.2287 32.1508C35.2287 33.5006 36.3267 34.5987 37.6763 34.5987ZM37.6763 30.5175C38.577 30.5175 39.3097 31.2503 39.3097 32.1509C39.3097 33.0516 38.577 33.7843 37.6763 33.7843C36.7758 33.7843 36.043 33.0516 36.043 32.1509C36.043 31.2502 36.7758 30.5175 37.6763 30.5175Z" fill="#983801"/>
</g>
</svg>
