<svg width="120" height="120" viewBox="0 0 120 120" fill="none" xmlns="http://www.w3.org/2000/svg">
<g id="vuesax/bold/trash">
<g id="trash">
<path id="Vector" d="M105.35 26.15C97.2998 25.35 89.2498 24.75 81.1498 24.3V24.25L80.0498 17.75C79.2998 13.15 78.1998 6.25 66.4998 6.25H53.3998C41.7498 6.25 40.6498 12.85 39.8498 17.7L38.7998 24.1C34.1498 24.4 29.4998 24.7 24.8498 25.15L14.6498 26.15C12.5498 26.35 11.0498 28.2 11.2498 30.25C11.4498 32.3 13.2498 33.8 15.3498 33.6L25.5498 32.6C51.7498 30 78.1498 31 104.65 33.65C104.8 33.65 104.9 33.65 105.05 33.65C106.95 33.65 108.6 32.2 108.8 30.25C108.95 28.2 107.45 26.35 105.35 26.15Z" fill="#F04438"/>
<path id="Vector_2" d="M96.1502 40.7C94.9502 39.45 93.3002 38.75 91.6002 38.75H28.4002C26.7002 38.75 25.0002 39.45 23.8502 40.7C22.7002 41.95 22.0502 43.65 22.1502 45.4L25.2502 96.7C25.8002 104.3 26.5002 113.8 43.9502 113.8H76.0502C93.5002 113.8 94.2002 104.35 94.7502 96.7L97.8502 45.45C97.9502 43.65 97.3002 41.95 96.1502 40.7ZM68.3002 88.75H51.6502C49.6002 88.75 47.9002 87.05 47.9002 85C47.9002 82.95 49.6002 81.25 51.6502 81.25H68.3002C70.3502 81.25 72.0502 82.95 72.0502 85C72.0502 87.05 70.3502 88.75 68.3002 88.75ZM72.5002 68.75H47.5002C45.4502 68.75 43.7502 67.05 43.7502 65C43.7502 62.95 45.4502 61.25 47.5002 61.25H72.5002C74.5502 61.25 76.2502 62.95 76.2502 65C76.2502 67.05 74.5502 68.75 72.5002 68.75Z" fill="#F04438"/>
</g>
</g>
</svg>
