<svg width="59" height="54" viewBox="0 0 59 54" fill="none" xmlns="http://www.w3.org/2000/svg">
<g id="MobileArtboard 21 3" clip-path="url(#clip0_7562_50916)">
<g id="Group">
<g id="Layer 1">
<g id="Group_2">
<g id="Group_3">
<g id="Group_4">
<g id="Group_5">
<path id="Vector" d="M13.0908 10.0596L12.516 18.9696L12.4846 19.466L11.0179 42.2087H2.92314C1.70553 42.2087 0.695209 41.1374 0.771854 39.9285L2.10618 19.2465L2.13927 18.7466L2.2525 17.0064L2.28908 16.4455L2.58695 11.8189C2.6514 10.8121 3.45966 10.0596 4.47347 10.0596H13.0926H13.0908Z" fill="#0573FF"/>
<path id="Vector_2" d="M30.1479 12.338L28.8223 32.8789L28.3345 40.4494C28.2701 41.4545 27.4618 42.2087 26.4463 42.2087H8.98686C7.76924 42.2087 6.75718 41.1392 6.83557 39.9303L8.65066 11.8189C8.71512 10.8121 9.52337 10.0596 10.5389 10.0596H27.9983C29.216 10.0596 30.2263 11.1309 30.1496 12.338H30.1479Z" fill="#02B6FF"/>
<g id="Group_6">
<path id="Vector_3" d="M13.0341 15.6943L11.6788 36.6777C11.6492 37.1288 11.2747 37.4807 10.8218 37.4807C10.3254 37.4807 9.93342 37.0609 9.96477 36.5662L11.3183 15.5828C11.3479 15.1317 11.7224 14.7798 12.1753 14.7798C12.6717 14.7798 13.0637 15.1996 13.0323 15.6943H13.0341Z" fill="#0573FF"/>
<path id="Vector_4" d="M16.5809 15.6943L15.2257 36.6777C15.1961 37.1288 14.8216 37.4807 14.3687 37.4807C13.8722 37.4807 13.4803 37.0609 13.5116 36.5662L14.8651 15.5828C14.8947 15.1317 15.2693 14.7798 15.7222 14.7798C16.2186 14.7798 16.6105 15.1996 16.5792 15.6943H16.5809Z" fill="#0573FF"/>
<path id="Vector_5" d="M20.1288 15.6943L18.7736 36.6777C18.744 37.1288 18.3695 37.4807 17.9166 37.4807C17.4201 37.4807 17.0282 37.0609 17.0596 36.5662L18.413 15.5828C18.4427 15.1317 18.8172 14.7798 19.2701 14.7798C19.7665 14.7798 20.1585 15.1996 20.1271 15.6943H20.1288Z" fill="#0573FF"/>
<path id="Vector_6" d="M23.6748 15.6943L22.3196 36.6777C22.29 37.1288 21.9155 37.4807 21.4626 37.4807C20.9661 37.4807 20.5742 37.0609 20.6055 36.5662L21.959 15.5828C21.9886 15.1317 22.3631 14.7798 22.816 14.7798C23.3125 14.7798 23.7044 15.1996 23.6731 15.6943H23.6748Z" fill="#0573FF"/>
<path id="Vector_7" d="M27.2232 15.6943L25.868 36.6777C25.8384 37.1288 25.4639 37.4807 25.011 37.4807C24.5145 37.4807 24.1226 37.0609 24.1539 36.5662L25.5074 15.5828C25.537 15.1317 25.9115 14.7798 26.3644 14.7798C26.8609 14.7798 27.2528 15.1996 27.2215 15.6943H27.2232Z" fill="#0573FF"/>
</g>
<path id="Vector_8" d="M20.0572 10.0593H18.8413L19.1148 5.82641C19.1636 5.0617 18.5574 4.4137 17.7909 4.4137H10.8754C10.3947 4.4137 9.99577 4.78648 9.96441 5.26725L9.65435 10.0593H8.43848L8.76944 4.91887C8.83215 3.95558 9.62996 3.20654 10.595 3.20654H19.0817C19.8482 3.20654 20.4561 3.85454 20.4056 4.61925L20.0554 10.0576L20.0572 10.0593Z" fill="#112130"/>
<g id="Group_7">
<path id="Vector_9" d="M6.97866 45.5416C7.05879 46.7749 6.72085 47.8514 6.15124 48.4297C5.87079 48.7136 5.5346 48.8756 5.16356 48.8756C4.04001 48.8756 3.03318 47.3828 2.91298 45.5416C2.79279 43.7004 3.60453 42.2075 4.72808 42.2075C5.09911 42.2075 5.45621 42.3695 5.77498 42.6535C6.4195 43.2318 6.89853 44.3083 6.9804 45.5416H6.97866Z" fill="#112130"/>
<path id="Vector_10" d="M9.01185 45.5416C9.13204 47.3828 8.31856 48.8756 7.19675 48.8756H5.16391C5.53494 48.8756 5.87114 48.7136 6.15159 48.4297C6.7212 47.8514 7.05914 46.7749 6.97901 45.5416C6.89888 44.3083 6.41985 43.23 5.77359 42.6535C5.45656 42.3695 5.09772 42.2075 4.72668 42.2075H6.75952C7.88133 42.2075 8.88991 43.7004 9.0101 45.5416H9.01185Z" fill="#223544"/>
<path id="Vector_11" d="M6.00804 45.5391C6.04985 46.1836 5.87391 46.7462 5.57604 47.0493C5.42972 47.1974 5.25378 47.2828 5.05868 47.2828C4.47165 47.2828 3.94385 46.5024 3.88114 45.5391C3.81843 44.5758 4.24346 43.7954 4.83049 43.7954C5.02385 43.7954 5.21198 43.8808 5.37746 44.0288C5.71539 44.3302 5.96449 44.8946 6.00804 45.5391Z" fill="#223544"/>
</g>
<g id="Group_8">
<path id="Vector_12" d="M21.4936 45.5416C21.5737 46.7749 21.2357 47.8514 20.6661 48.4297C20.3857 48.7136 20.0495 48.8756 19.6785 48.8756C18.5549 48.8756 17.5481 47.3828 17.4279 45.5416C17.3077 43.7004 18.1194 42.2075 19.243 42.2075C19.614 42.2075 19.9711 42.3695 20.2899 42.6535C20.9344 43.2318 21.4134 44.3083 21.4953 45.5416H21.4936Z" fill="#112130"/>
<path id="Vector_13" d="M23.5275 45.5416C23.6477 47.3828 22.8342 48.8756 21.7124 48.8756H19.6796C20.0506 48.8756 20.3868 48.7136 20.6673 48.4297C21.2369 47.8514 21.5748 46.7749 21.4947 45.5416C21.4146 44.3083 20.9355 43.23 20.2893 42.6535C19.9722 42.3695 19.6134 42.2075 19.2424 42.2075H21.2752C22.397 42.2075 23.4056 43.7004 23.5258 45.5416H23.5275Z" fill="#223544"/>
<path id="Vector_14" d="M20.5247 45.5391C20.5665 46.1836 20.3906 46.7462 20.0927 47.0493C19.9464 47.1974 19.7704 47.2828 19.5753 47.2828C18.9883 47.2828 18.4605 46.5024 18.3978 45.5391C18.3351 44.5758 18.7601 43.7954 19.3472 43.7954C19.5405 43.7954 19.7286 43.8808 19.8941 44.0288C20.2321 44.3302 20.4812 44.8946 20.5247 45.5391Z" fill="#223544"/>
</g>
<path id="Vector_15" d="M20.7621 6.37378H18.6126L18.6613 5.62823C18.6875 5.22236 18.3652 4.8792 17.9593 4.8792H11.1187C10.7477 4.8792 10.4394 5.16662 10.4167 5.53765L10.3627 6.37552H8.2132L8.31771 4.75552C8.39087 3.62675 9.32803 2.74707 10.4603 2.74707H18.7101C19.9504 2.74707 20.9311 3.79397 20.8527 5.03249L20.7656 6.37552L20.7621 6.37378Z" fill="#223544"/>
</g>
<g id="Clip path group">
<mask id="mask0_7562_50916" style="mask-type:luminance" maskUnits="userSpaceOnUse" x="6" y="10" width="25" height="33">
<g id="clippath">
<path id="Vector_16" d="M30.1469 12.339L28.8213 32.8799L28.3336 40.4504C28.2691 41.4555 27.4608 42.2097 26.4453 42.2097H8.98588C7.76827 42.2097 6.7562 41.1402 6.83459 39.9313L8.64969 11.8199C8.71414 10.8131 9.5224 10.0605 10.5379 10.0605H27.9974C29.215 10.0605 30.2253 11.1318 30.1487 12.339H30.1469Z" fill="white"/>
</g>
</mask>
<g mask="url(#mask0_7562_50916)">
<g id="Group_9">
<path id="Vector_17" d="M37.5321 33.4996C44.0043 31.5911 47.5325 24.2158 45.4125 17.0266C43.2925 9.83738 36.3271 5.55656 29.8549 7.46513C23.3827 9.3737 19.8545 16.7489 21.9745 23.9381C24.0945 31.1274 31.0598 35.4082 37.5321 33.4996Z" fill="#112130"/>
</g>
</g>
</g>
<path id="Vector_18" d="M29.2074 26.9023L28.8224 32.8789L28.3346 40.4494C28.2702 41.4545 27.4619 42.2087 26.4464 42.2087H23.2116L24.154 26.9041H29.2074V26.9023Z" fill="#112130"/>
<g id="Group_10">
<path id="Vector_19" d="M47.5008 29.9074H45.9348L46.1717 26.4462C46.1995 26.0456 45.8808 25.7059 45.4801 25.7059H40.5051C40.1411 25.7059 39.838 25.9881 39.8136 26.3521L39.5697 29.9092H38.0037L38.2737 25.955C38.3434 24.9412 39.1865 24.1538 40.202 24.1538H45.825C46.9451 24.1538 47.83 25.1014 47.7533 26.218L47.5008 29.9092V29.9074Z" fill="#223544"/>
<path id="Vector_20" d="M40.022 28.8965H37.6895C37.3917 28.8965 37.1443 29.1247 37.1199 29.4225L37.0363 30.4729H40.515L40.5916 29.5131C40.6177 29.1804 40.3547 28.8965 40.022 28.8965Z" fill="#112130"/>
<path id="Vector_21" d="M47.9641 28.8965H45.7362C45.4104 28.8965 45.1404 29.1456 45.1143 29.4713L45.0342 30.4729H48.5128L48.5842 29.5689C48.6121 29.2065 48.3264 28.8965 47.9624 28.8965H47.9641Z" fill="#112130"/>
<path id="Vector_22" d="M56.6397 31.4329L56.1485 38.6114L56.1119 39.1462L55.8436 43.0638L55.8053 43.6195L55.551 47.3472C55.4918 48.2095 54.7758 48.8784 53.9118 48.8784H32.1307C31.3468 48.8784 30.7284 48.2147 30.7807 47.4326L31.8224 32.2028L33.6287 29.9087H55.2148C56.0422 29.9087 56.6954 30.6072 56.638 31.4329H56.6397Z" fill="#AFA5FF"/>
<path id="Vector_23" d="M31.9785 29.9087L30.6825 48.8784H26.5959C25.8539 48.8784 25.2668 48.2495 25.3174 47.5092L26.4305 31.2186C26.481 30.4818 27.0941 29.9087 27.8327 29.9087H31.9785Z" fill="#6D69B5"/>
<path id="Vector_24" d="M31.8212 32.2046C31.8107 32.2046 31.802 32.2046 31.7915 32.2046C31.0948 32.2046 30.5443 31.6123 30.5931 30.9173L30.6035 30.7831C30.6384 30.2902 31.0495 29.9087 31.5425 29.9087H33.1712L31.8212 32.2028V32.2046Z" fill="#112130"/>
<g id="Clip path group_2">
<mask id="mask1_7562_50916" style="mask-type:luminance" maskUnits="userSpaceOnUse" x="30" y="29" width="27" height="20">
<g id="clippath-1">
<path id="Vector_25" d="M56.6379 31.4295L55.5492 47.3438C55.49 48.206 54.774 48.875 53.91 48.875H32.1306C31.3467 48.875 30.7284 48.2113 30.7806 47.4291L31.8223 32.1994L33.6287 29.9053H55.2165C56.0422 29.9053 56.6954 30.6038 56.6396 31.4277L56.6379 31.4295Z" fill="white"/>
</g>
</mask>
<g mask="url(#mask1_7562_50916)">
<g id="Group_11">
<path id="Vector_26" d="M48.6256 50.2115C47.1328 50.2115 45.2341 49.4363 43.4921 46.4227C43.2988 46.0883 43.1176 45.7382 42.9487 45.3741C42.5828 45.7556 42.2049 46.1196 41.8181 46.4611C39.8619 48.1891 37.8117 49.2429 36.0419 49.4293C34.34 49.6087 32.8785 49.006 31.8142 47.6891L31.7794 47.6421C30.6192 45.8706 30.2447 43.505 30.3719 41.1516C29.3912 41.3955 28.4105 41.4826 27.4942 41.392L27.6109 40.2145C28.5237 40.3051 29.5114 40.1866 30.4886 39.894C30.6576 38.5753 30.9728 37.2967 31.3805 36.1662C32.0581 34.1804 33.6188 31.672 35.0629 30.8951C36.0941 30.2942 36.8048 30.5624 37.1376 30.7784C37.7978 31.2052 38.12 32.1302 37.9998 33.252V33.2624C37.7019 35.6245 36.3258 37.8037 34.124 39.3958C33.3349 39.9671 32.4744 40.4287 31.593 40.7667C31.4066 43.0173 31.6905 45.3236 32.7548 46.968C33.5631 47.9557 34.6274 48.3894 35.9199 48.2518C37.4459 48.0915 39.2627 47.1404 41.036 45.5744C41.5272 45.1407 42.0045 44.6669 42.4592 44.1687C41.907 42.6218 41.569 40.8886 41.4819 39.1049C41.3478 36.3787 41.8112 33.7084 42.7849 31.5867L42.7919 31.5727C43.3772 30.376 44.4293 29.0243 45.6208 28.8205C46.0476 28.7473 46.6851 28.7874 47.3 29.3936L47.3331 29.4284C48.3173 30.5659 48.3713 32.5935 48.2441 34.0951C48.0525 36.3091 47.3436 38.6886 46.2496 40.7963C45.6278 42.0226 44.7864 43.2681 43.8196 44.4108C44.0252 44.9073 44.2586 45.3828 44.5181 45.8305C45.9117 48.2413 47.4986 49.2987 49.2318 48.9729C50.6463 48.7064 52.1513 47.5341 53.5152 45.6458C52.0032 44.3551 50.8762 43.0207 50.0488 41.5523C48.4253 38.915 48.1553 35.4869 49.3903 33.2102C50.1638 31.7853 51.4493 30.9787 53.0101 30.9404C55.0325 30.8673 56.8998 32.2399 57.553 34.2815C57.9467 35.4468 58.0112 36.8822 57.7464 38.5475C57.4067 40.7615 56.4243 43.2977 55.0987 45.4089C55.5028 45.7208 55.933 46.0326 56.3912 46.3426L55.7257 47.3198C55.2711 47.0098 54.8409 46.6997 54.435 46.3896C52.9003 48.4956 51.1479 49.816 49.4496 50.1348C49.1935 50.1836 48.9183 50.2115 48.6274 50.2115H48.6256ZM53.1616 32.1197C53.1233 32.1197 53.085 32.1197 53.0467 32.1215H53.0379C51.6008 32.1546 50.8239 33.0377 50.425 33.7728C49.3973 35.668 49.6621 38.6816 51.0556 40.9409L51.0678 40.9618C51.8064 42.2752 52.815 43.4806 54.1702 44.6547C55.3739 42.702 56.2623 40.3869 56.5723 38.3646C56.8075 36.8856 56.757 35.6384 56.426 34.6542L56.4225 34.6438C55.9435 33.1422 54.6127 32.1197 53.1599 32.1197H53.1616ZM43.8527 32.0866C42.4087 35.2395 42.2728 39.5526 43.351 43.1096C44.0739 42.1898 44.7045 41.2178 45.1923 40.2563C46.2183 38.2775 46.8819 36.0547 47.0614 33.9923C47.2112 32.2347 46.9882 30.862 46.4499 30.2193C46.1799 29.9632 45.9709 29.9597 45.8159 29.9858C45.2167 30.0886 44.4101 30.9509 43.8527 32.0849V32.0866ZM36.2666 31.7086C36.0488 31.7086 35.8032 31.8306 35.6499 31.9194L35.6273 31.9316C34.4898 32.536 33.0893 34.8075 32.4953 36.5512L32.4918 36.5617C32.1818 37.4204 31.9257 38.3924 31.7585 39.4062C34.2703 38.2409 36.4652 35.952 36.8223 33.1178C36.9007 32.3827 36.7143 31.9107 36.4948 31.7696C36.4268 31.726 36.3485 31.7086 36.2666 31.7086Z" fill="#C3C0FF"/>
</g>
</g>
</g>
<path id="Vector_27" d="M39.5557 29.9087L38.2579 48.8784H35.6189L36.9149 29.9087H39.5557Z" fill="#6D69B5"/>
<path id="Vector_28" d="M52.1433 29.9087L50.8455 48.8784H48.2083L49.5042 29.9087H52.1433Z" fill="#6D69B5"/>
<path id="Vector_29" d="M31.8216 32.2046L31.9104 30.9748C31.954 30.3738 32.4539 29.9087 33.0549 29.9087H33.9328L33.9067 30.2745C33.8266 31.3789 32.9364 32.2028 31.8216 32.2028V32.2046Z" fill="#223544"/>
<path id="Vector_30" d="M56.5988 32.2028C55.5676 32.2028 54.7175 31.2953 54.7907 30.2745L54.8168 29.9087H55.3272C56.1023 29.9087 56.7155 30.5671 56.6597 31.3406L56.597 32.2028H56.5988Z" fill="#223544"/>
<path id="Vector_31" d="M53.9867 48.8762H53.4972L53.5233 48.5103C53.6034 47.406 54.4936 46.582 55.6084 46.582L55.5474 47.4234C55.4882 48.2421 54.8071 48.8762 53.9849 48.8762H53.9867Z" fill="#223544"/>
<path id="Vector_32" d="M32.3041 48.8762H30.266C29.7783 48.8762 29.3933 48.4616 29.4282 47.9756L29.4351 47.8902C29.4891 47.1412 30.0936 46.582 30.8478 46.582L32.3058 48.8762H32.3041Z" fill="#112130"/>
<path id="Vector_33" d="M32.6276 48.8759H32.0841C31.3264 48.8759 30.7289 48.2332 30.7829 47.4772L30.8473 46.5801C31.8785 46.5801 32.7286 47.4876 32.6555 48.5084L32.6293 48.8742L32.6276 48.8759Z" fill="#223544"/>
<path id="Vector_34" d="M26.3574 32.2046L26.4323 31.1733C26.4828 30.4609 27.0768 29.9087 27.791 29.9087H27.8433L27.7719 30.8964C27.7179 31.6454 27.1134 32.2046 26.3592 32.2046H26.3574Z" fill="#112130"/>
<path id="Vector_35" d="M26.5432 48.8759C25.8308 48.8759 25.2664 48.2715 25.3187 47.559L25.3883 46.5801C26.0869 46.5801 26.6634 47.195 26.6147 47.8883L26.5432 48.8759Z" fill="#112130"/>
</g>
<g id="Group_12">
<path id="Vector_36" d="M37.9677 29.1017C31.7473 31.7129 24.3528 28.2272 21.4507 21.3152C21.0919 20.46 20.8184 19.5925 20.6268 18.7232C20.5902 18.5612 20.5588 18.3992 20.5292 18.2355C19.4179 12.2467 22.1562 6.3015 27.4639 4.07357C33.6861 1.46241 41.0806 4.94802 43.9809 11.8583C46.8812 18.7703 44.1899 26.4888 37.9677 29.1V29.1017Z" fill="#FF70FE"/>
<g id="Clip path group_3">
<mask id="mask2_7562_50916" style="mask-type:luminance" maskUnits="userSpaceOnUse" x="20" y="3" width="26" height="27">
<g id="clippath-2">
<path id="Vector_37" d="M37.9682 29.0976C44.1901 26.486 46.8823 18.7662 43.9814 11.8551C41.0805 4.94394 33.685 1.45847 27.4631 4.07009C21.2412 6.6817 18.549 14.4014 21.4499 21.3126C24.3508 28.2237 31.7463 31.7092 37.9682 29.0976Z" fill="white"/>
</g>
</mask>
<g mask="url(#mask2_7562_50916)">
<g id="Group_13">
<path id="Vector_38" d="M49.7254 12.1301L51.7025 13.2048L45.8844 23.9056L43.9073 22.8308L49.7254 12.1301ZM43.9073 7.39027L45.8844 8.46504L48.9781 2.77588H46.4175L43.9091 7.39027H43.9073ZM39.6657 12.4767L40.4618 14.581L51.0423 10.578L50.2462 8.47375L39.6657 12.4767ZM43.1478 5.09614L41.2091 3.95517L36.5407 11.8827L38.4795 13.0237L43.1478 5.09614ZM51.4673 5.35046L52.455 7.37285L54.3764 6.43394V3.92904L51.4656 5.3522L51.4673 5.35046ZM54.2144 17.1921L54.3781 17.159V9.41265L52.6745 9.76627L54.2161 17.1921H54.2144ZM45.5413 35.2699H48.1019L51.7025 28.6471L49.7254 27.5723L45.5395 35.2699H45.5413ZM39.6657 27.919L40.4618 30.0232L51.0423 26.0203L50.2462 23.916L39.6657 27.919ZM51.4673 20.791L52.455 22.8134L54.3764 21.8745V19.3696L51.4656 20.7927L51.4673 20.791ZM54.2144 32.6344L54.3781 32.6013V24.8549L52.6745 25.2085L54.2161 32.6344H54.2144ZM40.9548 35.2699H41.9424L41.2091 34.8379L40.9548 35.2699ZM53.4392 35.2699H54.3781V34.8118L53.4392 35.2699ZM44.74 32.1275L43.7523 30.1051L33.1892 35.2682H38.3122L44.74 32.1257V32.1275ZM23.6556 22.8308L25.6327 23.9056L31.4508 13.2048L29.4737 12.1301L23.6556 22.8308ZM23.6556 7.39027L25.6327 8.46504L28.7264 2.77588H26.1657L23.6573 7.39027H23.6556ZM19.4157 12.4767L20.2118 14.581L30.7923 10.578L29.9962 8.47375L19.4157 12.4767ZM16.2889 11.8827L18.2277 13.0237L22.8961 5.09614L20.9573 3.95517L16.2889 11.8827ZM36.4815 2.77588L31.2156 5.35046L32.2033 7.37285L41.6045 2.77762H36.4815V2.77588ZM34.6263 9.30814L32.4228 9.76452L33.9644 17.1904L36.1679 16.734L34.6263 9.30814ZM31.4508 28.6471L29.4737 27.5723L25.2878 35.2699H27.8484L31.449 28.6471H31.4508ZM43.1478 20.5384L41.2091 19.3974L36.5407 27.325L38.4795 28.4659L43.1478 20.5384ZM30.7906 26.0203L29.9945 23.916L19.414 27.919L20.21 30.0232L30.7906 26.0203ZM32.205 22.8134L44.74 16.6852L43.7523 14.6628L31.2173 20.791L32.205 22.8134ZM33.9644 32.6344L36.1679 32.178L34.6263 24.7521L32.4228 25.2085L33.9644 32.6344ZM20.703 35.2699H21.6907L20.9573 34.8379L20.703 35.2699ZM24.4882 32.1275L23.5006 30.1051L12.9375 35.2682H18.0605L24.4882 32.1257V32.1275ZM3.40385 7.39027L5.38094 8.46504L8.47462 2.77588H5.91397L3.40559 7.39027H3.40385ZM9.74275 8.47375L0.27533 12.0569V14.4625L10.5406 10.5797L9.74449 8.47549L9.74275 8.47375ZM0.705588 3.95343L0.27533 4.68504V9.12001L2.64436 5.09614L0.705588 3.95517V3.95343ZM16.2297 2.77588L10.9638 5.35046L11.9515 7.37285L21.3528 2.77762H16.2297V2.77588ZM14.3746 9.30814L12.171 9.76452L13.7126 17.1904L15.9162 16.734L14.3746 9.30814ZM0.27533 2.77588V3.18001L1.10275 2.77588H0.27533ZM11.199 28.6471L9.22191 27.5723L5.03604 35.2699H7.59668L11.1973 28.6471H11.199ZM22.8961 20.5384L20.9573 19.3974L16.2889 27.325L18.2277 28.4659L22.8961 20.5384ZM11.199 13.2048L9.22191 12.1301L3.40385 22.8308L5.38094 23.9056L11.199 13.2048ZM9.74275 23.916L0.27533 27.4974V29.903L10.5406 26.0203L9.74449 23.916H9.74275ZM0.705588 19.3957L0.27533 20.1273V24.5623L2.64436 20.5384L0.705588 19.3974V19.3957ZM11.9533 22.8134L24.4882 16.6852L23.5006 14.6628L10.9656 20.791L11.9533 22.8134ZM13.7126 32.6344L15.9162 32.178L14.3746 24.7521L12.171 25.2085L13.7126 32.6344ZM0.27533 18.6223L4.23649 16.6852L3.24881 14.6628L0.27533 16.1174V18.6223ZM1.43894 35.2699L0.705588 34.8379L0.451265 35.2699H1.43894ZM0.27533 34.0645L4.23649 32.1275L3.24881 30.1051L0.27533 31.5596V34.0645Z" fill="#918DE0"/>
</g>
</g>
</g>
<g id="Vector_39" style="mix-blend-mode:darken">
<path d="M39.1763 20.0663C40.5898 15.1692 38.8575 10.3687 35.3072 9.34399C31.7569 8.31925 27.733 11.4583 26.3196 16.3554C24.9061 21.2524 26.6384 26.0529 30.1887 27.0776C33.739 28.1024 37.7629 24.9633 39.1763 20.0663Z" fill="#C153C4"/>
</g>
<path id="Vector_40" d="M36.4832 22.7541C39.7378 21.388 41.1278 17.3063 39.5878 13.6374C38.0478 9.96847 34.161 8.10169 30.9063 9.46782C27.6517 10.8339 26.2617 14.9156 27.8017 18.5846C29.3417 22.2535 33.2285 24.1203 36.4832 22.7541Z" fill="#112130"/>
<path id="Vector_41" d="M36.615 21.951C39.4279 20.7703 40.6008 17.1748 39.2346 13.9201C37.8685 10.6655 34.4807 8.98419 31.6678 10.1649C28.8549 11.3456 27.6821 14.9412 29.0482 18.1958C30.4144 21.4505 33.8021 23.1317 36.615 21.951Z" fill="#C153C4"/>
<path id="Vector_42" d="M37.4445 21.2097C40.0897 20.0994 41.206 16.75 39.9378 13.7286C38.6696 10.7073 35.4972 9.15806 32.8519 10.2684C30.2067 11.3787 29.0904 14.7281 30.3586 17.7495C31.6268 20.7708 34.7993 22.32 37.4445 21.2097Z" fill="#FCA1FF"/>
</g>
</g>
<g id="Group_14">
<path id="Vector_43" d="M41.1029 29.9017H41.2788C41.5175 29.9017 41.7091 29.677 41.6464 29.4331C41.4774 28.7747 41.4583 28.6928 41.5419 28.4472C41.6185 28.2539 41.8467 28.1546 42.0157 28.0588C42.6097 27.7313 43.6339 26.977 43.6339 26.977L43.5921 25.8047C43.5921 25.8047 43.5259 25.8569 43.4179 25.9406V26.9021C43.4179 26.9021 42.3937 27.6564 41.7997 27.9839C41.6307 28.0797 41.4043 28.1772 41.3259 28.3723C41.2423 28.6197 41.3816 29.0499 41.4722 29.4331C41.5227 29.6474 41.3851 29.846 41.19 29.8913C41.1621 29.8982 41.1343 29.9017 41.1046 29.9017H41.1029Z" fill="#BA6500"/>
<g id="Group_15">
<g id="Group_16">
<path id="Vector_44" d="M50.0491 29.8718H50.225C50.4637 29.8718 50.6553 29.6471 50.5926 29.4032C50.4236 28.7447 50.4045 28.6629 50.4881 28.4172C50.5647 28.2239 50.7929 28.1246 50.9619 28.0288C50.9776 28.0201 50.995 28.0114 51.0159 28.0027C51.0995 27.9661 51.2267 27.9243 51.3869 27.879C52.2753 27.6264 54.1827 27.2606 55.3812 27.0394C56.003 26.9244 56.4333 26.8495 56.4333 26.8495L56.395 25.7817C56.3671 25.7695 56.3375 25.7573 56.3044 25.7451C56.28 25.7643 56.2504 25.7869 56.2156 25.8148V26.7763C56.2156 26.7763 55.8846 26.8338 55.3829 26.9261C54.2803 27.1265 52.3589 27.4905 51.3486 27.7571C51.197 27.7971 51.0664 27.8337 50.9619 27.8703C50.8643 27.9016 50.7894 27.9312 50.7424 27.9574C50.5734 28.0532 50.347 28.1507 50.2686 28.3458C50.185 28.5932 50.3243 29.0234 50.4149 29.4067C50.4654 29.6209 50.3278 29.8195 50.1327 29.8648C50.1048 29.8718 50.077 29.8752 50.0474 29.8752L50.0491 29.8718Z" fill="#EA8B0F"/>
<path id="Vector_45" d="M49.8596 29.8424L49.9676 29.865C49.9955 29.8703 50.0216 29.8737 50.0477 29.8737C50.0774 29.8737 50.107 29.8703 50.1331 29.8633C50.3282 29.8163 50.4658 29.6194 50.4153 29.4052C50.3247 29.0219 50.1853 28.5917 50.269 28.3443C50.3456 28.151 50.5738 28.0517 50.7428 27.9559C50.7776 27.9367 50.8281 27.9158 50.8926 27.8932C50.9117 27.8862 50.9326 27.8775 50.9553 27.8705C50.9553 27.8705 50.9588 27.8705 50.9605 27.8705C50.9727 27.8653 50.9866 27.8618 51.0006 27.8566C51.0145 27.8514 51.0284 27.8479 51.0441 27.8426C51.1312 27.8148 51.234 27.7869 51.3472 27.7573C51.4552 27.7294 51.5719 27.6998 51.6991 27.6702C51.7304 27.6632 51.7635 27.6545 51.7984 27.6475C51.8489 27.6354 51.8994 27.6249 51.9517 27.6127C51.9795 27.6057 52.0074 27.5988 52.037 27.5935C52.1677 27.5639 52.3035 27.5343 52.4446 27.503C52.483 27.496 52.5213 27.4873 52.5596 27.4786C52.5979 27.4699 52.6363 27.4629 52.6763 27.4542C52.7112 27.4472 52.7443 27.4403 52.7791 27.4333C52.8244 27.4246 52.8697 27.4141 52.915 27.4054C52.955 27.3967 52.9933 27.3897 53.0334 27.381C53.0526 27.3758 53.0735 27.3723 53.0944 27.3688C53.1257 27.3619 53.1588 27.3549 53.1919 27.3497C53.401 27.3061 53.6135 27.2643 53.8225 27.2243C53.8626 27.2173 53.9026 27.2086 53.9427 27.2016C54.0437 27.1825 54.143 27.1633 54.2406 27.1441C54.2789 27.1372 54.3172 27.1284 54.3555 27.1215C54.5141 27.0919 54.6656 27.0623 54.8119 27.0361C54.845 27.0292 54.8781 27.0239 54.9095 27.0187C54.9426 27.0117 54.9757 27.0065 55.0088 26.9995C55.0784 26.9874 55.1481 26.9752 55.2126 26.9612C55.2701 26.9508 55.3275 26.9403 55.3815 26.9299C55.4913 26.909 55.5941 26.8915 55.6864 26.8741C55.7108 26.8689 55.7352 26.8654 55.7595 26.8602C55.8066 26.8515 55.8501 26.8445 55.8902 26.8375C55.9111 26.8341 55.9302 26.8306 55.9494 26.8271C55.9686 26.8236 55.986 26.8201 56.0034 26.8184C56.0278 26.8132 56.0522 26.8097 56.0731 26.8062C56.0835 26.8045 56.094 26.8027 56.1044 26.801C56.1201 26.7975 56.1358 26.7957 56.1497 26.794C56.1532 26.794 56.1567 26.794 56.1619 26.7923C56.1985 26.7853 56.2159 26.7835 56.2159 26.7835V25.7262C56.1933 25.7192 56.1689 25.7123 56.1445 25.707C55.8867 25.7767 54.96 26.0328 53.9253 26.3359C53.0108 26.6041 52.0126 26.909 51.3159 27.1581C51.1068 27.233 50.9257 27.3026 50.7811 27.3654C50.6278 27.4315 50.5163 27.489 50.4588 27.5343C50.3195 27.6458 50.1296 27.7765 50.0355 27.928C49.9171 28.0917 49.8666 28.2921 49.8422 28.4889C49.7986 28.7641 49.7516 29.2536 49.6924 29.602C49.6732 29.717 49.7481 29.825 49.8613 29.8494L49.8596 29.8424Z" fill="#EA8B0F"/>
</g>
<path id="Vector_46" d="M50.0999 26.95C50.3403 26.997 50.3629 27.1398 50.3629 27.1398C50.3629 27.1398 50.8942 28.7807 51.3593 29.4235C51.6607 29.8364 52.3557 29.9165 53.042 29.8973C52.4777 29.8816 51.9516 29.7684 51.7025 29.4235C51.2357 28.7807 50.7061 27.1398 50.7061 27.1398C50.7061 27.1398 50.673 26.936 50.2706 26.936C50.2044 26.936 50.1469 26.9413 50.0999 26.9517V26.95Z" fill="#EA8B0F"/>
<path id="Vector_47" d="M43.765 25.8052H43.4218V26.9026H43.765V25.8052Z" fill="#EA8B0F"/>
<path id="Vector_48" d="M43.4218 25.8029H43.765C44.1482 25.5817 45.3641 25.5364 45.925 25.5277C45.9076 25.5277 45.8884 25.5277 45.871 25.526C45.871 25.526 43.927 25.5138 43.4236 25.8047L43.4218 25.8029Z" fill="#EA8B0F"/>
<path id="Vector_49" d="M43.4218 26.9009L43.7754 27.3311C43.7754 27.3311 44.2161 28.0244 44.3938 28.554C44.5697 29.0835 44.885 29.728 45.7438 29.8169C46.1427 29.8569 46.6618 29.9144 47.153 29.8988C46.7716 29.8883 46.3936 29.8482 46.087 29.8169C45.2282 29.728 44.9129 29.0835 44.737 28.554C44.5593 28.0244 44.1186 27.3311 44.1186 27.3311L43.765 26.9009H43.4218Z" fill="#EA8B0F"/>
<path id="Vector_50" d="M43.7643 25.8028V26.9003L44.1179 27.3305C44.1179 27.3305 44.5586 28.0238 44.7363 28.5534C44.9123 29.0829 45.2275 29.7274 46.0863 29.8163C46.3929 29.8476 46.7709 29.8877 47.1524 29.8981C47.8404 29.9173 48.5372 29.8389 48.8368 29.4243C49.3037 28.7816 49.8332 27.1407 49.8332 27.1407C49.8332 27.1407 49.8576 26.9978 50.098 26.9508C50.145 26.9421 50.2025 26.9351 50.2687 26.9351C50.6711 26.9351 50.7042 27.1389 50.7042 27.1389C50.7042 27.1389 50.7303 27.2208 50.7756 27.3549C50.8209 27.4856 50.8836 27.665 50.9603 27.867C50.9777 27.9106 50.9951 27.9559 51.0125 28.0029C51.2059 28.5011 51.4619 29.0934 51.7006 29.4243C51.9497 29.7692 52.4757 29.8807 53.0401 29.8981C53.4216 29.8877 53.8014 29.8476 54.1079 29.8145C54.965 29.7274 55.2803 29.0829 55.4579 28.5534C55.6339 28.0238 56.0763 27.3288 56.0763 27.3288L56.4299 26.9003V25.8028C56.4177 25.7959 56.4055 25.7889 56.3916 25.7819C56.3637 25.7698 56.3341 25.7576 56.301 25.7454C56.2732 25.7349 56.2435 25.7262 56.2122 25.7175C56.1895 25.7105 56.1652 25.7036 56.1408 25.6983C55.613 25.5659 54.7054 25.5346 54.2525 25.5276C52.6813 25.5781 51.3783 26.1077 51.0561 26.2314C50.7286 26.3568 50.267 26.3428 50.267 26.3428C50.267 26.3428 50.1973 26.3446 50.0945 26.3411C49.929 26.3341 49.6782 26.3097 49.4761 26.2331C49.1486 26.1077 47.8108 25.5642 46.2083 25.5259C46.2083 25.5259 46.0968 25.5259 45.9191 25.5276C45.3582 25.5363 44.1441 25.5816 43.7591 25.8028H43.7643ZM51.3139 27.1494C51.5229 26.8254 52.5419 26.3254 53.6237 26.3254C53.6916 26.3254 53.7543 26.3254 53.8153 26.3289C53.8519 26.3272 53.8885 26.3254 53.9233 26.3254C53.9372 26.3254 53.9512 26.3254 53.9651 26.3254C55.2942 26.3254 55.3586 26.787 55.3586 26.787C55.3743 26.8132 55.3813 26.8602 55.383 26.9247C55.383 26.9577 55.383 26.9978 55.3778 27.0396C55.3464 27.442 55.1618 28.1788 55.0329 28.4523C54.8657 28.8077 54.8343 29.0498 54.2055 29.1543C53.9024 29.2048 53.5244 29.2327 53.1795 29.2205H53.1743C52.6778 29.2379 52.1779 29.1874 51.9671 29.0185C51.772 28.8634 51.5264 28.3339 51.3835 27.8792C51.3696 27.8374 51.3574 27.7956 51.347 27.7556C51.2825 27.5256 51.2512 27.3288 51.2755 27.2278C51.2808 27.2034 51.293 27.1772 51.3121 27.1511L51.3139 27.1494ZM44.8374 26.787C44.8374 26.787 44.9001 26.3254 46.2309 26.3254C46.2814 26.3254 46.3319 26.3254 46.3824 26.3289C46.4434 26.3272 46.5061 26.3254 46.5741 26.3254C47.7481 26.3254 48.8473 26.9125 48.9205 27.226C48.9936 27.5396 48.5442 28.7659 48.2289 29.0167C48.0181 29.1857 47.5182 29.2362 47.0217 29.2188H47.0165C46.6716 29.231 46.2936 29.2031 45.9905 29.1526C45.3617 29.0481 45.3303 28.8059 45.1631 28.4506C44.9959 28.0952 44.7346 26.9525 44.8391 26.7853L44.8374 26.787Z" fill="#EBAC4B"/>
<g id="Group_17">
<path id="Vector_51" d="M45.1467 28.4205C45.1519 28.4309 45.1554 28.4414 45.1606 28.4518C45.3278 28.8072 45.3592 29.0493 45.988 29.1538C46.1378 29.1782 46.3068 29.1991 46.481 29.2096C46.6587 29.2218 46.8398 29.2252 47.014 29.22H47.0193C47.5157 29.2374 48.0156 29.1869 48.2264 29.018C48.5417 28.7671 48.9911 27.5408 48.918 27.2272C48.8936 27.121 48.7525 26.9834 48.5312 26.8492C48.1672 26.6263 47.5854 26.4103 46.9496 26.3458C46.8259 26.3336 46.7005 26.3267 46.5733 26.3267C46.5054 26.3267 46.4427 26.3267 46.3817 26.3301C46.3312 26.3267 46.2807 26.3267 46.2302 26.3267C44.9011 26.3267 44.8366 26.7883 44.8366 26.7883C44.7356 26.9503 44.9794 28.0355 45.1467 28.4222V28.4205Z" fill="#282828"/>
<path id="Vector_52" d="M51.9682 29.018C52.0327 29.0702 52.125 29.1103 52.2365 29.1416C52.4821 29.2113 52.8183 29.2322 53.1562 29.2218C53.1632 29.2218 53.1702 29.2218 53.1771 29.2218H53.1824C53.5273 29.2339 53.9053 29.2061 54.2084 29.1556C54.8372 29.051 54.8686 28.8089 55.0358 28.4536C55.203 28.0982 55.4661 26.9555 55.3598 26.7883C55.3598 26.7883 55.3563 26.7604 55.3302 26.7169C55.2727 26.6228 55.1072 26.459 54.6369 26.3772C54.4592 26.3458 54.2397 26.3267 53.9662 26.3267C53.9157 26.3267 53.8652 26.3267 53.8147 26.3301C53.7537 26.3284 53.691 26.3267 53.6231 26.3267C52.4508 26.3267 51.3499 26.9137 51.2767 27.2272C51.2035 27.5408 51.6547 28.7671 51.9682 29.018Z" fill="#282828"/>
</g>
<path id="Vector_53" d="M52.2372 29.1409C52.4828 29.2106 52.819 29.2315 53.1569 29.221L55.3309 26.7161C55.2734 26.6221 55.1079 26.4583 54.6376 26.3765L52.2372 29.1409Z" fill="#444444"/>
<path id="Vector_54" d="M45.1467 28.4221C45.152 28.4325 45.1554 28.443 45.1607 28.4534C45.3279 28.8088 45.3592 29.0509 45.9881 29.1554C46.1379 29.1798 46.3069 29.2007 46.4811 29.2112L48.5313 26.8491C48.1672 26.6262 47.5854 26.4102 46.9496 26.3457L45.1485 28.4203L45.1467 28.4221Z" fill="#444444"/>
<path id="Vector_55" d="M53.1817 29.2213C53.5266 29.2335 53.9046 29.2056 54.2077 29.1551C54.8365 29.0506 54.8679 28.8084 55.0351 28.4531C55.2023 28.0977 55.4654 26.955 55.3591 26.7878C55.3591 26.7878 55.2964 26.3262 53.9656 26.3262C53.9151 26.3262 53.8645 26.3262 53.814 26.3297C54.9585 26.3715 55.016 26.786 55.016 26.786C55.1205 26.9533 54.8592 28.0942 54.692 28.4513C54.5247 28.8067 54.4934 29.0488 53.8645 29.1533C53.6607 29.1882 53.4221 29.2108 53.1817 29.2195V29.2213Z" fill="#EA8B0F"/>
<path id="Vector_56" d="M47.8839 29.0175C47.7219 29.1464 47.3892 29.2073 47.0199 29.2195C47.5164 29.2369 48.0163 29.1864 48.2271 29.0175C48.5424 28.7666 48.9918 27.5403 48.9186 27.2268C48.8455 26.9115 47.7463 26.3262 46.5722 26.3262C46.5043 26.3262 46.4416 26.3262 46.3806 26.3297C47.4955 26.3767 48.504 26.9254 48.5737 27.2268C48.6469 27.5403 48.1975 28.7666 47.8822 29.0175H47.8839Z" fill="#EA8B0F"/>
<g id="Group_18">
<path id="Vector_57" d="M40.9142 29.8709L41.0222 29.8935C41.0501 29.8987 41.0762 29.9022 41.1023 29.9022C41.132 29.9022 41.1616 29.8987 41.1877 29.8918C41.3828 29.8447 41.5204 29.6479 41.4699 29.4336C41.3793 29.0504 41.24 28.6201 41.3236 28.3728C41.4002 28.1794 41.6284 28.0801 41.7974 27.9843C42.3914 27.6569 43.4156 26.9026 43.4156 26.9026V25.8052C43.4156 25.8052 42.0395 27.129 41.5082 27.5541C41.3689 27.6656 41.179 27.7962 41.0849 27.9478C40.9665 28.1115 40.916 28.3118 40.8916 28.5087C40.848 28.7839 40.801 29.2734 40.7418 29.6218C40.7226 29.7367 40.7975 29.8447 40.9107 29.8691L40.9142 29.8709Z" fill="#EA8B0F"/>
</g>
</g>
</g>
<path id="Vector_58" d="M34.8004 34.8064V40.9154C34.8004 41.1662 34.5635 41.2829 34.2726 41.1941C33.2622 40.884 32.2519 40.7307 31.2433 40.675C29.4161 40.5774 27.5888 40.8039 25.7615 41.0182L26.244 33.9442C28.0695 33.7299 29.8951 33.5348 31.7206 33.6916C32.5707 33.7647 33.4225 33.9145 34.2726 34.1758C34.5652 34.2647 34.8004 34.5556 34.8004 34.8082V34.8064Z" fill="#112130"/>
<path id="Vector_59" d="M39.1883 0.345703C39.1883 0.345703 47.2622 4.31557 48.9275 14.0007" stroke="#FF70FE" stroke-width="0.771887" stroke-miterlimit="10"/>
<g id="Group_19">
<g id="Group_20">
<path id="Vector_60" d="M34.2731 32.6584C31.061 32.108 27.8506 33.141 24.6385 33.9179V40.9361C27.8506 40.1575 31.061 39.1263 34.2731 39.675C34.564 39.7255 34.8009 39.5774 34.8009 39.3248V33.2159C34.8009 32.965 34.5658 32.7055 34.2731 32.6567V32.6584Z" fill="white"/>
<path id="Vector_61" d="M22.2322 35.8602V36.1198C23.0352 35.9856 23.8382 35.8062 24.6413 35.6111V36.3584C23.8382 36.5535 23.0352 36.7329 22.2322 36.8671V37.1632C23.0352 37.0291 23.8382 36.8496 24.6413 36.6546V38.8598C23.8382 39.0549 23.0352 39.2344 22.2322 39.3685V40.0165C23.0352 39.8824 23.8382 39.7029 24.6413 39.5078V40.938C23.3905 41.2411 22.1398 41.5058 20.8909 41.6243V34.606C20.8543 34.6095 20.8177 34.613 20.7811 34.6147C22.0684 34.5033 23.3557 34.2315 24.6413 33.918V35.3498C23.8382 35.5449 23.0352 35.7244 22.2322 35.8585V35.8602Z" fill="#D7CCFF"/>
<g id="Group_21">
<path id="Vector_62" d="M20.8889 34.6047V41.623L20.8593 41.6265C20.828 41.6282 20.7984 41.6317 20.767 41.6334C20.6398 41.6439 20.5144 41.6543 20.389 41.6613C20.3367 41.6648 20.2827 41.6683 20.2305 41.67C20.227 41.67 20.2218 41.67 20.2166 41.67C20.1817 41.6717 20.1469 41.6735 20.112 41.6752C20.0598 41.677 20.0058 41.6805 19.9535 41.6805C19.8873 41.6822 19.8194 41.6839 19.7532 41.6857C19.687 41.6857 19.6208 41.6874 19.5546 41.6874C18.924 41.6874 18.2935 41.6404 17.6629 41.5324C17.372 41.4819 17.1351 41.2241 17.1351 40.9732V34.8643C17.1351 34.6134 17.372 34.4654 17.6629 34.5141C18.3614 34.6343 19.0582 34.6779 19.7567 34.6674C19.8229 34.6674 19.8891 34.6657 19.9535 34.6622C20.004 34.6622 20.0546 34.6587 20.1068 34.657C20.1451 34.6552 20.1835 34.6535 20.2218 34.6517C20.2775 34.65 20.3333 34.6465 20.389 34.643C20.5197 34.6361 20.6503 34.6256 20.7809 34.6134C20.8175 34.6099 20.8541 34.6082 20.8907 34.6047H20.8889Z" fill="#FF7631"/>
<path id="Vector_63" d="M20.8896 41.6206C20.8495 41.6241 20.8077 41.6293 20.7676 41.6311C20.8077 41.6276 20.8495 41.6241 20.8896 41.6206Z" fill="#FF7631"/>
</g>
<g id="Group_22">
<path id="Vector_64" d="M24.6402 35.3535V35.6131C23.8371 35.8082 23.0341 35.9876 22.2311 36.1217V35.8622C23.0341 35.728 23.8371 35.5486 24.6402 35.3535Z" fill="#010102"/>
<path id="Vector_65" d="M25.7357 35.0796V35.3391C25.3699 35.4315 25.0041 35.5238 24.6382 35.6109V35.3513C25.0041 35.2625 25.3699 35.1702 25.7357 35.0796Z" fill="#112130"/>
</g>
<g id="Group_23">
<path id="Vector_66" d="M24.6402 36.3587V36.6531C23.8371 36.8482 23.0341 37.0276 22.2311 37.1617V36.8656C23.0341 36.7314 23.8371 36.552 24.6402 36.3569V36.3587Z" fill="#010102"/>
<path id="Vector_67" d="M27.8904 35.5532V35.8494C26.807 36.1002 25.7235 36.3911 24.6382 36.6541V36.3597C25.7217 36.0967 26.8052 35.8058 27.8904 35.555V35.5532Z" fill="#112130"/>
</g>
<path id="Vector_68" d="M27.3287 38.188V38.836C26.4334 39.0537 25.5363 39.2889 24.6409 39.5066V38.8586C25.538 38.6409 26.4334 38.4057 27.3287 38.188Z" fill="#112130"/>
<path id="Vector_69" d="M32.9097 35.1468C32.793 35.1939 32.6763 35.2444 32.5596 35.2949C32.5056 35.3193 32.4446 35.3315 32.3819 35.3315C32.2008 35.328 32.0196 35.328 31.8384 35.3315C31.6224 35.7269 31.4064 36.1275 31.1904 36.5317C31.1364 36.631 30.971 36.6153 30.9692 36.509C31.0232 36.1275 31.0755 35.7443 31.1295 35.3628C30.6801 35.3942 30.2306 35.443 29.7812 35.5074C29.6889 35.6886 29.5948 35.8697 29.5025 36.0526C29.4764 36.1049 29.3928 36.1031 29.3928 36.0509C29.4206 35.8523 29.4485 35.652 29.4746 35.4517C29.3823 35.4551 29.2917 35.4604 29.1994 35.4639C29.1559 35.4673 29.1245 35.4412 29.1245 35.4046C29.1245 35.368 29.1593 35.3262 29.2029 35.3158C29.2935 35.2914 29.3823 35.267 29.4729 35.2444C29.4468 35.058 29.4189 34.8716 29.3928 34.687C29.3928 34.633 29.4764 34.6016 29.5025 34.6451C29.5948 34.795 29.6872 34.9448 29.7812 35.0946C30.2306 35.011 30.6801 34.943 31.1295 34.8942C31.0755 34.5215 31.0232 34.1504 30.9692 33.7794C30.9692 33.6731 31.1364 33.6244 31.1904 33.715C31.4064 34.0825 31.6224 34.4553 31.8384 34.8333C32.0196 34.8228 32.2008 34.8141 32.3819 34.8106C32.4446 34.8106 32.5056 34.8228 32.5596 34.849C32.6763 34.903 32.793 34.9587 32.9097 35.0162C32.969 35.0458 32.969 35.119 32.9097 35.1433V35.1468Z" fill="#112130"/>
</g>
<path id="Vector_70" d="M24.6404 38.8618V39.5098C23.8373 39.7049 23.0343 39.8843 22.2313 40.0185V39.3705C23.0343 39.2363 23.8373 39.0569 24.6404 38.8618Z" fill="#010102"/>
</g>
<g id="Group_24">
<path id="Vector_71" d="M33.7222 41.2097H38.8453L38.5073 39.6211H34.2849L33.7222 41.2097Z" fill="#EA8B0F"/>
<path id="Vector_72" d="M29.7123 48.9202H42.7646C43.2663 48.9202 43.7018 48.5143 43.7366 48.0126L44.1512 42.1214C44.186 41.6197 43.808 41.2139 43.3064 41.2139H30.254C29.7524 41.2139 29.3169 41.6197 29.282 42.1214L28.8675 48.0126C28.8326 48.5143 29.2106 48.9202 29.7123 48.9202Z" fill="#FF7631"/>
<path id="Vector_73" d="M29.7303 48.9202H30.4305C30.7841 48.9202 31.0925 48.6328 31.1168 48.2792L31.5697 41.8549C31.5941 41.5013 31.3276 41.2139 30.974 41.2139H30.2581C29.7564 41.2139 29.3209 41.6197 29.2861 42.1214L28.8715 47.997C28.8349 48.5074 29.2199 48.9219 29.7303 48.9219V48.9202Z" fill="#C44B0E"/>
<path id="Vector_74" d="M36.0271 45.0635C35.9714 45.8421 36.1786 46.5511 36.5601 47.0789C36.7901 47.3994 37.0862 47.652 37.4259 47.8158C37.7342 47.6782 38.0199 47.4743 38.2672 47.2218C38.3125 47.1765 38.3543 47.1294 38.3961 47.0807C38.8525 46.5529 39.1591 45.8439 39.2131 45.0652C39.2688 44.2866 39.0615 43.5776 38.6801 43.0481C38.6452 42.9993 38.6086 42.9523 38.5703 42.9087C38.3578 42.6544 38.1017 42.4506 37.8126 42.313C37.4485 42.475 37.1193 42.7293 36.8423 43.0498C36.3859 43.5776 36.0794 44.2866 36.0254 45.0652L36.0271 45.0635Z" fill="#C44B0E"/>
<path id="Vector_75" d="M31.069 45.6096H44.1927L44.3059 43.9966H31.1822L31.069 45.6096Z" fill="#EBAC4B"/>
<path id="Vector_76" d="M28.6485 45.6096H31.0698L31.183 43.9966H28.7617L28.6485 45.6096Z" fill="#EA8B0F"/>
<g id="Group_25">
<path id="Vector_77" d="M34.7201 45.0662C34.6609 45.911 34.8856 46.6792 35.2985 47.2506C35.5475 47.5972 35.8698 47.8725 36.2374 48.0484C36.4899 48.1686 36.7634 48.2435 37.0561 48.2644C37.1101 48.2679 37.1641 48.2696 37.2181 48.2696C38.7231 48.2696 40.0435 46.836 40.1689 45.0662C40.2943 43.2964 39.1743 41.8628 37.6692 41.8628C37.6152 41.8628 37.5595 41.8645 37.5055 41.868C37.2111 41.8889 36.9272 41.9621 36.6572 42.084C36.2635 42.26 35.9046 42.5352 35.605 42.8818C35.1103 43.4549 34.7794 44.2231 34.7184 45.068L34.7201 45.0662Z" fill="#AFA5FF"/>
<path id="Vector_78" d="M34.3949 45.0655C34.3357 45.9104 34.5587 46.6785 34.9733 47.2499C35.2223 47.5965 35.5429 47.8718 35.9122 48.0477C36.2118 48.1905 36.541 48.2689 36.8929 48.2689C36.9469 48.2689 37.0026 48.2672 37.0566 48.2637C36.7657 48.2428 36.4905 48.1696 36.2379 48.0477C35.8686 47.8718 35.5481 47.5965 35.299 47.2499C34.8862 46.6785 34.6614 45.9086 34.7207 45.0655C34.7799 44.2224 35.1126 43.4525 35.6073 42.8794C35.9069 42.5327 36.2658 42.2575 36.6594 42.0816C36.9294 41.9614 37.2134 41.8865 37.5078 41.8656C37.4538 41.8621 37.3998 41.8604 37.3458 41.8604C36.9939 41.8604 36.6525 41.9387 36.3337 42.0816C35.94 42.2575 35.5812 42.5327 35.2816 42.8794C34.7869 43.4525 34.4559 44.2207 34.3949 45.0655Z" fill="#6D69B5"/>
<path id="Vector_79" d="M35.0763 45.0669C34.9613 46.6991 35.9925 48.023 37.3808 48.023H38.3302C38.0062 48.023 37.7014 47.9516 37.4261 47.8192C37.0865 47.6572 36.7903 47.4028 36.5604 47.0823C36.1789 46.5545 35.9716 45.8455 36.0274 45.0669C36.0831 44.2883 36.3897 43.5793 36.8443 43.0515C37.1213 42.731 37.4505 42.4784 37.8146 42.3146C38.109 42.1823 38.4243 42.1108 38.7483 42.1108H37.7989C36.4106 42.1108 35.193 43.4347 35.078 45.0669H35.0763Z" fill="#6D69B5"/>
<path id="Vector_80" d="M36.0273 45.0669C35.9715 45.8455 36.1788 46.5545 36.5603 47.0823C36.7902 47.4028 37.0864 47.6554 37.4261 47.8192C37.7013 47.9516 38.0061 48.023 38.3301 48.023C39.7184 48.023 40.9361 46.6991 41.051 45.0669C41.166 43.4347 40.1348 42.1108 38.7464 42.1108C38.4224 42.1108 38.1072 42.1823 37.8128 42.3146C37.4487 42.4766 37.1195 42.731 36.8425 43.0515C36.3861 43.5793 36.0795 44.2883 36.0255 45.0669H36.0273ZM36.7031 45.0669C36.7833 43.919 37.609 42.9818 38.574 42.9104C38.6141 42.9069 38.6524 42.9052 38.6924 42.9052C39.708 42.9052 40.4622 43.8719 40.3786 45.0669C40.295 46.2601 39.4031 47.2286 38.3893 47.2286C38.3493 47.2286 38.3092 47.2269 38.2709 47.2234C37.3163 47.152 36.6248 46.2131 36.7049 45.0669H36.7031Z" fill="#AFA5FF"/>
<path id="Vector_81" d="M36.7039 45.0667C36.6847 45.335 36.7074 45.5928 36.7683 45.8297C36.8223 46.0492 36.9077 46.2495 37.0192 46.4289C37.068 46.5073 37.122 46.5822 37.1812 46.6519C37.4843 47.009 37.9076 47.2285 38.3901 47.2285C38.5469 47.2285 38.7002 47.2058 38.8482 47.1623C39.66 46.9254 40.3097 46.0771 40.3811 45.0667C40.3916 44.9291 40.3898 44.795 40.3776 44.6644C40.3132 43.9362 39.9282 43.337 39.3778 43.0653C39.3011 43.0269 39.221 42.9956 39.1374 42.9712C38.998 42.9294 38.85 42.9067 38.6949 42.9067C38.6479 42.9067 38.6026 42.9085 38.5556 42.9137C37.5993 42.9973 36.7858 43.9293 36.7056 45.0685L36.7039 45.0667Z" fill="#C3C0FF"/>
</g>
<path id="Vector_82" d="M42.9082 42.6846C43.1277 42.4728 43.1452 42.135 42.9474 41.9301C42.7496 41.7252 42.4114 41.7308 42.192 41.9427C41.9726 42.1545 41.9551 42.4923 42.1528 42.6971C42.3506 42.902 42.6888 42.8964 42.9082 42.6846Z" fill="#C44B0E"/>
<path id="Vector_83" d="M35.5257 41.2097H40.6487L40.3108 39.6211H36.0883L35.5257 41.2097Z" fill="#EBAC4B"/>
<path id="Vector_84" d="M31.7835 41.2114H32.8112L32.8531 40.6069H31.8253L31.7835 41.2114Z" fill="#223544"/>
<path id="Vector_85" d="M31.5756 40.8126H33.0736L33.1207 40.1367H31.6226L31.5756 40.8126Z" fill="#112130"/>
<path id="Vector_86" d="M37.178 46.647C37.4811 47.0041 37.9044 47.2236 38.3869 47.2236C38.5437 47.2236 38.697 47.201 38.845 47.1574L40.3745 44.6595C40.31 43.9313 39.925 43.3321 39.3746 43.0604L37.1797 46.647H37.178ZM36.7669 45.8248C36.8209 46.0443 36.9063 46.2446 37.0177 46.424L39.1342 42.9663C38.9948 42.9245 38.8468 42.9019 38.6917 42.9019C38.6447 42.9019 38.5994 42.9036 38.5524 42.9088L36.7669 45.8266V45.8248Z" fill="white"/>
</g>
</g>
<path id="Vector_87" d="M56.1382 26.0122L56.1417 26.0227C56.1573 26.0662 56.1364 26.1133 56.0964 26.1324C55.6853 26.3275 55.4902 26.8518 55.6382 27.3675C55.6504 27.4128 55.626 27.458 55.5825 27.4737C55.539 27.4894 55.4902 27.4685 55.471 27.4267C55.2602 26.9337 54.776 26.6515 54.3335 26.7595C54.2882 26.77 54.243 26.7456 54.2273 26.7038L54.2238 26.6933C54.2081 26.6498 54.229 26.6028 54.2691 26.5836C54.6802 26.3885 54.877 25.8642 54.729 25.3468C54.7168 25.3015 54.7411 25.2562 54.7847 25.2406C54.8282 25.2249 54.877 25.2458 54.8962 25.2876C55.107 25.7806 55.5912 26.0645 56.0337 25.9548C56.079 25.9443 56.1242 25.9687 56.1399 26.0105L56.1382 26.0122Z" fill="white"/>
<path id="Vector_88" d="M20.6268 18.7255C19.026 18.9136 17.3938 19.0861 15.7511 19.2307C14.6398 19.3247 13.5424 19.4049 12.4833 19.4676C10.6368 19.5791 8.91055 19.6418 7.4421 19.647C7.35674 19.647 7.27139 19.647 7.18603 19.647C4.66545 19.647 3.089 19.485 2.10481 19.2463C0.800099 18.9311 0.538809 18.4834 0.505712 18.1054C0.44997 17.4783 1.18507 16.9331 2.28597 16.4453L2.24939 17.0062C1.50036 17.3529 0.967325 17.7204 0.99868 18.0618C1.02307 18.3266 1.3941 18.5618 2.13616 18.7464C3.75791 19.1488 7.14423 19.3038 12.5146 18.9711C13.5093 18.9102 14.5753 18.8318 15.7076 18.736C17.3293 18.5949 18.9441 18.4242 20.5275 18.2395C20.5571 18.4015 20.5902 18.5635 20.6251 18.7272L20.6268 18.7255Z" fill="#EBAC4B"/>
<path id="Vector_89" d="M58.7233 41.076C58.7233 41.98 57.7618 42.8231 55.8073 43.6192C54.7238 44.0599 53.3338 44.4902 51.6319 44.9065C46.6848 46.1206 43.8838 47.5525 42.3212 48.8781C41.412 49.648 40.9225 50.3831 40.6716 51.0172C40.0637 52.5588 40.7727 53.6754 40.8023 53.7224L40.3894 53.9959C40.3529 53.9419 39.508 52.632 40.2048 50.85C40.4748 50.1567 40.9294 49.5 41.567 48.8781C43.3943 47.0926 46.7249 45.6015 51.5134 44.4257C53.4574 43.9484 54.851 43.4885 55.8456 43.0618C57.8384 42.21 58.2269 41.4992 58.2286 41.0742C58.2286 40.3583 57.2636 39.6842 56.1139 39.1442L56.1505 38.6094C57.4831 39.2156 58.7251 40.0552 58.7251 41.0742L58.7233 41.076Z" fill="#EBAC4B"/>
</g>
</g>
</g>
</g>
<defs>
<clipPath id="clip0_7562_50916">
<rect width="58.4472" height="54" fill="white" transform="translate(0.276428 0.000976562)"/>
</clipPath>
</defs>
</svg>
