<svg width="52" height="48" viewBox="0 0 52 48" fill="none" xmlns="http://www.w3.org/2000/svg">
<g id="MobileArtboard 21 3" clip-path="url(#clip0_6694_10478)">
<g id="Group">
<g id="Layer 1">
<g id="Group_2">
<g id="Group_3">
<g id="Group_4">
<g id="Group_5">
<path id="Vector" d="M11.4205 8.94727L10.9097 16.8638L10.8819 17.3049L9.57868 37.5117H2.38649C1.30464 37.5117 0.406973 36.5599 0.475072 35.4858L1.66062 17.1099L1.69002 16.6657L1.79062 15.1195L1.82312 14.6212L2.08778 10.5104C2.14505 9.61587 2.86318 8.94727 3.76395 8.94727H11.422H11.4205Z" fill="#0573FF"/>
<path id="Vector_2" d="M26.5756 10.9717L25.3978 29.2222L24.9645 35.9486C24.9072 36.8416 24.1891 37.5117 23.2868 37.5117H7.7741C6.69225 37.5117 5.79303 36.5614 5.86268 35.4873L7.47539 10.5104C7.53265 9.61587 8.25079 8.94727 9.1531 8.94727H24.6658C25.7476 8.94727 26.6453 9.89911 26.5772 10.9717H26.5756Z" fill="#02B6FF"/>
<g id="Group_6">
<path id="Vector_3" d="M11.37 13.9546L10.1659 32.5983C10.1396 32.9992 9.80679 33.3118 9.40439 33.3118C8.96329 33.3118 8.61506 32.9388 8.64292 32.4993L9.84549 13.8556C9.8718 13.4547 10.2046 13.1421 10.607 13.1421C11.0481 13.1421 11.3963 13.5151 11.3684 13.9546H11.37Z" fill="#0573FF"/>
<path id="Vector_4" d="M14.5213 13.9546L13.3172 32.5983C13.2909 32.9992 12.9582 33.3118 12.5558 33.3118C12.1147 33.3118 11.7664 32.9388 11.7943 32.4993L12.9969 13.8556C13.0232 13.4547 13.3559 13.1421 13.7583 13.1421C14.1994 13.1421 14.5477 13.5151 14.5198 13.9546H14.5213Z" fill="#0573FF"/>
<path id="Vector_5" d="M17.6737 13.9546L16.4696 32.5983C16.4433 32.9992 16.1105 33.3118 15.7081 33.3118C15.267 33.3118 14.9188 32.9388 14.9466 32.4993L16.1492 13.8556C16.1755 13.4547 16.5083 13.1421 16.9107 13.1421C17.3518 13.1421 17.7 13.5151 17.6721 13.9546H17.6737Z" fill="#0573FF"/>
<path id="Vector_6" d="M20.8243 13.9546L19.6202 32.5983C19.5939 32.9992 19.2611 33.3118 18.8587 33.3118C18.4176 33.3118 18.0694 32.9388 18.0973 32.4993L19.2998 13.8556C19.3261 13.4547 19.6589 13.1421 20.0613 13.1421C20.5024 13.1421 20.8506 13.5151 20.8228 13.9546H20.8243Z" fill="#0573FF"/>
<path id="Vector_7" d="M23.9769 13.9546L22.7728 32.5983C22.7465 32.9992 22.4137 33.3118 22.0113 33.3118C21.5702 33.3118 21.222 32.9388 21.2499 32.4993L22.4524 13.8556C22.4787 13.4547 22.8115 13.1421 23.2139 13.1421C23.655 13.1421 24.0032 13.5151 23.9754 13.9546H23.9769Z" fill="#0573FF"/>
</g>
<path id="Vector_8" d="M17.6101 8.94756H16.5298L16.7728 5.18664C16.8161 4.50719 16.2775 3.93145 15.5965 3.93145H9.45211C9.02494 3.93145 8.67051 4.26266 8.64266 4.68982L8.36716 8.94756H7.28687L7.58093 4.38028C7.63665 3.5244 8.3455 2.85889 9.20293 2.85889H16.7434C17.4243 2.85889 17.9645 3.43463 17.9196 4.11408L17.6085 8.94602L17.6101 8.94756Z" fill="#112130"/>
<g id="Group_7">
<path id="Vector_9" d="M5.98977 40.4735C6.06097 41.5693 5.76071 42.5258 5.25461 43.0396C5.00543 43.2919 4.70672 43.4359 4.37706 43.4359C3.37879 43.4359 2.48422 42.1095 2.37743 40.4735C2.27063 38.8376 2.99187 37.5112 3.99014 37.5112C4.3198 37.5112 4.63708 37.6552 4.92031 37.9074C5.49296 38.4213 5.91858 39.3778 5.99132 40.4735H5.98977Z" fill="#112130"/>
<path id="Vector_10" d="M7.79637 40.4735C7.90316 42.1095 7.18038 43.4359 6.18366 43.4359H4.37749C4.70715 43.4359 5.00586 43.2919 5.25504 43.0396C5.76114 42.5258 6.06139 41.5693 5.9902 40.4735C5.919 39.3778 5.49338 38.4197 4.91919 37.9074C4.6375 37.6552 4.31868 37.5112 3.98901 37.5112H5.79519C6.79191 37.5112 7.68803 38.8376 7.79482 40.4735H7.79637Z" fill="#223544"/>
<path id="Vector_11" d="M5.12738 40.4716C5.16452 41.0443 5.00821 41.5442 4.74355 41.8135C4.61354 41.945 4.45722 42.0209 4.28388 42.0209C3.7623 42.0209 3.29335 41.3275 3.23763 40.4716C3.18191 39.6157 3.55955 38.9224 4.08113 38.9224C4.25293 38.9224 4.42008 38.9982 4.56711 39.1298C4.86737 39.3975 5.08869 39.899 5.12738 40.4716Z" fill="#223544"/>
</g>
<g id="Group_8">
<path id="Vector_12" d="M18.8863 40.4735C18.9575 41.5693 18.6572 42.5258 18.1511 43.0396C17.9019 43.2919 17.6032 43.4359 17.2735 43.4359C16.2753 43.4359 15.3807 42.1095 15.2739 40.4735C15.1671 38.8376 15.8883 37.5112 16.8866 37.5112C17.2163 37.5112 17.5336 37.6552 17.8168 37.9074C18.3894 38.4213 18.8151 39.3778 18.8878 40.4735H18.8863Z" fill="#112130"/>
<path id="Vector_13" d="M20.6936 40.4735C20.8004 42.1095 20.0776 43.4359 19.0809 43.4359H17.2747C17.6044 43.4359 17.9031 43.2919 18.1523 43.0396C18.6584 42.5258 18.9586 41.5693 18.8874 40.4735C18.8162 39.3778 18.3906 38.4197 17.8164 37.9074C17.5347 37.6552 17.2159 37.5112 16.8862 37.5112H18.6924C19.6891 37.5112 20.5852 38.8376 20.692 40.4735H20.6936Z" fill="#223544"/>
<path id="Vector_14" d="M18.0256 40.4716C18.0627 41.0443 17.9064 41.5442 17.6417 41.8135C17.5117 41.945 17.3554 42.0209 17.1821 42.0209C16.6605 42.0209 16.1915 41.3275 16.1358 40.4716C16.0801 39.6157 16.4577 38.9224 16.9793 38.9224C17.1511 38.9224 17.3183 38.9982 17.4653 39.1298C17.7656 39.3975 17.9869 39.899 18.0256 40.4716Z" fill="#223544"/>
</g>
<path id="Vector_15" d="M18.2363 5.67301H16.3265L16.3698 5.01059C16.393 4.64997 16.1067 4.34508 15.7461 4.34508H9.66824C9.33858 4.34508 9.06464 4.60045 9.04452 4.93011L8.99654 5.67456H7.08667L7.17953 4.23519C7.24454 3.23228 8.0772 2.45068 9.08321 2.45068H16.4131C17.5151 2.45068 18.3865 3.38086 18.3168 4.48127L18.2394 5.67456L18.2363 5.67301Z" fill="#223544"/>
</g>
<g id="Clip path group">
<mask id="mask0_6694_10478" style="mask-type:luminance" maskUnits="userSpaceOnUse" x="5" y="8" width="22" height="30">
<g id="clippath">
<path id="Vector_16" d="M26.5747 10.9722L25.3969 29.2227L24.9635 35.949C24.9062 36.8421 24.1881 37.5122 23.2858 37.5122H7.77312C6.69127 37.5122 5.79206 36.5619 5.8617 35.4878L7.47441 10.5109C7.53168 9.61636 8.24981 8.94775 9.15213 8.94775H24.6648C25.7466 8.94775 26.6443 9.89959 26.5762 10.9722H26.5747Z" fill="white"/>
</g>
</mask>
<g mask="url(#mask0_6694_10478)">
<g id="Group_9">
<path id="Vector_17" d="M33.1363 29.7745C38.8869 28.0788 42.0217 21.5259 40.1381 15.1383C38.2545 8.75068 32.0657 4.94718 26.3152 6.64294C20.5646 8.33869 17.4298 14.8916 19.3134 21.2792C21.197 27.6668 27.3858 31.4703 33.1363 29.7745Z" fill="#112130"/>
</g>
</g>
</g>
<path id="Vector_18" d="M25.74 23.9121L25.398 29.2223L24.9646 35.9486C24.9074 36.8417 24.1892 37.5118 23.2869 37.5118H20.4128L21.2502 23.9137H25.74V23.9121Z" fill="#112130"/>
<g id="Group_10">
<path id="Vector_19" d="M41.9935 26.5818H40.6021L40.8126 23.5065C40.8374 23.1505 40.5542 22.8487 40.1982 22.8487H35.7779C35.4545 22.8487 35.1852 23.0995 35.1635 23.4229L34.9468 26.5833H33.5554L33.7953 23.0701C33.8572 22.1693 34.6063 21.4697 35.5086 21.4697H40.5046C41.4998 21.4697 42.286 22.3117 42.2179 23.3038L41.9935 26.5833V26.5818Z" fill="#223544"/>
<path id="Vector_20" d="M35.3488 25.6841H33.2764C33.0118 25.6841 32.792 25.8868 32.7703 26.1515L32.696 27.0848H35.7868L35.8549 26.232C35.8781 25.9364 35.6444 25.6841 35.3488 25.6841Z" fill="#112130"/>
<path id="Vector_21" d="M42.4052 25.6841H40.4257C40.1363 25.6841 39.8964 25.9054 39.8732 26.1948L39.802 27.0848H42.8928L42.9562 26.2815C42.981 25.9596 42.7272 25.6841 42.4037 25.6841H42.4052Z" fill="#112130"/>
<path id="Vector_22" d="M50.1135 27.9373L49.677 34.3153L49.6445 34.7905L49.4062 38.2713L49.3721 38.765L49.1461 42.0771C49.0935 42.8432 48.4574 43.4375 47.6897 43.4375H28.3372C27.6408 43.4375 27.0913 42.8479 27.1378 42.1529L28.0633 28.6213L29.6683 26.583H48.8474C49.5826 26.583 50.163 27.2036 50.1119 27.9373H50.1135Z" fill="#AFA5FF"/>
<path id="Vector_23" d="M28.2021 26.583L27.0506 43.4375H23.4197C22.7604 43.4375 22.2388 42.8788 22.2837 42.221L23.2727 27.7469C23.3176 27.0922 23.8624 26.583 24.5186 26.583H28.2021Z" fill="#6D69B5"/>
<path id="Vector_24" d="M28.0623 28.6229C28.053 28.6229 28.0453 28.6229 28.036 28.6229C27.4169 28.6229 26.9278 28.0967 26.9712 27.4791L26.9805 27.36C27.0114 26.922 27.3767 26.583 27.8147 26.583H29.2618L28.0623 28.6213V28.6229Z" fill="#112130"/>
<g id="Clip path group_2">
<mask id="mask1_6694_10478" style="mask-type:luminance" maskUnits="userSpaceOnUse" x="27" y="26" width="24" height="18">
<g id="clippath-1">
<path id="Vector_25" d="M50.1119 27.9348L49.1446 42.0747C49.092 42.8408 48.4559 43.4351 47.6882 43.4351H28.3372C27.6408 43.4351 27.0913 42.8454 27.1378 42.1505L28.0633 28.6189L29.6682 26.5806H48.849C49.5826 26.5806 50.163 27.2012 50.1135 27.9333L50.1119 27.9348Z" fill="white"/>
</g>
</mask>
<g mask="url(#mask1_6694_10478)">
<g id="Group_11">
<path id="Vector_26" d="M42.993 44.6221C41.6666 44.6221 39.9796 43.9334 38.4319 41.2559C38.2601 40.9587 38.0992 40.6476 37.949 40.3242C37.624 40.6631 37.2882 40.9866 36.9446 41.2899C35.2065 42.8252 33.3848 43.7616 31.8124 43.9272C30.3003 44.0866 29.0017 43.5511 28.0561 42.3811L28.0251 42.3393C26.9944 40.7653 26.6616 38.6635 26.7746 36.5725C25.9032 36.7892 25.0319 36.8666 24.2178 36.7861L24.3215 35.7399C25.1325 35.8203 26.01 35.7151 26.8783 35.4551C27.0284 34.2835 27.3085 33.1474 27.6707 32.143C28.2728 30.3786 29.6595 28.1499 30.9426 27.4596C31.8588 26.9257 32.4903 27.164 32.7859 27.3559C33.3725 27.7351 33.6588 28.5569 33.552 29.5537V29.563C33.2873 31.6616 32.0646 33.5978 30.1083 35.0124C29.4072 35.5201 28.6427 35.9302 27.8595 36.2305C27.6939 38.2301 27.9462 40.2793 28.8918 41.7403C29.61 42.6179 30.5556 43.0032 31.704 42.881C33.0598 42.7386 34.6741 41.8935 36.2496 40.5021C36.6861 40.1168 37.1102 39.6958 37.5141 39.2531C37.0235 37.8788 36.7232 36.3388 36.6459 34.754C36.5267 32.3318 36.9384 29.9592 37.8035 28.0741L37.8097 28.0617C38.3298 26.9984 39.2646 25.7974 40.3232 25.6163C40.7024 25.5513 41.2689 25.5869 41.8152 26.1255L41.8446 26.1565C42.7191 27.1671 42.767 28.9686 42.6541 30.3028C42.4838 32.2699 41.8539 34.3841 40.8819 36.2568C40.3294 37.3464 39.5819 38.453 38.7229 39.4683C38.9055 39.9094 39.1129 40.3319 39.3435 40.7297C40.5817 42.8717 41.9916 43.8111 43.5316 43.5217C44.7883 43.2849 46.1256 42.2433 47.3374 40.5656C45.994 39.4187 44.9926 38.2332 44.2575 36.9285C42.815 34.5853 42.5751 31.5394 43.6724 29.5165C44.3596 28.2505 45.5018 27.5339 46.8886 27.4999C48.6855 27.4349 50.3446 28.6545 50.925 30.4684C51.2748 31.5038 51.332 32.7791 51.0968 34.2587C50.795 36.2258 49.9221 38.4793 48.7443 40.3551C49.1033 40.6322 49.4856 40.9092 49.8927 41.1847L49.3015 42.0529C48.8975 41.7775 48.5152 41.502 48.1546 41.2265C46.7911 43.0976 45.2341 44.2708 43.7251 44.554C43.4976 44.5974 43.253 44.6221 42.9945 44.6221H42.993ZM47.0232 28.5477C46.9892 28.5477 46.9551 28.5477 46.9211 28.5492H46.9133C45.6365 28.5786 44.9462 29.3633 44.5918 30.0164C43.6786 31.7003 43.9139 34.3779 45.1521 36.3852L45.1629 36.4038C45.8191 37.5708 46.7152 38.6418 47.9193 39.685C48.9888 37.95 49.7781 35.8931 50.0536 34.0962C50.2626 32.7822 50.2177 31.674 49.9236 30.7996L49.9205 30.7903C49.4949 29.4562 48.3125 28.5477 47.0217 28.5477H47.0232ZM38.7523 28.5183C37.4692 31.3196 37.3485 35.1517 38.3065 38.3121C38.9488 37.4949 39.5091 36.6313 39.9425 35.777C40.8541 34.0188 41.4437 32.0439 41.6032 30.2114C41.7363 28.6498 41.5382 27.4302 41.0599 26.8591C40.82 26.6316 40.6343 26.6285 40.4966 26.6517C39.9641 26.743 39.2476 27.5091 38.7523 28.5167V28.5183ZM32.012 28.1824C31.8186 28.1824 31.6003 28.2907 31.4641 28.3697L31.444 28.3805C30.4334 28.9176 29.189 30.9358 28.6612 32.485L28.6581 32.4943C28.3827 33.2573 28.1551 34.121 28.0066 35.0217C30.2384 33.9863 32.1885 31.9526 32.5057 29.4345C32.5754 28.7814 32.4098 28.3619 32.2148 28.2366C32.1544 28.1979 32.0848 28.1824 32.012 28.1824Z" fill="#C3C0FF"/>
</g>
</g>
</g>
<path id="Vector_27" d="M34.9343 26.583L33.7813 43.4375H31.4365L32.588 26.583H34.9343Z" fill="#6D69B5"/>
<path id="Vector_28" d="M46.1186 26.583L44.9655 43.4375H42.6223L43.7738 26.583H46.1186Z" fill="#6D69B5"/>
<path id="Vector_29" d="M28.0627 28.6229L28.1417 27.5302C28.1804 26.9962 28.6246 26.583 29.1585 26.583H29.9386L29.9153 26.908C29.8442 27.8893 29.0533 28.6213 28.0627 28.6213V28.6229Z" fill="#223544"/>
<path id="Vector_30" d="M50.0772 28.6213C49.161 28.6213 48.4057 27.815 48.4707 26.908L48.4939 26.583H48.9474C49.6361 26.583 50.1809 27.168 50.1314 27.8552L50.0757 28.6213H50.0772Z" fill="#223544"/>
<path id="Vector_31" d="M47.7564 43.4358H47.3215L47.3447 43.1108C47.4159 42.1295 48.2068 41.3975 49.1974 41.3975L49.1432 42.145C49.0906 42.8724 48.4854 43.4358 47.7549 43.4358H47.7564Z" fill="#223544"/>
<path id="Vector_32" d="M28.4915 43.4358H26.6807C26.2474 43.4358 25.9053 43.0674 25.9363 42.6356L25.9425 42.5598C25.9904 41.8943 26.5275 41.3975 27.1977 41.3975L28.4931 43.4358H28.4915Z" fill="#112130"/>
<path id="Vector_33" d="M28.7788 43.4354H28.2959C27.6226 43.4354 27.0918 42.8643 27.1397 42.1926L27.197 41.3955C28.1132 41.3955 28.8685 42.2019 28.8035 43.1088L28.7803 43.4338L28.7788 43.4354Z" fill="#223544"/>
<path id="Vector_34" d="M23.2078 28.6229L23.2743 27.7066C23.3192 27.0736 23.847 26.583 24.4815 26.583H24.528L24.4645 27.4606C24.4165 28.1261 23.8795 28.6229 23.2093 28.6229H23.2078Z" fill="#112130"/>
<path id="Vector_35" d="M23.373 43.4354C22.74 43.4354 22.2385 42.8983 22.285 42.2653L22.3469 41.3955C22.9675 41.3955 23.4798 41.9418 23.4365 42.5578L23.373 43.4354Z" fill="#112130"/>
</g>
<g id="Group_12">
<path id="Vector_36" d="M33.5234 25.8667C27.9966 28.1867 21.4266 25.0897 18.8481 18.9484C18.5293 18.1885 18.2863 17.4178 18.116 16.6454C18.0835 16.5015 18.0557 16.3576 18.0294 16.2121C17.0419 10.8911 19.4749 5.60875 24.1908 3.62924C29.7192 1.30922 36.2892 4.40619 38.8661 10.5459C41.4431 16.6872 39.0519 23.5451 33.5234 25.8651V25.8667Z" fill="#FF70FE"/>
<g id="Clip path group_3">
<mask id="mask2_6694_10478" style="mask-type:luminance" maskUnits="userSpaceOnUse" x="17" y="2" width="23" height="25">
<g id="clippath-2">
<path id="Vector_37" d="M33.5241 25.8621C39.0522 23.5416 41.4442 16.6827 38.8668 10.5421C36.2893 4.4016 29.7184 1.30477 24.1903 3.62518C18.6621 5.94559 16.2701 12.8046 18.8476 18.9451C21.425 25.0856 27.9959 28.1825 33.5241 25.8621Z" fill="white"/>
</g>
</mask>
<g mask="url(#mask2_6694_10478)">
<g id="Group_13">
<path id="Vector_38" d="M43.9702 10.7863L45.7269 11.7412L40.5575 21.2488L38.8009 20.2938L43.9702 10.7863ZM38.8009 6.57497L40.5575 7.52991L43.3063 2.4751H41.0311L38.8024 6.57497H38.8009ZM35.0322 11.0943L35.7395 12.9639L45.1403 9.40727L44.433 7.53765L35.0322 11.0943ZM38.1261 4.53664L36.4035 3.52289L32.2556 10.5665L33.9782 11.5803L38.1261 4.53664ZM45.5179 4.76261L46.3955 6.55949L48.1026 5.72528V3.49968L45.5164 4.76416L45.5179 4.76261ZM47.9587 15.2839L48.1042 15.2545V8.37186L46.5905 8.68604L47.9602 15.2839H47.9587ZM40.2526 31.346H42.5278L45.7269 25.4616L43.9702 24.5067L40.2511 31.346H40.2526ZM35.0322 24.8147L35.7395 26.6843L45.1403 23.1277L44.433 21.2581L35.0322 24.8147ZM45.5179 18.4815L46.3955 20.2784L48.1026 19.4442V17.2185L45.5164 18.483L45.5179 18.4815ZM47.9587 29.0043L48.1042 28.9749V22.0923L46.5905 22.4065L47.9602 29.0043H47.9587ZM36.1775 31.346H37.0551L36.4035 30.9622L36.1775 31.346ZM47.2699 31.346H48.1042V30.939L47.2699 31.346ZM39.5407 28.554L38.6631 26.7571L29.2779 31.3445H33.8297L39.5407 28.5524V28.554ZM20.8073 20.2938L22.5639 21.2488L27.7332 11.7412L25.9766 10.7863L20.8073 20.2938ZM20.8073 6.57497L22.5639 7.52991L25.3126 2.4751H23.0375L20.8088 6.57497H20.8073ZM17.0401 11.0943L17.7474 12.9639L27.1482 9.40727L26.4409 7.53765L17.0401 11.0943ZM14.262 10.5665L15.9846 11.5803L20.1325 4.53664L18.4099 3.52289L14.262 10.5665ZM32.203 2.4751L27.5243 4.76261L28.4018 6.55949L36.7548 2.47665H32.203V2.4751ZM30.5547 8.279L28.5969 8.6845L29.9666 15.2824L31.9244 14.8769L30.5547 8.279ZM27.7332 25.4616L25.9766 24.5067L22.2575 31.346H24.5326L27.7317 25.4616H27.7332ZM38.1261 18.2571L36.4035 17.2433L32.2556 24.2869L33.9782 25.3007L38.1261 18.2571ZM27.1467 23.1277L26.4394 21.2581L17.0386 24.8147L17.7459 26.6843L27.1467 23.1277ZM28.4034 20.2784L39.5407 14.8335L38.6631 13.0366L27.5258 18.4815L28.4034 20.2784ZM29.9666 29.0043L31.9244 28.5988L30.5547 22.001L28.5969 22.4065L29.9666 29.0043ZM18.1839 31.346H19.0614L18.4099 30.9622L18.1839 31.346ZM21.5471 28.554L20.6695 26.7571L11.2842 31.3445H15.836L21.5471 28.5524V28.554ZM2.81362 6.57497L4.57026 7.52991L7.31899 2.4751H5.04386L2.81516 6.57497H2.81362ZM8.44572 7.53765L0.0339355 10.7213V12.8587L9.15457 9.40882L8.44727 7.53919L8.44572 7.53765ZM0.416219 3.52135L0.0339355 4.17138V8.11184L2.13882 4.53664L0.416219 3.52289V3.52135ZM14.2094 2.4751L9.53066 4.76261L10.4082 6.55949L18.7612 2.47665H14.2094V2.4751ZM12.5611 8.279L10.6032 8.6845L11.9729 15.2824L13.9308 14.8769L12.5611 8.279ZM0.0339355 2.4751V2.83417L0.769096 2.4751H0.0339355ZM9.7396 25.4616L7.98296 24.5067L4.26382 31.346H6.53895L9.73806 25.4616H9.7396ZM20.1325 18.2571L18.4099 17.2433L14.262 24.2869L15.9846 25.3007L20.1325 18.2571ZM9.7396 11.7412L7.98296 10.7863L2.81362 20.2938L4.57026 21.2488L9.7396 11.7412ZM8.44572 21.2581L0.0339355 24.4401V26.5775L9.15457 23.1277L8.44727 21.2581H8.44572ZM0.416219 17.2418L0.0339355 17.8918V21.8323L2.13882 18.2571L0.416219 17.2433V17.2418ZM10.4098 20.2784L21.5471 14.8335L20.6695 13.0366L9.53221 18.4815L10.4098 20.2784ZM11.9729 29.0043L13.9308 28.5988L12.5611 22.001L10.6032 22.4065L11.9729 29.0043ZM0.0339355 16.5546L3.55342 14.8335L2.67587 13.0366L0.0339355 14.329V16.5546ZM1.0678 31.346L0.416219 30.9622L0.190254 31.346H1.0678ZM0.0339355 30.275L3.55342 28.554L2.67587 26.7571L0.0339355 28.0494V30.275Z" fill="#918DE0"/>
</g>
</g>
</g>
<g id="Vector_39" style="mix-blend-mode:darken">
<path d="M34.5975 17.8379C35.8533 13.4869 34.3142 9.22169 31.1598 8.31121C28.0054 7.40074 24.4301 10.1898 23.1743 14.5408C21.9185 18.8918 23.4576 23.157 26.612 24.0675C29.7664 24.978 33.3416 22.1889 34.5975 17.8379Z" fill="#C153C4"/>
</g>
<path id="Vector_40" d="M32.2045 20.2267C35.0962 19.0129 36.3312 15.3863 34.9629 12.1265C33.5946 8.86668 30.1412 7.20805 27.2494 8.42185C24.3577 9.63565 23.1227 13.2622 24.4909 16.5221C25.8592 19.7819 29.3127 21.4405 32.2045 20.2267Z" fill="#112130"/>
<path id="Vector_41" d="M32.3217 19.5129C34.821 18.4639 35.863 15.2692 34.6492 12.3775C33.4354 9.48572 30.4254 7.99191 27.9262 9.04096C25.4269 10.09 24.3849 13.2847 25.5987 16.1764C26.8125 19.0682 29.8225 20.562 32.3217 19.5129Z" fill="#C153C4"/>
<path id="Vector_42" d="M33.0587 18.8545C35.409 17.868 36.4008 14.892 35.274 12.2076C34.1473 9.52311 31.3285 8.14665 28.9782 9.13318C26.6279 10.1197 25.6361 13.0956 26.7629 15.7801C27.8897 18.4646 30.7084 19.841 33.0587 18.8545Z" fill="#FCA1FF"/>
</g>
</g>
<g id="Group_14">
<path id="Vector_43" d="M36.3091 26.5762H36.4654C36.6774 26.5762 36.8477 26.3766 36.792 26.1599C36.6418 25.5749 36.6248 25.5021 36.6991 25.2839C36.7672 25.1121 36.97 25.0239 37.1201 24.9388C37.6478 24.6478 38.5579 23.9776 38.5579 23.9776L38.5208 22.936C38.5208 22.936 38.4619 22.9825 38.366 23.0568V23.9111C38.366 23.9111 37.4559 24.5812 36.9282 24.8722C36.778 24.9573 36.5768 25.044 36.5072 25.2174C36.4329 25.4371 36.5567 25.8194 36.6372 26.1599C36.6821 26.3503 36.5598 26.5267 36.3865 26.567C36.3617 26.5731 36.3369 26.5762 36.3106 26.5762H36.3091Z" fill="#BA6500"/>
<g id="Group_15">
<g id="Group_16">
<path id="Vector_44" d="M44.2579 26.5503H44.4142C44.6262 26.5503 44.7965 26.3507 44.7408 26.134C44.5906 25.5489 44.5736 25.4762 44.6479 25.258C44.716 25.0862 44.9188 24.998 45.0689 24.9128C45.0828 24.9051 45.0983 24.8974 45.1169 24.8896C45.1912 24.8571 45.3041 24.82 45.4465 24.7797C46.2359 24.5553 47.9306 24.2303 48.9954 24.0337C49.548 23.9316 49.9302 23.865 49.9302 23.865L49.8962 22.9163C49.8714 22.9055 49.8451 22.8946 49.8157 22.8838C49.794 22.9008 49.7677 22.9209 49.7368 22.9457V23.8C49.7368 23.8 49.4427 23.8511 48.997 23.9331C48.0173 24.1111 46.3102 24.4346 45.4125 24.6714C45.2778 24.707 45.1618 24.7395 45.0689 24.772C44.9822 24.7998 44.9157 24.8262 44.8739 24.8494C44.7238 24.9345 44.5226 25.0212 44.4529 25.1945C44.3786 25.4143 44.5024 25.7966 44.5829 26.1371C44.6278 26.3274 44.5055 26.5039 44.3322 26.5441C44.3074 26.5503 44.2827 26.5534 44.2563 26.5534L44.2579 26.5503Z" fill="#EA8B0F"/>
<path id="Vector_45" d="M44.0895 26.5234L44.1854 26.5435C44.2102 26.5481 44.2334 26.5512 44.2566 26.5512C44.2829 26.5512 44.3092 26.5481 44.3325 26.5419C44.5058 26.5002 44.6281 26.3253 44.5832 26.1349C44.5027 25.7944 44.3789 25.4121 44.4532 25.1923C44.5213 25.0206 44.724 24.9323 44.8742 24.8472C44.9051 24.8302 44.95 24.8116 45.0073 24.7915C45.0243 24.7853 45.0429 24.7776 45.063 24.7714C45.063 24.7714 45.0661 24.7714 45.0676 24.7714C45.0785 24.7667 45.0908 24.7636 45.1032 24.759C45.1156 24.7543 45.128 24.7513 45.1419 24.7466C45.2193 24.7218 45.3106 24.6971 45.4112 24.6708C45.5072 24.646 45.6109 24.6197 45.7238 24.5934C45.7517 24.5872 45.7811 24.5795 45.8121 24.5733C45.8569 24.5624 45.9018 24.5531 45.9483 24.5423C45.973 24.5361 45.9978 24.5299 46.0241 24.5253C46.1402 24.499 46.2609 24.4727 46.3863 24.4448C46.4203 24.4386 46.4544 24.4309 46.4884 24.4231C46.5225 24.4154 46.5565 24.4092 46.5921 24.4015C46.6231 24.3953 46.6525 24.3891 46.6834 24.3829C46.7237 24.3752 46.7639 24.3659 46.8041 24.3581C46.8397 24.3504 46.8738 24.3442 46.9094 24.3365C46.9264 24.3318 46.945 24.3287 46.9636 24.3256C46.9914 24.3194 47.0208 24.3133 47.0502 24.3086C47.236 24.2699 47.4248 24.2328 47.6105 24.1972C47.6461 24.191 47.6817 24.1832 47.7173 24.1771C47.8071 24.16 47.8953 24.143 47.9819 24.126C48.016 24.1198 48.05 24.112 48.0841 24.1059C48.2249 24.0795 48.3596 24.0532 48.4896 24.03C48.519 24.0238 48.5484 24.0192 48.5763 24.0145C48.6057 24.0084 48.6351 24.0037 48.6645 23.9975C48.7264 23.9867 48.7883 23.9759 48.8456 23.9635C48.8966 23.9542 48.9477 23.9449 48.9957 23.9356C49.0932 23.917 49.1845 23.9016 49.2665 23.8861C49.2882 23.8814 49.3099 23.8783 49.3315 23.8737C49.3733 23.866 49.412 23.8598 49.4476 23.8536C49.4662 23.8505 49.4832 23.8474 49.5002 23.8443C49.5173 23.8412 49.5328 23.8381 49.5482 23.8366C49.5699 23.8319 49.5916 23.8288 49.6101 23.8257C49.6194 23.8242 49.6287 23.8226 49.638 23.8211C49.6519 23.818 49.6659 23.8164 49.6782 23.8149C49.6813 23.8149 49.6844 23.8149 49.6891 23.8133C49.7216 23.8072 49.7371 23.8056 49.7371 23.8056V22.8661C49.7169 22.86 49.6953 22.8538 49.6736 22.8491C49.4445 22.911 48.6212 23.1385 47.7018 23.4078C46.8893 23.6462 46.0024 23.917 45.3834 24.1384C45.1976 24.2049 45.0367 24.2668 44.9082 24.3225C44.772 24.3813 44.673 24.4324 44.6219 24.4727C44.4981 24.5717 44.3294 24.6878 44.2458 24.8224C44.1405 24.9679 44.0957 25.1459 44.074 25.3208C44.0353 25.5653 43.9935 26.0003 43.9409 26.3098C43.9239 26.4119 43.9904 26.5079 44.091 26.5296L44.0895 26.5234Z" fill="#EA8B0F"/>
</g>
<path id="Vector_46" d="M44.303 23.9528C44.5166 23.9946 44.5367 24.1215 44.5367 24.1215C44.5367 24.1215 45.0087 25.5795 45.422 26.1506C45.6897 26.5174 46.3073 26.5886 46.9171 26.5715C46.4156 26.5576 45.9482 26.457 45.7269 26.1506C45.3121 25.5795 44.8416 24.1215 44.8416 24.1215C44.8416 24.1215 44.8122 23.9404 44.4547 23.9404C44.3958 23.9404 44.3448 23.9451 44.303 23.9544V23.9528Z" fill="#EA8B0F"/>
<path id="Vector_47" d="M38.6743 22.9355H38.3694V23.9106H38.6743V22.9355Z" fill="#EA8B0F"/>
<path id="Vector_48" d="M38.3694 22.9341H38.6743C39.0148 22.7376 40.0951 22.6973 40.5934 22.6896C40.578 22.6896 40.5609 22.6896 40.5455 22.6881C40.5455 22.6881 38.8182 22.6772 38.3709 22.9357L38.3694 22.9341Z" fill="#EA8B0F"/>
<path id="Vector_49" d="M38.3694 23.9097L38.6836 24.292C38.6836 24.292 39.0751 24.9079 39.233 25.3784C39.3893 25.8489 39.6695 26.4216 40.4325 26.5005C40.7869 26.5361 41.2481 26.5872 41.6846 26.5733C41.3456 26.564 41.0098 26.5284 40.7374 26.5005C39.9744 26.4216 39.6942 25.8489 39.5379 25.3784C39.38 24.9079 38.9885 24.292 38.9885 24.292L38.6743 23.9097H38.3694Z" fill="#EA8B0F"/>
<path id="Vector_50" d="M38.6738 22.9341V23.9091L38.988 24.2914C38.988 24.2914 39.3796 24.9074 39.5375 25.3779C39.6938 25.8484 39.9739 26.4211 40.7369 26.5C41.0093 26.5278 41.3452 26.5634 41.6841 26.5727C42.2955 26.5898 42.9145 26.5201 43.1808 26.1518C43.5955 25.5807 44.066 24.1227 44.066 24.1227C44.066 24.1227 44.0877 23.9958 44.3013 23.954C44.3431 23.9463 44.3942 23.9401 44.453 23.9401C44.8105 23.9401 44.8399 24.1212 44.8399 24.1212C44.8399 24.1212 44.8631 24.1939 44.9034 24.3131C44.9436 24.4292 44.9993 24.5886 45.0674 24.7681C45.0829 24.8068 45.0984 24.847 45.1138 24.8888C45.2856 25.3315 45.5131 25.8577 45.7252 26.1518C45.9465 26.4582 46.4139 26.5573 46.9154 26.5727C47.2543 26.5634 47.5917 26.5278 47.8641 26.4984C48.6256 26.4211 48.9057 25.8484 49.0636 25.3779C49.2199 24.9074 49.613 24.2899 49.613 24.2899L49.9272 23.9091V22.9341C49.9164 22.9279 49.9055 22.9217 49.8932 22.9155C49.8684 22.9047 49.8421 22.8938 49.8127 22.883C49.7879 22.8737 49.7616 22.866 49.7337 22.8582C49.7136 22.852 49.692 22.8459 49.6703 22.8412C49.2013 22.7236 48.395 22.6957 47.9926 22.6895C46.5965 22.7344 45.4389 23.2049 45.1525 23.3148C44.8616 23.4262 44.4514 23.4139 44.4514 23.4139C44.4514 23.4139 44.3895 23.4154 44.2982 23.4123C44.1512 23.4061 43.9283 23.3845 43.7488 23.3164C43.4578 23.2049 42.2692 22.722 40.8453 22.688C40.8453 22.688 40.7462 22.688 40.5883 22.6895C40.09 22.6973 39.0112 22.7375 38.6692 22.9341H38.6738ZM45.3816 24.1305C45.5673 23.8426 46.4727 23.3984 47.4339 23.3984C47.4942 23.3984 47.5499 23.3984 47.6041 23.4015C47.6366 23.3999 47.6691 23.3984 47.7001 23.3984C47.7124 23.3984 47.7248 23.3984 47.7372 23.3984C48.9181 23.3984 48.9754 23.8085 48.9754 23.8085C48.9893 23.8317 48.9955 23.8735 48.997 23.9308C48.997 23.9602 48.997 23.9958 48.9924 24.0329C48.9645 24.3905 48.8005 25.0451 48.6859 25.2881C48.5374 25.6039 48.5095 25.819 47.9508 25.9119C47.6815 25.9567 47.3456 25.9815 47.0392 25.9707H47.0345C46.5934 25.9862 46.1493 25.9413 45.962 25.7911C45.7886 25.6534 45.5704 25.1829 45.4435 24.7789C45.4311 24.7418 45.4203 24.7047 45.411 24.6691C45.3537 24.4648 45.3259 24.2899 45.3475 24.2001C45.3522 24.1784 45.363 24.1552 45.38 24.132L45.3816 24.1305ZM39.6272 23.8085C39.6272 23.8085 39.6829 23.3984 40.8654 23.3984C40.9103 23.3984 40.9552 23.3984 41 23.4015C41.0542 23.3999 41.1099 23.3984 41.1703 23.3984C42.2134 23.3984 43.19 23.92 43.255 24.1986C43.32 24.4771 42.9207 25.5667 42.6406 25.7896C42.4533 25.9397 42.0091 25.9846 41.568 25.9691H41.5634C41.257 25.98 40.9211 25.9552 40.6518 25.9103C40.0931 25.8175 40.0652 25.6023 39.9166 25.2866C39.7681 24.9709 39.5359 23.9556 39.6288 23.807L39.6272 23.8085Z" fill="#EBAC4B"/>
<g id="Group_17">
<path id="Vector_51" d="M39.9021 25.2593C39.9067 25.2686 39.9098 25.2778 39.9144 25.2871C40.063 25.6029 40.0909 25.818 40.6496 25.9109C40.7827 25.9325 40.9328 25.9511 41.0876 25.9604C41.2455 25.9712 41.4064 25.9743 41.5612 25.9697H41.5658C42.0069 25.9851 42.4511 25.9403 42.6384 25.7901C42.9185 25.5673 43.3178 24.4777 43.2528 24.1991C43.2312 24.1047 43.1058 23.9824 42.9092 23.8632C42.5858 23.6651 42.0688 23.4732 41.5039 23.416C41.394 23.4051 41.2826 23.3989 41.1696 23.3989C41.1093 23.3989 41.0535 23.3989 40.9994 23.402C40.9545 23.3989 40.9096 23.3989 40.8647 23.3989C39.6838 23.3989 39.6266 23.8091 39.6266 23.8091C39.5368 23.953 39.7535 24.9172 39.9021 25.2608V25.2593Z" fill="#282828"/>
<path id="Vector_52" d="M45.963 25.7901C46.0203 25.8366 46.1023 25.8722 46.2014 25.9C46.4196 25.9619 46.7183 25.9805 47.0185 25.9712C47.0247 25.9712 47.0309 25.9712 47.0371 25.9712H47.0418C47.3482 25.982 47.6841 25.9573 47.9534 25.9124C48.5121 25.8195 48.5399 25.6044 48.6885 25.2887C48.8371 24.9729 49.0708 23.9576 48.9764 23.8091C48.9764 23.8091 48.9733 23.7843 48.9501 23.7456C48.899 23.662 48.752 23.5166 48.3341 23.4438C48.1762 23.4159 47.9812 23.3989 47.7382 23.3989C47.6933 23.3989 47.6485 23.3989 47.6036 23.402C47.5494 23.4005 47.4937 23.3989 47.4333 23.3989C46.3917 23.3989 45.4136 23.9205 45.3486 24.1991C45.2836 24.4777 45.6844 25.5673 45.963 25.7901Z" fill="#282828"/>
</g>
<path id="Vector_53" d="M46.2019 25.9001C46.4201 25.962 46.7188 25.9805 47.0191 25.9713L48.9506 23.7456C48.8996 23.6621 48.7525 23.5166 48.3346 23.4438L46.2019 25.9001Z" fill="#444444"/>
<path id="Vector_54" d="M39.9021 25.2614C39.9067 25.2707 39.9098 25.2799 39.9145 25.2892C40.0631 25.605 40.0909 25.8201 40.6496 25.913C40.7827 25.9346 40.9329 25.9532 41.0876 25.9625L42.9093 23.8638C42.5858 23.6657 42.0689 23.4738 41.504 23.4165L39.9036 25.2598L39.9021 25.2614Z" fill="#444444"/>
<path id="Vector_55" d="M47.041 25.9717C47.3475 25.9825 47.6833 25.9578 47.9526 25.9129C48.5113 25.82 48.5392 25.6049 48.6878 25.2892C48.8364 24.9734 49.0701 23.9581 48.9756 23.8096C48.9756 23.8096 48.9199 23.3994 47.7375 23.3994C47.6926 23.3994 47.6477 23.3994 47.6028 23.4025C48.6197 23.4397 48.6708 23.808 48.6708 23.808C48.7636 23.9566 48.5315 24.9703 48.3829 25.2876C48.2343 25.6034 48.2064 25.8185 47.6477 25.9113C47.4666 25.9423 47.2546 25.9624 47.041 25.9702V25.9717Z" fill="#EA8B0F"/>
<path id="Vector_56" d="M42.334 25.7906C42.19 25.9052 41.8944 25.9593 41.5663 25.9702C42.0074 25.9856 42.4516 25.9407 42.6389 25.7906C42.919 25.5678 43.3183 24.4782 43.2533 24.1996C43.1883 23.9194 42.2117 23.3994 41.1685 23.3994C41.1082 23.3994 41.0525 23.3994 40.9983 23.4025C41.9888 23.4443 42.8849 23.9318 42.9469 24.1996C43.0119 24.4782 42.6125 25.5678 42.3324 25.7906H42.334Z" fill="#EA8B0F"/>
<g id="Group_18">
<path id="Vector_57" d="M36.1415 26.5484L36.2374 26.5685C36.2622 26.5731 36.2854 26.5762 36.3086 26.5762C36.3349 26.5762 36.3612 26.5731 36.3845 26.567C36.5578 26.5252 36.6801 26.3503 36.6352 26.1599C36.5547 25.8194 36.4309 25.4371 36.5052 25.2174C36.5733 25.0456 36.776 24.9573 36.9262 24.8722C37.4539 24.5812 38.364 23.9111 38.364 23.9111V22.936C38.364 22.936 37.1413 24.1123 36.6692 24.4899C36.5454 24.589 36.3767 24.7051 36.2931 24.8397C36.1879 24.9852 36.143 25.1632 36.1214 25.3381C36.0827 25.5826 36.0409 26.0175 35.9883 26.3271C35.9712 26.4292 36.0378 26.5252 36.1384 26.5468L36.1415 26.5484Z" fill="#EA8B0F"/>
</g>
</g>
</g>
<path id="Vector_58" d="M30.7093 30.9346V36.3624C30.7093 36.5852 30.4988 36.6889 30.2403 36.61C29.3426 36.3345 28.445 36.1983 27.5489 36.1488C25.9253 36.0621 24.3018 36.2633 22.6782 36.4537L23.1069 30.1684C24.7289 29.9781 26.3509 29.8047 27.9729 29.944C28.7282 30.009 29.485 30.1421 30.2403 30.3743C30.5003 30.4532 30.7093 30.7117 30.7093 30.9361V30.9346Z" fill="#112130"/>
<path id="Vector_59" d="M34.6079 0.315918C34.6079 0.315918 41.7815 3.84314 43.2611 12.4484" stroke="#FF70FE" stroke-width="0.690277" stroke-miterlimit="10"/>
<g id="Group_19">
<g id="Group_20">
<path id="Vector_60" d="M30.241 29.0264C27.3871 28.5373 24.5346 29.4551 21.6807 30.1454V36.3811C24.5346 35.6893 27.3871 34.773 30.241 35.2606C30.4995 35.3055 30.71 35.1739 30.71 34.9495V29.5217C30.71 29.2988 30.501 29.0682 30.241 29.0249V29.0264Z" fill="white"/>
<path id="Vector_61" d="M19.5427 31.8707V32.1013C20.2562 31.9821 20.9696 31.8227 21.6831 31.6494V32.3134C20.9696 32.4867 20.2562 32.6461 19.5427 32.7653V33.0284C20.2562 32.9092 20.9696 32.7498 21.6831 32.5765V34.5359C20.9696 34.7092 20.2562 34.8686 19.5427 34.9878V35.5635C20.2562 35.4444 20.9696 35.285 21.6831 35.1116V36.3823C20.5719 36.6516 19.4606 36.8868 18.3509 36.9921V30.7564C18.3184 30.7595 18.2859 30.7626 18.2534 30.7641C19.3972 30.665 20.5409 30.4236 21.6831 30.145V31.4172C20.9696 31.5906 20.2562 31.75 19.5427 31.8692V31.8707Z" fill="#D7CCFF"/>
<g id="Group_21">
<path id="Vector_62" d="M18.3492 30.7557V36.9914L18.3229 36.9945C18.2951 36.996 18.2687 36.9991 18.2409 37.0007C18.1279 37.01 18.0165 37.0193 17.905 37.0255C17.8586 37.0286 17.8106 37.0316 17.7642 37.0332C17.7611 37.0332 17.7565 37.0332 17.7518 37.0332C17.7209 37.0347 17.6899 37.0363 17.6589 37.0378C17.6125 37.0394 17.5645 37.0425 17.5181 37.0425C17.4593 37.044 17.3989 37.0456 17.3401 37.0471C17.2813 37.0471 17.2225 37.0487 17.1637 37.0487C16.6034 37.0487 16.0431 37.0069 15.4829 36.9109C15.2244 36.866 15.0139 36.637 15.0139 36.4141V30.9863C15.0139 30.7634 15.2244 30.6319 15.4829 30.6752C16.1035 30.782 16.7226 30.8207 17.3432 30.8114C17.402 30.8114 17.4608 30.8099 17.5181 30.8068C17.563 30.8068 17.6079 30.8037 17.6543 30.8021C17.6884 30.8006 17.7224 30.799 17.7565 30.7975C17.806 30.7959 17.8555 30.7928 17.905 30.7897C18.0211 30.7836 18.1372 30.7743 18.2533 30.7634C18.2858 30.7603 18.3183 30.7588 18.3508 30.7557H18.3492Z" fill="#FF7631"/>
<path id="Vector_63" d="M18.3498 36.9897C18.3142 36.9928 18.2771 36.9975 18.2415 36.999C18.2771 36.9959 18.3142 36.9928 18.3498 36.9897Z" fill="#FF7631"/>
</g>
<g id="Group_22">
<path id="Vector_64" d="M21.682 31.4209V31.6515C20.9685 31.8249 20.255 31.9843 19.5415 32.1034V31.8728C20.255 31.7537 20.9685 31.5942 21.682 31.4209Z" fill="#010102"/>
<path id="Vector_65" d="M22.6555 31.1777V31.4083C22.3305 31.4904 22.0054 31.5724 21.6804 31.6498V31.4192C22.0054 31.3402 22.3305 31.2582 22.6555 31.1777Z" fill="#112130"/>
</g>
<g id="Group_23">
<path id="Vector_66" d="M21.682 32.3136V32.5751C20.9685 32.7485 20.255 32.9079 19.5415 33.0271V32.7639C20.255 32.6448 20.9685 32.4854 21.682 32.312V32.3136Z" fill="#010102"/>
<path id="Vector_67" d="M24.57 31.5986V31.8617C23.6073 32.0846 22.6446 32.3431 21.6804 32.5768V32.3152C22.6431 32.0815 23.6058 31.823 24.57 31.6002V31.5986Z" fill="#112130"/>
</g>
<path id="Vector_68" d="M24.071 33.9395V34.5152C23.2755 34.7087 22.4784 34.9176 21.6829 35.1111V34.5353C22.4799 34.3419 23.2755 34.1329 24.071 33.9395Z" fill="#112130"/>
<path id="Vector_69" d="M29.0297 31.2372C28.926 31.279 28.8223 31.3239 28.7186 31.3688C28.6706 31.3905 28.6164 31.4013 28.5607 31.4013C28.3998 31.3982 28.2388 31.3982 28.0778 31.4013C27.8859 31.7526 27.694 32.1086 27.5021 32.4677C27.4541 32.5559 27.3071 32.542 27.3055 32.4475C27.3535 32.1086 27.3999 31.7681 27.4479 31.4292C27.0486 31.457 26.6493 31.5004 26.25 31.5576C26.168 31.7186 26.0844 31.8795 26.0024 32.0421C25.9791 32.0885 25.9048 32.0869 25.9048 32.0405C25.9296 31.8641 25.9544 31.6861 25.9776 31.5081C25.8956 31.5112 25.8151 31.5158 25.7331 31.5189C25.6944 31.522 25.6665 31.4988 25.6665 31.4663C25.6665 31.4338 25.6975 31.3967 25.7362 31.3874C25.8166 31.3657 25.8956 31.344 25.976 31.3239C25.9528 31.1583 25.9281 30.9927 25.9048 30.8286C25.9048 30.7807 25.9791 30.7528 26.0024 30.7915C26.0844 30.9246 26.1664 31.0577 26.25 31.1908C26.6493 31.1165 27.0486 31.0562 27.4479 31.0128C27.3999 30.6816 27.3535 30.352 27.3055 30.0223C27.3055 29.9279 27.4541 29.8845 27.5021 29.965C27.694 30.2916 27.8859 30.6228 28.0778 30.9587C28.2388 30.9494 28.3998 30.9416 28.5607 30.9385C28.6164 30.9385 28.6706 30.9494 28.7186 30.9726C28.8223 31.0206 28.926 31.0701 29.0297 31.1212C29.0823 31.1475 29.0823 31.2125 29.0297 31.2341V31.2372Z" fill="#112130"/>
</g>
<path id="Vector_70" d="M21.6822 34.5381V35.1138C20.9687 35.2872 20.2552 35.4466 19.5417 35.5658V34.99C20.2552 34.8708 20.9687 34.7114 21.6822 34.5381Z" fill="#010102"/>
</g>
<g id="Group_24">
<path id="Vector_71" d="M29.7515 36.6239H34.3033L34.003 35.2124H30.2514L29.7515 36.6239Z" fill="#EA8B0F"/>
<path id="Vector_72" d="M26.1887 43.4745H37.7856C38.2314 43.4745 38.6183 43.1139 38.6492 42.6681L39.0176 37.4338C39.0485 36.9881 38.7127 36.6274 38.267 36.6274H26.67C26.2243 36.6274 25.8373 36.9881 25.8064 37.4338L25.438 42.6681C25.4071 43.1139 25.7429 43.4745 26.1887 43.4745Z" fill="#FF7631"/>
<path id="Vector_73" d="M26.2046 43.4745H26.8268C27.141 43.4745 27.4149 43.2191 27.4366 42.9049L27.839 37.197C27.8607 36.8828 27.6239 36.6274 27.3097 36.6274H26.6736C26.2278 36.6274 25.8409 36.9881 25.8099 37.4338L25.4416 42.6542C25.4091 43.1077 25.7511 43.476 26.2046 43.476V43.4745Z" fill="#C44B0E"/>
<path id="Vector_74" d="M31.7992 40.0473C31.7497 40.7392 31.9339 41.3691 32.2728 41.838C32.4771 42.1228 32.7402 42.3472 33.042 42.4927C33.316 42.3705 33.5698 42.1894 33.7896 41.965C33.8298 41.9247 33.867 41.8829 33.9041 41.8396C34.3096 41.3706 34.582 40.7407 34.63 40.0489C34.6795 39.3571 34.4953 38.7272 34.1564 38.2566C34.1254 38.2133 34.0929 38.1715 34.0589 38.1328C33.8701 37.9069 33.6425 37.7258 33.3856 37.6035C33.0622 37.7475 32.7696 37.9734 32.5236 38.2582C32.1181 38.7271 31.8457 39.3571 31.7977 40.0489L31.7992 40.0473Z" fill="#C44B0E"/>
<path id="Vector_75" d="M27.394 40.5328H39.0545L39.1551 39.0996H27.4946L27.394 40.5328Z" fill="#EBAC4B"/>
<path id="Vector_76" d="M25.2434 40.5328H27.3947L27.4953 39.0996H25.344L25.2434 40.5328Z" fill="#EA8B0F"/>
<g id="Group_25">
<path id="Vector_77" d="M30.6382 40.0498C30.5856 40.8005 30.7852 41.483 31.1521 41.9907C31.3734 42.2987 31.6597 42.5432 31.9863 42.6995C32.2107 42.8063 32.4537 42.8729 32.7137 42.8914C32.7617 42.8945 32.8096 42.8961 32.8576 42.8961C34.1948 42.8961 35.368 41.6223 35.4794 40.0498C35.5909 38.4774 34.5957 37.2036 33.2585 37.2036C33.2105 37.2036 33.161 37.2052 33.113 37.2083C32.8514 37.2268 32.5992 37.2918 32.3593 37.4002C32.0095 37.5565 31.6907 37.801 31.4244 38.109C30.9849 38.6182 30.6908 39.3008 30.6367 40.0514L30.6382 40.0498Z" fill="#AFA5FF"/>
<path id="Vector_78" d="M30.3492 40.0499C30.2966 40.8006 30.4947 41.4831 30.863 41.9908C31.0844 42.2987 31.3691 42.5433 31.6973 42.6996C31.9635 42.8265 32.256 42.8962 32.5686 42.8962C32.6166 42.8962 32.6661 42.8946 32.7141 42.8915C32.4556 42.8729 32.2111 42.8079 31.9867 42.6996C31.6586 42.5433 31.3738 42.2987 31.1525 41.9908C30.7857 41.4831 30.586 40.799 30.6386 40.0499C30.6912 39.3008 30.9869 38.6168 31.4264 38.1076C31.6926 37.7996 32.0114 37.555 32.3612 37.3987C32.6011 37.2919 32.8534 37.2254 33.115 37.2068C33.067 37.2037 33.019 37.2021 32.971 37.2021C32.6584 37.2021 32.355 37.2718 32.0718 37.3987C31.722 37.555 31.4032 37.7996 31.137 38.1076C30.6974 38.6168 30.4034 39.2993 30.3492 40.0499Z" fill="#6D69B5"/>
<path id="Vector_79" d="M30.9546 40.0513C30.8524 41.5015 31.7686 42.6777 33.0022 42.6777H33.8457C33.5578 42.6777 33.2869 42.6143 33.0424 42.4966C32.7406 42.3527 32.4775 42.1267 32.2732 41.842C31.9343 41.373 31.7501 40.7431 31.7996 40.0513C31.8491 39.3594 32.1215 38.7295 32.5255 38.2606C32.7716 37.9758 33.0641 37.7514 33.3875 37.6059C33.6491 37.4883 33.9292 37.4248 34.2171 37.4248H33.3736C32.1401 37.4248 31.0582 38.6011 30.9561 40.0513H30.9546Z" fill="#6D69B5"/>
<path id="Vector_80" d="M31.7995 40.0513C31.7499 40.7431 31.9341 41.373 32.2731 41.842C32.4774 42.1267 32.7405 42.3512 33.0423 42.4966C33.2868 42.6143 33.5577 42.6777 33.8455 42.6777C35.0791 42.6777 36.1609 41.5015 36.2631 40.0513C36.3652 38.6011 35.449 37.4248 34.2154 37.4248C33.9276 37.4248 33.6474 37.4883 33.3859 37.6059C33.0624 37.7498 32.7699 37.9758 32.5238 38.2606C32.1183 38.7295 31.8459 39.3594 31.7979 40.0513H31.7995ZM32.4 40.0513C32.4712 39.0313 33.2048 38.1987 34.0622 38.1352C34.0978 38.1321 34.1319 38.1306 34.1675 38.1306C35.0698 38.1306 35.7399 38.9895 35.6656 40.0513C35.5914 41.1114 34.7989 41.972 33.8982 41.972C33.8626 41.972 33.827 41.9704 33.7929 41.9673C32.9448 41.9039 32.3303 41.0697 32.4015 40.0513H32.4Z" fill="#AFA5FF"/>
<path id="Vector_81" d="M32.4007 40.051C32.3836 40.2893 32.4038 40.5184 32.4579 40.7289C32.5059 40.9239 32.5817 41.1019 32.6808 41.2613C32.7241 41.3309 32.7721 41.3975 32.8247 41.4594C33.094 41.7767 33.4701 41.9717 33.8988 41.9717C34.0381 41.9717 34.1743 41.9516 34.3059 41.9129C35.0271 41.7024 35.6044 40.9487 35.6679 40.051C35.6772 39.9287 35.6756 39.8095 35.6648 39.6935C35.6075 39.0465 35.2655 38.5141 34.7764 38.2727C34.7083 38.2386 34.6371 38.2108 34.5628 38.1891C34.439 38.152 34.3074 38.1318 34.1697 38.1318C34.1279 38.1318 34.0877 38.1334 34.0459 38.138C33.1962 38.2123 32.4734 39.0403 32.4022 40.0525L32.4007 40.051Z" fill="#C3C0FF"/>
</g>
<path id="Vector_82" d="M37.9132 37.9337C38.1081 37.7455 38.1237 37.4454 37.948 37.2633C37.7723 37.0813 37.4718 37.0863 37.2768 37.2745C37.0819 37.4627 37.0663 37.7628 37.242 37.9448C37.4177 38.1269 37.7182 38.1219 37.9132 37.9337Z" fill="#C44B0E"/>
<path id="Vector_83" d="M31.3538 36.6239H35.9056L35.6053 35.2124H31.8537L31.3538 36.6239Z" fill="#EBAC4B"/>
<path id="Vector_84" d="M28.0288 36.6249H28.942L28.9791 36.0879H28.066L28.0288 36.6249Z" fill="#223544"/>
<path id="Vector_85" d="M27.844 36.2709H29.175L29.2168 35.6704H27.8858L27.844 36.2709Z" fill="#112130"/>
<path id="Vector_86" d="M32.8218 41.455C33.0911 41.7723 33.4672 41.9673 33.8959 41.9673C34.0352 41.9673 34.1714 41.9472 34.303 41.9085L35.6618 39.6891C35.6046 39.0421 35.2625 38.5097 34.7735 38.2683L32.8233 41.455H32.8218ZM32.4565 40.7245C32.5045 40.9195 32.5804 41.0975 32.6794 41.2569L34.5599 38.1847C34.4361 38.1476 34.3045 38.1274 34.1668 38.1274C34.125 38.1274 34.0847 38.129 34.0429 38.1336L32.4565 40.726V40.7245Z" fill="white"/>
</g>
</g>
<path id="Vector_87" d="M49.668 23.1214L49.6711 23.1307C49.685 23.1694 49.6664 23.2112 49.6308 23.2282C49.2656 23.4015 49.0922 23.8674 49.2238 24.3255C49.2346 24.3658 49.2129 24.406 49.1743 24.4199C49.1356 24.4339 49.0922 24.4153 49.0752 24.3781C48.8879 23.9401 48.4577 23.6894 48.0645 23.7854C48.0243 23.7947 47.9841 23.773 47.9701 23.7359L47.967 23.7266C47.9531 23.6879 47.9717 23.6461 48.0073 23.6291C48.3725 23.4557 48.5474 22.9899 48.4159 22.5302C48.405 22.4899 48.4267 22.4497 48.4654 22.4358C48.5041 22.4218 48.5474 22.4404 48.5645 22.4776C48.7517 22.9156 49.182 23.1678 49.5751 23.0703C49.6154 23.0611 49.6556 23.0827 49.6695 23.1199L49.668 23.1214Z" fill="white"/>
<path id="Vector_88" d="M18.116 16.6475C16.6937 16.8147 15.2435 16.9679 13.784 17.0964C12.7966 17.1799 11.8215 17.2511 10.8805 17.3069C9.23993 17.4059 7.70616 17.4616 6.40144 17.4663C6.3256 17.4663 6.24977 17.4663 6.17393 17.4663C3.9344 17.4663 2.53372 17.3223 1.65927 17.1103C0.500037 16.8302 0.267881 16.4324 0.238475 16.0965C0.188948 15.5394 0.84208 15.0549 1.82023 14.6216L1.78773 15.1199C1.12222 15.4279 0.648617 15.7545 0.676476 16.0579C0.698144 16.2931 1.02781 16.502 1.68713 16.6661C3.12804 17.0236 6.13678 17.1614 10.9084 16.8658C11.7921 16.8116 12.7393 16.7419 13.7453 16.6568C15.1862 16.5315 16.6209 16.3798 18.0278 16.2157C18.0541 16.3597 18.0835 16.5036 18.1145 16.6491L18.116 16.6475Z" fill="#EBAC4B"/>
<path id="Vector_89" d="M51.9647 36.505C51.9647 37.3083 51.1104 38.0574 49.3738 38.7647C48.4112 39.1562 47.1761 39.5385 45.664 39.9084C41.2685 40.9872 38.7798 42.2594 37.3915 43.4372C36.5836 44.1213 36.1487 44.7744 35.9258 45.3378C35.3857 46.7075 36.0156 47.6996 36.0419 47.7414L35.6751 47.9844C35.6426 47.9364 34.8919 46.7725 35.511 45.1892C35.7509 44.5732 36.1549 43.9897 36.7213 43.4372C38.3449 41.8508 41.3041 40.526 45.5587 39.4813C47.286 39.0572 48.5242 38.6486 49.4079 38.2694C51.1785 37.5126 51.5236 36.8811 51.5252 36.5035C51.5252 35.8674 50.6677 35.2684 49.6462 34.7886L49.6787 34.3135C50.8627 34.8521 51.9662 35.5981 51.9662 36.5035L51.9647 36.505Z" fill="#EBAC4B"/>
</g>
</g>
</g>
</g>
<defs>
<clipPath id="clip0_6694_10478">
<rect width="51.9302" height="47.9789" fill="white" transform="translate(0.0349121 0.0102539)"/>
</clipPath>
</defs>
</svg>
