<svg width="18" height="18" viewBox="0 0 18 18" fill="none" xmlns="http://www.w3.org/2000/svg">
<g clip-path="url(#clip0_1648_21242)">
<path d="M7.8129 6.79152L5.69678 0.977516L7.28246 0.400391L10.9843 5.63755L7.8129 6.79152Z" fill="#596173"/>
<path d="M1.34961 7.94643L14.0559 3.32184C14.3771 3.20484 14.734 3.24028 15.026 3.41803L16.102 4.07334C16.6859 3.861 17.3316 4.16193 17.544 4.74581C17.7566 5.32968 17.4557 5.97515 16.8715 6.18778L7.88586 9.45815L1.92673 9.53212L1.34961 7.94643Z" fill="#0A2922"/>
<path d="M1.44516 4.91797L0.387939 5.30272L1.34981 7.94562L3.46425 7.17612L1.44516 4.91797Z" fill="#596173"/>
<path d="M8.19775 7.84761L10.3136 13.6619L11.8998 13.0848L11.3688 6.69336L8.19775 7.84761Z" fill="#596173"/>
<path d="M15.6458 3.64253L14.3242 4.12305L14.5164 4.65168L15.838 4.17117L15.6458 3.64253Z" fill="white"/>
<path d="M13.0019 4.6027L12.4736 4.79492L12.6659 5.32324L13.1942 5.13102L13.0019 4.6027Z" fill="white"/>
<path d="M11.9448 4.98746L11.4165 5.17969L11.6087 5.708L12.137 5.51578L11.9448 4.98746Z" fill="white"/>
<path d="M10.8879 5.37223L10.3596 5.56445L10.5518 6.09277L11.0802 5.90055L10.8879 5.37223Z" fill="white"/>
<path d="M9.83081 5.757L9.30249 5.94922L9.49471 6.47754L10.023 6.28531L9.83081 5.757Z" fill="white"/>
<path d="M8.77368 6.14176L8.24536 6.33398L8.43758 6.8623L8.9659 6.67008L8.77368 6.14176Z" fill="white"/>
<path d="M7.71631 6.52653L7.18799 6.71875L7.38021 7.24707L7.90853 7.05484L7.71631 6.52653Z" fill="white"/>
<path d="M6.65918 6.91129L6.13086 7.10352L6.32308 7.63183L6.8514 7.43961L6.65918 6.91129Z" fill="white"/>
<path d="M5.6025 7.29769L5.07397 7.49023L5.26652 8.01876L5.79504 7.82622L5.6025 7.29769Z" fill="white"/>
<path d="M4.54513 7.68246L4.0166 7.875L4.20915 8.40352L4.73767 8.21098L4.54513 7.68246Z" fill="white"/>
<path d="M10.125 15.1875H5.34375C4.41309 15.1875 3.65625 14.4307 3.65625 13.5C3.65625 12.5693 4.41309 11.8125 5.34375 11.8125H7.3125V12.375H5.34375C4.72331 12.375 4.21875 12.8796 4.21875 13.5C4.21875 14.1204 4.72331 14.625 5.34375 14.625H10.125V15.1875Z" fill="#596173"/>
<path d="M11.25 14.625H10.6875V15.1875H11.25V14.625Z" fill="#596173"/>
<path d="M14.2031 17.1562H5.34375V16.5938H14.2031C14.591 16.5938 14.9062 16.2782 14.9062 15.8906C14.9062 15.5031 14.591 15.1875 14.2031 15.1875H11.8125V14.625H14.2031C14.9009 14.625 15.4688 15.1928 15.4688 15.8906C15.4688 16.5884 14.9009 17.1562 14.2031 17.1562Z" fill="#596173"/>
<path d="M4.78125 16.5938H1.96875V17.1562H4.78125V16.5938Z" fill="#596173"/>
<path d="M1.40625 17.7188C1.87224 17.7188 2.25 17.341 2.25 16.875C2.25 16.409 1.87224 16.0312 1.40625 16.0312C0.94026 16.0312 0.5625 16.409 0.5625 16.875C0.5625 17.341 0.94026 17.7188 1.40625 17.7188Z" fill="#596173"/>
<path d="M7.875 12.9375C8.34099 12.9375 8.71875 12.5597 8.71875 12.0938C8.71875 11.6278 8.34099 11.25 7.875 11.25C7.40901 11.25 7.03125 11.6278 7.03125 12.0938C7.03125 12.5597 7.40901 12.9375 7.875 12.9375Z" fill="#596173"/>
</g>
<defs>
<clipPath id="clip0_1648_21242">
<rect width="18" height="18" fill="white"/>
</clipPath>
</defs>
</svg>
