<svg width="120" height="120" viewBox="0 0 120 120" fill="none" xmlns="http://www.w3.org/2000/svg">
<g clip-path="url(#clip0_1648_18856)">
<path d="M98.5687 120.001H21.4312C19.8119 120.001 18.3522 119.025 17.7341 117.528L12.4141 104.648C11.3275 102.018 13.2651 99.1211 16.1111 99.1211H103.889C106.735 99.1211 108.672 102.018 107.586 104.648L102.265 117.528C101.648 119.025 100.188 120.001 98.5687 120.001Z" fill="#CB4B01"/>
<path d="M103.889 99.1211H60V120.001H98.5687C100.188 120.001 101.648 119.025 102.266 117.528L107.586 104.648C108.672 102.018 106.735 99.1211 103.889 99.1211Z" fill="#983801"/>
<path d="M114.7 107.122H5.29939C3.09041 107.122 1.29932 105.331 1.29932 103.122V84.9923C1.29932 82.7833 3.09018 80.9922 5.29939 80.9922H114.7C116.909 80.9922 118.701 82.7831 118.701 84.9923V103.122C118.701 105.331 116.909 107.122 114.7 107.122Z" fill="#983801"/>
<path d="M114.701 80.9922H60V107.121H114.701C116.91 107.121 118.701 105.331 118.701 103.121V84.992C118.701 82.7833 116.91 80.9922 114.701 80.9922Z" fill="#662600"/>
<rect x="58" y="58" width="4" height="23" fill="#662600"/>
</g>
<defs>
<clipPath id="clip0_1648_18856">
<rect width="120" height="120" fill="white"/>
</clipPath>
</defs>
</svg>
