<svg width="16" height="16" viewBox="0 0 16 16" fill="none" xmlns="http://www.w3.org/2000/svg">
<path d="M10.794 1.33203H5.20732C2.78065 1.33203 1.33398 2.7787 1.33398 5.20536V10.7854C1.33398 13.2187 2.78065 14.6654 5.20732 14.6654H10.7873C13.214 14.6654 14.6607 13.2187 14.6607 10.792V5.20536C14.6673 2.7787 13.2207 1.33203 10.794 1.33203ZM11.254 9.55203C11.254 9.61203 11.2407 9.67203 11.2207 9.73203C11.174 9.84537 11.0807 9.9387 10.9673 9.98536C10.9073 10.012 10.8473 10.0187 10.7873 10.0187H9.54732C9.28732 10.0187 9.08065 9.81203 9.08065 9.55203C9.08065 9.29203 9.28732 9.08536 9.54732 9.08536H9.66732L8.26065 7.6787L7.58065 8.69203C7.50065 8.80536 7.38065 8.88537 7.24065 8.8987C7.10065 8.91203 6.96732 8.86536 6.86732 8.76536L4.88065 6.7787C4.70065 6.5987 4.70065 6.30537 4.88065 6.1187C5.06065 5.93203 5.35398 5.9387 5.54065 6.1187L7.12732 7.70537L7.80732 6.69203C7.88732 6.5787 8.00732 6.4987 8.14732 6.48536C8.29398 6.47203 8.42065 6.5187 8.52065 6.6187L10.334 8.43203V8.31203C10.334 8.05203 10.5407 7.84537 10.8007 7.84537C11.0607 7.84537 11.2673 8.05203 11.2673 8.31203V9.55203H11.254Z" fill="#1F92D0"/>
</svg>
