<svg width="48" height="48" viewBox="0 0 48 48" fill="none" xmlns="http://www.w3.org/2000/svg">
<g id="picture-photo-svgrepo-com (1) 1" clip-path="url(#clip0_2537_83726)">
<path id="Vector" d="M43.4734 6.02344H4.52626C3.69863 6.02344 3.02832 6.69375 3.02832 7.52138V40.4766C3.02832 41.3043 3.69863 41.9746 4.52626 41.9746H43.4734C44.301 41.9746 44.9713 41.3043 44.9713 40.4766V7.52138C44.9713 6.69375 44.3002 6.02344 43.4734 6.02344ZM41.9754 38.9787H6.0242V9.01932H41.9754V38.9787Z" fill="#E2E4E9"/>
<path id="Vector_2" d="M41.9727 9.01758H6.02148V38.977H41.9727V9.01758Z" fill="#ADEBDD"/>
<g id="Group">
<path id="Vector_3" d="M6.02441 33.3617L11.4845 25.7745C11.9684 25.1035 12.9046 24.9514 13.5757 25.4353C13.7263 25.5438 13.8551 25.6794 13.9561 25.8344L22.502 38.9791H6.02441V33.3617Z" fill="#1A473F"/>
<path id="Vector_4" d="M41.9757 38.9792H24L33.2125 25.1679C33.6648 24.4751 34.5928 24.2797 35.2856 24.732C35.4594 24.8458 35.6084 24.9941 35.7216 25.1679L41.9756 35.0471V38.9792H41.9757Z" fill="#1A473F"/>
</g>
<path id="Vector_5" d="M32.9356 29.0847L38.2309 38.9789H36.733L30.9658 28.4931C31.6436 28.1036 32.5088 28.3373 32.8982 29.0158C32.9109 29.0382 32.9236 29.0607 32.9356 29.0847Z" fill="#051513"/>
<path id="Vector_6" d="M12.7656 38.9788L23.4386 19.6326C23.8393 18.909 24.7508 18.6462 25.4743 19.0468C25.7207 19.1832 25.9236 19.3861 26.0601 19.6326L36.733 38.9788H12.7656Z" fill="#1A473F"/>
<path id="Vector_7" d="M17.2588 30.8766C18.1059 30.4063 19.1739 30.6992 19.663 31.5357L23.9996 38.9806H22.5017L17.2588 30.8766Z" fill="#051513"/>
<g id="Group_2">
<path id="Vector_8" d="M41.6388 6.02354L41.0995 3.4695C40.9475 2.65613 40.1656 2.11988 39.3521 2.27184C39.3401 2.27409 39.3281 2.27634 39.317 2.27859L21.873 6.02354H41.6388Z" fill="#D6F5EE"/>
<path id="Vector_9" d="M3.02848 10.0312L1.22341 10.4132C0.410032 10.5653 -0.126219 11.3471 0.0257503 12.1606C0.0280003 12.1726 0.0302503 12.1846 0.0325003 12.1958L3.02848 26.2018V10.0312Z" fill="#D6F5EE"/>
<path id="Vector_10" d="M6.36133 41.9746L6.90058 44.5286C7.05264 45.342 7.83452 45.8783 8.64799 45.7263C8.65999 45.7241 8.67199 45.7218 8.68315 45.7196L26.127 41.9746H6.36133Z" fill="#D6F5EE"/>
<path id="Vector_11" d="M47.9677 35.8029L44.9717 21.7969V37.9675L46.7767 37.5855C47.5901 37.4335 48.1264 36.6516 47.9744 35.8381C47.9722 35.8261 47.9699 35.8141 47.9677 35.8029Z" fill="#D6F5EE"/>
</g>
<g id="Group_3">
<path id="Vector_12" d="M30.7408 15.0124C30.7408 14.1847 30.0705 13.5144 29.2437 13.5137C28.6565 13.5137 28.1232 13.856 27.8798 14.3907C27.3293 14.1038 26.6507 14.3173 26.3638 14.8678C26.077 15.4183 26.2904 16.0969 26.8409 16.3837C27.0042 16.4691 27.1862 16.5126 27.3704 16.5111H30.7408C31.1543 16.5111 31.4898 16.1755 31.4898 15.7621C31.4898 15.3486 31.1543 15.0124 30.7408 15.0124Z" fill="white"/>
<path id="Vector_13" d="M38.2311 17.2585C38.2311 16.4308 37.5608 15.7605 36.7339 15.7598C36.1467 15.7598 35.6134 16.102 35.37 16.6368C34.8195 16.3499 34.1409 16.5634 33.8541 17.1139C33.5672 17.6644 33.7807 18.343 34.3312 18.6298C34.4945 18.7152 34.6764 18.7586 34.8607 18.7571H38.2311C38.6445 18.7571 38.98 18.4216 38.98 18.0082C38.98 17.5947 38.6445 17.2585 38.2311 17.2585Z" fill="white"/>
</g>
<path id="Vector_14" d="M17.2593 15.7605H16.5103H16.4129C16.3357 15.4969 16.2219 15.2444 16.0759 15.0115C16.1044 14.9935 16.132 14.9733 16.1583 14.9516L16.69 14.4198C16.9589 14.1061 16.9222 13.6326 16.6084 13.3638C16.3282 13.1233 15.9141 13.1233 15.6339 13.3638L15.1022 13.8955C15.0804 13.9218 15.0603 13.9494 15.0423 13.9779C14.7996 13.8318 14.5374 13.721 14.2633 13.6484C14.2678 13.6035 14.2678 13.5585 14.2633 13.5136V12.7646C14.2633 12.3512 13.9278 12.0156 13.5143 12.0156C13.1009 12.0156 12.7654 12.3512 12.7654 12.7646V13.5136C12.7631 13.5458 12.7631 13.5787 12.7654 13.611C12.483 13.6829 12.2126 13.7967 11.964 13.948C11.946 13.9165 11.9266 13.8866 11.9041 13.8581L11.3723 13.3263C11.0585 13.0575 10.5851 13.0941 10.3162 13.408C10.0758 13.6881 10.0758 14.1023 10.3162 14.3824L10.848 14.9142C10.8765 14.9367 10.9064 14.9561 10.9379 14.9741C10.7866 15.2227 10.6728 15.4931 10.6009 15.7755L10.5184 15.7605H9.76948C9.35604 15.7605 9.02051 16.096 9.02051 16.5094C9.02051 16.9229 9.35604 17.2584 9.76948 17.2584H10.5184H10.6159C10.6878 17.5408 10.8016 17.8112 10.9529 18.0598C10.9214 18.0778 10.8915 18.0972 10.863 18.1197L10.3312 18.6515C10.0174 18.9203 9.9807 19.3937 10.2496 19.7075C10.5184 20.0213 10.9918 20.0581 11.3057 19.7892C11.3349 19.7645 11.3626 19.7368 11.3873 19.7075L11.9191 19.1758C11.9536 19.1563 11.9857 19.1339 12.0165 19.1084C12.2651 19.2597 12.5355 19.3735 12.8179 19.4454C12.7991 19.4642 12.782 19.4843 12.7655 19.5053V20.2543C12.7655 20.6677 13.101 21.0033 13.5144 21.0033C13.9279 21.0033 14.2634 20.6677 14.2634 20.2543V19.5053C14.2656 19.4731 14.2656 19.4402 14.2634 19.4079C14.5255 19.3428 14.778 19.2424 15.0124 19.1083C15.0304 19.1398 15.0498 19.1697 15.0723 19.1982L15.604 19.73C15.9178 19.9988 16.3912 19.9622 16.6601 19.6483C16.9006 19.3682 16.9006 18.954 16.6601 18.6739L16.1284 18.1421C16.0999 18.1196 16.07 18.1002 16.0385 18.0822C16.2048 17.8283 16.3313 17.5504 16.413 17.2583H16.5104H17.2594C17.6728 17.2583 18.0083 16.9228 18.0083 16.5094C18.0082 16.096 17.6727 15.7605 17.2593 15.7605Z" fill="#FE5E02"/>
<path id="Vector_15" d="M18.9221 43.5116L25.9626 42.0137H6.36914L6.69117 43.5116H18.9221Z" fill="#84E1CB"/>
<g id="Group_4">
<path id="Vector_16" d="M43.4735 9.01943V39.7278C43.4735 40.1412 43.1379 40.4767 42.7245 40.4767H6.02431C5.19668 40.4767 4.52637 41.1471 4.52637 41.9747H43.4735C44.3011 41.9747 44.9714 41.3044 44.9714 40.4767V7.52148C44.1438 7.52148 43.4735 8.1918 43.4735 9.01943Z" fill="#E2E4E9"/>
<path id="Vector_17" d="M6.02431 38.9788V9.01943H41.9755C41.9755 8.1918 41.3052 7.52148 40.4776 7.52148H5.27534C4.8619 7.52148 4.52637 7.85702 4.52637 8.27045V37.4808C4.52637 38.3077 5.19668 38.9788 6.02431 38.9788Z" fill="#E2E4E9"/>
</g>
</g>
<defs>
<clipPath id="clip0_2537_83726">
<rect width="48" height="48" fill="white"/>
</clipPath>
</defs>
</svg>
