<svg width="18" height="18" viewBox="0 0 18 18" fill="none" xmlns="http://www.w3.org/2000/svg">
<path d="M13.358 7.91596H2.05068L2.05029 7.91558C2.08225 7.88675 2.11227 7.85599 2.14068 7.824C2.26306 7.68544 2.35383 7.51965 2.40396 7.33729L2.62148 6.54821C2.95307 5.34267 4.04924 4.50781 5.29901 4.50781H9.9885C10.9252 4.50781 11.7877 4.9286 12.3644 5.61741C12.6092 5.90914 12.8022 6.24938 12.9277 6.62636L13.2282 7.52636L13.2285 7.52714L13.358 7.91596Z" fill="#F1F2F4"/>
<path d="M8.97319 7.79894H6.46265L8.89268 4.39075L8.90098 4.37891L8.90137 4.39075L8.97319 7.79894Z" fill="white"/>
<path d="M13.2364 7.79855H10.7258L12.3644 5.5C12.6091 5.79173 12.8022 6.13197 12.9277 6.50895L13.2281 7.40895L13.2285 7.40972L13.2364 7.79855Z" fill="white"/>
<path d="M5.29905 4.91797V7.798H3.24561L5.29905 4.91797Z" fill="white"/>
<path d="M13.8698 8.98374L13.6492 7.74585C13.6468 7.73204 13.6433 7.71783 13.6385 7.7044L13.2082 6.4148C12.746 5.02652 11.4516 4.09375 9.98834 4.09375H5.29885C5.01781 4.09375 4.74345 4.13242 4.48174 4.20505C3.45898 4.48887 2.62686 5.29297 2.33595 6.35166L2.11844 7.14074C2.08092 7.27652 1.75408 7.80787 1.75488 7.8181L1.7924 8.91431L1.79556 9.00666C1.80108 9.16574 1.93133 9.29206 2.09042 9.29245L3.19411 9.29638H3.1945L13.5773 9.33193H13.5785C13.6658 9.33193 13.7491 9.29325 13.8051 9.22653C13.8616 9.15899 13.8852 9.07019 13.8698 8.98374ZM3.34412 8.70428L2.37782 8.70112L2.35096 7.91481C2.35451 7.91088 2.35806 7.9069 2.362 7.90258C2.362 7.90258 2.36238 7.90219 2.36238 7.9018C2.51514 7.72891 2.62806 7.52008 2.68923 7.29786L2.90674 6.50877C3.10963 5.77179 3.63662 5.18757 4.30769 4.89348C4.61361 4.75968 4.94992 4.68585 5.29888 4.68585H9.98837C11.1967 4.68585 12.2648 5.45599 12.647 6.6019L13.0701 7.8714L13.2249 8.73863L3.34412 8.70428Z" fill="#596173"/>
<path d="M17.4084 9.49638L17.0678 11.4061L16.9004 12.3437H1.38947C1.13684 12.3437 0.932373 12.1392 0.932373 11.8866V9.16324C0.932373 8.66666 1.23159 8.21902 1.69027 8.02917C1.8245 7.97391 1.94568 7.89537 2.05027 7.79943L2.05066 7.79981H5.00607V4.40625H5.59817V7.79981H8.60765V4.46939H9.19975V7.79981H13.3579L16.2581 8.01455C17.005 8.06981 17.5403 8.75902 17.4084 9.49638Z" fill="#596173"/>
<path d="M2.07713 11.884V9.16069C2.07713 8.66411 2.37635 8.21647 2.83503 8.02662C2.96904 7.97143 3.09002 7.89299 3.19457 7.79726H2.05066L2.05027 7.79688C1.94568 7.89278 1.82446 7.97136 1.69027 8.02662C1.23159 8.2165 0.932373 8.66411 0.932373 9.16069V11.884C0.932373 12.1364 1.13702 12.3411 1.38947 12.3411H2.53423C2.28174 12.3411 2.07713 12.1364 2.07713 11.884Z" fill="#0A2922"/>
<path d="M16.4053 10.4955C16.388 10.4955 16.3706 10.494 16.353 10.4909C16.192 10.4621 16.0848 10.3083 16.1135 10.1474L16.2671 9.28705C16.2959 9.12607 16.4496 9.01888 16.6107 9.04763C16.7716 9.07636 16.8788 9.23016 16.8501 9.39114L16.6965 10.2515C16.6708 10.3948 16.5461 10.4955 16.4053 10.4955Z" fill="white"/>
<path d="M17.0678 11.4023L16.9004 12.3399H1.38947C1.13684 12.3399 0.932373 12.1354 0.932373 11.8828V11.4023H17.0678Z" fill="#0A2922"/>
<path d="M17.3007 11.6898H15.7379C15.5744 11.6898 15.4419 11.5572 15.4419 11.3937C15.4419 11.2302 15.5744 11.0977 15.7379 11.0977H17.3007C17.4642 11.0977 17.5967 11.2302 17.5967 11.3937C17.5967 11.5572 17.4642 11.6898 17.3007 11.6898Z" fill="#FCFCFD"/>
<path d="M2.26107 11.6898H0.678619C0.515107 11.6898 0.382568 11.5572 0.382568 11.3937C0.382568 11.2302 0.515107 11.0977 0.678619 11.0977H2.26107C2.42458 11.0977 2.55712 11.2302 2.55712 11.3937C2.55712 11.5572 2.42458 11.6898 2.26107 11.6898Z" fill="#FCFCFD"/>
<path d="M15.197 9.98234C15.3496 9.98234 15.4733 9.85863 15.4733 9.70602C15.4733 9.5534 15.3496 9.42969 15.197 9.42969C15.0444 9.42969 14.9207 9.5534 14.9207 9.70602C14.9207 9.85863 15.0444 9.98234 15.197 9.98234Z" fill="white"/>
<path d="M15.9961 12.1739C15.9987 12.1338 16 12.0932 16 12.0526C16 11.0225 15.1649 10.1875 14.1349 10.1875C13.1044 10.1875 12.2693 11.0226 12.2693 12.0526C12.2693 12.0932 12.2706 12.1338 12.2732 12.1739C12.3356 13.1477 13.1449 13.9182 14.1348 13.9182C15.1244 13.9182 15.9337 13.1477 15.9961 12.1739Z" fill="#667085"/>
<path d="M14.1346 12.8195C13.7126 12.8195 13.3694 12.4762 13.3694 12.0543C13.3694 11.6323 13.7127 11.2891 14.1346 11.2891C14.5565 11.2891 14.8998 11.6323 14.8998 12.0543C14.8998 12.4762 14.5565 12.8195 14.1346 12.8195Z" fill="#FCFCFD"/>
<path d="M14.1347 12.9725C13.6286 12.9725 13.2168 12.5608 13.2168 12.0546C13.2168 11.5485 13.6286 11.1367 14.1347 11.1367C14.6409 11.1367 15.0526 11.5485 15.0526 12.0546C15.0526 12.5608 14.6408 12.9725 14.1347 12.9725ZM14.1347 11.4421C13.797 11.4421 13.5222 11.7169 13.5222 12.0546C13.5222 12.3924 13.797 12.6672 14.1347 12.6672C14.4724 12.6672 14.7472 12.3924 14.7472 12.0546C14.7472 11.7169 14.4724 11.4421 14.1347 11.4421Z" fill="#0A2922"/>
<path d="M5.73288 12.1739C5.73548 12.1338 5.73678 12.0932 5.73678 12.0526C5.73678 11.0225 4.90171 10.1875 3.87167 10.1875C2.84117 10.1875 2.0061 11.0226 2.0061 12.0526C2.0061 12.0932 2.0074 12.1338 2.01001 12.1739C2.07241 13.1477 2.88171 13.9182 3.87163 13.9182C4.86114 13.9182 5.67047 13.1477 5.73288 12.1739Z" fill="#667085"/>
<path d="M3.87141 12.8195C3.44943 12.8195 3.1062 12.4762 3.1062 12.0543C3.1062 11.6323 3.44947 11.2891 3.87141 11.2891C4.29332 11.2891 4.63659 11.6323 4.63659 12.0543C4.63659 12.4762 4.29332 12.8195 3.87141 12.8195Z" fill="#FCFCFD"/>
<path d="M3.87154 12.9725C3.3654 12.9725 2.95361 12.5608 2.95361 12.0546C2.95361 11.5485 3.3654 11.1367 3.87154 11.1367C4.37769 11.1367 4.7894 11.5485 4.7894 12.0546C4.7894 12.5608 4.37765 12.9725 3.87154 12.9725ZM3.87154 11.4421C3.5338 11.4421 3.25902 11.7169 3.25902 12.0546C3.25902 12.3924 3.5338 12.6672 3.87154 12.6672C4.20925 12.6672 4.48404 12.3924 4.48404 12.0546C4.48404 11.7169 4.20925 11.4421 3.87154 11.4421Z" fill="#0A2922"/>
<path d="M4.48186 4.20312L4.30776 4.89155C3.6367 5.18564 3.10974 5.76986 2.90682 6.50684L2.68931 7.29593C2.62814 7.51815 2.51522 7.72698 2.36246 7.89987C2.36246 7.90026 2.36208 7.90065 2.36208 7.90065C2.35814 7.90501 2.35459 7.90895 2.35104 7.91288L1.79247 8.91237L1.15601 8.45302C1.15523 8.44276 2.081 7.43525 2.11851 7.13881L2.33603 6.34973C2.62694 5.29103 3.45906 4.48694 4.48186 4.20312Z" fill="#0A2922"/>
</svg>
