<svg width="14" height="14" viewBox="0 0 14 14" fill="none" xmlns="http://www.w3.org/2000/svg">
<path d="M12.5766 6.26581L11.7833 5.34414C11.6316 5.16914 11.5091 4.84247 11.5091 4.60914V3.61747C11.5091 2.99914 11.0016 2.49164 10.3833 2.49164H9.39164C9.16414 2.49164 8.83164 2.36914 8.65664 2.21747L7.73497 1.42414C7.33247 1.07997 6.67331 1.07997 6.26497 1.42414L5.34914 2.22331C5.17414 2.36914 4.84164 2.49164 4.61414 2.49164H3.60497C2.98664 2.49164 2.47914 2.99914 2.47914 3.61747V4.61497C2.47914 4.84247 2.35664 5.16914 2.21081 5.34414L1.42331 6.27164C1.08497 6.67414 1.08497 7.32747 1.42331 7.72997L2.21081 8.65747C2.35664 8.83247 2.47914 9.15914 2.47914 9.38664V10.3841C2.47914 11.0025 2.98664 11.51 3.60497 11.51H4.61414C4.84164 11.51 5.17414 11.6325 5.34914 11.7841L6.27081 12.5775C6.67331 12.9216 7.33247 12.9216 7.74081 12.5775L8.66247 11.7841C8.83747 11.6325 9.16414 11.51 9.39747 11.51H10.3891C11.0075 11.51 11.515 11.0025 11.515 10.3841V9.39247C11.515 9.16497 11.6375 8.83247 11.7891 8.65747L12.5825 7.73581C12.9208 7.33331 12.9208 6.66831 12.5766 6.26581ZM9.42664 5.89831L6.60914 8.71581C6.52747 8.79747 6.41664 8.84414 6.29997 8.84414C6.18331 8.84414 6.07247 8.79747 5.99081 8.71581L4.57914 7.30414C4.40997 7.13497 4.40997 6.85497 4.57914 6.68581C4.74831 6.51664 5.02831 6.51664 5.19747 6.68581L6.29997 7.78831L8.80831 5.27997C8.97747 5.11081 9.25747 5.11081 9.42664 5.27997C9.59581 5.44914 9.59581 5.72914 9.42664 5.89831Z" fill="#667085"/>
</svg>
