<svg width="20" height="20" viewBox="0 0 20 20" fill="none" xmlns="http://www.w3.org/2000/svg">
<path d="M18.6225 1.91992H1.42C1.04422 1.91992 0.751953 2.25394 0.751953 2.62972V15.2393H7.43255C7.43255 15.4481 7.59958 15.6151 7.80833 15.6151H12.1924C12.4012 15.6151 12.5682 15.4481 12.5682 15.2393H19.2488V2.62976C19.2906 2.25394 18.9983 1.91992 18.6225 1.91992Z" fill="#1F92D0"/>
<path d="M18.1465 3.07422H1.9043V14.0972H18.1465V3.07422Z" fill="#D3EBF8"/>
<path d="M12.6096 15.2402C12.6096 15.449 12.4426 15.616 12.2338 15.616H7.80794C7.59919 15.616 7.43216 15.449 7.43216 15.2402H0V16.8686C0 17.5367 0.542811 18.0795 1.21085 18.0795H18.7891C19.4572 18.0795 20 17.5367 20 16.8686V15.2402H12.6096Z" fill="#1F92D0"/>
<path d="M9.89578 2.79742C10.0572 2.79742 10.188 2.66657 10.188 2.50515C10.188 2.34374 10.0572 2.21289 9.89578 2.21289C9.73437 2.21289 9.60352 2.34374 9.60352 2.50515C9.60352 2.66657 9.73437 2.79742 9.89578 2.79742Z" fill="#1F92D0"/>
<path d="M8.55863 17.2032C8.74311 17.2032 8.89265 17.0537 8.89265 16.8692C8.89265 16.6847 8.74311 16.5352 8.55863 16.5352C8.37416 16.5352 8.22461 16.6847 8.22461 16.8692C8.22461 17.0537 8.37416 17.2032 8.55863 17.2032Z" fill="#EAFAF6"/>
<path d="M10.0215 17.2032C10.206 17.2032 10.3555 17.0537 10.3555 16.8692C10.3555 16.6847 10.206 16.5352 10.0215 16.5352C9.83705 16.5352 9.6875 16.6847 9.6875 16.8692C9.6875 17.0537 9.83705 17.2032 10.0215 17.2032Z" fill="white"/>
<path d="M11.4825 17.2032C11.6669 17.2032 11.8165 17.0537 11.8165 16.8692C11.8165 16.6847 11.6669 16.5352 11.4825 16.5352C11.298 16.5352 11.1484 16.6847 11.1484 16.8692C11.1484 17.0537 11.298 17.2032 11.4825 17.2032Z" fill="#EAFAF6"/>
<g clip-path="url(#clip0_3747_243192)">
<path d="M13.4165 5.74817C13.0183 5.29844 12.4679 5.05078 11.8667 5.05078C11.3944 5.05078 10.9526 5.24295 10.5891 5.6065C10.3465 5.84905 10.1464 6.15744 10 6.51167C9.85359 6.15744 9.6535 5.84906 9.41097 5.6065C9.04742 5.24295 8.60563 5.05078 8.13336 5.05078C7.53216 5.05078 6.98177 5.29845 6.58355 5.74819C6.21269 6.16695 6 6.73892 6 7.31744C6 8.01209 6.21019 8.69767 6.6247 9.35522C6.95297 9.87591 7.4095 10.38 7.98166 10.8535C8.95112 11.6558 9.90531 12.0878 9.94545 12.1058C9.97988 12.1212 10.0201 12.1212 10.0545 12.1058C10.0947 12.0878 11.0489 11.6558 12.0183 10.8535C12.5905 10.38 13.047 9.87591 13.3753 9.35522C13.7898 8.69767 14 8.01209 14 7.31744C14 6.73892 13.7873 6.16695 13.4165 5.74817Z" fill="#1F92D0"/>
<path d="M8.51498 10.8535C7.94283 10.38 7.4863 9.87589 7.15803 9.3552C6.74352 8.69766 6.53333 8.01206 6.53333 7.31742C6.53333 6.73891 6.74602 6.16694 7.11684 5.74816C7.45184 5.36983 7.89458 5.13455 8.38463 5.06936C8.30203 5.05708 8.21817 5.05078 8.13334 5.05078C7.53214 5.05078 6.98175 5.29845 6.58353 5.74819C6.21269 6.16694 6 6.73891 6 7.31742C6 8.01208 6.21019 8.69766 6.6247 9.3552C6.95297 9.87589 7.4095 10.38 7.98166 10.8535C8.95113 11.6558 9.90531 12.0878 9.94545 12.1057C9.97988 12.1212 10.0201 12.1212 10.0545 12.1057C10.0653 12.1009 10.1418 12.0663 10.2667 12.0028C9.92584 11.8295 9.22455 11.4407 8.51498 10.8535Z" fill="#1F92D0"/>
<path d="M7.33398 8.63687H8.35921L8.96876 7.83332L9.55065 9.32954L10.188 7.58398L10.7837 9.49576L11.4625 8.63687H12.8895" stroke="white" stroke-width="0.4" stroke-linecap="round" stroke-linejoin="round"/>
</g>
<defs>
<clipPath id="clip0_3747_243192">
<rect width="8" height="8" fill="white" transform="translate(6 4.58398)"/>
</clipPath>
</defs>
</svg>
