<svg width="16" height="16" viewBox="0 0 16 16" fill="none" xmlns="http://www.w3.org/2000/svg">
<g id="vuesax/bold/empty-wallet">
<g id="empty-wallet">
<path id="Vector" d="M9.90008 2.63337V5.1667H8.90008V2.63337C8.90008 2.45337 8.74008 2.3667 8.63341 2.3667C8.60008 2.3667 8.56675 2.37337 8.53342 2.3867L3.24675 4.38003C2.89341 4.51337 2.66675 4.8467 2.66675 5.2267V5.67337C2.06008 6.1267 1.66675 6.85337 1.66675 7.67337V5.2267C1.66675 4.43337 2.15341 3.7267 2.89341 3.4467L8.18675 1.4467C8.33341 1.39337 8.48675 1.3667 8.63341 1.3667C9.30008 1.3667 9.90008 1.9067 9.90008 2.63337Z" fill="#28A487"/>
<path id="Vector_2" d="M14.3334 9.66683V10.3335C14.3334 10.5135 14.1934 10.6602 14.0067 10.6668H13.0334C12.68 10.6668 12.36 10.4068 12.3334 10.0602C12.3134 9.8535 12.3934 9.66016 12.5267 9.52683C12.6467 9.40016 12.8134 9.3335 12.9934 9.3335H14C14.1934 9.34016 14.3334 9.48683 14.3334 9.66683Z" fill="#28A487"/>
<path id="Vector_3" d="M12.9867 8.63317H13.6667C14.0334 8.63317 14.3334 8.33317 14.3334 7.9665V7.67317C14.3334 6.29317 13.2067 5.1665 11.8267 5.1665H4.17341C3.60675 5.1665 3.08675 5.35317 2.66675 5.67317C2.06008 6.1265 1.66675 6.85317 1.66675 7.67317V12.1598C1.66675 13.5398 2.79341 14.6665 4.17341 14.6665H11.8267C13.2067 14.6665 14.3334 13.5398 14.3334 12.1598V12.0332C14.3334 11.6665 14.0334 11.3665 13.6667 11.3665H13.0867C12.4467 11.3665 11.8334 10.9732 11.6667 10.3532C11.5267 9.8465 11.6934 9.35984 12.0267 9.03317C12.2734 8.77984 12.6134 8.63317 12.9867 8.63317ZM9.33341 8.49984H4.66675C4.39341 8.49984 4.16675 8.27317 4.16675 7.99984C4.16675 7.7265 4.39341 7.49984 4.66675 7.49984H9.33341C9.60675 7.49984 9.83341 7.7265 9.83341 7.99984C9.83341 8.27317 9.60675 8.49984 9.33341 8.49984Z" fill="#28A487"/>
</g>
</g>
</svg>
