<svg width="100" height="100" viewBox="0 0 100 100" fill="none" xmlns="http://www.w3.org/2000/svg">
<g id="Genius Asset 1 2" clip-path="url(#clip0_6724_10088)">
<g id="Layer 2">
<g id="Layer 1">
<path id="Vector" d="M89.3027 6.56234L95.3934 23.6959C95.8576 24.9997 96.591 26.1912 97.5459 27.1929C98.5008 28.1947 99.6558 28.9843 100.936 29.5104C102.216 30.0366 103.592 30.2874 104.976 30.2467C106.359 30.2061 107.718 29.8747 108.965 29.2743L125.391 21.4678C133.775 17.4833 142.525 26.233 138.54 34.625L130.734 51.0429C130.141 52.2906 129.817 53.6487 129.782 55.0296C129.746 56.4105 130.002 57.7834 130.53 59.0595C131.059 60.3357 131.85 61.4866 132.852 62.4379C133.853 63.3892 135.043 64.1197 136.345 64.5823L153.47 70.6729C155.392 71.3553 157.055 72.616 158.231 74.2817C159.407 75.9475 160.038 77.9365 160.038 79.9756C160.038 82.0147 159.407 84.0038 158.231 85.6695C157.055 87.3353 155.392 88.5959 153.47 89.2783L136.345 95.369C135.044 95.8317 133.855 96.562 132.854 97.5127C131.854 98.4634 131.063 99.6135 130.535 100.889C130.006 102.164 129.75 103.536 129.785 104.916C129.819 106.296 130.142 107.653 130.734 108.9L138.54 125.326C139.413 127.167 139.695 129.232 139.347 131.238C139 133.245 138.041 135.095 136.6 136.535C135.16 137.975 133.31 138.935 131.303 139.282C129.297 139.63 127.232 139.348 125.391 138.475L108.965 130.669C107.718 130.077 106.361 129.754 104.981 129.72C103.601 129.685 102.229 129.941 100.954 130.469C99.6786 130.998 98.5285 131.789 97.5778 132.789C96.627 133.79 95.8967 134.979 95.4341 136.28L89.3434 153.405C88.661 155.327 87.4003 156.99 85.7346 158.166C84.0688 159.342 82.0798 159.973 80.0407 159.973C78.0016 159.973 76.0125 159.342 74.3468 158.166C72.6811 156.99 71.4204 155.327 70.738 153.405L64.6473 136.28C64.1848 134.978 63.4543 133.788 62.5029 132.787C61.5516 131.785 60.4007 130.994 59.1246 130.465C57.8485 129.937 56.4756 129.681 55.0947 129.716C53.7138 129.751 52.3556 130.076 51.108 130.669L34.69 138.475C26.2981 142.46 17.5483 133.71 21.5329 125.326L29.2743 108.965C29.8673 107.719 30.192 106.362 30.2276 104.982C30.2631 103.602 30.0086 102.23 29.4805 100.954C28.9524 99.6789 28.1625 98.5286 27.1619 97.5777C26.1612 96.6268 24.9721 95.8965 23.6715 95.4341L6.56234 89.3027C4.64082 88.6203 2.97777 87.3597 1.80167 85.6939C0.625569 84.0282 -0.00585938 82.0391 -0.00585938 80C-0.00585938 77.9609 0.625569 75.9719 1.80167 74.3061C2.97777 72.6404 4.64082 71.3797 6.56234 70.6973L23.6959 64.6067C24.9947 64.1408 26.1813 63.4078 27.1794 62.455C28.1774 61.5023 28.9646 60.3509 29.4902 59.0751C30.0159 57.7994 30.2682 56.4276 30.231 55.0483C30.1938 53.6691 29.8679 52.3129 29.2743 51.0673L21.4678 34.6493C20.586 32.8055 20.2982 30.7333 20.6442 28.7189C20.9903 26.7045 21.953 24.8471 23.3996 23.4032C24.8462 21.9592 26.7054 20.9999 28.7204 20.6576C30.7355 20.3153 32.8071 20.6069 34.6494 21.4922L51.0673 29.2743C52.3144 29.8674 53.6721 30.1922 55.0526 30.2278C56.4331 30.2634 57.8057 30.0089 59.0817 29.4809C60.3578 28.9529 61.5088 28.163 62.4605 27.1623C63.4122 26.1616 64.1433 24.9724 64.6067 23.6715L70.6973 6.56234C71.3797 4.64082 72.6404 2.97777 74.3061 1.80167C75.9719 0.625569 77.9609 -0.00585938 80 -0.00585937C82.0391 -0.00585938 84.0282 0.625569 85.6939 1.80167C87.3597 2.97777 88.6203 4.64082 89.3027 6.56234Z" fill="#FE5E02"/>
</g>
</g>
</g>
<defs>
<clipPath id="clip0_6724_10088">
<rect width="160" height="160" fill="white"/>
</clipPath>
</defs>
</svg>
