<svg width="46" height="46" viewBox="0 0 46 46" fill="none" xmlns="http://www.w3.org/2000/svg">
<g clip-path="url(#clip0_4665_257754)">
<path d="M42.419 3.11799L45.3121 11.254C45.5316 11.8727 45.8785 12.4383 46.3304 12.9144C46.7823 13.3904 47.3292 13.7663 47.9355 14.0176C48.5419 14.269 49.1943 14.3902 49.8505 14.3735C50.5066 14.3568 51.152 14.2025 51.7448 13.9206L59.5436 10.2132C63.5288 8.31883 67.6861 12.4762 65.7917 16.4614L62.0828 24.2575C61.8012 24.8501 61.6471 25.4953 61.6305 26.1512C61.6139 26.8071 61.7351 27.4592 61.9864 28.0653C62.2376 28.6715 62.6132 29.2181 63.0889 29.67C63.5647 30.1218 64.13 30.4688 64.7482 30.6885L72.8843 33.5817C77.0389 35.0601 77.0389 40.9397 72.8843 42.4181L64.7482 45.3112C64.1297 45.5308 63.5642 45.8778 63.0882 46.3298C62.6123 46.7817 62.2365 47.3286 61.9853 47.9349C61.734 48.5413 61.6129 49.1936 61.6297 49.8497C61.6465 50.5059 61.8008 51.1511 62.0828 51.7439L65.7901 59.5427C67.6845 63.5279 63.5272 67.6852 59.542 65.7908L51.7448 62.0819C51.1521 61.7999 50.5068 61.6456 49.8506 61.6288C49.1945 61.612 48.5422 61.7331 47.9358 61.9844C47.3295 62.2356 46.7826 62.6114 46.3307 63.0873C45.8787 63.5633 45.5317 64.1288 45.3121 64.7473L42.419 72.8833C40.9406 77.038 35.061 77.038 33.5826 72.8833L30.6894 64.7473C30.4696 64.1292 30.1225 63.5641 29.6705 63.0885C29.2186 62.613 28.6719 62.2375 28.0658 61.9864C27.4597 61.7354 26.8076 61.6143 26.1518 61.631C25.496 61.6477 24.8509 61.8019 24.2584 62.0835L16.4574 65.7892C12.4722 67.6836 8.31488 63.5263 10.2093 59.5411L13.9215 51.7439C14.2032 51.1513 14.3574 50.5063 14.3741 49.8504C14.3909 49.1946 14.2698 48.5425 14.0187 47.9363C13.7677 47.3302 13.3922 46.7835 12.9166 46.3316C12.441 45.8797 11.8758 45.5326 11.2577 45.3128L3.1189 42.4181C-1.03573 40.9397 -1.03573 35.0601 3.1189 33.5817L11.255 30.6885C11.8733 30.4689 12.4387 30.122 12.9145 29.6702C13.3904 29.2184 13.7661 28.6718 14.0175 28.0656C14.2688 27.4595 14.3901 26.8073 14.3736 26.1514C14.357 25.4954 14.203 24.8502 13.9215 24.2575L10.2114 16.4565C8.31704 12.4713 12.4744 8.31397 16.4596 10.2084L24.2584 13.9206C24.8509 14.2022 25.496 14.3563 26.1518 14.373C26.8076 14.3897 27.4597 14.2687 28.0658 14.0176C28.6719 13.7665 29.2186 13.3911 29.6705 12.9155C30.1225 12.44 30.4696 11.8749 30.6894 11.2567L33.5826 3.11799C35.061 -1.03933 40.9406 -1.03933 42.419 3.11799Z" fill="#FFCCE4"/>
<path d="M41.6743 8.99858L44.0797 15.7631C44.2625 16.2768 44.5511 16.7465 44.9267 17.1417C45.3023 17.537 45.7567 17.8491 46.2605 18.0578C46.7642 18.2666 47.3062 18.3673 47.8513 18.3535C48.3964 18.3398 48.9326 18.2118 49.4252 17.978L55.9096 14.896C59.2225 13.321 62.6789 16.7774 61.104 20.0904L58.022 26.5748C57.7878 27.0674 57.6595 27.6037 57.6456 28.149C57.6317 28.6943 57.7323 29.2364 57.9411 29.7404C58.1499 30.2443 58.4621 30.6988 58.8575 31.0745C59.253 31.4502 59.7229 31.7387 60.2369 31.9213L67.0008 34.3272C70.4573 35.5564 70.4573 40.4442 67.0008 41.6734L60.2369 44.0787C59.7229 44.2615 59.253 44.55 58.8575 44.9257C58.462 45.3015 58.1498 45.756 57.9411 46.26C57.7323 46.764 57.6316 47.3062 57.6456 47.8515C57.6595 48.3968 57.7878 48.9331 58.022 49.4258L61.104 55.9102C62.6789 59.2232 59.2225 62.6796 55.9096 61.1046L49.4252 58.0226C48.9325 57.7884 48.3962 57.6602 47.8508 57.6462C47.3055 57.6323 46.7633 57.733 46.2594 57.9417C45.7554 58.1505 45.3008 58.4627 44.9251 58.8582C44.5494 59.2536 44.2608 59.7235 44.0781 60.2375L41.6727 67.0015C40.4436 70.4579 35.5557 70.4579 34.3266 67.0015L31.9207 60.2375C31.738 59.7236 31.4495 59.2537 31.0738 58.8582C30.6982 58.4627 30.2436 58.1505 29.7397 57.9417C29.2358 57.733 28.6936 57.6323 28.1484 57.6462C27.6031 57.6602 27.0668 57.7884 26.5742 58.0226L20.0897 61.1046C16.7768 62.6796 13.3204 59.2232 14.8953 55.9102L17.9789 49.4242C18.2131 48.9315 18.3413 48.3952 18.3551 47.8499C18.369 47.3046 18.2684 46.7624 18.0596 46.2585C17.8509 45.7545 17.5387 45.3 17.1433 44.9242C16.7478 44.5485 16.278 44.2599 15.764 44.0771L8.99955 41.6734C5.54312 40.4442 5.54312 35.5564 8.99955 34.3272L15.764 31.9213C16.278 31.7386 16.7478 31.4501 17.1432 31.0744C17.5387 30.6987 17.8508 30.2442 18.0596 29.7403C18.2683 29.2363 18.369 28.6942 18.3551 28.149C18.3412 27.6037 18.2131 27.0674 17.9789 26.5748L14.897 20.0904C13.322 16.7774 16.7784 13.321 20.0913 14.896L26.5758 17.978C27.0684 18.2121 27.6047 18.3403 28.15 18.3542C28.6952 18.368 29.2373 18.2674 29.7412 18.0586C30.2451 17.8499 30.6996 17.5377 31.0753 17.1423C31.451 16.7468 31.7396 16.277 31.9223 15.7631L34.3282 8.99858C35.5584 5.54214 40.4452 5.54214 41.6743 8.99858Z" fill="#CC005F"/>
<path d="M41.0816 13.6765L43.099 19.35C43.2525 19.7809 43.4948 20.1747 43.81 20.5061C44.1253 20.8375 44.5066 21.0991 44.9293 21.2739C45.352 21.4488 45.8066 21.533 46.2639 21.5211C46.7211 21.5092 47.1708 21.4016 47.5838 21.205L53.0221 18.62C55.8008 17.2991 58.6999 20.1982 57.3791 22.977L54.794 28.4152C54.5975 28.8283 54.49 29.2781 54.4782 29.7354C54.4665 30.1927 54.5509 30.6474 54.726 31.0701C54.901 31.4928 55.1628 31.874 55.4944 32.1891C55.8261 32.5042 56.2201 32.7462 56.6512 32.8995L62.3247 34.9175C65.2237 35.948 65.2237 40.0476 62.3247 41.0787L56.6512 43.0961C56.2201 43.2495 55.826 43.4915 55.4944 43.8067C55.1628 44.1219 54.901 44.5031 54.7259 44.9258C54.5509 45.3485 54.4665 45.8033 54.4782 46.2606C54.49 46.718 54.5975 47.1678 54.794 47.581L57.3791 53.0192C58.6999 55.798 55.8008 58.697 53.0221 57.3762L47.5838 54.7911C47.1707 54.5947 46.7209 54.4871 46.2635 54.4754C45.8061 54.4636 45.3514 54.548 44.9287 54.7231C44.506 54.8981 44.1247 55.1599 43.8096 55.4915C43.4944 55.8232 43.2523 56.2173 43.099 56.6483L41.0816 62.3218C40.0505 65.2209 35.9509 65.2209 34.9203 62.3218L32.9024 56.6483C32.7491 56.2173 32.5071 55.8232 32.192 55.4916C31.8768 55.1599 31.4956 54.8981 31.073 54.7231C30.6503 54.548 30.1956 54.4637 29.7383 54.4754C29.281 54.4871 28.8312 54.5947 28.4181 54.7911L22.9798 57.3762C20.2011 58.697 17.302 55.798 18.6229 53.0192L21.2057 47.5831C21.4022 47.17 21.5098 46.7201 21.5215 46.2628C21.5332 45.8054 21.4489 45.3507 21.2738 44.928C21.0988 44.5053 20.837 44.124 20.5053 43.8089C20.1737 43.4937 19.7796 43.2516 19.3486 43.0983L13.6772 41.0809C10.7782 40.0498 10.7782 35.9502 13.6772 34.9196L19.3507 32.9017C19.7816 32.7482 20.1754 32.506 20.5068 32.1908C20.8382 31.8756 21.0998 31.4943 21.2746 31.0717C21.4494 30.649 21.5336 30.1944 21.5218 29.7372C21.5099 29.28 21.4023 28.8304 21.2057 28.4174L18.6229 22.9791C17.302 20.2004 20.2011 17.3013 22.9798 18.6221L28.4181 21.205C28.8312 21.4015 29.281 21.5091 29.7383 21.5208C30.1956 21.5325 30.6503 21.4481 31.073 21.2731C31.4956 21.098 31.8768 20.8362 32.192 20.5046C32.5071 20.173 32.7491 19.7789 32.9024 19.3479L34.9203 13.6744C35.9509 10.7775 40.0505 10.7775 41.0816 13.6765Z" fill="#FFCCE4"/>
<path d="M40.4681 18.524L42.0836 23.0666C42.2063 23.4117 42.4002 23.7273 42.6525 23.9928C42.9048 24.2583 43.2101 24.4679 43.5485 24.6081C43.887 24.7482 44.251 24.8158 44.6172 24.8064C44.9834 24.7971 45.3436 24.7109 45.6744 24.5536L50.0286 22.4839C52.2538 21.4263 54.575 23.7475 53.5169 25.9727L51.4472 30.327C51.2899 30.6576 51.2037 31.0176 51.1943 31.3837C51.1848 31.7498 51.2522 32.1137 51.3921 32.4521C51.532 32.7905 51.7414 33.0958 52.0066 33.3482C52.2719 33.6007 52.5871 33.7947 52.932 33.9177L57.4746 35.5332C59.7947 36.3582 59.7947 39.6409 57.4746 40.4664L52.932 42.0818C52.5869 42.2046 52.2714 42.3984 52.0058 42.6507C51.7403 42.9031 51.5306 43.2083 51.3904 43.5467C51.2503 43.8852 51.1826 44.2492 51.1919 44.6154C51.2012 44.9816 51.2873 45.3418 51.4445 45.6726L53.5142 50.0269C54.5723 52.2521 52.2511 54.5732 50.0259 53.5152L45.6717 51.4454C45.3411 51.2885 44.9812 51.2027 44.6154 51.1934C44.2495 51.1842 43.8858 51.2517 43.5477 51.3917C43.2096 51.5316 42.9045 51.7409 42.6523 52.006C42.4 52.2711 42.2061 52.5862 42.0831 52.9308L40.4681 57.4756C39.6426 59.7957 36.3599 59.7957 35.5349 57.4756L33.9189 52.9308C33.7962 52.5857 33.6024 52.2702 33.35 52.0046C33.0977 51.7391 32.7925 51.5294 32.4541 51.3892C32.1156 51.249 31.7516 51.1814 31.3854 51.1907C31.0192 51.2 30.659 51.286 30.3282 51.4432L25.9739 53.513C23.7487 54.5711 21.4275 52.2499 22.4851 50.0247L24.5548 45.6705C24.7121 45.3397 24.7983 44.9795 24.8076 44.6133C24.817 44.2471 24.7495 43.8831 24.6093 43.5446C24.4692 43.2062 24.2595 42.9009 23.994 42.6486C23.7285 42.3962 23.4129 42.2024 23.0678 42.0797L18.5252 40.4669C16.2051 39.6414 16.2051 36.3587 18.5252 35.5337L23.0678 33.9183C23.4129 33.7955 23.7285 33.6017 23.994 33.3494C24.2595 33.097 24.4692 32.7918 24.6093 32.4533C24.7495 32.1149 24.817 31.7508 24.8076 31.3846C24.7983 31.0185 24.7121 30.6583 24.5548 30.3275L22.4851 25.9732C21.4275 23.7481 23.7487 21.4269 25.9739 22.4844L30.3282 24.5542C30.659 24.7115 31.0191 24.7976 31.3853 24.807C31.7515 24.8164 32.1156 24.7488 32.454 24.6086C32.7924 24.4685 33.0977 24.2589 33.35 23.9933C33.6024 23.7278 33.7962 23.4123 33.9189 23.0671L35.5344 18.5246C36.3594 16.2028 39.6421 16.2028 40.4681 18.524Z" fill="#CC005F"/>
<path d="M40.0587 21.7567L41.4076 25.5455C41.5099 25.8334 41.6715 26.0966 41.8819 26.3181C42.0923 26.5396 42.3469 26.7145 42.6291 26.8314C42.9114 26.9484 43.215 27.0048 43.5204 26.9971C43.8258 26.9894 44.1262 26.9176 44.4022 26.7865L48.034 25.0599C49.8895 24.1777 51.8255 26.1137 50.9433 27.9698L49.2167 31.6016C49.0855 31.8775 49.0137 32.1779 49.0059 32.4833C48.9981 32.7888 49.0545 33.0925 49.1715 33.3747C49.2885 33.657 49.4634 33.9115 49.6849 34.1219C49.9065 34.3323 50.1697 34.4939 50.4577 34.5961L54.2465 35.945C56.1824 36.6335 56.1824 39.3713 54.2465 40.0597L50.4577 41.4086C50.1697 41.5109 49.9065 41.6724 49.6849 41.8828C49.4634 42.0932 49.2885 42.3478 49.1715 42.6301C49.0545 42.9123 48.9981 43.216 49.0059 43.5214C49.0137 43.8269 49.0855 44.1273 49.2167 44.4032L50.9433 48.035C51.8255 49.8906 49.8895 51.8265 48.034 50.9443L44.4022 49.2177C44.1262 49.0865 43.8258 49.0147 43.5204 49.0069C43.2149 48.9992 42.9113 49.0556 42.629 49.1726C42.3468 49.2895 42.0922 49.4644 41.8818 49.686C41.6714 49.9075 41.5098 50.1708 41.4076 50.4587L40.0587 54.2475C39.3702 56.1835 36.6325 56.1835 35.944 54.2475L34.5951 50.4587C34.4928 50.1708 34.3313 49.9075 34.1209 49.686C33.9105 49.4644 33.6559 49.2895 33.3737 49.1726C33.0914 49.0556 32.7877 48.9992 32.4823 49.0069C32.1769 49.0147 31.8765 49.0865 31.6005 49.2177L27.9687 50.9443C26.1126 51.8265 24.1767 49.8906 25.0589 48.035L26.7855 44.4032C26.9166 44.1273 26.9883 43.8269 26.9961 43.5215C27.0038 43.216 26.9474 42.9124 26.8304 42.6302C26.7134 42.3479 26.5385 42.0934 26.317 41.883C26.0955 41.6726 25.8323 41.511 25.5445 41.4086L21.7557 40.0597C19.8197 39.3713 19.8197 36.6335 21.7557 35.945L25.5445 34.5961C25.8323 34.4938 26.0955 34.3322 26.317 34.1218C26.5385 33.9114 26.7134 33.6568 26.8304 33.3746C26.9474 33.0924 27.0038 32.7887 26.9961 32.4833C26.9883 32.1779 26.9166 31.8775 26.7855 31.6016L25.0589 27.9698C24.1783 26.1153 26.1164 24.1772 27.9703 25.0594L31.6021 26.786C31.8781 26.9171 32.1785 26.9888 32.4839 26.9966C32.7893 27.0043 33.0929 26.9479 33.3752 26.8309C33.6574 26.7139 33.912 26.5391 34.1224 26.3175C34.3328 26.096 34.4944 25.8328 34.5967 25.545L35.9456 21.7562C36.6325 19.8208 39.3702 19.8208 40.0587 21.7567Z" fill="#FFC6FF"/>
<path d="M40.0587 21.7567L41.4076 25.5455C41.5099 25.8334 41.6715 26.0966 41.8819 26.3181C42.0923 26.5396 42.3469 26.7145 42.6291 26.8314C42.9114 26.9484 43.215 27.0048 43.5204 26.9971C43.8258 26.9894 44.1262 26.9176 44.4022 26.7865L48.034 25.0599C49.8895 24.1777 51.8255 26.1137 50.9433 27.9698L49.2167 31.6016C49.0855 31.8775 49.0137 32.1779 49.0059 32.4833C48.9981 32.7888 49.0545 33.0925 49.1715 33.3747C49.2885 33.657 49.4634 33.9115 49.6849 34.1219C49.9065 34.3323 50.1697 34.4939 50.4577 34.5961L54.2465 35.945C56.1824 36.6335 56.1824 39.3713 54.2465 40.0597L50.4577 41.4086C50.1697 41.5109 49.9065 41.6724 49.6849 41.8828C49.4634 42.0932 49.2885 42.3478 49.1715 42.6301C49.0545 42.9123 48.9981 43.216 49.0059 43.5214C49.0137 43.8269 49.0855 44.1273 49.2167 44.4032L50.9433 48.035C51.8255 49.8906 49.8895 51.8265 48.034 50.9443L44.4022 49.2177C44.1262 49.0865 43.8258 49.0147 43.5204 49.0069C43.2149 48.9992 42.9113 49.0556 42.629 49.1726C42.3468 49.2895 42.0922 49.4644 41.8818 49.686C41.6714 49.9075 41.5098 50.1708 41.4076 50.4587L40.0587 54.2475C39.3702 56.1835 36.6325 56.1835 35.944 54.2475L34.5951 50.4587C34.4928 50.1708 34.3313 49.9075 34.1209 49.686C33.9105 49.4644 33.6559 49.2895 33.3737 49.1726C33.0914 49.0556 32.7877 48.9992 32.4823 49.0069C32.1769 49.0147 31.8765 49.0865 31.6005 49.2177L27.9687 50.9443C26.1126 51.8265 24.1767 49.8906 25.0589 48.035L26.7855 44.4032C26.9166 44.1273 26.9883 43.8269 26.9961 43.5215C27.0038 43.216 26.9474 42.9124 26.8304 42.6302C26.7134 42.3479 26.5385 42.0934 26.317 41.883C26.0955 41.6726 25.8323 41.511 25.5445 41.4086L21.7557 40.0597C19.8197 39.3713 19.8197 36.6335 21.7557 35.945L25.5445 34.5961C25.8323 34.4938 26.0955 34.3322 26.317 34.1218C26.5385 33.9114 26.7134 33.6568 26.8304 33.3746C26.9474 33.0924 27.0038 32.7887 26.9961 32.4833C26.9883 32.1779 26.9166 31.8775 26.7855 31.6016L25.0589 27.9698C24.1783 26.1153 26.1164 24.1772 27.9703 25.0594L31.6021 26.786C31.8781 26.9171 32.1785 26.9888 32.4839 26.9966C32.7893 27.0043 33.0929 26.9479 33.3752 26.8309C33.6574 26.7139 33.912 26.5391 34.1224 26.3175C34.3328 26.096 34.4944 25.8328 34.5967 25.545L35.9456 21.7562C36.6325 19.8208 39.3702 19.8208 40.0587 21.7567Z" fill="#FFCCE4"/>
<path d="M39.5371 25.8693L40.5434 28.6987C40.6198 28.9137 40.7405 29.1103 40.8977 29.2757C41.0548 29.4411 41.245 29.5717 41.4558 29.659C41.6665 29.7463 41.8933 29.7884 42.1214 29.7826C42.3495 29.7768 42.5738 29.7231 42.7799 29.6252L45.4917 28.3361C46.8773 27.6773 48.3233 29.1228 47.6645 30.509L46.3755 33.2208C46.2776 33.4269 46.2239 33.6512 46.2181 33.8793C46.2123 34.1074 46.2544 34.3341 46.3417 34.5449C46.429 34.7557 46.5596 34.9459 46.725 35.103C46.8904 35.2602 47.087 35.3809 47.302 35.4573L50.1309 36.4636C51.5769 36.9778 51.5769 39.0222 50.1309 39.5391L47.302 40.5427C47.087 40.6191 46.8904 40.7398 46.725 40.8969C46.5596 41.0541 46.429 41.2442 46.3417 41.455C46.2544 41.6658 46.2123 41.8926 46.2181 42.1207C46.2239 42.3488 46.2776 42.5731 46.3755 42.7791L47.6645 45.491C48.3233 46.8766 46.8773 48.3226 45.4917 47.6638L42.7799 46.3748C42.5738 46.2768 42.3495 46.2232 42.1214 46.2174C41.8933 46.2115 41.6665 46.2536 41.4558 46.341C41.245 46.4283 41.0548 46.5589 40.8977 46.7243C40.7405 46.8897 40.6198 47.0862 40.5434 47.3012L39.5371 50.1301C39.0229 51.5762 36.9785 51.5762 36.4616 50.1301L35.4553 47.3012C35.3789 47.0862 35.2582 46.8897 35.1011 46.7243C34.9439 46.5589 34.7538 46.4283 34.543 46.341C34.3322 46.2536 34.1054 46.2115 33.8773 46.2174C33.6492 46.2232 33.4249 46.2768 33.2189 46.3748L30.507 47.6638C29.1209 48.3226 27.6754 46.8766 28.3342 45.491L29.6232 42.7791C29.7212 42.5731 29.7748 42.3488 29.7806 42.1207C29.7865 41.8926 29.7444 41.6658 29.657 41.455C29.5697 41.2442 29.4391 41.0541 29.2737 40.8969C29.1083 40.7398 28.9118 40.6191 28.6968 40.5427L25.8673 39.5364C24.4218 39.0222 24.4218 36.9778 25.8673 36.4609L28.6968 35.4546C28.9118 35.3782 29.1083 35.2575 29.2737 35.1003C29.4391 34.9432 29.5697 34.753 29.657 34.5422C29.7444 34.3314 29.7865 34.1047 29.7806 33.8766C29.7748 33.6485 29.7212 33.4242 29.6232 33.2181L28.3342 30.5063C27.6802 29.1228 29.1236 27.6795 30.5097 28.3361L33.2215 29.6252C33.4276 29.7231 33.6519 29.7768 33.88 29.7826C34.1081 29.7884 34.3349 29.7463 34.5457 29.659C34.7565 29.5717 34.9466 29.4411 35.1038 29.2757C35.2609 29.1103 35.3816 28.9137 35.458 28.6987L36.4643 25.8693C36.9785 24.4238 39.0229 24.4238 39.5371 25.8693Z" fill="#CC005F"/>
</g>
<defs>
<clipPath id="clip0_4665_257754">
<rect width="76" height="76" fill="white"/>
</clipPath>
</defs>
</svg>
